<?xml version="1.0" encoding="utf-8"?>
<!-- Generator: Adobe Illustrator 27.2.0, SVG Export Plug-In . SVG Version: 6.00 Build 0)  -->
<svg version="1.1" xmlns="http://www.w3.org/2000/svg" xmlns:xlink="http://www.w3.org/1999/xlink" x="0px" y="0px"
	 viewBox="0 0 607.8 385.1" style="enable-background:new 0 0 607.8 385.1;" xml:space="preserve">
<style type="text/css">
	.st0{fill:none;stroke:#646464;stroke-width:14.1732;stroke-linecap:round;stroke-linejoin:round;stroke-miterlimit:10;}
	.st1{fill:none;stroke:#FFD449;stroke-width:2.8346;stroke-miterlimit:10;}
	.st2{fill:none;stroke:#54C6EB;stroke-width:2.8346;stroke-miterlimit:10;}
	.st3{fill:none;stroke:#F4442E;stroke-width:2.8346;stroke-miterlimit:10;}
	.st4{fill:none;stroke:#FFFFFF;stroke-width:2.126;}
	.st5{fill:#646464;}
	.st6{fill:#FFFFFF;}
	.st7{fill:none;stroke:#646464;stroke-width:2.8346;stroke-miterlimit:10;}
	.st8{fill:#FF3380;}
	.st9{fill:none;stroke:#FF3380;stroke-width:1.9843;stroke-miterlimit:10;}
	.st10{fill:#09BC8A;}
	.st11{fill:none;stroke:#09BC8A;stroke-width:1.9843;stroke-miterlimit:10;}
	.st12{fill:none;stroke:#09BC8A;stroke-width:2.8346;stroke-miterlimit:10;}
	.st13{clip-path:url(#SVGID_00000004518199464985064090000014081694519085100186_);}
	.st14{fill:#F4442E;}
	.st15{fill:#54C6EB;}
	.st16{fill:#FFD449;}
	.st17{fill:none;stroke:#646464;stroke-width:0.7087;stroke-miterlimit:10;}
	.st18{fill:none;stroke:#F4442E;stroke-width:5.6693;stroke-miterlimit:10;}
	.st19{fill:none;stroke:#54C6EB;stroke-width:5.6693;stroke-miterlimit:10;}
	.st20{fill:none;stroke:#FFD449;stroke-width:5.6693;stroke-miterlimit:10;}
</style>
<g id="コース">
	<path class="st0" d="M455.8,309.4c-7.8,0.6-207.3,5.5-209.8,5.7c-2.5,0.2-5.5-0.5-6.2-1.4c-0.7-0.9-2.1-5.3-2.7-8.2
		c-0.7-3-5.7-11.2-12.1-14.9c-6.4-3.7-14.9-6.6-29-4.8c-14.2,1.8-48.9,1.6-62.4,0.2c-13.5-1.4-38.6-5.9-46.9-8
		c-8.2-2.1-18.1-4.6-20.3-5.7c-2.3-1.1-5.7-1.6-6.4-5.9c-0.7-4.3,0.9-5,2.5-7.8c1.6-2.7,11.4-16.2,12.8-18.3
		c1.4-2.1,1.8-3.2,1.8-5.7s-0.7-4.1-3-6.2c-2.3-2.1-31.7-28.8-34.3-31.5c-3-3.2-5.3-5.7-4.8-12.6c0.5-6.9,2.5-18.3,3-23.8
		c0.5-5.5,1.8-13.3,3.4-18.1c1.6-4.8,3.9-9.4,7.3-17.6c3.4-8.2,7.5-17.1,8.7-21.7c1.1-4.6,3.2-14.2,3.7-17.6
		c0.5-3.4,1.6-7.3,7.5-6.9c5.9,0.5,16.9-0.5,24.5-6.4c7.5-5.9,20.6-22.2,42.3-22.2s33.6,9.8,41.4,15.1s21.5,15.3,26.5,20.3
		c5,5,12.8,12.3,26.3,45.5c10.6,26.1,19.3,38.9,40.7,53.2c26.3,17.6,43.2,15.1,71.1,13.7c9.4-0.5,20.8-1.6,25.6-2.1s7.1-2.3,9.4-5.5
		c2.3-3.2,12.3-16.9,13.7-19c1.4-2.1,2.5-4.1,9.1-4.6c6.6-0.5,53.5-4.8,60.3-5c6.9-0.2,18.7-0.2,33.4,6.6
		c14.6,6.9,62.4,32.2,66.3,34.3c3.9,2.1,10.3,6.4,11.7,7.8c1.4,1.4,3.2,3.7,1.4,7.3c-1.8,3.7-16.5,26.7-18.7,32.5
		c-2.3,5.7-5.7,12.1-8.5,16.5c-2.7,4.3-9.1,13-21.3,10.1c-12.1-3-43-11-45.7-11.4c-2.7-0.5-7.1-1.1-7.1,3.9c0,5,1.4,18.5,1.6,25.4
		C472.7,301.7,465.4,308.7,455.8,309.4z"/>
</g>
<g id="セクター">
	<path class="st1" d="M341.3,198.1c9.4-0.5,20.8-1.6,25.6-2.1s7.1-2.3,9.4-5.5c2.3-3.2,12.3-16.9,13.7-19c1.4-2.1,2.5-4.1,9.1-4.6
		c6.6-0.5,53.5-4.8,60.3-5c6.9-0.2,18.7-0.2,33.4,6.6c14.6,6.9,62.4,32.2,66.3,34.3c3.9,2.1,10.3,6.4,11.7,7.8
		c1.4,1.4,3.2,3.7,1.4,7.3c-1.8,3.7-16.5,26.7-18.7,32.5c-2.3,5.7-5.7,12.1-8.5,16.5c-2.7,4.3-9.1,13-21.3,10.1
		c-12.1-3-43-11-45.7-11.4c-2.7-0.5-7.1-1.1-7.1,3.9c0,5,1.4,18.5,1.6,25.4c0.2,6.9-7.1,13.9-16.7,14.6c-4,0.3-58.7,1.7-111.3,3.1"
		/>
	<path class="st2" d="M57.4,103.3c1.1-4.6,3.2-14.2,3.7-17.6c0.5-3.4,1.6-7.3,7.5-6.9c5.9,0.5,16.9-0.5,24.5-6.4
		c7.5-5.9,20.6-22.2,42.3-22.2s33.6,9.8,41.4,15.1s21.5,15.3,26.5,20.3c5,5,12.8,12.3,26.3,45.5c10.6,26.1,19.3,38.9,40.7,53.2
		c26.3,17.6,43.2,15.1,71.1,13.7"/>
	<path class="st3" d="M344.5,312.5c-49.6,1.3-97.3,2.5-98.5,2.6c-2.5,0.2-5.5-0.5-6.2-1.4c-0.7-0.9-2.1-5.3-2.7-8.2
		c-0.7-3-5.7-11.2-12.1-14.9c-6.4-3.7-14.9-6.6-29-4.8c-14.2,1.8-48.9,1.6-62.4,0.2c-13.5-1.4-38.6-5.9-46.9-8
		c-8.2-2.1-18.1-4.6-20.3-5.7c-2.3-1.1-5.7-1.6-6.4-5.9c-0.7-4.3,0.9-5,2.5-7.8c1.6-2.7,11.4-16.2,12.8-18.3
		c1.4-2.1,1.8-3.2,1.8-5.7s-0.7-4.1-3-6.2c-2.3-2.1-31.7-28.8-34.3-31.5c-3-3.2-5.3-5.7-4.8-12.6c0.5-6.9,2.5-18.3,3-23.8
		c0.5-5.5,1.8-13.3,3.4-18.1c1.6-4.8,3.9-9.4,7.3-17.6c3.4-8.2,7.5-17.1,8.7-21.7"/>
</g>
<g id="コーナー番号">
	<g>
		<g>
			<circle class="st4" cx="226.5" cy="328.5" r="8.5"/>
			<circle class="st5" cx="226.5" cy="328.5" r="8.5"/>
		</g>
		<g>
			<path class="st6" d="M224.8,332.4v-1.6h1v-4.5h-0.9v-1.6h2.6v6.1h0.9v1.6H224.8z"/>
		</g>
	</g>
	<g>
		<g>
			<circle class="st4" cx="237.8" cy="275.1" r="8.5"/>
			<circle class="st5" cx="237.8" cy="275.1" r="8.5"/>
		</g>
		<g>
			<path class="st6" d="M235.7,279v-2.6c0-0.6,0.1-1,0.6-1.2l1.9-0.8v-1.6l-0.1-0.1h-0.5l-0.1,0.1v1.1h-1.7v-1.3
				c0-0.8,0.4-1.1,0.8-1.3h2.5c0.5,0.2,0.8,0.5,0.8,1.3v1.9c0,0.6-0.1,0.9-0.6,1.2l-1.9,0.8v0.9h2.4v1.6H235.7z"/>
		</g>
	</g>
	<g>
		<g>
			<circle class="st4" cx="39.9" cy="273.6" r="8.5"/>
			<circle class="st5" cx="39.9" cy="273.6" r="8.5"/>
		</g>
		<g>
			<path class="st6" d="M38.6,277.5c-0.5-0.2-0.8-0.5-0.8-1.3v-1h1.7v0.8l0.1,0.1h0.5l0.1-0.1v-1.6l-0.1-0.1h-1V273h1l0.1-0.1v-1.5
				l-0.1-0.1h-0.5l-0.1,0.1v0.8h-1.7v-1c0-0.8,0.4-1.1,0.8-1.3h2.5c0.5,0.2,0.8,0.5,0.8,1.3v1.3c0,0.6-0.2,0.9-0.6,1.2
				c0.4,0.3,0.6,0.6,0.6,1.2v1.4c0,0.8-0.4,1.1-0.8,1.3H38.6z"/>
		</g>
	</g>
	<g>
		<g>
			<circle class="st4" cx="96.1" cy="230.5" r="8.5"/>
			<circle class="st5" cx="96.1" cy="230.5" r="8.5"/>
		</g>
		<g>
			<path class="st6" d="M97.8,232.9v1.5h-1.7v-1.5h-2.2v-1.5l1.6-4.7h1.7l-1.6,4.6h0.5v-0.4l0.4-1h1.3v1.4h0.5v1.6H97.8z"/>
		</g>
	</g>
	<g>
		<g>
			<circle class="st4" cx="16.7" cy="195.9" r="8.5"/>
			<circle class="st5" cx="16.7" cy="195.9" r="8.5"/>
		</g>
		<g>
			<path class="st6" d="M15.4,199.8c-0.5-0.2-0.8-0.5-0.8-1.3v-1h1.6v0.8l0.1,0.1h0.6l0.1-0.1v-2.1l-0.1-0.1h-0.6l-0.1,0.1v0.4h-1.6
				v-4.5h4v1.5h-2.4v1.6l0.4-0.4h1.3c0.5,0.2,0.8,0.5,0.8,1.3v2.4c0,0.8-0.4,1.1-0.8,1.3H15.4z"/>
		</g>
	</g>
	<g>
		<g>
			<circle class="st4" cx="49.2" cy="66.7" r="8.5"/>
			<circle class="st5" cx="49.2" cy="66.7" r="8.5"/>
		</g>
		<g>
			<path class="st6" d="M50.5,70.6H48c-0.5-0.2-0.8-0.5-0.8-1.3v-5.1c0-0.8,0.4-1.1,0.8-1.3h2.5c0.5,0.2,0.8,0.5,0.8,1.3v1h-1.7
				v-0.8l-0.1-0.1h-0.5l-0.1,0.1v1.8l0.3-0.3h1.3c0.5,0.2,0.8,0.5,0.8,1.3v2.2C51.3,70.1,50.9,70.4,50.5,70.6z M49.5,69.2l0.1-0.1
				v-1.8l-0.1-0.1h-0.5l-0.1,0.1v1.8l0.1,0.1H49.5z"/>
		</g>
	</g>
	<g>
		<g>
			<circle class="st4" cx="106.3" cy="89" r="8.5"/>
			<circle class="st5" cx="106.3" cy="89" r="8.5"/>
		</g>
		<g>
			<path class="st6" d="M104.5,92.9l2.1-6.2h-2.4v-1.5h4.1v1.2l-2.1,6.5H104.5z"/>
		</g>
	</g>
	<g>
		<g>
			<circle class="st4" cx="141.8" cy="30.8" r="8.5"/>
			<circle class="st5" cx="141.8" cy="30.8" r="8.5"/>
		</g>
		<g>
			<path class="st6" d="M140.5,34.7c-0.5-0.2-0.8-0.5-0.8-1.3V32c0-0.6,0.2-0.9,0.6-1.2c-0.4-0.3-0.6-0.6-0.6-1.2v-1.3
				c0-0.8,0.4-1.1,0.8-1.3h2.5c0.5,0.2,0.8,0.5,0.8,1.3v1.3c0,0.6-0.2,0.9-0.6,1.2c0.4,0.3,0.6,0.6,0.6,1.2v1.4
				c0,0.8-0.4,1.1-0.8,1.3H140.5z M141.4,30.1l0.1,0.1h0.5l0.1-0.1v-1.5l-0.1-0.1h-0.5l-0.1,0.1V30.1z M142.1,33.2v-1.6l-0.1-0.1
				h-0.5l-0.1,0.1v1.6l0.1,0.1h0.5L142.1,33.2z"/>
		</g>
	</g>
	<g>
		<g>
			<circle class="st4" cx="380.6" cy="212.5" r="8.5"/>
			<circle class="st5" cx="380.6" cy="212.5" r="8.5"/>
		</g>
		<g>
			<path class="st6" d="M379.3,216.3c-0.5-0.2-0.8-0.5-0.8-1.3v-1h1.7v0.8l0.1,0.1h0.5l0.1-0.1v-1.8l-0.3,0.3h-1.3
				c-0.5-0.2-0.8-0.5-0.8-1.3V210c0-0.8,0.4-1.1,0.8-1.3h2.5c0.5,0.2,0.8,0.5,0.8,1.3v5.1c0,0.8-0.4,1.1-0.8,1.3H379.3z M381,212
				v-1.8l-0.1-0.1h-0.5l-0.1,0.1v1.8l0.1,0.1h0.5L381,212z"/>
		</g>
	</g>
	<g>
		<g>
			<circle class="st4" cx="380.5" cy="154.4" r="8.5"/>
			<circle class="st5" cx="380.5" cy="154.4" r="8.5"/>
		</g>
		<g>
			<path class="st6" d="M376.4,158.3v-1.6h1v-4.5h-0.9v-1.6h2.6v6.1h0.9v1.6H376.4z"/>
			<path class="st6" d="M384,158.3h-2.5c-0.5-0.2-0.8-0.5-0.8-1.3v-5.1c0-0.8,0.4-1.1,0.8-1.3h2.5c0.5,0.2,0.8,0.5,0.8,1.3v5.1
				C384.9,157.8,384.5,158.1,384,158.3z M383.2,152.1l-0.1-0.1h-0.5l-0.1,0.1v4.7l0.1,0.1h0.5l0.1-0.1V152.1z"/>
		</g>
	</g>
	<g>
		<g>
			<circle class="st4" cx="591.1" cy="210" r="8.5"/>
			<circle class="st5" cx="591.1" cy="210" r="8.5"/>
		</g>
		<g>
			<path class="st6" d="M587.1,213.8v-1.6h1v-4.5h-0.9v-1.6h2.6v6.1h0.9v1.6H587.1z"/>
			<path class="st6" d="M591.8,213.8v-1.6h1v-4.5h-0.9v-1.6h2.6v6.1h0.9v1.6H591.8z"/>
		</g>
	</g>
	<g>
		<g>
			<circle class="st4" cx="540.3" cy="295.3" r="8.5"/>
			<circle class="st5" cx="540.3" cy="295.3" r="8.5"/>
		</g>
		<g>
			<path class="st6" d="M536.3,299.2v-1.6h1v-4.5h-0.9v-1.6h2.6v6.1h0.9v1.6H536.3z"/>
			<path class="st6" d="M540.6,299.2v-2.6c0-0.6,0.1-1,0.6-1.2l1.9-0.8V293l-0.1-0.1h-0.5l-0.1,0.1v1.1h-1.7v-1.3
				c0-0.8,0.4-1.1,0.8-1.3h2.5c0.5,0.2,0.8,0.5,0.8,1.3v1.9c0,0.6-0.1,0.9-0.6,1.2l-1.9,0.8v0.9h2.4v1.6H540.6z"/>
		</g>
	</g>
	<g>
		<g>
			<circle class="st4" cx="458.8" cy="252.8" r="8.5"/>
			<circle class="st5" cx="458.8" cy="252.8" r="8.5"/>
		</g>
		<g>
			<path class="st6" d="M454.8,256.7v-1.6h1v-4.5h-0.9V249h2.6v6.1h0.9v1.6H454.8z"/>
			<path class="st6" d="M459.9,256.7c-0.5-0.2-0.8-0.5-0.8-1.3v-1h1.7v0.8l0.1,0.1h0.5l0.1-0.1v-1.6l-0.1-0.1h-1v-1.3h1l0.1-0.1
				v-1.5l-0.1-0.1h-0.5l-0.1,0.1v0.8h-1.7v-1c0-0.8,0.4-1.1,0.8-1.3h2.5c0.5,0.2,0.8,0.5,0.8,1.3v1.3c0,0.6-0.2,0.9-0.6,1.2
				c0.4,0.3,0.6,0.6,0.6,1.2v1.4c0,0.8-0.4,1.1-0.8,1.3H459.9z"/>
		</g>
	</g>
	<g>
		<g>
			<circle class="st4" cx="479" cy="320.9" r="8.5"/>
			<circle class="st5" cx="479" cy="320.9" r="8.5"/>
		</g>
		<g>
			<path class="st6" d="M475,324.7v-1.6h1v-4.5h-0.9v-1.6h2.6v6.1h0.9v1.6H475z"/>
			<path class="st6" d="M483,323.3v1.5h-1.7v-1.5h-2.2v-1.5l1.6-4.7h1.7l-1.6,4.6h0.5v-0.4l0.4-1h1.3v1.4h0.5v1.6H483z"/>
		</g>
	</g>
</g>
<g id="SPEED_x5F_TRAP">
	<g>
		<circle class="st7" cx="277.4" cy="314.2" r="4.7"/>
		<circle class="st8" cx="277.4" cy="314.2" r="4.7"/>
	</g>
	<g>
		<g>
			<path class="st8" d="M299.9,265.2c0,0.8-0.6,1.4-1.4,1.4h-42.2c-0.8,0-1.4-0.6-1.4-1.4v-34.7c0-0.8,0.6-1.4,1.4-1.4h42.2
				c0.8,0,1.4,0.6,1.4,1.4V265.2z"/>
		</g>
		<g>
			<path class="st6" d="M267.1,242v2.7c0,1.3-0.6,1.7-1.3,2h-3.9c-0.7-0.3-1.3-0.7-1.3-2v-2.4h2.7v2l0.2,0.2h0.8l0.2-0.2v-1.8
				l-0.1-0.2l-2.7-1.2c-0.8-0.4-0.9-0.9-0.9-1.8v-2.5c0-1.3,0.6-1.7,1.3-2h3.9c0.7,0.3,1.3,0.7,1.3,2v2.2h-2.7v-1.9l-0.2-0.2h-0.8
				l-0.2,0.2v1.7l0.2,0.3l2.7,1.1C266.9,240.5,267.1,241.1,267.1,242z"/>
			<path class="st6" d="M270.5,242.6v4.2h-2.7v-12h5.2c0.7,0.3,1.3,0.7,1.3,2v3.8c0,1.3-0.6,1.7-1.3,2H270.5z M270.5,236.9v3.5h1
				l0.2-0.2v-3.2l-0.2-0.2H270.5z"/>
			<path class="st6" d="M275,234.8h5.5v2.5h-2.8v2.2h2.7v2.5h-2.7v2.3h2.9v2.5H275V234.8z"/>
			<path class="st6" d="M281.4,234.8h5.5v2.5H284v2.2h2.7v2.5H284v2.3h2.9v2.5h-5.6V234.8z"/>
			<path class="st6" d="M294.3,244.7c0,1.3-0.6,1.7-1.3,2h-5.2v-12h5.2c0.7,0.3,1.3,0.7,1.3,2V244.7z M290.4,236.9v7.7h1l0.2-0.2
				v-7.3l-0.2-0.2H290.4z"/>
			<path class="st6" d="M268,251.4v9.5h-2.7v-9.5h-1.9v-2.5h6.5v2.5H268z"/>
			<path class="st6" d="M270.4,260.9v-12h5.2c0.7,0.3,1.3,0.7,1.3,2v2.5c0,1.1-0.5,1.6-1.1,1.9l1.4,3.8v1.7h-2.3l-1.5-4.7h-0.3v4.7
				H270.4z M273.1,251.1v3h1l0.2-0.2v-2.7l-0.2-0.2H273.1z"/>
			<path class="st6" d="M281.5,258.6h-1.3l-0.2,2.3h-2.5v-2l1.5-10h3.6l1.5,10v2h-2.5L281.5,258.6z M280.4,256.1h0.8l-0.3-3.8h-0.2
				L280.4,256.1z"/>
			<path class="st6" d="M287.5,256.8v4.2h-2.7v-12h5.2c0.7,0.3,1.3,0.7,1.3,2v3.8c0,1.3-0.6,1.7-1.3,2H287.5z M287.5,251.1v3.5h1
				l0.2-0.2v-3.2l-0.2-0.2H287.5z"/>
		</g>
	</g>
	<g>
		<line class="st9" x1="277.4" y1="314.2" x2="277.4" y2="265.5"/>
	</g>
</g>
<g id="DRS">
	<g>
		<circle class="st7" cx="76.7" cy="78.7" r="4.7"/>
		<circle class="st10" cx="76.7" cy="78.7" r="4.7"/>
	</g>
	<g>
		<g>
			<path class="st10" d="M586.1,376.6c0,0.8-0.6,1.4-1.4,1.4h-67.6c-0.8,0-1.4-0.6-1.4-1.4v-48.8c0-0.8,0.6-1.4,1.4-1.4h67.6
				c0.8,0,1.4,0.6,1.4,1.4V376.6z"/>
		</g>
		<g>
			<path class="st6" d="M547,342c0,1.3-0.6,1.7-1.3,2h-5.2v-12h5.2c0.7,0.3,1.3,0.7,1.3,2V342z M543.1,334.2v7.7h1l0.2-0.2v-7.3
				l-0.2-0.2H543.1z"/>
			<path class="st6" d="M547.8,344v-12h5.2c0.7,0.3,1.3,0.7,1.3,2v2.5c0,1.1-0.5,1.6-1.1,1.9l1.4,3.8v1.7h-2.3l-1.5-4.7h-0.3v4.7
				H547.8z M550.5,334.2v3h1l0.2-0.2v-2.7l-0.2-0.2H550.5z"/>
			<path class="st6" d="M561.5,339.3v2.7c0,1.3-0.6,1.7-1.3,2h-3.9c-0.7-0.3-1.3-0.7-1.3-2v-2.4h2.7v2l0.2,0.2h0.8l0.2-0.2v-1.8
				l-0.1-0.2l-2.7-1.2c-0.8-0.4-0.9-0.9-0.9-1.8V334c0-1.3,0.6-1.7,1.3-2h3.9c0.7,0.3,1.3,0.7,1.3,2v2.2h-2.7v-1.9l-0.2-0.2h-0.8
				l-0.2,0.2v1.7l0.2,0.3l2.7,1.1C561.4,337.8,561.5,338.4,561.5,339.3z"/>
			<path class="st6" d="M527.9,356.2c0,1.3-0.6,1.7-1.3,2h-5.2v-12h5.2c0.7,0.3,1.3,0.7,1.3,2V356.2z M524.1,348.4v7.7h1l0.2-0.2
				v-7.3l-0.2-0.2H524.1z"/>
			<path class="st6" d="M528.7,346.2h5.5v2.5h-2.8v2.2h2.7v2.5h-2.7v2.3h2.9v2.5h-5.6V346.2z"/>
			<path class="st6" d="M539.4,348.7v9.5h-2.7v-9.5h-1.9v-2.5h6.5v2.5H539.4z"/>
			<path class="st6" d="M541.8,346.2h5.5v2.5h-2.8v2.2h2.7v2.5h-2.7v2.3h2.9v2.5h-5.6V346.2z"/>
			<path class="st6" d="M554.7,356.2c0,1.3-0.6,1.7-1.3,2h-3.9c-0.7-0.3-1.3-0.7-1.3-2v-8c0-1.3,0.6-1.7,1.3-2h3.9
				c0.7,0.3,1.3,0.7,1.3,2v2.9H552v-2.6l-0.2-0.2H551l-0.2,0.2v7.3l0.2,0.2h0.8l0.2-0.2v-2.5h2.7V356.2z"/>
			<path class="st6" d="M559.8,348.7v9.5h-2.7v-9.5h-1.9v-2.5h6.5v2.5H559.8z"/>
			<path class="st6" d="M562.2,358.2v-2.5h0.5v-7h-0.5v-2.5h3.7v2.5h-0.5v7h0.5v2.5H562.2z"/>
			<path class="st6" d="M573.2,356.2c0,1.3-0.6,1.7-1.3,2H568c-0.7-0.3-1.3-0.7-1.3-2v-8c0-1.3,0.6-1.7,1.3-2h3.9
				c0.7,0.3,1.3,0.7,1.3,2V356.2z M570.5,348.5l-0.2-0.2h-0.8l-0.2,0.2v7.3l0.2,0.2h0.8l0.2-0.2V348.5z"/>
			<path class="st6" d="M578.1,346.2h2.3v12h-2.3l-1.7-5.2h-0.2v5.2H574v-12h2.3l1.7,5.2h0.2V346.2z"/>
			<path class="st6" d="M535.8,362.9h-3.5v-2.5h6.5v2.2l-3.5,7.3h3.5v2.5h-6.5v-2.2L535.8,362.9z"/>
			<path class="st6" d="M546.1,370.3c0,1.3-0.6,1.7-1.3,2h-3.9c-0.7-0.3-1.3-0.7-1.3-2v-8c0-1.3,0.6-1.7,1.3-2h3.9
				c0.7,0.3,1.3,0.7,1.3,2V370.3z M543.4,362.7l-0.2-0.2h-0.8l-0.2,0.2v7.3l0.2,0.2h0.8l0.2-0.2V362.7z"/>
			<path class="st6" d="M551.1,360.4h2.3v12h-2.3l-1.7-5.2h-0.2v5.2h-2.3v-12h2.3l1.7,5.2h0.2V360.4z"/>
			<path class="st6" d="M554.2,360.4h5.5v2.5h-2.8v2.2h2.7v2.5h-2.7v2.3h2.9v2.5h-5.6V360.4z"/>
			<path class="st6" d="M563.1,372.3v-4c0-0.9,0.2-1.5,0.9-1.8l2.9-1.3v-2.5l-0.2-0.2H566l-0.2,0.2v1.7h-2.7v-2.1
				c0-1.3,0.6-1.7,1.3-2h3.9c0.7,0.3,1.3,0.7,1.3,2v3c0,0.9-0.1,1.5-0.9,1.8l-2.9,1.3v1.3h3.8v2.5H563.1z"/>
		</g>
	</g>
	<g>
		<g>
			<path class="st10" d="M167.3,172.9c0,0.8-0.6,1.4-1.4,1.4H98.3c-0.8,0-1.4-0.6-1.4-1.4V124c0-0.8,0.6-1.4,1.4-1.4h67.6
				c0.8,0,1.4,0.6,1.4,1.4V172.9z"/>
		</g>
		<g>
			<path class="st6" d="M128.1,138.3c0,1.3-0.6,1.7-1.3,2h-5.2v-12h5.2c0.7,0.3,1.3,0.7,1.3,2V138.3z M124.3,130.4v7.7h1l0.2-0.2
				v-7.3l-0.2-0.2H124.3z"/>
			<path class="st6" d="M128.9,140.3v-12h5.2c0.7,0.3,1.3,0.7,1.3,2v2.5c0,1.1-0.5,1.6-1.1,1.9l1.4,3.8v1.7h-2.3l-1.5-4.7h-0.3v4.7
				H128.9z M131.6,130.4v3h1l0.2-0.2v-2.7l-0.2-0.2H131.6z"/>
			<path class="st6" d="M142.6,135.5v2.7c0,1.3-0.6,1.7-1.3,2h-3.9c-0.7-0.3-1.3-0.7-1.3-2v-2.4h2.7v2l0.2,0.2h0.8l0.2-0.2v-1.8
				l-0.1-0.2l-2.7-1.2c-0.8-0.4-0.9-0.9-0.9-1.8v-2.5c0-1.3,0.6-1.7,1.3-2h3.9c0.7,0.3,1.3,0.7,1.3,2v2.2H140v-1.9l-0.2-0.2H139
				l-0.2,0.2v1.7l0.2,0.3l2.7,1.1C142.5,134,142.6,134.6,142.6,135.5z"/>
			<path class="st6" d="M109,152.4c0,1.3-0.6,1.7-1.3,2h-5.2v-12h5.2c0.7,0.3,1.3,0.7,1.3,2V152.4z M105.2,144.6v7.7h1l0.2-0.2v-7.3
				l-0.2-0.2H105.2z"/>
			<path class="st6" d="M109.9,142.5h5.5v2.5h-2.8v2.2h2.7v2.5h-2.7v2.3h2.9v2.5h-5.6V142.5z"/>
			<path class="st6" d="M120.5,145v9.5h-2.7V145h-1.9v-2.5h6.5v2.5H120.5z"/>
			<path class="st6" d="M122.9,142.5h5.5v2.5h-2.8v2.2h2.7v2.5h-2.7v2.3h2.9v2.5h-5.6V142.5z"/>
			<path class="st6" d="M135.8,152.4c0,1.3-0.6,1.7-1.3,2h-3.9c-0.7-0.3-1.3-0.7-1.3-2v-8c0-1.3,0.6-1.7,1.3-2h3.9
				c0.7,0.3,1.3,0.7,1.3,2v2.9h-2.7v-2.6l-0.2-0.2h-0.8l-0.2,0.2v7.3l0.2,0.2h0.8l0.2-0.2v-2.5h2.7V152.4z"/>
			<path class="st6" d="M140.9,145v9.5h-2.7V145h-1.9v-2.5h6.5v2.5H140.9z"/>
			<path class="st6" d="M143.3,154.4v-2.5h0.5v-7h-0.5v-2.5h3.7v2.5h-0.5v7h0.5v2.5H143.3z"/>
			<path class="st6" d="M154.3,152.4c0,1.3-0.6,1.7-1.3,2h-3.9c-0.7-0.3-1.3-0.7-1.3-2v-8c0-1.3,0.6-1.7,1.3-2h3.9
				c0.7,0.3,1.3,0.7,1.3,2V152.4z M151.6,144.8l-0.2-0.2h-0.8l-0.2,0.2v7.3l0.2,0.2h0.8l0.2-0.2V144.8z"/>
			<path class="st6" d="M159.3,142.5h2.3v12h-2.3l-1.7-5.2h-0.2v5.2h-2.3v-12h2.3l1.7,5.2h0.2V142.5z"/>
			<path class="st6" d="M116.9,159.1h-3.5v-2.5h6.5v2.2l-3.5,7.3h3.5v2.5h-6.5v-2.2L116.9,159.1z"/>
			<path class="st6" d="M127.2,166.6c0,1.3-0.6,1.7-1.3,2H122c-0.7-0.3-1.3-0.7-1.3-2v-8c0-1.3,0.6-1.7,1.3-2h3.9
				c0.7,0.3,1.3,0.7,1.3,2V166.6z M124.6,159l-0.2-0.2h-0.8l-0.2,0.2v7.3l0.2,0.2h0.8l0.2-0.2V159z"/>
			<path class="st6" d="M132.2,156.6h2.3v12h-2.3l-1.7-5.2h-0.2v5.2H128v-12h2.3l1.7,5.2h0.2V156.6z"/>
			<path class="st6" d="M135.4,156.6h5.5v2.5H138v2.2h2.7v2.5H138v2.3h2.9v2.5h-5.6V156.6z"/>
			<path class="st6" d="M144.9,168.6v-2.5h1.5v-7H145v-2.5h4v9.5h1.3v2.5H144.9z"/>
		</g>
	</g>
	<g>
		<path class="st11" d="M76.7,78.7v67.2c0,4.7,3.8,8.5,8.5,8.5h11.7"/>
	</g>
	<g>
		<circle class="st7" cx="493.6" cy="269.4" r="4.7"/>
		<circle class="st10" cx="493.6" cy="269.4" r="4.7"/>
	</g>
	<g>
		<path class="st11" d="M493.6,269.4v74.3c0,4.7,3.8,8.5,8.5,8.5h13.7"/>
	</g>
	<g>
		<g>
			<g>
				<g>
					<line class="st12" x1="453.6" y1="334.4" x2="453.2" y2="319.6"/>
				</g>
				<g>
					<path class="st10" d="M446.3,327.2c0-0.8,0.6-1.4,1.4-1.5c0.8,0,1.4,0.6,1.5,1.4c0,0.8-0.6,1.4-1.4,1.5
						C447,328.6,446.3,328,446.3,327.2z"/>
				</g>
				<g>
					<path class="st10" d="M440.6,327.4c0-0.8,0.6-1.4,1.4-1.5c0.8,0,1.4,0.6,1.5,1.4c0,0.8-0.6,1.4-1.4,1.5
						C441.3,328.8,440.6,328.1,440.6,327.4z"/>
				</g>
				<g>
					<path class="st10" d="M434.9,327.5c0-0.8,0.6-1.4,1.4-1.5c0.8,0,1.4,0.6,1.5,1.4c0,0.8-0.6,1.4-1.4,1.5
						S434.9,328.3,434.9,327.5z"/>
				</g>
				<g>
					<path class="st10" d="M429.3,327.7c0-0.8,0.6-1.4,1.4-1.5c0.8,0,1.4,0.6,1.5,1.4c0,0.8-0.6,1.4-1.4,1.5
						C429.9,329.1,429.3,328.5,429.3,327.7z"/>
				</g>
				<g>
					<path class="st10" d="M423.6,327.8c0-0.8,0.6-1.4,1.4-1.5c0.8,0,1.4,0.6,1.5,1.4c0,0.8-0.6,1.4-1.4,1.5
						C424.2,329.2,423.6,328.6,423.6,327.8z"/>
				</g>
				<g>
					<path class="st10" d="M417.9,328c0-0.8,0.6-1.4,1.4-1.5c0.8,0,1.4,0.6,1.5,1.4c0,0.8-0.6,1.4-1.4,1.5S417.9,328.8,417.9,328z"
						/>
				</g>
				<g>
					<path class="st10" d="M412.2,328.1c0-0.8,0.6-1.4,1.4-1.5c0.8,0,1.4,0.6,1.5,1.4c0,0.8-0.6,1.4-1.4,1.5
						C412.9,329.5,412.2,328.9,412.2,328.1z"/>
				</g>
				<g>
					<path class="st10" d="M406.5,328.3c0-0.8,0.6-1.4,1.4-1.5c0.8,0,1.4,0.6,1.5,1.4c0,0.8-0.6,1.4-1.4,1.5
						C407.2,329.7,406.6,329.1,406.5,328.3z"/>
				</g>
				<g>
					<path class="st10" d="M400.9,328.5c0-0.8,0.6-1.4,1.4-1.5c0.8,0,1.4,0.6,1.5,1.4s-0.6,1.4-1.4,1.5
						C401.5,329.9,400.9,329.2,400.9,328.5z"/>
				</g>
				<g>
					<path class="st10" d="M395.2,328.6c0-0.8,0.6-1.4,1.4-1.5c0.8,0,1.4,0.6,1.5,1.4c0,0.8-0.6,1.4-1.4,1.5
						C395.9,330,395.2,329.4,395.2,328.6z"/>
				</g>
				<g>
					<path class="st10" d="M389.5,328.8c0-0.8,0.6-1.4,1.4-1.5c0.8,0,1.4,0.6,1.5,1.4c0,0.8-0.6,1.4-1.4,1.5
						C390.2,330.2,389.5,329.6,389.5,328.8z"/>
				</g>
				<g>
					<path class="st10" d="M383.8,328.9c0-0.8,0.6-1.4,1.4-1.5s1.4,0.6,1.5,1.4s-0.6,1.4-1.4,1.5
						C384.5,330.3,383.9,329.7,383.8,328.9z"/>
				</g>
				<g>
					<path class="st10" d="M378.2,329.1c0-0.8,0.6-1.4,1.4-1.5c0.8,0,1.4,0.6,1.5,1.4c0,0.8-0.6,1.4-1.4,1.5
						C378.8,330.5,378.2,329.9,378.2,329.1z"/>
				</g>
				<g>
					<path class="st10" d="M372.5,329.2c0-0.8,0.6-1.4,1.4-1.5c0.8,0,1.4,0.6,1.5,1.4c0,0.8-0.6,1.4-1.4,1.5
						C373.2,330.6,372.5,330,372.5,329.2z"/>
				</g>
				<g>
					<path class="st10" d="M366.8,329.4c0-0.8,0.6-1.4,1.4-1.5s1.4,0.6,1.5,1.4s-0.6,1.4-1.4,1.5
						C367.5,330.8,366.8,330.2,366.8,329.4z"/>
				</g>
				<g>
					<path class="st10" d="M361.1,329.6c0-0.8,0.6-1.4,1.4-1.5c0.8,0,1.4,0.6,1.5,1.4c0,0.8-0.6,1.4-1.4,1.5
						C361.8,330.9,361.1,330.3,361.1,329.6z"/>
				</g>
				<g>
					<path class="st10" d="M355.4,329.7c0-0.8,0.6-1.4,1.4-1.5c0.8,0,1.4,0.6,1.5,1.4c0,0.8-0.6,1.4-1.4,1.5
						C356.1,331.1,355.5,330.5,355.4,329.7z"/>
				</g>
				<g>
					<path class="st10" d="M349.8,329.9c0-0.8,0.6-1.4,1.4-1.5c0.8,0,1.4,0.6,1.5,1.4c0,0.8-0.6,1.4-1.4,1.5
						C350.4,331.3,349.8,330.6,349.8,329.9z"/>
				</g>
				<g>
					<path class="st10" d="M344.1,330c0-0.8,0.6-1.4,1.4-1.5c0.8,0,1.4,0.6,1.5,1.4c0,0.8-0.6,1.4-1.4,1.5
						C344.8,331.4,344.1,330.8,344.1,330z"/>
				</g>
				<g>
					<path class="st10" d="M338.4,330.2c0-0.8,0.6-1.4,1.4-1.5c0.8,0,1.4,0.6,1.5,1.4c0,0.8-0.6,1.4-1.4,1.5
						C339.1,331.6,338.4,331,338.4,330.2z"/>
				</g>
				<g>
					<path class="st10" d="M332.7,330.3c0-0.8,0.6-1.4,1.4-1.5c0.8,0,1.4,0.6,1.5,1.4c0,0.8-0.6,1.4-1.4,1.5
						C333.4,331.7,332.8,331.1,332.7,330.3z"/>
				</g>
				<g>
					<path class="st10" d="M327.1,330.5c0-0.8,0.6-1.4,1.4-1.5c0.8,0,1.4,0.6,1.5,1.4c0,0.8-0.6,1.4-1.4,1.5
						C327.7,331.9,327.1,331.3,327.1,330.5z"/>
				</g>
				<g>
					<path class="st10" d="M321.4,330.6c0-0.8,0.6-1.4,1.4-1.5c0.8,0,1.4,0.6,1.5,1.4c0,0.8-0.6,1.4-1.4,1.5
						C322.1,332,321.4,331.4,321.4,330.6z"/>
				</g>
				<g>
					<path class="st10" d="M315.7,330.8c0-0.8,0.6-1.4,1.4-1.5c0.8,0,1.4,0.6,1.5,1.4s-0.6,1.4-1.4,1.5S315.7,331.6,315.7,330.8z"/>
				</g>
				<g>
					<path class="st10" d="M310,331c0-0.8,0.6-1.4,1.4-1.5c0.8,0,1.4,0.6,1.5,1.4c0,0.8-0.6,1.4-1.4,1.5
						C310.7,332.4,310.1,331.7,310,331z"/>
				</g>
				<g>
					<path class="st10" d="M304.4,331.1c0-0.8,0.6-1.4,1.4-1.5c0.8,0,1.4,0.6,1.5,1.4c0,0.8-0.6,1.4-1.4,1.5
						C305,332.5,304.4,331.9,304.4,331.1z"/>
				</g>
				<g>
					<path class="st10" d="M298.7,331.3c0-0.8,0.6-1.4,1.4-1.5c0.8,0,1.4,0.6,1.5,1.4s-0.6,1.4-1.4,1.5
						C299.3,332.7,298.7,332.1,298.7,331.3z"/>
				</g>
				<g>
					<path class="st10" d="M293,331.4c0-0.8,0.6-1.4,1.4-1.5c0.8,0,1.4,0.6,1.5,1.4c0,0.8-0.6,1.4-1.4,1.5
						C293.7,332.8,293,332.2,293,331.4z"/>
				</g>
				<g>
					<path class="st10" d="M287.3,331.6c0-0.8,0.6-1.4,1.4-1.5c0.8,0,1.4,0.6,1.5,1.4c0,0.8-0.6,1.4-1.4,1.5
						C288,333,287.3,332.4,287.3,331.6z"/>
				</g>
				<g>
					<path class="st10" d="M281.6,331.7c0-0.8,0.6-1.4,1.4-1.5c0.8,0,1.4,0.6,1.5,1.4s-0.6,1.4-1.4,1.5
						C282.3,333.1,281.7,332.5,281.6,331.7z"/>
				</g>
				<g>
					<path class="st10" d="M276,331.9c0-0.8,0.6-1.4,1.4-1.5c0.8,0,1.4,0.6,1.5,1.4c0,0.8-0.6,1.4-1.4,1.5
						C276.6,333.3,276,332.7,276,331.9z"/>
				</g>
				<g>
					<path class="st10" d="M270.3,332.1c0-0.8,0.6-1.4,1.4-1.5c0.8,0,1.4,0.6,1.5,1.4c0,0.8-0.6,1.4-1.4,1.5
						C271,333.5,270.3,332.8,270.3,332.1z"/>
				</g>
				<g>
					<path class="st10" d="M264.6,332.2c0-0.8,0.6-1.4,1.4-1.5s1.4,0.6,1.5,1.4s-0.6,1.4-1.4,1.5C265.3,333.6,264.6,333,264.6,332.2
						z"/>
				</g>
				<g>
					<path class="st10" d="M258.9,332.4c0-0.8,0.6-1.4,1.4-1.5c0.8,0,1.4,0.6,1.5,1.4c0,0.8-0.6,1.4-1.4,1.5
						C259.6,333.8,259,333.1,258.9,332.4z"/>
				</g>
				<g>
					<path class="st10" d="M253.3,332.5c0-0.8,0.6-1.4,1.4-1.5c0.8,0,1.4,0.6,1.5,1.4c0,0.8-0.6,1.4-1.4,1.5
						C253.9,333.9,253.3,333.3,253.3,332.5z"/>
				</g>
				<g>
					<line class="st12" x1="249.2" y1="340.1" x2="248.8" y2="325.2"/>
				</g>
			</g>
		</g>
	</g>
	<g>
		<g>
			<g>
				<g>
					<line class="st12" x1="203" y1="311.8" x2="202.2" y2="296.9"/>
				</g>
				<g>
					<path class="st10" d="M195.6,304.7c0-0.8,0.6-1.4,1.3-1.5c0.8,0,1.4,0.6,1.5,1.4c0,0.8-0.6,1.4-1.3,1.5
						C196.3,306.1,195.6,305.5,195.6,304.7z"/>
				</g>
				<g>
					<path class="st10" d="M190,304.9c0-0.8,0.6-1.4,1.4-1.5c0.8,0,1.4,0.6,1.4,1.4c0,0.8-0.6,1.4-1.4,1.5S190,305.6,190,304.9z"/>
				</g>
				<g>
					<path class="st10" d="M184.4,305c0-0.8,0.6-1.4,1.4-1.4c0.8,0,1.4,0.6,1.4,1.4s-0.6,1.4-1.4,1.4
						C185.1,306.4,184.4,305.8,184.4,305z"/>
				</g>
				<g>
					<path class="st10" d="M178.8,305.1c0-0.8,0.6-1.4,1.4-1.4c0.8,0,1.4,0.6,1.4,1.4c0,0.8-0.6,1.4-1.4,1.4
						C179.4,306.5,178.8,305.8,178.8,305.1z"/>
				</g>
				<g>
					<path class="st10" d="M173.2,305.1c0-0.8,0.6-1.4,1.4-1.4c0.8,0,1.4,0.6,1.4,1.4c0,0.8-0.6,1.4-1.4,1.4
						C173.8,306.5,173.2,305.8,173.2,305.1z"/>
				</g>
				<g>
					<path class="st10" d="M167.6,305c0-0.8,0.6-1.4,1.4-1.4c0.8,0,1.4,0.7,1.4,1.4c0,0.8-0.6,1.4-1.4,1.4
						C168.2,306.4,167.6,305.8,167.6,305z"/>
				</g>
				<g>
					<path class="st10" d="M162,304.9c0-0.8,0.7-1.4,1.4-1.4s1.4,0.7,1.4,1.5c0,0.8-0.7,1.4-1.4,1.4
						C162.6,306.3,162,305.6,162,304.9z"/>
				</g>
				<g>
					<path class="st10" d="M156.4,304.7c0-0.8,0.7-1.4,1.5-1.4c0.8,0,1.4,0.7,1.3,1.5c0,0.8-0.7,1.4-1.5,1.4
						C157,306.1,156.4,305.5,156.4,304.7z"/>
				</g>
				<g>
					<path class="st10" d="M150.8,304.4c0-0.8,0.7-1.4,1.5-1.3c0.8,0,1.4,0.7,1.3,1.5c0,0.8-0.7,1.4-1.5,1.4
						C151.4,305.9,150.8,305.2,150.8,304.4z"/>
				</g>
				<g>
					<path class="st10" d="M145.3,304.1c0.1-0.8,0.7-1.4,1.5-1.3c0.8,0.1,1.4,0.7,1.3,1.5c0,0.8-0.7,1.4-1.5,1.3
						C145.8,305.5,145.2,304.9,145.3,304.1z"/>
				</g>
				<g>
					<path class="st10" d="M139.7,303.7c0.1-0.8,0.7-1.4,1.5-1.3c0.8,0.1,1.3,0.7,1.3,1.5s-0.7,1.4-1.5,1.3S139.6,304.5,139.7,303.7
						z"/>
				</g>
				<g>
					<path class="st10" d="M134.1,303.2c0.1-0.8,0.7-1.4,1.5-1.3c0.8,0.1,1.3,0.7,1.3,1.5c-0.1,0.8-0.7,1.4-1.5,1.3
						S134,304,134.1,303.2z"/>
				</g>
				<g>
					<path class="st10" d="M128.5,302.7c0.1-0.8,0.8-1.3,1.5-1.3c0.8,0.1,1.3,0.8,1.3,1.5c-0.1,0.8-0.8,1.4-1.5,1.3
						C129,304.2,128.4,303.5,128.5,302.7z"/>
				</g>
				<g>
					<path class="st10" d="M123,302c0.1-0.8,0.8-1.3,1.6-1.2c0.8,0.1,1.3,0.8,1.2,1.6c-0.1,0.8-0.8,1.3-1.6,1.2
						C123.4,303.5,122.9,302.8,123,302z"/>
				</g>
				<g>
					<path class="st10" d="M117.4,301.2c0.1-0.8,0.8-1.3,1.6-1.2c0.8,0.1,1.3,0.8,1.2,1.6c-0.1,0.8-0.8,1.3-1.6,1.2
						C117.8,302.7,117.3,302,117.4,301.2z"/>
				</g>
				<g>
					<path class="st10" d="M111.9,300.4c0.1-0.8,0.9-1.3,1.6-1.2c0.8,0.1,1.3,0.9,1.1,1.6c-0.1,0.8-0.8,1.3-1.6,1.2
						C112.3,301.9,111.8,301.1,111.9,300.4z"/>
				</g>
				<g>
					<path class="st10" d="M106.4,299.4c0.1-0.8,0.9-1.3,1.6-1.1c0.8,0.1,1.3,0.9,1.1,1.6c-0.1,0.8-0.9,1.3-1.6,1.1
						C106.8,300.9,106.3,300.2,106.4,299.4z"/>
				</g>
				<g>
					<path class="st10" d="M100.9,298.4c0.1-0.8,0.9-1.3,1.6-1.1c0.8,0.1,1.3,0.9,1.1,1.7c-0.1,0.8-0.9,1.3-1.6,1.1
						C101.3,299.9,100.8,299.1,100.9,298.4z"/>
				</g>
				<g>
					<path class="st10" d="M95.4,297.3c0.2-0.8,0.9-1.3,1.6-1.1c0.8,0.2,1.2,0.9,1.1,1.7c-0.1,0.8-0.9,1.3-1.6,1.1
						C95.7,298.8,95.3,298.1,95.4,297.3z"/>
				</g>
				<g>
					<path class="st10" d="M89.9,296.2c0.2-0.8,0.9-1.3,1.7-1.1c0.8,0.2,1.2,0.9,1.1,1.7c-0.2,0.8-0.9,1.3-1.7,1.1
						C90.3,297.7,89.8,297,89.9,296.2z"/>
				</g>
				<g>
					<path class="st10" d="M84.4,295.1c0.2-0.8,0.9-1.3,1.7-1.1c0.8,0.2,1.2,0.9,1.1,1.7c-0.2,0.8-0.9,1.3-1.7,1.1
						C84.8,296.6,84.3,295.8,84.4,295.1z"/>
				</g>
				<g>
					<path class="st10" d="M79,293.9c0.2-0.8,0.9-1.3,1.7-1.1s1.2,0.9,1.1,1.7c-0.2,0.8-0.9,1.3-1.7,1.1
						C79.3,295.4,78.8,294.7,79,293.9z"/>
				</g>
				<g>
					<path class="st10" d="M73.5,292.7c0.2-0.8,0.9-1.2,1.7-1.1s1.2,0.9,1.1,1.7s-0.9,1.2-1.7,1.1C73.8,294.2,73.3,293.5,73.5,292.7
						z"/>
				</g>
				<g>
					<path class="st10" d="M68.1,291.5c0.2-0.8,0.9-1.2,1.7-1.1c0.8,0.2,1.2,0.9,1.1,1.7c-0.2,0.8-0.9,1.2-1.7,1.1
						C68.3,293,67.9,292.2,68.1,291.5z"/>
				</g>
				<g>
					<line class="st12" x1="62.3" y1="297.8" x2="65.7" y2="283.3"/>
				</g>
			</g>
		</g>
	</g>
	<g>
		<g>
			<g>
				<g>
					<line class="st12" x1="224.4" y1="70.4" x2="213.6" y2="80.6"/>
				</g>
				<g>
					<path class="st10" d="M223.5,80.9c-0.6,0.5-1.5,0.4-2-0.2c-0.5-0.6-0.4-1.5,0.2-2c0.6-0.5,1.5-0.4,2,0.2
						C224.3,79.5,224.1,80.4,223.5,80.9z"/>
				</g>
				<g>
					<path class="st10" d="M226.8,85.5c-0.6,0.4-1.5,0.3-2-0.3c-0.4-0.6-0.3-1.5,0.3-2s1.5-0.3,2,0.3
						C227.6,84.1,227.5,85,226.8,85.5z"/>
				</g>
				<g>
					<path class="st10" d="M229.9,90.2c-0.7,0.4-1.5,0.2-2-0.4c-0.4-0.6-0.2-1.5,0.4-1.9c0.7-0.4,1.5-0.2,2,0.4
						C230.8,88.9,230.6,89.7,229.9,90.2z"/>
				</g>
				<g>
					<path class="st10" d="M232.8,95c-0.7,0.4-1.5,0.2-1.9-0.5c-0.4-0.7-0.2-1.5,0.5-1.9c0.7-0.4,1.5-0.2,1.9,0.5
						C233.7,93.7,233.5,94.6,232.8,95z"/>
				</g>
				<g>
					<path class="st10" d="M235.6,99.9c-0.7,0.4-1.5,0.1-1.9-0.6c-0.4-0.7-0.1-1.5,0.6-1.9c0.7-0.4,1.6-0.1,1.9,0.6
						C236.5,98.7,236.2,99.5,235.6,99.9z"/>
				</g>
				<g>
					<path class="st10" d="M238.1,104.9c-0.7,0.3-1.6,0.1-1.9-0.6c-0.3-0.7-0.1-1.5,0.6-1.9c0.7-0.4,1.6-0.1,1.9,0.6
						C239.1,103.7,238.8,104.6,238.1,104.9z"/>
				</g>
				<g>
					<path class="st10" d="M240.4,110.1c-0.7,0.3-1.6,0-1.9-0.7c-0.3-0.7,0-1.5,0.7-1.8c0.7-0.3,1.6,0,1.9,0.7
						C241.4,108.9,241.1,109.8,240.4,110.1z"/>
				</g>
				<g>
					<path class="st10" d="M242.4,115.3c-0.7,0.3-1.5-0.1-1.8-0.8c-0.3-0.7,0.1-1.5,0.9-1.8s1.5,0.1,1.8,0.8
						C243.5,114.2,243.1,115.1,242.4,115.3z"/>
				</g>
				<g>
					<path class="st10" d="M244.3,120.6c-0.7,0.3-1.5-0.1-1.8-0.8c-0.3-0.7,0.1-1.5,0.8-1.8c0.7-0.3,1.5,0.1,1.8,0.8
						C245.4,119.5,245,120.3,244.3,120.6z"/>
				</g>
				<g>
					<path class="st10" d="M246.3,125.9c-0.7,0.3-1.6-0.1-1.8-0.8c-0.3-0.7,0.1-1.5,0.8-1.8s1.5,0.1,1.8,0.8
						C247.4,124.7,247,125.6,246.3,125.9z"/>
				</g>
				<g>
					<path class="st10" d="M248.5,131c-0.7,0.3-1.6,0-1.9-0.7c-0.3-0.7,0-1.5,0.8-1.8c0.7-0.3,1.5,0,1.9,0.7
						C249.5,129.9,249.2,130.7,248.5,131z"/>
				</g>
				<g>
					<path class="st10" d="M250.8,136.2c-0.7,0.3-1.6,0-1.9-0.7c-0.3-0.7,0-1.6,0.7-1.9c0.7-0.3,1.6,0,1.9,0.7
						C251.8,135,251.5,135.8,250.8,136.2z"/>
				</g>
				<g>
					<path class="st10" d="M253.4,141.2c-0.7,0.4-1.5,0.1-1.9-0.6c-0.4-0.7-0.1-1.6,0.6-1.9c0.7-0.4,1.5-0.1,1.9,0.6
						C254.3,140,254.1,140.8,253.4,141.2z"/>
				</g>
				<g>
					<path class="st10" d="M256.2,146.1c-0.7,0.4-1.5,0.2-1.9-0.5c-0.4-0.7-0.2-1.5,0.5-1.9s1.5-0.2,1.9,0.5
						C257.1,144.8,256.8,145.7,256.2,146.1z"/>
				</g>
				<g>
					<path class="st10" d="M259.3,150.8c-0.6,0.5-1.5,0.3-2-0.3c-0.4-0.7-0.3-1.5,0.4-2c0.7-0.4,1.5-0.3,1.9,0.4
						C260,149.4,259.9,150.3,259.3,150.8z"/>
				</g>
				<g>
					<path class="st10" d="M262.7,155.2c-0.6,0.5-1.5,0.4-2-0.2c-0.5-0.6-0.4-1.5,0.2-2c0.6-0.5,1.5-0.4,2,0.2
						C263.4,153.8,263.3,154.7,262.7,155.2z"/>
				</g>
				<g>
					<path class="st10" d="M266.6,159.3c-0.5,0.6-1.5,0.6-2,0c-0.6-0.6-0.5-1.5,0-2c0.6-0.5,1.5-0.5,2,0
						C267.1,157.9,267.1,158.7,266.6,159.3z"/>
				</g>
				<g>
					<path class="st10" d="M270.8,162.9c-0.5,0.6-1.4,0.7-2,0.2c-0.6-0.5-0.7-1.4-0.2-2c0.5-0.6,1.4-0.7,2-0.2
						C271.2,161.4,271.3,162.3,270.8,162.9z"/>
				</g>
				<g>
					<path class="st10" d="M275.3,166.4c-0.5,0.6-1.4,0.8-2,0.3c-0.6-0.5-0.7-1.4-0.3-2c0.5-0.6,1.4-0.7,2-0.3
						C275.6,164.9,275.8,165.7,275.3,166.4z"/>
				</g>
				<g>
					<path class="st10" d="M279.9,169.6c-0.4,0.7-1.3,0.8-2,0.4c-0.7-0.4-0.8-1.3-0.4-2c0.5-0.6,1.3-0.8,2-0.4
						C280.2,168.1,280.3,169,279.9,169.6z"/>
				</g>
				<g>
					<path class="st10" d="M284.7,172.6c-0.4,0.7-1.3,0.9-2,0.5c-0.7-0.4-0.9-1.3-0.5-2c0.4-0.7,1.3-0.9,1.9-0.5
						C284.8,171.1,285.1,171.9,284.7,172.6z"/>
				</g>
				<g>
					<path class="st10" d="M289.6,175.3c-0.3,0.7-1.2,1-1.9,0.6c-0.7-0.4-1-1.2-0.6-1.9c0.4-0.7,1.2-1,1.9-0.6
						C289.7,173.7,290,174.6,289.6,175.3z"/>
				</g>
				<g>
					<path class="st10" d="M294.8,177.5c-0.3,0.7-1.1,1.1-1.8,0.8c-0.7-0.3-1.1-1.1-0.8-1.8c0.3-0.7,1.1-1.1,1.8-0.8
						C294.7,176,295,176.8,294.8,177.5z"/>
				</g>
				<g>
					<path class="st10" d="M300.1,179.4c-0.2,0.8-1,1.2-1.8,1c-0.8-0.3-1.2-1.1-0.9-1.8c0.3-0.7,1-1.1,1.8-0.9
						C299.9,177.8,300.3,178.6,300.1,179.4z"/>
				</g>
				<g>
					<path class="st10" d="M305.5,180.8c-0.2,0.8-0.9,1.2-1.7,1.1c-0.8-0.2-1.2-0.9-1.1-1.7c0.2-0.8,0.9-1.2,1.7-1.1
						C305.2,179.2,305.7,180,305.5,180.8z"/>
				</g>
				<g>
					<path class="st10" d="M311.1,181.6c-0.1,0.8-0.8,1.3-1.6,1.2c-0.8-0.1-1.3-0.9-1.2-1.6c0.1-0.8,0.8-1.3,1.6-1.2
						C310.6,180.1,311.2,180.9,311.1,181.6z"/>
				</g>
				<g>
					<path class="st10" d="M316.7,182.1c0,0.8-0.7,1.4-1.5,1.3c-0.8-0.1-1.4-0.7-1.3-1.5s0.7-1.4,1.5-1.3
						C316.1,180.7,316.7,181.3,316.7,182.1z"/>
				</g>
				<g>
					<path class="st10" d="M322.3,182.2c0,0.8-0.6,1.4-1.4,1.4c-0.8,0-1.4-0.7-1.4-1.4c0-0.8,0.6-1.4,1.4-1.4
						C321.7,180.8,322.3,181.4,322.3,182.2z"/>
				</g>
				<g>
					<path class="st10" d="M327.9,182.1c0,0.8-0.6,1.4-1.4,1.5c-0.8,0-1.4-0.6-1.4-1.4c0-0.8,0.6-1.4,1.4-1.5
						C327.3,180.7,327.9,181.3,327.9,182.1z"/>
				</g>
				<g>
					<path class="st10" d="M333.6,181.8c0.1,0.8-0.5,1.5-1.3,1.5c-0.8,0-1.4-0.6-1.5-1.3c0-0.8,0.6-1.4,1.3-1.5
						C332.8,180.4,333.5,181,333.6,181.8z"/>
				</g>
				<g>
					<path class="st10" d="M339.2,181.3c0.1,0.8-0.5,1.5-1.3,1.5c-0.8,0.1-1.5-0.5-1.5-1.3c-0.1-0.8,0.5-1.5,1.3-1.5
						C338.4,180,339.1,180.6,339.2,181.3z"/>
				</g>
				<g>
					<path class="st10" d="M344.8,180.8c0.1,0.8-0.5,1.5-1.2,1.6c-0.8,0.1-1.5-0.5-1.6-1.3c-0.1-0.8,0.5-1.5,1.2-1.6
						C344,179.4,344.7,180,344.8,180.8z"/>
				</g>
				<g>
					<path class="st10" d="M350.3,180c0.1,0.8-0.4,1.5-1.2,1.6c-0.8,0.1-1.5-0.4-1.6-1.2c-0.1-0.8,0.4-1.5,1.2-1.6
						C349.5,178.7,350.2,179.3,350.3,180z"/>
				</g>
				<g>
					<path class="st10" d="M355.9,179.2c0.1,0.8-0.4,1.5-1.2,1.6c-0.8,0.1-1.5-0.4-1.6-1.2c-0.1-0.8,0.4-1.5,1.2-1.6
						C355,177.9,355.8,178.4,355.9,179.2z"/>
				</g>
				<g>
					<line class="st12" x1="358.6" y1="171.1" x2="361.5" y2="185.7"/>
				</g>
			</g>
		</g>
	</g>
	<g>
		<g>
			<g>
				<g>
					<line class="st12" x1="419.7" y1="140.7" x2="421.3" y2="155.5"/>
				</g>
				<g>
					<path class="st10" d="M427.5,147.4c0.1,0.8-0.5,1.5-1.3,1.5c-0.8,0.1-1.5-0.5-1.5-1.3s0.5-1.5,1.3-1.5
						C426.8,146.1,427.4,146.6,427.5,147.4z"/>
				</g>
				<g>
					<path class="st10" d="M433.1,146.9c0.1,0.8-0.5,1.5-1.3,1.5c-0.8,0.1-1.5-0.5-1.5-1.3c-0.1-0.8,0.5-1.5,1.3-1.5
						C432.4,145.5,433.1,146.1,433.1,146.9z"/>
				</g>
				<g>
					<path class="st10" d="M438.8,146.4c0.1,0.8-0.5,1.5-1.3,1.5c-0.8,0.1-1.5-0.5-1.5-1.3c-0.1-0.8,0.5-1.5,1.3-1.5
						C438,145,438.7,145.6,438.8,146.4z"/>
				</g>
				<g>
					<path class="st10" d="M444.4,145.9c0.1,0.8-0.5,1.5-1.3,1.5s-1.5-0.5-1.5-1.3s0.5-1.5,1.3-1.5
						C443.7,144.5,444.3,145.1,444.4,145.9z"/>
				</g>
				<g>
					<path class="st10" d="M450,145.5c0.1,0.8-0.5,1.5-1.3,1.5c-0.8,0.1-1.5-0.5-1.5-1.3c-0.1-0.8,0.5-1.5,1.3-1.5
						C449.3,144.1,450,144.7,450,145.5z"/>
				</g>
				<g>
					<path class="st10" d="M455.7,145.1c0,0.8-0.5,1.5-1.3,1.5c-0.8,0-1.4-0.5-1.5-1.3c-0.1-0.8,0.5-1.5,1.3-1.5
						C455,143.7,455.6,144.3,455.7,145.1z"/>
				</g>
				<g>
					<path class="st10" d="M461.3,144.8c0,0.8-0.6,1.4-1.3,1.5c-0.8,0-1.4-0.6-1.5-1.3c0-0.8,0.6-1.5,1.3-1.5
						C460.6,143.4,461.3,144,461.3,144.8z"/>
				</g>
				<g>
					<path class="st10" d="M467,144.7c0,0.8-0.6,1.4-1.4,1.4c-0.8,0-1.4-0.6-1.4-1.4c0-0.8,0.6-1.4,1.4-1.4
						C466.3,143.3,467,143.9,467,144.7z"/>
				</g>
				<g>
					<path class="st10" d="M472.6,145.1c-0.1,0.8-0.8,1.3-1.5,1.2c-0.7-0.1-1.3-0.8-1.3-1.5c0-0.8,0.7-1.4,1.6-1.3
						C472.2,143.6,472.7,144.3,472.6,145.1z"/>
				</g>
				<g>
					<path class="st10" d="M478.2,146.1c-0.2,0.8-0.9,1.2-1.7,1.1c-0.7-0.2-1.2-0.9-1.1-1.7c0.1-0.8,0.9-1.3,1.7-1.1
						C477.8,144.5,478.3,145.3,478.2,146.1z"/>
				</g>
				<g>
					<path class="st10" d="M483.6,147.5c-0.2,0.8-1,1.2-1.7,1c-0.7-0.2-1.2-1-1-1.7c0.2-0.8,1-1.2,1.7-1
						C483.4,145.9,483.8,146.7,483.6,147.5z"/>
				</g>
				<g>
					<path class="st10" d="M489,149.1c-0.2,0.7-1,1.2-1.8,0.9c-0.7-0.2-1.1-1-0.9-1.8c0.2-0.7,1-1.2,1.8-0.9
						C488.9,147.6,489.3,148.4,489,149.1z"/>
				</g>
				<g>
					<path class="st10" d="M494.4,151c-0.3,0.7-1.1,1.1-1.8,0.8c-0.7-0.3-1.1-1.1-0.8-1.8c0.3-0.7,1.1-1.1,1.8-0.9
						C494.3,149.4,494.6,150.3,494.4,151z"/>
				</g>
				<g>
					<path class="st10" d="M499.6,153.1c-0.3,0.7-1.1,1-1.8,0.8c-0.7-0.3-1-1.1-0.8-1.9s1.1-1.1,1.9-0.8
						C499.6,151.5,499.9,152.4,499.6,153.1z"/>
				</g>
				<g>
					<path class="st10" d="M504.7,155.5c-0.4,0.7-1.2,1-1.9,0.6c-0.7-0.3-1-1.2-0.7-1.9s1.2-1,1.9-0.7
						C504.8,154,505.1,154.8,504.7,155.5z"/>
				</g>
				<g>
					<path class="st10" d="M509.7,158.2c-0.4,0.7-1.2,1-1.9,0.6s-0.9-1.2-0.6-1.9s1.2-1,1.9-0.6S510.1,157.5,509.7,158.2z"/>
				</g>
				<g>
					<path class="st10" d="M514.7,160.8c-0.4,0.7-1.2,1-1.9,0.6s-0.9-1.2-0.6-1.9c0.4-0.7,1.2-1,1.9-0.6
						C514.8,159.3,515.1,160.1,514.7,160.8z"/>
				</g>
				<g>
					<path class="st10" d="M519.7,163.5c-0.4,0.7-1.2,1-1.9,0.6s-0.9-1.2-0.6-1.9c0.4-0.7,1.2-1,1.9-0.6
						C519.8,161.9,520,162.8,519.7,163.5z"/>
				</g>
				<g>
					<path class="st10" d="M524.7,166.1c-0.4,0.7-1.2,1-1.9,0.6c-0.7-0.4-0.9-1.2-0.6-1.9c0.4-0.7,1.2-1,1.9-0.6
						C524.8,164.6,525,165.5,524.7,166.1z"/>
				</g>
				<g>
					<path class="st10" d="M529.6,168.8c-0.4,0.7-1.2,1-1.9,0.6c-0.7-0.4-0.9-1.2-0.6-1.9c0.4-0.7,1.2-1,1.9-0.6
						C529.8,167.3,530,168.1,529.6,168.8z"/>
				</g>
				<g>
					<path class="st10" d="M534.6,171.5c-0.4,0.7-1.2,1-1.9,0.6c-0.7-0.4-0.9-1.2-0.6-1.9c0.4-0.7,1.2-1,1.9-0.6
						S535,170.8,534.6,171.5z"/>
				</g>
				<g>
					<path class="st10" d="M539.6,174.1c-0.4,0.7-1.2,1-1.9,0.6c-0.7-0.4-0.9-1.2-0.6-1.9c0.4-0.7,1.2-1,1.9-0.6
						S540,173.4,539.6,174.1z"/>
				</g>
				<g>
					<path class="st10" d="M544.6,176.8c-0.4,0.7-1.2,1-1.9,0.6c-0.7-0.4-0.9-1.2-0.6-1.9s1.2-1,1.9-0.6
						C544.7,175.2,545,176.1,544.6,176.8z"/>
				</g>
				<g>
					<path class="st10" d="M549.6,179.4c-0.4,0.7-1.2,1-1.9,0.6c-0.7-0.4-0.9-1.2-0.6-1.9s1.2-1,1.9-0.6
						C549.7,177.9,550,178.8,549.6,179.4z"/>
				</g>
				<g>
					<path class="st10" d="M554.6,182.1c-0.4,0.7-1.2,1-1.9,0.6s-0.9-1.2-0.6-1.9c0.4-0.7,1.2-1,1.9-0.6
						C554.7,180.6,554.9,181.4,554.6,182.1z"/>
				</g>
				<g>
					<path class="st10" d="M559.6,184.8c-0.4,0.7-1.2,1-1.9,0.6s-0.9-1.2-0.6-1.9c0.4-0.7,1.2-1,1.9-0.6
						C559.7,183.2,559.9,184.1,559.6,184.8z"/>
				</g>
				<g>
					<path class="st10" d="M564.5,187.4c-0.4,0.7-1.2,1-1.9,0.6c-0.7-0.4-0.9-1.2-0.6-1.9c0.4-0.7,1.2-1,1.9-0.6
						C564.6,185.9,564.9,186.7,564.5,187.4z"/>
				</g>
				<g>
					<path class="st10" d="M569.5,190.1c-0.4,0.7-1.2,1-1.9,0.6c-0.7-0.4-0.9-1.2-0.6-1.9c0.4-0.7,1.2-1,1.9-0.6
						C569.6,188.5,569.9,189.4,569.5,190.1z"/>
				</g>
				<g>
					<line class="st12" x1="576.8" y1="185.5" x2="569.8" y2="198.7"/>
				</g>
			</g>
		</g>
	</g>
</g>
<g id="アイコン">
	<g>
		<rect x="336.3" y="285.2" class="st5" width="2.8" height="2.8"/>
		<rect x="342" y="285.2" class="st5" width="2.8" height="2.8"/>
		<rect x="339.1" y="288" class="st5" width="2.8" height="2.8"/>
		<rect x="344.8" y="288" class="st5" width="2.8" height="2.8"/>
		<rect x="339.1" y="293.7" class="st5" width="2.8" height="2.8"/>
		<rect x="344.8" y="293.7" class="st5" width="2.8" height="2.8"/>
		<rect x="347.6" y="285.2" class="st5" width="2.8" height="2.8"/>
		<rect x="344.8" y="285.2" class="st6" width="2.8" height="2.8"/>
		<rect x="339.1" y="285.2" class="st6" width="2.8" height="2.8"/>
		<rect x="336.3" y="288" class="st6" width="2.8" height="2.8"/>
		<rect x="342" y="288" class="st6" width="2.8" height="2.8"/>
		<rect x="347.6" y="288" class="st6" width="2.8" height="2.8"/>
		<rect x="344.8" y="290.9" class="st6" width="2.8" height="2.8"/>
		<rect x="339.1" y="290.9" class="st6" width="2.8" height="2.8"/>
		<rect x="344.8" y="296.5" class="st6" width="2.8" height="2.8"/>
		<rect x="339.1" y="296.5" class="st6" width="2.8" height="2.8"/>
		<rect x="336.3" y="293.7" class="st6" width="2.8" height="2.8"/>
		<rect x="342" y="293.7" class="st6" width="2.8" height="2.8"/>
		<rect x="347.6" y="293.7" class="st6" width="2.8" height="2.8"/>
		<rect x="336.3" y="290.9" class="st5" width="2.8" height="2.8"/>
		<rect x="342" y="290.9" class="st5" width="2.8" height="2.8"/>
		<rect x="342" y="296.5" class="st5" width="2.8" height="2.8"/>
		<rect x="347.6" y="290.9" class="st5" width="2.8" height="2.8"/>
		<rect x="336.3" y="296.5" class="st5" width="2.8" height="2.8"/>
		<rect x="347.6" y="296.5" class="st5" width="2.8" height="2.8"/>
	</g>
	<g>
		<defs>
			
				<rect id="SVGID_1_" x="294.3" y="291.2" transform="matrix(1 -2.438543e-03 2.438543e-03 1 -0.7195 0.7458)" width="22.3" height="8.5"/>
		</defs>
		<clipPath id="SVGID_00000041279668199368039480000016785881894132566675_">
			<use xlink:href="#SVGID_1_"  style="overflow:visible;"/>
		</clipPath>
		<g style="clip-path:url(#SVGID_00000041279668199368039480000016785881894132566675_);">
			<polygon class="st14" points="315.4,302.5 312.6,302.5 306.9,295.4 312.5,288.3 315.4,288.3 309.7,295.4 			"/>
			<polygon class="st15" points="309.7,302.5 306.9,302.5 301.2,295.4 306.9,288.3 309.7,288.3 304.1,295.4 			"/>
			<polygon class="st16" points="304.1,302.5 301.2,302.5 295.6,295.4 301.2,288.3 304,288.3 298.4,295.4 			"/>
		</g>
	</g>
	<g>
		<g>
			<path class="st6" d="M590.8,44.7c0,1.6-1.3,2.8-2.8,2.8H219.1c-1.6,0-2.8-1.3-2.8-2.8V19.8c0-1.6,1.3-2.8,2.8-2.8h368.8
				c1.6,0,2.8,1.3,2.8,2.8V44.7z"/>
			<path class="st17" d="M590.8,44.7c0,1.6-1.3,2.8-2.8,2.8H219.1c-1.6,0-2.8-1.3-2.8-2.8V19.8c0-1.6,1.3-2.8,2.8-2.8h368.8
				c1.6,0,2.8,1.3,2.8,2.8V44.7z"/>
		</g>
		<g>
			<path class="st5" d="M261.8,33.7v2.6c0,1.3-0.6,1.7-1.3,2h-3.3c-0.7-0.3-1.3-0.7-1.3-2v-2h1.8v2.1l0.4,0.4h1.6l0.4-0.4v-2.8
				l-0.3-0.4l-2.6-0.8c-0.8-0.3-1.1-0.8-1.1-1.9v-2.2c0-1.3,0.6-1.7,1.3-2h3.3c0.7,0.3,1.3,0.7,1.3,2v1.9H260v-2.1l-0.4-0.4h-1.6
				l-0.4,0.4v2.4l0.4,0.4l2.6,0.7C261.4,32,261.8,32.5,261.8,33.7z"/>
			<path class="st5" d="M263.1,26.3h5.1v1.6h-3.3v3.4h3.1V33h-3.1v3.7h3.4v1.6h-5.2V26.3z"/>
			<path class="st5" d="M275.5,36.3c0,1.3-0.6,1.7-1.3,2h-3.3c-0.7-0.3-1.3-0.7-1.3-2v-8c0-1.3,0.6-1.7,1.3-2h3.3
				c0.7,0.3,1.3,0.7,1.3,2V31h-1.8v-2.8l-0.4-0.4h-1.6l-0.4,0.4v8.3l0.4,0.4h1.6l0.4-0.4v-2.7h1.8V36.3z"/>
			<path class="st5" d="M280.2,27.9v10.3h-1.8V27.9h-2.1v-1.6h6.1v1.6H280.2z"/>
			<path class="st5" d="M289.1,36.3c0,1.3-0.6,1.7-1.3,2h-3.3c-0.7-0.3-1.3-0.7-1.3-2v-8c0-1.3,0.6-1.7,1.3-2h3.3
				c0.7,0.3,1.3,0.7,1.3,2V36.3z M287.3,28.1l-0.4-0.4h-1.6l-0.4,0.4v8.3l0.4,0.4h1.6l0.4-0.4V28.1z"/>
			<path class="st5" d="M290.5,38.3v-12h4.6c0.7,0.3,1.3,0.7,1.3,2v2.6c0,1.3-0.6,1.6-1.3,1.9l-0.3,0.1l2.1,4.3v1.1h-1.6l-2.2-5.1
				h-0.8v5.1H290.5z M292.3,27.8v3.9h2l0.4-0.4v-3.1l-0.4-0.4H292.3z"/>
			<path class="st5" d="M300.6,38.3v-1.6h1.8v-8.7h-1.7v-1.6h3.5v10.4h1.7v1.6H300.6z"/>
		</g>
		<line class="st18" x1="230.5" y1="32.4" x2="251.7" y2="32.4"/>
		<g>
			<path class="st5" d="M351.9,33.7v2.6c0,1.3-0.6,1.7-1.3,2h-3.3c-0.7-0.3-1.3-0.7-1.3-2v-2h1.8v2.1l0.4,0.4h1.6l0.4-0.4v-2.8
				l-0.3-0.4l-2.6-0.8c-0.8-0.3-1.1-0.8-1.1-1.9v-2.2c0-1.3,0.6-1.7,1.3-2h3.3c0.7,0.3,1.3,0.7,1.3,2v1.9h-1.8v-2.1l-0.4-0.4h-1.6
				l-0.4,0.4v2.4l0.4,0.4l2.6,0.7C351.5,32,351.9,32.5,351.9,33.7z"/>
			<path class="st5" d="M353.2,26.3h5.1v1.6H355v3.4h3.1V33H355v3.7h3.4v1.6h-5.2V26.3z"/>
			<path class="st5" d="M365.6,36.3c0,1.3-0.6,1.7-1.3,2H361c-0.7-0.3-1.3-0.7-1.3-2v-8c0-1.3,0.6-1.7,1.3-2h3.3
				c0.7,0.3,1.3,0.7,1.3,2V31h-1.8v-2.8l-0.4-0.4h-1.6l-0.4,0.4v8.3l0.4,0.4h1.6l0.4-0.4v-2.7h1.8V36.3z"/>
			<path class="st5" d="M370.3,27.9v10.3h-1.8V27.9h-2.1v-1.6h6.1v1.6H370.3z"/>
			<path class="st5" d="M379.2,36.3c0,1.3-0.6,1.7-1.3,2h-3.3c-0.7-0.3-1.3-0.7-1.3-2v-8c0-1.3,0.6-1.7,1.3-2h3.3
				c0.7,0.3,1.3,0.7,1.3,2V36.3z M377.4,28.1l-0.4-0.4h-1.6l-0.4,0.4v8.3l0.4,0.4h1.6l0.4-0.4V28.1z"/>
			<path class="st5" d="M380.6,38.3v-12h4.6c0.7,0.3,1.3,0.7,1.3,2v2.6c0,1.3-0.6,1.6-1.3,1.9l-0.3,0.1l2.1,4.3v1.1h-1.6l-2.2-5.1
				h-0.8v5.1H380.6z M382.4,27.8v3.9h2l0.4-0.4v-3.1l-0.4-0.4H382.4z"/>
			<path class="st5" d="M390.3,38.3v-3.6c0-1.1,0.4-1.7,1.2-2.1l3-1.2v-3.2l-0.4-0.4h-1.7l-0.4,0.4v2h-1.8v-1.9c0-1.3,0.6-1.7,1.3-2
				h3.3c0.7,0.3,1.3,0.7,1.3,2v2.5c0,1.1-0.3,1.7-1.1,2.1l-3,1.2v2.5h4.1v1.6H390.3z"/>
		</g>
		<line class="st19" x1="320.6" y1="32.4" x2="341.9" y2="32.4"/>
		<g>
			<path class="st5" d="M441.8,33.7v2.6c0,1.3-0.6,1.7-1.3,2h-3.3c-0.7-0.3-1.3-0.7-1.3-2v-2h1.8v2.1l0.4,0.4h1.6l0.4-0.4v-2.8
				l-0.3-0.4l-2.6-0.8c-0.8-0.3-1.1-0.8-1.1-1.9v-2.2c0-1.3,0.6-1.7,1.3-2h3.3c0.7,0.3,1.3,0.7,1.3,2v1.9H440v-2.1l-0.4-0.4H438
				l-0.4,0.4v2.4L438,31l2.6,0.7C441.4,32,441.8,32.5,441.8,33.7z"/>
			<path class="st5" d="M443.1,26.3h5.1v1.6h-3.3v3.4h3.1V33h-3.1v3.7h3.4v1.6h-5.2V26.3z"/>
			<path class="st5" d="M455.4,36.3c0,1.3-0.6,1.7-1.3,2h-3.3c-0.7-0.3-1.3-0.7-1.3-2v-8c0-1.3,0.6-1.7,1.3-2h3.3
				c0.7,0.3,1.3,0.7,1.3,2V31h-1.8v-2.8l-0.4-0.4h-1.6l-0.4,0.4v8.3l0.4,0.4h1.6l0.4-0.4v-2.7h1.8V36.3z"/>
			<path class="st5" d="M460.2,27.9v10.3h-1.8V27.9h-2.1v-1.6h6.1v1.6H460.2z"/>
			<path class="st5" d="M469,36.3c0,1.3-0.6,1.7-1.3,2h-3.3c-0.7-0.3-1.3-0.7-1.3-2v-8c0-1.3,0.6-1.7,1.3-2h3.3
				c0.7,0.3,1.3,0.7,1.3,2V36.3z M467.2,28.1l-0.4-0.4h-1.6l-0.4,0.4v8.3l0.4,0.4h1.6l0.4-0.4V28.1z"/>
			<path class="st5" d="M470.4,38.3v-12h4.6c0.7,0.3,1.3,0.7,1.3,2v2.6c0,1.3-0.6,1.6-1.3,1.9l-0.3,0.1l2.1,4.3v1.1h-1.6l-2.2-5.1
				h-0.8v5.1H470.4z M472.2,27.8v3.9h2l0.4-0.4v-3.1l-0.4-0.4H472.2z"/>
			<path class="st5" d="M481.4,38.3c-0.7-0.3-1.3-0.7-1.3-2v-1.7h1.8v1.8l0.4,0.4h1.7l0.4-0.4v-3.2l-0.4-0.3h-1.8v-1.4h1.8l0.4-0.4
				v-3l-0.4-0.4h-1.7l-0.4,0.4v1.8h-1.8v-1.7c0-1.3,0.6-1.7,1.3-2h3.3c0.7,0.3,1.3,0.7,1.3,2v1.9c0,1-0.2,1.5-0.9,1.9
				c0.6,0.4,0.9,0.9,0.9,1.9v2.2c0,1.3-0.6,1.7-1.3,2H481.4z"/>
		</g>
		<line class="st20" x1="410.4" y1="32.4" x2="431.7" y2="32.4"/>
		<g>
			<path class="st5" d="M531.7,36.3c0,1.3-0.6,1.7-1.3,2h-4.6v-12h4.6c0.7,0.3,1.3,0.7,1.3,2V36.3z M527.5,27.8v9h2l0.4-0.4v-8.3
				l-0.4-0.4H527.5z"/>
			<path class="st5" d="M533.1,38.3v-12h4.6c0.7,0.3,1.3,0.7,1.3,2v2.6c0,1.3-0.6,1.6-1.3,1.9l-0.3,0.1l2.1,4.3v1.1h-1.6l-2.2-5.1
				h-0.8v5.1H533.1z M534.9,27.8v3.9h2l0.4-0.4v-3.1l-0.4-0.4H534.9z"/>
			<path class="st5" d="M546.1,33.7v2.6c0,1.3-0.6,1.7-1.3,2h-3.3c-0.7-0.3-1.3-0.7-1.3-2v-2h1.8v2.1l0.4,0.4h1.6l0.4-0.4v-2.8
				l-0.3-0.4l-2.6-0.8c-0.8-0.3-1.1-0.8-1.1-1.9v-2.2c0-1.3,0.6-1.7,1.3-2h3.3c0.7,0.3,1.3,0.7,1.3,2v1.9h-1.8v-2.1l-0.4-0.4h-1.6
				l-0.4,0.4v2.4l0.4,0.4l2.6,0.7C545.7,32,546.1,32.5,546.1,33.7z"/>
			<path class="st5" d="M553.7,27.9h-3.9v-1.6h5.8v1.5l-4,8.9h4v1.6h-5.9v-1.5L553.7,27.9z"/>
			<path class="st5" d="M562.8,36.3c0,1.3-0.6,1.7-1.3,2h-3.3c-0.7-0.3-1.3-0.7-1.3-2v-8c0-1.3,0.6-1.7,1.3-2h3.3
				c0.7,0.3,1.3,0.7,1.3,2V36.3z M561,28.1l-0.4-0.4H559l-0.4,0.4v8.3l0.4,0.4h1.6l0.4-0.4V28.1z"/>
			<path class="st5" d="M568.5,26.3h1.6v12h-1.6l-2.6-7.1h-0.2v7.1h-1.6v-12h1.6l2.6,7.1h0.2V26.3z"/>
			<path class="st5" d="M571.5,26.3h5.1v1.6h-3.3v3.4h3.1V33h-3.1v3.7h3.4v1.6h-5.2V26.3z"/>
		</g>
		<g>
			<g>
				<g>
					<g>
						<line class="st12" x1="501.8" y1="24.9" x2="501.8" y2="39.8"/>
					</g>
					<g>
						<path class="st10" d="M509.4,32.4c0,0.8-0.7,1.4-1.5,1.4s-1.5-0.6-1.5-1.4c0-0.8,0.7-1.4,1.5-1.4S509.4,31.6,509.4,32.4z"/>
					</g>
					<g>
						<path class="st10" d="M515.4,32.4c0,0.8-0.7,1.4-1.5,1.4s-1.5-0.6-1.5-1.4c0-0.8,0.7-1.4,1.5-1.4S515.4,31.6,515.4,32.4z"/>
					</g>
					<g>
						<line class="st12" x1="520" y1="24.9" x2="520" y2="39.8"/>
					</g>
				</g>
			</g>
		</g>
	</g>
</g>
</svg>
