<?xml version="1.0" encoding="utf-8"?>
<!-- Generator: Adobe Illustrator 26.5.0, SVG Export Plug-In . SVG Version: 6.00 Build 0)  -->
<svg version="1.1" xmlns="http://www.w3.org/2000/svg" xmlns:xlink="http://www.w3.org/1999/xlink" x="0px" y="0px"
	 viewBox="0 0 646.9 425.4" style="enable-background:new 0 0 646.9 425.4;" xml:space="preserve">
<style type="text/css">
	.st0{fill:none;stroke:#646464;stroke-width:14.1732;stroke-linecap:round;stroke-linejoin:round;stroke-miterlimit:10;}
	.st1{fill:none;stroke:#FFD449;stroke-width:2.8346;stroke-miterlimit:10;}
	.st2{fill:none;stroke:#54C6EB;stroke-width:2.8346;stroke-miterlimit:10;}
	.st3{fill:none;stroke:#F4442E;stroke-width:2.8346;stroke-miterlimit:10;}
	.st4{fill:none;stroke:#FFFFFF;stroke-width:2.126;}
	.st5{fill:#646464;}
	.st6{fill:#FFFFFF;}
	.st7{fill:none;stroke:#646464;stroke-width:2.8346;stroke-miterlimit:10;}
	.st8{fill:#FF3380;}
	.st9{fill:none;stroke:#FF3380;stroke-width:1.9843;stroke-miterlimit:10;}
	.st10{fill:#09BC8A;}
	.st11{fill:none;stroke:#09BC8A;stroke-width:1.9843;stroke-miterlimit:10;}
	.st12{fill:none;stroke:#09BC8A;stroke-width:2.2097;stroke-miterlimit:10;}
	.st13{fill:none;stroke:#F4442E;stroke-width:5.6693;stroke-miterlimit:10;}
	.st14{fill:none;stroke:#54C6EB;stroke-width:5.6693;stroke-miterlimit:10;}
	.st15{fill:none;stroke:#FFD449;stroke-width:5.6693;stroke-miterlimit:10;}
	.st16{fill:none;stroke:#09BC8A;stroke-width:2.8346;stroke-miterlimit:10;}
	.st17{clip-path:url(#SVGID_00000088824697458540873400000017804721473239325316_);}
	.st18{fill:#F4442E;}
	.st19{fill:#54C6EB;}
	.st20{fill:#FFD449;}
</style>
<g id="コース">
	<path class="st0" d="M462.2,303.7c0,0-194,46.1-198,47c-4,0.9-8.8,3.5-13.6-5.7c-4.8-9.2-16.2-28.1-28.5-46.1
		c-12.3-18-49.6-76.8-56.6-97c-7-20.2-18-52.2-31.6-74.2s-40-49.2-48.3-58.8S62.2,45.1,59.1,41.1S54.8,31,63.5,29.7
		c8.8-1.3,40-3.1,61.5-2.2c21.5,0.9,61.5,9.2,75.5,13.2s61.9,15.4,74.2,17.1c12.3,1.8,81.7,7,90.4,7.9c8.8,0.9,11,4,12.6,7.5
		c1.6,3.5-0.9,11.1-5.7,18.3s-11,13-18.7,18.9c-7.8,5.9-24.1,13.2-40.1,14.9c-16,1.8-34.5-2.6-48.4-6.4c-13.9-3.8-27.2-6.4-35.1-7
		c-9.8-0.7-24.1,0.8-30.4,11.1c-5,8-7.9,15.5-7.6,23.4c0.3,7.9,6.4,16.2,10.2,23.6c3.8,7.3,19.5,37,22,41.3
		c2.5,4.2,9.7,14.9,25.2,14.9s21.4-5.4,28.2-14.8c6.9-9.4,24.9-28.7,55-30c30.1-1.3,176.3,2,180.4,2.3c4.1,0.3,6.6,1,8.2,1.8
		s8,3.8,9.7,5.1c1.6,1.3,4,2.3,6,9.4c2,7,16.2,56.5,17,59.9c0.7,3.4,1,6.3-0.9,9.8c-1.9,3.5-9.5,8.5-14.9,11.4
		c-5.4,2.9-20.9,9.7-43.5,15.1C479.5,299.6,462.2,303.7,462.2,303.7z"/>
</g>
<g id="セクター">
	<path class="st1" d="M223.8,211.2c2.5,4.2,9.7,14.9,25.2,14.9s21.4-5.4,28.2-14.8c6.9-9.4,24.9-28.7,55-30
		c30.1-1.3,176.3,2,180.4,2.3c4.1,0.3,6.6,1,8.2,1.8s8,3.8,9.7,5.1c1.6,1.3,4,2.3,6,9.4c2,7,16.2,56.5,17,59.9
		c0.7,3.4,1,6.3-0.9,9.8c-1.9,3.5-9.5,8.5-14.9,11.4c-5.4,2.9-20.9,9.7-43.5,15.1c-14.7,3.5-32,7.6-32,7.6s-34.8,8.3-75.1,17.8"/>
	<path class="st2" d="M99.2,84.1c-5.9-6.6-10.9-12-13.8-15.3c-8.3-9.7-23.3-23.7-26.3-27.7S54.8,31,63.5,29.7
		c8.8-1.3,40-3.1,61.5-2.2c21.5,0.9,61.5,9.2,75.5,13.2s61.9,15.4,74.2,17.1c12.3,1.8,81.7,7,90.4,7.9c8.8,0.9,11,4,12.6,7.5
		c1.6,3.5-0.9,11.1-5.7,18.3s-11,13-18.7,18.9c-7.8,5.9-24.1,13.2-40.1,14.9c-16,1.8-34.5-2.6-48.4-6.4c-13.9-3.8-27.2-6.4-35.1-7
		c-9.8-0.7-24.1,0.8-30.4,11.1c-5,8-7.9,15.5-7.6,23.4c0.3,7.9,6.4,16.2,10.2,23.6c3.8,7.3,19.5,37,22,41.3"/>
	<path class="st3" d="M387,321.5c-55.1,13.1-120.6,28.6-122.9,29.1c-4,0.9-8.8,3.5-13.6-5.7c-4.8-9.2-16.2-28.1-28.5-46.1
		c-12.3-18-49.6-76.8-56.6-97c-7-20.2-18-52.2-31.6-74.2c-8.9-14.4-23.3-31.1-34.5-43.5"/>
</g>
<g id="コーナー番号">
	<g>
		<g>
			<circle class="st4" cx="249.2" cy="371.3" r="8.5"/>
			<circle class="st5" cx="249.2" cy="371.3" r="8.5"/>
		</g>
		<g>
			<path class="st6" d="M247.5,375.2v-1.6h1v-4.5h-0.9v-1.6h2.6v6.1h0.9v1.6H247.5z"/>
		</g>
	</g>
	<g>
		<g>
			<circle class="st4" cx="149.6" cy="113.2" r="8.5"/>
			<circle class="st5" cx="149.6" cy="113.2" r="8.5"/>
		</g>
		<g>
			<path class="st6" d="M147.6,117.1v-2.6c0-0.6,0.1-1,0.6-1.2l1.9-0.8V111l-0.1-0.1h-0.5l-0.1,0.1v1.1h-1.7v-1.3
				c0-0.8,0.4-1.1,0.8-1.3h2.5c0.5,0.2,0.8,0.5,0.8,1.3v1.9c0,0.6-0.1,0.9-0.6,1.2l-1.9,0.8v0.9h2.4v1.6H147.6z"/>
		</g>
	</g>
	<g>
		<g>
			<circle class="st4" cx="37.7" cy="29.6" r="8.5"/>
			<circle class="st5" cx="37.7" cy="29.6" r="8.5"/>
		</g>
		<g>
			<path class="st6" d="M36.5,33.5c-0.5-0.2-0.8-0.5-0.8-1.3v-1h1.7V32l0.1,0.1H38l0.1-0.1v-1.6L38,30.3h-1V29h1l0.1-0.1v-1.5
				L38,27.2h-0.5l-0.1,0.1v0.8h-1.7v-1c0-0.8,0.4-1.1,0.8-1.3h2.5c0.5,0.2,0.8,0.5,0.8,1.3v1.3c0,0.6-0.2,0.9-0.6,1.2
				c0.4,0.3,0.6,0.6,0.6,1.2v1.4c0,0.8-0.4,1.1-0.8,1.3H36.5z"/>
		</g>
	</g>
	<g>
		<g>
			<circle class="st4" cx="399.4" cy="60.3" r="8.5"/>
			<circle class="st5" cx="399.4" cy="60.3" r="8.5"/>
		</g>
		<g>
			<path class="st6" d="M401.1,62.7v1.5h-1.7v-1.5h-2.2v-1.5l1.6-4.7h1.7l-1.6,4.6h0.5v-0.4l0.4-1h1.3v1.4h0.5v1.6H401.1z"/>
		</g>
	</g>
	<g>
		<g>
			<circle class="st4" cx="335.4" cy="139.8" r="8.5"/>
			<circle class="st5" cx="335.4" cy="139.8" r="8.5"/>
		</g>
		<g>
			<path class="st6" d="M334.1,143.7c-0.5-0.2-0.8-0.5-0.8-1.3v-1h1.6v0.8l0.1,0.1h0.6l0.1-0.1v-2.1l-0.1-0.1H335l-0.1,0.1v0.4h-1.6
				V136h4v1.5h-2.4v1.6l0.4-0.4h1.3c0.5,0.2,0.8,0.5,0.8,1.3v2.4c0,0.8-0.4,1.1-0.8,1.3H334.1z"/>
		</g>
	</g>
	<g>
		<g>
			<circle class="st4" cx="181" cy="115.1" r="8.5"/>
			<circle class="st5" cx="181" cy="115.1" r="8.5"/>
		</g>
		<g>
			<path class="st6" d="M182.3,119h-2.5c-0.5-0.2-0.8-0.5-0.8-1.3v-5.1c0-0.8,0.4-1.1,0.8-1.3h2.5c0.5,0.2,0.8,0.5,0.8,1.3v1h-1.7
				v-0.8l-0.1-0.1h-0.5l-0.1,0.1v1.8l0.3-0.3h1.3c0.5,0.2,0.8,0.5,0.8,1.3v2.2C183.1,118.5,182.7,118.8,182.3,119z M181.3,117.6
				l0.1-0.1v-1.8l-0.1-0.1h-0.5l-0.1,0.1v1.8l0.1,0.1H181.3z"/>
		</g>
	</g>
	<g>
		<g>
			<circle class="st4" cx="234.3" cy="244.7" r="8.5"/>
			<circle class="st5" cx="234.3" cy="244.7" r="8.5"/>
		</g>
		<g>
			<path class="st6" d="M232.5,248.6l2.1-6.2h-2.4v-1.5h4.1v1.2l-2.1,6.5H232.5z"/>
		</g>
	</g>
	<g>
		<g>
			<circle class="st4" cx="298.6" cy="169.9" r="8.5"/>
			<circle class="st5" cx="298.6" cy="169.9" r="8.5"/>
		</g>
		<g>
			<path class="st6" d="M297.3,173.8c-0.5-0.2-0.8-0.5-0.8-1.3v-1.4c0-0.6,0.2-0.9,0.6-1.2c-0.4-0.3-0.6-0.6-0.6-1.2v-1.3
				c0-0.8,0.4-1.1,0.8-1.3h2.5c0.5,0.2,0.8,0.5,0.8,1.3v1.3c0,0.6-0.2,0.9-0.6,1.2c0.4,0.3,0.6,0.6,0.6,1.2v1.4
				c0,0.8-0.4,1.1-0.8,1.3H297.3z M298.2,169.2l0.1,0.1h0.5l0.1-0.1v-1.5l-0.1-0.1h-0.5l-0.1,0.1V169.2z M298.9,172.3v-1.6l-0.1-0.1
				h-0.5l-0.1,0.1v1.6l0.1,0.1h0.5L298.9,172.3z"/>
		</g>
	</g>
	<g>
		<g>
			<circle class="st4" cx="539.7" cy="171.1" r="8.5"/>
			<circle class="st5" cx="539.7" cy="171.1" r="8.5"/>
		</g>
		<g>
			<path class="st6" d="M538.5,175c-0.5-0.2-0.8-0.5-0.8-1.3v-1h1.7v0.8l0.1,0.1h0.5l0.1-0.1v-1.8l-0.3,0.3h-1.3
				c-0.5-0.2-0.8-0.5-0.8-1.3v-2.2c0-0.8,0.4-1.1,0.8-1.3h2.5c0.5,0.2,0.8,0.5,0.8,1.3v5.1c0,0.8-0.4,1.1-0.8,1.3H538.5z
				 M540.1,170.7v-1.8l-0.1-0.1h-0.5l-0.1,0.1v1.8l0.1,0.1h0.5L540.1,170.7z"/>
		</g>
	</g>
	<g>
		<g>
			<circle class="st4" cx="569.6" cy="277.8" r="8.5"/>
			<circle class="st5" cx="569.6" cy="277.8" r="8.5"/>
		</g>
		<g>
			<path class="st6" d="M565.6,281.7v-1.6h1v-4.5h-0.9v-1.6h2.6v6.1h0.9v1.6H565.6z"/>
			<path class="st6" d="M573.2,281.7h-2.5c-0.5-0.2-0.8-0.5-0.8-1.3v-5.1c0-0.8,0.4-1.1,0.8-1.3h2.5c0.5,0.2,0.8,0.5,0.8,1.3v5.1
				C574,281.3,573.7,281.6,573.2,281.7z M572.3,275.6l-0.1-0.1h-0.5l-0.1,0.1v4.7l0.1,0.1h0.5l0.1-0.1V275.6z"/>
		</g>
	</g>
</g>
<g id="SPEED_x5F_TRAP">
	<g>
		<circle class="st7" cx="333.3" cy="63.1" r="4.7"/>
		<circle class="st8" cx="333.3" cy="63.1" r="4.7"/>
	</g>
	<g>
		<g>
			<path class="st8" d="M355.8,36.1c0,0.8-0.6,1.4-1.4,1.4h-42.2c-0.8,0-1.4-0.6-1.4-1.4V1.4c0-0.8,0.6-1.4,1.4-1.4h42.2
				c0.8,0,1.4,0.6,1.4,1.4V36.1z"/>
		</g>
		<g>
			<path class="st6" d="M323,12.9v2.7c0,1.3-0.6,1.7-1.3,2h-3.9c-0.7-0.3-1.3-0.7-1.3-2v-2.4h2.7v2l0.2,0.2h0.8l0.2-0.2v-1.8
				l-0.1-0.2l-2.7-1.2c-0.8-0.4-0.9-0.9-0.9-1.8V7.7c0-1.3,0.6-1.7,1.3-2h3.9c0.7,0.3,1.3,0.7,1.3,2v2.2h-2.7V8l-0.2-0.2h-0.8
				L319.1,8v1.7l0.2,0.3l2.7,1.1C322.8,11.4,323,12,323,12.9z"/>
			<path class="st6" d="M326.4,13.5v4.2h-2.7v-12h5.2c0.7,0.3,1.3,0.7,1.3,2v3.8c0,1.3-0.6,1.7-1.3,2H326.4z M326.4,7.8v3.5h1
				l0.2-0.2V8l-0.2-0.2H326.4z"/>
			<path class="st6" d="M330.9,5.7h5.5v2.5h-2.8v2.2h2.7v2.5h-2.7v2.3h2.9v2.5h-5.6V5.7z"/>
			<path class="st6" d="M337.3,5.7h5.5v2.5h-2.8v2.2h2.7v2.5h-2.7v2.3h2.9v2.5h-5.6V5.7z"/>
			<path class="st6" d="M350.2,15.7c0,1.3-0.6,1.7-1.3,2h-5.2v-12h5.2c0.7,0.3,1.3,0.7,1.3,2V15.7z M346.3,7.8v7.7h1l0.2-0.2V8
				l-0.2-0.2H346.3z"/>
			<path class="st6" d="M323.9,22.3v9.5h-2.7v-9.5h-1.9v-2.5h6.5v2.5H323.9z"/>
			<path class="st6" d="M326.3,31.8v-12h5.2c0.7,0.3,1.3,0.7,1.3,2v2.5c0,1.1-0.5,1.6-1.1,1.9l1.4,3.8v1.7h-2.3l-1.5-4.7H329v4.7
				H326.3z M329,22v3h1l0.2-0.2v-2.7L330,22H329z"/>
			<path class="st6" d="M337.4,29.5h-1.3l-0.2,2.3h-2.5v-2l1.5-10h3.6l1.5,10v2h-2.5L337.4,29.5z M336.3,27h0.8l-0.3-3.8h-0.2
				L336.3,27z"/>
			<path class="st6" d="M343.4,27.7v4.2h-2.7v-12h5.2c0.7,0.3,1.3,0.7,1.3,2v3.8c0,1.3-0.6,1.7-1.3,2H343.4z M343.4,22v3.5h1
				l0.2-0.2v-3.2l-0.2-0.2H343.4z"/>
		</g>
	</g>
	<g>
		<line class="st9" x1="333.3" y1="60.9" x2="333.3" y2="37.5"/>
	</g>
</g>
<g id="DRS">
	<g>
		<g>
			<path class="st10" d="M70.4,145.5c0,0.8-0.6,1.4-1.4,1.4H1.4c-0.8,0-1.4-0.6-1.4-1.4V96.7c0-0.8,0.6-1.4,1.4-1.4H69
				c0.8,0,1.4,0.6,1.4,1.4V145.5z"/>
		</g>
		<g>
			<path class="st6" d="M31.2,110.9c0,1.3-0.6,1.7-1.3,2h-5.2v-12h5.2c0.7,0.3,1.3,0.7,1.3,2V110.9z M27.4,103.1v7.7h1l0.2-0.2v-7.3
				l-0.2-0.2H27.4z"/>
			<path class="st6" d="M32.1,112.9v-12h5.2c0.7,0.3,1.3,0.7,1.3,2v2.5c0,1.1-0.5,1.6-1.1,1.9l1.4,3.8v1.7h-2.3l-1.5-4.7h-0.3v4.7
				H32.1z M34.7,103.1v3h1l0.2-0.2v-2.7l-0.2-0.2H34.7z"/>
			<path class="st6" d="M45.7,108.2v2.7c0,1.3-0.6,1.7-1.3,2h-3.9c-0.7-0.3-1.3-0.7-1.3-2v-2.4h2.7v2l0.2,0.2h0.8l0.2-0.2v-1.8
				l-0.2-0.2l-2.7-1.2c-0.8-0.4-0.9-0.9-0.9-1.8v-2.5c0-1.3,0.6-1.7,1.3-2h3.9c0.7,0.3,1.3,0.7,1.3,2v2.2h-2.7v-1.9l-0.2-0.2h-0.8
				l-0.2,0.2v1.7l0.2,0.3l2.7,1.1C45.6,106.7,45.7,107.3,45.7,108.2z"/>
			<path class="st6" d="M12.2,125.1c0,1.3-0.6,1.7-1.3,2H5.7v-12h5.2c0.7,0.3,1.3,0.7,1.3,2V125.1z M8.3,117.3v7.7h1l0.2-0.2v-7.3
				l-0.2-0.2H8.3z"/>
			<path class="st6" d="M13,115.1h5.5v2.5h-2.8v2.2h2.7v2.5h-2.7v2.3h2.9v2.5H13V115.1z"/>
			<path class="st6" d="M23.6,117.6v9.5H21v-9.5h-1.9v-2.5h6.5v2.5H23.6z"/>
			<path class="st6" d="M26.1,115.1h5.5v2.5h-2.8v2.2h2.7v2.5h-2.7v2.3h2.9v2.5h-5.6V115.1z"/>
			<path class="st6" d="M38.9,125.1c0,1.3-0.6,1.7-1.3,2h-3.9c-0.7-0.3-1.3-0.7-1.3-2v-8c0-1.3,0.6-1.7,1.3-2h3.9
				c0.7,0.3,1.3,0.7,1.3,2v2.9h-2.7v-2.6l-0.2-0.2h-0.8l-0.2,0.2v7.3l0.2,0.2h0.8l0.2-0.2v-2.5h2.7V125.1z"/>
			<path class="st6" d="M44,117.6v9.5h-2.7v-9.5h-1.9v-2.5h6.5v2.5H44z"/>
			<path class="st6" d="M46.4,127.1v-2.5h0.5v-7h-0.5v-2.5h3.7v2.5h-0.5v7h0.5v2.5H46.4z"/>
			<path class="st6" d="M57.4,125.1c0,1.3-0.6,1.7-1.3,2h-3.9c-0.7-0.3-1.3-0.7-1.3-2v-8c0-1.3,0.6-1.7,1.3-2h3.9
				c0.7,0.3,1.3,0.7,1.3,2V125.1z M54.8,117.4l-0.2-0.2h-0.8l-0.2,0.2v7.3l0.2,0.2h0.8l0.2-0.2V117.4z"/>
			<path class="st6" d="M62.4,115.1h2.3v12h-2.3l-1.7-5.2h-0.2v5.2h-2.3v-12h2.3l1.7,5.2h0.2V115.1z"/>
			<path class="st6" d="M20,131.8h-3.5v-2.5H23v2.2l-3.5,7.3H23v2.5h-6.5v-2.2L20,131.8z"/>
			<path class="st6" d="M30.3,139.3c0,1.3-0.6,1.7-1.3,2h-3.9c-0.7-0.3-1.3-0.7-1.3-2v-8c0-1.3,0.6-1.7,1.3-2H29
				c0.7,0.3,1.3,0.7,1.3,2V139.3z M27.7,131.6l-0.2-0.2h-0.8l-0.2,0.2v7.3l0.2,0.2h0.8l0.2-0.2V131.6z"/>
			<path class="st6" d="M35.3,129.3h2.3v12h-2.3l-1.7-5.2h-0.2v5.2h-2.3v-12h2.3l1.7,5.2h0.2V129.3z"/>
			<path class="st6" d="M38.5,129.3H44v2.5h-2.8v2.2h2.7v2.5h-2.7v2.3h2.9v2.5h-5.6V129.3z"/>
			<path class="st6" d="M47.4,141.3v-4c0-0.9,0.2-1.5,0.9-1.8l2.9-1.3v-2.5l-0.2-0.2h-0.8l-0.2,0.2v1.7h-2.7v-2.1
				c0-1.3,0.6-1.7,1.3-2h3.9c0.7,0.3,1.3,0.7,1.3,2v3c0,0.9-0.1,1.5-0.9,1.8l-2.9,1.3v1.3h3.8v2.5H47.4z"/>
		</g>
	</g>
	<g>
		<circle class="st7" cx="538.7" cy="207.7" r="4.7"/>
		<circle class="st10" cx="538.7" cy="207.7" r="4.7"/>
	</g>
	<g>
		<circle class="st7" cx="294.2" cy="342.6" r="4.7"/>
		<circle class="st10" cx="294.2" cy="342.6" r="4.7"/>
	</g>
	<g>
		<g>
			<path class="st10" d="M399.4,424c0,0.8-0.6,1.4-1.4,1.4h-67.6c-0.8,0-1.4-0.6-1.4-1.4v-48.8c0-0.8,0.6-1.4,1.4-1.4H398
				c0.8,0,1.4,0.6,1.4,1.4V424z"/>
		</g>
		<g>
			<path class="st6" d="M360.3,389.4c0,1.3-0.6,1.7-1.3,2h-5.2v-12h5.2c0.7,0.3,1.3,0.7,1.3,2V389.4z M356.4,381.6v7.7h1l0.2-0.2
				v-7.3l-0.2-0.2H356.4z"/>
			<path class="st6" d="M361.1,391.4v-12h5.2c0.7,0.3,1.3,0.7,1.3,2v2.5c0,1.1-0.5,1.6-1.1,1.9l1.4,3.8v1.7h-2.3l-1.5-4.7h-0.3v4.7
				H361.1z M363.8,381.6v3h1l0.2-0.2v-2.7l-0.2-0.2H363.8z"/>
			<path class="st6" d="M374.8,386.7v2.7c0,1.3-0.6,1.7-1.3,2h-3.9c-0.7-0.3-1.3-0.7-1.3-2v-2.4h2.7v2l0.2,0.2h0.8l0.2-0.2v-1.8
				L372,387l-2.7-1.2c-0.8-0.4-0.9-0.9-0.9-1.8v-2.5c0-1.3,0.6-1.7,1.3-2h3.9c0.7,0.3,1.3,0.7,1.3,2v2.2h-2.7v-1.9l-0.2-0.2h-0.8
				l-0.2,0.2v1.7l0.2,0.3l2.7,1.1C374.7,385.2,374.8,385.8,374.8,386.7z"/>
			<path class="st6" d="M341.2,403.6c0,1.3-0.6,1.7-1.3,2h-5.2v-12h5.2c0.7,0.3,1.3,0.7,1.3,2V403.6z M337.4,395.8v7.7h1l0.2-0.2
				V396l-0.2-0.2H337.4z"/>
			<path class="st6" d="M342,393.6h5.5v2.5h-2.8v2.2h2.7v2.5h-2.7v2.3h2.9v2.5H342V393.6z"/>
			<path class="st6" d="M352.7,396.1v9.5H350v-9.5h-1.9v-2.5h6.5v2.5H352.7z"/>
			<path class="st6" d="M355.1,393.6h5.5v2.5h-2.8v2.2h2.7v2.5h-2.7v2.3h2.9v2.5h-5.6V393.6z"/>
			<path class="st6" d="M368,403.6c0,1.3-0.6,1.7-1.3,2h-3.9c-0.7-0.3-1.3-0.7-1.3-2v-8c0-1.3,0.6-1.7,1.3-2h3.9
				c0.7,0.3,1.3,0.7,1.3,2v2.9h-2.7V396l-0.2-0.2h-0.8l-0.2,0.2v7.3l0.2,0.2h0.8l0.2-0.2v-2.5h2.7V403.6z"/>
			<path class="st6" d="M373.1,396.1v9.5h-2.7v-9.5h-1.9v-2.5h6.5v2.5H373.1z"/>
			<path class="st6" d="M375.5,405.6v-2.5h0.5v-7h-0.5v-2.5h3.7v2.5h-0.5v7h0.5v2.5H375.5z"/>
			<path class="st6" d="M386.4,403.6c0,1.3-0.6,1.7-1.3,2h-3.9c-0.7-0.3-1.3-0.7-1.3-2v-8c0-1.3,0.6-1.7,1.3-2h3.9
				c0.7,0.3,1.3,0.7,1.3,2V403.6z M383.8,396l-0.2-0.2h-0.8l-0.2,0.2v7.3l0.2,0.2h0.8l0.2-0.2V396z"/>
			<path class="st6" d="M391.4,393.6h2.3v12h-2.3l-1.7-5.2h-0.2v5.2h-2.3v-12h2.3l1.7,5.2h0.2V393.6z"/>
			<path class="st6" d="M349.1,410.3h-3.5v-2.5h6.5v2.2l-3.5,7.3h3.5v2.5h-6.5v-2.2L349.1,410.3z"/>
			<path class="st6" d="M359.4,417.8c0,1.3-0.6,1.7-1.3,2h-3.9c-0.7-0.3-1.3-0.7-1.3-2v-8c0-1.3,0.6-1.7,1.3-2h3.9
				c0.7,0.3,1.3,0.7,1.3,2V417.8z M356.7,410.1l-0.2-0.2h-0.8l-0.2,0.2v7.3l0.2,0.2h0.8l0.2-0.2V410.1z"/>
			<path class="st6" d="M364.4,407.8h2.3v12h-2.3l-1.7-5.2h-0.2v5.2h-2.3v-12h2.3l1.7,5.2h0.2V407.8z"/>
			<path class="st6" d="M367.5,407.8h5.5v2.5h-2.8v2.2h2.7v2.5h-2.7v2.3h2.9v2.5h-5.6V407.8z"/>
			<path class="st6" d="M377,419.8v-2.5h1.5v-7h-1.3v-2.5h4v9.5h1.3v2.5H377z"/>
		</g>
	</g>
	<g>
		<g>
			<path class="st10" d="M646.9,232.1c0,0.8-0.6,1.4-1.4,1.4h-67.6c-0.8,0-1.4-0.6-1.4-1.4v-48.8c0-0.8,0.6-1.4,1.4-1.4h67.6
				c0.8,0,1.4,0.6,1.4,1.4V232.1z"/>
		</g>
		<g>
			<path class="st6" d="M607.8,197.5c0,1.3-0.6,1.7-1.3,2h-5.2v-12h5.2c0.7,0.3,1.3,0.7,1.3,2V197.5z M603.9,189.7v7.7h1l0.2-0.2
				v-7.3l-0.2-0.2H603.9z"/>
			<path class="st6" d="M608.6,199.5v-12h5.2c0.7,0.3,1.3,0.7,1.3,2v2.5c0,1.1-0.5,1.6-1.1,1.9l1.4,3.8v1.7h-2.3l-1.5-4.7h-0.3v4.7
				H608.6z M611.3,189.7v3h1l0.2-0.2v-2.7l-0.2-0.2H611.3z"/>
			<path class="st6" d="M622.3,194.8v2.7c0,1.3-0.6,1.7-1.3,2h-3.9c-0.7-0.3-1.3-0.7-1.3-2v-2.4h2.7v2l0.2,0.2h0.8l0.2-0.2v-1.8
				l-0.2-0.2l-2.7-1.2c-0.8-0.4-0.9-0.9-0.9-1.8v-2.5c0-1.3,0.6-1.7,1.3-2h3.9c0.7,0.3,1.3,0.7,1.3,2v2.2h-2.7v-1.9l-0.2-0.2h-0.8
				l-0.2,0.2v1.7l0.2,0.3l2.7,1.1C622.2,193.3,622.3,193.9,622.3,194.8z"/>
			<path class="st6" d="M588.7,211.7c0,1.3-0.6,1.7-1.3,2h-5.2v-12h5.2c0.7,0.3,1.3,0.7,1.3,2V211.7z M584.9,203.9v7.7h1l0.2-0.2
				V204l-0.2-0.2H584.9z"/>
			<path class="st6" d="M589.5,201.7h5.5v2.5h-2.8v2.2h2.7v2.5h-2.7v2.3h2.9v2.5h-5.6V201.7z"/>
			<path class="st6" d="M600.2,204.2v9.5h-2.7v-9.5h-1.9v-2.5h6.5v2.5H600.2z"/>
			<path class="st6" d="M602.6,201.7h5.5v2.5h-2.8v2.2h2.7v2.5h-2.7v2.3h2.9v2.5h-5.6V201.7z"/>
			<path class="st6" d="M615.5,211.7c0,1.3-0.6,1.7-1.3,2h-3.9c-0.7-0.3-1.3-0.7-1.3-2v-8c0-1.3,0.6-1.7,1.3-2h3.9
				c0.7,0.3,1.3,0.7,1.3,2v2.9h-2.7V204l-0.2-0.2h-0.8l-0.2,0.2v7.3l0.2,0.2h0.8l0.2-0.2v-2.5h2.7V211.7z"/>
			<path class="st6" d="M620.6,204.2v9.5h-2.7v-9.5H616v-2.5h6.5v2.5H620.6z"/>
			<path class="st6" d="M623,213.7v-2.5h0.5v-7H623v-2.5h3.7v2.5h-0.5v7h0.5v2.5H623z"/>
			<path class="st6" d="M633.9,211.7c0,1.3-0.6,1.7-1.3,2h-3.9c-0.7-0.3-1.3-0.7-1.3-2v-8c0-1.3,0.6-1.7,1.3-2h3.9
				c0.7,0.3,1.3,0.7,1.3,2V211.7z M631.3,204l-0.2-0.2h-0.8l-0.2,0.2v7.3l0.2,0.2h0.8l0.2-0.2V204z"/>
			<path class="st6" d="M638.9,201.7h2.3v12h-2.3l-1.7-5.2h-0.2v5.2h-2.3v-12h2.3l1.7,5.2h0.2V201.7z"/>
			<path class="st6" d="M596.6,218.4h-3.5v-2.5h6.5v2.2l-3.5,7.3h3.5v2.5h-6.5v-2.2L596.6,218.4z"/>
			<path class="st6" d="M606.9,225.8c0,1.3-0.6,1.7-1.3,2h-3.9c-0.7-0.3-1.3-0.7-1.3-2v-8c0-1.3,0.6-1.7,1.3-2h3.9
				c0.7,0.3,1.3,0.7,1.3,2V225.8z M604.2,218.2L604,218h-0.8l-0.2,0.2v7.3l0.2,0.2h0.8l0.2-0.2V218.2z"/>
			<path class="st6" d="M611.9,215.9h2.3v12h-2.3l-1.7-5.2H610v5.2h-2.3v-12h2.3l1.7,5.2h0.2V215.9z"/>
			<path class="st6" d="M615,215.9h5.5v2.5h-2.8v2.2h2.7v2.5h-2.7v2.3h2.9v2.5H615V215.9z"/>
			<path class="st6" d="M624.5,227.8v-2.5h1.5v-7h-1.3v-2.5h4v9.5h1.3v2.5H624.5z"/>
		</g>
	</g>
	<g>
		<circle class="st7" cx="70" cy="52.7" r="4.7"/>
		<circle class="st10" cx="70" cy="52.7" r="4.7"/>
	</g>
	<g>
		<path class="st11" d="M329,399.6h-26.3c-4.7,0-8.5-3.8-8.5-8.5v-48.5"/>
	</g>
	<g>
		<line class="st11" x1="538.7" y1="207.7" x2="576.5" y2="207.7"/>
	</g>
	<g>
		<path class="st11" d="M70,52.7H43.7c-4.7,0-8.5,3.8-8.5,8.5v34.4"/>
	</g>
	<g>
		<g>
			<g>
				<g>
					<line class="st12" x1="215.4" y1="333.6" x2="224.9" y2="326.8"/>
				</g>
				<g>
					<path class="st10" d="M216.9,325.7c0.5-0.4,1.2-0.2,1.5,0.3c0.4,0.5,0.2,1.2-0.3,1.5c-0.5,0.4-1.2,0.2-1.5-0.3
						C216.3,326.7,216.4,326.1,216.9,325.7z"/>
				</g>
				<g>
					<path class="st10" d="M214.4,322.1c0.5-0.4,1.2-0.2,1.5,0.3c0.4,0.5,0.2,1.2-0.3,1.5s-1.2,0.2-1.5-0.3
						C213.7,323.1,213.9,322.5,214.4,322.1z"/>
				</g>
				<g>
					<path class="st10" d="M211.8,318.5c0.5-0.4,1.2-0.2,1.5,0.3c0.4,0.5,0.2,1.2-0.3,1.5c-0.5,0.4-1.2,0.2-1.5-0.3
						C211.2,319.5,211.3,318.9,211.8,318.5z"/>
				</g>
				<g>
					<path class="st10" d="M209.2,314.9c0.5-0.4,1.2-0.2,1.5,0.3c0.4,0.5,0.2,1.2-0.3,1.5c-0.5,0.4-1.2,0.2-1.5-0.3
						C208.6,315.9,208.7,315.2,209.2,314.9z"/>
				</g>
				<g>
					
						<ellipse transform="matrix(0.8194 -0.5732 0.5732 0.8194 -141.5019 175.2286)" class="st10" cx="207.3" cy="312.2" rx="1.1" ry="1.1"/>
				</g>
				<g>
					<path class="st10" d="M204.2,307.6c0.5-0.3,1.2-0.2,1.5,0.3c0.3,0.5,0.2,1.2-0.3,1.5c-0.5,0.4-1.2,0.2-1.5-0.3
						C203.5,308.7,203.7,308,204.2,307.6z"/>
				</g>
				<g>
					<path class="st10" d="M201.6,304c0.5-0.3,1.2-0.2,1.5,0.3c0.3,0.5,0.2,1.2-0.3,1.5c-0.5,0.3-1.2,0.2-1.5-0.3
						C201,305.1,201.1,304.4,201.6,304z"/>
				</g>
				<g>
					<path class="st10" d="M199.1,300.4c0.5-0.3,1.2-0.2,1.5,0.3s0.2,1.2-0.3,1.5c-0.5,0.3-1.2,0.2-1.5-0.3
						C198.5,301.4,198.6,300.7,199.1,300.4z"/>
				</g>
				<g>
					<path class="st10" d="M196.6,296.7c0.5-0.3,1.2-0.2,1.5,0.3c0.3,0.5,0.2,1.2-0.3,1.5c-0.5,0.3-1.2,0.2-1.5-0.3
						C196,297.8,196.1,297.1,196.6,296.7z"/>
				</g>
				<g>
					<path class="st10" d="M194.1,293.1c0.5-0.3,1.2-0.2,1.5,0.3c0.3,0.5,0.2,1.2-0.3,1.5c-0.5,0.3-1.2,0.2-1.5-0.3
						C193.5,294.1,193.6,293.4,194.1,293.1z"/>
				</g>
				<g>
					<path class="st10" d="M191.6,289.4c0.5-0.3,1.2-0.2,1.5,0.3s0.2,1.2-0.3,1.5c-0.5,0.3-1.2,0.2-1.5-0.3
						C191,290.5,191.1,289.8,191.6,289.4z"/>
				</g>
				<g>
					<path class="st10" d="M189.1,285.8c0.5-0.3,1.2-0.2,1.5,0.3s0.2,1.2-0.3,1.5c-0.5,0.3-1.2,0.2-1.5-0.3
						C188.5,286.8,188.6,286.1,189.1,285.8z"/>
				</g>
				<g>
					<path class="st10" d="M186.7,282.1c0.5-0.3,1.2-0.2,1.5,0.3c0.3,0.5,0.2,1.2-0.3,1.5s-1.2,0.2-1.5-0.3
						C186,283.1,186.2,282.4,186.7,282.1z"/>
				</g>
				<g>
					<path class="st10" d="M184.2,278.4c0.5-0.3,1.2-0.2,1.5,0.3c0.3,0.5,0.2,1.2-0.3,1.5s-1.2,0.2-1.5-0.3
						C183.6,279.4,183.7,278.8,184.2,278.4z"/>
				</g>
				<g>
					<path class="st10" d="M181.8,274.7c0.5-0.3,1.2-0.2,1.5,0.3c0.3,0.5,0.2,1.2-0.3,1.5c-0.5,0.3-1.2,0.2-1.5-0.3
						C181.2,275.7,181.3,275.1,181.8,274.7z"/>
				</g>
				<g>
					<path class="st10" d="M179.4,271c0.5-0.3,1.2-0.2,1.5,0.3c0.3,0.5,0.2,1.2-0.3,1.5c-0.5,0.3-1.2,0.2-1.5-0.3
						C178.7,272,178.9,271.3,179.4,271z"/>
				</g>
				<g>
					<path class="st10" d="M177,267.3c0.5-0.3,1.2-0.2,1.5,0.3c0.3,0.5,0.2,1.2-0.3,1.5s-1.2,0.2-1.5-0.3
						C176.4,268.3,176.5,267.6,177,267.3z"/>
				</g>
				<g>
					<path class="st10" d="M174.7,263.5c0.5-0.3,1.2-0.2,1.5,0.4c0.3,0.5,0.2,1.2-0.4,1.5c-0.5,0.3-1.2,0.2-1.5-0.4
						S174.2,263.9,174.7,263.5z"/>
				</g>
				<g>
					<path class="st10" d="M172.4,259.8c0.5-0.3,1.2-0.1,1.5,0.4c0.3,0.5,0.2,1.2-0.4,1.5c-0.5,0.3-1.2,0.2-1.5-0.4
						C171.7,260.8,171.9,260.1,172.4,259.8z"/>
				</g>
				<g>
					<path class="st10" d="M170.1,256c0.5-0.3,1.2-0.1,1.5,0.4c0.3,0.5,0.1,1.2-0.4,1.5c-0.5,0.3-1.2,0.1-1.5-0.4
						C169.4,257,169.6,256.3,170.1,256z"/>
				</g>
				<g>
					<path class="st10" d="M167.9,252.1c0.5-0.3,1.2-0.1,1.5,0.4c0.3,0.5,0.1,1.2-0.4,1.5c-0.5,0.3-1.2,0.1-1.5-0.4
						C167.2,253.1,167.4,252.4,167.9,252.1z"/>
				</g>
				<g>
					<path class="st10" d="M165.9,248.2c0.5-0.3,1.2-0.1,1.5,0.5c0.3,0.5,0.1,1.2-0.5,1.5c-0.5,0.3-1.2,0.1-1.5-0.5
						S165.3,248.5,165.9,248.2z"/>
				</g>
				<g>
					<path class="st10" d="M164,244.2c0.6-0.3,1.2,0,1.5,0.5c0.3,0.5,0,1.2-0.5,1.5c-0.6,0.3-1.2,0-1.5-0.5S163.4,244.5,164,244.2z"
						/>
				</g>
				<g>
					<path class="st10" d="M162.1,240.2c0.6-0.3,1.2,0,1.5,0.5s0,1.2-0.5,1.5c-0.6,0.3-1.2,0-1.5-0.5
						C161.3,241.1,161.6,240.5,162.1,240.2z"/>
				</g>
				<g>
					<path class="st10" d="M160.3,236.2c0.6-0.2,1.2,0,1.5,0.6c0.2,0.6,0,1.2-0.6,1.5s-1.2,0-1.5-0.6
						C159.5,237.1,159.8,236.4,160.3,236.2z"/>
				</g>
				<g>
					<path class="st10" d="M158.5,232.1c0.6-0.2,1.2,0,1.5,0.6c0.2,0.6,0,1.2-0.6,1.5c-0.6,0.2-1.2,0-1.5-0.6
						C157.7,233,158,232.4,158.5,232.1z"/>
				</g>
				<g>
					<path class="st10" d="M156.8,228.1c0.6-0.2,1.2,0,1.5,0.6s0,1.2-0.6,1.5c-0.6,0.2-1.2,0-1.5-0.6
						C156,229,156.2,228.3,156.8,228.1z"/>
				</g>
				<g>
					<path class="st10" d="M155,224c0.6-0.2,1.2,0,1.5,0.6c0.2,0.6,0,1.2-0.6,1.5c-0.6,0.2-1.2,0-1.5-0.6
						C154.2,224.9,154.5,224.2,155,224z"/>
				</g>
				<g>
					<path class="st10" d="M153.3,219.9c0.6-0.2,1.2,0,1.5,0.6s0,1.2-0.6,1.5c-0.6,0.2-1.2,0-1.5-0.6
						C152.5,220.8,152.7,220.2,153.3,219.9z"/>
				</g>
				<g>
					<path class="st10" d="M151.6,215.9c0.6-0.2,1.2,0,1.4,0.6c0.2,0.6,0,1.2-0.6,1.4c-0.6,0.2-1.2,0-1.4-0.6
						C150.7,216.8,151,216.1,151.6,215.9z"/>
				</g>
				<g>
					<path class="st10" d="M149.9,211.8c0.6-0.2,1.2,0,1.4,0.6c0.2,0.6,0,1.2-0.6,1.4c-0.6,0.2-1.2,0-1.4-0.6
						C149,212.7,149.3,212,149.9,211.8z"/>
				</g>
				<g>
					<path class="st10" d="M148.1,207.7c0.6-0.2,1.2,0,1.4,0.6s0,1.2-0.6,1.4c-0.6,0.2-1.2,0-1.4-0.6S147.6,207.9,148.1,207.7z"/>
				</g>
				<g>
					<path class="st10" d="M146.4,203.6c0.6-0.2,1.2,0,1.4,0.6s0,1.2-0.6,1.4c-0.6,0.2-1.2,0-1.4-0.6
						C145.6,204.5,145.9,203.9,146.4,203.6z"/>
				</g>
				<g>
					
						<ellipse transform="matrix(0.9258 -0.3779 0.3779 0.9258 -65.0365 69.7394)" class="st10" cx="145.2" cy="200.6" rx="1.1" ry="1.1"/>
				</g>
				<g>
					<path class="st10" d="M143,195.5c0.6-0.2,1.2,0,1.4,0.6s0,1.2-0.6,1.4c-0.6,0.2-1.2,0-1.4-0.6
						C142.2,196.3,142.5,195.7,143,195.5z"/>
				</g>
				<g>
					<path class="st10" d="M141.4,191.4c0.6-0.2,1.2,0,1.4,0.6c0.2,0.6,0,1.2-0.6,1.4c-0.6,0.2-1.2,0-1.4-0.6
						S140.8,191.6,141.4,191.4z"/>
				</g>
				<g>
					<path class="st10" d="M139.7,187.3c0.6-0.2,1.2,0,1.4,0.6s0,1.2-0.6,1.4s-1.2,0-1.4-0.6C138.8,188.2,139.1,187.5,139.7,187.3z"
						/>
				</g>
				<g>
					<path class="st10" d="M138,183.2c0.6-0.2,1.2,0,1.4,0.6c0.2,0.6,0,1.2-0.6,1.4c-0.6,0.2-1.2,0-1.4-0.6
						C137.1,184.1,137.4,183.4,138,183.2z"/>
				</g>
				<g>
					<path class="st10" d="M136.3,179.1c0.6-0.2,1.2,0,1.4,0.6c0.2,0.6,0,1.2-0.6,1.4c-0.6,0.2-1.2,0-1.4-0.6
						C135.5,180,135.7,179.4,136.3,179.1z"/>
				</g>
				<g>
					<path class="st10" d="M134.6,175c0.6-0.2,1.2,0,1.4,0.6c0.2,0.6,0,1.2-0.6,1.4s-1.2,0-1.4-0.6
						C133.8,175.9,134.1,175.3,134.6,175z"/>
				</g>
				<g>
					<path class="st10" d="M132.9,170.9c0.6-0.2,1.2,0,1.4,0.6c0.2,0.6,0,1.2-0.6,1.4c-0.6,0.2-1.2,0-1.4-0.6
						C132.1,171.8,132.4,171.2,132.9,170.9z"/>
				</g>
				<g>
					<path class="st10" d="M131.3,166.9c0.6-0.2,1.2,0,1.4,0.6c0.2,0.6,0,1.2-0.6,1.4c-0.6,0.2-1.2,0-1.4-0.6
						C130.4,167.7,130.7,167.1,131.3,166.9z"/>
				</g>
				<g>
					<path class="st10" d="M129.6,162.8c0.6-0.2,1.2,0,1.4,0.6c0.2,0.6,0,1.2-0.6,1.4c-0.6,0.2-1.2,0-1.4-0.6
						C128.7,163.6,129,163,129.6,162.8z"/>
				</g>
				<g>
					<path class="st10" d="M127.9,158.7c0.6-0.2,1.2,0,1.4,0.6c0.2,0.6,0,1.2-0.6,1.4c-0.6,0.2-1.2,0-1.4-0.6
						C127.1,159.6,127.3,158.9,127.9,158.7z"/>
				</g>
				<g>
					<path class="st10" d="M126.2,154.6c0.6-0.2,1.2,0,1.4,0.6c0.2,0.6,0,1.2-0.6,1.4c-0.6,0.2-1.2,0-1.4-0.6
						C125.4,155.5,125.6,154.8,126.2,154.6z"/>
				</g>
				<g>
					<path class="st10" d="M124.4,150.5c0.6-0.3,1.2,0,1.5,0.6c0.3,0.6,0,1.2-0.5,1.5c-0.6,0.2-1.2,0-1.5-0.6
						C123.6,151.5,123.9,150.8,124.4,150.5z"/>
				</g>
				<g>
					<path class="st10" d="M122.4,146.6c0.5-0.3,1.2-0.1,1.5,0.5c0.3,0.5,0.1,1.2-0.5,1.5c-0.5,0.3-1.2,0.1-1.5-0.5
						C121.7,147.6,121.9,146.9,122.4,146.6z"/>
				</g>
				<g>
					<path class="st10" d="M120.2,142.8c0.5-0.3,1.2-0.1,1.5,0.4c0.3,0.5,0.1,1.2-0.4,1.5c-0.5,0.3-1.2,0.1-1.5-0.4
						C119.5,143.8,119.7,143.1,120.2,142.8z"/>
				</g>
				<g>
					<path class="st10" d="M117.9,139c0.5-0.3,1.2-0.2,1.5,0.4c0.3,0.5,0.2,1.2-0.4,1.5c-0.5,0.3-1.2,0.2-1.5-0.4
						S117.4,139.3,117.9,139z"/>
				</g>
				<g>
					<path class="st10" d="M115.5,135.3c0.5-0.3,1.2-0.2,1.5,0.3c0.3,0.5,0.2,1.2-0.3,1.5s-1.2,0.2-1.5-0.3
						C114.8,136.3,115,135.6,115.5,135.3z"/>
				</g>
				<g>
					<path class="st10" d="M113,131.6c0.5-0.3,1.2-0.2,1.5,0.3c0.3,0.5,0.2,1.2-0.3,1.5c-0.5,0.3-1.2,0.2-1.5-0.3
						C112.4,132.7,112.5,132,113,131.6z"/>
				</g>
				<g>
					<path class="st10" d="M110.5,128c0.5-0.4,1.2-0.2,1.5,0.3c0.4,0.5,0.2,1.2-0.3,1.5c-0.5,0.3-1.2,0.2-1.5-0.3
						S110,128.4,110.5,128z"/>
				</g>
				<g>
					<path class="st10" d="M107.9,124.4c0.5-0.4,1.2-0.3,1.5,0.2s0.3,1.2-0.2,1.5s-1.2,0.2-1.5-0.2
						C107.3,125.5,107.4,124.8,107.9,124.4z"/>
				</g>
				<g>
					<path class="st10" d="M105.3,120.9c0.5-0.4,1.2-0.3,1.6,0.2c0.4,0.5,0.3,1.2-0.2,1.5c-0.5,0.4-1.2,0.3-1.5-0.2
						C104.7,121.9,104.8,121.2,105.3,120.9z"/>
				</g>
				<g>
					<path class="st10" d="M102.6,117.4c0.5-0.4,1.2-0.3,1.6,0.2c0.4,0.5,0.3,1.2-0.2,1.6c-0.5,0.4-1.2,0.3-1.5-0.2
						C102,118.4,102.1,117.7,102.6,117.4z"/>
				</g>
				<g>
					<path class="st10" d="M99.9,113.9c0.5-0.4,1.2-0.3,1.6,0.2c0.4,0.5,0.3,1.2-0.2,1.6s-1.2,0.3-1.5-0.2
						C99.3,114.9,99.4,114.2,99.9,113.9z"/>
				</g>
				<g>
					<path class="st10" d="M97.1,110.4c0.5-0.4,1.2-0.3,1.6,0.2c0.4,0.5,0.3,1.2-0.2,1.6c-0.5,0.4-1.2,0.3-1.5-0.2
						C96.6,111.5,96.6,110.8,97.1,110.4z"/>
				</g>
				<g>
					<path class="st10" d="M94.3,107c0.5-0.4,1.2-0.3,1.6,0.2c0.4,0.5,0.3,1.2-0.2,1.6c-0.5,0.4-1.2,0.3-1.6-0.2
						C93.8,108.1,93.8,107.4,94.3,107z"/>
				</g>
				<g>
					<path class="st10" d="M91.5,103.6c0.5-0.4,1.2-0.3,1.6,0.1c0.4,0.5,0.3,1.2-0.1,1.6c-0.5,0.4-1.2,0.3-1.6-0.1
						C91,104.7,91,104,91.5,103.6z"/>
				</g>
				<g>
					<path class="st10" d="M88.6,100.3c0.5-0.4,1.2-0.4,1.6,0.1c0.4,0.5,0.4,1.2-0.1,1.6c-0.5,0.4-1.2,0.4-1.6-0.1
						C88.1,101.4,88.1,100.7,88.6,100.3z"/>
				</g>
				<g>
					<path class="st10" d="M85.6,97c0.4-0.4,1.1-0.4,1.6,0c0.4,0.5,0.4,1.2,0,1.6c-0.4,0.4-1.1,0.4-1.6,0
						C85.1,98.1,85.1,97.4,85.6,97z"/>
				</g>
				<g>
					<path class="st10" d="M82.5,93.8c0.4-0.4,1.1-0.4,1.6,0c0.4,0.4,0.4,1.1,0,1.6s-1.1,0.4-1.6,0C82.1,94.9,82.1,94.2,82.5,93.8z"
						/>
				</g>
				<g>
					<path class="st10" d="M79.5,90.6c0.4-0.4,1.1-0.4,1.6,0c0.4,0.4,0.4,1.1,0,1.6s-1.1,0.4-1.6,0C79,91.7,79,91,79.5,90.6z"/>
				</g>
				<g>
					<path class="st10" d="M76.4,87.4c0.4-0.4,1.1-0.4,1.6,0c0.4,0.4,0.4,1.1,0,1.6c-0.4,0.4-1.1,0.4-1.6,0
						C76,88.5,76,87.8,76.4,87.4z"/>
				</g>
				<g>
					<path class="st10" d="M73.4,84.2c0.4-0.4,1.1-0.4,1.6,0c0.4,0.4,0.4,1.1,0,1.6c-0.4,0.4-1.1,0.4-1.6,0
						C72.9,85.3,73,84.6,73.4,84.2z"/>
				</g>
				<g>
					<path class="st10" d="M70.4,81c0.4-0.4,1.1-0.4,1.6,0c0.4,0.4,0.4,1.1,0,1.6c-0.4,0.4-1.1,0.4-1.6,0
						C69.9,82.1,69.9,81.4,70.4,81z"/>
				</g>
				<g>
					<path class="st10" d="M67.3,77.8c0.4-0.4,1.1-0.4,1.6,0c0.4,0.4,0.4,1.1,0,1.6s-1.1,0.4-1.6,0S66.9,78.2,67.3,77.8z"/>
				</g>
				<g>
					<path class="st10" d="M64.3,74.6c0.4-0.4,1.1-0.4,1.6,0c0.4,0.4,0.4,1.1,0,1.6c-0.4,0.4-1.1,0.4-1.6,0
						C63.8,75.7,63.8,75,64.3,74.6z"/>
				</g>
				<g>
					<path class="st10" d="M61.2,71.3c0.4-0.4,1.1-0.4,1.6,0c0.4,0.4,0.4,1.1,0,1.6c-0.4,0.4-1.1,0.4-1.6,0
						C60.8,72.5,60.8,71.8,61.2,71.3z"/>
				</g>
				<g>
					<path class="st10" d="M58.2,68.1c0.4-0.4,1.1-0.4,1.6,0c0.4,0.4,0.4,1.1,0,1.6c-0.4,0.4-1.1,0.4-1.6,0
						C57.7,69.3,57.7,68.6,58.2,68.1z"/>
				</g>
				<g>
					<line class="st12" x1="51.7" y1="69.7" x2="60.1" y2="61.8"/>
				</g>
			</g>
		</g>
	</g>
	<g>
		<g>
			<g>
				<g>
					<line class="st12" x1="87.3" y1="4.9" x2="88.1" y2="16.4"/>
				</g>
				<g>
					<path class="st10" d="M93.2,10.3c0,0.6-0.4,1.1-1,1.2c-0.6,0-1.1-0.4-1.2-1.1c0-0.6,0.4-1.1,1-1.2C92.7,9.3,93.2,9.7,93.2,10.3
						z"/>
				</g>
				<g>
					<path class="st10" d="M97.6,10.2c0,0.6-0.5,1.1-1.1,1.1c-0.6,0-1.1-0.5-1.1-1.1c0-0.6,0.5-1.1,1.1-1.1
						C97.1,9.1,97.6,9.6,97.6,10.2z"/>
				</g>
				<g>
					<path class="st10" d="M102,10.1c0,0.6-0.5,1.1-1.1,1.1c-0.6,0-1.1-0.5-1.1-1.1c0-0.6,0.5-1.1,1.1-1.1S102,9.5,102,10.1z"/>
				</g>
				<g>
					<path class="st10" d="M106.4,10.1c0,0.6-0.5,1.1-1.1,1.1c-0.6,0-1.1-0.5-1.1-1.1c0-0.6,0.5-1.1,1.1-1.1
						C105.9,9,106.4,9.5,106.4,10.1z"/>
				</g>
				<g>
					<path class="st10" d="M110.8,10.1c0,0.6-0.5,1.1-1.1,1.1c-0.6,0-1.1-0.5-1.1-1.1c0-0.6,0.5-1.1,1.1-1.1
						C110.3,9,110.8,9.5,110.8,10.1z"/>
				</g>
				<g>
					<path class="st10" d="M115.2,10.2c0,0.6-0.5,1.1-1.1,1.1c-0.6,0-1.1-0.5-1.1-1.1c0-0.6,0.5-1.1,1.1-1.1
						C114.8,9.1,115.2,9.6,115.2,10.2z"/>
				</g>
				<g>
					<path class="st10" d="M119.6,10.4c0,0.6-0.5,1.1-1.1,1.1c-0.6,0-1.1-0.5-1.1-1.1s0.5-1.1,1.1-1.1
						C119.2,9.3,119.6,9.8,119.6,10.4z"/>
				</g>
				<g>
					<path class="st10" d="M124,10.6c0,0.6-0.5,1.1-1.2,1c-0.6,0-1.1-0.6-1-1.2c0-0.6,0.5-1.1,1.2-1C123.6,9.5,124,10,124,10.6z"/>
				</g>
				<g>
					<path class="st10" d="M128.4,10.8c0,0.6-0.6,1.1-1.2,1c-0.6,0-1.1-0.6-1-1.2c0-0.6,0.6-1.1,1.2-1
						C128,9.7,128.4,10.2,128.4,10.8z"/>
				</g>
				<g>
					<path class="st10" d="M132.8,11.1c0,0.6-0.6,1.1-1.2,1c-0.6,0-1.1-0.6-1-1.2c0-0.6,0.6-1.1,1.2-1
						C132.4,10,132.8,10.5,132.8,11.1z"/>
				</g>
				<g>
					<path class="st10" d="M137.2,11.5c-0.1,0.6-0.6,1.1-1.2,1c-0.6-0.1-1.1-0.6-1-1.2c0-0.6,0.6-1.1,1.2-1
						C136.8,10.4,137.2,10.9,137.2,11.5z"/>
				</g>
				<g>
					<path class="st10" d="M141.5,11.9c-0.1,0.6-0.6,1.1-1.2,1c-0.6-0.1-1-0.6-1-1.2c0.1-0.6,0.6-1.1,1.2-1
						C141.2,10.8,141.6,11.3,141.5,11.9z"/>
				</g>
				<g>
					<path class="st10" d="M145.9,12.4c-0.1,0.6-0.6,1-1.2,1c-0.6-0.1-1-0.6-1-1.2s0.6-1,1.2-1C145.6,11.2,146,11.7,145.9,12.4z"/>
				</g>
				<g>
					<path class="st10" d="M150.3,12.9c-0.1,0.6-0.6,1-1.2,1c-0.6-0.1-1-0.6-1-1.2c0.1-0.6,0.6-1,1.2-1
						C149.9,11.7,150.4,12.3,150.3,12.9z"/>
				</g>
				<g>
					<path class="st10" d="M154.7,13.4c-0.1,0.6-0.6,1-1.2,0.9c-0.6-0.1-1-0.6-0.9-1.2s0.6-1,1.2-0.9
						C154.3,12.3,154.7,12.8,154.7,13.4z"/>
				</g>
				<g>
					<path class="st10" d="M159,14c-0.1,0.6-0.6,1-1.2,0.9c-0.6-0.1-1-0.6-0.9-1.2c0.1-0.6,0.6-1,1.2-0.9
						C158.7,12.9,159.1,13.4,159,14z"/>
				</g>
				<g>
					<path class="st10" d="M163.4,14.7c-0.1,0.6-0.7,1-1.3,0.9s-1-0.7-0.9-1.3s0.7-1,1.3-0.9C163,13.5,163.5,14.1,163.4,14.7z"/>
				</g>
				<g>
					<path class="st10" d="M167.7,15.4c-0.1,0.6-0.7,1-1.3,0.9c-0.6-0.1-1-0.7-0.9-1.3c0.1-0.6,0.7-1,1.3-0.9
						C167.4,14.2,167.8,14.8,167.7,15.4z"/>
				</g>
				<g>
					<path class="st10" d="M172,16.2c-0.1,0.6-0.7,1-1.3,0.9s-1-0.7-0.9-1.3c0.1-0.6,0.7-1,1.3-0.9C171.7,15,172.1,15.5,172,16.2z"
						/>
				</g>
				<g>
					<path class="st10" d="M176.4,17c-0.1,0.6-0.7,1-1.3,0.9c-0.6-0.1-1-0.7-0.9-1.3c0.1-0.6,0.7-1,1.3-0.9
						C176.1,15.8,176.5,16.4,176.4,17z"/>
				</g>
				<g>
					<path class="st10" d="M180.7,17.8c-0.1,0.6-0.7,1-1.3,0.9c-0.6-0.1-1-0.7-0.9-1.3c0.1-0.6,0.7-1,1.3-0.9
						C180.4,16.6,180.8,17.2,180.7,17.8z"/>
				</g>
				<g>
					<path class="st10" d="M185,18.7c-0.1,0.6-0.7,1-1.3,0.9c-0.6-0.1-1-0.7-0.8-1.3c0.1-0.6,0.7-1,1.3-0.9S185.1,18.1,185,18.7z"/>
				</g>
				<g>
					<path class="st10" d="M189.3,19.7c-0.1,0.6-0.7,1-1.3,0.8c-0.6-0.1-1-0.7-0.8-1.3c0.1-0.6,0.7-1,1.3-0.8
						C189,18.5,189.4,19.1,189.3,19.7z"/>
				</g>
				<g>
					<path class="st10" d="M193.6,20.6c-0.1,0.6-0.7,1-1.3,0.8c-0.6-0.1-1-0.7-0.8-1.3c0.1-0.6,0.7-1,1.3-0.8
						C193.3,19.4,193.7,20,193.6,20.6z"/>
				</g>
				<g>
					<path class="st10" d="M197.9,21.5c-0.1,0.6-0.7,1-1.3,0.8c-0.6-0.1-1-0.7-0.8-1.3s0.7-1,1.3-0.8S198,20.9,197.9,21.5z"/>
				</g>
				<g>
					<path class="st10" d="M202.2,22.5c-0.1,0.6-0.7,1-1.3,0.8c-0.6-0.1-1-0.7-0.8-1.3c0.1-0.6,0.7-1,1.3-0.8
						C201.9,21.3,202.3,21.9,202.2,22.5z"/>
				</g>
				<g>
					<path class="st10" d="M206.5,23.5c-0.1,0.6-0.7,1-1.3,0.8c-0.6-0.1-1-0.7-0.8-1.3c0.1-0.6,0.7-1,1.3-0.8
						C206.2,22.3,206.6,22.9,206.5,23.5z"/>
				</g>
				<g>
					<path class="st10" d="M210.7,24.5c-0.1,0.6-0.7,1-1.3,0.8c-0.6-0.1-1-0.7-0.8-1.3c0.1-0.6,0.7-1,1.3-0.8
						C210.5,23.3,210.9,23.9,210.7,24.5z"/>
				</g>
				<g>
					<path class="st10" d="M215,25.5c-0.1,0.6-0.7,1-1.3,0.8c-0.6-0.1-1-0.7-0.8-1.3c0.1-0.6,0.7-1,1.3-0.8
						C214.8,24.3,215.2,24.9,215,25.5z"/>
				</g>
				<g>
					<path class="st10" d="M219.3,26.5c-0.1,0.6-0.7,1-1.3,0.8c-0.6-0.1-1-0.7-0.8-1.3s0.7-1,1.3-0.8
						C219.1,25.3,219.4,25.9,219.3,26.5z"/>
				</g>
				<g>
					<path class="st10" d="M223.6,27.5c-0.1,0.6-0.7,1-1.3,0.8c-0.6-0.1-1-0.7-0.8-1.3c0.1-0.6,0.7-1,1.3-0.8
						C223.4,26.3,223.7,26.9,223.6,27.5z"/>
				</g>
				<g>
					<path class="st10" d="M227.9,28.5c-0.1,0.6-0.7,1-1.3,0.8s-1-0.7-0.8-1.3c0.1-0.6,0.7-1,1.3-0.8
						C227.6,27.3,228,27.9,227.9,28.5z"/>
				</g>
				<g>
					<path class="st10" d="M232.1,29.5c-0.1,0.6-0.7,1-1.3,0.8c-0.6-0.1-1-0.7-0.8-1.3c0.1-0.6,0.7-1,1.3-0.8
						C231.9,28.3,232.3,28.9,232.1,29.5z"/>
				</g>
				<g>
					<path class="st10" d="M236.4,30.6c-0.1,0.6-0.7,1-1.3,0.8c-0.6-0.1-1-0.7-0.8-1.3c0.1-0.6,0.7-1,1.3-0.8
						C236.2,29.4,236.6,30,236.4,30.6z"/>
				</g>
				<g>
					<path class="st10" d="M240.7,31.6c-0.1,0.6-0.7,1-1.3,0.8c-0.6-0.1-1-0.7-0.8-1.3c0.1-0.6,0.7-1,1.3-0.8S240.8,31,240.7,31.6z"
						/>
				</g>
				<g>
					<path class="st10" d="M245,32.6c-0.1,0.6-0.7,1-1.3,0.8c-0.6-0.1-1-0.7-0.8-1.3c0.1-0.6,0.7-1,1.3-0.8
						C244.8,31.4,245.1,32,245,32.6z"/>
				</g>
				<g>
					<path class="st10" d="M249.3,33.6c-0.1,0.6-0.7,1-1.3,0.8s-1-0.7-0.8-1.3c0.1-0.6,0.7-1,1.3-0.8S249.4,33,249.3,33.6z"/>
				</g>
				<g>
					<path class="st10" d="M253.5,34.7c-0.1,0.6-0.7,1-1.3,0.8c-0.6-0.1-1-0.7-0.8-1.3c0.1-0.6,0.7-1,1.3-0.8
						C253.3,33.5,253.7,34.1,253.5,34.7z"/>
				</g>
				<g>
					<path class="st10" d="M257.8,35.7c-0.1,0.6-0.7,1-1.3,0.8c-0.6-0.1-1-0.7-0.8-1.3c0.1-0.6,0.7-1,1.3-0.8
						C257.6,34.5,258,35.1,257.8,35.7z"/>
				</g>
				<g>
					<path class="st10" d="M262.1,36.7c-0.1,0.6-0.7,1-1.3,0.8c-0.6-0.1-1-0.7-0.8-1.3s0.7-1,1.3-0.8
						C261.9,35.5,262.2,36.1,262.1,36.7z"/>
				</g>
				<g>
					<path class="st10" d="M266.4,37.6c-0.1,0.6-0.7,1-1.3,0.8c-0.6-0.1-1-0.7-0.8-1.3c0.1-0.6,0.7-1,1.3-0.8
						C266.1,36.5,266.5,37,266.4,37.6z"/>
				</g>
				<g>
					<path class="st10" d="M270.7,38.6c-0.1,0.6-0.7,1-1.3,0.9c-0.6-0.1-1-0.7-0.8-1.3c0.1-0.6,0.7-1,1.3-0.8
						C270.4,37.4,270.8,38,270.7,38.6z"/>
				</g>
				<g>
					<path class="st10" d="M275,39.4c-0.1,0.6-0.7,1-1.3,0.9c-0.6-0.1-1-0.7-0.9-1.3c0.1-0.6,0.7-1,1.3-0.9
						C274.7,38.3,275.1,38.8,275,39.4z"/>
				</g>
				<g>
					<path class="st10" d="M279.3,40.1c-0.1,0.6-0.6,1-1.2,0.9c-0.6-0.1-1-0.6-0.9-1.3c0.1-0.6,0.7-1,1.2-0.9
						C279,38.9,279.4,39.5,279.3,40.1z"/>
				</g>
				<g>
					<path class="st10" d="M283.7,40.7c-0.1,0.6-0.6,1-1.2,1c-0.6-0.1-1-0.6-1-1.2s0.6-1,1.2-1C283.4,39.5,283.8,40.1,283.7,40.7z"
						/>
				</g>
				<g>
					<path class="st10" d="M288.1,41.2c-0.1,0.6-0.6,1-1.2,1s-1-0.6-1-1.2c0.1-0.6,0.6-1,1.2-1C287.7,40,288.1,40.6,288.1,41.2z"/>
				</g>
				<g>
					<path class="st10" d="M292.5,41.7c-0.1,0.6-0.6,1-1.2,1c-0.6-0.1-1-0.6-1-1.2c0.1-0.6,0.6-1,1.2-1S292.5,41,292.5,41.7z"/>
				</g>
				<g>
					<path class="st10" d="M296.8,42.1c-0.1,0.6-0.6,1-1.2,1c-0.6-0.1-1-0.6-1-1.2c0.1-0.6,0.6-1,1.2-1
						C296.5,41,296.9,41.5,296.8,42.1z"/>
				</g>
				<g>
					<path class="st10" d="M301.2,42.6c-0.1,0.6-0.6,1-1.2,1c-0.6-0.1-1-0.6-1-1.2s0.6-1,1.2-1C300.8,41.4,301.3,42,301.2,42.6z"/>
				</g>
				<g>
					<path class="st10" d="M305.6,43c-0.1,0.6-0.6,1-1.2,1c-0.6-0.1-1-0.6-1-1.2c0.1-0.6,0.6-1,1.2-1
						C305.2,41.9,305.6,42.4,305.6,43z"/>
				</g>
				<g>
					<path class="st10" d="M310,43.5c-0.1,0.6-0.6,1.1-1.2,1c-0.6-0.1-1-0.6-1-1.2c0.1-0.6,0.6-1,1.2-1
						C309.6,42.3,310,42.9,310,43.5z"/>
				</g>
				<g>
					<path class="st10" d="M314.3,43.9c-0.1,0.6-0.6,1.1-1.2,1c-0.6-0.1-1-0.6-1-1.2s0.6-1.1,1.2-1
						C313.9,42.7,314.4,43.3,314.3,43.9z"/>
				</g>
				<g>
					<path class="st10" d="M318.7,44.3c-0.1,0.6-0.6,1.1-1.2,1c-0.6-0.1-1-0.6-1-1.2c0.1-0.6,0.6-1.1,1.2-1S318.8,43.7,318.7,44.3z"
						/>
				</g>
				<g>
					<path class="st10" d="M323.1,44.7c-0.1,0.6-0.6,1.1-1.2,1c-0.6-0.1-1-0.6-1-1.2c0.1-0.6,0.6-1.1,1.2-1S323.1,44.1,323.1,44.7z"
						/>
				</g>
				<g>
					<path class="st10" d="M327.5,45.1c-0.1,0.6-0.6,1.1-1.2,1c-0.6-0.1-1.1-0.6-1-1.2c0.1-0.6,0.6-1.1,1.2-1
						C327.1,44,327.5,44.5,327.5,45.1z"/>
				</g>
				<g>
					<path class="st10" d="M331.9,45.5c-0.1,0.6-0.6,1.1-1.2,1c-0.6-0.1-1.1-0.6-1-1.2c0.1-0.6,0.6-1.1,1.2-1
						C331.5,44.4,331.9,44.9,331.9,45.5z"/>
				</g>
				<g>
					<path class="st10" d="M336.2,45.9c-0.1,0.6-0.6,1.1-1.2,1c-0.6-0.1-1.1-0.6-1-1.2c0.1-0.6,0.6-1.1,1.2-1
						C335.8,44.8,336.3,45.3,336.2,45.9z"/>
				</g>
				<g>
					<path class="st10" d="M340.6,46.3c-0.1,0.6-0.6,1.1-1.2,1c-0.6-0.1-1.1-0.6-1-1.2s0.6-1.1,1.2-1
						C340.2,45.1,340.7,45.7,340.6,46.3z"/>
				</g>
				<g>
					<path class="st10" d="M345,46.6c-0.1,0.6-0.6,1.1-1.2,1s-1.1-0.6-1-1.2c0.1-0.6,0.6-1.1,1.2-1S345,46,345,46.6z"/>
				</g>
				<g>
					<path class="st10" d="M349.4,47c0,0.6-0.6,1.1-1.2,1c-0.6,0-1.1-0.6-1-1.2c0-0.6,0.6-1.1,1.2-1C349,45.9,349.4,46.4,349.4,47z"
						/>
				</g>
				<g>
					<path class="st10" d="M353.8,47.3c0,0.6-0.6,1.1-1.2,1c-0.6,0-1.1-0.6-1-1.2c0-0.6,0.6-1.1,1.2-1
						C353.4,46.2,353.8,46.7,353.8,47.3z"/>
				</g>
				<g>
					<path class="st10" d="M358.2,47.7c0,0.6-0.6,1.1-1.2,1c-0.6,0-1.1-0.6-1-1.2c0-0.6,0.6-1.1,1.2-1S358.2,47.1,358.2,47.7z"/>
				</g>
				<g>
					<path class="st10" d="M362.5,48c0,0.6-0.6,1.1-1.2,1s-1.1-0.6-1-1.2c0-0.6,0.6-1.1,1.2-1C362.1,46.8,362.6,47.3,362.5,48z"/>
				</g>
				<g>
					<path class="st10" d="M366.9,48.2c0,0.6-0.5,1.1-1.2,1c-0.6,0-1.1-0.6-1-1.2s0.6-1.1,1.2-1C366.5,47.1,367,47.6,366.9,48.2z"/>
				</g>
				<g>
					<line class="st12" x1="370.4" y1="42.5" x2="370.1" y2="54.1"/>
				</g>
			</g>
		</g>
	</g>
	<g>
		<g>
			<g>
				<g>
					<line class="st12" x1="505.1" y1="278.9" x2="502.4" y2="267.6"/>
				</g>
				<g>
					<path class="st10" d="M498.4,274.5c-0.1-0.6,0.2-1.2,0.8-1.3c0.6-0.1,1.2,0.2,1.3,0.8s-0.2,1.2-0.8,1.3
						S498.5,275.1,498.4,274.5z"/>
				</g>
				<g>
					<path class="st10" d="M494,275.6c-0.1-0.6,0.2-1.2,0.8-1.3c0.6-0.1,1.2,0.2,1.3,0.8c0.1,0.6-0.2,1.2-0.8,1.3
						C494.8,276.5,494.2,276.2,494,275.6z"/>
				</g>
				<g>
					<path class="st10" d="M489.7,276.6c-0.1-0.6,0.2-1.2,0.8-1.3c0.6-0.1,1.2,0.2,1.3,0.8s-0.2,1.2-0.8,1.3
						C490.4,277.6,489.8,277.2,489.7,276.6z"/>
				</g>
				<g>
					<path class="st10" d="M485.4,277.7c-0.1-0.6,0.2-1.2,0.8-1.3s1.2,0.2,1.3,0.8c0.1,0.6-0.2,1.2-0.8,1.3
						C486.1,278.6,485.5,278.3,485.4,277.7z"/>
				</g>
				<g>
					<path class="st10" d="M481,278.7c-0.1-0.6,0.2-1.2,0.8-1.3c0.6-0.1,1.2,0.2,1.3,0.8s-0.2,1.2-0.8,1.3
						C481.8,279.7,481.2,279.3,481,278.7z"/>
				</g>
				<g>
					<path class="st10" d="M476.7,279.8c-0.1-0.6,0.2-1.2,0.8-1.3c0.6-0.1,1.2,0.2,1.3,0.8c0.1,0.6-0.2,1.2-0.8,1.3
						C477.5,280.7,476.9,280.3,476.7,279.8z"/>
				</g>
				<g>
					<path class="st10" d="M472.4,280.8c-0.1-0.6,0.2-1.2,0.8-1.3s1.2,0.2,1.3,0.8c0.1,0.6-0.2,1.2-0.8,1.3
						C473.1,281.8,472.5,281.4,472.4,280.8z"/>
				</g>
				<g>
					<path class="st10" d="M468.1,281.8c-0.1-0.6,0.2-1.2,0.8-1.3c0.6-0.1,1.2,0.2,1.3,0.8c0.1,0.6-0.2,1.2-0.8,1.3
						C468.8,282.8,468.2,282.4,468.1,281.8z"/>
				</g>
				<g>
					<path class="st10" d="M463.7,282.9c-0.1-0.6,0.2-1.2,0.8-1.3s1.2,0.2,1.3,0.8c0.1,0.6-0.2,1.2-0.8,1.3
						C464.5,283.8,463.9,283.5,463.7,282.9z"/>
				</g>
				<g>
					<path class="st10" d="M459.4,283.9c-0.1-0.6,0.2-1.2,0.8-1.3c0.6-0.1,1.2,0.2,1.3,0.8s-0.2,1.2-0.8,1.3
						C460.2,284.9,459.6,284.5,459.4,283.9z"/>
				</g>
				<g>
					<path class="st10" d="M455.1,285c-0.1-0.6,0.2-1.2,0.8-1.3s1.2,0.2,1.3,0.8s-0.2,1.2-0.8,1.3
						C455.8,285.9,455.2,285.6,455.1,285z"/>
				</g>
				<g>
					<path class="st10" d="M450.8,286c-0.1-0.6,0.2-1.2,0.8-1.3c0.6-0.1,1.2,0.2,1.3,0.8s-0.2,1.2-0.8,1.3
						C451.5,287,450.9,286.6,450.8,286z"/>
				</g>
				<g>
					<path class="st10" d="M446.4,287.1c-0.1-0.6,0.2-1.2,0.8-1.3s1.2,0.2,1.3,0.8c0.1,0.6-0.2,1.2-0.8,1.3
						C447.2,288,446.6,287.7,446.4,287.1z"/>
				</g>
				<g>
					<path class="st10" d="M442.1,288.1c-0.1-0.6,0.2-1.2,0.8-1.3c0.6-0.1,1.2,0.2,1.3,0.8s-0.2,1.2-0.8,1.3
						C442.8,289.1,442.3,288.7,442.1,288.1z"/>
				</g>
				<g>
					<path class="st10" d="M437.8,289.2c-0.1-0.6,0.2-1.2,0.8-1.3c0.6-0.1,1.2,0.2,1.3,0.8c0.1,0.6-0.2,1.2-0.8,1.3
						C438.5,290.1,437.9,289.8,437.8,289.2z"/>
				</g>
				<g>
					<path class="st10" d="M433.5,290.2c-0.1-0.6,0.2-1.2,0.8-1.3c0.6-0.1,1.2,0.2,1.3,0.8c0.1,0.6-0.2,1.2-0.8,1.3
						C434.2,291.2,433.6,290.8,433.5,290.2z"/>
				</g>
				<g>
					<path class="st10" d="M429.1,291.2c-0.1-0.6,0.2-1.2,0.8-1.3s1.2,0.2,1.3,0.8c0.1,0.6-0.2,1.2-0.8,1.3
						C429.9,292.2,429.3,291.8,429.1,291.2z"/>
				</g>
				<g>
					<path class="st10" d="M424.8,292.3c-0.1-0.6,0.2-1.2,0.8-1.3c0.6-0.1,1.2,0.2,1.3,0.8s-0.2,1.2-0.8,1.3
						C425.5,293.3,424.9,292.9,424.8,292.3z"/>
				</g>
				<g>
					<path class="st10" d="M420.5,293.3c-0.1-0.6,0.2-1.2,0.8-1.3s1.2,0.2,1.3,0.8s-0.2,1.2-0.8,1.3
						C421.2,294.3,420.6,293.9,420.5,293.3z"/>
				</g>
				<g>
					<path class="st10" d="M416.2,294.4c-0.1-0.6,0.2-1.2,0.8-1.3c0.6-0.1,1.2,0.2,1.3,0.8c0.1,0.6-0.2,1.2-0.8,1.3
						C416.9,295.3,416.3,295,416.2,294.4z"/>
				</g>
				<g>
					<path class="st10" d="M411.8,295.4c-0.1-0.6,0.2-1.2,0.8-1.3s1.2,0.2,1.3,0.8s-0.2,1.2-0.8,1.3
						C412.6,296.4,412,296,411.8,295.4z"/>
				</g>
				<g>
					<path class="st10" d="M407.5,296.5c-0.1-0.6,0.2-1.2,0.8-1.3c0.6-0.1,1.2,0.2,1.3,0.8c0.1,0.6-0.2,1.2-0.8,1.3
						C408.2,297.4,407.6,297.1,407.5,296.5z"/>
				</g>
				<g>
					<path class="st10" d="M403.2,297.5c-0.1-0.6,0.2-1.2,0.8-1.3c0.6-0.1,1.2,0.2,1.3,0.8c0.1,0.6-0.2,1.2-0.8,1.3
						C403.9,298.5,403.3,298.1,403.2,297.5z"/>
				</g>
				<g>
					<path class="st10" d="M398.9,298.6c-0.1-0.6,0.2-1.2,0.8-1.3c0.6-0.1,1.2,0.2,1.3,0.8c0.1,0.6-0.2,1.2-0.8,1.3
						C399.6,299.5,399,299.1,398.9,298.6z"/>
				</g>
				<g>
					<path class="st10" d="M394.5,299.6c-0.1-0.6,0.2-1.2,0.8-1.3s1.2,0.2,1.3,0.8s-0.2,1.2-0.8,1.3
						C395.2,300.5,394.7,300.2,394.5,299.6z"/>
				</g>
				<g>
					<path class="st10" d="M390.2,300.6c-0.1-0.6,0.2-1.2,0.8-1.3s1.2,0.2,1.3,0.8s-0.2,1.2-0.8,1.3
						C390.9,301.5,390.3,301.2,390.2,300.6z"/>
				</g>
				<g>
					<path class="st10" d="M385.9,301.6c-0.1-0.6,0.2-1.2,0.8-1.3c0.6-0.1,1.2,0.2,1.3,0.8s-0.2,1.2-0.8,1.3
						C386.6,302.5,386,302.2,385.9,301.6z"/>
				</g>
				<g>
					<path class="st10" d="M381.5,302.6c-0.1-0.6,0.2-1.2,0.8-1.3c0.6-0.1,1.2,0.2,1.3,0.8c0.1,0.6-0.2,1.2-0.8,1.3
						C382.2,303.6,381.7,303.2,381.5,302.6z"/>
				</g>
				<g>
					<path class="st10" d="M377.2,303.6c-0.1-0.6,0.2-1.2,0.8-1.3s1.2,0.2,1.3,0.8s-0.2,1.2-0.8,1.3S377.3,304.2,377.2,303.6z"/>
				</g>
				<g>
					<path class="st10" d="M372.9,304.6c-0.1-0.6,0.2-1.2,0.8-1.3c0.6-0.1,1.2,0.2,1.3,0.8s-0.2,1.2-0.8,1.3S373,305.2,372.9,304.6z
						"/>
				</g>
				<g>
					<path class="st10" d="M368.5,305.6c-0.1-0.6,0.2-1.2,0.8-1.3c0.6-0.1,1.2,0.2,1.3,0.8c0.1,0.6-0.2,1.2-0.8,1.3
						C369.2,306.6,368.7,306.2,368.5,305.6z"/>
				</g>
				<g>
					<path class="st10" d="M364.2,306.6c-0.1-0.6,0.2-1.2,0.8-1.3s1.2,0.2,1.3,0.8c0.1,0.6-0.2,1.2-0.8,1.3
						C364.9,307.6,364.3,307.2,364.2,306.6z"/>
				</g>
				<g>
					<path class="st10" d="M359.9,307.6c-0.1-0.6,0.2-1.2,0.8-1.3s1.2,0.2,1.3,0.8c0.1,0.6-0.2,1.2-0.8,1.3
						C360.6,308.6,360,308.2,359.9,307.6z"/>
				</g>
				<g>
					<path class="st10" d="M355.5,308.7c-0.1-0.6,0.2-1.2,0.8-1.3s1.2,0.2,1.3,0.8c0.1,0.6-0.2,1.2-0.8,1.3S355.6,309.2,355.5,308.7
						z"/>
				</g>
				<g>
					<path class="st10" d="M351.2,309.7c-0.1-0.6,0.2-1.2,0.8-1.3c0.6-0.1,1.2,0.2,1.3,0.8s-0.2,1.2-0.8,1.3
						S351.3,310.3,351.2,309.7z"/>
				</g>
				<g>
					<path class="st10" d="M346.8,310.7c-0.1-0.6,0.2-1.2,0.8-1.3s1.2,0.2,1.3,0.8c0.1,0.6-0.2,1.2-0.8,1.3S347,311.3,346.8,310.7z"
						/>
				</g>
				<g>
					<path class="st10" d="M342.5,311.7c-0.1-0.6,0.2-1.2,0.8-1.3c0.6-0.1,1.2,0.2,1.3,0.8c0.1,0.6-0.2,1.2-0.8,1.3
						C343.2,312.6,342.6,312.3,342.5,311.7z"/>
				</g>
				<g>
					<path class="st10" d="M338.2,312.7c-0.1-0.6,0.2-1.2,0.8-1.3c0.6-0.1,1.2,0.2,1.3,0.8c0.1,0.6-0.2,1.2-0.8,1.3
						C338.9,313.7,338.3,313.3,338.2,312.7z"/>
				</g>
				<g>
					<path class="st10" d="M333.8,313.7c-0.1-0.6,0.2-1.2,0.8-1.3c0.6-0.1,1.2,0.2,1.3,0.8s-0.2,1.2-0.8,1.3S334,314.3,333.8,313.7z
						"/>
				</g>
				<g>
					<path class="st10" d="M329.5,314.7c-0.1-0.6,0.2-1.2,0.8-1.3s1.2,0.2,1.3,0.8c0.1,0.6-0.2,1.2-0.8,1.3S329.6,315.3,329.5,314.7
						z"/>
				</g>
				<g>
					<path class="st10" d="M325.2,315.7c-0.1-0.6,0.2-1.2,0.8-1.3c0.6-0.1,1.2,0.2,1.3,0.8c0.1,0.6-0.2,1.2-0.8,1.3
						C325.9,316.7,325.3,316.3,325.2,315.7z"/>
				</g>
				<g>
					<path class="st10" d="M320.8,316.7c-0.1-0.6,0.2-1.2,0.8-1.3c0.6-0.1,1.2,0.2,1.3,0.8c0.1,0.6-0.2,1.2-0.8,1.3
						C321.6,317.7,321,317.3,320.8,316.7z"/>
				</g>
				<g>
					<path class="st10" d="M316.5,317.7c-0.1-0.6,0.2-1.2,0.8-1.3c0.6-0.1,1.2,0.2,1.3,0.8c0.1,0.6-0.2,1.2-0.8,1.3
						S316.6,318.3,316.5,317.7z"/>
				</g>
				<g>
					<path class="st10" d="M312.2,318.8c-0.1-0.6,0.2-1.2,0.8-1.3s1.2,0.2,1.3,0.8c0.1,0.6-0.2,1.2-0.8,1.3S312.3,319.3,312.2,318.8
						z"/>
				</g>
				<g>
					<path class="st10" d="M307.8,319.8c-0.1-0.6,0.2-1.2,0.8-1.3c0.6-0.1,1.2,0.2,1.3,0.8c0.1,0.6-0.2,1.2-0.8,1.3
						C308.6,320.7,308,320.4,307.8,319.8z"/>
				</g>
				<g>
					<path class="st10" d="M303.5,320.8c-0.1-0.6,0.2-1.2,0.8-1.3s1.2,0.2,1.3,0.8c0.1,0.6-0.2,1.2-0.8,1.3
						C304.2,321.7,303.6,321.4,303.5,320.8z"/>
				</g>
				<g>
					<path class="st10" d="M299.2,321.8c-0.1-0.6,0.2-1.2,0.8-1.3s1.2,0.2,1.3,0.8c0.1,0.6-0.2,1.2-0.8,1.3S299.3,322.4,299.2,321.8
						z"/>
				</g>
				<g>
					<path class="st10" d="M294.8,322.8c-0.1-0.6,0.2-1.2,0.8-1.3c0.6-0.1,1.2,0.2,1.3,0.8s-0.2,1.2-0.8,1.3
						C295.6,323.8,295,323.4,294.8,322.8z"/>
				</g>
				<g>
					<path class="st10" d="M290.5,323.8c-0.1-0.6,0.2-1.2,0.8-1.3s1.2,0.2,1.3,0.8c0.1,0.6-0.2,1.2-0.8,1.3
						C291.2,324.8,290.6,324.4,290.5,323.8z"/>
				</g>
				<g>
					<path class="st10" d="M286.2,324.8c-0.1-0.6,0.2-1.2,0.8-1.3s1.2,0.2,1.3,0.8c0.1,0.6-0.2,1.2-0.8,1.3S286.3,325.4,286.2,324.8
						z"/>
				</g>
				<g>
					<path class="st10" d="M281.8,325.8c-0.1-0.6,0.2-1.2,0.8-1.3s1.2,0.2,1.3,0.8s-0.2,1.2-0.8,1.3S282,326.4,281.8,325.8z"/>
				</g>
				<g>
					<path class="st10" d="M277.5,326.8c-0.1-0.6,0.2-1.2,0.8-1.3s1.2,0.2,1.3,0.8c0.1,0.6-0.2,1.2-0.8,1.3
						C278.2,327.8,277.6,327.4,277.5,326.8z"/>
				</g>
				<g>
					<path class="st10" d="M273.2,327.8c-0.1-0.6,0.2-1.2,0.8-1.3s1.2,0.2,1.3,0.8c0.1,0.6-0.2,1.2-0.8,1.3
						C273.9,328.8,273.3,328.4,273.2,327.8z"/>
				</g>
				<g>
					<path class="st10" d="M268.8,328.9c-0.1-0.6,0.2-1.2,0.8-1.3s1.2,0.2,1.3,0.8c0.1,0.6-0.2,1.2-0.8,1.3S269,329.4,268.8,328.9z"
						/>
				</g>
				<g>
					<line class="st12" x1="266.9" y1="335.3" x2="264.3" y2="324"/>
				</g>
			</g>
		</g>
	</g>
</g>
<g id="アイコン">
	<g>
		<g>
			<path class="st6" d="M2.8,425.1c-1.4,0-2.5-1.1-2.5-2.5V298c0-1.4,1.1-2.5,2.5-2.5h90c1.4,0,2.5,1.1,2.5,2.5v124.7
				c0,1.4-1.1,2.5-2.5,2.5H2.8z"/>
			<path class="st5" d="M92.8,295.8c1.2,0,2.1,1,2.1,2.1v124.7c0,1.2-1,2.1-2.1,2.1h-90c-1.2,0-2.1-1-2.1-2.1V298
				c0-1.2,1-2.1,2.1-2.1H92.8 M92.8,295.1h-90c-1.6,0-2.8,1.3-2.8,2.8v124.7c0,1.6,1.3,2.8,2.8,2.8h90c1.6,0,2.8-1.3,2.8-2.8V298
				C95.7,296.4,94.4,295.1,92.8,295.1L92.8,295.1z"/>
		</g>
		<g>
			<path class="st5" d="M41.5,316.7v2.6c0,1.3-0.6,1.7-1.3,2h-3.3c-0.7-0.3-1.3-0.7-1.3-2v-2h1.8v2.1l0.4,0.4h1.6l0.4-0.4v-2.8
				l-0.3-0.4l-2.6-0.8c-0.8-0.3-1.1-0.8-1.1-1.9v-2.2c0-1.3,0.6-1.7,1.3-2h3.3c0.7,0.3,1.3,0.7,1.3,2v1.9h-1.8v-2.1l-0.4-0.4h-1.6
				l-0.4,0.4v2.4l0.4,0.4l2.6,0.7C41.1,315,41.5,315.5,41.5,316.7z"/>
			<path class="st5" d="M42.8,309.3h5.1v1.6h-3.3v3.4h3.1v1.6h-3.1v3.7H48v1.6h-5.2V309.3z"/>
			<path class="st5" d="M55.2,319.3c0,1.3-0.6,1.7-1.3,2h-3.3c-0.7-0.3-1.3-0.7-1.3-2v-8c0-1.3,0.6-1.7,1.3-2h3.3
				c0.7,0.3,1.3,0.7,1.3,2v2.7h-1.8v-2.8l-0.4-0.4h-1.6l-0.4,0.4v8.3l0.4,0.4H53l0.4-0.4v-2.7h1.8V319.3z"/>
			<path class="st5" d="M59.9,310.9v10.3h-1.8v-10.3H56v-1.6h6.1v1.6H59.9z"/>
			<path class="st5" d="M68.8,319.3c0,1.3-0.6,1.7-1.3,2h-3.3c-0.7-0.3-1.3-0.7-1.3-2v-8c0-1.3,0.6-1.7,1.3-2h3.3
				c0.7,0.3,1.3,0.7,1.3,2V319.3z M67,311.1l-0.4-0.4H65l-0.4,0.4v8.3l0.4,0.4h1.6l0.4-0.4V311.1z"/>
			<path class="st5" d="M70.2,321.3v-12h4.6c0.7,0.3,1.3,0.7,1.3,2v2.6c0,1.3-0.6,1.6-1.3,1.9l-0.3,0.1l2.1,4.3v1.1h-1.6l-2.2-5.1
				H72v5.1H70.2z M72,310.8v3.9h2l0.4-0.4v-3.1l-0.4-0.4H72z"/>
			<path class="st5" d="M80.3,321.3v-1.6h1.8v-8.7h-1.7v-1.6h3.5v10.4h1.7v1.6H80.3z"/>
		</g>
		<line class="st13" x1="10.2" y1="315.4" x2="31.4" y2="315.4"/>
		<g>
			<path class="st5" d="M41.5,346.7v2.6c0,1.3-0.6,1.7-1.3,2h-3.3c-0.7-0.3-1.3-0.7-1.3-2v-2h1.8v2.1l0.4,0.4h1.6l0.4-0.4v-2.8
				l-0.3-0.4l-2.6-0.8c-0.8-0.3-1.1-0.8-1.1-1.9v-2.2c0-1.3,0.6-1.7,1.3-2h3.3c0.7,0.3,1.3,0.7,1.3,2v1.9h-1.8v-2.1l-0.4-0.4h-1.6
				l-0.4,0.4v2.4l0.4,0.4l2.6,0.7C41.1,345,41.5,345.5,41.5,346.7z"/>
			<path class="st5" d="M42.8,339.3h5.1v1.6h-3.3v3.4h3.1v1.6h-3.1v3.7H48v1.6h-5.2V339.3z"/>
			<path class="st5" d="M55.2,349.3c0,1.3-0.6,1.7-1.3,2h-3.3c-0.7-0.3-1.3-0.7-1.3-2v-8c0-1.3,0.6-1.7,1.3-2h3.3
				c0.7,0.3,1.3,0.7,1.3,2v2.7h-1.8v-2.8l-0.4-0.4h-1.6l-0.4,0.4v8.3l0.4,0.4H53l0.4-0.4v-2.7h1.8V349.3z"/>
			<path class="st5" d="M59.9,340.9v10.3h-1.8v-10.3H56v-1.6h6.1v1.6H59.9z"/>
			<path class="st5" d="M68.8,349.3c0,1.3-0.6,1.7-1.3,2h-3.3c-0.7-0.3-1.3-0.7-1.3-2v-8c0-1.3,0.6-1.7,1.3-2h3.3
				c0.7,0.3,1.3,0.7,1.3,2V349.3z M67,341.1l-0.4-0.4H65l-0.4,0.4v8.3l0.4,0.4h1.6l0.4-0.4V341.1z"/>
			<path class="st5" d="M70.2,351.3v-12h4.6c0.7,0.3,1.3,0.7,1.3,2v2.6c0,1.3-0.6,1.6-1.3,1.9l-0.3,0.1l2.1,4.3v1.1h-1.6l-2.2-5.1
				H72v5.1H70.2z M72,340.8v3.9h2l0.4-0.4v-3.1l-0.4-0.4H72z"/>
			<path class="st5" d="M79.9,351.3v-3.6c0-1.1,0.4-1.7,1.2-2.1l3-1.2v-3.2l-0.4-0.4H82l-0.4,0.4v2h-1.8v-1.9c0-1.3,0.6-1.7,1.3-2
				h3.3c0.7,0.3,1.3,0.7,1.3,2v2.5c0,1.1-0.3,1.7-1.1,2.1l-3,1.2v2.5h4.1v1.6H79.9z"/>
		</g>
		<line class="st14" x1="10.2" y1="345.4" x2="31.4" y2="345.4"/>
		<g>
			<path class="st5" d="M41.5,376.7v2.6c0,1.3-0.6,1.7-1.3,2h-3.3c-0.7-0.3-1.3-0.7-1.3-2v-2h1.8v2.1l0.4,0.4h1.6l0.4-0.4v-2.8
				l-0.3-0.4l-2.6-0.8c-0.8-0.3-1.1-0.8-1.1-1.9v-2.2c0-1.3,0.6-1.7,1.3-2h3.3c0.7,0.3,1.3,0.7,1.3,2v1.9h-1.8v-2.1l-0.4-0.4h-1.6
				l-0.4,0.4v2.4l0.4,0.4l2.6,0.7C41.1,375,41.5,375.5,41.5,376.7z"/>
			<path class="st5" d="M42.8,369.3h5.1v1.6h-3.3v3.4h3.1v1.6h-3.1v3.7H48v1.6h-5.2V369.3z"/>
			<path class="st5" d="M55.2,379.3c0,1.3-0.6,1.7-1.3,2h-3.3c-0.7-0.3-1.3-0.7-1.3-2v-8c0-1.3,0.6-1.7,1.3-2h3.3
				c0.7,0.3,1.3,0.7,1.3,2v2.7h-1.8v-2.8l-0.4-0.4h-1.6l-0.4,0.4v8.3l0.4,0.4H53l0.4-0.4v-2.7h1.8V379.3z"/>
			<path class="st5" d="M59.9,370.9v10.3h-1.8v-10.3H56v-1.6h6.1v1.6H59.9z"/>
			<path class="st5" d="M68.8,379.3c0,1.3-0.6,1.7-1.3,2h-3.3c-0.7-0.3-1.3-0.7-1.3-2v-8c0-1.3,0.6-1.7,1.3-2h3.3
				c0.7,0.3,1.3,0.7,1.3,2V379.3z M67,371.1l-0.4-0.4H65l-0.4,0.4v8.3l0.4,0.4h1.6l0.4-0.4V371.1z"/>
			<path class="st5" d="M70.2,381.3v-12h4.6c0.7,0.3,1.3,0.7,1.3,2v2.6c0,1.3-0.6,1.6-1.3,1.9l-0.3,0.1l2.1,4.3v1.1h-1.6l-2.2-5.1
				H72v5.1H70.2z M72,370.8v3.9h2l0.4-0.4v-3.1l-0.4-0.4H72z"/>
			<path class="st5" d="M81.2,381.3c-0.7-0.3-1.3-0.7-1.3-2v-1.7h1.8v1.8l0.4,0.4h1.7l0.4-0.4v-3.2l-0.4-0.3h-1.8v-1.4h1.8l0.4-0.4
				v-3l-0.4-0.4H82l-0.4,0.4v1.8h-1.8v-1.7c0-1.3,0.6-1.7,1.3-2h3.3c0.7,0.3,1.3,0.7,1.3,2v1.9c0,1-0.2,1.5-0.9,1.9
				c0.6,0.4,0.9,0.9,0.9,1.9v2.2c0,1.3-0.6,1.7-1.3,2H81.2z"/>
		</g>
		<line class="st15" x1="10.2" y1="375.4" x2="31.4" y2="375.4"/>
		<g>
			<path class="st5" d="M41.6,409.3c0,1.3-0.6,1.7-1.3,2h-4.6v-12h4.6c0.7,0.3,1.3,0.7,1.3,2V409.3z M37.5,400.8v9h2l0.4-0.4v-8.3
				l-0.4-0.4H37.5z"/>
			<path class="st5" d="M43,411.3v-12h4.6c0.7,0.3,1.3,0.7,1.3,2v2.6c0,1.3-0.6,1.6-1.3,1.9l-0.3,0.1l2.1,4.3v1.1h-1.6l-2.2-5.1
				h-0.8v5.1H43z M44.8,400.8v3.9h2l0.4-0.4v-3.1l-0.4-0.4H44.8z"/>
			<path class="st5" d="M56,406.7v2.6c0,1.3-0.6,1.7-1.3,2h-3.3c-0.7-0.3-1.3-0.7-1.3-2v-2h1.8v2.1l0.4,0.4h1.6l0.4-0.4v-2.8
				l-0.3-0.4l-2.6-0.8c-0.8-0.3-1.1-0.8-1.1-1.9v-2.2c0-1.3,0.6-1.7,1.3-2h3.3c0.7,0.3,1.3,0.7,1.3,2v1.9h-1.8v-2.1l-0.4-0.4h-1.6
				l-0.4,0.4v2.4l0.4,0.4l2.6,0.7C55.7,405,56,405.5,56,406.7z"/>
			<path class="st5" d="M63.6,400.9h-3.9v-1.6h5.8v1.5l-4,8.9h4v1.6h-5.9v-1.5L63.6,400.9z"/>
			<path class="st5" d="M72.7,409.3c0,1.3-0.6,1.7-1.3,2h-3.3c-0.7-0.3-1.3-0.7-1.3-2v-8c0-1.3,0.6-1.7,1.3-2h3.3
				c0.7,0.3,1.3,0.7,1.3,2V409.3z M70.9,401.1l-0.4-0.4H69l-0.4,0.4v8.3l0.4,0.4h1.6l0.4-0.4V401.1z"/>
			<path class="st5" d="M78.4,399.3H80v12h-1.6l-2.6-7.1h-0.2v7.1h-1.6v-12h1.6l2.6,7.1h0.2V399.3z"/>
			<path class="st5" d="M81.4,399.3h5.1v1.6h-3.3v3.4h3.1v1.6h-3.1v3.7h3.4v1.6h-5.2V399.3z"/>
		</g>
		<g>
			<g>
				<g>
					<g>
						<line class="st16" x1="11.7" y1="397.9" x2="11.7" y2="412.8"/>
					</g>
					<g>
						<ellipse class="st10" cx="17.8" cy="405.4" rx="1.5" ry="1.4"/>
					</g>
					<g>
						<ellipse class="st10" cx="23.8" cy="405.4" rx="1.5" ry="1.4"/>
					</g>
					<g>
						<line class="st16" x1="29.9" y1="397.9" x2="29.9" y2="412.8"/>
					</g>
				</g>
			</g>
		</g>
	</g>
	<g>
		
			<rect x="385.5" y="350.8" transform="matrix(-0.1891 -0.982 0.982 -0.1891 114.2853 798.7576)" class="st5" width="2.8" height="2.8"/>
		
			<rect x="384.5" y="345.2" transform="matrix(-0.1891 -0.982 0.982 -0.1891 118.4773 791.0854)" class="st5" width="2.8" height="2.8"/>
		
			<rect x="387.8" y="347.5" transform="matrix(-0.1891 -0.982 0.982 -0.1891 120.2174 797.0175)" class="st5" width="2.8" height="2.8"/>
		
			<rect x="386.7" y="341.9" transform="matrix(-0.1891 -0.982 0.982 -0.1891 124.4094 789.3453)" class="st5" width="2.8" height="2.8"/>
		
			<rect x="393.4" y="346.4" transform="matrix(-0.1891 -0.982 0.982 -0.1891 127.8896 801.2096)" class="st5" width="2.8" height="2.8"/>
		
			<rect x="392.3" y="340.8" transform="matrix(-0.1891 -0.982 0.982 -0.1891 132.0816 793.5374)" class="st5" width="2.8" height="2.8"/>
		
			<rect x="383.4" y="339.6" transform="matrix(-0.1891 -0.982 0.982 -0.1891 122.6694 783.4133)" class="st5" width="2.8" height="2.8"/>
		
			<rect x="383.9" y="342.4" transform="matrix(-0.1891 -0.982 0.982 -0.1891 120.5733 787.2493)" class="st6" width="2.8" height="2.8"/>
		
			<rect x="385" y="348" transform="matrix(-0.1891 -0.982 0.982 -0.1891 116.3813 794.9215)" class="st6" width="2.8" height="2.8"/>
		
			<rect x="388.3" y="350.2" transform="matrix(-0.1891 -0.982 0.982 -0.1891 118.1214 800.8536)" class="st6" width="2.8" height="2.8"/>
		
			<rect x="387.3" y="344.7" transform="matrix(-0.1891 -0.982 0.982 -0.1891 122.3134 793.1815)" class="st6" width="2.8" height="2.8"/>
		
			<rect x="386.2" y="339.1" transform="matrix(-0.1891 -0.982 0.982 -0.1891 126.5054 785.5093)" class="st6" width="2.8" height="2.8"/>
		
			<rect x="389.5" y="341.3" transform="matrix(-0.1891 -0.982 0.982 -0.1891 128.2455 791.4414)" class="st6" width="2.8" height="2.8"/>
		
			<rect x="390.6" y="346.9" transform="matrix(-0.1891 -0.982 0.982 -0.1891 124.0535 799.1136)" class="st6" width="2.8" height="2.8"/>
		
			<rect x="395.1" y="340.3" transform="matrix(-0.1891 -0.982 0.982 -0.1891 135.9177 795.6334)" class="st6" width="2.8" height="2.8"/>
		
			<rect x="396.1" y="345.8" transform="matrix(-0.1891 -0.982 0.982 -0.1891 131.7257 803.3056)" class="st6" width="2.8" height="2.8"/>
		
			<rect x="393.9" y="349.2" transform="matrix(-0.1891 -0.982 0.982 -0.1891 125.7935 805.0457)" class="st6" width="2.8" height="2.8"/>
		
			<rect x="392.8" y="343.6" transform="matrix(-0.1891 -0.982 0.982 -0.1891 129.9856 797.3735)" class="st6" width="2.8" height="2.8"/>
		
			<rect x="391.7" y="338" transform="matrix(-0.1891 -0.982 0.982 -0.1891 134.1776 789.7013)" class="st6" width="2.8" height="2.8"/>
		
			<rect x="391.1" y="349.7" transform="matrix(-0.1891 -0.982 0.982 -0.1891 121.9575 802.9496)" class="st5" width="2.8" height="2.8"/>
		
			<rect x="390" y="344.1" transform="matrix(-0.1891 -0.982 0.982 -0.1891 126.1495 795.2775)" class="st5" width="2.8" height="2.8"/>
		
			<rect x="395.6" y="343.1" transform="matrix(-0.1891 -0.982 0.982 -0.1891 133.8217 799.4695)" class="st5" width="2.8" height="2.8"/>
		
			<rect x="389" y="338.6" transform="matrix(-0.1891 -0.982 0.982 -0.1891 130.3415 787.6053)" class="st5" width="2.8" height="2.8"/>
		
			<rect x="396.7" y="348.6" transform="matrix(-0.1891 -0.982 0.982 -0.1891 129.6296 807.1417)" class="st5" width="2.8" height="2.8"/>
		
			<rect x="394.5" y="337.5" transform="matrix(-0.1891 -0.982 0.982 -0.1891 138.0137 791.7973)" class="st5" width="2.8" height="2.8"/>
	</g>
	<g>
		<defs>
			
				<rect id="SVGID_1_" x="333" y="350.1" transform="matrix(0.9808 -0.1948 0.1948 0.9808 -62.4368 73.8273)" width="22.3" height="8.5"/>
		</defs>
		<clipPath id="SVGID_00000062188218796842819190000000883263912811797376_">
			<use xlink:href="#SVGID_1_"  style="overflow:visible;"/>
		</clipPath>
		<g style="clip-path:url(#SVGID_00000062188218796842819190000000883263912811797376_);">
			<polygon class="st18" points="355.3,359.4 352.5,359.9 345.5,354.1 349.7,346 352.5,345.5 348.3,353.5 			"/>
			<polygon class="st19" points="349.7,360.5 346.9,361 340,355.2 344.2,347.1 346.9,346.6 342.8,354.6 			"/>
			<polygon class="st20" points="344.1,361.6 341.4,362.1 334.4,356.3 338.6,348.2 341.4,347.7 337.2,355.7 			"/>
		</g>
	</g>
</g>
</svg>
