<?xml version="1.0" encoding="utf-8"?>
<!-- Generator: Adobe Illustrator 26.5.0, SVG Export Plug-In . SVG Version: 6.00 Build 0)  -->
<svg version="1.1" xmlns="http://www.w3.org/2000/svg" xmlns:xlink="http://www.w3.org/1999/xlink" x="0px" y="0px"
	 viewBox="0 0 550 443.7" style="enable-background:new 0 0 550 443.7;" xml:space="preserve">
<style type="text/css">
	.st0{fill:none;stroke:#646464;stroke-width:14.1732;stroke-miterlimit:10;}
	.st1{fill:none;stroke:#F4442E;stroke-width:2.8346;stroke-miterlimit:10;}
	.st2{fill:none;stroke:#FFD449;stroke-width:2.8346;stroke-miterlimit:10;}
	.st3{fill:none;stroke:#54C6EB;stroke-width:2.8346;stroke-miterlimit:10;}
	.st4{fill:none;stroke:#FFFFFF;stroke-width:2.126;}
	.st5{fill:#646464;}
	.st6{fill:#FFFFFF;}
	.st7{fill:none;stroke:#646464;stroke-width:2.8346;stroke-miterlimit:10;}
	.st8{fill:#09BC8A;}
	.st9{fill:none;stroke:#09BC8A;stroke-width:2.2097;stroke-miterlimit:10;}
	.st10{fill:none;stroke:#09BC8A;stroke-width:1.9843;stroke-miterlimit:10;}
	.st11{fill:#FF3380;}
	.st12{fill:none;stroke:#FF3380;stroke-width:1.9843;stroke-miterlimit:10;}
	.st13{clip-path:url(#SVGID_00000102532847035887952980000012475410925576605334_);}
	.st14{fill:#F4442E;}
	.st15{fill:#54C6EB;}
	.st16{fill:#FFD449;}
	.st17{fill:none;stroke:#646464;stroke-width:0.7087;stroke-miterlimit:10;}
	.st18{fill:none;stroke:#F4442E;stroke-width:5.6693;stroke-miterlimit:10;}
	.st19{fill:none;stroke:#54C6EB;stroke-width:5.6693;stroke-miterlimit:10;}
	.st20{fill:none;stroke:#FFD449;stroke-width:5.6693;stroke-miterlimit:10;}
	.st21{fill:none;stroke:#09BC8A;stroke-width:2.8346;stroke-miterlimit:10;}
</style>
<g id="コース">
	<path class="st0" d="M155.8,217.6c0,0-104.8,60.2-109.1,62.4c-4.2,2.2-7-0.9-4.2-6.5c2.8-5.5,12.4-24.5,16.6-33s19.9-28.1,32.7-38
		c12.7-10,34-27.3,39.3-31.6c12-9.8,7.8-15.7,21-25.8c13.3-10.2,24.2-2,38.8-13.3c7.6-5.9,33.8-21,40.1-25.3
		c6.3-4.2,14.8-8.5,25.1-11.6c10.3-3.1,159.5-45,163-45.8c3.5-0.7,10.2-2.2,14.8,5.7c4.6,7.9,7.4,9.2,16.1,7.4s12.7-3.7,15.9-4.2
		c3.1-0.6,10-3.5,16.6,6.1c6.6,9.6,33.4,49.7,37.3,55.2c8.1,11.3-9.8,26.4-18.6,13.1c-6.4-9.6-12-19.2-14-22.7s-6.3-10.7-16.2-7.2
		c-10,3.5-34.1,11.6-47.6,14.2c-13.5,2.6-44.1,7.2-52.4,8.7s-15.3,8.9-16.6,16.6c-1.3,7.8-1.5,11.8-2,19.2
		c-0.6,7.4,6.6,25.3,18.6,30.1c12,4.8,60.5,24.7,68.3,27.7c7.8,3,17.2,13.4,9.8,25.5c-7.6,12.4-9.8,22,0.9,29
		c10.7,7,30.8,19.6,35.8,23.1s9.8,10.2,5.4,17s-12,17.4-16.4,22.7s-9.2,8.7-17.2,8.9c-7.9,0.2-29.2-8.7-36-13.1
		s-32.3-26.6-43.2-48.9c-7.2-14.7-20.3-46.9-39.9-57.6c-16.5-9-34.2-16.5-39.3-18.6c-6.5-2.8-15.5-4.1-24-0.7
		c-8.5,3.3-38.2,15-44.3,17c-6.1,2-16.4,3.9-29.9,5c-13.5,1.1-31.6,2.4-34.7,2.6c-3.1,0.2-4.1-2.4-3.5-6.3
		C163,220.3,163.4,212,155.8,217.6z"/>
</g>
<g id="セクター">
	<path class="st1" d="M125.4,235c-31.3,18-75.9,43.5-78.6,44.9c-4.2,2.2-7-0.9-4.2-6.5c2.8-5.5,12.4-24.5,16.6-33s19.9-28.1,32.7-38
		c12.7-10,34-27.3,39.3-31.6c12-9.8,7.8-15.7,21-25.8c13.3-10.2,24.2-2,38.8-13.3c7.6-5.9,33.8-21,40.1-25.3
		c6.3-4.2,14.8-8.5,25.1-11.6c9-2.7,124.4-35.2,155.4-43.7"/>
	<path class="st2" d="M482.4,325.6c-2.9,4-5.8,7.9-8,10.5c-4.4,5.4-9.2,8.7-17.2,8.9c-7.9,0.2-29.2-8.7-36-13.1
		s-32.3-26.6-43.2-48.9c-7.2-14.7-20.3-46.9-39.9-57.6c-16.5-9-34.2-16.5-39.3-18.6c-6.5-2.8-15.5-4.1-24-0.7
		c-8.5,3.3-38.2,15-44.3,17c-6.1,2-16.4,3.9-29.9,5c-13.5,1.1-31.6,2.4-34.7,2.6c-3.1,0.2-4.1-2.4-3.5-6.3c0.6-3.9,0.9-12.2-6.6-6.6
		c0,0-13.2,7.6-30.5,17.5"/>
	<path class="st3" d="M411.5,51.1c4.4-1.2,7.1-2,7.6-2c3.5-0.7,10.2-2.2,14.8,5.7c4.6,7.9,7.4,9.2,16.1,7.4s12.7-3.7,15.9-4.2
		c3.1-0.6,10-3.5,16.6,6.1c6.6,9.6,33.4,49.7,37.3,55.2c8.1,11.3-9.8,26.4-18.6,13.1c-6.4-9.6-12-19.2-14-22.7s-6.3-10.7-16.2-7.2
		c-10,3.5-34.1,11.6-47.6,14.2c-13.5,2.6-44.1,7.2-52.4,8.7s-15.3,8.9-16.6,16.6c-1.3,7.8-1.5,11.8-2,19.2
		c-0.6,7.4,6.6,25.3,18.6,30.1c12,4.8,60.5,24.7,68.3,27.7c7.8,3,17.2,13.4,9.8,25.5c-7.6,12.4-9.8,22,0.9,29
		c10.7,7,30.8,19.6,35.8,23.1s9.8,10.2,5.4,17c-2.3,3.5-5.4,8-8.4,12.2"/>
</g>
<g id="コーナー番号">
	<g>
		<g>
			<circle class="st4" cx="25.7" cy="293.7" r="8.5"/>
			<circle class="st5" cx="25.7" cy="293.7" r="8.5"/>
		</g>
		<g>
			<path class="st6" d="M24,297.6V296h1v-4.5h-0.9v-1.6h2.6v6.1h0.9v1.6H24z"/>
		</g>
	</g>
	<g>
		<g>
			<circle class="st4" cx="151.2" cy="179.2" r="8.5"/>
			<circle class="st5" cx="151.2" cy="179.2" r="8.5"/>
		</g>
		<g>
			<path class="st6" d="M149.1,183v-2.6c0-0.6,0.1-1,0.6-1.2l1.9-0.8v-1.6l-0.1-0.1h-0.5l-0.1,0.1v1.1h-1.7v-1.3
				c0-0.8,0.4-1.1,0.8-1.3h2.5c0.5,0.2,0.8,0.5,0.8,1.3v1.9c0,0.6-0.1,0.9-0.6,1.2l-1.9,0.8v0.9h2.4v1.6H149.1z"/>
		</g>
	</g>
	<g>
		<g>
			<circle class="st4" cx="139.3" cy="129.1" r="8.5"/>
			<circle class="st5" cx="139.3" cy="129.1" r="8.5"/>
		</g>
		<g>
			<path class="st6" d="M138.1,133c-0.5-0.2-0.8-0.5-0.8-1.3v-1h1.7v0.8l0.1,0.1h0.5l0.1-0.1v-1.6l-0.1-0.1h-1v-1.3h1l0.1-0.1v-1.5
				l-0.1-0.1h-0.5l-0.1,0.1v0.8h-1.7v-1c0-0.8,0.4-1.1,0.8-1.3h2.5c0.5,0.2,0.8,0.5,0.8,1.3v1.3c0,0.6-0.2,0.9-0.6,1.2
				c0.4,0.3,0.6,0.6,0.6,1.2v1.4c0,0.8-0.4,1.1-0.8,1.3H138.1z"/>
		</g>
	</g>
	<g>
		<g>
			<circle class="st4" cx="192.5" cy="153.3" r="8.5"/>
			<circle class="st5" cx="192.5" cy="153.3" r="8.5"/>
		</g>
		<g>
			<path class="st6" d="M194.1,155.7v1.5h-1.7v-1.5h-2.2v-1.5l1.6-4.7h1.7l-1.6,4.6h0.5v-0.4l0.4-1h1.3v1.4h0.5v1.6H194.1z"/>
		</g>
	</g>
	<g>
		<g>
			<circle class="st4" cx="432.3" cy="30.6" r="8.5"/>
			<circle class="st5" cx="432.3" cy="30.6" r="8.5"/>
		</g>
		<g>
			<path class="st6" d="M431.1,34.4c-0.5-0.2-0.8-0.5-0.8-1.3v-1h1.6V33l0.1,0.1h0.6l0.1-0.1v-2.1l-0.1-0.1H432l-0.1,0.1v0.4h-1.6
				v-4.5h4v1.5h-2.4v1.6l0.4-0.4h1.3c0.5,0.2,0.8,0.5,0.8,1.3v2.4c0,0.8-0.4,1.1-0.8,1.3H431.1z"/>
		</g>
	</g>
	<g>
		<g>
			<circle class="st4" cx="435.4" cy="81.3" r="8.5"/>
			<circle class="st5" cx="435.4" cy="81.3" r="8.5"/>
		</g>
		<g>
			<path class="st6" d="M436.7,85.2h-2.5c-0.5-0.2-0.8-0.5-0.8-1.3v-5.1c0-0.8,0.4-1.1,0.8-1.3h2.5c0.5,0.2,0.8,0.5,0.8,1.3v1h-1.7
				V79l-0.1-0.1h-0.5l-0.1,0.1v1.8l0.3-0.3h1.3c0.5,0.2,0.8,0.5,0.8,1.3v2.2C437.5,84.7,437.1,85,436.7,85.2z M435.7,83.8l0.1-0.1
				v-1.8l-0.1-0.1h-0.5l-0.1,0.1v1.8l0.1,0.1H435.7z"/>
		</g>
	</g>
	<g>
		<g>
			<circle class="st4" cx="482.6" cy="40.3" r="8.5"/>
			<circle class="st5" cx="482.6" cy="40.3" r="8.5"/>
		</g>
		<g>
			<path class="st6" d="M480.7,44.1l2.1-6.2h-2.4v-1.5h4.1v1.2l-2.1,6.5H480.7z"/>
		</g>
	</g>
	<g>
		<g>
			<circle class="st4" cx="524.2" cy="153.6" r="8.5"/>
			<circle class="st5" cx="524.2" cy="153.6" r="8.5"/>
		</g>
		<g>
			<path class="st6" d="M523,157.4c-0.5-0.2-0.8-0.5-0.8-1.3v-1.4c0-0.6,0.2-0.9,0.6-1.2c-0.4-0.3-0.6-0.6-0.6-1.2v-1.3
				c0-0.8,0.4-1.1,0.8-1.3h2.5c0.5,0.2,0.8,0.5,0.8,1.3v1.3c0,0.6-0.2,0.9-0.6,1.2c0.4,0.3,0.6,0.6,0.6,1.2v1.4
				c0,0.8-0.4,1.1-0.8,1.3H523z M523.8,152.8l0.1,0.1h0.5l0.1-0.1v-1.5l-0.1-0.1h-0.5l-0.1,0.1V152.8z M524.6,155.9v-1.6l-0.1-0.1
				h-0.5l-0.1,0.1v1.6l0.1,0.1h0.5L524.6,155.9z"/>
		</g>
	</g>
	<g>
		<g>
			<circle class="st4" cx="469.2" cy="83.3" r="8.5"/>
			<circle class="st5" cx="469.2" cy="83.3" r="8.5"/>
		</g>
		<g>
			<path class="st6" d="M468,87.1c-0.5-0.2-0.8-0.5-0.8-1.3v-1h1.7v0.8l0.1,0.1h0.5l0.1-0.1v-1.8l-0.3,0.3H468
				c-0.5-0.2-0.8-0.5-0.8-1.3v-2.2c0-0.8,0.4-1.1,0.8-1.3h2.5c0.5,0.2,0.8,0.5,0.8,1.3v5.1c0,0.8-0.4,1.1-0.8,1.3H468z M469.6,82.8
				V81l-0.1-0.1h-0.5l-0.1,0.1v1.8l0.1,0.1h0.5L469.6,82.8z"/>
		</g>
	</g>
	<g>
		<g>
			<circle class="st4" cx="342.4" cy="119.3" r="8.5"/>
			<circle class="st5" cx="342.4" cy="119.3" r="8.5"/>
		</g>
		<g>
			<path class="st6" d="M338.3,123.2v-1.6h1v-4.5h-0.9v-1.6h2.6v6.1h0.9v1.6H338.3z"/>
			<path class="st6" d="M345.9,123.2h-2.5c-0.5-0.2-0.8-0.5-0.8-1.3v-5.1c0-0.8,0.4-1.1,0.8-1.3h2.5c0.5,0.2,0.8,0.5,0.8,1.3v5.1
				C346.8,122.7,346.4,123,345.9,123.2z M345.1,117l-0.1-0.1h-0.5l-0.1,0.1v4.7l0.1,0.1h0.5l0.1-0.1V117z"/>
		</g>
	</g>
	<g>
		<g>
			<circle class="st4" cx="342.2" cy="189.4" r="8.5"/>
			<circle class="st5" cx="342.2" cy="189.4" r="8.5"/>
		</g>
		<g>
			<path class="st6" d="M338.1,193.3v-1.6h1v-4.5h-0.9v-1.6h2.6v6.1h0.9v1.6H338.1z"/>
			<path class="st6" d="M342.8,193.3v-1.6h1v-4.5h-0.9v-1.6h2.6v6.1h0.9v1.6H342.8z"/>
		</g>
	</g>
	<g>
		<g>
			<circle class="st4" cx="467.7" cy="220.5" r="8.5"/>
			<circle class="st5" cx="467.7" cy="220.5" r="8.5"/>
		</g>
		<g>
			<path class="st6" d="M463.7,224.4v-1.6h1v-4.5h-0.9v-1.6h2.6v6.1h0.9v1.6H463.7z"/>
			<path class="st6" d="M468,224.4v-2.6c0-0.6,0.1-1,0.6-1.2l1.9-0.8v-1.6l-0.1-0.1h-0.5l-0.1,0.1v1.1H468V218
				c0-0.8,0.4-1.1,0.8-1.3h2.5c0.5,0.2,0.8,0.5,0.8,1.3v1.9c0,0.6-0.1,0.9-0.6,1.2l-1.9,0.8v0.9h2.4v1.6H468z"/>
		</g>
	</g>
	<g>
		<g>
			<circle class="st4" cx="424.5" cy="268.7" r="8.5"/>
			<circle class="st5" cx="424.5" cy="268.7" r="8.5"/>
		</g>
		<g>
			<path class="st6" d="M420.5,272.6V271h1v-4.5h-0.9v-1.6h2.6v6.1h0.9v1.6H420.5z"/>
			<path class="st6" d="M425.6,272.6c-0.5-0.2-0.8-0.5-0.8-1.3v-1h1.7v0.8l0.1,0.1h0.5l0.1-0.1v-1.6l-0.1-0.1h-1v-1.3h1l0.1-0.1
				v-1.5l-0.1-0.1h-0.5l-0.1,0.1v0.8h-1.7v-1c0-0.8,0.4-1.1,0.8-1.3h2.5c0.5,0.2,0.8,0.5,0.8,1.3v1.3c0,0.6-0.2,0.9-0.6,1.2
				c0.4,0.3,0.6,0.6,0.6,1.2v1.4c0,0.8-0.4,1.1-0.8,1.3H425.6z"/>
		</g>
	</g>
	<g>
		<g>
			<circle class="st4" cx="511.9" cy="302.8" r="8.5"/>
			<circle class="st5" cx="511.9" cy="302.8" r="8.5"/>
		</g>
		<g>
			<path class="st6" d="M507.8,306.6V305h1v-4.5h-0.9V299h2.6v6.1h0.9v1.6H507.8z"/>
			<path class="st6" d="M515.9,305.1v1.5h-1.7v-1.5h-2.2v-1.5l1.6-4.7h1.7l-1.6,4.6h0.5v-0.4l0.4-1h1.3v1.4h0.5v1.6H515.9z"/>
		</g>
	</g>
	<g>
		<g>
			<circle class="st4" cx="462" cy="364.4" r="8.5"/>
			<circle class="st5" cx="462" cy="364.4" r="8.5"/>
		</g>
		<g>
			<path class="st6" d="M457.9,368.3v-1.6h1v-4.5H458v-1.6h2.6v6.1h0.9v1.6H457.9z"/>
			<path class="st6" d="M463,368.3c-0.5-0.2-0.8-0.5-0.8-1.3v-1h1.6v0.8l0.1,0.1h0.6l0.1-0.1v-2.1l-0.1-0.1h-0.6l-0.1,0.1v0.4h-1.6
				v-4.5h4v1.5h-2.4v1.6l0.4-0.4h1.3c0.5,0.2,0.8,0.5,0.8,1.3v2.4c0,0.8-0.4,1.1-0.8,1.3H463z"/>
		</g>
	</g>
	<g>
		<g>
			<circle class="st4" cx="365" cy="222.5" r="8.5"/>
			<circle class="st5" cx="365" cy="222.5" r="8.5"/>
		</g>
		<g>
			<path class="st6" d="M360.9,226.3v-1.6h1v-4.5h-0.9v-1.6h2.6v6.1h0.9v1.6H360.9z"/>
			<path class="st6" d="M368.6,226.3h-2.5c-0.5-0.2-0.8-0.5-0.8-1.3V220c0-0.8,0.4-1.1,0.8-1.3h2.5c0.5,0.2,0.8,0.5,0.8,1.3v1h-1.7
				v-0.8l-0.1-0.1h-0.5l-0.1,0.1v1.8l0.3-0.3h1.3c0.5,0.2,0.8,0.5,0.8,1.3v2.2C369.4,225.9,369,226.2,368.6,226.3z M367.6,225
				l0.1-0.1V223l-0.1-0.1h-0.5L367,223v1.8l0.1,0.1H367.6z"/>
		</g>
	</g>
	<g>
		<g>
			<circle class="st4" cx="284.9" cy="183.9" r="8.5"/>
			<circle class="st5" cx="284.9" cy="183.9" r="8.5"/>
		</g>
		<g>
			<path class="st6" d="M280.8,187.8v-1.6h1v-4.5h-0.9v-1.6h2.6v6.1h0.9v1.6H280.8z"/>
			<path class="st6" d="M285.4,187.8l2.1-6.2h-2.4v-1.5h4.1v1.2l-2.1,6.5H285.4z"/>
		</g>
	</g>
	<g>
		<g>
			<circle class="st4" cx="161.1" cy="254.1" r="8.5"/>
			<circle class="st5" cx="161.1" cy="254.1" r="8.5"/>
		</g>
		<g>
			<path class="st6" d="M157.1,258v-1.6h1V252h-0.9v-1.6h2.6v6.1h0.9v1.6H157.1z"/>
			<path class="st6" d="M162.2,258c-0.5-0.2-0.8-0.5-0.8-1.3v-1.4c0-0.6,0.2-0.9,0.6-1.2c-0.4-0.3-0.6-0.6-0.6-1.2v-1.3
				c0-0.8,0.4-1.1,0.8-1.3h2.5c0.5,0.2,0.8,0.5,0.8,1.3v1.3c0,0.6-0.2,0.9-0.6,1.2c0.4,0.3,0.6,0.6,0.6,1.2v1.4
				c0,0.8-0.4,1.1-0.8,1.3H162.2z M163.1,253.4l0.1,0.1h0.5l0.1-0.1v-1.5l-0.1-0.1h-0.5l-0.1,0.1V253.4z M163.8,256.5v-1.6l-0.1-0.1
				h-0.5l-0.1,0.1v1.6l0.1,0.1h0.5L163.8,256.5z"/>
		</g>
	</g>
	<g>
		<g>
			<circle class="st4" cx="168.3" cy="197.2" r="8.5"/>
			<circle class="st5" cx="168.3" cy="197.2" r="8.5"/>
		</g>
		<g>
			<path class="st6" d="M164.2,201.1v-1.6h1V195h-0.9v-1.6h2.6v6.1h0.9v1.6H164.2z"/>
			<path class="st6" d="M169.3,201.1c-0.5-0.2-0.8-0.5-0.8-1.3v-1h1.7v0.8l0.1,0.1h0.5l0.1-0.1v-1.8l-0.3,0.3h-1.3
				c-0.5-0.2-0.8-0.5-0.8-1.3v-2.2c0-0.8,0.4-1.1,0.8-1.3h2.5c0.5,0.2,0.8,0.5,0.8,1.3v5.1c0,0.8-0.4,1.1-0.8,1.3H169.3z M171,196.8
				v-1.8l-0.1-0.1h-0.5l-0.1,0.1v1.8l0.1,0.1h0.5L171,196.8z"/>
		</g>
	</g>
</g>
<g id="DRS">
	<g>
		<circle class="st7" cx="96" cy="199.2" r="4.7"/>
		<circle class="st8" cx="96" cy="199.2" r="4.7"/>
	</g>
	<g>
		<circle class="st7" cx="177.4" cy="229.6" r="4.7"/>
		<circle class="st8" cx="177.4" cy="229.6" r="4.7"/>
	</g>
	<g>
		<g>
			<path class="st8" d="M284.8,295.7c0,0.8-0.6,1.4-1.4,1.4h-67.6c-0.8,0-1.4-0.6-1.4-1.4v-48.8c0-0.8,0.6-1.4,1.4-1.4h67.6
				c0.8,0,1.4,0.6,1.4,1.4V295.7z"/>
		</g>
		<g>
			<path class="st6" d="M245.6,261.1c0,1.3-0.6,1.7-1.3,2h-5.2v-12h5.2c0.7,0.3,1.3,0.7,1.3,2V261.1z M241.8,253.2v7.7h1l0.2-0.2
				v-7.3l-0.2-0.2H241.8z"/>
			<path class="st6" d="M246.5,263.1v-12h5.2c0.7,0.3,1.3,0.7,1.3,2v2.5c0,1.1-0.5,1.6-1.1,1.9l1.4,3.8v1.7h-2.3l-1.5-4.7h-0.3v4.7
				H246.5z M249.1,253.2v3h1l0.2-0.2v-2.7l-0.2-0.2H249.1z"/>
			<path class="st6" d="M260.2,258.3v2.7c0,1.3-0.6,1.7-1.3,2H255c-0.7-0.3-1.3-0.7-1.3-2v-2.4h2.7v2l0.2,0.2h0.8l0.2-0.2v-1.8
				l-0.1-0.2l-2.7-1.2c-0.8-0.4-0.9-0.9-0.9-1.8v-2.5c0-1.3,0.6-1.7,1.3-2h3.9c0.7,0.3,1.3,0.7,1.3,2v2.2h-2.7v-1.9l-0.2-0.2h-0.8
				l-0.2,0.2v1.7l0.2,0.3l2.7,1.1C260,256.8,260.2,257.4,260.2,258.3z"/>
			<path class="st6" d="M226.6,275.2c0,1.3-0.6,1.7-1.3,2h-5.2v-12h5.2c0.7,0.3,1.3,0.7,1.3,2V275.2z M222.7,267.4v7.7h1l0.2-0.2
				v-7.3l-0.2-0.2H222.7z"/>
			<path class="st6" d="M227.4,265.3h5.5v2.5h-2.8v2.2h2.7v2.5h-2.7v2.3h2.9v2.5h-5.6V265.3z"/>
			<path class="st6" d="M238.1,267.7v9.5h-2.7v-9.5h-1.9v-2.5h6.5v2.5H238.1z"/>
			<path class="st6" d="M240.5,265.3h5.5v2.5h-2.8v2.2h2.7v2.5h-2.7v2.3h2.9v2.5h-5.6V265.3z"/>
			<path class="st6" d="M253.4,275.2c0,1.3-0.6,1.7-1.3,2h-3.9c-0.7-0.3-1.3-0.7-1.3-2v-8c0-1.3,0.6-1.7,1.3-2h3.9
				c0.7,0.3,1.3,0.7,1.3,2v2.9h-2.7v-2.6l-0.2-0.2h-0.8l-0.2,0.2v7.3l0.2,0.2h0.8l0.2-0.2v-2.5h2.7V275.2z"/>
			<path class="st6" d="M258.4,267.7v9.5h-2.7v-9.5h-1.9v-2.5h6.5v2.5H258.4z"/>
			<path class="st6" d="M260.8,277.2v-2.5h0.5v-7h-0.5v-2.5h3.7v2.5H264v7h0.5v2.5H260.8z"/>
			<path class="st6" d="M271.8,275.2c0,1.3-0.6,1.7-1.3,2h-3.9c-0.7-0.3-1.3-0.7-1.3-2v-8c0-1.3,0.6-1.7,1.3-2h3.9
				c0.7,0.3,1.3,0.7,1.3,2V275.2z M269.2,267.6l-0.2-0.2h-0.8l-0.2,0.2v7.3l0.2,0.2h0.8l0.2-0.2V267.6z"/>
			<path class="st6" d="M276.8,265.3h2.3v12h-2.3l-1.7-5.2H275v5.2h-2.3v-12h2.3l1.7,5.2h0.2V265.3z"/>
			<path class="st6" d="M234.4,281.9h-3.5v-2.5h6.5v2.2l-3.5,7.3h3.5v2.5h-6.5v-2.2L234.4,281.9z"/>
			<path class="st6" d="M244.7,289.4c0,1.3-0.6,1.7-1.3,2h-3.9c-0.7-0.3-1.3-0.7-1.3-2v-8c0-1.3,0.6-1.7,1.3-2h3.9
				c0.7,0.3,1.3,0.7,1.3,2V289.4z M242.1,281.8l-0.2-0.2h-0.8l-0.2,0.2v7.3l0.2,0.2h0.8l0.2-0.2V281.8z"/>
			<path class="st6" d="M249.7,279.4h2.3v12h-2.3l-1.7-5.2h-0.2v5.2h-2.3v-12h2.3l1.7,5.2h0.2V279.4z"/>
			<path class="st6" d="M252.9,279.4h5.5v2.5h-2.8v2.2h2.7v2.5h-2.7v2.3h2.9v2.5h-5.6V279.4z"/>
			<path class="st6" d="M261.8,291.4v-4c0-0.9,0.2-1.5,0.9-1.8l2.9-1.3v-2.5l-0.2-0.2h-0.8l-0.2,0.2v1.7h-2.7v-2.1
				c0-1.3,0.6-1.7,1.3-2h3.9c0.7,0.3,1.3,0.7,1.3,2v3c0,0.9-0.1,1.5-0.9,1.8l-2.9,1.3v1.3h3.8v2.5H261.8z"/>
		</g>
	</g>
	<g>
		<g>
			<path class="st8" d="M131.5,108.2c0,0.8-0.6,1.4-1.4,1.4H62.5c-0.8,0-1.4-0.6-1.4-1.4V59.4c0-0.8,0.6-1.4,1.4-1.4h67.6
				c0.8,0,1.4,0.6,1.4,1.4V108.2z"/>
		</g>
		<g>
			<path class="st6" d="M92.3,73.6c0,1.3-0.6,1.7-1.3,2h-5.2v-12H91c0.7,0.3,1.3,0.7,1.3,2V73.6z M88.5,65.8v7.7h1l0.2-0.2V66
				l-0.2-0.2H88.5z"/>
			<path class="st6" d="M93.2,75.6v-12h5.2c0.7,0.3,1.3,0.7,1.3,2v2.5c0,1.1-0.5,1.6-1.1,1.9L100,74v1.7h-2.3L96.1,71h-0.3v4.7H93.2
				z M95.8,65.8v3h1l0.2-0.2V66l-0.2-0.2H95.8z"/>
			<path class="st6" d="M106.9,70.9v2.7c0,1.3-0.6,1.7-1.3,2h-3.9c-0.7-0.3-1.3-0.7-1.3-2v-2.4h2.7v2l0.2,0.2h0.8l0.2-0.2v-1.8
				l-0.1-0.2l-2.7-1.2c-0.8-0.4-0.9-0.9-0.9-1.8v-2.5c0-1.3,0.6-1.7,1.3-2h3.9c0.7,0.3,1.3,0.7,1.3,2v2.2h-2.7V66l-0.2-0.2h-0.8
				L103,66v1.7l0.2,0.3l2.7,1.1C106.7,69.4,106.9,70,106.9,70.9z"/>
			<path class="st6" d="M73.3,87.8c0,1.3-0.6,1.7-1.3,2h-5.2v-12H72c0.7,0.3,1.3,0.7,1.3,2V87.8z M69.4,80v7.7h1l0.2-0.2v-7.3
				L70.4,80H69.4z"/>
			<path class="st6" d="M74.1,77.8h5.5v2.5h-2.8v2.2h2.7V85h-2.7v2.3h2.9v2.5h-5.6V77.8z"/>
			<path class="st6" d="M84.7,80.3v9.5h-2.7v-9.5h-1.9v-2.5h6.5v2.5H84.7z"/>
			<path class="st6" d="M87.2,77.8h5.5v2.5h-2.8v2.2h2.7V85h-2.7v2.3h2.9v2.5h-5.6V77.8z"/>
			<path class="st6" d="M100,87.8c0,1.3-0.6,1.7-1.3,2h-3.9c-0.7-0.3-1.3-0.7-1.3-2v-8c0-1.3,0.6-1.7,1.3-2h3.9
				c0.7,0.3,1.3,0.7,1.3,2v2.9h-2.7v-2.6L97.2,80h-0.8l-0.2,0.2v7.3l0.2,0.2h0.8l0.2-0.2V85h2.7V87.8z"/>
			<path class="st6" d="M105.1,80.3v9.5h-2.7v-9.5h-1.9v-2.5h6.5v2.5H105.1z"/>
			<path class="st6" d="M107.5,89.8v-2.5h0.5v-7h-0.5v-2.5h3.7v2.5h-0.5v7h0.5v2.5H107.5z"/>
			<path class="st6" d="M118.5,87.8c0,1.3-0.6,1.7-1.3,2h-3.9c-0.7-0.3-1.3-0.7-1.3-2v-8c0-1.3,0.6-1.7,1.3-2h3.9
				c0.7,0.3,1.3,0.7,1.3,2V87.8z M115.9,80.2l-0.2-0.2h-0.8l-0.2,0.2v7.3l0.2,0.2h0.8l0.2-0.2V80.2z"/>
			<path class="st6" d="M123.5,77.8h2.3v12h-2.3l-1.7-5.2h-0.2v5.2h-2.3v-12h2.3l1.7,5.2h0.2V77.8z"/>
			<path class="st6" d="M81.1,94.5h-3.5V92h6.5v2.2l-3.5,7.3h3.5v2.5h-6.5v-2.2L81.1,94.5z"/>
			<path class="st6" d="M91.4,102c0,1.3-0.6,1.7-1.3,2h-3.9c-0.7-0.3-1.3-0.7-1.3-2v-8c0-1.3,0.6-1.7,1.3-2h3.9
				c0.7,0.3,1.3,0.7,1.3,2V102z M88.8,94.3l-0.2-0.2h-0.8l-0.2,0.2v7.3l0.2,0.2h0.8l0.2-0.2V94.3z"/>
			<path class="st6" d="M96.4,92h2.3v12h-2.3l-1.7-5.2h-0.2v5.2h-2.3V92h2.3l1.7,5.2h0.2V92z"/>
			<path class="st6" d="M99.6,92h5.5v2.5h-2.8v2.2h2.7v2.5h-2.7v2.3h2.9v2.5h-5.6V92z"/>
			<path class="st6" d="M109.1,104v-2.5h1.5v-7h-1.3V92h4v9.5h1.3v2.5H109.1z"/>
		</g>
	</g>
	<g>
		<g>
			<g>
				<g>
					<line class="st9" x1="158.4" y1="240.7" x2="152.7" y2="230.6"/>
				</g>
				<g>
					<path class="st8" d="M150.8,238.4c-0.3-0.5-0.1-1.2,0.4-1.5c0.5-0.3,1.2-0.1,1.5,0.4c0.3,0.5,0.1,1.2-0.4,1.5
						S151.1,238.9,150.8,238.4z"/>
				</g>
				<g>
					<path class="st8" d="M147,240.5c-0.3-0.5-0.1-1.2,0.4-1.5s1.2-0.1,1.5,0.4s0.1,1.2-0.4,1.5C148,241.3,147.3,241.1,147,240.5z"
						/>
				</g>
				<g>
					<path class="st8" d="M143.2,242.7c-0.3-0.5-0.1-1.2,0.4-1.5c0.5-0.3,1.2-0.1,1.5,0.4c0.3,0.5,0.1,1.2-0.4,1.5
						C144.2,243.4,143.5,243.2,143.2,242.7z"/>
				</g>
				<g>
					<path class="st8" d="M139.4,244.9c-0.3-0.5-0.1-1.2,0.4-1.5s1.2-0.1,1.5,0.4c0.3,0.5,0.1,1.2-0.4,1.5S139.7,245.4,139.4,244.9z
						"/>
				</g>
				<g>
					<path class="st8" d="M135.6,247.1c-0.3-0.5-0.1-1.2,0.4-1.5c0.5-0.3,1.2-0.1,1.5,0.4s0.1,1.2-0.4,1.5
						C136.6,247.8,135.9,247.6,135.6,247.1z"/>
				</g>
				<g>
					<path class="st8" d="M131.8,249.3c-0.3-0.5-0.1-1.2,0.4-1.5c0.5-0.3,1.2-0.1,1.5,0.4c0.3,0.5,0.1,1.2-0.4,1.5
						S132.1,249.8,131.8,249.3z"/>
				</g>
				<g>
					<path class="st8" d="M128,251.4c-0.3-0.5-0.1-1.2,0.4-1.5c0.5-0.3,1.2-0.1,1.5,0.4s0.1,1.2-0.4,1.5
						C129,252.1,128.3,252,128,251.4z"/>
				</g>
				<g>
					<path class="st8" d="M124.2,253.6c-0.3-0.5-0.1-1.2,0.4-1.5c0.5-0.3,1.2-0.1,1.5,0.4c0.3,0.5,0.1,1.2-0.4,1.5
						C125.2,254.3,124.5,254.1,124.2,253.6z"/>
				</g>
				<g>
					<path class="st8" d="M120.4,255.8c-0.3-0.5-0.1-1.2,0.4-1.5c0.5-0.3,1.2-0.1,1.5,0.4c0.3,0.5,0.1,1.2-0.4,1.5
						C121.4,256.5,120.7,256.3,120.4,255.8z"/>
				</g>
				<g>
					<path class="st8" d="M116.6,258c-0.3-0.5-0.1-1.2,0.4-1.5c0.5-0.3,1.2-0.1,1.5,0.4c0.3,0.5,0.1,1.2-0.4,1.5
						C117.6,258.7,116.9,258.5,116.6,258z"/>
				</g>
				<g>
					
						<ellipse transform="matrix(0.8674 -0.4976 0.4976 0.8674 -114.1002 91.0273)" class="st8" cx="113.7" cy="259.6" rx="1.1" ry="1.1"/>
				</g>
				<g>
					
						<ellipse transform="matrix(0.8676 -0.4973 0.4973 0.8676 -115.6286 89.3476)" class="st8" cx="110" cy="261.8" rx="1.1" ry="1.1"/>
				</g>
				<g>
					<path class="st8" d="M105.2,264.5c-0.3-0.5-0.1-1.2,0.4-1.5c0.5-0.3,1.2-0.1,1.5,0.4c0.3,0.5,0.1,1.2-0.4,1.5
						C106.2,265.2,105.5,265,105.2,264.5z"/>
				</g>
				<g>
					<path class="st8" d="M101.4,266.7c-0.3-0.5-0.1-1.2,0.4-1.5c0.5-0.3,1.2-0.1,1.5,0.4s0.1,1.2-0.4,1.5
						C102.4,267.4,101.7,267.2,101.4,266.7z"/>
				</g>
				<g>
					<path class="st8" d="M97.6,268.9c-0.3-0.5-0.1-1.2,0.4-1.5c0.5-0.3,1.2-0.1,1.5,0.4c0.3,0.5,0.1,1.2-0.4,1.5
						C98.6,269.6,97.9,269.4,97.6,268.9z"/>
				</g>
				<g>
					
						<ellipse transform="matrix(0.8675 -0.4974 0.4974 0.8675 -122.0044 82.978)" class="st8" cx="94.8" cy="270.5" rx="1.1" ry="1.1"/>
				</g>
				<g>
					<path class="st8" d="M90,273.2c-0.3-0.5-0.1-1.2,0.4-1.5c0.5-0.3,1.2-0.1,1.5,0.4s0.1,1.2-0.4,1.5
						C91,273.9,90.3,273.8,90,273.2z"/>
				</g>
				<g>
					<path class="st8" d="M86.2,275.4c-0.3-0.5-0.1-1.2,0.4-1.5c0.5-0.3,1.2-0.1,1.5,0.4c0.3,0.5,0.1,1.2-0.4,1.5
						C87.2,276.1,86.5,275.9,86.2,275.4z"/>
				</g>
				<g>
					<path class="st8" d="M82.4,277.6c-0.3-0.5-0.1-1.2,0.4-1.5c0.5-0.3,1.2-0.1,1.5,0.4c0.3,0.5,0.1,1.2-0.4,1.5
						C83.4,278.3,82.7,278.1,82.4,277.6z"/>
				</g>
				<g>
					
						<ellipse transform="matrix(0.8674 -0.4976 0.4976 0.8674 -128.3939 76.6149)" class="st8" cx="79.6" cy="279.2" rx="1.1" ry="1.1"/>
				</g>
				<g>
					
						<ellipse transform="matrix(0.8676 -0.4973 0.4973 0.8676 -129.9104 74.9422)" class="st8" cx="75.8" cy="281.4" rx="1.1" ry="1.1"/>
				</g>
				<g>
					<path class="st8" d="M71,284.1c-0.3-0.5-0.1-1.2,0.4-1.5c0.5-0.3,1.2-0.1,1.5,0.4s0.1,1.2-0.4,1.5
						C72,284.8,71.3,284.7,71,284.1z"/>
				</g>
				<g>
					<path class="st8" d="M67.2,286.3c-0.3-0.5-0.1-1.2,0.4-1.5c0.5-0.3,1.2-0.1,1.5,0.4c0.3,0.5,0.1,1.2-0.4,1.5
						C68.2,287,67.5,286.8,67.2,286.3z"/>
				</g>
				<g>
					<path class="st8" d="M63.4,288.5c-0.3-0.5-0.1-1.2,0.4-1.5s1.2-0.1,1.5,0.4c0.3,0.5,0.1,1.2-0.4,1.5
						C64.4,289.2,63.7,289,63.4,288.5z"/>
				</g>
				<g>
					
						<ellipse transform="matrix(0.8676 -0.4973 0.4973 0.8676 -136.2627 68.544)" class="st8" cx="60.6" cy="290.1" rx="1.1" ry="1.1"/>
				</g>
				<g>
					<path class="st8" d="M55.8,292.8c-0.3-0.5-0.1-1.2,0.4-1.5c0.5-0.3,1.2-0.1,1.5,0.4c0.3,0.5,0.1,1.2-0.4,1.5
						S56.1,293.4,55.8,292.8z"/>
				</g>
				<g>
					<path class="st8" d="M52,295c-0.3-0.5-0.1-1.2,0.4-1.5s1.2-0.1,1.5,0.4s0.1,1.2-0.4,1.5S52.3,295.5,52,295z"/>
				</g>
				<g>
					<line class="st9" x1="52.1" y1="301.7" x2="46.3" y2="291.6"/>
				</g>
			</g>
		</g>
	</g>
	<g>
		<g>
			<g>
				<g>
					<line class="st9" x1="237.5" y1="78.9" x2="240.7" y2="90.1"/>
				</g>
				<g>
					
						<ellipse transform="matrix(0.9616 -0.2744 0.2744 0.9616 -13.5043 69.9834)" class="st8" cx="243.4" cy="83.3" rx="1.1" ry="1.1"/>
				</g>
				<g>
					<path class="st8" d="M248.7,81.7c0.2,0.6-0.2,1.2-0.8,1.4s-1.2-0.2-1.4-0.8c-0.2-0.6,0.2-1.2,0.8-1.4S248.6,81.2,248.7,81.7z"
						/>
				</g>
				<g>
					<path class="st8" d="M253,80.5c0.2,0.6-0.2,1.2-0.8,1.4s-1.2-0.2-1.4-0.8c-0.2-0.6,0.2-1.2,0.8-1.4S252.8,79.9,253,80.5z"/>
				</g>
				<g>
					<path class="st8" d="M257.3,79.3c0.2,0.6-0.2,1.2-0.8,1.4c-0.6,0.2-1.2-0.2-1.4-0.8c-0.2-0.6,0.2-1.2,0.8-1.4
						C256.5,78.4,257.1,78.7,257.3,79.3z"/>
				</g>
				<g>
					<path class="st8" d="M261.5,78.1c0.2,0.6-0.2,1.2-0.8,1.4c-0.6,0.2-1.2-0.2-1.4-0.8c-0.2-0.6,0.2-1.2,0.8-1.4
						S261.4,77.5,261.5,78.1z"/>
				</g>
				<g>
					<path class="st8" d="M265.8,76.9c0.2,0.6-0.2,1.2-0.8,1.4c-0.6,0.2-1.2-0.2-1.4-0.8c-0.2-0.6,0.2-1.2,0.8-1.4
						C265,76,265.7,76.3,265.8,76.9z"/>
				</g>
				<g>
					<path class="st8" d="M270.1,75.7c0.2,0.6-0.2,1.2-0.8,1.4c-0.6,0.2-1.2-0.2-1.4-0.8c-0.2-0.6,0.2-1.2,0.8-1.4
						C269.3,74.7,269.9,75.1,270.1,75.7z"/>
				</g>
				<g>
					<path class="st8" d="M274.4,74.4c0.2,0.6-0.2,1.2-0.8,1.4c-0.6,0.2-1.2-0.2-1.4-0.8c-0.2-0.6,0.2-1.2,0.8-1.4
						C273.6,73.5,274.2,73.9,274.4,74.4z"/>
				</g>
				<g>
					<path class="st8" d="M278.7,73.2c0.2,0.6-0.2,1.2-0.8,1.4c-0.6,0.2-1.2-0.2-1.4-0.8c-0.2-0.6,0.2-1.2,0.8-1.4
						C277.9,72.3,278.5,72.6,278.7,73.2z"/>
				</g>
				<g>
					<path class="st8" d="M282.9,72c0.2,0.6-0.2,1.2-0.8,1.4c-0.6,0.2-1.2-0.2-1.4-0.8c-0.2-0.6,0.2-1.2,0.8-1.4
						C282.1,71.1,282.8,71.4,282.9,72z"/>
				</g>
				<g>
					<path class="st8" d="M287.2,70.8c0.2,0.6-0.2,1.2-0.8,1.4c-0.6,0.2-1.2-0.2-1.4-0.8c-0.2-0.6,0.2-1.2,0.8-1.4
						C286.4,69.9,287,70.2,287.2,70.8z"/>
				</g>
				<g>
					<path class="st8" d="M291.5,69.6c0.2,0.6-0.2,1.2-0.8,1.4c-0.6,0.2-1.2-0.2-1.4-0.8c-0.2-0.6,0.2-1.2,0.8-1.4
						C290.7,68.7,291.3,69,291.5,69.6z"/>
				</g>
				<g>
					<path class="st8" d="M295.8,68.4c0.2,0.6-0.2,1.2-0.8,1.4c-0.6,0.2-1.2-0.2-1.4-0.8c-0.2-0.6,0.2-1.2,0.8-1.4
						C295,67.4,295.6,67.8,295.8,68.4z"/>
				</g>
				<g>
					<path class="st8" d="M300,67.2c0.2,0.6-0.2,1.2-0.8,1.4c-0.6,0.2-1.2-0.2-1.4-0.8c-0.2-0.6,0.2-1.2,0.8-1.4
						C299.3,66.2,299.9,66.6,300,67.2z"/>
				</g>
				<g>
					<path class="st8" d="M304.3,65.9c0.2,0.6-0.2,1.2-0.8,1.4c-0.6,0.2-1.2-0.2-1.4-0.8c-0.2-0.6,0.2-1.2,0.8-1.4
						C303.5,65,304.1,65.4,304.3,65.9z"/>
				</g>
				<g>
					<path class="st8" d="M308.6,64.7c0.2,0.6-0.2,1.2-0.8,1.4c-0.6,0.2-1.2-0.2-1.4-0.8c-0.2-0.6,0.2-1.2,0.8-1.4
						C307.8,63.8,308.4,64.1,308.6,64.7z"/>
				</g>
				<g>
					<path class="st8" d="M312.9,63.5c0.2,0.6-0.2,1.2-0.8,1.4s-1.2-0.2-1.4-0.8c-0.2-0.6,0.2-1.2,0.8-1.4
						C312.1,62.6,312.7,62.9,312.9,63.5z"/>
				</g>
				<g>
					<path class="st8" d="M317.1,62.3c0.2,0.6-0.2,1.2-0.8,1.4c-0.6,0.2-1.2-0.2-1.4-0.8c-0.2-0.6,0.2-1.2,0.8-1.4
						C316.4,61.4,317,61.7,317.1,62.3z"/>
				</g>
				<g>
					
						<ellipse transform="matrix(0.9617 -0.2742 0.2742 0.9617 -4.5554 90.1798)" class="st8" cx="320.3" cy="61.4" rx="1.1" ry="1.1"/>
				</g>
				<g>
					<path class="st8" d="M325.7,59.9c0.2,0.6-0.2,1.2-0.8,1.4c-0.6,0.2-1.2-0.2-1.4-0.8c-0.2-0.6,0.2-1.2,0.8-1.4
						C324.9,58.9,325.5,59.3,325.7,59.9z"/>
				</g>
				<g>
					<path class="st8" d="M330,58.7c0.2,0.6-0.2,1.2-0.8,1.4c-0.6,0.2-1.2-0.2-1.4-0.8c-0.2-0.6,0.2-1.2,0.8-1.4
						C329.2,57.7,329.8,58.1,330,58.7z"/>
				</g>
				<g>
					<path class="st8" d="M334.2,57.4c0.2,0.6-0.2,1.2-0.8,1.4c-0.6,0.2-1.2-0.2-1.4-0.8c-0.2-0.6,0.2-1.2,0.8-1.4
						C333.5,56.5,334.1,56.9,334.2,57.4z"/>
				</g>
				<g>
					<path class="st8" d="M338.5,56.2c0.2,0.6-0.2,1.2-0.8,1.4c-0.6,0.2-1.2-0.2-1.4-0.8c-0.2-0.6,0.2-1.2,0.8-1.4
						S338.4,55.6,338.5,56.2z"/>
				</g>
				<g>
					<path class="st8" d="M342.8,55c0.2,0.6-0.2,1.2-0.8,1.4c-0.6,0.2-1.2-0.2-1.4-0.8c-0.2-0.6,0.2-1.2,0.8-1.4
						C342,54.1,342.6,54.4,342.8,55z"/>
				</g>
				<g>
					<path class="st8" d="M347.1,53.8c0.2,0.6-0.2,1.2-0.8,1.4c-0.6,0.2-1.2-0.2-1.4-0.8c-0.2-0.6,0.2-1.2,0.8-1.4
						C346.3,52.9,346.9,53.2,347.1,53.8z"/>
				</g>
				<g>
					<path class="st8" d="M351.4,52.6c0.2,0.6-0.2,1.2-0.8,1.4c-0.6,0.2-1.2-0.2-1.4-0.8c-0.2-0.6,0.2-1.2,0.8-1.4
						C350.6,51.7,351.2,52,351.4,52.6z"/>
				</g>
				<g>
					<path class="st8" d="M355.6,51.4c0.2,0.6-0.2,1.2-0.8,1.4c-0.6,0.2-1.2-0.2-1.4-0.8c-0.2-0.6,0.2-1.2,0.8-1.4
						C354.9,50.4,355.5,50.8,355.6,51.4z"/>
				</g>
				<g>
					<path class="st8" d="M359.9,50.1c0.2,0.6-0.2,1.2-0.8,1.4c-0.6,0.2-1.2-0.2-1.4-0.8c-0.2-0.6,0.2-1.2,0.8-1.4
						C359.1,49.2,359.7,49.6,359.9,50.1z"/>
				</g>
				<g>
					<path class="st8" d="M364.2,48.9c0.2,0.6-0.2,1.2-0.8,1.4s-1.2-0.2-1.4-0.8c-0.2-0.6,0.2-1.2,0.8-1.4
						C363.4,48,364,48.3,364.2,48.9z"/>
				</g>
				<g>
					<path class="st8" d="M368.5,47.7c0.2,0.6-0.2,1.2-0.8,1.4c-0.6,0.2-1.2-0.2-1.4-0.8c-0.2-0.6,0.2-1.2,0.8-1.4
						S368.3,47.1,368.5,47.7z"/>
				</g>
				<g>
					<path class="st8" d="M372.7,46.5c0.2,0.6-0.2,1.2-0.8,1.4c-0.6,0.2-1.2-0.2-1.4-0.8c-0.2-0.6,0.2-1.2,0.8-1.4
						C372,45.6,372.6,45.9,372.7,46.5z"/>
				</g>
				<g>
					<path class="st8" d="M377,45.3c0.2,0.6-0.2,1.2-0.8,1.4c-0.6,0.2-1.2-0.2-1.4-0.8c-0.2-0.6,0.2-1.2,0.8-1.4
						C376.2,44.4,376.8,44.7,377,45.3z"/>
				</g>
				<g>
					<path class="st8" d="M381.3,44.1c0.2,0.6-0.2,1.2-0.8,1.4c-0.6,0.2-1.2-0.2-1.4-0.8c-0.2-0.6,0.2-1.2,0.8-1.4
						C380.5,43.1,381.1,43.5,381.3,44.1z"/>
				</g>
				<g>
					<path class="st8" d="M385.6,42.9c0.2,0.6-0.2,1.2-0.8,1.4c-0.6,0.2-1.2-0.2-1.4-0.8c-0.2-0.6,0.2-1.2,0.8-1.4
						C384.8,41.9,385.4,42.3,385.6,42.9z"/>
				</g>
				<g>
					<path class="st8" d="M389.8,41.6c0.2,0.6-0.2,1.2-0.8,1.4c-0.6,0.2-1.2-0.2-1.4-0.8c-0.2-0.6,0.2-1.2,0.8-1.4
						C389.1,40.7,389.7,41.1,389.8,41.6z"/>
				</g>
				<g>
					<path class="st8" d="M394.1,40.4c0.2,0.6-0.2,1.2-0.8,1.4c-0.6,0.2-1.2-0.2-1.4-0.8c-0.2-0.6,0.2-1.2,0.8-1.4
						C393.3,39.5,394,39.8,394.1,40.4z"/>
				</g>
				<g>
					<path class="st8" d="M398.4,39.2c0.2,0.6-0.2,1.2-0.8,1.4c-0.6,0.2-1.2-0.2-1.4-0.8c-0.2-0.6,0.2-1.2,0.8-1.4
						C397.6,38.3,398.2,38.6,398.4,39.2z"/>
				</g>
				<g>
					<path class="st8" d="M402.7,38c0.2,0.6-0.2,1.2-0.8,1.4c-0.6,0.2-1.2-0.2-1.4-0.8c-0.2-0.6,0.2-1.2,0.8-1.4
						C401.9,37.1,402.5,37.4,402.7,38z"/>
				</g>
				<g>
					
						<ellipse transform="matrix(0.9617 -0.2742 0.2742 0.9617 5.3839 112.698)" class="st8" cx="405.9" cy="37.1" rx="1.1" ry="1.1"/>
				</g>
				<g>
					<line class="st9" x1="408.6" y1="30.3" x2="411.7" y2="41.5"/>
				</g>
			</g>
		</g>
	</g>
	<g>
		<path class="st10" d="M214.4,271.2h-28.5c-4.7,0-8.5-3.8-8.5-8.5v-33.1"/>
	</g>
</g>
<g id="SPEED_x5F_TRAP">
	<g>
		<circle class="st7" cx="201.7" cy="124.5" r="4.7"/>
		<circle class="st11" cx="201.7" cy="124.5" r="4.7"/>
	</g>
	<g>
		<g>
			<path class="st11" d="M224.2,75.3c0,0.8-0.6,1.4-1.4,1.4h-42.2c-0.8,0-1.4-0.6-1.4-1.4V40.7c0-0.8,0.6-1.4,1.4-1.4h42.2
				c0.8,0,1.4,0.6,1.4,1.4V75.3z"/>
		</g>
		<g>
			<path class="st6" d="M191.3,52.2v2.7c0,1.3-0.6,1.7-1.3,2h-3.9c-0.7-0.3-1.3-0.7-1.3-2v-2.4h2.7v2l0.2,0.2h0.8l0.2-0.2v-1.8
				l-0.1-0.2l-2.7-1.2c-0.8-0.4-0.9-0.9-0.9-1.8v-2.5c0-1.3,0.6-1.7,1.3-2h3.9c0.7,0.3,1.3,0.7,1.3,2v2.2h-2.7v-1.9l-0.2-0.2h-0.8
				l-0.2,0.2V49l0.2,0.3l2.7,1.1C191.2,50.7,191.3,51.3,191.3,52.2z"/>
			<path class="st6" d="M194.7,52.7v4.2h-2.7v-12h5.2c0.7,0.3,1.3,0.7,1.3,2v3.8c0,1.3-0.6,1.7-1.3,2H194.7z M194.7,47.1v3.5h1
				l0.2-0.2v-3.2l-0.2-0.2H194.7z"/>
			<path class="st6" d="M199.2,44.9h5.5v2.5h-2.8v2.2h2.7v2.5h-2.7v2.3h2.9v2.5h-5.6V44.9z"/>
			<path class="st6" d="M205.6,44.9h5.5v2.5h-2.8v2.2h2.7v2.5h-2.7v2.3h2.9v2.5h-5.6V44.9z"/>
			<path class="st6" d="M218.5,54.9c0,1.3-0.6,1.7-1.3,2H212v-12h5.2c0.7,0.3,1.3,0.7,1.3,2V54.9z M214.7,47.1v7.7h1l0.2-0.2v-7.3
				l-0.2-0.2H214.7z"/>
			<path class="st6" d="M192.3,61.6v9.5h-2.7v-9.5h-1.9v-2.5h6.5v2.5H192.3z"/>
			<path class="st6" d="M194.7,71.1v-12h5.2c0.7,0.3,1.3,0.7,1.3,2v2.5c0,1.1-0.5,1.6-1.1,1.9l1.4,3.8v1.7h-2.3l-1.5-4.7h-0.3v4.7
				H194.7z M197.3,61.3v3h1l0.2-0.2v-2.7l-0.2-0.2H197.3z"/>
			<path class="st6" d="M205.7,68.7h-1.3l-0.2,2.3h-2.5v-2l1.5-10h3.6l1.5,10v2h-2.5L205.7,68.7z M204.7,66.2h0.8l-0.3-3.8H205
				L204.7,66.2z"/>
			<path class="st6" d="M211.8,66.9v4.2h-2.7v-12h5.2c0.7,0.3,1.3,0.7,1.3,2v3.8c0,1.3-0.6,1.7-1.3,2H211.8z M211.8,61.3v3.5h1
				l0.2-0.2v-3.2l-0.2-0.2H211.8z"/>
		</g>
	</g>
	<g>
		<line class="st12" x1="201.7" y1="76.7" x2="201.7" y2="124.5"/>
	</g>
	<g>
		<line class="st10" x1="96" y1="109.7" x2="96" y2="199.2"/>
	</g>
</g>
<g id="アイコン">
	<g>
		
			<rect x="134.3" y="263.6" transform="matrix(-0.5161 -0.8565 0.8565 -0.5161 -21.2912 517.9936)" class="st5" width="2.8" height="2.8"/>
		
			<rect x="131.3" y="258.7" transform="matrix(-0.5161 -0.8565 0.8565 -0.5161 -21.5677 508.1254)" class="st5" width="2.8" height="2.8"/>
		
			<rect x="135.2" y="259.7" transform="matrix(-0.5161 -0.8565 0.8565 -0.5161 -16.4954 512.9213)" class="st5" width="2.8" height="2.8"/>
		
			<rect x="132.3" y="254.8" transform="matrix(-0.5161 -0.8565 0.8565 -0.5161 -16.7719 503.0531)" class="st5" width="2.8" height="2.8"/>
		
			<rect x="140.1" y="256.8" transform="matrix(-0.5161 -0.8565 0.8565 -0.5161 -6.6273 512.6448)" class="st5" width="2.8" height="2.8"/>
		
			<rect x="137.2" y="251.9" transform="matrix(-0.5161 -0.8565 0.8565 -0.5161 -6.9038 502.7766)" class="st5" width="2.8" height="2.8"/>
		
			<rect x="128.4" y="253.9" transform="matrix(-0.5161 -0.8565 0.8565 -0.5161 -21.8442 498.2573)" class="st5" width="2.8" height="2.8"/>
		
			<rect x="129.9" y="256.3" transform="matrix(-0.5161 -0.8565 0.8565 -0.5161 -21.706 503.1914)" class="st6" width="2.8" height="2.8"/>
		
			<rect x="132.8" y="261.2" transform="matrix(-0.5161 -0.8565 0.8565 -0.5161 -21.4295 513.0595)" class="st6" width="2.8" height="2.8"/>
		
			<rect x="136.7" y="262.1" transform="matrix(-0.5161 -0.8565 0.8565 -0.5161 -16.3572 517.8553)" class="st6" width="2.8" height="2.8"/>
		
			<rect x="133.8" y="257.3" transform="matrix(-0.5161 -0.8565 0.8565 -0.5161 -16.6337 507.9872)" class="st6" width="2.8" height="2.8"/>
		
			<rect x="130.8" y="252.4" transform="matrix(-0.5161 -0.8565 0.8565 -0.5161 -16.9102 498.119)" class="st6" width="2.8" height="2.8"/>
		
			<rect x="134.7" y="253.4" transform="matrix(-0.5161 -0.8565 0.8565 -0.5161 -11.8378 502.9149)" class="st6" width="2.8" height="2.8"/>
		
			<rect x="137.7" y="258.2" transform="matrix(-0.5161 -0.8565 0.8565 -0.5161 -11.5614 512.783)" class="st6" width="2.8" height="2.8"/>
		
			<rect x="139.6" y="250.5" transform="matrix(-0.5161 -0.8565 0.8565 -0.5161 -1.9697 502.6384)" class="st6" width="2.8" height="2.8"/>
		
			<rect x="142.5" y="255.3" transform="matrix(-0.5161 -0.8565 0.8565 -0.5161 -1.6932 512.5065)" class="st6" width="2.8" height="2.8"/>
		
			<rect x="141.5" y="259.2" transform="matrix(-0.5161 -0.8565 0.8565 -0.5161 -6.489 517.5789)" class="st6" width="2.8" height="2.8"/>
		
			<rect x="138.6" y="254.3" transform="matrix(-0.5161 -0.8565 0.8565 -0.5161 -6.7655 507.7107)" class="st6" width="2.8" height="2.8"/>
		
			<rect x="135.7" y="249.5" transform="matrix(-0.5161 -0.8565 0.8565 -0.5161 -7.042 497.8426)" class="st6" width="2.8" height="2.8"/>
		
			<rect x="139.1" y="260.7" transform="matrix(-0.5161 -0.8565 0.8565 -0.5161 -11.4231 517.7171)" class="st5" width="2.8" height="2.8"/>
		
			<rect x="136.2" y="255.8" transform="matrix(-0.5161 -0.8565 0.8565 -0.5161 -11.6996 507.8489)" class="st5" width="2.8" height="2.8"/>
		
			<rect x="141" y="252.9" transform="matrix(-0.5161 -0.8565 0.8565 -0.5161 -1.8315 507.5724)" class="st5" width="2.8" height="2.8"/>
		
			<rect x="133.3" y="251" transform="matrix(-0.5161 -0.8565 0.8565 -0.5161 -11.9761 497.9808)" class="st5" width="2.8" height="2.8"/>
		
			<rect x="144" y="257.7" transform="matrix(-0.5161 -0.8565 0.8565 -0.5161 -1.555 517.4406)" class="st5" width="2.8" height="2.8"/>
		
			<rect x="138.1" y="248" transform="matrix(-0.5161 -0.8565 0.8565 -0.5161 -2.108 497.7043)" class="st5" width="2.8" height="2.8"/>
	</g>
	<g>
		<defs>
			
				<rect id="SVGID_1_" x="88.8" y="274.9" transform="matrix(0.8535 -0.5211 0.5211 0.8535 -130.7976 92.9576)" width="22.3" height="8.5"/>
		</defs>
		<clipPath id="SVGID_00000126324213719695179860000015098540122472247716_">
			<use xlink:href="#SVGID_1_"  style="overflow:visible;"/>
		</clipPath>
		<g style="clip-path:url(#SVGID_00000126324213719695179860000015098540122472247716_);">
			<polygon class="st14" points="112.1,280 109.7,281.5 101.1,278.4 102.3,269.4 104.7,267.9 103.6,276.9 			"/>
			<polygon class="st15" points="107.3,282.9 104.8,284.4 96.3,281.3 97.5,272.3 99.9,270.9 98.7,279.9 			"/>
			<polygon class="st16" points="102.4,285.9 100,287.4 91.5,284.3 92.6,275.3 95,273.8 93.9,282.8 			"/>
		</g>
	</g>
	<g>
		<g>
			<path class="st6" d="M462.8,426.3c0,1.6-1.3,2.8-2.8,2.8H91.1c-1.6,0-2.8-1.3-2.8-2.8v-24.9c0-1.6,1.3-2.8,2.8-2.8h368.8
				c1.6,0,2.8,1.3,2.8,2.8V426.3z"/>
			<path class="st17" d="M462.8,426.3c0,1.6-1.3,2.8-2.8,2.8H91.1c-1.6,0-2.8-1.3-2.8-2.8v-24.9c0-1.6,1.3-2.8,2.8-2.8h368.8
				c1.6,0,2.8,1.3,2.8,2.8V426.3z"/>
		</g>
		<g>
			<path class="st5" d="M133.8,415.3v2.6c0,1.3-0.6,1.7-1.3,2h-3.3c-0.7-0.3-1.3-0.7-1.3-2v-2h1.8v2.1l0.4,0.4h1.6l0.4-0.4v-2.8
				l-0.3-0.4L129,414c-0.8-0.3-1.1-0.8-1.1-1.9v-2.2c0-1.3,0.6-1.7,1.3-2h3.3c0.7,0.3,1.3,0.7,1.3,2v1.9H132v-2.1l-0.4-0.4h-1.6
				l-0.4,0.4v2.4l0.4,0.4l2.6,0.7C133.4,413.6,133.8,414.1,133.8,415.3z"/>
			<path class="st5" d="M135.1,407.9h5.1v1.6h-3.3v3.4h3.1v1.6h-3.1v3.7h3.4v1.6h-5.2V407.9z"/>
			<path class="st5" d="M147.5,417.9c0,1.3-0.6,1.7-1.3,2h-3.3c-0.7-0.3-1.3-0.7-1.3-2v-8c0-1.3,0.6-1.7,1.3-2h3.3
				c0.7,0.3,1.3,0.7,1.3,2v2.7h-1.8v-2.8l-0.4-0.4h-1.6l-0.4,0.4v8.3l0.4,0.4h1.6l0.4-0.4v-2.7h1.8V417.9z"/>
			<path class="st5" d="M152.2,409.5v10.3h-1.8v-10.3h-2.1v-1.6h6.1v1.6H152.2z"/>
			<path class="st5" d="M161.1,417.9c0,1.3-0.6,1.7-1.3,2h-3.3c-0.7-0.3-1.3-0.7-1.3-2v-8c0-1.3,0.6-1.7,1.3-2h3.3
				c0.7,0.3,1.3,0.7,1.3,2V417.9z M159.3,409.7l-0.4-0.4h-1.6l-0.4,0.4v8.3l0.4,0.4h1.6l0.4-0.4V409.7z"/>
			<path class="st5" d="M162.5,419.8v-12h4.6c0.7,0.3,1.3,0.7,1.3,2v2.6c0,1.3-0.6,1.6-1.3,1.9l-0.3,0.1l2.1,4.3v1.1h-1.6l-2.2-5.1
				h-0.8v5.1H162.5z M164.3,409.4v3.9h2l0.4-0.4v-3.1l-0.4-0.4H164.3z"/>
			<path class="st5" d="M172.6,419.8v-1.6h1.8v-8.7h-1.7v-1.6h3.5v10.4h1.7v1.6H172.6z"/>
		</g>
		<line class="st18" x1="102.5" y1="413.9" x2="123.7" y2="413.9"/>
		<g>
			<path class="st5" d="M223.9,415.3v2.6c0,1.3-0.6,1.7-1.3,2h-3.3c-0.7-0.3-1.3-0.7-1.3-2v-2h1.8v2.1l0.4,0.4h1.6l0.4-0.4v-2.8
				l-0.3-0.4l-2.6-0.8c-0.8-0.3-1.1-0.8-1.1-1.9v-2.2c0-1.3,0.6-1.7,1.3-2h3.3c0.7,0.3,1.3,0.7,1.3,2v1.9h-1.8v-2.1l-0.4-0.4h-1.6
				l-0.4,0.4v2.4l0.4,0.4l2.6,0.7C223.5,413.6,223.9,414.1,223.9,415.3z"/>
			<path class="st5" d="M225.2,407.9h5.1v1.6H227v3.4h3.1v1.6H227v3.7h3.4v1.6h-5.2V407.9z"/>
			<path class="st5" d="M237.6,417.9c0,1.3-0.6,1.7-1.3,2h-3.3c-0.7-0.3-1.3-0.7-1.3-2v-8c0-1.3,0.6-1.7,1.3-2h3.3
				c0.7,0.3,1.3,0.7,1.3,2v2.7h-1.8v-2.8l-0.4-0.4h-1.6l-0.4,0.4v8.3l0.4,0.4h1.6l0.4-0.4v-2.7h1.8V417.9z"/>
			<path class="st5" d="M242.3,409.5v10.3h-1.8v-10.3h-2.1v-1.6h6.1v1.6H242.3z"/>
			<path class="st5" d="M251.2,417.9c0,1.3-0.6,1.7-1.3,2h-3.3c-0.7-0.3-1.3-0.7-1.3-2v-8c0-1.3,0.6-1.7,1.3-2h3.3
				c0.7,0.3,1.3,0.7,1.3,2V417.9z M249.4,409.7l-0.4-0.4h-1.6l-0.4,0.4v8.3l0.4,0.4h1.6l0.4-0.4V409.7z"/>
			<path class="st5" d="M252.6,419.8v-12h4.6c0.7,0.3,1.3,0.7,1.3,2v2.6c0,1.3-0.6,1.6-1.3,1.9l-0.3,0.1l2.1,4.3v1.1h-1.6l-2.2-5.1
				h-0.8v5.1H252.6z M254.4,409.4v3.9h2l0.4-0.4v-3.1l-0.4-0.4H254.4z"/>
			<path class="st5" d="M262.3,419.8v-3.6c0-1.1,0.4-1.7,1.2-2.1l3-1.2v-3.2l-0.4-0.4h-1.7l-0.4,0.4v2h-1.8v-1.9
				c0-1.3,0.6-1.7,1.3-2h3.3c0.7,0.3,1.3,0.7,1.3,2v2.5c0,1.1-0.3,1.7-1.1,2.1l-3,1.2v2.5h4.1v1.6H262.3z"/>
		</g>
		<line class="st19" x1="192.6" y1="413.9" x2="213.8" y2="413.9"/>
		<g>
			<path class="st5" d="M313.7,415.3v2.6c0,1.3-0.6,1.7-1.3,2h-3.3c-0.7-0.3-1.3-0.7-1.3-2v-2h1.8v2.1l0.4,0.4h1.6l0.4-0.4v-2.8
				l-0.3-0.4L309,414c-0.8-0.3-1.1-0.8-1.1-1.9v-2.2c0-1.3,0.6-1.7,1.3-2h3.3c0.7,0.3,1.3,0.7,1.3,2v1.9h-1.8v-2.1l-0.4-0.4H310
				l-0.4,0.4v2.4l0.4,0.4l2.6,0.7C313.4,413.6,313.7,414.1,313.7,415.3z"/>
			<path class="st5" d="M315.1,407.9h5.1v1.6h-3.3v3.4h3.1v1.6h-3.1v3.7h3.4v1.6h-5.2V407.9z"/>
			<path class="st5" d="M327.4,417.9c0,1.3-0.6,1.7-1.3,2h-3.3c-0.7-0.3-1.3-0.7-1.3-2v-8c0-1.3,0.6-1.7,1.3-2h3.3
				c0.7,0.3,1.3,0.7,1.3,2v2.7h-1.8v-2.8l-0.4-0.4h-1.6l-0.4,0.4v8.3l0.4,0.4h1.6l0.4-0.4v-2.7h1.8V417.9z"/>
			<path class="st5" d="M332.1,409.5v10.3h-1.8v-10.3h-2.1v-1.6h6.1v1.6H332.1z"/>
			<path class="st5" d="M341,417.9c0,1.3-0.6,1.7-1.3,2h-3.3c-0.7-0.3-1.3-0.7-1.3-2v-8c0-1.3,0.6-1.7,1.3-2h3.3
				c0.7,0.3,1.3,0.7,1.3,2V417.9z M339.2,409.7l-0.4-0.4h-1.6l-0.4,0.4v8.3l0.4,0.4h1.6l0.4-0.4V409.7z"/>
			<path class="st5" d="M342.4,419.8v-12h4.6c0.7,0.3,1.3,0.7,1.3,2v2.6c0,1.3-0.6,1.6-1.3,1.9l-0.3,0.1l2.1,4.3v1.1h-1.6l-2.2-5.1
				h-0.8v5.1H342.4z M344.2,409.4v3.9h2l0.4-0.4v-3.1l-0.4-0.4H344.2z"/>
			<path class="st5" d="M353.4,419.8c-0.7-0.3-1.3-0.7-1.3-2v-1.7h1.8v1.8l0.4,0.4h1.7l0.4-0.4v-3.2l-0.4-0.3h-1.8V413h1.8l0.4-0.4
				v-3l-0.4-0.4h-1.7l-0.4,0.4v1.8h-1.8v-1.7c0-1.3,0.6-1.7,1.3-2h3.3c0.7,0.3,1.3,0.7,1.3,2v1.9c0,1-0.2,1.5-0.9,1.9
				c0.6,0.4,0.9,0.9,0.9,1.9v2.2c0,1.3-0.6,1.7-1.3,2H353.4z"/>
		</g>
		<line class="st20" x1="282.4" y1="413.9" x2="303.7" y2="413.9"/>
		<g>
			<path class="st5" d="M403.6,417.9c0,1.3-0.6,1.7-1.3,2h-4.6v-12h4.6c0.7,0.3,1.3,0.7,1.3,2V417.9z M399.5,409.4v9h2l0.4-0.4v-8.3
				l-0.4-0.4H399.5z"/>
			<path class="st5" d="M405,419.8v-12h4.6c0.7,0.3,1.3,0.7,1.3,2v2.6c0,1.3-0.6,1.6-1.3,1.9l-0.3,0.1l2.1,4.3v1.1h-1.6l-2.2-5.1
				h-0.8v5.1H405z M406.8,409.4v3.9h2l0.4-0.4v-3.1l-0.4-0.4H406.8z"/>
			<path class="st5" d="M418.1,415.3v2.6c0,1.3-0.6,1.7-1.3,2h-3.3c-0.7-0.3-1.3-0.7-1.3-2v-2h1.8v2.1l0.4,0.4h1.6l0.4-0.4v-2.8
				l-0.3-0.4l-2.6-0.8c-0.8-0.3-1.1-0.8-1.1-1.9v-2.2c0-1.3,0.6-1.7,1.3-2h3.3c0.7,0.3,1.3,0.7,1.3,2v1.9h-1.8v-2.1l-0.4-0.4h-1.6
				l-0.4,0.4v2.4l0.4,0.4l2.6,0.7C417.7,413.6,418.1,414.1,418.1,415.3z"/>
			<path class="st5" d="M425.6,409.5h-3.9v-1.6h5.8v1.5l-4,8.9h4v1.6h-5.9v-1.5L425.6,409.5z"/>
			<path class="st5" d="M434.8,417.9c0,1.3-0.6,1.7-1.3,2h-3.3c-0.7-0.3-1.3-0.7-1.3-2v-8c0-1.3,0.6-1.7,1.3-2h3.3
				c0.7,0.3,1.3,0.7,1.3,2V417.9z M433,409.7l-0.4-0.4H431l-0.4,0.4v8.3l0.4,0.4h1.6l0.4-0.4V409.7z"/>
			<path class="st5" d="M440.5,407.9h1.6v12h-1.6l-2.6-7.1h-0.2v7.1h-1.6v-12h1.6l2.6,7.1h0.2V407.9z"/>
			<path class="st5" d="M443.5,407.9h5.1v1.6h-3.3v3.4h3.1v1.6h-3.1v3.7h3.4v1.6h-5.2V407.9z"/>
		</g>
		<g>
			<g>
				<g>
					<g>
						<line class="st21" x1="373.7" y1="406.5" x2="373.7" y2="421.4"/>
					</g>
					<g>
						<path class="st8" d="M381.3,413.9c0,0.8-0.7,1.4-1.5,1.4c-0.8,0-1.5-0.6-1.5-1.4c0-0.8,0.7-1.4,1.5-1.4
							C380.7,412.5,381.3,413.2,381.3,413.9z"/>
					</g>
					<g>
						<ellipse class="st8" cx="385.9" cy="413.9" rx="1.5" ry="1.4"/>
					</g>
					<g>
						<line class="st21" x1="392" y1="406.5" x2="392" y2="421.4"/>
					</g>
				</g>
			</g>
		</g>
	</g>
</g>
</svg>
