<?xml version="1.0" encoding="utf-8"?>
<!-- Generator: Adobe Illustrator 27.2.0, SVG Export Plug-In . SVG Version: 6.00 Build 0)  -->
<svg version="1.1" xmlns="http://www.w3.org/2000/svg" xmlns:xlink="http://www.w3.org/1999/xlink" x="0px" y="0px"
	 viewBox="0 0 558.9 299.3" style="enable-background:new 0 0 558.9 299.3;" xml:space="preserve">
<style type="text/css">
	.st0{fill:none;stroke:#646464;stroke-width:14.1732;stroke-linecap:round;stroke-linejoin:round;stroke-miterlimit:10;}
	.st1{fill:none;stroke:#FFD449;stroke-width:2.8346;stroke-miterlimit:10;}
	.st2{fill:none;stroke:#54C6EB;stroke-width:2.8346;stroke-miterlimit:10;}
	.st3{fill:none;stroke:#F4442E;stroke-width:2.8346;stroke-miterlimit:10;}
	.st4{fill:none;stroke:#FFFFFF;stroke-width:2.126;}
	.st5{fill:#646464;}
	.st6{fill:#FFFFFF;}
	.st7{fill:none;stroke:#646464;stroke-width:2.8346;stroke-miterlimit:10;}
	.st8{fill:#FF3380;}
	.st9{fill:none;stroke:#FF3380;stroke-width:1.9843;stroke-miterlimit:10;}
	.st10{fill:#09BC8A;}
	.st11{fill:none;stroke:#09BC8A;stroke-width:1.9843;stroke-miterlimit:10;}
	.st12{fill:none;stroke:#09BC8A;stroke-width:2.2097;stroke-miterlimit:10;}
	.st13{fill:none;stroke:#646464;stroke-width:0.7087;stroke-miterlimit:10;}
	.st14{fill:none;stroke:#F4442E;stroke-width:5.6693;stroke-miterlimit:10;}
	.st15{fill:none;stroke:#54C6EB;stroke-width:5.6693;stroke-miterlimit:10;}
	.st16{fill:none;stroke:#FFD449;stroke-width:5.6693;stroke-miterlimit:10;}
	.st17{fill:none;stroke:#09BC8A;stroke-width:2.8346;stroke-miterlimit:10;}
	.st18{clip-path:url(#SVGID_00000161593034639522328540000003610139484255554493_);}
	.st19{fill:#F4442E;}
	.st20{fill:#54C6EB;}
	.st21{fill:#FFD449;}
</style>
<g id="コース">
	<path class="st0" d="M352.9,103.8c19.4,3.6,92.9,19.7,105.7,23.3c12.8,3.6,24.6,10.5,34.5,16.1c9.8,5.6,12.2,7.5,14.2,8.7
		s4.9,1.9,7.8-1.2s3.9-4,6.1-6c2.3-2.2,7.2-2.1,10.1,0.7c2.7,2.6,2.7,9.4-0.2,13.3c-3.9,5.3-15.3,19-25.2,25.8
		c-9.9,6.8-36.4,18.2-40.1,19.7c-3.7,1.5-6.3,0.5-8.5-1.8s-3.7-3.8-4.9-4.7c-1.2-0.9-3.1-1.8-7-1c-3.9,0.8-26,7-29,7.7
		s-8.1,4.1-11,5.9c-2.9,1.8-7.7,4.2-16.3,4.2s-20-5.9-28.3-9.8c-8.3-4-14.9-7.5-17.6-8.5c-2.8-1-7.2-1.7-9.3-0.3c-2,1.4-4,4.4-4,8.2
		s-1.1,6.3-5.4,9.3c-4.3,3-12.7,4.2-23.1,1.6c-10.4-2.6-49.3-17.1-62.7-23.9c-13.4-6.7-38.3-24.3-51.9-35.8
		c-13.5-11.5-13.5-11.4-14.5-12.2c-1-0.8-2.7-2.6-0.8-6.1c1.8-3.4,4-10.1-1.2-15.4c-5.1-5.3-25.5-22.5-36.1-30.1
		S96.9,63.5,67.7,56.9c-19.1-4.4-24.1-5.2-27-5.8c-6.7-1.3-6.7-10.7,2.9-9.1c5.6,0.9,15.8,4.9,18.1,5.7c2.3,0.8,7.2,1.3,17.3,1.4
		c16.5,0.2,65.9,2.3,72.5,2.6c6.6,0.3,16.1,1.5,28.8,4.5c12.6,3,153.2,33.9,157.2,35s5.2,0.4,5.3,5c0.1,4.6,0.9,5.8,5.2,6.6
		C352.1,103.6,352.9,103.8,352.9,103.8z"/>
</g>
<g id="セクター">
	<path class="st1" d="M86.5,63c-6-2.5-12.3-4.6-18.8-6.1c-19.1-4.4-24.1-5.2-27-5.8c-6.7-1.3-6.7-10.7,2.9-9.1
		c5.6,0.9,15.8,4.9,18.1,5.7c2.3,0.8,7.2,1.3,17.3,1.4c16.5,0.2,65.9,2.3,72.5,2.6c6.6,0.3,16.1,1.5,28.8,4.5
		c12.6,3,153.2,33.9,157.2,35s5.2,0.4,5.3,5c0.1,4.6,0.9,5.8,5.2,6.6c4.3,0.8,5.1,1,5.1,1c16.3,3,71.2,15,95.7,20.8"/>
	<path class="st2" d="M347.7,198.2c-2-1-3.5-1.7-4.6-2.1c-2.8-1-7.2-1.7-9.3-0.3c-2,1.4-4,4.4-4,8.2s-1.1,6.3-5.4,9.3
		c-4.3,3-12.7,4.2-23.1,1.6c-10.4-2.6-49.3-17.1-62.7-23.9c-13.4-6.7-38.3-24.3-51.9-35.8c-13.5-11.5-13.5-11.4-14.5-12.2
		c-1-0.8-2.7-2.6-0.8-6.1c1.8-3.4,4-10.1-1.2-15.4c-5.1-5.3-25.5-22.5-36.1-30.1c-8.3-6-26.4-19.5-47.7-28.4"/>
	<path class="st3" d="M448.6,124.6c4.5,1.1,8,1.9,10,2.5c12.8,3.6,24.6,10.5,34.5,16.1c9.8,5.6,12.2,7.5,14.2,8.7s4.9,1.9,7.8-1.2
		s3.9-4,6.1-6c2.3-2.2,7.2-2.1,10.1,0.7c2.7,2.6,2.7,9.4-0.2,13.3c-3.9,5.3-15.3,19-25.2,25.8c-9.9,6.8-36.4,18.2-40.1,19.7
		c-3.7,1.5-6.3,0.5-8.5-1.8s-3.7-3.8-4.9-4.7c-1.2-0.9-3.1-1.8-7-1c-3.9,0.8-26,7-29,7.7s-8.1,4.1-11,5.9c-2.9,1.8-7.7,4.2-16.3,4.2
		s-20-5.9-28.3-9.8c-5.2-2.5-9.7-4.8-13.1-6.4"/>
</g>
<g id="コーナー番号">
	<g>
		<g>
			<circle class="st4" cx="494.2" cy="168.5" r="8.5"/>
			<circle class="st5" cx="494.2" cy="168.5" r="8.5"/>
		</g>
		<g>
			<path class="st6" d="M492.5,172.3v-1.6h1v-4.5h-0.9v-1.6h2.6v6.1h0.9v1.6H492.5z"/>
		</g>
	</g>
	<g>
		<g>
			<circle class="st4" cx="549.4" cy="134" r="8.5"/>
			<circle class="st5" cx="549.4" cy="134" r="8.5"/>
		</g>
		<g>
			<path class="st6" d="M547.3,137.9v-2.6c0-0.6,0.1-1,0.6-1.2l1.9-0.8v-1.6l-0.1-0.1h-0.5l-0.1,0.1v1.1h-1.7v-1.3
				c0-0.8,0.4-1.1,0.8-1.3h2.5c0.5,0.2,0.8,0.5,0.8,1.3v1.9c0,0.6-0.1,0.9-0.6,1.2l-1.9,0.8v0.9h2.4v1.6H547.3z"/>
		</g>
	</g>
	<g>
		<g>
			<circle class="st4" cx="458.6" cy="227.1" r="8.5"/>
			<circle class="st5" cx="458.6" cy="227.1" r="8.5"/>
		</g>
		<g>
			<path class="st6" d="M457.3,231c-0.5-0.2-0.8-0.5-0.8-1.3v-1h1.7v0.8l0.1,0.1h0.5l0.1-0.1v-1.6l-0.1-0.1h-1v-1.3h1l0.1-0.1v-1.5
				l-0.1-0.1h-0.5l-0.1,0.1v0.8h-1.7v-1c0-0.8,0.4-1.1,0.8-1.3h2.5c0.5,0.2,0.8,0.5,0.8,1.3v1.3c0,0.6-0.2,0.9-0.6,1.2
				c0.4,0.3,0.6,0.6,0.6,1.2v1.4c0,0.8-0.4,1.1-0.8,1.3H457.3z"/>
		</g>
	</g>
	<g>
		<g>
			<circle class="st4" cx="446.4" cy="176.5" r="8.5"/>
			<circle class="st5" cx="446.4" cy="176.5" r="8.5"/>
		</g>
		<g>
			<path class="st6" d="M448,178.9v1.5h-1.7v-1.5h-2.2v-1.5l1.6-4.7h1.7l-1.6,4.6h0.5v-0.4l0.4-1h1.3v1.4h0.5v1.6H448z"/>
		</g>
	</g>
	<g>
		<g>
			<circle class="st4" cx="388" cy="236.1" r="8.5"/>
			<circle class="st5" cx="388" cy="236.1" r="8.5"/>
		</g>
		<g>
			<path class="st6" d="M386.8,240c-0.5-0.2-0.8-0.5-0.8-1.3v-1h1.6v0.8l0.1,0.1h0.6l0.1-0.1v-2.1l-0.1-0.1h-0.6l-0.1,0.1v0.4h-1.6
				v-4.5h4v1.5h-2.4v1.6l0.4-0.4h1.3c0.5,0.2,0.8,0.5,0.8,1.3v2.4c0,0.8-0.4,1.1-0.8,1.3H386.8z"/>
		</g>
	</g>
	<g>
		<g>
			<circle class="st4" cx="326.2" cy="176.2" r="8.5"/>
			<circle class="st5" cx="326.2" cy="176.2" r="8.5"/>
		</g>
		<g>
			<path class="st6" d="M327.4,180.1H325c-0.5-0.2-0.8-0.5-0.8-1.3v-5.1c0-0.8,0.4-1.1,0.8-1.3h2.5c0.5,0.2,0.8,0.5,0.8,1.3v1h-1.7
				v-0.8l-0.1-0.1h-0.5l-0.1,0.1v1.8l0.3-0.3h1.3c0.5,0.2,0.8,0.5,0.8,1.3v2.2C328.3,179.6,327.9,179.9,327.4,180.1z M326.5,178.7
				l0.1-0.1v-1.8l-0.1-0.1h-0.5l-0.1,0.1v1.8l0.1,0.1H326.5z"/>
		</g>
	</g>
	<g>
		<g>
			<circle class="st4" cx="325.1" cy="235.2" r="8.5"/>
			<circle class="st5" cx="325.1" cy="235.2" r="8.5"/>
		</g>
		<g>
			<path class="st6" d="M323.2,239.1l2.1-6.2H323v-1.5h4.1v1.2l-2.1,6.5H323.2z"/>
		</g>
	</g>
	<g>
		<g>
			<circle class="st4" cx="153" cy="148.1" r="8.5"/>
			<circle class="st5" cx="153" cy="148.1" r="8.5"/>
		</g>
		<g>
			<path class="st6" d="M151.8,151.9c-0.5-0.2-0.8-0.5-0.8-1.3v-1.4c0-0.6,0.2-0.9,0.6-1.2c-0.4-0.3-0.6-0.6-0.6-1.2v-1.3
				c0-0.8,0.4-1.1,0.8-1.3h2.5c0.5,0.2,0.8,0.5,0.8,1.3v1.3c0,0.6-0.2,0.9-0.6,1.2c0.4,0.3,0.6,0.6,0.6,1.2v1.4
				c0,0.8-0.4,1.1-0.8,1.3H151.8z M152.6,147.3l0.1,0.1h0.5l0.1-0.1v-1.5l-0.1-0.1h-0.5l-0.1,0.1V147.3z M153.4,150.4v-1.6l-0.1-0.1
				h-0.5l-0.1,0.1v1.6l0.1,0.1h0.5L153.4,150.4z"/>
		</g>
	</g>
	<g>
		<g>
			<circle class="st4" cx="189.9" cy="116.6" r="8.5"/>
			<circle class="st5" cx="189.9" cy="116.6" r="8.5"/>
		</g>
		<g>
			<path class="st6" d="M188.6,120.5c-0.5-0.2-0.8-0.5-0.8-1.3v-1h1.7v0.8l0.1,0.1h0.5l0.1-0.1v-1.8l-0.3,0.3h-1.3
				c-0.5-0.2-0.8-0.5-0.8-1.3v-2.2c0-0.8,0.4-1.1,0.8-1.3h2.5c0.5,0.2,0.8,0.5,0.8,1.3v5.1c0,0.8-0.4,1.1-0.8,1.3H188.6z
				 M190.3,116.2v-1.8l-0.1-0.1h-0.5l-0.1,0.1v1.8l0.1,0.1h0.5L190.3,116.2z"/>
		</g>
	</g>
	<g>
		<g>
			<circle class="st4" cx="17.2" cy="39.1" r="8.5"/>
			<circle class="st5" cx="17.2" cy="39.1" r="8.5"/>
		</g>
		<g>
			<path class="st6" d="M13.1,43v-1.6h1v-4.5h-0.9v-1.6h2.6v6.1h0.9V43H13.1z"/>
			<path class="st6" d="M20.8,43h-2.5c-0.5-0.2-0.8-0.5-0.8-1.3v-5.1c0-0.8,0.4-1.1,0.8-1.3h2.5c0.5,0.2,0.8,0.5,0.8,1.3v5.1
				C21.6,42.5,21.2,42.8,20.8,43z M19.9,36.8l-0.1-0.1h-0.5l-0.1,0.1v4.7l0.1,0.1h0.5l0.1-0.1V36.8z"/>
		</g>
	</g>
	<g>
		<g>
			<circle class="st4" cx="72.7" cy="28.3" r="8.5"/>
			<circle class="st5" cx="72.7" cy="28.3" r="8.5"/>
		</g>
		<g>
			<path class="st6" d="M68.7,32.1v-1.6h1v-4.5h-0.9v-1.6h2.6v6.1h0.9v1.6H68.7z"/>
			<path class="st6" d="M73.4,32.1v-1.6h1v-4.5h-0.9v-1.6H76v6.1h0.9v1.6H73.4z"/>
		</g>
	</g>
	<g>
		<g>
			<circle class="st4" cx="163" cy="22.5" r="8.5"/>
			<circle class="st5" cx="163" cy="22.5" r="8.5"/>
		</g>
		<g>
			<path class="st6" d="M159,26.4v-1.6h1v-4.5h-0.9v-1.6h2.6v6.1h0.9v1.6H159z"/>
			<path class="st6" d="M163.3,26.4v-2.6c0-0.6,0.1-1,0.6-1.2l1.9-0.8v-1.6l-0.1-0.1h-0.5l-0.1,0.1v1.1h-1.7V20
				c0-0.8,0.4-1.1,0.8-1.3h2.5c0.5,0.2,0.8,0.5,0.8,1.3V22c0,0.6-0.1,0.9-0.6,1.2L165,24v0.9h2.4v1.6H163.3z"/>
		</g>
	</g>
	<g>
		<g>
			<circle class="st4" cx="353.3" cy="75.1" r="8.5"/>
			<circle class="st5" cx="353.3" cy="75.1" r="8.5"/>
		</g>
		<g>
			<path class="st6" d="M349.2,79v-1.6h1v-4.5h-0.9v-1.6h2.6v6.1h0.9V79H349.2z"/>
			<path class="st6" d="M354.4,79c-0.5-0.2-0.8-0.5-0.8-1.3v-1h1.7v0.8l0.1,0.1h0.5l0.1-0.1v-1.6l-0.1-0.1h-1v-1.3h1l0.1-0.1v-1.5
				l-0.1-0.1h-0.5l-0.1,0.1v0.8h-1.7v-1c0-0.8,0.4-1.1,0.8-1.3h2.5c0.5,0.2,0.8,0.5,0.8,1.3V74c0,0.6-0.2,0.9-0.6,1.2
				c0.4,0.3,0.6,0.6,0.6,1.2v1.4c0,0.8-0.4,1.1-0.8,1.3H354.4z"/>
		</g>
	</g>
	<g>
		<g>
			<circle class="st4" cx="330.2" cy="119.3" r="8.5"/>
			<circle class="st5" cx="330.2" cy="119.3" r="8.5"/>
		</g>
		<g>
			<path class="st6" d="M326.2,123.2v-1.6h1v-4.5h-0.9v-1.6h2.6v6.1h0.9v1.6H326.2z"/>
			<path class="st6" d="M334.2,121.7v1.5h-1.7v-1.5h-2.2v-1.5l1.6-4.7h1.7l-1.6,4.6h0.5v-0.4l0.4-1h1.3v1.4h0.5v1.6H334.2z"/>
		</g>
	</g>
</g>
<g id="SPEED_x5F_TRAP">
	<g>
		<circle class="st7" cx="290" cy="80.8" r="4.7"/>
		<circle class="st8" cx="290" cy="80.8" r="4.7"/>
	</g>
	<g>
		<g>
			<path class="st8" d="M312.5,36.1c0,0.8-0.6,1.4-1.4,1.4h-42.2c-0.8,0-1.4-0.6-1.4-1.4V1.4c0-0.8,0.6-1.4,1.4-1.4h42.2
				c0.8,0,1.4,0.6,1.4,1.4V36.1z"/>
		</g>
		<g>
			<path class="st6" d="M279.6,12.9v2.7c0,1.3-0.6,1.7-1.3,2h-3.9c-0.7-0.3-1.3-0.7-1.3-2v-2.4h2.7v2l0.2,0.2h0.8l0.2-0.2v-1.8
				l-0.1-0.2l-2.7-1.2c-0.8-0.4-0.9-0.9-0.9-1.8V7.7c0-1.3,0.6-1.7,1.3-2h3.9c0.7,0.3,1.3,0.7,1.3,2v2.2H277V8l-0.2-0.2H276L275.8,8
				v1.7L276,10l2.7,1.1C279.5,11.4,279.6,12,279.6,12.9z"/>
			<path class="st6" d="M283,13.5v4.2h-2.7v-12h5.2c0.7,0.3,1.3,0.7,1.3,2v3.8c0,1.3-0.6,1.7-1.3,2H283z M283,7.8v3.5h1l0.2-0.2V8
				L284,7.8H283z"/>
			<path class="st6" d="M287.5,5.7h5.5v2.5h-2.8v2.2h2.7v2.5h-2.7v2.3h2.9v2.5h-5.6V5.7z"/>
			<path class="st6" d="M293.9,5.7h5.5v2.5h-2.8v2.2h2.7v2.5h-2.7v2.3h2.9v2.5h-5.6V5.7z"/>
			<path class="st6" d="M306.8,15.7c0,1.3-0.6,1.7-1.3,2h-5.2v-12h5.2c0.7,0.3,1.3,0.7,1.3,2V15.7z M303,7.8v7.7h1l0.2-0.2V8
				L304,7.8H303z"/>
			<path class="st6" d="M280.5,22.3v9.5h-2.7v-9.5H276v-2.5h6.5v2.5H280.5z"/>
			<path class="st6" d="M283,31.8v-12h5.2c0.7,0.3,1.3,0.7,1.3,2v2.5c0,1.1-0.5,1.6-1.1,1.9l1.4,3.8v1.7h-2.3l-1.5-4.7h-0.3v4.7H283
				z M285.6,22v3h1l0.2-0.2v-2.7l-0.2-0.2H285.6z"/>
			<path class="st6" d="M294,29.5h-1.3l-0.2,2.3h-2.5v-2l1.5-10h3.6l1.5,10v2h-2.5L294,29.5z M293,27h0.8l-0.3-3.8h-0.2L293,27z"/>
			<path class="st6" d="M300.1,27.7v4.2h-2.7v-12h5.2c0.7,0.3,1.3,0.7,1.3,2v3.8c0,1.3-0.6,1.7-1.3,2H300.1z M300.1,22v3.5h1
				l0.2-0.2v-3.2l-0.2-0.2H300.1z"/>
		</g>
	</g>
	<g>
		<line class="st9" x1="290" y1="80.8" x2="290" y2="37.5"/>
	</g>
</g>
<g id="DRS">
	<g>
		<circle class="st7" cx="156" cy="108.8" r="4.7"/>
		<circle class="st10" cx="156" cy="108.8" r="4.7"/>
	</g>
	<g>
		<g>
			<path class="st10" d="M87.6,133.2c0,0.8-0.6,1.4-1.4,1.4H18.6c-0.8,0-1.4-0.6-1.4-1.4V84.4c0-0.8,0.6-1.4,1.4-1.4h67.6
				c0.8,0,1.4,0.6,1.4,1.4V133.2z"/>
		</g>
		<g>
			<path class="st6" d="M48.4,98.6c0,1.3-0.6,1.7-1.3,2h-5.2v-12h5.2c0.7,0.3,1.3,0.7,1.3,2V98.6z M44.6,90.8v7.7h1l0.2-0.2V91
				l-0.2-0.2H44.6z"/>
			<path class="st6" d="M49.2,100.6v-12h5.2c0.7,0.3,1.3,0.7,1.3,2v2.5c0,1.1-0.5,1.6-1.1,1.9L56,99v1.7h-2.3L52.2,96h-0.3v4.7H49.2
				z M51.9,90.8v3h1l0.2-0.2V91l-0.2-0.2H51.9z"/>
			<path class="st6" d="M62.9,95.9v2.7c0,1.3-0.6,1.7-1.3,2h-3.9c-0.7-0.3-1.3-0.7-1.3-2v-2.4h2.7v2l0.2,0.2h0.8l0.2-0.2v-1.8
				l-0.2-0.2L57.4,95c-0.8-0.4-0.9-0.9-0.9-1.8v-2.5c0-1.3,0.6-1.7,1.3-2h3.9c0.7,0.3,1.3,0.7,1.3,2v2.2h-2.7V91l-0.2-0.2h-0.8
				L59.1,91v1.7l0.2,0.3l2.7,1.1C62.8,94.4,62.9,95,62.9,95.9z"/>
			<path class="st6" d="M29.3,112.8c0,1.3-0.6,1.7-1.3,2h-5.2v-12H28c0.7,0.3,1.3,0.7,1.3,2V112.8z M25.5,105v7.7h1l0.2-0.2v-7.3
				l-0.2-0.2H25.5z"/>
			<path class="st6" d="M30.2,102.8h5.5v2.5h-2.8v2.2h2.7v2.5h-2.7v2.3h2.9v2.5h-5.6V102.8z"/>
			<path class="st6" d="M40.8,105.3v9.5h-2.7v-9.5h-1.9v-2.5h6.5v2.5H40.8z"/>
			<path class="st6" d="M43.2,102.8h5.5v2.5h-2.8v2.2h2.7v2.5h-2.7v2.3h2.9v2.5h-5.6V102.8z"/>
			<path class="st6" d="M56.1,112.8c0,1.3-0.6,1.7-1.3,2h-3.9c-0.7-0.3-1.3-0.7-1.3-2v-8c0-1.3,0.6-1.7,1.3-2h3.9
				c0.7,0.3,1.3,0.7,1.3,2v2.9h-2.7v-2.6l-0.2-0.2h-0.8l-0.2,0.2v7.3l0.2,0.2h0.8l0.2-0.2V110h2.7V112.8z"/>
			<path class="st6" d="M61.2,105.3v9.5h-2.7v-9.5h-1.9v-2.5h6.5v2.5H61.2z"/>
			<path class="st6" d="M63.6,114.8v-2.5h0.5v-7h-0.5v-2.5h3.7v2.5h-0.5v7h0.5v2.5H63.6z"/>
			<path class="st6" d="M74.6,112.8c0,1.3-0.6,1.7-1.3,2h-3.9c-0.7-0.3-1.3-0.7-1.3-2v-8c0-1.3,0.6-1.7,1.3-2h3.9
				c0.7,0.3,1.3,0.7,1.3,2V112.8z M71.9,105.2l-0.2-0.2h-0.8l-0.2,0.2v7.3l0.2,0.2h0.8l0.2-0.2V105.2z"/>
			<path class="st6" d="M79.6,102.8h2.3v12h-2.3l-1.7-5.2h-0.2v5.2h-2.3v-12h2.3l1.7,5.2h0.2V102.8z"/>
			<path class="st6" d="M37.2,119.5h-3.5V117h6.5v2.2l-3.5,7.3h3.5v2.5h-6.5v-2.2L37.2,119.5z"/>
			<path class="st6" d="M47.5,127c0,1.3-0.6,1.7-1.3,2h-3.9c-0.7-0.3-1.3-0.7-1.3-2v-8c0-1.3,0.6-1.7,1.3-2h3.9
				c0.7,0.3,1.3,0.7,1.3,2V127z M44.8,119.3l-0.2-0.2h-0.8l-0.2,0.2v7.3l0.2,0.2h0.8l0.2-0.2V119.3z"/>
			<path class="st6" d="M52.5,117h2.3v12h-2.3l-1.7-5.2h-0.2v5.2h-2.3v-12h2.3l1.7,5.2h0.2V117z"/>
			<path class="st6" d="M55.7,117h5.5v2.5h-2.8v2.2H61v2.5h-2.7v2.3h2.9v2.5h-5.6V117z"/>
			<path class="st6" d="M64.6,129v-4c0-0.9,0.2-1.5,0.9-1.8l2.9-1.3v-2.5l-0.2-0.2h-0.8l-0.2,0.2v1.7h-2.7V119c0-1.3,0.6-1.7,1.3-2
				h3.9c0.7,0.3,1.3,0.7,1.3,2v3c0,0.9-0.1,1.5-0.9,1.8l-2.9,1.3v1.3h3.8v2.5H64.6z"/>
		</g>
	</g>
	<g>
		<circle class="st7" cx="354.6" cy="201.3" r="4.7"/>
		<circle class="st10" cx="354.6" cy="201.3" r="4.7"/>
	</g>
	<g>
		<g>
			<path class="st10" d="M557.9,273.6c0,0.8-0.6,1.4-1.4,1.4h-67.6c-0.8,0-1.4-0.6-1.4-1.4v-48.8c0-0.8,0.6-1.4,1.4-1.4h67.6
				c0.8,0,1.4,0.6,1.4,1.4V273.6z"/>
		</g>
		<g>
			<path class="st6" d="M518.7,239c0,1.3-0.6,1.7-1.3,2h-5.2v-12h5.2c0.7,0.3,1.3,0.7,1.3,2V239z M514.8,231.2v7.7h1l0.2-0.2v-7.3
				l-0.2-0.2H514.8z"/>
			<path class="st6" d="M519.5,241v-12h5.2c0.7,0.3,1.3,0.7,1.3,2v2.5c0,1.1-0.5,1.6-1.1,1.9l1.4,3.8v1.7H524l-1.5-4.7h-0.3v4.7
				H519.5z M522.2,231.2v3h1l0.2-0.2v-2.7l-0.2-0.2H522.2z"/>
			<path class="st6" d="M533.2,236.3v2.7c0,1.3-0.6,1.7-1.3,2H528c-0.7-0.3-1.3-0.7-1.3-2v-2.4h2.7v2l0.2,0.2h0.8l0.2-0.2v-1.8
				l-0.1-0.2l-2.7-1.2c-0.8-0.4-0.9-0.9-0.9-1.8V231c0-1.3,0.6-1.7,1.3-2h3.9c0.7,0.3,1.3,0.7,1.3,2v2.2h-2.7v-1.9l-0.2-0.2h-0.8
				l-0.2,0.2v1.7l0.2,0.3l2.7,1.1C533.1,234.8,533.2,235.4,533.2,236.3z"/>
			<path class="st6" d="M499.6,253.2c0,1.3-0.6,1.7-1.3,2h-5.2v-12h5.2c0.7,0.3,1.3,0.7,1.3,2V253.2z M495.8,245.3v7.7h1l0.2-0.2
				v-7.3l-0.2-0.2H495.8z"/>
			<path class="st6" d="M500.4,243.2h5.5v2.5h-2.8v2.2h2.7v2.5h-2.7v2.3h2.9v2.5h-5.6V243.2z"/>
			<path class="st6" d="M511.1,245.7v9.5h-2.7v-9.5h-1.9v-2.5h6.5v2.5H511.1z"/>
			<path class="st6" d="M513.5,243.2h5.5v2.5h-2.8v2.2h2.7v2.5h-2.7v2.3h2.9v2.5h-5.6V243.2z"/>
			<path class="st6" d="M526.4,253.2c0,1.3-0.6,1.7-1.3,2h-3.9c-0.7-0.3-1.3-0.7-1.3-2v-8c0-1.3,0.6-1.7,1.3-2h3.9
				c0.7,0.3,1.3,0.7,1.3,2v2.9h-2.7v-2.6l-0.2-0.2h-0.8l-0.2,0.2v7.3l0.2,0.2h0.8l0.2-0.2v-2.5h2.7V253.2z"/>
			<path class="st6" d="M531.5,245.7v9.5h-2.7v-9.5h-1.9v-2.5h6.5v2.5H531.5z"/>
			<path class="st6" d="M533.9,255.2v-2.5h0.5v-7h-0.5v-2.5h3.7v2.5H537v7h0.5v2.5H533.9z"/>
			<path class="st6" d="M544.9,253.2c0,1.3-0.6,1.7-1.3,2h-3.9c-0.7-0.3-1.3-0.7-1.3-2v-8c0-1.3,0.6-1.7,1.3-2h3.9
				c0.7,0.3,1.3,0.7,1.3,2V253.2z M542.2,245.5l-0.2-0.2h-0.8l-0.2,0.2v7.3l0.2,0.2h0.8l0.2-0.2V245.5z"/>
			<path class="st6" d="M549.9,243.2h2.3v12h-2.3l-1.7-5.2H548v5.2h-2.3v-12h2.3l1.7,5.2h0.2V243.2z"/>
			<path class="st6" d="M507.5,259.8H504v-2.5h6.5v2.2l-3.5,7.3h3.5v2.5H504v-2.2L507.5,259.8z"/>
			<path class="st6" d="M517.8,267.3c0,1.3-0.6,1.7-1.3,2h-3.9c-0.7-0.3-1.3-0.7-1.3-2v-8c0-1.3,0.6-1.7,1.3-2h3.9
				c0.7,0.3,1.3,0.7,1.3,2V267.3z M515.1,259.7l-0.2-0.2h-0.8l-0.2,0.2v7.3l0.2,0.2h0.8l0.2-0.2V259.7z"/>
			<path class="st6" d="M522.8,257.4h2.3v12h-2.3l-1.7-5.2h-0.2v5.2h-2.3v-12h2.3l1.7,5.2h0.2V257.4z"/>
			<path class="st6" d="M525.9,257.4h5.5v2.5h-2.8v2.2h2.7v2.5h-2.7v2.3h2.9v2.5h-5.6V257.4z"/>
			<path class="st6" d="M535.4,269.3v-2.5h1.5v-7h-1.3v-2.5h4v9.5h1.3v2.5H535.4z"/>
		</g>
	</g>
	<g>
		<line class="st11" x1="87.6" y1="108.8" x2="156" y2="108.8"/>
	</g>
	<g>
		<path class="st11" d="M354.6,201.3v42.1c0,4.7,3.8,8.5,8.5,8.5h124.4"/>
	</g>
	<g>
		<g>
			<g>
				<g>
					<line class="st12" x1="294.5" y1="236.1" x2="297.3" y2="224.8"/>
				</g>
				<g>
					<path class="st10" d="M290.5,229c0.2-0.6,0.8-0.9,1.4-0.8c0.6,0.2,0.9,0.8,0.8,1.4c-0.2,0.6-0.8,0.9-1.4,0.8
						C290.7,230.2,290.3,229.6,290.5,229z"/>
				</g>
				<g>
					<path class="st10" d="M286.2,227.7c0.2-0.6,0.8-0.9,1.4-0.7c0.6,0.2,0.9,0.8,0.8,1.4c-0.2,0.6-0.8,0.9-1.4,0.7
						C286.3,228.9,286,228.3,286.2,227.7z"/>
				</g>
				<g>
					<path class="st10" d="M281.9,226.4c0.2-0.6,0.8-0.9,1.4-0.7c0.6,0.2,0.9,0.8,0.7,1.4s-0.8,0.9-1.4,0.7
						C282.1,227.6,281.7,227,281.9,226.4z"/>
				</g>
				<g>
					<path class="st10" d="M277.7,225c0.2-0.6,0.8-0.9,1.4-0.7c0.6,0.2,0.9,0.8,0.7,1.4c-0.2,0.6-0.8,0.9-1.4,0.7
						C277.8,226.2,277.5,225.6,277.7,225z"/>
				</g>
				<g>
					<path class="st10" d="M273.4,223.5c0.2-0.6,0.8-0.9,1.4-0.7c0.6,0.2,0.9,0.8,0.7,1.4c-0.2,0.6-0.8,0.9-1.4,0.7
						C273.5,224.8,273.2,224.1,273.4,223.5z"/>
				</g>
				<g>
					<path class="st10" d="M269.2,222.1c0.2-0.6,0.8-0.9,1.4-0.7c0.6,0.2,0.9,0.8,0.7,1.4c-0.2,0.6-0.8,0.9-1.4,0.7
						C269.3,223.3,269,222.6,269.2,222.1z"/>
				</g>
				<g>
					<path class="st10" d="M265,220.5c0.2-0.6,0.9-0.9,1.4-0.7c0.6,0.2,0.9,0.8,0.7,1.4s-0.8,0.9-1.4,0.7
						C265.1,221.7,264.8,221.1,265,220.5z"/>
				</g>
				<g>
					<path class="st10" d="M260.8,219c0.2-0.6,0.9-0.9,1.4-0.6c0.6,0.2,0.9,0.9,0.7,1.4c-0.2,0.6-0.9,0.9-1.4,0.6
						C260.9,220.2,260.6,219.5,260.8,219z"/>
				</g>
				<g>
					<path class="st10" d="M256.6,217.4c0.2-0.6,0.9-0.8,1.4-0.6s0.9,0.9,0.6,1.4c-0.2,0.6-0.9,0.8-1.4,0.6S256.4,217.9,256.6,217.4
						z"/>
				</g>
				<g>
					<path class="st10" d="M252.5,215.7c0.2-0.6,0.9-0.8,1.4-0.6c0.6,0.2,0.9,0.9,0.6,1.4c-0.2,0.6-0.9,0.8-1.4,0.6
						C252.5,216.9,252.3,216.3,252.5,215.7z"/>
				</g>
				<g>
					<path class="st10" d="M248.3,214c0.2-0.6,0.9-0.8,1.5-0.6c0.6,0.2,0.8,0.9,0.6,1.4c-0.2,0.6-0.9,0.8-1.5,0.6
						C248.4,215.3,248.1,214.6,248.3,214z"/>
				</g>
				<g>
					<path class="st10" d="M244.2,212.3c0.2-0.6,0.9-0.8,1.5-0.6c0.6,0.2,0.8,0.9,0.6,1.4c-0.2,0.6-0.9,0.8-1.5,0.6
						C244.2,213.5,244,212.9,244.2,212.3z"/>
				</g>
				<g>
					<path class="st10" d="M240.1,210.6c0.2-0.6,0.9-0.8,1.5-0.6s0.8,0.9,0.6,1.5c-0.2,0.6-0.9,0.8-1.5,0.6S239.9,211.1,240.1,210.6
						z"/>
				</g>
				<g>
					<path class="st10" d="M236,208.7c0.3-0.6,0.9-0.8,1.5-0.6s0.8,0.9,0.6,1.5c-0.2,0.6-0.9,0.8-1.5,0.6S235.8,209.3,236,208.7z"/>
				</g>
				<g>
					<path class="st10" d="M231.9,206.9c0.3-0.6,0.9-0.8,1.5-0.5s0.8,0.9,0.6,1.5c-0.3,0.6-0.9,0.8-1.5,0.5
						C231.9,208.1,231.7,207.4,231.9,206.9z"/>
				</g>
				<g>
					<path class="st10" d="M227.9,205c0.3-0.5,0.9-0.8,1.5-0.5c0.6,0.3,0.8,0.9,0.5,1.5c-0.3,0.6-0.9,0.8-1.5,0.5
						S227.6,205.5,227.9,205z"/>
				</g>
				<g>
					<path class="st10" d="M223.9,202.9c0.3-0.5,1-0.8,1.5-0.5c0.5,0.3,0.8,0.9,0.5,1.5c-0.3,0.5-0.9,0.8-1.5,0.5
						C223.8,204.2,223.6,203.5,223.9,202.9z"/>
				</g>
				<g>
					<path class="st10" d="M220,200.8c0.3-0.5,1-0.7,1.5-0.4s0.7,1,0.5,1.5c-0.3,0.5-1,0.7-1.5,0.4S219.7,201.4,220,200.8z"/>
				</g>
				<g>
					<path class="st10" d="M216.1,198.7c0.3-0.5,1-0.7,1.5-0.4c0.5,0.3,0.7,1,0.4,1.5c-0.3,0.5-1,0.7-1.5,0.4
						C215.9,199.9,215.8,199.2,216.1,198.7z"/>
				</g>
				<g>
					<path class="st10" d="M212.2,196.4c0.3-0.5,1-0.7,1.5-0.4c0.5,0.3,0.7,1,0.4,1.5c-0.3,0.5-1,0.7-1.5,0.4
						C212.1,197.6,211.9,196.9,212.2,196.4z"/>
				</g>
				<g>
					<path class="st10" d="M208.4,194c0.3-0.5,1-0.7,1.5-0.3c0.5,0.3,0.7,1,0.4,1.5c-0.3,0.5-1,0.7-1.5,0.4
						C208.2,195.2,208.1,194.5,208.4,194z"/>
				</g>
				<g>
					<path class="st10" d="M204.6,191.6c0.3-0.5,1-0.7,1.5-0.3c0.5,0.3,0.7,1,0.3,1.5c-0.3,0.5-1,0.7-1.5,0.3
						C204.5,192.8,204.3,192.1,204.6,191.6z"/>
				</g>
				<g>
					<path class="st10" d="M200.9,189.1c0.3-0.5,1-0.6,1.5-0.3s0.7,1,0.3,1.5c-0.3,0.5-1,0.6-1.5,0.3
						C200.7,190.3,200.6,189.7,200.9,189.1z"/>
				</g>
				<g>
					<path class="st10" d="M197.2,186.6c0.3-0.5,1-0.6,1.5-0.3c0.5,0.3,0.6,1,0.3,1.5c-0.3,0.5-1,0.6-1.6,0.3
						C197,187.8,196.9,187.1,197.2,186.6z"/>
				</g>
				<g>
					<path class="st10" d="M193.6,184c0.4-0.5,1.1-0.6,1.5-0.2c0.5,0.4,0.6,1,0.3,1.5c-0.4,0.5-1.1,0.6-1.6,0.2
						C193.3,185.2,193.2,184.5,193.6,184z"/>
				</g>
				<g>
					<path class="st10" d="M190,181.4c0.4-0.5,1.1-0.6,1.6-0.2c0.5,0.4,0.6,1.1,0.2,1.6c-0.4,0.5-1.1,0.6-1.6,0.2
						S189.6,181.8,190,181.4z"/>
				</g>
				<g>
					<path class="st10" d="M186.4,178.6c0.4-0.5,1.1-0.6,1.6-0.2c0.5,0.4,0.6,1.1,0.2,1.6c-0.4,0.5-1.1,0.6-1.6,0.2
						C186.2,179.8,186.1,179.1,186.4,178.6z"/>
				</g>
				<g>
					<path class="st10" d="M183,175.8c0.4-0.5,1.1-0.5,1.6-0.1c0.5,0.4,0.6,1.1,0.2,1.6c-0.4,0.5-1.1,0.5-1.6,0.1
						C182.6,177,182.6,176.3,183,175.8z"/>
				</g>
				<g>
					<path class="st10" d="M179.6,172.8c0.4-0.4,1.1-0.5,1.6-0.1c0.4,0.4,0.5,1.1,0.1,1.6c-0.4,0.5-1.1,0.5-1.6,0.1
						C179.2,174,179.2,173.3,179.6,172.8z"/>
				</g>
				<g>
					<path class="st10" d="M176.4,169.7c0.4-0.4,1.1-0.4,1.6,0c0.4,0.4,0.4,1.1,0,1.6c-0.4,0.4-1.1,0.4-1.6,0
						C176,170.8,176,170.1,176.4,169.7z"/>
				</g>
				<g>
					<path class="st10" d="M173.4,166.5c0.4-0.4,1.1-0.4,1.6,0.1c0.4,0.4,0.4,1.1,0,1.6c-0.4,0.4-1.2,0.4-1.6-0.1
						C172.9,167.6,172.9,166.9,173.4,166.5z"/>
				</g>
				<g>
					<path class="st10" d="M170.3,163.2c0.5-0.4,1.2-0.4,1.6,0.1c0.4,0.5,0.4,1.2-0.1,1.6c-0.5,0.4-1.2,0.4-1.6-0.1
						C169.9,164.3,169.9,163.6,170.3,163.2z"/>
				</g>
				<g>
					<path class="st10" d="M167.4,159.8c0.5-0.4,1.2-0.4,1.6,0.1c0.4,0.5,0.4,1.2-0.1,1.6c-0.5,0.4-1.2,0.4-1.6-0.1
						C166.9,160.9,166.9,160.2,167.4,159.8z"/>
				</g>
				<g>
					<line class="st12" x1="160.8" y1="161.1" x2="169.5" y2="153.5"/>
				</g>
			</g>
		</g>
	</g>
	<g>
		<g>
			<g>
				<g>
					<line class="st12" x1="119.5" y1="27" x2="118.4" y2="38.5"/>
				</g>
				<g>
					<path class="st10" d="M124.4,33.2c0,0.6-0.6,1.1-1.2,1c-0.6,0-1.1-0.6-1-1.2c0-0.6,0.6-1.1,1.2-1
						C124,32.1,124.4,32.6,124.4,33.2z"/>
				</g>
				<g>
					
						<ellipse transform="matrix(7.255343e-02 -0.9974 0.9974 7.255343e-02 85.0743 158.3779)" class="st10" cx="127.7" cy="33.4" rx="1.1" ry="1.1"/>
				</g>
				<g>
					<path class="st10" d="M133.2,33.8c0,0.6-0.6,1.1-1.2,1c-0.6,0-1.1-0.6-1-1.2c0-0.6,0.6-1.1,1.2-1
						C132.8,32.7,133.2,33.2,133.2,33.8z"/>
				</g>
				<g>
					<path class="st10" d="M137.6,34.1c0,0.6-0.6,1.1-1.2,1c-0.6,0-1.1-0.6-1-1.2c0-0.6,0.6-1.1,1.2-1
						C137.2,33,137.6,33.5,137.6,34.1z"/>
				</g>
				<g>
					<path class="st10" d="M142,34.4c0,0.6-0.6,1.1-1.2,1c-0.6,0-1.1-0.6-1-1.2c0-0.6,0.6-1.1,1.2-1C141.6,33.3,142,33.8,142,34.4z"
						/>
				</g>
				<g>
					<path class="st10" d="M146.4,34.7c0,0.6-0.6,1.1-1.2,1s-1.1-0.6-1-1.2c0-0.6,0.6-1.1,1.2-1S146.4,34.1,146.4,34.7z"/>
				</g>
				<g>
					<path class="st10" d="M150.8,35.1c0,0.6-0.6,1.1-1.2,1c-0.6,0-1.1-0.6-1-1.2c0-0.6,0.6-1.1,1.2-1
						C150.3,33.9,150.8,34.5,150.8,35.1z"/>
				</g>
				<g>
					<path class="st10" d="M155.1,35.4c-0.1,0.6-0.6,1.1-1.2,1c-0.6-0.1-1.1-0.6-1-1.2c0-0.6,0.6-1.1,1.2-1
						C154.7,34.3,155.2,34.8,155.1,35.4z"/>
				</g>
				<g>
					<path class="st10" d="M159.5,35.8c-0.1,0.6-0.6,1.1-1.2,1c-0.6-0.1-1-0.6-1-1.2c0.1-0.6,0.6-1.1,1.2-1
						C159.1,34.7,159.6,35.2,159.5,35.8z"/>
				</g>
				<g>
					<path class="st10" d="M163.9,36.3c-0.1,0.6-0.6,1-1.2,1c-0.6-0.1-1-0.6-1-1.2c0.1-0.6,0.6-1.1,1.2-1
						C163.6,35.1,164,35.7,163.9,36.3z"/>
				</g>
				<g>
					<path class="st10" d="M168.3,37c-0.1,0.6-0.7,1-1.3,0.9c-0.6-0.1-1-0.7-0.9-1.3c0.1-0.6,0.7-1,1.3-0.9
						C168,35.8,168.4,36.4,168.3,37z"/>
				</g>
				<g>
					<path class="st10" d="M172.6,37.9c-0.1,0.6-0.7,1-1.3,0.9c-0.6-0.1-1-0.7-0.9-1.3c0.1-0.6,0.7-1,1.3-0.9
						C172.3,36.7,172.7,37.3,172.6,37.9z"/>
				</g>
				<g>
					<path class="st10" d="M176.9,38.8c-0.1,0.6-0.7,1-1.3,0.8c-0.6-0.1-1-0.7-0.8-1.3c0.1-0.6,0.7-1,1.3-0.8
						C176.6,37.6,177,38.2,176.9,38.8z"/>
				</g>
				<g>
					<path class="st10" d="M181.2,39.7c-0.1,0.6-0.7,1-1.3,0.8c-0.6-0.1-1-0.7-0.8-1.3c0.1-0.6,0.7-1,1.3-0.8
						C180.9,38.6,181.3,39.1,181.2,39.7z"/>
				</g>
				<g>
					<path class="st10" d="M185.5,40.7c-0.1,0.6-0.7,1-1.3,0.8c-0.6-0.1-1-0.7-0.8-1.3s0.7-1,1.3-0.8
						C185.2,39.5,185.6,40.1,185.5,40.7z"/>
				</g>
				<g>
					<path class="st10" d="M189.8,41.6c-0.1,0.6-0.7,1-1.3,0.8c-0.6-0.1-1-0.7-0.8-1.3s0.7-1,1.3-0.8
						C189.5,40.5,189.9,41,189.8,41.6z"/>
				</g>
				<g>
					<path class="st10" d="M194.1,42.6c-0.1,0.6-0.7,1-1.3,0.8c-0.6-0.1-1-0.7-0.8-1.3c0.1-0.6,0.7-1,1.3-0.8
						C193.8,41.4,194.2,42,194.1,42.6z"/>
				</g>
				<g>
					<path class="st10" d="M198.4,43.6c-0.1,0.6-0.7,1-1.3,0.8c-0.6-0.1-1-0.7-0.8-1.3c0.1-0.6,0.7-1,1.3-0.8S198.5,43,198.4,43.6z"
						/>
				</g>
				<g>
					<path class="st10" d="M202.7,44.5c-0.1,0.6-0.7,1-1.3,0.8c-0.6-0.1-1-0.7-0.8-1.3c0.1-0.6,0.7-1,1.3-0.8S202.8,43.9,202.7,44.5
						z"/>
				</g>
				<g>
					<path class="st10" d="M207,45.5c-0.1,0.6-0.7,1-1.3,0.8c-0.6-0.1-1-0.7-0.8-1.3c0.1-0.6,0.7-1,1.3-0.8
						C206.7,44.3,207.1,44.9,207,45.5z"/>
				</g>
				<g>
					<path class="st10" d="M211.3,46.5c-0.1,0.6-0.7,1-1.3,0.8c-0.6-0.1-1-0.7-0.8-1.3c0.1-0.6,0.7-1,1.3-0.8
						C211,45.3,211.4,45.9,211.3,46.5z"/>
				</g>
				<g>
					<path class="st10" d="M215.5,47.4c-0.1,0.6-0.7,1-1.3,0.8c-0.6-0.1-1-0.7-0.8-1.3s0.7-1,1.3-0.8
						C215.3,46.3,215.7,46.8,215.5,47.4z"/>
				</g>
				<g>
					<path class="st10" d="M219.8,48.4c-0.1,0.6-0.7,1-1.3,0.8s-1-0.7-0.8-1.3c0.1-0.6,0.7-1,1.3-0.8
						C219.6,47.2,220,47.8,219.8,48.4z"/>
				</g>
				<g>
					
						<ellipse transform="matrix(0.2208 -0.9753 0.9753 0.2208 125.8934 255.854)" class="st10" cx="223.1" cy="49.1" rx="1.1" ry="1.1"/>
				</g>
				<g>
					<path class="st10" d="M228.4,50.4c-0.1,0.6-0.7,1-1.3,0.8c-0.6-0.1-1-0.7-0.8-1.3c0.1-0.6,0.7-1,1.3-0.8S228.6,49.8,228.4,50.4
						z"/>
				</g>
				<g>
					<path class="st10" d="M232.7,51.3c-0.1,0.6-0.7,1-1.3,0.8c-0.6-0.1-1-0.7-0.8-1.3c0.1-0.6,0.7-1,1.3-0.8
						C232.5,50.1,232.9,50.7,232.7,51.3z"/>
				</g>
				<g>
					<path class="st10" d="M237,52.3c-0.1,0.6-0.7,1-1.3,0.8c-0.6-0.1-1-0.7-0.8-1.3c0.1-0.6,0.7-1,1.3-0.8
						C236.8,51.1,237.2,51.7,237,52.3z"/>
				</g>
				<g>
					<path class="st10" d="M241.3,53.3c-0.1,0.6-0.7,1-1.3,0.8c-0.6-0.1-1-0.7-0.8-1.3c0.1-0.6,0.7-1,1.3-0.8
						C241.1,52.1,241.4,52.7,241.3,53.3z"/>
				</g>
				<g>
					<path class="st10" d="M245.6,54.3c-0.1,0.6-0.7,1-1.3,0.8c-0.6-0.1-1-0.7-0.8-1.3s0.7-1,1.3-0.8
						C245.4,53.1,245.7,53.7,245.6,54.3z"/>
				</g>
				<g>
					<path class="st10" d="M249.9,55.2c-0.1,0.6-0.7,1-1.3,0.8c-0.6-0.1-1-0.7-0.8-1.3c0.1-0.6,0.7-1,1.3-0.8
						C249.7,54.1,250,54.6,249.9,55.2z"/>
				</g>
				<g>
					
						<ellipse transform="matrix(0.2161 -0.9764 0.9764 0.2161 143.8091 291.013)" class="st10" cx="253.1" cy="55.9" rx="1.1" ry="1.1"/>
				</g>
				<g>
					<path class="st10" d="M258.5,57.1c-0.1,0.6-0.7,1-1.3,0.8c-0.6-0.1-1-0.7-0.8-1.3c0.1-0.6,0.7-1,1.3-0.8
						C258.3,55.9,258.6,56.5,258.5,57.1z"/>
				</g>
				<g>
					<path class="st10" d="M262.8,58.1c-0.1,0.6-0.7,1-1.3,0.8s-1-0.7-0.8-1.3c0.1-0.6,0.7-1,1.3-0.8S262.9,57.5,262.8,58.1z"/>
				</g>
				<g>
					<path class="st10" d="M267.1,59c-0.1,0.6-0.7,1-1.3,0.8c-0.6-0.1-1-0.7-0.8-1.3c0.1-0.6,0.7-1,1.3-0.8
						C266.9,57.8,267.2,58.4,267.1,59z"/>
				</g>
				<g>
					<path class="st10" d="M271.4,60c-0.1,0.6-0.7,1-1.3,0.8c-0.6-0.1-1-0.7-0.8-1.3c0.1-0.6,0.7-1,1.3-0.8
						C271.2,58.8,271.5,59.4,271.4,60z"/>
				</g>
				<g>
					<path class="st10" d="M275.7,60.9c-0.1,0.6-0.7,1-1.3,0.8c-0.6-0.1-1-0.7-0.8-1.3c0.1-0.6,0.7-1,1.3-0.8
						C275.5,59.7,275.8,60.3,275.7,60.9z"/>
				</g>
				<g>
					<path class="st10" d="M280,61.9c-0.1,0.6-0.7,1-1.3,0.8s-1-0.7-0.8-1.3c0.1-0.6,0.7-1,1.3-0.8S280.1,61.3,280,61.9z"/>
				</g>
				<g>
					<path class="st10" d="M284.3,62.8c-0.1,0.6-0.7,1-1.3,0.8c-0.6-0.1-1-0.7-0.8-1.3c0.1-0.6,0.7-1,1.3-0.8
						C284.1,61.6,284.4,62.2,284.3,62.8z"/>
				</g>
				<g>
					<path class="st10" d="M288.6,63.8c-0.1,0.6-0.7,1-1.3,0.8s-1-0.7-0.8-1.3c0.1-0.6,0.7-1,1.3-0.8S288.7,63.2,288.6,63.8z"/>
				</g>
				<g>
					<path class="st10" d="M292.9,64.7c-0.1,0.6-0.7,1-1.3,0.8c-0.6-0.1-1-0.7-0.8-1.3c0.1-0.6,0.7-1,1.3-0.8
						C292.7,63.5,293,64.1,292.9,64.7z"/>
				</g>
				<g>
					<path class="st10" d="M297.2,65.6c-0.1,0.6-0.7,1-1.3,0.8s-1-0.7-0.8-1.3c0.1-0.6,0.7-1,1.3-0.8S297.3,65,297.2,65.6z"/>
				</g>
				<g>
					<path class="st10" d="M301.5,66.6c-0.1,0.6-0.7,1-1.3,0.8c-0.6-0.1-1-0.7-0.8-1.3c0.1-0.6,0.7-1,1.3-0.8
						C301.3,65.4,301.6,66,301.5,66.6z"/>
				</g>
				<g>
					<path class="st10" d="M305.8,67.5c-0.1,0.6-0.7,1-1.3,0.8s-1-0.7-0.8-1.3c0.1-0.6,0.7-1,1.3-0.8
						C305.6,66.4,305.9,66.9,305.8,67.5z"/>
				</g>
				<g>
					<path class="st10" d="M310.1,68.5c-0.1,0.6-0.7,1-1.3,0.8c-0.6-0.1-1-0.7-0.8-1.3c0.1-0.6,0.7-1,1.3-0.8
						C309.9,67.3,310.2,67.9,310.1,68.5z"/>
				</g>
				<g>
					<path class="st10" d="M314.4,69.4c-0.1,0.6-0.7,1-1.3,0.8c-0.6-0.1-1-0.7-0.8-1.3c0.1-0.6,0.7-1,1.3-0.8S314.5,68.8,314.4,69.4
						z"/>
				</g>
				<g>
					<path class="st10" d="M318.7,70.4c-0.1,0.6-0.7,1-1.3,0.8c-0.6-0.1-1-0.7-0.8-1.3c0.1-0.6,0.7-1,1.3-0.8
						C318.5,69.2,318.8,69.8,318.7,70.4z"/>
				</g>
				<g>
					<path class="st10" d="M323,71.3c-0.1,0.6-0.7,1-1.3,0.8c-0.6-0.1-1-0.7-0.8-1.3c0.1-0.6,0.7-1,1.3-0.8S323.1,70.7,323,71.3z"/>
				</g>
				<g>
					<path class="st10" d="M327.3,72.3c-0.1,0.6-0.7,1-1.3,0.8c-0.6-0.1-1-0.7-0.8-1.3c0.1-0.6,0.7-1,1.3-0.8
						C327.1,71.1,327.4,71.7,327.3,72.3z"/>
				</g>
				<g>
					<path class="st10" d="M331.6,73.2c-0.1,0.6-0.7,1-1.3,0.8c-0.6-0.1-1-0.7-0.8-1.3c0.1-0.6,0.7-1,1.3-0.8S331.7,72.6,331.6,73.2
						z"/>
				</g>
				<g>
					<line class="st12" x1="336.1" y1="68.3" x2="333.6" y2="79.6"/>
				</g>
			</g>
		</g>
	</g>
	<g>
		<g>
			<g>
				<g>
					<line class="st12" x1="363" y1="82.2" x2="360.5" y2="93.5"/>
				</g>
				<g>
					<path class="st10" d="M367.1,89.1c-0.1,0.6-0.7,1-1.3,0.8s-1-0.7-0.8-1.3s0.7-1,1.3-0.8S367.2,88.5,367.1,89.1z"/>
				</g>
				<g>
					<path class="st10" d="M371.4,90.1c-0.1,0.6-0.7,1-1.3,0.8c-0.6-0.1-1-0.7-0.8-1.3c0.1-0.6,0.7-1,1.3-0.8S371.5,89.5,371.4,90.1
						z"/>
				</g>
				<g>
					<path class="st10" d="M375.7,91.1c-0.1,0.6-0.7,1-1.3,0.8c-0.6-0.1-1-0.7-0.8-1.3c0.1-0.6,0.7-1,1.3-0.8S375.8,90.5,375.7,91.1
						z"/>
				</g>
				<g>
					<path class="st10" d="M380,92c-0.1,0.6-0.7,1-1.3,0.8s-1-0.7-0.8-1.3c0.1-0.6,0.7-1,1.3-0.8S380.1,91.4,380,92z"/>
				</g>
				<g>
					<path class="st10" d="M384.3,93c-0.1,0.6-0.7,1-1.3,0.8s-1-0.7-0.8-1.3c0.1-0.6,0.7-1,1.3-0.8S384.4,92.4,384.3,93z"/>
				</g>
				<g>
					<path class="st10" d="M388.5,94c-0.1,0.6-0.7,1-1.3,0.8c-0.6-0.1-1-0.7-0.8-1.3s0.7-1,1.3-0.8S388.7,93.4,388.5,94z"/>
				</g>
				<g>
					<path class="st10" d="M392.8,95c-0.1,0.6-0.7,1-1.3,0.8c-0.6-0.1-1-0.7-0.8-1.3c0.1-0.6,0.7-1,1.3-0.8
						C392.6,93.8,393,94.4,392.8,95z"/>
				</g>
				<g>
					<path class="st10" d="M397.1,95.9c-0.1,0.6-0.7,1-1.3,0.8c-0.6-0.1-1-0.7-0.8-1.3s0.7-1,1.3-0.8
						C396.9,94.8,397.2,95.3,397.1,95.9z"/>
				</g>
				<g>
					<path class="st10" d="M401.4,96.9c-0.1,0.6-0.7,1-1.3,0.8s-1-0.7-0.8-1.3c0.1-0.6,0.7-1,1.3-0.8
						C401.2,95.7,401.5,96.3,401.4,96.9z"/>
				</g>
				<g>
					<path class="st10" d="M405.7,97.9c-0.1,0.6-0.7,1-1.3,0.8c-0.6-0.1-1-0.7-0.8-1.3c0.1-0.6,0.7-1,1.3-0.8
						C405.5,96.7,405.8,97.3,405.7,97.9z"/>
				</g>
				<g>
					<path class="st10" d="M410,98.9c-0.1,0.6-0.7,1-1.3,0.8c-0.6-0.1-1-0.7-0.8-1.3c0.1-0.6,0.7-1,1.3-0.8
						C409.7,97.7,410.1,98.3,410,98.9z"/>
				</g>
				<g>
					<path class="st10" d="M414.3,99.9c-0.1,0.6-0.7,1-1.3,0.8s-1-0.7-0.8-1.3c0.1-0.6,0.7-1,1.3-0.8
						C414,98.7,414.4,99.3,414.3,99.9z"/>
				</g>
				<g>
					<path class="st10" d="M418.5,100.8c-0.1,0.6-0.7,1-1.3,0.8c-0.6-0.1-1-0.7-0.8-1.3c0.1-0.6,0.7-1,1.3-0.8
						C418.3,99.7,418.7,100.2,418.5,100.8z"/>
				</g>
				<g>
					<path class="st10" d="M422.8,101.8c-0.1,0.6-0.7,1-1.3,0.8c-0.6-0.1-1-0.7-0.8-1.3c0.1-0.6,0.7-1,1.3-0.8
						C422.6,100.6,423,101.2,422.8,101.8z"/>
				</g>
				<g>
					<path class="st10" d="M427.1,102.8c-0.1,0.6-0.7,1-1.3,0.8c-0.6-0.1-1-0.7-0.8-1.3c0.1-0.6,0.7-1,1.3-0.8
						C426.9,101.6,427.3,102.2,427.1,102.8z"/>
				</g>
				<g>
					<path class="st10" d="M431.4,103.8c-0.1,0.6-0.7,1-1.3,0.8c-0.6-0.1-1-0.7-0.8-1.3c0.1-0.6,0.7-1,1.3-0.8
						C431.2,102.6,431.5,103.2,431.4,103.8z"/>
				</g>
				<g>
					<path class="st10" d="M435.7,104.8c-0.1,0.6-0.7,1-1.3,0.8s-1-0.7-0.8-1.3c0.1-0.6,0.7-1,1.3-0.8
						C435.5,103.6,435.8,104.2,435.7,104.8z"/>
				</g>
				<g>
					<path class="st10" d="M440,105.7c-0.1,0.6-0.7,1-1.3,0.8c-0.6-0.1-1-0.7-0.8-1.3c0.1-0.6,0.7-1,1.3-0.8
						C439.7,104.5,440.1,105.1,440,105.7z"/>
				</g>
				<g>
					<path class="st10" d="M444.3,106.7c-0.1,0.6-0.7,1-1.3,0.8c-0.6-0.1-1-0.7-0.8-1.3c0.1-0.6,0.7-1,1.3-0.8
						C444,105.5,444.4,106.1,444.3,106.7z"/>
				</g>
				<g>
					<path class="st10" d="M448.6,107.7c-0.1,0.6-0.7,1-1.3,0.8c-0.6-0.1-1-0.7-0.8-1.3c0.1-0.6,0.7-1,1.3-0.8
						C448.3,106.5,448.7,107.1,448.6,107.7z"/>
				</g>
				<g>
					<path class="st10" d="M452.8,108.7c-0.1,0.6-0.7,1-1.3,0.8s-1-0.7-0.8-1.3c0.1-0.6,0.7-1,1.3-0.8
						C452.6,107.5,453,108.1,452.8,108.7z"/>
				</g>
				<g>
					<path class="st10" d="M457.1,109.6c-0.1,0.6-0.7,1-1.3,0.8s-1-0.7-0.8-1.3c0.1-0.6,0.7-1,1.3-0.8
						C456.9,108.5,457.3,109,457.1,109.6z"/>
				</g>
				<g>
					<path class="st10" d="M461.4,110.6c-0.1,0.6-0.7,1-1.3,0.8c-0.6-0.1-1-0.7-0.8-1.3s0.7-1,1.3-0.8
						C461.2,109.4,461.6,110,461.4,110.6z"/>
				</g>
				<g>
					<path class="st10" d="M465.7,111.7c-0.2,0.6-0.8,0.9-1.3,0.8c-0.6-0.2-0.9-0.8-0.8-1.3c0.2-0.6,0.8-0.9,1.3-0.8
						C465.5,110.5,465.8,111.1,465.7,111.7z"/>
				</g>
				<g>
					<path class="st10" d="M469.9,113c-0.2,0.6-0.8,0.9-1.4,0.7c-0.6-0.2-0.9-0.8-0.7-1.4s0.8-0.9,1.4-0.7
						C469.7,111.8,470.1,112.4,469.9,113z"/>
				</g>
				<g>
					<path class="st10" d="M474,114.5c-0.2,0.6-0.9,0.9-1.4,0.7c-0.6-0.2-0.9-0.8-0.7-1.4c0.2-0.6,0.8-0.9,1.4-0.7
						C473.9,113.3,474.2,113.9,474,114.5z"/>
				</g>
				<g>
					<path class="st10" d="M478.1,116.1c-0.2,0.6-0.9,0.8-1.4,0.6c-0.6-0.2-0.8-0.9-0.6-1.4c0.2-0.6,0.9-0.8,1.4-0.6
						C478.1,114.9,478.3,115.6,478.1,116.1z"/>
				</g>
				<g>
					<path class="st10" d="M482.1,118c-0.3,0.5-0.9,0.8-1.5,0.5c-0.5-0.3-0.8-0.9-0.5-1.5s0.9-0.8,1.5-0.5
						C482.1,116.8,482.3,117.5,482.1,118z"/>
				</g>
				<g>
					<path class="st10" d="M486,120c-0.3,0.5-1,0.7-1.5,0.5c-0.5-0.3-0.7-0.9-0.5-1.5c0.3-0.5,0.9-0.7,1.5-0.5
						C486.1,118.8,486.3,119.5,486,120z"/>
				</g>
				<g>
					<path class="st10" d="M489.8,122.2c-0.3,0.5-1,0.7-1.5,0.4c-0.5-0.3-0.7-1-0.4-1.5s1-0.7,1.5-0.4S490.1,121.7,489.8,122.2z"/>
				</g>
				<g>
					<path class="st10" d="M493.6,124.4c-0.3,0.5-1,0.7-1.5,0.4c-0.5-0.3-0.7-1-0.4-1.5s1-0.7,1.5-0.4S493.9,123.9,493.6,124.4z"/>
				</g>
				<g>
					<path class="st10" d="M497.4,126.6c-0.3,0.5-1,0.7-1.5,0.4c-0.5-0.3-0.7-1-0.4-1.5c0.3-0.5,1-0.7,1.5-0.4
						S497.7,126,497.4,126.6z"/>
				</g>
				<g>
					<path class="st10" d="M501.2,128.8c-0.3,0.5-1,0.7-1.5,0.4c-0.5-0.3-0.7-1-0.4-1.5c0.3-0.5,1-0.7,1.5-0.4
						S501.5,128.2,501.2,128.8z"/>
				</g>
				<g>
					<path class="st10" d="M505,131c-0.3,0.5-1,0.7-1.5,0.4c-0.5-0.3-0.7-1-0.4-1.5c0.3-0.5,1-0.7,1.5-0.4
						C505.2,129.7,505.4,130.4,505,131z"/>
				</g>
				<g>
					<line class="st12" x1="510.8" y1="127.6" x2="505" y2="137.6"/>
				</g>
			</g>
		</g>
	</g>
</g>
<g id="アイコン">
	<g>
		<g>
			<path class="st6" d="M374.8,296.1c0,1.6-1.3,2.8-2.8,2.8H3.2c-1.6,0-2.8-1.3-2.8-2.8v-24.9c0-1.6,1.3-2.8,2.8-2.8H372
				c1.6,0,2.8,1.3,2.8,2.8V296.1z"/>
			<path class="st13" d="M374.8,296.1c0,1.6-1.3,2.8-2.8,2.8H3.2c-1.6,0-2.8-1.3-2.8-2.8v-24.9c0-1.6,1.3-2.8,2.8-2.8H372
				c1.6,0,2.8,1.3,2.8,2.8V296.1z"/>
		</g>
		<g>
			<path class="st5" d="M45.9,285.1v2.6c0,1.3-0.6,1.7-1.3,2h-3.3c-0.7-0.3-1.3-0.7-1.3-2v-2h1.8v2.1l0.4,0.4h1.6l0.4-0.4V285
				l-0.3-0.4l-2.6-0.8c-0.8-0.3-1.1-0.8-1.1-1.9v-2.2c0-1.3,0.6-1.7,1.3-2h3.3c0.7,0.3,1.3,0.7,1.3,2v1.9h-1.8v-2.1l-0.4-0.4h-1.6
				l-0.4,0.4v2.4l0.4,0.4l2.6,0.7C45.5,283.4,45.9,283.9,45.9,285.1z"/>
			<path class="st5" d="M47.2,277.7h5.1v1.6H49v3.4h3.1v1.6H49v3.7h3.4v1.6h-5.2V277.7z"/>
			<path class="st5" d="M59.5,287.7c0,1.3-0.6,1.7-1.3,2h-3.3c-0.7-0.3-1.3-0.7-1.3-2v-8c0-1.3,0.6-1.7,1.3-2h3.3
				c0.7,0.3,1.3,0.7,1.3,2v2.7h-1.8v-2.8l-0.4-0.4h-1.6l-0.4,0.4v8.3l0.4,0.4h1.6l0.4-0.4v-2.7h1.8V287.7z"/>
			<path class="st5" d="M64.3,279.3v10.3h-1.8v-10.3h-2.1v-1.6h6.1v1.6H64.3z"/>
			<path class="st5" d="M73.2,287.7c0,1.3-0.6,1.7-1.3,2h-3.3c-0.7-0.3-1.3-0.7-1.3-2v-8c0-1.3,0.6-1.7,1.3-2h3.3
				c0.7,0.3,1.3,0.7,1.3,2V287.7z M71.4,279.5l-0.4-0.4h-1.6l-0.4,0.4v8.3l0.4,0.4H71l0.4-0.4V279.5z"/>
			<path class="st5" d="M74.6,289.7v-12h4.6c0.7,0.3,1.3,0.7,1.3,2v2.6c0,1.3-0.6,1.6-1.3,1.9l-0.3,0.1l2.1,4.3v1.1h-1.6l-2.2-5.1
				h-0.8v5.1H74.6z M76.4,279.2v3.9h2l0.4-0.4v-3.1l-0.4-0.4H76.4z"/>
			<path class="st5" d="M84.6,289.7V288h1.8v-8.7h-1.7v-1.6h3.5V288h1.7v1.6H84.6z"/>
		</g>
		<line class="st14" x1="14.5" y1="283.8" x2="35.8" y2="283.8"/>
		<g>
			<path class="st5" d="M136,285.1v2.6c0,1.3-0.6,1.7-1.3,2h-3.3c-0.7-0.3-1.3-0.7-1.3-2v-2h1.8v2.1l0.4,0.4h1.6l0.4-0.4V285
				l-0.3-0.4l-2.6-0.8c-0.8-0.3-1.1-0.8-1.1-1.9v-2.2c0-1.3,0.6-1.7,1.3-2h3.3c0.7,0.3,1.3,0.7,1.3,2v1.9h-1.8v-2.1l-0.4-0.4h-1.6
				l-0.4,0.4v2.4l0.4,0.4l2.6,0.7C135.6,283.4,136,283.9,136,285.1z"/>
			<path class="st5" d="M137.3,277.7h5.1v1.6h-3.3v3.4h3.1v1.6h-3.1v3.7h3.4v1.6h-5.2V277.7z"/>
			<path class="st5" d="M149.6,287.7c0,1.3-0.6,1.7-1.3,2H145c-0.7-0.3-1.3-0.7-1.3-2v-8c0-1.3,0.6-1.7,1.3-2h3.3
				c0.7,0.3,1.3,0.7,1.3,2v2.7h-1.8v-2.8l-0.4-0.4h-1.6l-0.4,0.4v8.3l0.4,0.4h1.6l0.4-0.4v-2.7h1.8V287.7z"/>
			<path class="st5" d="M154.4,279.3v10.3h-1.8v-10.3h-2.1v-1.6h6.1v1.6H154.4z"/>
			<path class="st5" d="M163.3,287.7c0,1.3-0.6,1.7-1.3,2h-3.3c-0.7-0.3-1.3-0.7-1.3-2v-8c0-1.3,0.6-1.7,1.3-2h3.3
				c0.7,0.3,1.3,0.7,1.3,2V287.7z M161.5,279.5l-0.4-0.4h-1.6l-0.4,0.4v8.3l0.4,0.4h1.6l0.4-0.4V279.5z"/>
			<path class="st5" d="M164.7,289.7v-12h4.6c0.7,0.3,1.3,0.7,1.3,2v2.6c0,1.3-0.6,1.6-1.3,1.9l-0.3,0.1l2.1,4.3v1.1h-1.6l-2.2-5.1
				h-0.8v5.1H164.7z M166.5,279.2v3.9h2l0.4-0.4v-3.1l-0.4-0.4H166.5z"/>
			<path class="st5" d="M174.4,289.7v-3.6c0-1.1,0.4-1.7,1.2-2.1l3-1.2v-3.2l-0.4-0.4h-1.7l-0.4,0.4v2h-1.8v-1.9
				c0-1.3,0.6-1.7,1.3-2h3.3c0.7,0.3,1.3,0.7,1.3,2v2.5c0,1.1-0.3,1.7-1.1,2.1l-3,1.2v2.5h4.1v1.6H174.4z"/>
		</g>
		<line class="st15" x1="104.6" y1="283.8" x2="125.9" y2="283.8"/>
		<g>
			<path class="st5" d="M225.8,285.1v2.6c0,1.3-0.6,1.7-1.3,2h-3.3c-0.7-0.3-1.3-0.7-1.3-2v-2h1.8v2.1l0.4,0.4h1.6l0.4-0.4V285
				l-0.3-0.4l-2.6-0.8c-0.8-0.3-1.1-0.8-1.1-1.9v-2.2c0-1.3,0.6-1.7,1.3-2h3.3c0.7,0.3,1.3,0.7,1.3,2v1.9H224v-2.1l-0.4-0.4H222
				l-0.4,0.4v2.4l0.4,0.4l2.6,0.7C225.4,283.4,225.8,283.9,225.8,285.1z"/>
			<path class="st5" d="M227.1,277.7h5.1v1.6h-3.3v3.4h3.1v1.6h-3.1v3.7h3.4v1.6h-5.2V277.7z"/>
			<path class="st5" d="M239.4,287.7c0,1.3-0.6,1.7-1.3,2h-3.3c-0.7-0.3-1.3-0.7-1.3-2v-8c0-1.3,0.6-1.7,1.3-2h3.3
				c0.7,0.3,1.3,0.7,1.3,2v2.7h-1.8v-2.8l-0.4-0.4h-1.6l-0.4,0.4v8.3l0.4,0.4h1.6l0.4-0.4v-2.7h1.8V287.7z"/>
			<path class="st5" d="M244.2,279.3v10.3h-1.8v-10.3h-2.1v-1.6h6.1v1.6H244.2z"/>
			<path class="st5" d="M253.1,287.7c0,1.3-0.6,1.7-1.3,2h-3.3c-0.7-0.3-1.3-0.7-1.3-2v-8c0-1.3,0.6-1.7,1.3-2h3.3
				c0.7,0.3,1.3,0.7,1.3,2V287.7z M251.3,279.5l-0.4-0.4h-1.6l-0.4,0.4v8.3l0.4,0.4h1.6l0.4-0.4V279.5z"/>
			<path class="st5" d="M254.5,289.7v-12h4.6c0.7,0.3,1.3,0.7,1.3,2v2.6c0,1.3-0.6,1.6-1.3,1.9l-0.3,0.1l2.1,4.3v1.1h-1.6l-2.2-5.1
				h-0.8v5.1H254.5z M256.3,279.2v3.9h2l0.4-0.4v-3.1l-0.4-0.4H256.3z"/>
			<path class="st5" d="M265.5,289.7c-0.7-0.3-1.3-0.7-1.3-2V286h1.8v1.8l0.4,0.4h1.7l0.4-0.4v-3.2l-0.4-0.3h-1.8v-1.4h1.8l0.4-0.4
				v-3l-0.4-0.4h-1.7l-0.4,0.4v1.8h-1.8v-1.7c0-1.3,0.6-1.7,1.3-2h3.3c0.7,0.3,1.3,0.7,1.3,2v1.9c0,1-0.2,1.5-0.9,1.9
				c0.6,0.4,0.9,0.9,0.9,1.9v2.2c0,1.3-0.6,1.7-1.3,2H265.5z"/>
		</g>
		<line class="st16" x1="194.5" y1="283.8" x2="215.7" y2="283.8"/>
		<g>
			<path class="st5" d="M315.7,287.7c0,1.3-0.6,1.7-1.3,2h-4.6v-12h4.6c0.7,0.3,1.3,0.7,1.3,2V287.7z M311.6,279.2v9h2l0.4-0.4v-8.3
				l-0.4-0.4H311.6z"/>
			<path class="st5" d="M317.1,289.7v-12h4.6c0.7,0.3,1.3,0.7,1.3,2v2.6c0,1.3-0.6,1.6-1.3,1.9l-0.3,0.1l2.1,4.3v1.1H322l-2.2-5.1
				h-0.8v5.1H317.1z M318.9,279.2v3.9h2l0.4-0.4v-3.1l-0.4-0.4H318.9z"/>
			<path class="st5" d="M330.1,285.1v2.6c0,1.3-0.6,1.7-1.3,2h-3.3c-0.7-0.3-1.3-0.7-1.3-2v-2h1.8v2.1l0.4,0.4h1.6l0.4-0.4V285
				l-0.3-0.4l-2.6-0.8c-0.8-0.3-1.1-0.8-1.1-1.9v-2.2c0-1.3,0.6-1.7,1.3-2h3.3c0.7,0.3,1.3,0.7,1.3,2v1.9h-1.8v-2.1l-0.4-0.4h-1.6
				l-0.4,0.4v2.4l0.4,0.4l2.6,0.7C329.8,283.4,330.1,283.9,330.1,285.1z"/>
			<path class="st5" d="M337.7,279.3h-3.9v-1.6h5.8v1.5l-4,8.9h4v1.6h-5.9v-1.5L337.7,279.3z"/>
			<path class="st5" d="M346.8,287.7c0,1.3-0.6,1.7-1.3,2h-3.3c-0.7-0.3-1.3-0.7-1.3-2v-8c0-1.3,0.6-1.7,1.3-2h3.3
				c0.7,0.3,1.3,0.7,1.3,2V287.7z M345,279.5l-0.4-0.4h-1.6l-0.4,0.4v8.3l0.4,0.4h1.6l0.4-0.4V279.5z"/>
			<path class="st5" d="M352.5,277.7h1.6v12h-1.6l-2.6-7.1h-0.2v7.1h-1.6v-12h1.6l2.6,7.1h0.2V277.7z"/>
			<path class="st5" d="M355.5,277.7h5.1v1.6h-3.3v3.4h3.1v1.6h-3.1v3.7h3.4v1.6h-5.2V277.7z"/>
		</g>
		<g>
			<g>
				<g>
					<g>
						<line class="st17" x1="285.8" y1="276.3" x2="285.8" y2="291.2"/>
					</g>
					<g>
						<ellipse class="st10" cx="291.9" cy="283.8" rx="1.5" ry="1.4"/>
					</g>
					<g>
						<ellipse class="st10" cx="297.9" cy="283.8" rx="1.5" ry="1.4"/>
					</g>
					<g>
						<line class="st17" x1="304" y1="276.3" x2="304" y2="291.2"/>
					</g>
				</g>
			</g>
		</g>
	</g>
	<g>
		
			<rect x="437.5" y="147.3" transform="matrix(0.2293 -0.9734 0.9734 0.2293 193.453 541.8251)" class="st5" width="2.8" height="2.8"/>
		
			<rect x="438.8" y="141.8" transform="matrix(0.2293 -0.9734 0.9734 0.2293 199.8261 538.8377)" class="st5" width="2.8" height="2.8"/>
		
			<rect x="440.9" y="145.2" transform="matrix(0.2293 -0.9734 0.9734 0.2293 198.1333 543.5179)" class="st5" width="2.8" height="2.8"/>
		
			<rect x="442.2" y="139.7" transform="matrix(0.2293 -0.9734 0.9734 0.2293 204.5064 540.5306)" class="st5" width="2.8" height="2.8"/>
		
			<rect x="446.4" y="146.5" transform="matrix(0.2293 -0.9734 0.9734 0.2293 201.1207 549.8911)" class="st5" width="2.8" height="2.8"/>
		
			<rect x="447.7" y="141" transform="matrix(0.2293 -0.9734 0.9734 0.2293 207.4938 546.9037)" class="st5" width="2.8" height="2.8"/>
		
			<rect x="440.1" y="136.3" transform="matrix(0.2293 -0.9734 0.9734 0.2293 206.1992 535.8503)" class="st5" width="2.8" height="2.8"/>
		
			<rect x="439.4" y="139.1" transform="matrix(0.2293 -0.9734 0.9734 0.2293 203.0127 537.344)" class="st6" width="2.8" height="2.8"/>
		
			<rect x="438.1" y="144.6" transform="matrix(0.2293 -0.9734 0.9734 0.2293 196.6396 540.3314)" class="st6" width="2.8" height="2.8"/>
		
			<rect x="440.2" y="148" transform="matrix(0.2293 -0.9734 0.9734 0.2293 194.9467 545.0117)" class="st6" width="2.8" height="2.8"/>
		
			<rect x="441.5" y="142.5" transform="matrix(0.2293 -0.9734 0.9734 0.2293 201.3198 542.0243)" class="st6" width="2.8" height="2.8"/>
		
			<rect x="442.8" y="136.9" transform="matrix(0.2293 -0.9734 0.9734 0.2293 207.6929 539.0369)" class="st6" width="2.8" height="2.8"/>
		
			<rect x="444.9" y="140.4" transform="matrix(0.2293 -0.9734 0.9734 0.2293 206.0001 543.7171)" class="st6" width="2.8" height="2.8"/>
		
			<rect x="443.6" y="145.9" transform="matrix(0.2293 -0.9734 0.9734 0.2293 199.627 546.7045)" class="st6" width="2.8" height="2.8"/>
		
			<rect x="450.5" y="141.7" transform="matrix(0.2293 -0.9734 0.9734 0.2293 208.9875 550.0902)" class="st6" width="2.8" height="2.8"/>
		
			<rect x="449.2" y="147.2" transform="matrix(0.2293 -0.9734 0.9734 0.2293 202.6144 553.0776)" class="st6" width="2.8" height="2.8"/>
		
			<rect x="445.7" y="149.3" transform="matrix(0.2293 -0.9734 0.9734 0.2293 197.9341 551.3848)" class="st6" width="2.8" height="2.8"/>
		
			<rect x="447" y="143.8" transform="matrix(0.2293 -0.9734 0.9734 0.2293 204.3072 548.3973)" class="st6" width="2.8" height="2.8"/>
		
			<rect x="448.3" y="138.2" transform="matrix(0.2293 -0.9734 0.9734 0.2293 210.6803 545.41)" class="st6" width="2.8" height="2.8"/>
		
			<rect x="443" y="148.6" transform="matrix(0.2293 -0.9734 0.9734 0.2293 196.4404 548.1982)" class="st5" width="2.8" height="2.8"/>
		
			<rect x="444.3" y="143.1" transform="matrix(0.2293 -0.9734 0.9734 0.2293 202.8135 545.2108)" class="st5" width="2.8" height="2.8"/>
		
			<rect x="449.8" y="144.4" transform="matrix(0.2293 -0.9734 0.9734 0.2293 205.8009 551.5839)" class="st5" width="2.8" height="2.8"/>
		
			<rect x="445.6" y="137.6" transform="matrix(0.2293 -0.9734 0.9734 0.2293 209.1866 542.2234)" class="st5" width="2.8" height="2.8"/>
		
			<rect x="448.5" y="149.9" transform="matrix(0.2293 -0.9734 0.9734 0.2293 199.4278 554.5713)" class="st5" width="2.8" height="2.8"/>
		
			<rect x="451.1" y="138.9" transform="matrix(0.2293 -0.9734 0.9734 0.2293 212.174 548.5965)" class="st5" width="2.8" height="2.8"/>
	</g>
	<g>
		<defs>
			
				<rect id="SVGID_1_" x="462.1" y="148" transform="matrix(-0.8349 -0.5504 0.5504 -0.8349 784.6361 539.8845)" width="22.3" height="8.5"/>
		</defs>
		<clipPath id="SVGID_00000029003678336232299340000003108956342907136671_">
			<use xlink:href="#SVGID_1_"  style="overflow:visible;"/>
		</clipPath>
		<g style="clip-path:url(#SVGID_00000029003678336232299340000003108956342907136671_);">
			<polygon class="st19" points="468.9,140.9 471.3,142.4 472.1,151.5 463.5,154.3 461.1,152.7 469.7,149.9 			"/>
			<polygon class="st20" points="473.6,144 476,145.6 476.8,154.6 468.2,157.4 465.8,155.8 474.5,153 			"/>
			<polygon class="st21" points="478.4,147.1 480.7,148.7 481.6,157.7 472.9,160.5 470.6,159 479.2,156.2 			"/>
		</g>
	</g>
</g>
</svg>
