<?xml version="1.0" encoding="UTF-8" standalone="no"?>
<svg id="svg4159" xmlns:rdf="http://www.w3.org/1999/02/22-rdf-syntax-ns#" xmlns="http://www.w3.org/2000/svg" height="560.31" viewBox="0 0 820 560.31481" width="820" version="1.1" xmlns:cc="http://creativecommons.org/ns#" xmlns:dc="http://purl.org/dc/elements/1.1/">
<g id="g4137" stroke-linejoin="round" transform="translate(35.109 199.21)">
<path id="path4133" d="m734.89 287.64c25.249-37.163 0.9989-87.402-51.141-77.231-17.09 3.3337-21.698 13.141-15.383 32.75 6.608 20.521 7.3378 20.224-44.507 18.133-23.113-0.93243-55.526-2.0716-72.029-2.5314-41.212-1.1484-130.96-5.7034-137.8-6.9934-6.5165-1.2287-7.4729-2.9562-16.392-29.568-9.1254-27.227-4.7296-30.372 36.538-26.126 67.153 6.9086 86.534-31.169 47.825-93.967-25.98-42.148-25.94-71.29 0.13445-97.456 19.737-19.807 28.928-21.34 100.44-16.749 63.317 4.0647 85.413 2.3622 106.16-8.179 32.144-16.334 23.857-23.35-50.54-42.798-66.883-17.484-64.296-17.2-101.7-11.184-16.013 2.575-38.995 5.571-51.072 6.6595s-31.631 3.5232-43.453 5.4078c-39.376 6.2774-51.705 2.7973-63.9-18.033-15.429-26.354 4.0646-42.818 24.295-20.518 16.825 18.546 27.71 18.822 39.343 1.0014 18.37-28.142-14.957-65.503-52.265-58.592-24.092 4.4628-38.278 19.982-50.745 55.516-4.0918 11.663-8.4615 23.784-9.71 26.936-1.2485 3.1526-22.509 62.328-47.246 131.5-76.283 213.31-77.421 216.41-80.327 219.12-4.3306 4.0457-3.2414 3.9372-83.633 8.2492-86.171 4.622-92.25 5.7986-108.64 21.014-1.8772 1.7429-3.7077 3.4905-4.0663 3.885-0.89413 0.98336 2.1188 7.5808 4.8128 10.538 2.9337 3.2204-2.1785 3.1161 89.291 1.8337 72.582-1.0177 129.46-1.0586 198.31-0.14039 24.416 0.32564 48.933 0.33492 189.09 0.0696 220.64-0.41748 206.23 0.33111 226.01-11.76 9.6983-5.9296 17.071-13.077 22.311-20.79z" stroke="#006400" stroke-width="80" fill="#006400"/>
<g fill="none">
<path id="path4136" d="m734.89 287.64c25.249-37.163 0.9989-87.402-51.141-77.231-17.09 3.3337-21.698 13.141-15.383 32.75 6.608 20.521 7.3378 20.224-44.507 18.133-23.113-0.93243-55.526-2.0716-72.029-2.5314-41.212-1.1484-130.96-5.7034-137.8-6.9934-6.5165-1.2287-7.4729-2.9562-16.392-29.568-9.1254-27.227-4.7296-30.372 36.538-26.126 67.153 6.9086 86.534-31.169 47.825-93.967-25.98-42.148-25.94-71.29 0.13445-97.456 19.737-19.807 28.928-21.34 100.44-16.749 63.317 4.0647 85.413 2.3622 106.16-8.179 32.144-16.334 23.857-23.35-50.54-42.798-66.883-17.484-64.296-17.2-101.7-11.184-16.013 2.575-38.995 5.571-51.072 6.6595s-31.631 3.5232-43.453 5.4078c-39.376 6.2774-51.705 2.7973-63.9-18.033-15.429-26.354 4.0646-42.818 24.295-20.518 16.825 18.546 27.71 18.822 39.343 1.0014 18.37-28.142-14.957-65.503-52.265-58.592-24.092 4.4628-38.278 19.982-50.745 55.516-4.0918 11.663-8.4615 23.784-9.71 26.936-1.2485 3.1526-22.509 62.328-47.246 131.5-76.283 213.31-77.421 216.41-80.327 219.12-4.3306 4.0457-3.2414 3.9372-83.633 8.2492-86.171 4.622-92.25 5.7986-108.64 21.014-1.8772 1.7429-3.7077 3.4905-4.0663 3.885-0.89413 0.98336 2.1188 7.5808 4.8128 10.538 2.9337 3.2204-2.1785 3.1161 89.291 1.8337 72.582-1.0177 129.46-1.0586 198.31-0.14039 24.416 0.32564 48.933 0.33492 189.09 0.0696 220.64-0.41748 206.23 0.33111 226.01-11.76 9.6983-5.9296 17.071-13.077 22.311-20.79z" stroke="#f00" stroke-width="26"/>
<path id="path4135" d="m734.89 287.64c25.249-37.163 0.9989-87.402-51.141-77.231-17.09 3.3337-21.698 13.141-15.383 32.75 6.608 20.521 7.3378 20.224-44.507 18.133-23.113-0.93243-55.526-2.0716-72.029-2.5314-41.212-1.1484-130.96-5.7034-137.8-6.9934-6.5165-1.2287-7.4729-2.9562-16.392-29.568-9.1254-27.227-4.7296-30.372 36.538-26.126 67.153 6.9086 86.534-31.169 47.825-93.967-25.98-42.148-25.94-71.29 0.13445-97.456 19.737-19.807 28.928-21.34 100.44-16.749 63.317 4.0647 85.413 2.3622 106.16-8.179 32.144-16.334 23.857-23.35-50.54-42.798-66.883-17.484-64.296-17.2-101.7-11.184-16.013 2.575-38.995 5.571-51.072 6.6595s-31.631 3.5232-43.453 5.4078c-39.376 6.2774-51.705 2.7973-63.9-18.033-15.429-26.354 4.0646-42.818 24.295-20.518 16.825 18.546 27.71 18.822 39.343 1.0014 18.37-28.142-14.957-65.503-52.265-58.592-24.092 4.4628-38.278 19.982-50.745 55.516-4.0918 11.663-8.4615 23.784-9.71 26.936-1.2485 3.1526-22.509 62.328-47.246 131.5-76.283 213.31-77.421 216.41-80.327 219.12-4.3306 4.0457-3.2414 3.9372-83.633 8.2492-86.171 4.622-92.25 5.7986-108.64 21.014-1.8772 1.7429-3.7077 3.4905-4.0663 3.885-0.89413 0.98336 2.1188 7.5808 4.8128 10.538 2.9337 3.2204-2.1785 3.1161 89.291 1.8337 72.582-1.0177 129.46-1.0586 198.31-0.14039 24.416 0.32564 48.933 0.33492 189.09 0.0696 220.64-0.41748 206.23 0.33111 226.01-11.76 9.6983-5.9296 17.071-13.077 22.311-20.79z" stroke="#fff5ff" stroke-dasharray="26,26" stroke-width="26"/>
<path id="path4169" d="m734.89 287.64c25.249-37.163 0.9989-87.402-51.141-77.231-17.09 3.3337-21.698 13.141-15.383 32.75 6.608 20.521 7.3378 20.224-44.507 18.133-23.113-0.93243-55.526-2.0716-72.029-2.5314-41.212-1.1484-130.96-5.7034-137.8-6.9934-6.5165-1.2287-7.4729-2.9562-16.392-29.568-9.1254-27.227-4.7296-30.372 36.538-26.126 67.153 6.9086 86.534-31.169 47.825-93.967-25.98-42.148-25.94-71.29 0.13445-97.456 19.737-19.807 28.928-21.34 100.44-16.749 63.317 4.0647 85.413 2.3622 106.16-8.179 32.144-16.334 23.857-23.35-50.54-42.798-66.883-17.484-64.296-17.2-101.7-11.184-16.013 2.575-38.995 5.571-51.072 6.6595s-31.631 3.5232-43.453 5.4078c-39.376 6.2774-51.705 2.7973-63.9-18.033-15.429-26.354 4.0646-42.818 24.295-20.518 16.825 18.546 27.71 18.822 39.343 1.0014 18.37-28.142-14.957-65.503-52.265-58.592-24.092 4.4628-38.278 19.982-50.745 55.516-4.0918 11.663-8.4615 23.784-9.71 26.936-1.2485 3.1526-22.509 62.328-47.246 131.5-76.283 213.31-77.421 216.41-80.327 219.12-4.3306 4.0457-3.2414 3.9372-83.633 8.2492-86.171 4.622-92.25 5.7986-108.64 21.014-1.8772 1.7429-3.7077 3.4905-4.0663 3.885-0.89413 0.98336 2.1188 7.5808 4.8128 10.538 2.9337 3.2204-2.1785 3.1161 89.291 1.8337 72.582-1.0177 129.46-1.0586 198.31-0.14039 24.416 0.32564 48.933 0.33492 189.09 0.0696 220.64-0.41748 206.23 0.33111 226.01-11.76 9.6983-5.9296 17.071-13.077 22.311-20.79z" stroke="#141414" stroke-width="20"/>
<path id="path4138" d="m734.89 287.64c25.249-37.163 0.9989-87.402-51.141-77.231-17.09 3.3337-21.698 13.141-15.383 32.75 6.608 20.521 7.3378 20.224-44.507 18.133-23.113-0.93243-55.526-2.0716-72.029-2.5314-41.212-1.1484-130.96-5.7034-137.8-6.9934-6.5165-1.2287-7.4729-2.9562-16.392-29.568-9.1254-27.227-4.7296-30.372 36.538-26.126 67.153 6.9086 86.534-31.169 47.825-93.967-25.98-42.148-25.94-71.29 0.13445-97.456 19.737-19.807 28.928-21.34 100.44-16.749 63.317 4.0647 85.413 2.3622 106.16-8.179 32.144-16.334 23.857-23.35-50.54-42.798-66.883-17.484-64.296-17.2-101.7-11.184-16.013 2.575-38.995 5.571-51.072 6.6595s-31.631 3.5232-43.453 5.4078c-39.376 6.2774-51.705 2.7973-63.9-18.033-15.429-26.354 4.0646-42.818 24.295-20.518 16.825 18.546 27.71 18.822 39.343 1.0014 18.37-28.142-14.957-65.503-52.265-58.592-24.092 4.4628-38.278 19.982-50.745 55.516-4.0918 11.663-8.4615 23.784-9.71 26.936-1.2485 3.1526-22.509 62.328-47.246 131.5-76.283 213.31-77.421 216.41-80.327 219.12-4.3306 4.0457-3.2414 3.9372-83.633 8.2492-86.171 4.622-92.25 5.7986-108.64 21.014-1.8772 1.7429-3.7077 3.4905-4.0663 3.885-0.89413 0.98336 2.1188 7.5808 4.8128 10.538 2.9337 3.2204-2.1785 3.1161 89.291 1.8337 72.582-1.0177 129.46-1.0586 198.31-0.14039 24.416 0.32564 48.933 0.33492 189.09 0.0696 220.64-0.41748 206.23 0.33111 226.01-11.76 9.6983-5.9296 17.071-13.077 22.311-20.79z" stroke="#fff" stroke-dasharray="8,2" stroke-width="2"/>
</g>
</g>
</svg>
