<?xml version="1.0" encoding="utf-8"?>
<!-- Generator: Adobe Illustrator 26.5.0, SVG Export Plug-In . SVG Version: 6.00 Build 0)  -->
<svg version="1.1" xmlns="http://www.w3.org/2000/svg" xmlns:xlink="http://www.w3.org/1999/xlink" x="0px" y="0px"
	 viewBox="0 0 550 443.7" style="enable-background:new 0 0 550 443.7;" xml:space="preserve">
<style type="text/css">
	.st0{fill:none;stroke:#646464;stroke-width:14.1732;stroke-miterlimit:10;}
	.st1{fill:none;stroke:#F4442E;stroke-width:2.8346;stroke-miterlimit:10;}
	.st2{fill:none;stroke:#FFD449;stroke-width:2.8346;stroke-miterlimit:10;}
	.st3{fill:none;stroke:#54C6EB;stroke-width:2.8346;stroke-miterlimit:10;}
	.st4{fill:none;stroke:#FFFFFF;stroke-width:2.126;}
	.st5{fill:#646464;}
	.st6{fill:#FFFFFF;}
	.st7{fill:#09BC8A;}
	.st8{fill:none;stroke:#646464;stroke-width:2.8346;stroke-miterlimit:10;}
	.st9{fill:none;stroke:#09BC8A;stroke-width:1.9843;stroke-miterlimit:10;}
	.st10{fill:none;stroke:#09BC8A;stroke-width:2.2097;stroke-miterlimit:10;}
	.st11{fill:#FF3380;}
	.st12{fill:none;stroke:#FF3380;stroke-width:1.9843;stroke-miterlimit:10;}
	.st13{fill:none;stroke:#646464;stroke-width:0.7087;stroke-miterlimit:10;}
	.st14{fill:none;stroke:#F4442E;stroke-width:5.6693;stroke-miterlimit:10;}
	.st15{fill:none;stroke:#54C6EB;stroke-width:5.6693;stroke-miterlimit:10;}
	.st16{fill:none;stroke:#FFD449;stroke-width:5.6693;stroke-miterlimit:10;}
	.st17{fill:none;stroke:#09BC8A;stroke-width:2.8346;stroke-miterlimit:10;}
	.st18{clip-path:url(#SVGID_00000176724287544265937040000014874688290497559725_);}
	.st19{fill:#F4442E;}
	.st20{fill:#54C6EB;}
	.st21{fill:#FFD449;}
</style>
<g id="コース">
	<path class="st0" d="M40.4,221.2c0,0,137.1,109.6,143.1,114.7c6,5.1,17.2,12.1,21.6,8.9c4.5-3.2-11.1-39.8-12.4-45.5
		c-1.3-5.7-2.9-21,12.1-31.2s29.6-18.1,36.6-21.9c7-3.8,10.5-9.5,13.7-17.5c3.2-8,4.5-12.1,14.3-15.6c9.9-3.5,14.9-6.4,16.2-19.7
		c1.3-13.4,6.7-18.1,13.7-22.9s15.6-8.3,22.7-4.8c7.1,3.5,21.8,10.6,23.8,11.5c7.5,3.6,15.1-1.8,23.5-11.7c7.8-9.3,8.2-13,16.7-13.6
		s11.9,4.4,14,8.2c2.2,3.8,4.2,6.6,9.1,5.7c4.9-0.9,40.2-8.1,42.7-8.6c4.1-0.8,6.3-2.6,8.8-5.5s56.3-69.3,59-72.3
		c3.7-4,1.6-10.9-3.2-9.3c-3.4,1.1-69.1,21.3-83.1,24.7c-7.3,1.8-25.3,6.1-44.3,10c-17.2,3.5-35.2,6.6-46.8,8.8
		c-23.8,4.6-66.4,9.9-86.3,11.3c-3.2,0.2-39.4,4.3-41.4,4.6c-2,0.3-4.5,1.4-2.7,4.5c1.8,3.1,12.1,15.9,16,21.5
		c4,5.6,10.1,14.5,12.2,18.1c2.1,3.6,1.6,9.8-3.8,10.2c-5.5,0.4-15.1-0.4-17.3-1.2s-4.6-2.1-5.4-6.6c-0.8-4.5-2-7.1-3.8-9.4
		c-1.9-2.3-8.6-10.6-11-12.4c-2.4-1.8-6.1-2.4-8.1-2.4s-5.5,0-6.9,0.3c-1.4,0.3-2.7,2.1-1.8,5.2s22.2,38.3,23.3,41.3
		c1.1,3,1.1,10.2,1.1,12.2s-5.3,13.9-6.4,15.9c-1.1,2-2.7,2.5-4.4,3.4c-1.6,0.9-13.4,6.5-15.7,7.6c-2.3,1.1-8,2.2-14.9,1
		c-6.9-1.2-19-3.1-25.6-15.4c-3.5-6.6-24.9-34.9-26.8-37.2c-1.9-2.3-4.3-4.4-9.7-2.7c-5.4,1.6-62.1,26.1-65,27.7s-3.5,4.8-1.8,6.6
		C38,219.3,40.4,221.2,40.4,221.2z"/>
</g>
<g id="セクター">
	<path class="st1" d="M55.3,233.1c35.7,28.6,123.4,98.7,128.2,102.8c6,5.1,17.2,12.1,21.6,8.9c4.5-3.2-11.1-39.8-12.4-45.5
		c-1.3-5.7-2.9-21,12.1-31.2s29.6-18.1,36.6-21.9c7-3.8,10.5-9.5,13.7-17.5c3.2-8,4.5-12.1,14.3-15.6c9.9-3.5,14.9-6.4,16.2-19.7
		c1.3-13.4,6.7-18.1,13.7-22.9s15.6-8.3,22.7-4.8c3.7,1.8,9.3,4.5,14.2,6.9"/>
	<path class="st2" d="M227.2,154.4c0.3,0.4,0.5,0.8,0.8,1.1c4,5.6,10.1,14.5,12.2,18.1c2.1,3.6,1.6,9.8-3.8,10.2
		c-5.5,0.4-15.1-0.4-17.3-1.2s-4.6-2.1-5.4-6.6c-0.8-4.5-2-7.1-3.8-9.4c-1.9-2.3-8.6-10.6-11-12.4c-2.4-1.8-6.1-2.4-8.1-2.4
		s-5.5,0-6.9,0.3c-1.4,0.3-2.7,2.1-1.8,5.2s22.2,38.3,23.3,41.3c1.1,3,1.1,10.2,1.1,12.2s-5.3,13.9-6.4,15.9c-1.1,2-2.7,2.5-4.4,3.4
		c-1.6,0.9-13.4,6.5-15.7,7.6c-2.3,1.1-8,2.2-14.9,1c-6.9-1.2-19-3.1-25.6-15.4c-3.5-6.6-24.9-34.9-26.8-37.2
		c-1.9-2.3-4.3-4.4-9.7-2.7c-5.4,1.6-62.1,26.1-65,27.7s-3.5,4.8-1.8,6.6c1.8,1.8,4.2,3.6,4.2,3.6s5.7,4.6,14.9,12"/>
	<path class="st3" d="M336.2,172.6c4.6,2.2,8.6,4.1,9.6,4.6c7.5,3.6,15.1-1.8,23.5-11.7c7.8-9.3,8.2-13,16.7-13.6s11.9,4.4,14,8.2
		c2.2,3.8,4.2,6.6,9.1,5.7c4.9-0.9,40.2-8.1,42.7-8.6c4.1-0.8,6.3-2.6,8.8-5.5s56.3-69.3,59-72.3c3.7-4,1.6-10.9-3.2-9.3
		c-3.4,1.1-69.1,21.3-83.1,24.7c-7.3,1.8-25.3,6.1-44.3,10c-17.2,3.5-35.2,6.6-46.8,8.8c-23.8,4.6-66.4,9.9-86.3,11.3
		c-3.2,0.2-39.4,4.3-41.4,4.6c-2,0.3-4.5,1.4-2.7,4.5c1.6,2.9,10.9,14.4,15.2,20.4"/>
</g>
<g id="コーナー番号">
	<g>
		<g>
			<circle class="st4" cx="216.7" cy="359.2" r="8.5"/>
			<circle class="st5" cx="216.7" cy="359.2" r="8.5"/>
		</g>
		<g>
			<path class="st6" d="M215,363.1v-1.6h1V357h-0.9v-1.6h2.6v6.1h0.9v1.6H215z"/>
		</g>
	</g>
	<g>
		<g>
			<circle class="st4" cx="175" cy="277.2" r="8.5"/>
			<circle class="st5" cx="175" cy="277.2" r="8.5"/>
		</g>
		<g>
			<path class="st6" d="M172.9,281.1v-2.6c0-0.6,0.1-1,0.6-1.2l1.9-0.8v-1.6l-0.1-0.1h-0.5l-0.1,0.1v1.1h-1.7v-1.3
				c0-0.8,0.4-1.1,0.8-1.3h2.5c0.5,0.2,0.8,0.5,0.8,1.3v1.9c0,0.6-0.1,0.9-0.6,1.2l-1.9,0.8v0.9h2.4v1.6H172.9z"/>
		</g>
	</g>
	<g>
		<g>
			<circle class="st4" cx="261.9" cy="256.7" r="8.5"/>
			<circle class="st5" cx="261.9" cy="256.7" r="8.5"/>
		</g>
		<g>
			<path class="st6" d="M260.7,260.6c-0.5-0.2-0.8-0.5-0.8-1.3v-1h1.7v0.8l0.1,0.1h0.5l0.1-0.1v-1.6l-0.1-0.1h-1v-1.3h1l0.1-0.1
				v-1.5l-0.1-0.1h-0.5l-0.1,0.1v0.8h-1.7v-1c0-0.8,0.4-1.1,0.8-1.3h2.5c0.5,0.2,0.8,0.5,0.8,1.3v1.3c0,0.6-0.2,0.9-0.6,1.2
				c0.4,0.3,0.6,0.6,0.6,1.2v1.4c0,0.8-0.4,1.1-0.8,1.3H260.7z"/>
		</g>
	</g>
	<g>
		<g>
			<circle class="st4" cx="247.4" cy="204.8" r="8.5"/>
			<circle class="st5" cx="247.4" cy="204.8" r="8.5"/>
		</g>
		<g>
			<path class="st6" d="M249.1,207.2v1.5h-1.7v-1.5h-2.2v-1.5l1.6-4.7h1.7l-1.6,4.6h0.5v-0.4l0.4-1h1.3v1.4h0.5v1.6H249.1z"/>
		</g>
	</g>
	<g>
		<g>
			<circle class="st4" cx="299.6" cy="212.8" r="8.5"/>
			<circle class="st5" cx="299.6" cy="212.8" r="8.5"/>
		</g>
		<g>
			<path class="st6" d="M298.4,216.7c-0.5-0.2-0.8-0.5-0.8-1.3v-1h1.6v0.8l0.1,0.1h0.6l0.1-0.1v-2.1l-0.1-0.1h-0.6l-0.1,0.1v0.4
				h-1.6V209h4v1.5h-2.4v1.6l0.4-0.4h1.3c0.5,0.2,0.8,0.5,0.8,1.3v2.4c0,0.8-0.4,1.1-0.8,1.3H298.4z"/>
		</g>
	</g>
	<g>
		<g>
			<circle class="st4" cx="291.9" cy="152.9" r="8.5"/>
			<circle class="st5" cx="291.9" cy="152.9" r="8.5"/>
		</g>
		<g>
			<path class="st6" d="M293.2,156.7h-2.5c-0.5-0.2-0.8-0.5-0.8-1.3v-5.1c0-0.8,0.4-1.1,0.8-1.3h2.5c0.5,0.2,0.8,0.5,0.8,1.3v1h-1.7
				v-0.8l-0.1-0.1h-0.5l-0.1,0.1v1.8l0.3-0.3h1.3c0.5,0.2,0.8,0.5,0.8,1.3v2.2C294,156.3,293.6,156.6,293.2,156.7z M292.2,155.4
				l0.1-0.1v-1.8l-0.1-0.1h-0.5l-0.1,0.1v1.8l0.1,0.1H292.2z"/>
		</g>
	</g>
	<g>
		<g>
			<circle class="st4" cx="353.4" cy="197.3" r="8.5"/>
			<circle class="st5" cx="353.4" cy="197.3" r="8.5"/>
		</g>
		<g>
			<path class="st6" d="M351.6,201.2l2.1-6.2h-2.4v-1.5h4.1v1.2l-2.1,6.5H351.6z"/>
		</g>
	</g>
	<g>
		<g>
			<circle class="st4" cx="387.3" cy="132.8" r="8.5"/>
			<circle class="st5" cx="387.3" cy="132.8" r="8.5"/>
		</g>
		<g>
			<path class="st6" d="M386,136.7c-0.5-0.2-0.8-0.5-0.8-1.3V134c0-0.6,0.2-0.9,0.6-1.2c-0.4-0.3-0.6-0.6-0.6-1.2v-1.3
				c0-0.8,0.4-1.1,0.8-1.3h2.5c0.5,0.2,0.8,0.5,0.8,1.3v1.3c0,0.6-0.2,0.9-0.6,1.2c0.4,0.3,0.6,0.6,0.6,1.2v1.4
				c0,0.8-0.4,1.1-0.8,1.3H386z M386.9,132.1l0.1,0.1h0.5l0.1-0.1v-1.5l-0.1-0.1H387l-0.1,0.1V132.1z M387.7,135.2v-1.6l-0.1-0.1
				H387l-0.1,0.1v1.6l0.1,0.1h0.5L387.7,135.2z"/>
		</g>
	</g>
	<g>
		<g>
			<circle class="st4" cx="407.7" cy="186.3" r="8.5"/>
			<circle class="st5" cx="407.7" cy="186.3" r="8.5"/>
		</g>
		<g>
			<path class="st6" d="M406.4,190.2c-0.5-0.2-0.8-0.5-0.8-1.3v-1h1.7v0.8l0.1,0.1h0.5l0.1-0.1v-1.8l-0.3,0.3h-1.3
				c-0.5-0.2-0.8-0.5-0.8-1.3v-2.2c0-0.8,0.4-1.1,0.8-1.3h2.5c0.5,0.2,0.8,0.5,0.8,1.3v5.1c0,0.8-0.4,1.1-0.8,1.3H406.4z
				 M408.1,185.8V184l-0.1-0.1h-0.5l-0.1,0.1v1.8l0.1,0.1h0.5L408.1,185.8z"/>
		</g>
	</g>
	<g>
		<g>
			<circle class="st4" cx="198.3" cy="117.7" r="8.5"/>
			<circle class="st5" cx="198.3" cy="117.7" r="8.5"/>
		</g>
		<g>
			<path class="st6" d="M194.2,121.5V120h1v-4.5h-0.9v-1.6h2.6v6.1h0.9v1.6H194.2z"/>
			<path class="st6" d="M198.5,121.5V119c0-0.6,0.1-1,0.6-1.2l1.9-0.8v-1.6l-0.1-0.1h-0.5l-0.1,0.1v1.1h-1.7v-1.3
				c0-0.8,0.4-1.1,0.8-1.3h2.5c0.5,0.2,0.8,0.5,0.8,1.3v1.9c0,0.6-0.1,0.9-0.6,1.2l-1.9,0.8v0.9h2.4v1.6H198.5z"/>
		</g>
	</g>
	<g>
		<g>
			<circle class="st4" cx="260.5" cy="176.2" r="8.5"/>
			<circle class="st5" cx="260.5" cy="176.2" r="8.5"/>
		</g>
		<g>
			<path class="st6" d="M256.5,180.1v-1.6h1V174h-0.9v-1.6h2.6v6.1h0.9v1.6H256.5z"/>
			<path class="st6" d="M261.6,180.1c-0.5-0.2-0.8-0.5-0.8-1.3v-1h1.7v0.8l0.1,0.1h0.5l0.1-0.1V177l-0.1-0.1h-1v-1.3h1l0.1-0.1v-1.5
				l-0.1-0.1h-0.5l-0.1,0.1v0.8h-1.7v-1c0-0.8,0.4-1.1,0.8-1.3h2.5c0.5,0.2,0.8,0.5,0.8,1.3v1.3c0,0.6-0.2,0.9-0.6,1.2
				c0.4,0.3,0.6,0.6,0.6,1.2v1.4c0,0.8-0.4,1.1-0.8,1.3H261.6z"/>
		</g>
	</g>
	<g>
		<g>
			<circle class="st4" cx="225.2" cy="172.1" r="8.5"/>
			<circle class="st5" cx="225.2" cy="172.1" r="8.5"/>
		</g>
		<g>
			<path class="st6" d="M221.2,175.9v-1.6h1v-4.5h-0.9v-1.6h2.6v6.1h0.9v1.6H221.2z"/>
			<path class="st6" d="M229.2,174.4v1.5h-1.7v-1.5h-2.2V173l1.6-4.7h1.7l-1.6,4.6h0.5v-0.4l0.4-1h1.3v1.4h0.5v1.6H229.2z"/>
		</g>
	</g>
	<g>
		<g>
			<circle class="st4" cx="171.1" cy="137.7" r="8.5"/>
			<circle class="st5" cx="171.1" cy="137.7" r="8.5"/>
		</g>
		<g>
			<path class="st6" d="M167.1,141.5v-1.6h1v-4.5h-0.9v-1.6h2.6v6.1h0.9v1.6H167.1z"/>
			<path class="st6" d="M172.2,141.5c-0.5-0.2-0.8-0.5-0.8-1.3v-1h1.6v0.8l0.1,0.1h0.6l0.1-0.1V138l-0.1-0.1h-0.6L173,138v0.4h-1.6
				v-4.5h4v1.5H173v1.6l0.4-0.4h1.3c0.5,0.2,0.8,0.5,0.8,1.3v2.4c0,0.8-0.4,1.1-0.8,1.3H172.2z"/>
		</g>
	</g>
	<g>
		<g>
			<circle class="st4" cx="226.1" cy="207" r="8.5"/>
			<circle class="st5" cx="226.1" cy="207" r="8.5"/>
		</g>
		<g>
			<path class="st6" d="M222.1,210.9v-1.6h1v-4.5h-0.9v-1.6h2.6v6.1h0.9v1.6H222.1z"/>
			<path class="st6" d="M229.7,210.9h-2.5c-0.5-0.2-0.8-0.5-0.8-1.3v-5.1c0-0.8,0.4-1.1,0.8-1.3h2.5c0.5,0.2,0.8,0.5,0.8,1.3v1h-1.7
				v-0.8l-0.1-0.1h-0.5l-0.1,0.1v1.8l0.3-0.3h1.3c0.5,0.2,0.8,0.5,0.8,1.3v2.2C230.6,210.4,230.2,210.7,229.7,210.9z M228.8,209.5
				l0.1-0.1v-1.8l-0.1-0.1h-0.5l-0.1,0.1v1.8l0.1,0.1H228.8z"/>
		</g>
	</g>
	<g>
		<g>
			<circle class="st4" cx="211.8" cy="240.4" r="8.5"/>
			<circle class="st5" cx="211.8" cy="240.4" r="8.5"/>
		</g>
		<g>
			<path class="st6" d="M207.8,244.3v-1.6h1v-4.5h-0.9v-1.6h2.6v6.1h0.9v1.6H207.8z"/>
			<path class="st6" d="M212.3,244.3l2.1-6.2h-2.4v-1.5h4.1v1.2l-2.1,6.5H212.3z"/>
		</g>
	</g>
	<g>
		<g>
			<circle class="st4" cx="153.4" cy="255.9" r="8.5"/>
			<circle class="st5" cx="153.4" cy="255.9" r="8.5"/>
		</g>
		<g>
			<path class="st6" d="M149.4,259.7v-1.6h1v-4.5h-0.9v-1.6h2.6v6.1h0.9v1.6H149.4z"/>
			<path class="st6" d="M154.5,259.7c-0.5-0.2-0.8-0.5-0.8-1.3V257c0-0.6,0.2-0.9,0.6-1.2c-0.4-0.3-0.6-0.6-0.6-1.2v-1.3
				c0-0.8,0.4-1.1,0.8-1.3h2.5c0.5,0.2,0.8,0.5,0.8,1.3v1.3c0,0.6-0.2,0.9-0.6,1.2c0.4,0.3,0.6,0.6,0.6,1.2v1.4
				c0,0.8-0.4,1.1-0.8,1.3H154.5z M155.4,255.1l0.1,0.1h0.5l0.1-0.1v-1.5l-0.1-0.1h-0.5l-0.1,0.1V255.1z M156.1,258.3v-1.6l-0.1-0.1
				h-0.5l-0.1,0.1v1.6l0.1,0.1h0.5L156.1,258.3z"/>
		</g>
	</g>
	<g>
		<g>
			<circle class="st4" cx="112.3" cy="164.7" r="8.5"/>
			<circle class="st5" cx="112.3" cy="164.7" r="8.5"/>
		</g>
		<g>
			<path class="st6" d="M108.2,168.6V167h1v-4.5h-0.9v-1.6h2.6v6.1h0.9v1.6H108.2z"/>
			<path class="st6" d="M113.4,168.6c-0.5-0.2-0.8-0.5-0.8-1.3v-1h1.7v0.8l0.1,0.1h0.5l0.1-0.1v-1.8l-0.3,0.3h-1.3
				c-0.5-0.2-0.8-0.5-0.8-1.3v-2.2c0-0.8,0.4-1.1,0.8-1.3h2.5c0.5,0.2,0.8,0.5,0.8,1.3v5.1c0,0.8-0.4,1.1-0.8,1.3H113.4z M115,164.3
				v-1.8l-0.1-0.1h-0.5l-0.1,0.1v1.8l0.1,0.1h0.5L115,164.3z"/>
		</g>
	</g>
	<g>
		<g>
			<circle class="st4" cx="16.9" cy="211.5" r="8.5"/>
			<circle class="st5" cx="16.9" cy="211.5" r="8.5"/>
		</g>
		<g>
			<path class="st6" d="M12.4,215.4v-2.6c0-0.6,0.1-1,0.6-1.2l1.9-0.8v-1.6l-0.1-0.1h-0.5l-0.1,0.1v1.1h-1.7V209
				c0-0.8,0.4-1.1,0.8-1.3h2.5c0.5,0.2,0.8,0.5,0.8,1.3v1.9c0,0.6-0.1,0.9-0.6,1.2l-1.9,0.8v0.9h2.4v1.6H12.4z"/>
			<path class="st6" d="M20.4,215.4h-2.5c-0.5-0.2-0.8-0.5-0.8-1.3V209c0-0.8,0.4-1.1,0.8-1.3h2.5c0.5,0.2,0.8,0.5,0.8,1.3v5.1
				C21.3,214.9,20.9,215.2,20.4,215.4z M19.6,209.2l-0.1-0.1h-0.5l-0.1,0.1v4.7l0.1,0.1h0.5l0.1-0.1V209.2z"/>
		</g>
	</g>
	<g>
		<g>
			<circle class="st4" cx="469.4" cy="168.9" r="8.5"/>
			<circle class="st5" cx="469.4" cy="168.9" r="8.5"/>
		</g>
		<g>
			<path class="st6" d="M465.3,172.8v-1.6h1v-4.5h-0.9v-1.6h2.6v6.1h0.9v1.6H465.3z"/>
			<path class="st6" d="M472.9,172.8h-2.5c-0.5-0.2-0.8-0.5-0.8-1.3v-5.1c0-0.8,0.4-1.1,0.8-1.3h2.5c0.5,0.2,0.8,0.5,0.8,1.3v5.1
				C473.8,172.3,473.4,172.6,472.9,172.8z M472.1,166.6l-0.1-0.1h-0.5l-0.1,0.1v4.7l0.1,0.1h0.5l0.1-0.1V166.6z"/>
		</g>
	</g>
	<g>
		<g>
			<circle class="st4" cx="535.6" cy="59.4" r="8.5"/>
			<circle class="st5" cx="535.6" cy="59.4" r="8.5"/>
		</g>
		<g>
			<path class="st6" d="M531.6,63.3v-1.6h1v-4.5h-0.9v-1.6h2.6v6.1h0.9v1.6H531.6z"/>
			<path class="st6" d="M536.3,63.3v-1.6h1v-4.5h-0.9v-1.6h2.6v6.1h0.9v1.6H536.3z"/>
		</g>
	</g>
</g>
<g id="DRS">
	<g>
		<g>
			<path class="st7" d="M115.4,134.9c0,0.8-0.6,1.4-1.4,1.4H46.4c-0.8,0-1.4-0.6-1.4-1.4V86.1c0-0.8,0.6-1.4,1.4-1.4h67.6
				c0.8,0,1.4,0.6,1.4,1.4V134.9z"/>
		</g>
		<g>
			<path class="st6" d="M76.2,100.3c0,1.3-0.6,1.7-1.3,2h-5.2v-12h5.2c0.7,0.3,1.3,0.7,1.3,2V100.3z M72.3,92.5v7.7h1l0.2-0.2v-7.3
				l-0.2-0.2H72.3z"/>
			<path class="st6" d="M77,102.3v-12h5.2c0.7,0.3,1.3,0.7,1.3,2v2.5c0,1.1-0.5,1.6-1.1,1.9l1.4,3.8v1.7h-2.3L80,97.7h-0.3v4.7H77z
				 M79.7,92.5v3h1l0.2-0.2v-2.7l-0.2-0.2H79.7z"/>
			<path class="st6" d="M90.7,97.6v2.7c0,1.3-0.6,1.7-1.3,2h-3.9c-0.7-0.3-1.3-0.7-1.3-2V98h2.7v2l0.2,0.2h0.8L88,100v-1.8l-0.1-0.2
				l-2.7-1.2c-0.8-0.4-0.9-0.9-0.9-1.8v-2.5c0-1.3,0.6-1.7,1.3-2h3.9c0.7,0.3,1.3,0.7,1.3,2v2.2H88v-1.9l-0.2-0.2H87l-0.2,0.2v1.7
				l0.2,0.3l2.7,1.1C90.6,96.1,90.7,96.7,90.7,97.6z"/>
			<path class="st6" d="M57.1,114.5c0,1.3-0.6,1.7-1.3,2h-5.2v-12h5.2c0.7,0.3,1.3,0.7,1.3,2V114.5z M53.3,106.7v7.7h1l0.2-0.2v-7.3
				l-0.2-0.2H53.3z"/>
			<path class="st6" d="M57.9,104.5h5.5v2.5h-2.8v2.2h2.7v2.5h-2.7v2.3h2.9v2.5h-5.6V104.5z"/>
			<path class="st6" d="M68.6,107v9.5h-2.7V107H64v-2.5h6.5v2.5H68.6z"/>
			<path class="st6" d="M71,104.5h5.5v2.5h-2.8v2.2h2.7v2.5h-2.7v2.3h2.9v2.5H71V104.5z"/>
			<path class="st6" d="M83.9,114.5c0,1.3-0.6,1.7-1.3,2h-3.9c-0.7-0.3-1.3-0.7-1.3-2v-8c0-1.3,0.6-1.7,1.3-2h3.9
				c0.7,0.3,1.3,0.7,1.3,2v2.9h-2.7v-2.6l-0.2-0.2h-0.8l-0.2,0.2v7.3l0.2,0.2h0.8l0.2-0.2v-2.5h2.7V114.5z"/>
			<path class="st6" d="M89,107v9.5h-2.7V107h-1.9v-2.5h6.5v2.5H89z"/>
			<path class="st6" d="M91.4,116.5V114h0.5v-7h-0.5v-2.5H95v2.5h-0.5v7H95v2.5H91.4z"/>
			<path class="st6" d="M102.4,114.5c0,1.3-0.6,1.7-1.3,2h-3.9c-0.7-0.3-1.3-0.7-1.3-2v-8c0-1.3,0.6-1.7,1.3-2h3.9
				c0.7,0.3,1.3,0.7,1.3,2V114.5z M99.7,106.9l-0.2-0.2h-0.8l-0.2,0.2v7.3l0.2,0.2h0.8l0.2-0.2V106.9z"/>
			<path class="st6" d="M107.4,104.5h2.3v12h-2.3l-1.7-5.2h-0.2v5.2h-2.3v-12h2.3l1.7,5.2h0.2V104.5z"/>
			<path class="st6" d="M65,121.2h-3.5v-2.5H68v2.2l-3.5,7.3H68v2.5h-6.5v-2.2L65,121.2z"/>
			<path class="st6" d="M75.3,128.7c0,1.3-0.6,1.7-1.3,2h-3.9c-0.7-0.3-1.3-0.7-1.3-2v-8c0-1.3,0.6-1.7,1.3-2H74
				c0.7,0.3,1.3,0.7,1.3,2V128.7z M72.6,121l-0.2-0.2h-0.8l-0.2,0.2v7.3l0.2,0.2h0.8l0.2-0.2V121z"/>
			<path class="st6" d="M80.3,118.7h2.3v12h-2.3l-1.7-5.2h-0.2v5.2h-2.3v-12h2.3l1.7,5.2h0.2V118.7z"/>
			<path class="st6" d="M83.4,118.7h5.5v2.5h-2.8v2.2h2.7v2.5h-2.7v2.3H89v2.5h-5.6V118.7z"/>
			<path class="st6" d="M92.3,130.7v-4c0-0.9,0.2-1.5,0.9-1.8l2.9-1.3V121l-0.2-0.2h-0.8L95,121v1.7h-2.7v-2.1c0-1.3,0.6-1.7,1.3-2
				h3.9c0.7,0.3,1.3,0.7,1.3,2v3c0,0.9-0.1,1.5-0.9,1.8l-2.9,1.3v1.3h3.8v2.5H92.3z"/>
		</g>
	</g>
	<g>
		<g>
			<path class="st7" d="M471.5,288.8c0,0.8-0.6,1.4-1.4,1.4h-67.6c-0.8,0-1.4-0.6-1.4-1.4V240c0-0.8,0.6-1.4,1.4-1.4h32.4
				c0.8,0,2.1,0,2.8,0H470c0.8,0,1.4,0.6,1.4,1.4V288.8z"/>
		</g>
		<g>
			<path class="st6" d="M432.3,254.2c0,1.3-0.6,1.7-1.3,2h-5.2v-12h5.2c0.7,0.3,1.3,0.7,1.3,2V254.2z M428.5,246.4v7.7h1l0.2-0.2
				v-7.3l-0.2-0.2H428.5z"/>
			<path class="st6" d="M433.1,256.2v-12h5.2c0.7,0.3,1.3,0.7,1.3,2v2.5c0,1.1-0.5,1.6-1.1,1.9l1.4,3.8v1.7h-2.3l-1.5-4.7h-0.3v4.7
				H433.1z M435.8,246.4v3h1l0.2-0.2v-2.7l-0.2-0.2H435.8z"/>
			<path class="st6" d="M446.8,251.5v2.7c0,1.3-0.6,1.7-1.3,2h-3.9c-0.7-0.3-1.3-0.7-1.3-2v-2.4h2.7v2l0.2,0.2h0.8l0.2-0.2V252
				l-0.2-0.2l-2.7-1.2c-0.8-0.4-0.9-0.9-0.9-1.8v-2.5c0-1.3,0.6-1.7,1.3-2h3.9c0.7,0.3,1.3,0.7,1.3,2v2.2h-2.7v-1.9l-0.2-0.2h-0.8
				l-0.2,0.2v1.7l0.2,0.3l2.7,1.1C446.7,250,446.8,250.6,446.8,251.5z"/>
			<path class="st6" d="M413.2,268.4c0,1.3-0.6,1.7-1.3,2h-5.2v-12h5.2c0.7,0.3,1.3,0.7,1.3,2V268.4z M409.4,260.5v7.7h1l0.2-0.2
				v-7.3l-0.2-0.2H409.4z"/>
			<path class="st6" d="M414,258.4h5.5v2.5h-2.8v2.2h2.7v2.5h-2.7v2.3h2.9v2.5H414V258.4z"/>
			<path class="st6" d="M424.7,260.9v9.5H422v-9.5h-1.9v-2.5h6.5v2.5H424.7z"/>
			<path class="st6" d="M427.1,258.4h5.5v2.5h-2.8v2.2h2.7v2.5h-2.7v2.3h2.9v2.5h-5.6V258.4z"/>
			<path class="st6" d="M440,268.4c0,1.3-0.6,1.7-1.3,2h-3.9c-0.7-0.3-1.3-0.7-1.3-2v-8c0-1.3,0.6-1.7,1.3-2h3.9
				c0.7,0.3,1.3,0.7,1.3,2v2.9h-2.7v-2.6l-0.2-0.2h-0.8l-0.2,0.2v7.3l0.2,0.2h0.8l0.2-0.2v-2.5h2.7V268.4z"/>
			<path class="st6" d="M445.1,260.9v9.5h-2.7v-9.5h-1.9v-2.5h6.5v2.5H445.1z"/>
			<path class="st6" d="M447.5,270.4v-2.5h0.5v-7h-0.5v-2.5h3.7v2.5h-0.5v7h0.5v2.5H447.5z"/>
			<path class="st6" d="M458.5,268.4c0,1.3-0.6,1.7-1.3,2h-3.9c-0.7-0.3-1.3-0.7-1.3-2v-8c0-1.3,0.6-1.7,1.3-2h3.9
				c0.7,0.3,1.3,0.7,1.3,2V268.4z M455.8,260.7l-0.2-0.2h-0.8l-0.2,0.2v7.3l0.2,0.2h0.8l0.2-0.2V260.7z"/>
			<path class="st6" d="M463.5,258.4h2.3v12h-2.3l-1.7-5.2h-0.2v5.2h-2.3v-12h2.3l1.7,5.2h0.2V258.4z"/>
			<path class="st6" d="M421.1,275.1h-3.5v-2.5h6.5v2.2l-3.5,7.3h3.5v2.5h-6.5v-2.2L421.1,275.1z"/>
			<path class="st6" d="M431.4,282.5c0,1.3-0.6,1.7-1.3,2h-3.9c-0.7-0.3-1.3-0.7-1.3-2v-8c0-1.3,0.6-1.7,1.3-2h3.9
				c0.7,0.3,1.3,0.7,1.3,2V282.5z M428.7,274.9l-0.2-0.2h-0.8l-0.2,0.2v7.3l0.2,0.2h0.8l0.2-0.2V274.9z"/>
			<path class="st6" d="M436.4,272.6h2.3v12h-2.3l-1.7-5.2h-0.2v5.2h-2.3v-12h2.3l1.7,5.2h0.2V272.6z"/>
			<path class="st6" d="M439.5,272.6h5.5v2.5h-2.8v2.2h2.7v2.5h-2.7v2.3h2.9v2.5h-5.6V272.6z"/>
			<path class="st6" d="M449,284.5V282h1.5v-7h-1.3v-2.5h4v9.5h1.3v2.5H449z"/>
		</g>
	</g>
	<g>
		<circle class="st8" cx="489.7" cy="116.2" r="4.7"/>
		<circle class="st7" cx="489.7" cy="116.2" r="4.7"/>
	</g>
	<g>
		<circle class="st8" cx="127.5" cy="205.9" r="4.7"/>
		<circle class="st7" cx="127.5" cy="205.9" r="4.7"/>
	</g>
	<g>
		<path class="st7" d="M422,265.7"/>
	</g>
	<g>
		<path class="st9" d="M471.5,264.4h9.7c4.7,0,8.5-3.8,8.5-8.5V116.2"/>
	</g>
	<g>
		<g>
			<g>
				<g>
					<line class="st10" x1="449.5" y1="79.2" x2="446.6" y2="68"/>
				</g>
				<g>
					<path class="st7" d="M442.7,74.9c-0.1-0.6,0.2-1.2,0.8-1.3c0.6-0.2,1.2,0.2,1.3,0.8c0.1,0.6-0.2,1.2-0.8,1.3
						C443.4,75.9,442.8,75.5,442.7,74.9z"/>
				</g>
				<g>
					<path class="st7" d="M438.4,76c-0.1-0.6,0.2-1.2,0.8-1.3c0.6-0.1,1.2,0.2,1.3,0.8c0.1,0.6-0.2,1.2-0.8,1.3
						C439.1,77,438.5,76.6,438.4,76z"/>
				</g>
				<g>
					<path class="st7" d="M434.1,77.1c-0.1-0.6,0.2-1.2,0.8-1.3s1.2,0.2,1.3,0.8c0.1,0.6-0.2,1.2-0.8,1.3
						C434.8,78,434.2,77.7,434.1,77.1z"/>
				</g>
				<g>
					<path class="st7" d="M429.8,78.2c-0.1-0.6,0.2-1.2,0.8-1.3c0.6-0.1,1.2,0.2,1.3,0.8c0.1,0.6-0.2,1.2-0.8,1.3
						C430.5,79.1,429.9,78.8,429.8,78.2z"/>
				</g>
				<g>
					<path class="st7" d="M425.4,79.2c-0.1-0.6,0.2-1.2,0.8-1.3c0.6-0.1,1.2,0.2,1.3,0.8s-0.2,1.2-0.8,1.3
						C426.2,80.2,425.6,79.8,425.4,79.2z"/>
				</g>
				<g>
					<path class="st7" d="M421.1,80.3c-0.1-0.6,0.2-1.2,0.8-1.3c0.6-0.1,1.2,0.2,1.3,0.8c0.1,0.6-0.2,1.2-0.8,1.3
						C421.9,81.2,421.3,80.9,421.1,80.3z"/>
				</g>
				<g>
					<path class="st7" d="M416.8,81.3c-0.1-0.6,0.2-1.2,0.8-1.3c0.6-0.1,1.2,0.2,1.3,0.8c0.1,0.6-0.2,1.2-0.8,1.3
						C417.5,82.3,416.9,81.9,416.8,81.3z"/>
				</g>
				<g>
					<path class="st7" d="M412.5,82.4c-0.1-0.6,0.2-1.2,0.8-1.3c0.6-0.1,1.2,0.2,1.3,0.8c0.1,0.6-0.2,1.2-0.8,1.3
						C413.2,83.3,412.6,82.9,412.5,82.4z"/>
				</g>
				<g>
					<path class="st7" d="M408.2,83.4c-0.1-0.6,0.2-1.2,0.8-1.3c0.6-0.1,1.2,0.2,1.3,0.8c0.1,0.6-0.2,1.2-0.8,1.3
						S408.3,84,408.2,83.4z"/>
				</g>
				<g>
					<path class="st7" d="M403.8,84.4c-0.1-0.6,0.2-1.2,0.8-1.3c0.6-0.1,1.2,0.2,1.3,0.8c0.1,0.6-0.2,1.2-0.8,1.3
						C404.6,85.4,404,85,403.8,84.4z"/>
				</g>
				<g>
					<path class="st7" d="M399.5,85.4c-0.1-0.6,0.2-1.2,0.8-1.3c0.6-0.1,1.2,0.2,1.3,0.8s-0.2,1.2-0.8,1.3
						C400.2,86.4,399.6,86,399.5,85.4z"/>
				</g>
				<g>
					<path class="st7" d="M395.2,86.4c-0.1-0.6,0.2-1.2,0.8-1.3c0.6-0.1,1.2,0.2,1.3,0.8c0.1,0.6-0.2,1.2-0.8,1.3
						C395.9,87.4,395.3,87,395.2,86.4z"/>
				</g>
				<g>
					<path class="st7" d="M390.8,87.4c-0.1-0.6,0.2-1.2,0.8-1.3c0.6-0.1,1.2,0.2,1.3,0.8c0.1,0.6-0.2,1.2-0.8,1.3
						C391.6,88.4,391,88,390.8,87.4z"/>
				</g>
				<g>
					<path class="st7" d="M386.5,88.4c-0.1-0.6,0.2-1.2,0.8-1.3c0.6-0.1,1.2,0.2,1.3,0.8c0.1,0.6-0.2,1.2-0.8,1.3
						C387.2,89.4,386.6,89,386.5,88.4z"/>
				</g>
				<g>
					<path class="st7" d="M382.2,89.4c-0.1-0.6,0.2-1.2,0.8-1.3s1.2,0.2,1.3,0.8c0.1,0.6-0.2,1.2-0.8,1.3
						C382.9,90.4,382.3,90,382.2,89.4z"/>
				</g>
				<g>
					<path class="st7" d="M377.8,90.3c-0.1-0.6,0.2-1.2,0.8-1.3s1.2,0.2,1.3,0.8c0.1,0.6-0.2,1.2-0.8,1.3
						C378.6,91.3,378,90.9,377.8,90.3z"/>
				</g>
				<g>
					<path class="st7" d="M373.5,91.3c-0.1-0.6,0.3-1.2,0.9-1.3s1.2,0.2,1.3,0.8c0.1,0.6-0.3,1.2-0.9,1.3
						C374.2,92.3,373.6,91.9,373.5,91.3z"/>
				</g>
				<g>
					<path class="st7" d="M369.1,92.2c-0.1-0.6,0.3-1.2,0.9-1.3c0.6-0.1,1.2,0.2,1.3,0.8c0.1,0.6-0.3,1.2-0.9,1.3
						C369.9,93.2,369.3,92.8,369.1,92.2z"/>
				</g>
				<g>
					<path class="st7" d="M364.8,93.1c-0.1-0.6,0.3-1.2,0.9-1.3s1.2,0.3,1.3,0.9s-0.3,1.2-0.9,1.3S364.9,93.7,364.8,93.1z"/>
				</g>
				<g>
					<path class="st7" d="M360.4,94c-0.1-0.6,0.3-1.2,0.9-1.3s1.2,0.3,1.3,0.9c0.1,0.6-0.3,1.2-0.9,1.3
						C361.1,95,360.6,94.6,360.4,94z"/>
				</g>
				<g>
					<path class="st7" d="M356.1,94.9c-0.1-0.6,0.3-1.2,0.9-1.3c0.6-0.1,1.2,0.3,1.3,0.9c0.1,0.6-0.3,1.2-0.9,1.3
						C356.8,95.9,356.2,95.5,356.1,94.9z"/>
				</g>
				<g>
					<path class="st7" d="M351.7,95.8c-0.1-0.6,0.3-1.2,0.9-1.3c0.6-0.1,1.2,0.3,1.3,0.9c0.1,0.6-0.3,1.2-0.9,1.3
						C352.4,96.8,351.8,96.4,351.7,95.8z"/>
				</g>
				<g>
					<path class="st7" d="M347.4,96.6c-0.1-0.6,0.3-1.2,0.9-1.3c0.6-0.1,1.2,0.3,1.3,0.9c0.1,0.6-0.3,1.2-0.9,1.3
						C348,97.6,347.5,97.2,347.4,96.6z"/>
				</g>
				<g>
					<path class="st7" d="M343,97.4c-0.1-0.6,0.3-1.2,0.9-1.3c0.6-0.1,1.2,0.3,1.3,0.9s-0.3,1.2-0.9,1.3S343.1,98,343,97.4z"/>
				</g>
				<g>
					<path class="st7" d="M338.6,98.1c-0.1-0.6,0.3-1.2,0.9-1.3s1.2,0.3,1.3,0.9c0.1,0.6-0.3,1.2-0.9,1.3
						C339.3,99.1,338.7,98.7,338.6,98.1z"/>
				</g>
				<g>
					<path class="st7" d="M334.2,98.8c-0.1-0.6,0.3-1.2,0.9-1.3c0.6-0.1,1.2,0.3,1.3,0.9c0.1,0.6-0.3,1.2-0.9,1.3
						C334.9,99.8,334.3,99.4,334.2,98.8z"/>
				</g>
				<g>
					<path class="st7" d="M329.8,99.4c-0.1-0.6,0.3-1.2,0.9-1.2c0.6-0.1,1.2,0.3,1.3,0.9s-0.3,1.2-0.9,1.2S329.9,100,329.8,99.4z"/>
				</g>
				<g>
					<path class="st7" d="M325.4,100c-0.1-0.6,0.3-1.2,1-1.2c0.6-0.1,1.2,0.3,1.2,0.9c0.1,0.6-0.3,1.2-1,1.2
						C326,101.1,325.5,100.6,325.4,100z"/>
				</g>
				<g>
					<path class="st7" d="M321,100.6c-0.1-0.6,0.3-1.2,1-1.2c0.6-0.1,1.2,0.3,1.2,0.9c0.1,0.6-0.3,1.2-1,1.2
						C321.6,101.7,321.1,101.2,321,100.6z"/>
				</g>
				<g>
					<path class="st7" d="M316.6,101.2c-0.1-0.6,0.4-1.2,1-1.2c0.6-0.1,1.2,0.4,1.2,1c0.1,0.6-0.4,1.2-1,1.2
						C317.2,102.2,316.7,101.8,316.6,101.2z"/>
				</g>
				<g>
					<path class="st7" d="M312.2,101.8c-0.1-0.6,0.4-1.2,1-1.2c0.6-0.1,1.2,0.4,1.2,1s-0.4,1.2-1,1.2
						C312.8,102.8,312.3,102.4,312.2,101.8z"/>
				</g>
				<g>
					<path class="st7" d="M307.8,102.3c-0.1-0.6,0.4-1.2,1-1.2c0.6-0.1,1.2,0.4,1.2,1s-0.4,1.2-1,1.2
						C308.4,103.3,307.8,102.9,307.8,102.3z"/>
				</g>
				<g>
					<path class="st7" d="M303.4,102.8c-0.1-0.6,0.4-1.2,1-1.2s1.2,0.4,1.2,1s-0.4,1.2-1,1.2C304,103.9,303.4,103.4,303.4,102.8z"/>
				</g>
				<g>
					<path class="st7" d="M298.9,103.4c-0.1-0.6,0.4-1.2,1-1.2c0.6-0.1,1.2,0.4,1.2,1c0.1,0.6-0.4,1.2-1,1.2
						C299.6,104.4,299,104,298.9,103.4z"/>
				</g>
				<g>
					<path class="st7" d="M294.5,103.9c-0.1-0.6,0.4-1.2,1-1.2c0.6-0.1,1.2,0.4,1.2,1c0.1,0.6-0.4,1.2-1,1.2
						S294.6,104.5,294.5,103.9z"/>
				</g>
				<g>
					<path class="st7" d="M290.1,104.4c-0.1-0.6,0.4-1.2,1-1.2c0.6-0.1,1.2,0.4,1.2,1c0.1,0.6-0.4,1.2-1,1.2
						C290.7,105.5,290.2,105,290.1,104.4z"/>
				</g>
				<g>
					<path class="st7" d="M285.7,104.9c-0.1-0.6,0.4-1.2,1-1.2c0.6-0.1,1.2,0.4,1.2,1c0.1,0.6-0.4,1.2-1,1.2
						C286.3,106,285.8,105.5,285.7,104.9z"/>
				</g>
				<g>
					<path class="st7" d="M281.3,105.4c-0.1-0.6,0.4-1.2,1-1.2c0.6-0.1,1.2,0.4,1.2,1s-0.4,1.2-1,1.2
						C281.9,106.5,281.4,106,281.3,105.4z"/>
				</g>
				<g>
					<path class="st7" d="M276.9,105.9c-0.1-0.6,0.4-1.2,1-1.2c0.6-0.1,1.2,0.4,1.2,1c0.1,0.6-0.4,1.2-1,1.2
						C277.5,107,276.9,106.6,276.9,105.9z"/>
				</g>
				<g>
					<path class="st7" d="M272.5,106.4c-0.1-0.6,0.4-1.2,1-1.2c0.6-0.1,1.2,0.4,1.2,1c0.1,0.6-0.4,1.2-1,1.2
						C273.1,107.5,272.5,107.1,272.5,106.4z"/>
				</g>
				<g>
					<path class="st7" d="M268,106.9c-0.1-0.6,0.4-1.2,1-1.2c0.6-0.1,1.2,0.4,1.2,1c0.1,0.6-0.4,1.2-1,1.2
						C268.7,108,268.1,107.5,268,106.9z"/>
				</g>
				<g>
					<path class="st7" d="M263.6,107.4c-0.1-0.6,0.4-1.2,1-1.2c0.6-0.1,1.2,0.4,1.2,1s-0.4,1.2-1,1.2S263.7,108,263.6,107.4z"/>
				</g>
				<g>
					
						<ellipse transform="matrix(0.994 -0.1094 0.1094 0.994 -10.2321 29.1278)" class="st7" cx="260.3" cy="107.8" rx="1.1" ry="1.1"/>
				</g>
				<g>
					<path class="st7" d="M254.8,108.4c-0.1-0.6,0.4-1.2,1-1.2c0.6-0.1,1.2,0.4,1.2,1c0.1,0.6-0.4,1.2-1,1.2
						C255.4,109.5,254.8,109,254.8,108.4z"/>
				</g>
				<g>
					<path class="st7" d="M250.4,108.9c-0.1-0.6,0.4-1.2,1-1.2c0.6-0.1,1.2,0.4,1.2,1s-0.4,1.2-1,1.2
						C251,109.9,250.4,109.5,250.4,108.9z"/>
				</g>
				<g>
					<path class="st7" d="M245.9,109.4c-0.1-0.6,0.4-1.2,1-1.2c0.6-0.1,1.2,0.4,1.2,1s-0.4,1.2-1,1.2
						C246.6,110.4,246,110,245.9,109.4z"/>
				</g>
				<g>
					<path class="st7" d="M241.5,109.8c-0.1-0.6,0.4-1.2,1-1.2c0.6-0.1,1.2,0.4,1.2,1c0.1,0.6-0.4,1.2-1,1.2
						C242.1,110.9,241.6,110.5,241.5,109.8z"/>
				</g>
				<g>
					<path class="st7" d="M237.1,110.3c-0.1-0.6,0.4-1.2,1-1.2c0.6-0.1,1.2,0.4,1.2,1c0.1,0.6-0.4,1.2-1,1.2
						C237.7,111.4,237.2,110.9,237.1,110.3z"/>
				</g>
				<g>
					<path class="st7" d="M232.7,110.8c-0.1-0.6,0.4-1.2,1-1.2s1.2,0.4,1.2,1s-0.4,1.2-1,1.2C233.3,111.8,232.8,111.4,232.7,110.8z"
						/>
				</g>
				<g>
					<path class="st7" d="M228.3,111.3c-0.1-0.6,0.4-1.2,1-1.2s1.2,0.4,1.2,1c0.1,0.6-0.4,1.2-1,1.2S228.3,111.9,228.3,111.3z"/>
				</g>
				<g>
					<path class="st7" d="M223.8,111.7c-0.1-0.6,0.4-1.2,1-1.2c0.6-0.1,1.2,0.4,1.2,1c0.1,0.6-0.4,1.2-1,1.2
						C224.5,112.8,223.9,112.3,223.8,111.7z"/>
				</g>
				<g>
					<line class="st10" x1="221.1" y1="117.8" x2="219.9" y2="106.3"/>
				</g>
			</g>
		</g>
	</g>
	<g>
		<g>
			<g>
				<g>
					<line class="st10" x1="35.3" y1="230.2" x2="28.2" y2="239.3"/>
				</g>
				<g>
					<path class="st7" d="M36.1,238.1c-0.4,0.5-1.1,0.6-1.5,0.2c-0.5-0.4-0.6-1.1-0.2-1.5s1.1-0.6,1.5-0.2
						C36.4,237,36.5,237.7,36.1,238.1z"/>
				</g>
				<g>
					<path class="st7" d="M39.5,240.9c-0.4,0.5-1.1,0.6-1.5,0.2c-0.5-0.4-0.6-1.1-0.2-1.5s1.1-0.6,1.5-0.2
						C39.8,239.7,39.9,240.4,39.5,240.9z"/>
				</g>
				<g>
					<path class="st7" d="M43,243.6c-0.4,0.5-1.1,0.6-1.5,0.2c-0.5-0.4-0.6-1.1-0.2-1.5c0.4-0.5,1.1-0.6,1.5-0.2
						C43.3,242.4,43.4,243.1,43,243.6z"/>
				</g>
				<g>
					<path class="st7" d="M46.5,246.3c-0.4,0.5-1.1,0.6-1.5,0.2c-0.5-0.4-0.6-1.1-0.2-1.5s1.1-0.6,1.5-0.2
						C46.8,245.1,46.8,245.8,46.5,246.3z"/>
				</g>
				<g>
					<path class="st7" d="M49.9,249c-0.4,0.5-1.1,0.6-1.5,0.2c-0.5-0.4-0.6-1.1-0.2-1.5s1.1-0.6,1.5-0.2
						C50.2,247.8,50.3,248.5,49.9,249z"/>
				</g>
				<g>
					<path class="st7" d="M53.4,251.7c-0.4,0.5-1.1,0.6-1.5,0.2c-0.5-0.4-0.6-1.1-0.2-1.5s1.1-0.6,1.5-0.2
						C53.7,250.5,53.8,251.2,53.4,251.7z"/>
				</g>
				<g>
					<path class="st7" d="M56.8,254.4c-0.4,0.5-1.1,0.6-1.5,0.2c-0.5-0.4-0.6-1.1-0.2-1.5s1.1-0.6,1.5-0.2
						C57.1,253.2,57.2,253.9,56.8,254.4z"/>
				</g>
				<g>
					<path class="st7" d="M60.3,257.1c-0.4,0.5-1.1,0.6-1.5,0.2c-0.5-0.4-0.6-1.1-0.2-1.5s1.1-0.6,1.5-0.2
						C60.6,255.9,60.7,256.6,60.3,257.1z"/>
				</g>
				<g>
					<path class="st7" d="M63.8,259.8c-0.4,0.5-1.1,0.6-1.5,0.2c-0.5-0.4-0.6-1.1-0.2-1.5s1.1-0.6,1.5-0.2
						C64.1,258.7,64.1,259.4,63.8,259.8z"/>
				</g>
				<g>
					<path class="st7" d="M67.2,262.5c-0.4,0.5-1.1,0.6-1.5,0.2c-0.5-0.4-0.6-1.1-0.2-1.5c0.4-0.5,1.1-0.6,1.5-0.2
						C67.5,261.4,67.6,262.1,67.2,262.5z"/>
				</g>
				<g>
					<path class="st7" d="M70.7,265.3c-0.4,0.5-1.1,0.6-1.5,0.2c-0.5-0.4-0.6-1.1-0.2-1.5c0.4-0.5,1.1-0.6,1.5-0.2
						C71,264.1,71,264.8,70.7,265.3z"/>
				</g>
				<g>
					<path class="st7" d="M74.1,268c-0.4,0.5-1.1,0.6-1.5,0.2c-0.5-0.4-0.6-1.1-0.2-1.5c0.4-0.5,1.1-0.6,1.5-0.2
						C74.4,266.8,74.5,267.5,74.1,268z"/>
				</g>
				<g>
					<path class="st7" d="M77.6,270.7c-0.4,0.5-1.1,0.6-1.5,0.2c-0.5-0.4-0.6-1.1-0.2-1.5c0.4-0.5,1.1-0.6,1.5-0.2
						C77.9,269.5,78,270.2,77.6,270.7z"/>
				</g>
				<g>
					<path class="st7" d="M81,273.4c-0.4,0.5-1.1,0.6-1.5,0.2c-0.5-0.4-0.6-1.1-0.2-1.5c0.4-0.5,1.1-0.6,1.5-0.2
						C81.3,272.2,81.4,272.9,81,273.4z"/>
				</g>
				<g>
					<path class="st7" d="M84.5,276.1c-0.4,0.5-1.1,0.6-1.5,0.2c-0.5-0.4-0.6-1.1-0.2-1.5c0.4-0.5,1.1-0.6,1.5-0.2
						C84.8,274.9,84.9,275.6,84.5,276.1z"/>
				</g>
				<g>
					<path class="st7" d="M88,278.8c-0.4,0.5-1.1,0.6-1.5,0.2s-0.6-1.1-0.2-1.5c0.4-0.5,1.1-0.6,1.5-0.2
						C88.3,277.6,88.3,278.3,88,278.8z"/>
				</g>
				<g>
					<path class="st7" d="M91.4,281.5c-0.4,0.5-1.1,0.6-1.5,0.2c-0.5-0.4-0.6-1.1-0.2-1.5c0.4-0.5,1.1-0.6,1.5-0.2
						S91.8,281,91.4,281.5z"/>
				</g>
				<g>
					<path class="st7" d="M94.9,284.2c-0.4,0.5-1.1,0.6-1.5,0.2s-0.6-1.1-0.2-1.5c0.4-0.5,1.1-0.6,1.5-0.2S95.3,283.8,94.9,284.2z"
						/>
				</g>
				<g>
					<path class="st7" d="M98.3,286.9c-0.4,0.5-1.1,0.6-1.5,0.2s-0.6-1.1-0.2-1.5c0.4-0.5,1.1-0.6,1.5-0.2
						C98.6,285.8,98.7,286.5,98.3,286.9z"/>
				</g>
				<g>
					<path class="st7" d="M101.8,289.7c-0.4,0.5-1.1,0.6-1.5,0.2c-0.5-0.4-0.6-1.1-0.2-1.5c0.4-0.5,1.1-0.6,1.5-0.2
						S102.2,289.2,101.8,289.7z"/>
				</g>
				<g>
					<path class="st7" d="M105.3,292.4c-0.4,0.5-1.1,0.6-1.5,0.2s-0.6-1.1-0.2-1.5c0.4-0.5,1.1-0.6,1.5-0.2S105.6,291.9,105.3,292.4
						z"/>
				</g>
				<g>
					<path class="st7" d="M108.7,295.1c-0.4,0.5-1.1,0.6-1.5,0.2s-0.6-1.1-0.2-1.5c0.4-0.5,1.1-0.6,1.5-0.2
						C109,293.9,109.1,294.6,108.7,295.1z"/>
				</g>
				<g>
					<path class="st7" d="M112.2,297.8c-0.4,0.5-1.1,0.6-1.5,0.2s-0.6-1.1-0.2-1.5c0.4-0.5,1.1-0.6,1.5-0.2S112.5,297.3,112.2,297.8
						z"/>
				</g>
				<g>
					<path class="st7" d="M115.6,300.5c-0.4,0.5-1.1,0.6-1.5,0.2s-0.6-1.1-0.2-1.5c0.4-0.5,1.1-0.6,1.5-0.2S116,300,115.6,300.5z"/>
				</g>
				<g>
					<path class="st7" d="M119.1,303.2c-0.4,0.5-1.1,0.6-1.5,0.2c-0.5-0.4-0.6-1.1-0.2-1.5c0.4-0.5,1.1-0.6,1.5-0.2
						S119.5,302.7,119.1,303.2z"/>
				</g>
				<g>
					<path class="st7" d="M122.5,305.9c-0.4,0.5-1.1,0.6-1.5,0.2s-0.6-1.1-0.2-1.5c0.4-0.5,1.1-0.6,1.5-0.2S122.9,305.4,122.5,305.9
						z"/>
				</g>
				<g>
					<path class="st7" d="M126,308.6c-0.4,0.5-1.1,0.6-1.5,0.2s-0.6-1.1-0.2-1.5c0.4-0.5,1.1-0.6,1.5-0.2
						C126.3,307.5,126.4,308.2,126,308.6z"/>
				</g>
				<g>
					<path class="st7" d="M129.5,311.4c-0.4,0.5-1.1,0.6-1.5,0.2c-0.5-0.4-0.6-1.1-0.2-1.5c0.4-0.5,1.1-0.6,1.5-0.2
						C129.8,310.2,129.8,310.9,129.5,311.4z"/>
				</g>
				<g>
					<path class="st7" d="M132.9,314.1c-0.4,0.5-1.1,0.6-1.5,0.2c-0.5-0.4-0.6-1.1-0.2-1.5c0.4-0.5,1.1-0.6,1.5-0.2
						C133.2,312.9,133.3,313.6,132.9,314.1z"/>
				</g>
				<g>
					<path class="st7" d="M136.4,316.8c-0.4,0.5-1.1,0.6-1.5,0.2c-0.5-0.4-0.6-1.1-0.2-1.5c0.4-0.5,1.1-0.6,1.5-0.2
						C136.7,315.6,136.8,316.3,136.4,316.8z"/>
				</g>
				<g>
					<path class="st7" d="M139.8,319.5c-0.4,0.5-1.1,0.6-1.5,0.2c-0.5-0.4-0.6-1.1-0.2-1.5c0.4-0.5,1.1-0.6,1.5-0.2
						C140.1,318.3,140.2,319,139.8,319.5z"/>
				</g>
				<g>
					<path class="st7" d="M143.3,322.2c-0.4,0.5-1.1,0.6-1.5,0.2c-0.5-0.4-0.6-1.1-0.2-1.5c0.4-0.5,1.1-0.6,1.5-0.2
						C143.6,321,143.7,321.7,143.3,322.2z"/>
				</g>
				<g>
					<path class="st7" d="M146.8,324.9c-0.4,0.5-1.1,0.6-1.5,0.2c-0.5-0.4-0.6-1.1-0.2-1.5c0.4-0.5,1.1-0.6,1.5-0.2
						C147.1,323.7,147.1,324.4,146.8,324.9z"/>
				</g>
				<g>
					<path class="st7" d="M150.2,327.6c-0.4,0.5-1.1,0.6-1.5,0.2c-0.5-0.4-0.6-1.1-0.2-1.5c0.4-0.5,1.1-0.6,1.5-0.2
						C150.5,326.4,150.6,327.1,150.2,327.6z"/>
				</g>
				<g>
					<path class="st7" d="M153.7,330.3c-0.4,0.5-1.1,0.6-1.5,0.2c-0.5-0.4-0.6-1.1-0.2-1.5c0.4-0.5,1.1-0.6,1.5-0.2
						C154,329.2,154,329.9,153.7,330.3z"/>
				</g>
				<g>
					<path class="st7" d="M157.1,333c-0.4,0.5-1.1,0.6-1.5,0.2c-0.5-0.4-0.6-1.1-0.2-1.5c0.4-0.5,1.1-0.6,1.5-0.2
						C157.4,331.9,157.5,332.6,157.1,333z"/>
				</g>
				<g>
					<path class="st7" d="M160.6,335.8c-0.4,0.5-1.1,0.6-1.5,0.2c-0.5-0.4-0.6-1.1-0.2-1.5c0.4-0.5,1.1-0.6,1.5-0.2
						C160.9,334.6,161,335.3,160.6,335.8z"/>
				</g>
				<g>
					<path class="st7" d="M164,338.5c-0.4,0.5-1.1,0.6-1.5,0.2c-0.5-0.4-0.6-1.1-0.2-1.5c0.4-0.5,1.1-0.6,1.5-0.2
						C164.3,337.3,164.4,338,164,338.5z"/>
				</g>
				<g>
					<path class="st7" d="M167.5,341.2c-0.4,0.5-1.1,0.6-1.5,0.2c-0.5-0.4-0.6-1.1-0.2-1.5c0.4-0.5,1.1-0.6,1.5-0.2
						C167.8,340,167.9,340.7,167.5,341.2z"/>
				</g>
				<g>
					<path class="st7" d="M171,343.9c-0.4,0.5-1.1,0.6-1.5,0.2c-0.5-0.4-0.6-1.1-0.2-1.5c0.4-0.5,1.1-0.6,1.5-0.2
						C171.3,342.7,171.3,343.4,171,343.9z"/>
				</g>
				<g>
					<path class="st7" d="M174.4,346.6c-0.4,0.5-1.1,0.6-1.5,0.2c-0.5-0.4-0.6-1.1-0.2-1.5s1.1-0.6,1.5-0.2
						C174.7,345.4,174.8,346.1,174.4,346.6z"/>
				</g>
				<g>
					<path class="st7" d="M177.9,349.3c-0.4,0.5-1.1,0.6-1.5,0.2c-0.5-0.4-0.6-1.1-0.2-1.5s1.1-0.6,1.5-0.2
						C178.2,348.1,178.3,348.8,177.9,349.3z"/>
				</g>
				<g>
					<line class="st10" x1="184.1" y1="346.8" x2="176.9" y2="355.9"/>
				</g>
			</g>
		</g>
	</g>
	<g>
		<path class="st9" d="M127.5,205.9h17.4c4.7,0,8.5-3.8,8.5-8.5V119c0-4.7-3.8-8.5-8.5-8.5h-29.5"/>
	</g>
</g>
<g id="SPEED_x5F_TRAP">
	<g>
		<g>
			<path class="st11" d="M266.1,77.3c0,0.8-0.6,1.4-1.4,1.4h-42.2c-0.8,0-1.4-0.6-1.4-1.4V42.6c0-0.8,0.6-1.4,1.4-1.4h42.2
				c0.8,0,1.4,0.6,1.4,1.4V77.3z"/>
		</g>
		<g>
			<path class="st6" d="M233.3,54.1v2.7c0,1.3-0.6,1.7-1.3,2h-3.9c-0.7-0.3-1.3-0.7-1.3-2v-2.4h2.7v2l0.2,0.2h0.8l0.2-0.2v-1.8
				l-0.1-0.2l-2.7-1.2c-0.8-0.4-0.9-0.9-0.9-1.8v-2.5c0-1.3,0.6-1.7,1.3-2h3.9c0.7,0.3,1.3,0.7,1.3,2v2.2h-2.7v-1.9l-0.2-0.2h-0.8
				l-0.2,0.2V51l0.2,0.3l2.7,1.1C233.1,52.6,233.3,53.2,233.3,54.1z"/>
			<path class="st6" d="M236.7,54.7v4.2H234v-12h5.2c0.7,0.3,1.3,0.7,1.3,2v3.8c0,1.3-0.6,1.7-1.3,2H236.7z M236.7,49v3.5h1l0.2-0.2
				v-3.2l-0.2-0.2H236.7z"/>
			<path class="st6" d="M241.2,46.9h5.5v2.5h-2.8v2.2h2.7V54h-2.7v2.3h2.9v2.5h-5.6V46.9z"/>
			<path class="st6" d="M247.6,46.9h5.5v2.5h-2.8v2.2h2.7V54h-2.7v2.3h2.9v2.5h-5.6V46.9z"/>
			<path class="st6" d="M260.5,56.9c0,1.3-0.6,1.7-1.3,2H254v-12h5.2c0.7,0.3,1.3,0.7,1.3,2V56.9z M256.6,49v7.7h1l0.2-0.2v-7.3
				l-0.2-0.2H256.6z"/>
			<path class="st6" d="M234.2,63.5V73h-2.7v-9.5h-1.9V61h6.5v2.5H234.2z"/>
			<path class="st6" d="M236.6,73V61h5.2c0.7,0.3,1.3,0.7,1.3,2v2.5c0,1.1-0.5,1.6-1.1,1.9l1.4,3.8V73h-2.3l-1.5-4.7h-0.3V73H236.6z
				 M239.3,63.2v3h1l0.2-0.2v-2.7l-0.2-0.2H239.3z"/>
			<path class="st6" d="M247.7,70.7h-1.3l-0.2,2.3h-2.5v-2l1.5-10h3.6l1.5,10v2h-2.5L247.7,70.7z M246.6,68.2h0.8l-0.3-3.8H247
				L246.6,68.2z"/>
			<path class="st6" d="M253.7,68.9V73h-2.7V61h5.2c0.7,0.3,1.3,0.7,1.3,2v3.8c0,1.3-0.6,1.7-1.3,2H253.7z M253.7,63.2v3.5h1
				l0.2-0.2v-3.2l-0.2-0.2H253.7z"/>
		</g>
	</g>
	<g>
		<circle class="st8" cx="243.6" cy="126.7" r="4.7"/>
		<circle class="st11" cx="243.6" cy="126.7" r="4.7"/>
	</g>
	<g>
		<line class="st12" x1="243.6" y1="126.7" x2="243.6" y2="78.7"/>
	</g>
</g>
<g id="アイコン">
	<g>
		
			<rect x="45.3" y="251.7" transform="matrix(-0.6597 0.7516 -0.7516 -0.6597 267.6857 385.0062)" class="st5" width="2.8" height="2.8"/>
		
			<rect x="41.5" y="256" transform="matrix(-0.6597 0.7516 -0.7516 -0.6597 264.6811 394.8884)" class="st5" width="2.8" height="2.8"/>
		
			<rect x="41.3" y="252" transform="matrix(-0.6597 0.7516 -0.7516 -0.6597 261.2423 388.445)" class="st5" width="2.8" height="2.8"/>
		
			<rect x="37.5" y="256.2" transform="matrix(-0.6597 0.7516 -0.7516 -0.6597 258.2377 398.3272)" class="st5" width="2.8" height="2.8"/>
		
			<rect x="37" y="248.2" transform="matrix(-0.6597 0.7516 -0.7516 -0.6597 251.36 385.4405)" class="st5" width="2.8" height="2.8"/>
		
			<rect x="33.3" y="252.5" transform="matrix(-0.6597 0.7516 -0.7516 -0.6597 248.3555 395.3227)" class="st5" width="2.8" height="2.8"/>
		
			<rect x="37.8" y="260.2" transform="matrix(-0.6597 0.7516 -0.7516 -0.6597 261.6765 404.7706)" class="st5" width="2.8" height="2.8"/>
		
			<rect x="39.6" y="258.1" transform="matrix(-0.6597 0.7516 -0.7516 -0.6597 263.1788 399.8295)" class="st6" width="2.8" height="2.8"/>
		
			<rect x="43.4" y="253.8" transform="matrix(-0.6597 0.7516 -0.7516 -0.6597 266.1834 389.9473)" class="st6" width="2.8" height="2.8"/>
		
			<rect x="43.1" y="249.8" transform="matrix(-0.6597 0.7516 -0.7516 -0.6597 262.7445 383.5039)" class="st6" width="2.8" height="2.8"/>
		
			<rect x="39.4" y="254.1" transform="matrix(-0.6597 0.7516 -0.7516 -0.6597 259.74 393.3861)" class="st6" width="2.8" height="2.8"/>
		
			<rect x="35.6" y="258.3" transform="matrix(-0.6597 0.7516 -0.7516 -0.6597 256.7354 403.2684)" class="st6" width="2.8" height="2.8"/>
		
			<rect x="35.4" y="254.3" transform="matrix(-0.6597 0.7516 -0.7516 -0.6597 253.2966 396.825)" class="st6" width="2.8" height="2.8"/>
		
			<rect x="39.1" y="250.1" transform="matrix(-0.6597 0.7516 -0.7516 -0.6597 256.3011 386.9427)" class="st6" width="2.8" height="2.8"/>
		
			<rect x="31.1" y="250.6" transform="matrix(-0.6597 0.7516 -0.7516 -0.6597 243.4144 393.8204)" class="st6" width="2.8" height="2.8"/>
		
			<rect x="34.9" y="246.3" transform="matrix(-0.6597 0.7516 -0.7516 -0.6597 246.4189 383.9382)" class="st6" width="2.8" height="2.8"/>
		
			<rect x="38.9" y="246.1" transform="matrix(-0.6597 0.7516 -0.7516 -0.6597 252.8623 380.4993)" class="st6" width="2.8" height="2.8"/>
		
			<rect x="35.1" y="250.3" transform="matrix(-0.6597 0.7516 -0.7516 -0.6597 249.8578 390.3816)" class="st6" width="2.8" height="2.8"/>
		
			<rect x="31.4" y="254.6" transform="matrix(-0.6597 0.7516 -0.7516 -0.6597 246.8532 400.2638)" class="st6" width="2.8" height="2.8"/>
		
			<rect x="41" y="248" transform="matrix(-0.6597 0.7516 -0.7516 -0.6597 257.8034 382.0016)" class="st5" width="2.8" height="2.8"/>
		
			<rect x="37.3" y="252.2" transform="matrix(-0.6597 0.7516 -0.7516 -0.6597 254.7989 391.8839)" class="st5" width="2.8" height="2.8"/>
		
			<rect x="33" y="248.5" transform="matrix(-0.6597 0.7516 -0.7516 -0.6597 244.9166 388.8793)" class="st5" width="2.8" height="2.8"/>
		
			<rect x="33.5" y="256.5" transform="matrix(-0.6597 0.7516 -0.7516 -0.6597 251.7943 401.7661)" class="st5" width="2.8" height="2.8"/>
		
			<rect x="36.7" y="244.2" transform="matrix(-0.6597 0.7516 -0.7516 -0.6597 247.9212 378.997)" class="st5" width="2.8" height="2.8"/>
		
			<rect x="29.3" y="252.7" transform="matrix(-0.6597 0.7516 -0.7516 -0.6597 241.9121 398.7615)" class="st5" width="2.8" height="2.8"/>
	</g>
	<g>
		<g>
			<path class="st6" d="M462.8,426.3c0,1.6-1.3,2.8-2.8,2.8H91.1c-1.6,0-2.8-1.3-2.8-2.8v-24.9c0-1.6,1.3-2.8,2.8-2.8h368.8
				c1.6,0,2.8,1.3,2.8,2.8V426.3z"/>
			<path class="st13" d="M462.8,426.3c0,1.6-1.3,2.8-2.8,2.8H91.1c-1.6,0-2.8-1.3-2.8-2.8v-24.9c0-1.6,1.3-2.8,2.8-2.8h368.8
				c1.6,0,2.8,1.3,2.8,2.8V426.3z"/>
		</g>
		<g>
			<path class="st5" d="M133.8,415.3v2.6c0,1.3-0.6,1.7-1.3,2h-3.3c-0.7-0.3-1.3-0.7-1.3-2v-2h1.8v2.1l0.4,0.4h1.6l0.4-0.4v-2.8
				l-0.3-0.4L129,414c-0.8-0.3-1.1-0.8-1.1-1.9v-2.2c0-1.3,0.6-1.7,1.3-2h3.3c0.7,0.3,1.3,0.7,1.3,2v1.9H132v-2.1l-0.4-0.4h-1.6
				l-0.4,0.4v2.4l0.4,0.4l2.6,0.7C133.4,413.6,133.8,414.1,133.8,415.3z"/>
			<path class="st5" d="M135.1,407.9h5.1v1.6h-3.3v3.4h3.1v1.6h-3.1v3.7h3.4v1.6h-5.2V407.9z"/>
			<path class="st5" d="M147.5,417.9c0,1.3-0.6,1.7-1.3,2h-3.3c-0.7-0.3-1.3-0.7-1.3-2v-8c0-1.3,0.6-1.7,1.3-2h3.3
				c0.7,0.3,1.3,0.7,1.3,2v2.7h-1.8v-2.8l-0.4-0.4h-1.6l-0.4,0.4v8.3l0.4,0.4h1.6l0.4-0.4v-2.7h1.8V417.9z"/>
			<path class="st5" d="M152.2,409.5v10.3h-1.8v-10.3h-2.1v-1.6h6.1v1.6H152.2z"/>
			<path class="st5" d="M161.1,417.9c0,1.3-0.6,1.7-1.3,2h-3.3c-0.7-0.3-1.3-0.7-1.3-2v-8c0-1.3,0.6-1.7,1.3-2h3.3
				c0.7,0.3,1.3,0.7,1.3,2V417.9z M159.3,409.7l-0.4-0.4h-1.6l-0.4,0.4v8.3l0.4,0.4h1.6l0.4-0.4V409.7z"/>
			<path class="st5" d="M162.5,419.8v-12h4.6c0.7,0.3,1.3,0.7,1.3,2v2.6c0,1.3-0.6,1.6-1.3,1.9l-0.3,0.1l2.1,4.3v1.1h-1.6l-2.2-5.1
				h-0.8v5.1H162.5z M164.3,409.4v3.9h2l0.4-0.4v-3.1l-0.4-0.4H164.3z"/>
			<path class="st5" d="M172.6,419.8v-1.6h1.8v-8.7h-1.7v-1.6h3.5v10.4h1.7v1.6H172.6z"/>
		</g>
		<line class="st14" x1="102.5" y1="413.9" x2="123.7" y2="413.9"/>
		<g>
			<path class="st5" d="M223.9,415.3v2.6c0,1.3-0.6,1.7-1.3,2h-3.3c-0.7-0.3-1.3-0.7-1.3-2v-2h1.8v2.1l0.4,0.4h1.6l0.4-0.4v-2.8
				l-0.3-0.4l-2.6-0.8c-0.8-0.3-1.1-0.8-1.1-1.9v-2.2c0-1.3,0.6-1.7,1.3-2h3.3c0.7,0.3,1.3,0.7,1.3,2v1.9h-1.8v-2.1l-0.4-0.4h-1.6
				l-0.4,0.4v2.4l0.4,0.4l2.6,0.7C223.5,413.6,223.9,414.1,223.9,415.3z"/>
			<path class="st5" d="M225.2,407.9h5.1v1.6H227v3.4h3.1v1.6H227v3.7h3.4v1.6h-5.2V407.9z"/>
			<path class="st5" d="M237.6,417.9c0,1.3-0.6,1.7-1.3,2h-3.3c-0.7-0.3-1.3-0.7-1.3-2v-8c0-1.3,0.6-1.7,1.3-2h3.3
				c0.7,0.3,1.3,0.7,1.3,2v2.7h-1.8v-2.8l-0.4-0.4h-1.6l-0.4,0.4v8.3l0.4,0.4h1.6l0.4-0.4v-2.7h1.8V417.9z"/>
			<path class="st5" d="M242.3,409.5v10.3h-1.8v-10.3h-2.1v-1.6h6.1v1.6H242.3z"/>
			<path class="st5" d="M251.2,417.9c0,1.3-0.6,1.7-1.3,2h-3.3c-0.7-0.3-1.3-0.7-1.3-2v-8c0-1.3,0.6-1.7,1.3-2h3.3
				c0.7,0.3,1.3,0.7,1.3,2V417.9z M249.4,409.7l-0.4-0.4h-1.6l-0.4,0.4v8.3l0.4,0.4h1.6l0.4-0.4V409.7z"/>
			<path class="st5" d="M252.6,419.8v-12h4.6c0.7,0.3,1.3,0.7,1.3,2v2.6c0,1.3-0.6,1.6-1.3,1.9l-0.3,0.1l2.1,4.3v1.1h-1.6l-2.2-5.1
				h-0.8v5.1H252.6z M254.4,409.4v3.9h2l0.4-0.4v-3.1l-0.4-0.4H254.4z"/>
			<path class="st5" d="M262.3,419.8v-3.6c0-1.1,0.4-1.7,1.2-2.1l3-1.2v-3.2l-0.4-0.4h-1.7l-0.4,0.4v2h-1.8v-1.9
				c0-1.3,0.6-1.7,1.3-2h3.3c0.7,0.3,1.3,0.7,1.3,2v2.5c0,1.1-0.3,1.7-1.1,2.1l-3,1.2v2.5h4.1v1.6H262.3z"/>
		</g>
		<line class="st15" x1="192.6" y1="413.9" x2="213.8" y2="413.9"/>
		<g>
			<path class="st5" d="M313.7,415.3v2.6c0,1.3-0.6,1.7-1.3,2h-3.3c-0.7-0.3-1.3-0.7-1.3-2v-2h1.8v2.1l0.4,0.4h1.6l0.4-0.4v-2.8
				l-0.3-0.4L309,414c-0.8-0.3-1.1-0.8-1.1-1.9v-2.2c0-1.3,0.6-1.7,1.3-2h3.3c0.7,0.3,1.3,0.7,1.3,2v1.9h-1.8v-2.1l-0.4-0.4H310
				l-0.4,0.4v2.4l0.4,0.4l2.6,0.7C313.4,413.6,313.7,414.1,313.7,415.3z"/>
			<path class="st5" d="M315.1,407.9h5.1v1.6h-3.3v3.4h3.1v1.6h-3.1v3.7h3.4v1.6h-5.2V407.9z"/>
			<path class="st5" d="M327.4,417.9c0,1.3-0.6,1.7-1.3,2h-3.3c-0.7-0.3-1.3-0.7-1.3-2v-8c0-1.3,0.6-1.7,1.3-2h3.3
				c0.7,0.3,1.3,0.7,1.3,2v2.7h-1.8v-2.8l-0.4-0.4h-1.6l-0.4,0.4v8.3l0.4,0.4h1.6l0.4-0.4v-2.7h1.8V417.9z"/>
			<path class="st5" d="M332.1,409.5v10.3h-1.8v-10.3h-2.1v-1.6h6.1v1.6H332.1z"/>
			<path class="st5" d="M341,417.9c0,1.3-0.6,1.7-1.3,2h-3.3c-0.7-0.3-1.3-0.7-1.3-2v-8c0-1.3,0.6-1.7,1.3-2h3.3
				c0.7,0.3,1.3,0.7,1.3,2V417.9z M339.2,409.7l-0.4-0.4h-1.6l-0.4,0.4v8.3l0.4,0.4h1.6l0.4-0.4V409.7z"/>
			<path class="st5" d="M342.4,419.8v-12h4.6c0.7,0.3,1.3,0.7,1.3,2v2.6c0,1.3-0.6,1.6-1.3,1.9l-0.3,0.1l2.1,4.3v1.1h-1.6l-2.2-5.1
				h-0.8v5.1H342.4z M344.2,409.4v3.9h2l0.4-0.4v-3.1l-0.4-0.4H344.2z"/>
			<path class="st5" d="M353.4,419.8c-0.7-0.3-1.3-0.7-1.3-2v-1.7h1.8v1.8l0.4,0.4h1.7l0.4-0.4v-3.2l-0.4-0.3h-1.8V413h1.8l0.4-0.4
				v-3l-0.4-0.4h-1.7l-0.4,0.4v1.8h-1.8v-1.7c0-1.3,0.6-1.7,1.3-2h3.3c0.7,0.3,1.3,0.7,1.3,2v1.9c0,1-0.2,1.5-0.9,1.9
				c0.6,0.4,0.9,0.9,0.9,1.9v2.2c0,1.3-0.6,1.7-1.3,2H353.4z"/>
		</g>
		<line class="st16" x1="282.4" y1="413.9" x2="303.7" y2="413.9"/>
		<g>
			<path class="st5" d="M403.6,417.9c0,1.3-0.6,1.7-1.3,2h-4.6v-12h4.6c0.7,0.3,1.3,0.7,1.3,2V417.9z M399.5,409.4v9h2l0.4-0.4v-8.3
				l-0.4-0.4H399.5z"/>
			<path class="st5" d="M405,419.8v-12h4.6c0.7,0.3,1.3,0.7,1.3,2v2.6c0,1.3-0.6,1.6-1.3,1.9l-0.3,0.1l2.1,4.3v1.1h-1.6l-2.2-5.1
				h-0.8v5.1H405z M406.8,409.4v3.9h2l0.4-0.4v-3.1l-0.4-0.4H406.8z"/>
			<path class="st5" d="M418.1,415.3v2.6c0,1.3-0.6,1.7-1.3,2h-3.3c-0.7-0.3-1.3-0.7-1.3-2v-2h1.8v2.1l0.4,0.4h1.6l0.4-0.4v-2.8
				l-0.3-0.4l-2.6-0.8c-0.8-0.3-1.1-0.8-1.1-1.9v-2.2c0-1.3,0.6-1.7,1.3-2h3.3c0.7,0.3,1.3,0.7,1.3,2v1.9h-1.8v-2.1l-0.4-0.4h-1.6
				l-0.4,0.4v2.4l0.4,0.4l2.6,0.7C417.7,413.6,418.1,414.1,418.1,415.3z"/>
			<path class="st5" d="M425.6,409.5h-3.9v-1.6h5.8v1.5l-4,8.9h4v1.6h-5.9v-1.5L425.6,409.5z"/>
			<path class="st5" d="M434.8,417.9c0,1.3-0.6,1.7-1.3,2h-3.3c-0.7-0.3-1.3-0.7-1.3-2v-8c0-1.3,0.6-1.7,1.3-2h3.3
				c0.7,0.3,1.3,0.7,1.3,2V417.9z M433,409.7l-0.4-0.4H431l-0.4,0.4v8.3l0.4,0.4h1.6l0.4-0.4V409.7z"/>
			<path class="st5" d="M440.5,407.9h1.6v12h-1.6l-2.6-7.1h-0.2v7.1h-1.6v-12h1.6l2.6,7.1h0.2V407.9z"/>
			<path class="st5" d="M443.5,407.9h5.1v1.6h-3.3v3.4h3.1v1.6h-3.1v3.7h3.4v1.6h-5.2V407.9z"/>
		</g>
		<g>
			<g>
				<g>
					<g>
						<line class="st17" x1="373.7" y1="406.5" x2="373.7" y2="421.4"/>
					</g>
					<g>
						<path class="st7" d="M381.3,413.9c0,0.8-0.7,1.4-1.5,1.4c-0.8,0-1.5-0.6-1.5-1.4c0-0.8,0.7-1.4,1.5-1.4
							C380.7,412.5,381.3,413.2,381.3,413.9z"/>
					</g>
					<g>
						<ellipse class="st7" cx="385.9" cy="413.9" rx="1.5" ry="1.4"/>
					</g>
					<g>
						<line class="st17" x1="392" y1="406.5" x2="392" y2="421.4"/>
					</g>
				</g>
			</g>
		</g>
	</g>
	<g>
		<defs>
			
				<rect id="SVGID_1_" x="63.8" y="280" transform="matrix(-0.7498 -0.6616 0.6616 -0.7498 -56.8328 547.0021)" width="22.3" height="8.5"/>
		</defs>
		<clipPath id="SVGID_00000080166025381905260710000009509941486702897086_">
			<use xlink:href="#SVGID_1_"  style="overflow:visible;"/>
		</clipPath>
		<g style="clip-path:url(#SVGID_00000080166025381905260710000009509941486702897086_);">
			<polygon class="st19" points="72.2,272.4 74.4,274.2 73.9,283.3 65,284.9 62.9,283 71.8,281.4 			"/>
			<polygon class="st20" points="76.5,276.1 78.6,278 78.2,287.1 69.2,288.6 67.1,286.7 76.1,285.2 			"/>
			<polygon class="st21" points="80.8,279.9 82.9,281.7 82.4,290.8 73.5,292.4 71.4,290.5 80.3,288.9 			"/>
		</g>
	</g>
</g>
</svg>
