<?xml version="1.0" encoding="utf-8"?>
<!-- Generator: Adobe Illustrator 26.5.0, SVG Export Plug-In . SVG Version: 6.00 Build 0)  -->
<svg version="1.1" xmlns="http://www.w3.org/2000/svg" xmlns:xlink="http://www.w3.org/1999/xlink" x="0px" y="0px"
	 viewBox="0 0 550 443.7" style="enable-background:new 0 0 550 443.7;" xml:space="preserve">
<style type="text/css">
	.st0{fill:none;stroke:#646464;stroke-width:14.1732;stroke-miterlimit:10;}
	.st1{fill:none;stroke:#FFD449;stroke-width:2.8346;stroke-miterlimit:10;}
	.st2{fill:none;stroke:#54C6EB;stroke-width:2.8346;stroke-miterlimit:10;}
	.st3{fill:none;stroke:#F4442E;stroke-width:2.8346;stroke-miterlimit:10;}
	.st4{fill:none;stroke:#FFFFFF;stroke-width:2.126;}
	.st5{fill:#646464;}
	.st6{fill:#FFFFFF;}
	.st7{fill:none;stroke:#646464;stroke-width:2.8346;stroke-miterlimit:10;}
	.st8{fill:#09BC8A;}
	.st9{fill:none;stroke:#09BC8A;stroke-width:1.9843;stroke-miterlimit:10;}
	.st10{fill:none;stroke:#09BC8A;stroke-width:2.2097;stroke-miterlimit:10;}
	.st11{fill:#FF3380;}
	.st12{fill:none;stroke:#FF3380;stroke-width:1.9843;stroke-miterlimit:10;}
	.st13{fill:none;stroke:#646464;stroke-width:0.7087;stroke-miterlimit:10;}
	.st14{fill:none;stroke:#F4442E;stroke-width:5.6693;stroke-miterlimit:10;}
	.st15{fill:none;stroke:#54C6EB;stroke-width:5.6693;stroke-miterlimit:10;}
	.st16{fill:none;stroke:#FFD449;stroke-width:5.6693;stroke-miterlimit:10;}
	.st17{fill:none;stroke:#09BC8A;stroke-width:2.8346;stroke-miterlimit:10;}
	.st18{clip-path:url(#SVGID_00000068658298010093746840000007256555623060923548_);}
	.st19{fill:#F4442E;}
	.st20{fill:#54C6EB;}
	.st21{fill:#FFD449;}
</style>
<g id="コース">
	<path class="st0" d="M419.3,301.7c-22,0-193.8,0-199,0c-5.3,0-4.4-3.3-4.4-5s0.5-5.8-1.9-5.8s-4.8,0.7-7.9,2
		c-3.1,1.3-16.5,7.8-38.3,9.1c-11.5,0.7-31.2,0.9-47.2-7.2c-22.4-11.4-38.2-36.5-41.6-59.3c-1.6-10.4-13-81.5-13.6-84
		c-0.6-2.5-1.8-3.7-4.5-3.8c-2.8-0.1-6.1-0.7-6.9-6.4s-2-10.7-5.1-16.7c-3.1-6-15.2-35.9-17.3-40.2s-4.2-19.6,10-22.5
		c14.2-2.9,46.5-8.8,50.8-9.4c4.2-0.6,8.3-0.6,12,5.1s27.5,41.1,31.6,48c4.1,6.9,16.7,22.4,31.3,37.2c14.6,14.8,81.5,78.9,83.9,81.2
		s3.8,5.7,10.8,3.7c7-2,11.3-2.8,18.3,0.1c7,2.9,9.4,7,11.1,8.8c1.8,1.8,3.7,3.5,7,3.5s202.8,4.1,210.1,4.2
		c7.3,0.1,16.7,6.9,16.7,17.3c0,10.4-6.4,22-17.1,27.8c-18.7,10.2-47.4,12.4-71.1,12.4C424.7,301.7,419.3,301.7,419.3,301.7z"/>
</g>
<g id="セクター">
	<path class="st1" d="M238.7,211.9c7,6.8,11.8,11.4,12.4,12c2.3,2.3,3.8,5.7,10.8,3.7c7-2,11.3-2.8,18.3,0.1c7,2.9,9.4,7,11.1,8.8
		c1.8,1.8,3.7,3.5,7,3.5s202.8,4.1,210.1,4.2c7.3,0.1,16.7,6.9,16.7,17.3c0,10.4-6.4,22-17.1,27.8c-15.4,8.4-37.6,11.4-58.2,12.2"/>
	<path class="st2" d="M69.1,173.6c-2-12.1-3.5-21.3-3.7-22.2c-0.6-2.5-1.8-3.7-4.5-3.8c-2.8-0.1-6.1-0.7-6.9-6.4s-2-10.7-5.1-16.7
		c-3.1-6-15.2-35.9-17.3-40.2s-4.2-19.6,10-22.5c14.2-2.9,46.5-8.8,50.8-9.4c4.2-0.6,8.3-0.6,12,5.1s27.5,41.1,31.6,48
		c4.1,6.9,16.7,22.4,31.3,37.2c10.9,11,50.8,49.4,71.4,69.3"/>
	<path class="st3" d="M449.9,301.4c-4.4,0.2-8.7,0.2-12.9,0.2c-12.3,0-17.7,0-17.7,0c-22,0-193.8,0-199,0c-5.3,0-4.4-3.3-4.4-5
		s0.5-5.8-1.9-5.8s-4.8,0.7-7.9,2c-3.1,1.3-16.5,7.8-38.3,9.1c-11.5,0.7-31.2,0.9-47.2-7.2c-22.4-11.4-38.2-36.5-41.6-59.3
		c-1-6.8-6.2-39.3-9.9-61.8"/>
</g>
<g id="コーナー番号">
	<g>
		<g>
			<circle class="st4" cx="208" cy="321.1" r="8.5"/>
			<circle class="st5" cx="208" cy="321.1" r="8.5"/>
		</g>
		<g>
			<path class="st6" d="M206.2,324.9v-1.6h1v-4.5h-0.9v-1.6h2.6v6.1h0.9v1.6H206.2z"/>
		</g>
	</g>
	<g>
		<g>
			<circle class="st4" cx="215.1" cy="268.6" r="8.5"/>
			<circle class="st5" cx="215.1" cy="268.6" r="8.5"/>
		</g>
		<g>
			<path class="st6" d="M213,272.5V270c0-0.6,0.1-1,0.6-1.2l1.9-0.8v-1.6l-0.1-0.1h-0.5l-0.1,0.1v1.1H213v-1.3
				c0-0.8,0.4-1.1,0.8-1.3h2.5c0.5,0.2,0.8,0.5,0.8,1.3v1.9c0,0.6-0.1,0.9-0.6,1.2l-1.9,0.8v0.9h2.4v1.6H213z"/>
		</g>
	</g>
	<g>
		<g>
			<circle class="st4" cx="97.3" cy="307.4" r="8.5"/>
			<circle class="st5" cx="97.3" cy="307.4" r="8.5"/>
		</g>
		<g>
			<path class="st6" d="M96.1,311.3c-0.5-0.2-0.8-0.5-0.8-1.3v-1H97v0.8l0.1,0.1h0.5l0.1-0.1v-1.6l-0.1-0.1h-1v-1.3h1l0.1-0.1v-1.5
				l-0.1-0.1h-0.5l-0.1,0.1v0.8h-1.7v-1c0-0.8,0.4-1.1,0.8-1.3h2.5c0.5,0.2,0.8,0.5,0.8,1.3v1.3c0,0.6-0.2,0.9-0.6,1.2
				c0.4,0.3,0.6,0.6,0.6,1.2v1.4c0,0.8-0.4,1.1-0.8,1.3H96.1z"/>
		</g>
	</g>
	<g>
		<g>
			<circle class="st4" cx="83" cy="142.7" r="8.5"/>
			<circle class="st5" cx="83" cy="142.7" r="8.5"/>
		</g>
		<g>
			<path class="st6" d="M84.6,145.1v1.5h-1.7v-1.5h-2.2v-1.5l1.6-4.7h1.7l-1.6,4.6h0.5v-0.4l0.4-1h1.3v1.4h0.5v1.6H84.6z"/>
		</g>
	</g>
	<g>
		<g>
			<circle class="st4" cx="37.4" cy="152" r="8.5"/>
			<circle class="st5" cx="37.4" cy="152" r="8.5"/>
		</g>
		<g>
			<path class="st6" d="M36.1,155.9c-0.5-0.2-0.8-0.5-0.8-1.3v-1h1.6v0.8l0.1,0.1h0.6l0.1-0.1v-2.1l-0.1-0.1H37l-0.1,0.1v0.4h-1.6
				v-4.5h4v1.5h-2.4v1.6l0.4-0.4h1.3c0.5,0.2,0.8,0.5,0.8,1.3v2.4c0,0.8-0.4,1.1-0.8,1.3H36.1z"/>
		</g>
	</g>
	<g>
		<g>
			<circle class="st4" cx="15.1" cy="57.8" r="8.5"/>
			<circle class="st5" cx="15.1" cy="57.8" r="8.5"/>
		</g>
		<g>
			<path class="st6" d="M16.3,61.7h-2.5c-0.5-0.2-0.8-0.5-0.8-1.3v-5.1c0-0.8,0.4-1.1,0.8-1.3h2.5c0.5,0.2,0.8,0.5,0.8,1.3v1h-1.7
				v-0.8l-0.1-0.1h-0.5l-0.1,0.1v1.8L15,57h1.3c0.5,0.2,0.8,0.5,0.8,1.3v2.2C17.2,61.2,16.8,61.5,16.3,61.7z M15.4,60.3l0.1-0.1
				v-1.8l-0.1-0.1h-0.5l-0.1,0.1v1.8l0.1,0.1H15.4z"/>
		</g>
	</g>
	<g>
		<g>
			<circle class="st4" cx="109" cy="34.8" r="8.5"/>
			<circle class="st5" cx="109" cy="34.8" r="8.5"/>
		</g>
		<g>
			<path class="st6" d="M107.2,38.7l2.1-6.2H107V31h4.1v1.2l-2.1,6.5H107.2z"/>
		</g>
	</g>
	<g>
		<g>
			<circle class="st4" cx="247.7" cy="246.1" r="8.5"/>
			<circle class="st5" cx="247.7" cy="246.1" r="8.5"/>
		</g>
		<g>
			<path class="st6" d="M246.5,250c-0.5-0.2-0.8-0.5-0.8-1.3v-1.4c0-0.6,0.2-0.9,0.6-1.2c-0.4-0.3-0.6-0.6-0.6-1.2v-1.3
				c0-0.8,0.4-1.1,0.8-1.3h2.5c0.5,0.2,0.8,0.5,0.8,1.3v1.3c0,0.6-0.2,0.9-0.6,1.2c0.4,0.3,0.6,0.6,0.6,1.2v1.4
				c0,0.8-0.4,1.1-0.8,1.3H246.5z M247.4,245.3l0.1,0.1h0.5l0.1-0.1v-1.5l-0.1-0.1h-0.5l-0.1,0.1V245.3z M248.1,248.5v-1.6l-0.1-0.1
				h-0.5l-0.1,0.1v1.6l0.1,0.1h0.5L248.1,248.5z"/>
		</g>
	</g>
	<g>
		<g>
			<circle class="st4" cx="286.3" cy="208.2" r="8.5"/>
			<circle class="st5" cx="286.3" cy="208.2" r="8.5"/>
		</g>
		<g>
			<path class="st6" d="M285,212.1c-0.5-0.2-0.8-0.5-0.8-1.3v-1h1.7v0.8l0.1,0.1h0.5l0.1-0.1v-1.8l-0.3,0.3H285
				c-0.5-0.2-0.8-0.5-0.8-1.3v-2.2c0-0.8,0.4-1.1,0.8-1.3h2.5c0.5,0.2,0.8,0.5,0.8,1.3v5.1c0,0.8-0.4,1.1-0.8,1.3H285z M286.6,207.8
				V206l-0.1-0.1H286l-0.1,0.1v1.8l0.1,0.1h0.5L286.6,207.8z"/>
		</g>
	</g>
	<g>
		<g>
			<circle class="st4" cx="289" cy="258.6" r="8.5"/>
			<circle class="st5" cx="289" cy="258.6" r="8.5"/>
		</g>
		<g>
			<path class="st6" d="M284.9,262.5v-1.6h1v-4.5h-0.9v-1.6h2.6v6.1h0.9v1.6H284.9z"/>
			<path class="st6" d="M292.6,262.5h-2.5c-0.5-0.2-0.8-0.5-0.8-1.3v-5.1c0-0.8,0.4-1.1,0.8-1.3h2.5c0.5,0.2,0.8,0.5,0.8,1.3v5.1
				C293.4,262,293,262.3,292.6,262.5z M291.7,256.3l-0.1-0.1h-0.5l-0.1,0.1v4.7l0.1,0.1h0.5l0.1-0.1V256.3z"/>
		</g>
	</g>
	<g>
		<g>
			<circle class="st4" cx="535.5" cy="235.8" r="8.5"/>
			<circle class="st5" cx="535.5" cy="235.8" r="8.5"/>
		</g>
		<g>
			<path class="st6" d="M531.4,239.6V238h1v-4.5h-0.9V232h2.6v6.1h0.9v1.6H531.4z"/>
			<path class="st6" d="M536.1,239.6V238h1v-4.5h-0.9V232h2.6v6.1h0.9v1.6H536.1z"/>
		</g>
	</g>
</g>
<g id="DRS">
	<g>
		<circle class="st7" cx="78.2" cy="54.9" r="4.7"/>
		<circle class="st8" cx="78.2" cy="54.9" r="4.7"/>
	</g>
	<g>
		<g>
			<path class="st8" d="M273.9,104.7c0,0.8-0.6,1.4-1.4,1.4h-67.6c-0.8,0-1.4-0.6-1.4-1.4V55.8c0-0.8,0.6-1.4,1.4-1.4h67.6
				c0.8,0,1.4,0.6,1.4,1.4V104.7z"/>
		</g>
		<g>
			<path class="st6" d="M234.8,70.1c0,1.3-0.6,1.7-1.3,2h-5.2v-12h5.2c0.7,0.3,1.3,0.7,1.3,2V70.1z M230.9,62.2v7.7h1l0.2-0.2v-7.3
				l-0.2-0.2H230.9z"/>
			<path class="st6" d="M235.6,72.1v-12h5.2c0.7,0.3,1.3,0.7,1.3,2v2.5c0,1.1-0.5,1.6-1.1,1.9l1.4,3.8v1.7h-2.3l-1.5-4.7h-0.3v4.7
				H235.6z M238.2,62.2v3h1l0.2-0.2v-2.7l-0.2-0.2H238.2z"/>
			<path class="st6" d="M249.3,67.3v2.7c0,1.3-0.6,1.7-1.3,2h-3.9c-0.7-0.3-1.3-0.7-1.3-2v-2.4h2.7v2l0.2,0.2h0.8l0.2-0.2v-1.8
				l-0.1-0.2l-2.7-1.2c-0.8-0.4-0.9-0.9-0.9-1.8v-2.5c0-1.3,0.6-1.7,1.3-2h3.9c0.7,0.3,1.3,0.7,1.3,2v2.2h-2.7v-1.9l-0.2-0.2h-0.8
				l-0.2,0.2v1.7l0.2,0.3l2.7,1.1C249.2,65.8,249.3,66.4,249.3,67.3z"/>
			<path class="st6" d="M215.7,84.2c0,1.3-0.6,1.7-1.3,2h-5.2v-12h5.2c0.7,0.3,1.3,0.7,1.3,2V84.2z M211.9,76.4v7.7h1l0.2-0.2v-7.3
				l-0.2-0.2H211.9z"/>
			<path class="st6" d="M216.5,74.3h5.5v2.5h-2.8v2.2h2.7v2.5h-2.7v2.3h2.9v2.5h-5.6V74.3z"/>
			<path class="st6" d="M227.2,76.7v9.5h-2.7v-9.5h-1.9v-2.5h6.5v2.5H227.2z"/>
			<path class="st6" d="M229.6,74.3h5.5v2.5h-2.8v2.2h2.7v2.5h-2.7v2.3h2.9v2.5h-5.6V74.3z"/>
			<path class="st6" d="M242.5,84.2c0,1.3-0.6,1.7-1.3,2h-3.9c-0.7-0.3-1.3-0.7-1.3-2v-8c0-1.3,0.6-1.7,1.3-2h3.9
				c0.7,0.3,1.3,0.7,1.3,2v2.9h-2.7v-2.6l-0.2-0.2h-0.8l-0.2,0.2v7.3l0.2,0.2h0.8l0.2-0.2v-2.5h2.7V84.2z"/>
			<path class="st6" d="M247.5,76.7v9.5h-2.7v-9.5H243v-2.5h6.5v2.5H247.5z"/>
			<path class="st6" d="M250,86.2v-2.5h0.5v-7H250v-2.5h3.7v2.5h-0.5v7h0.5v2.5H250z"/>
			<path class="st6" d="M260.9,84.2c0,1.3-0.6,1.7-1.3,2h-3.9c-0.7-0.3-1.3-0.7-1.3-2v-8c0-1.3,0.6-1.7,1.3-2h3.9
				c0.7,0.3,1.3,0.7,1.3,2V84.2z M258.3,76.6l-0.2-0.2h-0.8l-0.2,0.2v7.3l0.2,0.2h0.8l0.2-0.2V76.6z"/>
			<path class="st6" d="M265.9,74.3h2.3v12h-2.3l-1.7-5.2h-0.2v5.2h-2.3v-12h2.3l1.7,5.2h0.2V74.3z"/>
			<path class="st6" d="M223.5,90.9h-3.5v-2.5h6.5v2.2l-3.5,7.3h3.5v2.5h-6.5v-2.2L223.5,90.9z"/>
			<path class="st6" d="M233.9,98.4c0,1.3-0.6,1.7-1.3,2h-3.9c-0.7-0.3-1.3-0.7-1.3-2v-8c0-1.3,0.6-1.7,1.3-2h3.9
				c0.7,0.3,1.3,0.7,1.3,2V98.4z M231.2,90.8l-0.2-0.2h-0.8l-0.2,0.2v7.3l0.2,0.2h0.8l0.2-0.2V90.8z"/>
			<path class="st6" d="M238.9,88.4h2.3v12h-2.3l-1.7-5.2H237v5.2h-2.3v-12h2.3l1.7,5.2h0.2V88.4z"/>
			<path class="st6" d="M242,88.4h5.5v2.5h-2.8v2.2h2.7v2.5h-2.7v2.3h2.9v2.5H242V88.4z"/>
			<path class="st6" d="M251.5,100.4v-2.5h1.5v-7h-1.3v-2.5h4v9.5h1.3v2.5H251.5z"/>
		</g>
	</g>
	<g>
		<g>
			<path class="st8" d="M473.3,159.6c0,0.8-0.6,1.4-1.4,1.4h-67.6c-0.8,0-1.4-0.6-1.4-1.4v-48.8c0-0.8,0.6-1.4,1.4-1.4h67.6
				c0.8,0,1.4,0.6,1.4,1.4V159.6z"/>
		</g>
		<g>
			<path class="st6" d="M434.1,125c0,1.3-0.6,1.7-1.3,2h-5.2v-12h5.2c0.7,0.3,1.3,0.7,1.3,2V125z M430.3,117.1v7.7h1l0.2-0.2v-7.3
				l-0.2-0.2H430.3z"/>
			<path class="st6" d="M434.9,127v-12h5.2c0.7,0.3,1.3,0.7,1.3,2v2.5c0,1.1-0.5,1.6-1.1,1.9l1.4,3.8v1.7h-2.3l-1.5-4.7h-0.3v4.7
				H434.9z M437.6,117.1v3h1l0.2-0.2v-2.7l-0.2-0.2H437.6z"/>
			<path class="st6" d="M448.6,122.2v2.7c0,1.3-0.6,1.7-1.3,2h-3.9c-0.7-0.3-1.3-0.7-1.3-2v-2.4h2.7v2l0.2,0.2h0.8l0.2-0.2v-1.8
				l-0.2-0.2l-2.7-1.2c-0.8-0.4-0.9-0.9-0.9-1.8V117c0-1.3,0.6-1.7,1.3-2h3.9c0.7,0.3,1.3,0.7,1.3,2v2.2h-2.7v-1.9l-0.2-0.2h-0.8
				l-0.2,0.2v1.7l0.2,0.3l2.7,1.1C448.5,120.7,448.6,121.3,448.6,122.2z"/>
			<path class="st6" d="M415,139.1c0,1.3-0.6,1.7-1.3,2h-5.2v-12h5.2c0.7,0.3,1.3,0.7,1.3,2V139.1z M411.2,131.3v7.7h1l0.2-0.2v-7.3
				l-0.2-0.2H411.2z"/>
			<path class="st6" d="M415.9,129.2h5.5v2.5h-2.8v2.2h2.7v2.5h-2.7v2.3h2.9v2.5h-5.6V129.2z"/>
			<path class="st6" d="M426.5,131.7v9.5h-2.7v-9.5h-1.9v-2.5h6.5v2.5H426.5z"/>
			<path class="st6" d="M428.9,129.2h5.5v2.5h-2.8v2.2h2.7v2.5h-2.7v2.3h2.9v2.5h-5.6V129.2z"/>
			<path class="st6" d="M441.8,139.1c0,1.3-0.6,1.7-1.3,2h-3.9c-0.7-0.3-1.3-0.7-1.3-2v-8c0-1.3,0.6-1.7,1.3-2h3.9
				c0.7,0.3,1.3,0.7,1.3,2v2.9h-2.7v-2.6l-0.2-0.2h-0.8l-0.2,0.2v7.3l0.2,0.2h0.8l0.2-0.2v-2.5h2.7V139.1z"/>
			<path class="st6" d="M446.9,131.7v9.5h-2.7v-9.5h-1.9v-2.5h6.5v2.5H446.9z"/>
			<path class="st6" d="M449.3,141.1v-2.5h0.5v-7h-0.5v-2.5h3.7v2.5h-0.5v7h0.5v2.5H449.3z"/>
			<path class="st6" d="M460.3,139.1c0,1.3-0.6,1.7-1.3,2h-3.9c-0.7-0.3-1.3-0.7-1.3-2v-8c0-1.3,0.6-1.7,1.3-2h3.9
				c0.7,0.3,1.3,0.7,1.3,2V139.1z M457.6,131.5l-0.2-0.2h-0.8l-0.2,0.2v7.3l0.2,0.2h0.8l0.2-0.2V131.5z"/>
			<path class="st6" d="M465.3,129.2h2.3v12h-2.3l-1.7-5.2h-0.2v5.2h-2.3v-12h2.3l1.7,5.2h0.2V129.2z"/>
			<path class="st6" d="M422.9,145.8h-3.5v-2.5h6.5v2.2l-3.5,7.3h3.5v2.5h-6.5v-2.2L422.9,145.8z"/>
			<path class="st6" d="M433.2,153.3c0,1.3-0.6,1.7-1.3,2H428c-0.7-0.3-1.3-0.7-1.3-2v-8c0-1.3,0.6-1.7,1.3-2h3.9
				c0.7,0.3,1.3,0.7,1.3,2V153.3z M430.5,145.7l-0.2-0.2h-0.8l-0.2,0.2v7.3l0.2,0.2h0.8l0.2-0.2V145.7z"/>
			<path class="st6" d="M438.2,143.3h2.3v12h-2.3l-1.7-5.2h-0.2v5.2H434v-12h2.3l1.7,5.2h0.2V143.3z"/>
			<path class="st6" d="M441.3,143.3h5.5v2.5H444v2.2h2.7v2.5H444v2.3h2.9v2.5h-5.6V143.3z"/>
			<path class="st6" d="M450.3,155.3v-4c0-0.9,0.2-1.5,0.9-1.8l2.9-1.3v-2.5l-0.2-0.2h-0.8l-0.2,0.2v1.7h-2.7v-2.1
				c0-1.3,0.6-1.7,1.3-2h3.9c0.7,0.3,1.3,0.7,1.3,2v3c0,0.9-0.1,1.5-0.9,1.8l-2.9,1.3v1.3h3.8v2.5H450.3z"/>
		</g>
	</g>
	<g>
		<circle class="st7" cx="498.4" cy="244.3" r="4.7"/>
		<circle class="st8" cx="498.4" cy="244.3" r="4.7"/>
	</g>
	<g>
		<path class="st9" d="M473.3,134.2h16.7c4.7,0,8.5,3.8,8.5,8.5v101.6"/>
	</g>
	<g>
		<path class="st9" d="M238.7,54.9V19.7c0-4.7-3.8-8.5-8.5-8.5H86.7c-4.7,0-8.5,3.8-8.5,8.5v35.2"/>
	</g>
	<g>
		<g>
			<g>
				<g>
					<line class="st10" x1="140.9" y1="74.5" x2="131" y2="80.6"/>
				</g>
				<g>
					<path class="st8" d="M138.9,82.2c-0.5,0.3-1.2,0.2-1.5-0.3c-0.3-0.5-0.2-1.2,0.4-1.5c0.5-0.3,1.2-0.2,1.5,0.3
						C139.5,81.2,139.4,81.9,138.9,82.2z"/>
				</g>
				<g>
					<path class="st8" d="M141.2,86c-0.5,0.3-1.2,0.2-1.5-0.3c-0.3-0.5-0.2-1.2,0.3-1.5c0.5-0.3,1.2-0.2,1.5,0.3
						C141.9,84.9,141.7,85.6,141.2,86z"/>
				</g>
				<g>
					<path class="st8" d="M143.6,89.7c-0.5,0.3-1.2,0.2-1.5-0.3c-0.3-0.5-0.2-1.2,0.3-1.5c0.5-0.3,1.2-0.2,1.5,0.3
						C144.3,88.7,144.1,89.3,143.6,89.7z"/>
				</g>
				<g>
					<path class="st8" d="M146,93.4c-0.5,0.3-1.2,0.2-1.5-0.3c-0.3-0.5-0.2-1.2,0.3-1.5c0.5-0.3,1.2-0.2,1.5,0.3
						C146.6,92.4,146.5,93,146,93.4z"/>
				</g>
				<g>
					<path class="st8" d="M148.4,97.1c-0.5,0.3-1.2,0.2-1.5-0.3c-0.3-0.5-0.2-1.2,0.3-1.5c0.5-0.3,1.2-0.2,1.5,0.3
						S148.9,96.7,148.4,97.1z"/>
				</g>
				<g>
					<path class="st8" d="M150.8,100.7c-0.5,0.3-1.2,0.2-1.5-0.3c-0.3-0.5-0.2-1.2,0.3-1.5s1.2-0.2,1.5,0.3S151.3,100.4,150.8,100.7
						z"/>
				</g>
				<g>
					<path class="st8" d="M153.3,104.3c-0.5,0.3-1.2,0.2-1.5-0.3c-0.3-0.5-0.2-1.2,0.3-1.5c0.5-0.3,1.2-0.2,1.5,0.3
						C153.9,103.3,153.8,104,153.3,104.3z"/>
				</g>
				<g>
					<path class="st8" d="M155.9,107.9c-0.5,0.4-1.2,0.3-1.5-0.2c-0.4-0.5-0.3-1.2,0.2-1.5c0.5-0.4,1.2-0.2,1.5,0.2
						C156.5,106.9,156.4,107.6,155.9,107.9z"/>
				</g>
				<g>
					<path class="st8" d="M158.6,111.4c-0.5,0.4-1.2,0.3-1.6-0.2c-0.4-0.5-0.3-1.2,0.2-1.6s1.2-0.3,1.5,0.2
						C159.1,110.3,159.1,111,158.6,111.4z"/>
				</g>
				<g>
					<path class="st8" d="M161.6,114.6c-0.4,0.4-1.1,0.4-1.6,0c-0.4-0.4-0.4-1.1,0-1.6c0.4-0.4,1.1-0.4,1.6,0
						C162.1,113.5,162,114.2,161.6,114.6z"/>
				</g>
				<g>
					<path class="st8" d="M164.7,117.7c-0.4,0.4-1.1,0.4-1.6,0c-0.4-0.4-0.4-1.1,0-1.6c0.4-0.4,1.1-0.4,1.6,0
						S165.2,117.3,164.7,117.7z"/>
				</g>
				<g>
					<path class="st8" d="M167.8,120.8c-0.4,0.4-1.1,0.4-1.6,0c-0.4-0.4-0.4-1.1,0-1.6c0.4-0.4,1.1-0.4,1.6,0
						C168.3,119.7,168.3,120.4,167.8,120.8z"/>
				</g>
				<g>
					<path class="st8" d="M171,123.9c-0.4,0.4-1.1,0.4-1.6,0c-0.4-0.4-0.4-1.1,0-1.6c0.4-0.4,1.1-0.4,1.6,0
						C171.4,122.8,171.4,123.5,171,123.9z"/>
				</g>
				<g>
					<path class="st8" d="M174.1,127c-0.4,0.4-1.1,0.4-1.6,0c-0.4-0.4-0.4-1.1,0-1.6c0.4-0.4,1.1-0.4,1.6,0
						C174.5,125.9,174.5,126.6,174.1,127z"/>
				</g>
				<g>
					<path class="st8" d="M177.2,130.1c-0.4,0.4-1.1,0.4-1.6,0c-0.4-0.4-0.4-1.1,0-1.6c0.4-0.4,1.1-0.4,1.6,0
						C177.7,129,177.7,129.7,177.2,130.1z"/>
				</g>
				<g>
					<path class="st8" d="M180.4,133.2c-0.4,0.4-1.1,0.4-1.6,0c-0.4-0.4-0.4-1.1,0-1.6s1.1-0.4,1.6,0
						C180.8,132.1,180.8,132.8,180.4,133.2z"/>
				</g>
				<g>
					<path class="st8" d="M183.5,136.3c-0.4,0.4-1.1,0.4-1.6,0s-0.4-1.1,0-1.6s1.1-0.4,1.6,0C183.9,135.2,183.9,135.9,183.5,136.3z"
						/>
				</g>
				<g>
					<path class="st8" d="M186.7,139.4c-0.4,0.4-1.1,0.4-1.6,0c-0.4-0.4-0.4-1.1,0-1.6c0.4-0.4,1.1-0.4,1.6,0
						C187.1,138.3,187.1,139,186.7,139.4z"/>
				</g>
				<g>
					<path class="st8" d="M189.8,142.5c-0.4,0.4-1.1,0.4-1.6,0s-0.4-1.1,0-1.6c0.4-0.4,1.1-0.4,1.6,0
						C190.2,141.4,190.2,142.1,189.8,142.5z"/>
				</g>
				<g>
					<path class="st8" d="M193,145.6c-0.4,0.4-1.1,0.4-1.6,0c-0.4-0.4-0.4-1.1,0-1.6c0.4-0.4,1.1-0.4,1.6,0
						C193.4,144.4,193.4,145.1,193,145.6z"/>
				</g>
				<g>
					<path class="st8" d="M196.1,148.7c-0.4,0.4-1.1,0.4-1.6,0s-0.4-1.1,0-1.6c0.4-0.4,1.1-0.4,1.6,0S196.5,148.2,196.1,148.7z"/>
				</g>
				<g>
					<path class="st8" d="M199.2,151.7c-0.4,0.4-1.1,0.4-1.6,0s-0.4-1.1,0-1.6c0.4-0.4,1.1-0.4,1.6,0S199.7,151.3,199.2,151.7z"/>
				</g>
				<g>
					<path class="st8" d="M202.4,154.8c-0.4,0.4-1.1,0.4-1.6,0c-0.4-0.4-0.4-1.1,0-1.6c0.4-0.4,1.1-0.4,1.6,0
						C202.8,153.7,202.8,154.4,202.4,154.8z"/>
				</g>
				<g>
					<path class="st8" d="M205.5,157.9c-0.4,0.4-1.1,0.4-1.6,0c-0.4-0.4-0.4-1.1,0-1.6s1.1-0.4,1.6,0S206,157.5,205.5,157.9z"/>
				</g>
				<g>
					<path class="st8" d="M208.7,161c-0.4,0.4-1.1,0.4-1.6,0c-0.4-0.4-0.4-1.1,0-1.6c0.4-0.4,1.1-0.4,1.6,0S209.1,160.6,208.7,161z"
						/>
				</g>
				<g>
					<path class="st8" d="M211.8,164.1c-0.4,0.4-1.1,0.4-1.6,0c-0.4-0.4-0.4-1.1,0-1.6c0.4-0.4,1.1-0.4,1.6,0
						C212.3,162.9,212.3,163.6,211.8,164.1z"/>
				</g>
				<g>
					<path class="st8" d="M215,167.1c-0.4,0.4-1.1,0.4-1.6,0s-0.4-1.1,0-1.6c0.4-0.4,1.1-0.4,1.6,0C215.4,166,215.4,166.7,215,167.1
						z"/>
				</g>
				<g>
					<path class="st8" d="M218.1,170.2c-0.4,0.4-1.1,0.4-1.6,0s-0.4-1.1,0-1.6c0.4-0.4,1.1-0.4,1.6,0S218.6,169.8,218.1,170.2z"/>
				</g>
				<g>
					
						<ellipse transform="matrix(0.6992 -0.715 0.715 0.6992 -57.0213 209.5587)" class="st8" cx="220.5" cy="172.5" rx="1.1" ry="1.1"/>
				</g>
				<g>
					<path class="st8" d="M224.4,176.4c-0.4,0.4-1.1,0.4-1.6,0c-0.4-0.4-0.4-1.1,0-1.6c0.4-0.4,1.1-0.4,1.6,0
						S224.9,175.9,224.4,176.4z"/>
				</g>
				<g>
					<path class="st8" d="M227.6,179.5c-0.4,0.4-1.1,0.4-1.6,0c-0.4-0.4-0.4-1.1,0-1.6c0.4-0.4,1.1-0.4,1.6,0
						C228,178.3,228,179,227.6,179.5z"/>
				</g>
				<g>
					<path class="st8" d="M230.7,182.5c-0.4,0.4-1.1,0.4-1.6,0s-0.4-1.1,0-1.6c0.4-0.4,1.1-0.4,1.6,0
						C231.2,181.4,231.2,182.1,230.7,182.5z"/>
				</g>
				<g>
					<path class="st8" d="M233.9,185.6c-0.4,0.4-1.1,0.4-1.6,0c-0.4-0.4-0.4-1.1,0-1.6c0.4-0.4,1.1-0.4,1.6,0
						C234.3,184.5,234.3,185.2,233.9,185.6z"/>
				</g>
				<g>
					<path class="st8" d="M237,188.7c-0.4,0.4-1.1,0.4-1.6,0c-0.4-0.4-0.4-1.1,0-1.6c0.4-0.4,1.1-0.4,1.6,0
						C237.5,187.6,237.5,188.3,237,188.7z"/>
				</g>
				<g>
					<path class="st8" d="M240.2,191.8c-0.4,0.4-1.1,0.4-1.6,0c-0.4-0.4-0.4-1.1,0-1.6c0.4-0.4,1.1-0.4,1.6,0
						C240.6,190.6,240.6,191.3,240.2,191.8z"/>
				</g>
				<g>
					<path class="st8" d="M243.4,194.8c-0.4,0.4-1.1,0.4-1.6,0c-0.4-0.4-0.4-1.1,0-1.6c0.4-0.4,1.1-0.4,1.6,0
						C243.8,193.7,243.8,194.4,243.4,194.8z"/>
				</g>
				<g>
					<path class="st8" d="M246.5,197.9c-0.4,0.4-1.1,0.4-1.6,0c-0.4-0.4-0.4-1.1,0-1.6c0.4-0.4,1.1-0.4,1.6,0
						S246.9,197.5,246.5,197.9z"/>
				</g>
				<g>
					<path class="st8" d="M249.7,201c-0.4,0.4-1.1,0.4-1.6,0c-0.4-0.4-0.4-1.1,0-1.6c0.4-0.4,1.1-0.4,1.6,0
						C250.1,199.9,250.1,200.6,249.7,201z"/>
				</g>
				<g>
					<path class="st8" d="M252.8,204.1c-0.4,0.4-1.1,0.4-1.6,0c-0.4-0.4-0.4-1.1,0-1.6c0.4-0.4,1.1-0.4,1.6,0
						C253.2,202.9,253.2,203.6,252.8,204.1z"/>
				</g>
				<g>
					<line class="st10" x1="259.2" y1="202.2" x2="251.1" y2="210.5"/>
				</g>
			</g>
		</g>
	</g>
	<g>
		<g>
			<g>
				<g>
					<line class="st10" x1="384.2" y1="323.9" x2="384.3" y2="312.3"/>
				</g>
				<g>
					<path class="st8" d="M378.7,318c0-0.6,0.5-1.1,1.1-1.1c0.6,0,1.1,0.5,1.1,1.1c0,0.6-0.5,1.1-1.1,1.1
						C379.2,319.2,378.7,318.7,378.7,318z"/>
				</g>
				<g>
					<path class="st8" d="M374.2,318c0-0.6,0.5-1.1,1.1-1.1c0.6,0,1.1,0.5,1.1,1.1c0,0.6-0.5,1.1-1.1,1.1
						C374.7,319.1,374.2,318.6,374.2,318z"/>
				</g>
				<g>
					<path class="st8" d="M369.8,318c0-0.6,0.5-1.1,1.1-1.1s1.1,0.5,1.1,1.1c0,0.6-0.5,1.1-1.1,1.1
						C370.3,319.1,369.8,318.6,369.8,318z"/>
				</g>
				<g>
					<path class="st8" d="M365.3,318c0-0.6,0.5-1.1,1.1-1.1c0.6,0,1.1,0.5,1.1,1.1c0,0.6-0.5,1.1-1.1,1.1
						C365.8,319.1,365.3,318.6,365.3,318z"/>
				</g>
				<g>
					<path class="st8" d="M360.9,318c0-0.6,0.5-1.1,1.1-1.1c0.6,0,1.1,0.5,1.1,1.1c0,0.6-0.5,1.1-1.1,1.1
						C361.4,319.1,360.9,318.6,360.9,318z"/>
				</g>
				<g>
					<path class="st8" d="M356.5,318c0-0.6,0.5-1.1,1.1-1.1c0.6,0,1.1,0.5,1.1,1.1c0,0.6-0.5,1.1-1.1,1.1
						C356.9,319.1,356.4,318.6,356.5,318z"/>
				</g>
				<g>
					<path class="st8" d="M352,317.9c0-0.6,0.5-1.1,1.1-1.1c0.6,0,1.1,0.5,1.1,1.1c0,0.6-0.5,1.1-1.1,1.1
						C352.5,319,352,318.5,352,317.9z"/>
				</g>
				<g>
					<path class="st8" d="M347.6,317.9c0-0.6,0.5-1.1,1.1-1.1s1.1,0.5,1.1,1.1c0,0.6-0.5,1.1-1.1,1.1
						C348.1,319,347.6,318.5,347.6,317.9z"/>
				</g>
				<g>
					<path class="st8" d="M343.1,317.9c0-0.6,0.5-1.1,1.1-1.1c0.6,0,1.1,0.5,1.1,1.1c0,0.6-0.5,1.1-1.1,1.1S343.1,318.5,343.1,317.9
						z"/>
				</g>
				<g>
					<path class="st8" d="M338.7,317.9c0-0.6,0.5-1.1,1.1-1.1c0.6,0,1.1,0.5,1.1,1.1c0,0.6-0.5,1.1-1.1,1.1
						C339.2,319,338.7,318.5,338.7,317.9z"/>
				</g>
				<g>
					<path class="st8" d="M334.2,317.9c0-0.6,0.5-1.1,1.1-1.1c0.6,0,1.1,0.5,1.1,1.1c0,0.6-0.5,1.1-1.1,1.1
						C334.7,319,334.2,318.5,334.2,317.9z"/>
				</g>
				<g>
					<path class="st8" d="M329.8,317.8c0-0.6,0.5-1.1,1.1-1.1c0.6,0,1.1,0.5,1.1,1.1c0,0.6-0.5,1.1-1.1,1.1
						C330.3,319,329.8,318.5,329.8,317.8z"/>
				</g>
				<g>
					<path class="st8" d="M325.3,317.8c0-0.6,0.5-1.1,1.1-1.1c0.6,0,1.1,0.5,1.1,1.1c0,0.6-0.5,1.1-1.1,1.1
						C325.8,318.9,325.3,318.4,325.3,317.8z"/>
				</g>
				<g>
					<path class="st8" d="M320.9,317.8c0-0.6,0.5-1.1,1.1-1.1c0.6,0,1.1,0.5,1.1,1.1c0,0.6-0.5,1.1-1.1,1.1S320.9,318.4,320.9,317.8
						z"/>
				</g>
				<g>
					<path class="st8" d="M316.5,317.8c0-0.6,0.5-1.1,1.1-1.1c0.6,0,1.1,0.5,1.1,1.1c0,0.6-0.5,1.1-1.1,1.1
						C316.9,318.9,316.4,318.4,316.5,317.8z"/>
				</g>
				<g>
					<path class="st8" d="M312,317.8c0-0.6,0.5-1.1,1.1-1.1c0.6,0,1.1,0.5,1.1,1.1c0,0.6-0.5,1.1-1.1,1.1
						C312.5,318.9,312,318.4,312,317.8z"/>
				</g>
				<g>
					<path class="st8" d="M307.6,317.8c0-0.6,0.5-1.1,1.1-1.1c0.6,0,1.1,0.5,1.1,1.1c0,0.6-0.5,1.1-1.1,1.1
						C308.1,318.9,307.6,318.4,307.6,317.8z"/>
				</g>
				<g>
					<path class="st8" d="M303.1,317.7c0-0.6,0.5-1.1,1.1-1.1s1.1,0.5,1.1,1.1c0,0.6-0.5,1.1-1.1,1.1
						C303.6,318.8,303.1,318.3,303.1,317.7z"/>
				</g>
				<g>
					<path class="st8" d="M298.7,317.7c0-0.6,0.5-1.1,1.1-1.1c0.6,0,1.1,0.5,1.1,1.1c0,0.6-0.5,1.1-1.1,1.1S298.7,318.3,298.7,317.7
						z"/>
				</g>
				<g>
					<path class="st8" d="M294.2,317.7c0-0.6,0.5-1.1,1.1-1.1c0.6,0,1.1,0.5,1.1,1.1c0,0.6-0.5,1.1-1.1,1.1
						C294.7,318.8,294.2,318.3,294.2,317.7z"/>
				</g>
				<g>
					<path class="st8" d="M289.8,317.7c0-0.6,0.5-1.1,1.1-1.1c0.6,0,1.1,0.5,1.1,1.1c0,0.6-0.5,1.1-1.1,1.1
						C290.3,318.8,289.8,318.3,289.8,317.7z"/>
				</g>
				<g>
					<path class="st8" d="M285.3,317.7c0-0.6,0.5-1.1,1.1-1.1c0.6,0,1.1,0.5,1.1,1.1c0,0.6-0.5,1.1-1.1,1.1
						C285.8,318.8,285.3,318.3,285.3,317.7z"/>
				</g>
				<g>
					<path class="st8" d="M280.9,317.6c0-0.6,0.5-1.1,1.1-1.1c0.6,0,1.1,0.5,1.1,1.1c0,0.6-0.5,1.1-1.1,1.1
						C281.4,318.8,280.9,318.3,280.9,317.6z"/>
				</g>
				<g>
					<path class="st8" d="M276.5,317.6c0-0.6,0.5-1.1,1.1-1.1c0.6,0,1.1,0.5,1.1,1.1c0,0.6-0.5,1.1-1.1,1.1S276.5,318.2,276.5,317.6
						z"/>
				</g>
				<g>
					<path class="st8" d="M272,317.6c0-0.6,0.5-1.1,1.1-1.1c0.6,0,1.1,0.5,1.1,1.1c0,0.6-0.5,1.1-1.1,1.1
						C272.5,318.7,272,318.2,272,317.6z"/>
				</g>
				<g>
					<path class="st8" d="M267.6,317.6c0-0.6,0.5-1.1,1.1-1.1c0.6,0,1.1,0.5,1.1,1.1c0,0.6-0.5,1.1-1.1,1.1
						C268.1,318.7,267.6,318.2,267.6,317.6z"/>
				</g>
				<g>
					<path class="st8" d="M263.1,317.6c0-0.6,0.5-1.1,1.1-1.1c0.6,0,1.1,0.5,1.1,1.1c0,0.6-0.5,1.1-1.1,1.1
						C263.6,318.7,263.1,318.2,263.1,317.6z"/>
				</g>
				<g>
					<path class="st8" d="M258.7,317.6c0-0.6,0.5-1.1,1.1-1.1c0.6,0,1.1,0.5,1.1,1.1c0,0.6-0.5,1.1-1.1,1.1
						C259.2,318.7,258.7,318.2,258.7,317.6z"/>
				</g>
				<g>
					<path class="st8" d="M254.2,317.5c0-0.6,0.5-1.1,1.1-1.1c0.6,0,1.1,0.5,1.1,1.1c0,0.6-0.5,1.1-1.1,1.1
						C254.7,318.6,254.2,318.1,254.2,317.5z"/>
				</g>
				<g>
					<path class="st8" d="M249.8,317.5c0-0.6,0.5-1.1,1.1-1.1c0.6,0,1.1,0.5,1.1,1.1c0,0.6-0.5,1.1-1.1,1.1
						C250.3,318.6,249.8,318.1,249.8,317.5z"/>
				</g>
				<g>
					<path class="st8" d="M245.3,317.5c0-0.6,0.5-1.1,1.1-1.1c0.6,0,1.1,0.5,1.1,1.1c0,0.6-0.5,1.1-1.1,1.1
						C245.8,318.6,245.3,318.1,245.3,317.5z"/>
				</g>
				<g>
					<path class="st8" d="M240.9,317.5c0-0.6,0.5-1.1,1.1-1.1s1.1,0.5,1.1,1.1c0,0.6-0.5,1.1-1.1,1.1
						C241.4,318.6,240.9,318.1,240.9,317.5z"/>
				</g>
				<g>
					<path class="st8" d="M236.5,317.5c0-0.6,0.5-1.1,1.1-1.1c0.6,0,1.1,0.5,1.1,1.1c0,0.6-0.5,1.1-1.1,1.1
						C236.9,318.6,236.5,318.1,236.5,317.5z"/>
				</g>
				<g>
					<path class="st8" d="M232,317.4c0-0.6,0.5-1.1,1.1-1.1c0.6,0,1.1,0.5,1.1,1.1c0,0.6-0.5,1.1-1.1,1.1
						C232.5,318.6,232,318.1,232,317.4z"/>
				</g>
				<g>
					<path class="st8" d="M227.6,317.4c0-0.6,0.5-1.1,1.1-1.1c0.6,0,1.1,0.5,1.1,1.1c0,0.6-0.5,1.1-1.1,1.1
						C228.1,318.5,227.6,318,227.6,317.4z"/>
				</g>
				<g>
					<line class="st10" x1="224.2" y1="323.2" x2="224.3" y2="311.6"/>
				</g>
			</g>
		</g>
	</g>
</g>
<g id="SPEED_x5F_TRAP">
	<g>
		<g>
			<path class="st11" d="M304.5,370.1c0,0.8-0.6,1.4-1.4,1.4h-42.2c-0.8,0-1.4-0.6-1.4-1.4v-34.7c0-0.8,0.6-1.4,1.4-1.4h42.2
				c0.8,0,1.4,0.6,1.4,1.4V370.1z"/>
		</g>
		<g>
			<path class="st6" d="M271.7,347v2.7c0,1.3-0.6,1.7-1.3,2h-3.9c-0.7-0.3-1.3-0.7-1.3-2v-2.4h2.7v2l0.2,0.2h0.8l0.2-0.2v-1.8
				l-0.1-0.2l-2.7-1.2c-0.8-0.4-0.9-0.9-0.9-1.8v-2.5c0-1.3,0.6-1.7,1.3-2h3.9c0.7,0.3,1.3,0.7,1.3,2v2.2H269V342l-0.2-0.2H268
				l-0.2,0.2v1.7l0.2,0.3l2.7,1.1C271.5,345.5,271.7,346.1,271.7,347z"/>
			<path class="st6" d="M275.1,347.5v4.2h-2.7v-12h5.2c0.7,0.3,1.3,0.7,1.3,2v3.8c0,1.3-0.6,1.7-1.3,2H275.1z M275.1,341.9v3.5h1
				l0.2-0.2V342l-0.2-0.2H275.1z"/>
			<path class="st6" d="M279.6,339.7h5.5v2.5h-2.8v2.2h2.7v2.5h-2.7v2.3h2.9v2.5h-5.6V339.7z"/>
			<path class="st6" d="M286,339.7h5.5v2.5h-2.8v2.2h2.7v2.5h-2.7v2.3h2.9v2.5H286V339.7z"/>
			<path class="st6" d="M298.9,349.7c0,1.3-0.6,1.7-1.3,2h-5.2v-12h5.2c0.7,0.3,1.3,0.7,1.3,2V349.7z M295,341.9v7.7h1l0.2-0.2V342
				l-0.2-0.2H295z"/>
			<path class="st6" d="M272.6,356.4v9.5h-2.7v-9.5H268v-2.5h6.5v2.5H272.6z"/>
			<path class="st6" d="M275,365.9v-12h5.2c0.7,0.3,1.3,0.7,1.3,2v2.5c0,1.1-0.5,1.6-1.1,1.9l1.4,3.8v1.7h-2.3l-1.5-4.7h-0.3v4.7
				H275z M277.7,356v3h1l0.2-0.2v-2.7l-0.2-0.2H277.7z"/>
			<path class="st6" d="M286.1,363.5h-1.3l-0.2,2.3h-2.5v-2l1.5-10h3.6l1.5,10v2h-2.5L286.1,363.5z M285,361h0.8l-0.3-3.8h-0.2
				L285,361z"/>
			<path class="st6" d="M292.1,361.7v4.2h-2.7v-12h5.2c0.7,0.3,1.3,0.7,1.3,2v3.8c0,1.3-0.6,1.7-1.3,2H292.1z M292.1,356v3.5h1
				l0.2-0.2v-3.2l-0.2-0.2H292.1z"/>
		</g>
	</g>
	<g>
		<circle class="st7" cx="244.1" cy="301.4" r="4.7"/>
		<circle class="st11" cx="244.1" cy="301.4" r="4.7"/>
	</g>
	<g>
		<path class="st12" d="M259.5,352.8c0,0-3.5,0-7.7,0c-4.2,0-7.7-3.8-7.7-8.5v-42.8"/>
	</g>
</g>
<g id="アイコン">
	<g>
		
			<rect x="454.5" y="327.7" transform="matrix(-1 -1.604240e-11 1.604240e-11 -1 911.8229 658.2253)" class="st5" width="2.8" height="2.8"/>
		
			<rect x="448.8" y="327.7" transform="matrix(-1 -1.475898e-11 1.475898e-11 -1 900.4844 658.2253)" class="st5" width="2.8" height="2.8"/>
		
			<rect x="451.7" y="324.9" transform="matrix(-1 -1.475898e-11 1.475898e-11 -1 906.1536 652.5561)" class="st5" width="2.8" height="2.8"/>
		
			<rect x="446" y="324.9" transform="matrix(-1 -1.668411e-11 1.668411e-11 -1 894.8151 652.5561)" class="st5" width="2.8" height="2.8"/>
		
			<rect x="451.7" y="319.2" transform="matrix(-1 -1.796753e-11 1.796753e-11 -1 906.1536 641.2175)" class="st5" width="2.8" height="2.8"/>
		
			<rect x="446" y="319.2" transform="matrix(-1 -1.475898e-11 1.475898e-11 -1 894.8151 641.2175)" class="st5" width="2.8" height="2.8"/>
		
			<rect x="443.2" y="327.7" transform="matrix(-1 -1.475898e-11 1.475898e-11 -1 889.1458 658.2253)" class="st5" width="2.8" height="2.8"/>
		
			<rect x="446" y="327.7" transform="matrix(-1 -1.475898e-11 1.475898e-11 -1 894.8151 658.2253)" class="st6" width="2.8" height="2.8"/>
		
			<rect x="451.7" y="327.7" transform="matrix(-1 -1.604240e-11 1.604240e-11 -1 906.1536 658.2253)" class="st6" width="2.8" height="2.8"/>
		
			<rect x="454.5" y="324.9" transform="matrix(-1 -1.411772e-11 1.411772e-11 -1 911.8229 652.5561)" class="st6" width="2.8" height="2.8"/>
		
			<rect x="448.8" y="324.9" transform="matrix(-1 -1.796753e-11 1.796753e-11 -1 900.4844 652.5561)" class="st6" width="2.8" height="2.8"/>
		
			<rect x="443.2" y="324.9" transform="matrix(-1 -1.540069e-11 1.540069e-11 -1 889.1458 652.5561)" class="st6" width="2.8" height="2.8"/>
		
			<rect x="446" y="322" transform="matrix(-1 -1.604240e-11 1.604240e-11 -1 894.8151 646.8868)" class="st6" width="2.8" height="2.8"/>
		
			<rect x="451.7" y="322" transform="matrix(-1 -1.604240e-11 1.604240e-11 -1 906.1536 646.8868)" class="st6" width="2.8" height="2.8"/>
		
			<rect x="446" y="316.4" transform="matrix(-1 -1.540069e-11 1.540069e-11 -1 894.8151 635.5482)" class="st6" width="2.8" height="2.8"/>
		
			<rect x="451.7" y="316.4" transform="matrix(-1 -1.475898e-11 1.475898e-11 -1 906.1536 635.5482)" class="st6" width="2.8" height="2.8"/>
		
			<rect x="454.5" y="319.2" transform="matrix(-1 -1.411772e-11 1.411772e-11 -1 911.8229 641.2175)" class="st6" width="2.8" height="2.8"/>
		
			<rect x="448.8" y="319.2" transform="matrix(-1 -1.540069e-11 1.540069e-11 -1 900.4844 641.2175)" class="st6" width="2.8" height="2.8"/>
		
			<rect x="443.2" y="319.2" transform="matrix(-1 -1.540069e-11 1.540069e-11 -1 889.1458 641.2175)" class="st6" width="2.8" height="2.8"/>
		
			<rect x="454.5" y="322" transform="matrix(-1 -1.475898e-11 1.475898e-11 -1 911.8229 646.8868)" class="st5" width="2.8" height="2.8"/>
		
			<rect x="448.8" y="322" transform="matrix(-1 -1.411772e-11 1.411772e-11 -1 900.4844 646.8868)" class="st5" width="2.8" height="2.8"/>
		
			<rect x="448.8" y="316.4" transform="matrix(-1 -1.540069e-11 1.540069e-11 -1 900.4844 635.5482)" class="st5" width="2.8" height="2.8"/>
		
			<rect x="443.2" y="322" transform="matrix(-1 -1.475898e-11 1.475898e-11 -1 889.1458 646.8868)" class="st5" width="2.8" height="2.8"/>
		
			<rect x="454.5" y="316.4" transform="matrix(-1 -1.604240e-11 1.604240e-11 -1 911.8229 635.5482)" class="st5" width="2.8" height="2.8"/>
		
			<rect x="443.2" y="316.4" transform="matrix(-1 -1.411772e-11 1.411772e-11 -1 889.1458 635.5482)" class="st5" width="2.8" height="2.8"/>
	</g>
	<g>
		<g>
			<path class="st6" d="M462.8,426.3c0,1.6-1.3,2.8-2.8,2.8H91.1c-1.6,0-2.8-1.3-2.8-2.8v-24.9c0-1.6,1.3-2.8,2.8-2.8h368.8
				c1.6,0,2.8,1.3,2.8,2.8V426.3z"/>
			<path class="st13" d="M462.8,426.3c0,1.6-1.3,2.8-2.8,2.8H91.1c-1.6,0-2.8-1.3-2.8-2.8v-24.9c0-1.6,1.3-2.8,2.8-2.8h368.8
				c1.6,0,2.8,1.3,2.8,2.8V426.3z"/>
		</g>
		<g>
			<path class="st5" d="M133.8,415.3v2.6c0,1.3-0.6,1.7-1.3,2h-3.3c-0.7-0.3-1.3-0.7-1.3-2v-2h1.8v2.1l0.4,0.4h1.6l0.4-0.4v-2.8
				l-0.3-0.4L129,414c-0.8-0.3-1.1-0.8-1.1-1.9v-2.2c0-1.3,0.6-1.7,1.3-2h3.3c0.7,0.3,1.3,0.7,1.3,2v1.9H132v-2.1l-0.4-0.4h-1.6
				l-0.4,0.4v2.4l0.4,0.4l2.6,0.7C133.4,413.6,133.8,414.1,133.8,415.3z"/>
			<path class="st5" d="M135.1,407.9h5.1v1.6h-3.3v3.4h3.1v1.6h-3.1v3.7h3.4v1.6h-5.2V407.9z"/>
			<path class="st5" d="M147.5,417.9c0,1.3-0.6,1.7-1.3,2h-3.3c-0.7-0.3-1.3-0.7-1.3-2v-8c0-1.3,0.6-1.7,1.3-2h3.3
				c0.7,0.3,1.3,0.7,1.3,2v2.7h-1.8v-2.8l-0.4-0.4h-1.6l-0.4,0.4v8.3l0.4,0.4h1.6l0.4-0.4v-2.7h1.8V417.9z"/>
			<path class="st5" d="M152.2,409.5v10.3h-1.8v-10.3h-2.1v-1.6h6.1v1.6H152.2z"/>
			<path class="st5" d="M161.1,417.9c0,1.3-0.6,1.7-1.3,2h-3.3c-0.7-0.3-1.3-0.7-1.3-2v-8c0-1.3,0.6-1.7,1.3-2h3.3
				c0.7,0.3,1.3,0.7,1.3,2V417.9z M159.3,409.7l-0.4-0.4h-1.6l-0.4,0.4v8.3l0.4,0.4h1.6l0.4-0.4V409.7z"/>
			<path class="st5" d="M162.5,419.8v-12h4.6c0.7,0.3,1.3,0.7,1.3,2v2.6c0,1.3-0.6,1.6-1.3,1.9l-0.3,0.1l2.1,4.3v1.1h-1.6l-2.2-5.1
				h-0.8v5.1H162.5z M164.3,409.4v3.9h2l0.4-0.4v-3.1l-0.4-0.4H164.3z"/>
			<path class="st5" d="M172.6,419.8v-1.6h1.8v-8.7h-1.7v-1.6h3.5v10.4h1.7v1.6H172.6z"/>
		</g>
		<line class="st14" x1="102.5" y1="413.9" x2="123.7" y2="413.9"/>
		<g>
			<path class="st5" d="M223.9,415.3v2.6c0,1.3-0.6,1.7-1.3,2h-3.3c-0.7-0.3-1.3-0.7-1.3-2v-2h1.8v2.1l0.4,0.4h1.6l0.4-0.4v-2.8
				l-0.3-0.4l-2.6-0.8c-0.8-0.3-1.1-0.8-1.1-1.9v-2.2c0-1.3,0.6-1.7,1.3-2h3.3c0.7,0.3,1.3,0.7,1.3,2v1.9h-1.8v-2.1l-0.4-0.4h-1.6
				l-0.4,0.4v2.4l0.4,0.4l2.6,0.7C223.5,413.6,223.9,414.1,223.9,415.3z"/>
			<path class="st5" d="M225.2,407.9h5.1v1.6H227v3.4h3.1v1.6H227v3.7h3.4v1.6h-5.2V407.9z"/>
			<path class="st5" d="M237.6,417.9c0,1.3-0.6,1.7-1.3,2h-3.3c-0.7-0.3-1.3-0.7-1.3-2v-8c0-1.3,0.6-1.7,1.3-2h3.3
				c0.7,0.3,1.3,0.7,1.3,2v2.7h-1.8v-2.8l-0.4-0.4h-1.6l-0.4,0.4v8.3l0.4,0.4h1.6l0.4-0.4v-2.7h1.8V417.9z"/>
			<path class="st5" d="M242.3,409.5v10.3h-1.8v-10.3h-2.1v-1.6h6.1v1.6H242.3z"/>
			<path class="st5" d="M251.2,417.9c0,1.3-0.6,1.7-1.3,2h-3.3c-0.7-0.3-1.3-0.7-1.3-2v-8c0-1.3,0.6-1.7,1.3-2h3.3
				c0.7,0.3,1.3,0.7,1.3,2V417.9z M249.4,409.7l-0.4-0.4h-1.6l-0.4,0.4v8.3l0.4,0.4h1.6l0.4-0.4V409.7z"/>
			<path class="st5" d="M252.6,419.8v-12h4.6c0.7,0.3,1.3,0.7,1.3,2v2.6c0,1.3-0.6,1.6-1.3,1.9l-0.3,0.1l2.1,4.3v1.1h-1.6l-2.2-5.1
				h-0.8v5.1H252.6z M254.4,409.4v3.9h2l0.4-0.4v-3.1l-0.4-0.4H254.4z"/>
			<path class="st5" d="M262.3,419.8v-3.6c0-1.1,0.4-1.7,1.2-2.1l3-1.2v-3.2l-0.4-0.4h-1.7l-0.4,0.4v2h-1.8v-1.9
				c0-1.3,0.6-1.7,1.3-2h3.3c0.7,0.3,1.3,0.7,1.3,2v2.5c0,1.1-0.3,1.7-1.1,2.1l-3,1.2v2.5h4.1v1.6H262.3z"/>
		</g>
		<line class="st15" x1="192.6" y1="413.9" x2="213.8" y2="413.9"/>
		<g>
			<path class="st5" d="M313.7,415.3v2.6c0,1.3-0.6,1.7-1.3,2h-3.3c-0.7-0.3-1.3-0.7-1.3-2v-2h1.8v2.1l0.4,0.4h1.6l0.4-0.4v-2.8
				l-0.3-0.4L309,414c-0.8-0.3-1.1-0.8-1.1-1.9v-2.2c0-1.3,0.6-1.7,1.3-2h3.3c0.7,0.3,1.3,0.7,1.3,2v1.9h-1.8v-2.1l-0.4-0.4H310
				l-0.4,0.4v2.4l0.4,0.4l2.6,0.7C313.4,413.6,313.7,414.1,313.7,415.3z"/>
			<path class="st5" d="M315.1,407.9h5.1v1.6h-3.3v3.4h3.1v1.6h-3.1v3.7h3.4v1.6h-5.2V407.9z"/>
			<path class="st5" d="M327.4,417.9c0,1.3-0.6,1.7-1.3,2h-3.3c-0.7-0.3-1.3-0.7-1.3-2v-8c0-1.3,0.6-1.7,1.3-2h3.3
				c0.7,0.3,1.3,0.7,1.3,2v2.7h-1.8v-2.8l-0.4-0.4h-1.6l-0.4,0.4v8.3l0.4,0.4h1.6l0.4-0.4v-2.7h1.8V417.9z"/>
			<path class="st5" d="M332.1,409.5v10.3h-1.8v-10.3h-2.1v-1.6h6.1v1.6H332.1z"/>
			<path class="st5" d="M341,417.9c0,1.3-0.6,1.7-1.3,2h-3.3c-0.7-0.3-1.3-0.7-1.3-2v-8c0-1.3,0.6-1.7,1.3-2h3.3
				c0.7,0.3,1.3,0.7,1.3,2V417.9z M339.2,409.7l-0.4-0.4h-1.6l-0.4,0.4v8.3l0.4,0.4h1.6l0.4-0.4V409.7z"/>
			<path class="st5" d="M342.4,419.8v-12h4.6c0.7,0.3,1.3,0.7,1.3,2v2.6c0,1.3-0.6,1.6-1.3,1.9l-0.3,0.1l2.1,4.3v1.1h-1.6l-2.2-5.1
				h-0.8v5.1H342.4z M344.2,409.4v3.9h2l0.4-0.4v-3.1l-0.4-0.4H344.2z"/>
			<path class="st5" d="M353.4,419.8c-0.7-0.3-1.3-0.7-1.3-2v-1.7h1.8v1.8l0.4,0.4h1.7l0.4-0.4v-3.2l-0.4-0.3h-1.8V413h1.8l0.4-0.4
				v-3l-0.4-0.4h-1.7l-0.4,0.4v1.8h-1.8v-1.7c0-1.3,0.6-1.7,1.3-2h3.3c0.7,0.3,1.3,0.7,1.3,2v1.9c0,1-0.2,1.5-0.9,1.9
				c0.6,0.4,0.9,0.9,0.9,1.9v2.2c0,1.3-0.6,1.7-1.3,2H353.4z"/>
		</g>
		<line class="st16" x1="282.4" y1="413.9" x2="303.7" y2="413.9"/>
		<g>
			<path class="st5" d="M403.6,417.9c0,1.3-0.6,1.7-1.3,2h-4.6v-12h4.6c0.7,0.3,1.3,0.7,1.3,2V417.9z M399.5,409.4v9h2l0.4-0.4v-8.3
				l-0.4-0.4H399.5z"/>
			<path class="st5" d="M405,419.8v-12h4.6c0.7,0.3,1.3,0.7,1.3,2v2.6c0,1.3-0.6,1.6-1.3,1.9l-0.3,0.1l2.1,4.3v1.1h-1.6l-2.2-5.1
				h-0.8v5.1H405z M406.8,409.4v3.9h2l0.4-0.4v-3.1l-0.4-0.4H406.8z"/>
			<path class="st5" d="M418.1,415.3v2.6c0,1.3-0.6,1.7-1.3,2h-3.3c-0.7-0.3-1.3-0.7-1.3-2v-2h1.8v2.1l0.4,0.4h1.6l0.4-0.4v-2.8
				l-0.3-0.4l-2.6-0.8c-0.8-0.3-1.1-0.8-1.1-1.9v-2.2c0-1.3,0.6-1.7,1.3-2h3.3c0.7,0.3,1.3,0.7,1.3,2v1.9h-1.8v-2.1l-0.4-0.4h-1.6
				l-0.4,0.4v2.4l0.4,0.4l2.6,0.7C417.7,413.6,418.1,414.1,418.1,415.3z"/>
			<path class="st5" d="M425.6,409.5h-3.9v-1.6h5.8v1.5l-4,8.9h4v1.6h-5.9v-1.5L425.6,409.5z"/>
			<path class="st5" d="M434.8,417.9c0,1.3-0.6,1.7-1.3,2h-3.3c-0.7-0.3-1.3-0.7-1.3-2v-8c0-1.3,0.6-1.7,1.3-2h3.3
				c0.7,0.3,1.3,0.7,1.3,2V417.9z M433,409.7l-0.4-0.4H431l-0.4,0.4v8.3l0.4,0.4h1.6l0.4-0.4V409.7z"/>
			<path class="st5" d="M440.5,407.9h1.6v12h-1.6l-2.6-7.1h-0.2v7.1h-1.6v-12h1.6l2.6,7.1h0.2V407.9z"/>
			<path class="st5" d="M443.5,407.9h5.1v1.6h-3.3v3.4h3.1v1.6h-3.1v3.7h3.4v1.6h-5.2V407.9z"/>
		</g>
		<g>
			<g>
				<g>
					<g>
						<line class="st17" x1="373.7" y1="406.5" x2="373.7" y2="421.4"/>
					</g>
					<g>
						<path class="st8" d="M381.3,413.9c0,0.8-0.7,1.4-1.5,1.4c-0.8,0-1.5-0.6-1.5-1.4c0-0.8,0.7-1.4,1.5-1.4
							C380.7,412.5,381.3,413.2,381.3,413.9z"/>
					</g>
					<g>
						<ellipse class="st8" cx="385.9" cy="413.9" rx="1.5" ry="1.4"/>
					</g>
					<g>
						<line class="st17" x1="392" y1="406.5" x2="392" y2="421.4"/>
					</g>
				</g>
			</g>
		</g>
	</g>
	<g>
		<defs>
			<rect id="SVGID_1_" x="394.4" y="318.9" width="22.3" height="8.5"/>
		</defs>
		<clipPath id="SVGID_00000183950086648462034440000016527311867714610055_">
			<use xlink:href="#SVGID_1_"  style="overflow:visible;"/>
		</clipPath>
		<g style="clip-path:url(#SVGID_00000183950086648462034440000016527311867714610055_);">
			<polygon class="st19" points="415.4,330.2 412.6,330.2 406.9,323.1 412.6,316 415.4,316 409.8,323.1 			"/>
			<polygon class="st20" points="409.8,330.2 406.9,330.2 401.3,323.1 406.9,316 409.8,316 404.1,323.1 			"/>
			<polygon class="st21" points="404.1,330.2 401.3,330.2 395.6,323.1 401.3,316 404.1,316 398.4,323.1 			"/>
		</g>
	</g>
</g>
</svg>
