<?xml version="1.0" encoding="utf-8"?>
<!-- Generator: Adobe Illustrator 26.5.0, SVG Export Plug-In . SVG Version: 6.00 Build 0)  -->
<svg version="1.1" xmlns="http://www.w3.org/2000/svg" xmlns:xlink="http://www.w3.org/1999/xlink" x="0px" y="0px"
	 viewBox="0 0 550 443.7" style="enable-background:new 0 0 550 443.7;" xml:space="preserve">
<style type="text/css">
	.st0{fill:none;stroke:#646464;stroke-width:14.1732;stroke-miterlimit:10;}
	.st1{fill:none;stroke:#54C6EB;stroke-width:2.8346;stroke-miterlimit:10;}
	.st2{fill:none;stroke:#F4442E;stroke-width:2.8346;stroke-miterlimit:10;}
	.st3{fill:none;stroke:#FFD449;stroke-width:2.8346;stroke-miterlimit:10;}
	.st4{fill:none;stroke:#FFFFFF;stroke-width:2.126;}
	.st5{fill:#646464;}
	.st6{fill:#FFFFFF;}
	.st7{fill:#09BC8A;}
	.st8{fill:none;stroke:#646464;stroke-width:2.8346;stroke-miterlimit:10;}
	.st9{fill:none;stroke:#09BC8A;stroke-width:1.9843;stroke-miterlimit:10;}
	.st10{fill:none;stroke:#09BC8A;stroke-width:2.2097;stroke-miterlimit:10;}
	.st11{fill:#FF3380;}
	.st12{fill:none;stroke:#FF3380;stroke-width:1.9843;stroke-miterlimit:10;}
	.st13{fill:none;stroke:#646464;stroke-width:0.7087;stroke-miterlimit:10;}
	.st14{fill:none;stroke:#F4442E;stroke-width:5.6693;stroke-miterlimit:10;}
	.st15{fill:none;stroke:#54C6EB;stroke-width:5.6693;stroke-miterlimit:10;}
	.st16{fill:none;stroke:#FFD449;stroke-width:5.6693;stroke-miterlimit:10;}
	.st17{fill:none;stroke:#09BC8A;stroke-width:2.8346;stroke-miterlimit:10;}
	.st18{clip-path:url(#SVGID_00000160880835667528958380000006558704284884290727_);}
	.st19{fill:#F4442E;}
	.st20{fill:#54C6EB;}
	.st21{fill:#FFD449;}
</style>
<g id="コース">
	<path class="st0" d="M419.1,177.4c0,0,95.3,117,98.6,121.4s4.6,11.9,2.6,19.5c-2,7.7-6.4,19.9-15.5,19.9s-13.3-3.2-15.9-7.6
		c-2.6-4.4-17.3-29.6-19.6-32.6s-2.7-5-7.8-7.5c-5-2.4-10.5-1.6-15.3-1.8c-4.7-0.1-14.8-2.9-17.8-16.1c-3.1-13.8-3.5-17.1-9-23.3
		c-10.3-11.5-29,1-41-14.4c-6.4-8.1-4.2-18.1,0.2-27.4c6.8-14.5,3-25.2-4.9-30.7s-18.9-11.4-36.9-10.9
		c-16.5,0.5-31.3,10.8-36.5,17.2c-5.3,6.5-24.7,29.7-25.8,31c-1.1,1.2-2.5,2.5-5,2.6c-2.5,0.1-30.7,2-32.8,2.1
		c-2.1,0.1-5.8-0.4-6.7-5.6s-11.5-60.7-12.5-66.7c-1-6-0.2-13.2,2.3-17.6c2.5-4.4,5.5-11.3,7.7-15.6c3.7-7.3-5.4-12.3-9.5-5.9
		c-2.2,3.3-15.3,24.4-18.5,28.6c-5.5,7.2-14.3,20.9-44.3,19.4c-24.5-1.2-58.9-13.3-71.1-44.9c-4.1-10.6-11.6-27.9-13.1-31.1
		c-1.4-3.2-4.9-8.6-13-8.6s-13.7,0.2-18,1.4c-4.3,1.2-12.7,4.2-12.7,16s13.3,21.1,19.6,26.2c6.4,5.2,35.3,25.6,52.9,33.4
		c17.6,7.8,128.2,47.8,131.7,49c4.6,1.6,7.8,2.4,16.5,0.3c2.9-0.7,10.9-3.5,14.5-5.3c6.1-3.2,14.6-7.3,30-22.7
		c7.8-7.7,27.8-24.4,30.6-26.3c2.9-2,4.7-1.1,6.9,1.2c2.2,2.3,3.1,3,4.1,4.1c1,1.1,4,2.1,7.1-0.5c3.2-2.6,9.2-10.8,24.3-10.8
		c15,0,31.6,12.8,41.2,24.8C416.1,173.8,419.1,177.4,419.1,177.4z"/>
</g>
<g id="セクター">
	<path class="st1" d="M287.1,199.2c-6.1,7.4-12,14.4-12.6,15c-1.1,1.2-2.5,2.5-5,2.6c-2.5,0.1-30.7,2-32.8,2.1
		c-2.1,0.1-5.8-0.4-6.7-5.6s-11.5-60.7-12.5-66.7c-1-6-0.2-13.2,2.3-17.6c2.5-4.4,5.5-11.3,7.7-15.6c3.7-7.3-5.4-12.3-9.5-5.9
		c-2.2,3.3-15.3,24.4-18.5,28.6c-5.5,7.2-14.3,20.9-44.3,19.4c-24.5-1.2-58.9-13.3-71.1-44.9c-4.1-10.6-11.6-27.9-13.1-31.1
		c-1.4-3.2-4.9-8.6-13-8.6s-13.7,0.2-18,1.4c-4.3,1.2-12.7,4.2-12.7,16s13.3,21.1,19.6,26.2c6.4,5.2,35.3,25.6,52.9,33.4
		c4.9,2.2,16.9,6.8,31.8,12.4"/>
	<path class="st2" d="M404.7,159.7c0.6,0.7,1.2,1.5,1.8,2.2c9.5,12,12.6,15.6,12.6,15.6s95.3,117,98.6,121.4s4.6,11.9,2.6,19.5
		c-2,7.7-6.4,19.9-15.5,19.9s-13.3-3.2-15.9-7.6c-2.6-4.4-17.3-29.6-19.6-32.6s-2.7-5-7.8-7.5c-5-2.4-10.5-1.6-15.3-1.8
		c-4.7-0.1-14.8-2.9-17.8-16.1c-3.1-13.8-3.5-17.1-9-23.3c-10.3-11.5-29,1-41-14.4c-6.4-8.1-4.2-18.1,0.2-27.4
		c6.8-14.5,3-25.2-4.9-30.7s-18.9-11.4-36.9-10.9c-16.5,0.5-31.3,10.8-36.5,17.2c-2.4,3-7.9,9.6-13.2,15.9"/>
	<g>
		<path class="st0" d="M131.5,160.5c38.9,14.6,97.3,35.7,99.9,36.5c4.6,1.6,7.8,2.4,16.5,0.3c2.9-0.7,10.9-3.5,14.5-5.3
			c6.1-3.2,14.6-7.3,30-22.7c7.8-7.7,27.8-24.4,30.6-26.3c2.9-2,4.7-1.1,6.9,1.2c2.2,2.3,3.1,3,4.1,4.1c1,1.1,4,2.1,7.1-0.5
			c3.2-2.6,9.2-10.8,24.3-10.8c14.1,0,29.6,11.3,39.3,22.6"/>
		<path class="st3" d="M131.5,160.5c38.9,14.6,97.3,35.7,99.9,36.5c4.6,1.6,7.8,2.4,16.5,0.3c2.9-0.7,10.9-3.5,14.5-5.3
			c6.1-3.2,14.6-7.3,30-22.7c7.8-7.7,27.8-24.4,30.6-26.3c2.9-2,4.7-1.1,6.9,1.2c2.2,2.3,3.1,3,4.1,4.1c1,1.1,4,2.1,7.1-0.5
			c3.2-2.6,9.2-10.8,24.3-10.8c14.1,0,29.6,11.3,39.3,22.6"/>
	</g>
</g>
<g id="コーナー番号">
	<g>
		<g>
			<circle class="st4" cx="538" cy="298.6" r="8.5"/>
			<circle class="st5" cx="538" cy="298.6" r="8.5"/>
		</g>
		<g>
			<path class="st6" d="M536.3,302.5v-1.6h1v-4.5h-0.9v-1.6h2.6v6.1h0.9v1.6H536.3z"/>
		</g>
	</g>
	<g>
		<g>
			<circle class="st4" cx="508.7" cy="358.4" r="8.5"/>
			<circle class="st5" cx="508.7" cy="358.4" r="8.5"/>
		</g>
		<g>
			<path class="st6" d="M506.6,362.3v-2.6c0-0.6,0.1-1,0.6-1.2l1.9-0.8v-1.6l-0.1-0.1h-0.5l-0.1,0.1v1.1h-1.7v-1.3
				c0-0.8,0.4-1.1,0.8-1.3h2.5c0.5,0.2,0.8,0.5,0.8,1.3v1.9c0,0.6-0.1,0.9-0.6,1.2l-1.8,0.8v0.9h2.4v1.6H506.6z"/>
		</g>
	</g>
	<g>
		<g>
			<circle class="st4" cx="473.8" cy="275.7" r="8.5"/>
			<circle class="st5" cx="473.8" cy="275.7" r="8.5"/>
		</g>
		<g>
			<path class="st6" d="M472.6,279.6c-0.5-0.2-0.8-0.5-0.8-1.3v-1h1.7v0.8l0.1,0.1h0.5l0.1-0.1v-1.6l-0.1-0.1h-1V275h1l0.1-0.1v-1.5
				l-0.1-0.1h-0.5l-0.1,0.1v0.8h-1.7v-1c0-0.8,0.4-1.1,0.8-1.3h2.5c0.5,0.2,0.8,0.5,0.8,1.3v1.3c0,0.6-0.2,0.9-0.6,1.2
				c0.4,0.3,0.6,0.6,0.6,1.2v1.4c0,0.8-0.4,1.1-0.8,1.3H472.6z"/>
		</g>
	</g>
	<g>
		<g>
			<circle class="st4" cx="423.8" cy="299.9" r="8.5"/>
			<circle class="st5" cx="423.8" cy="299.9" r="8.5"/>
		</g>
		<g>
			<path class="st6" d="M425.5,302.3v1.5h-1.7v-1.5h-2.2v-1.5l1.6-4.7h1.7l-1.6,4.6h0.5v-0.4l0.4-1h1.3v1.4h0.5v1.6H425.5z"/>
		</g>
	</g>
	<g>
		<g>
			<circle class="st4" cx="434" cy="235.1" r="8.5"/>
			<circle class="st5" cx="434" cy="235.1" r="8.5"/>
		</g>
		<g>
			<path class="st6" d="M432.8,239c-0.5-0.2-0.8-0.5-0.8-1.3v-1h1.6v0.8l0.1,0.1h0.6l0.1-0.1v-2.1l-0.1-0.1h-0.6l-0.1,0.1v0.4H432
				v-4.5h4v1.5h-2.4v1.6l0.4-0.4h1.3c0.5,0.2,0.8,0.5,0.8,1.3v2.4c0,0.8-0.4,1.1-0.8,1.3H432.8z"/>
		</g>
	</g>
	<g>
		<g>
			<circle class="st4" cx="362.5" cy="245" r="8.5"/>
			<circle class="st5" cx="362.5" cy="245" r="8.5"/>
		</g>
		<g>
			<path class="st6" d="M363.8,248.9h-2.5c-0.5-0.2-0.8-0.5-0.8-1.3v-5.1c0-0.8,0.4-1.1,0.8-1.3h2.5c0.5,0.2,0.8,0.5,0.8,1.3v1h-1.7
				v-0.8l-0.1-0.1h-0.5l-0.1,0.1v1.8l0.3-0.3h1.3c0.5,0.2,0.8,0.5,0.8,1.3v2.2C364.6,248.5,364.2,248.8,363.8,248.9z M362.8,247.5
				l0.1-0.1v-1.8l-0.1-0.1h-0.5l-0.1,0.1v1.8l0.1,0.1H362.8z"/>
		</g>
	</g>
	<g>
		<g>
			<circle class="st4" cx="360.4" cy="192.8" r="8.5"/>
			<circle class="st5" cx="360.4" cy="192.8" r="8.5"/>
		</g>
		<g>
			<path class="st6" d="M358.6,196.7l2.1-6.2h-2.4V189h4.1v1.2l-2.1,6.5H358.6z"/>
		</g>
	</g>
	<g>
		<g>
			<circle class="st4" cx="282.6" cy="233.6" r="8.5"/>
			<circle class="st5" cx="282.6" cy="233.6" r="8.5"/>
		</g>
		<g>
			<path class="st6" d="M281.4,237.5c-0.5-0.2-0.8-0.5-0.8-1.3v-1.4c0-0.6,0.2-0.9,0.6-1.2c-0.4-0.3-0.6-0.6-0.6-1.2v-1.3
				c0-0.8,0.4-1.1,0.8-1.3h2.5c0.5,0.2,0.8,0.5,0.8,1.3v1.3c0,0.6-0.2,0.9-0.6,1.2c0.4,0.3,0.6,0.6,0.6,1.2v1.4
				c0,0.8-0.4,1.1-0.8,1.3H281.4z M282.2,232.9l0.1,0.1h0.5l0.1-0.1v-1.5l-0.1-0.1h-0.5l-0.1,0.1V232.9z M283,236v-1.6l-0.1-0.1
				h-0.5l-0.1,0.1v1.6l0.1,0.1h0.5L283,236z"/>
		</g>
	</g>
	<g>
		<g>
			<circle class="st4" cx="223" cy="235.7" r="8.5"/>
			<circle class="st5" cx="223" cy="235.7" r="8.5"/>
		</g>
		<g>
			<path class="st6" d="M221.7,239.5c-0.5-0.2-0.8-0.5-0.8-1.3v-1h1.7v0.8l0.1,0.1h0.5l0.1-0.1v-1.8l-0.3,0.3h-1.3
				c-0.5-0.2-0.8-0.5-0.8-1.3v-2.2c0-0.8,0.4-1.1,0.8-1.3h2.5c0.5,0.2,0.8,0.5,0.8,1.3v5.1c0,0.8-0.4,1.1-0.8,1.3H221.7z
				 M223.3,235.2v-1.8l-0.1-0.1h-0.5l-0.1,0.1v1.8l0.1,0.1h0.5L223.3,235.2z"/>
		</g>
	</g>
	<g>
		<g>
			<circle class="st4" cx="131.8" cy="131.2" r="8.5"/>
			<circle class="st5" cx="131.8" cy="131.2" r="8.5"/>
		</g>
		<g>
			<path class="st6" d="M127.7,135.1v-1.6h1V129h-0.9v-1.6h2.6v6.1h0.9v1.6H127.7z"/>
			<path class="st6" d="M132,135.1v-2.6c0-0.6,0.1-1,0.6-1.2l1.9-0.8v-1.6l-0.1-0.1h-0.5l-0.1,0.1v1.1H132v-1.3
				c0-0.8,0.4-1.1,0.8-1.3h2.5c0.5,0.2,0.8,0.5,0.8,1.3v1.9c0,0.6-0.1,0.9-0.6,1.2l-1.9,0.8v0.9h2.4v1.6H132z"/>
		</g>
	</g>
	<g>
		<g>
			<circle class="st4" cx="76.3" cy="55.7" r="8.5"/>
			<circle class="st5" cx="76.3" cy="55.7" r="8.5"/>
		</g>
		<g>
			<path class="st6" d="M72.3,59.6V58h1v-4.5h-0.9V52H75V58h0.9v1.6H72.3z"/>
			<path class="st6" d="M77.4,59.6c-0.5-0.2-0.8-0.5-0.8-1.3v-1h1.7v0.8l0.1,0.1h0.5l0.1-0.1v-1.6l-0.1-0.1h-1v-1.3h1L79,55v-1.5
				l-0.1-0.1h-0.5l-0.1,0.1v0.8h-1.7v-1c0-0.8,0.4-1.1,0.8-1.3h2.5c0.5,0.2,0.8,0.5,0.8,1.3v1.3c0,0.6-0.2,0.9-0.6,1.2
				c0.4,0.3,0.6,0.6,0.6,1.2v1.4c0,0.8-0.4,1.1-0.8,1.3H77.4z"/>
		</g>
	</g>
	<g>
		<g>
			<circle class="st4" cx="10.5" cy="78.4" r="8.5"/>
			<circle class="st5" cx="10.5" cy="78.4" r="8.5"/>
		</g>
		<g>
			<path class="st6" d="M6.4,82.2v-1.6h1v-4.5H6.6v-1.6h2.6v6.1H10v1.6H6.4z"/>
			<path class="st6" d="M14.5,80.8v1.5h-1.7v-1.5h-2.2v-1.5l1.6-4.7h1.7l-1.6,4.6h0.5v-0.4l0.4-1h1.3v1.4H15v1.6H14.5z"/>
		</g>
	</g>
	<g>
		<g>
			<circle class="st4" cx="244" cy="178.8" r="8.5"/>
			<circle class="st5" cx="244" cy="178.8" r="8.5"/>
		</g>
		<g>
			<path class="st6" d="M240,182.6V181h1v-4.5h-0.9V175h2.6v6.1h0.9v1.6H240z"/>
			<path class="st6" d="M245.1,182.6c-0.5-0.2-0.8-0.5-0.8-1.3v-1h1.6v0.8l0.1,0.1h0.6l0.1-0.1v-2.1l-0.1-0.1H246l-0.1,0.1v0.4h-1.6
				V175h4v1.5h-2.4v1.6l0.4-0.4h1.3c0.5,0.2,0.8,0.5,0.8,1.3v2.4c0,0.8-0.4,1.1-0.8,1.3H245.1z"/>
		</g>
	</g>
	<g>
		<g>
			<circle class="st4" cx="313" cy="127.1" r="8.5"/>
			<circle class="st5" cx="313" cy="127.1" r="8.5"/>
		</g>
		<g>
			<path class="st6" d="M309,131v-1.6h1v-4.5h-0.9v-1.6h2.6v6.1h0.9v1.6H309z"/>
			<path class="st6" d="M316.6,131h-2.5c-0.5-0.2-0.8-0.5-0.8-1.3v-5.1c0-0.8,0.4-1.1,0.8-1.3h2.5c0.5,0.2,0.8,0.5,0.8,1.3v1h-1.7
				v-0.8l-0.1-0.1h-0.5l-0.1,0.1v1.8l0.3-0.3h1.3c0.5,0.2,0.8,0.5,0.8,1.3v2.2C317.5,130.5,317.1,130.8,316.6,131z M315.7,129.6
				l0.1-0.1v-1.8l-0.1-0.1h-0.5l-0.1,0.1v1.8l0.1,0.1H315.7z"/>
		</g>
	</g>
	<g>
		<g>
			<circle class="st4" cx="338.3" cy="126.1" r="8.5"/>
			<circle class="st5" cx="338.3" cy="126.1" r="8.5"/>
		</g>
		<g>
			<path class="st6" d="M334.2,130v-1.6h1v-4.5h-0.9v-1.6h2.6v6.1h0.9v1.6H334.2z"/>
			<path class="st6" d="M338.8,130l2.1-6.2h-2.4v-1.5h4.1v1.2l-2.1,6.5H338.8z"/>
		</g>
	</g>
	<g>
		<g>
			<circle class="st4" cx="374.4" cy="118.7" r="8.5"/>
			<circle class="st5" cx="374.4" cy="118.7" r="8.5"/>
		</g>
		<g>
			<path class="st6" d="M370.4,122.6V121h1v-4.5h-0.9v-1.6h2.6v6.1h0.9v1.6H370.4z"/>
			<path class="st6" d="M375.5,122.6c-0.5-0.2-0.8-0.5-0.8-1.3v-1.4c0-0.6,0.2-0.9,0.6-1.2c-0.4-0.3-0.6-0.6-0.6-1.2v-1.3
				c0-0.8,0.4-1.1,0.8-1.3h2.5c0.5,0.2,0.8,0.5,0.8,1.3v1.3c0,0.6-0.2,0.9-0.6,1.2c0.4,0.3,0.6,0.6,0.6,1.2v1.4
				c0,0.8-0.4,1.1-0.8,1.3H375.5z M376.4,118l0.1,0.1h0.5l0.1-0.1v-1.5l-0.1-0.1h-0.5l-0.1,0.1V118z M377.1,121.1v-1.6l-0.1-0.1
				h-0.5l-0.1,0.1v1.6l0.1,0.1h0.5L377.1,121.1z"/>
		</g>
	</g>
	<g>
		<g>
			<circle class="st4" cx="236.2" cy="141.9" r="8.5"/>
			<circle class="st5" cx="236.2" cy="141.9" r="8.5"/>
		</g>
		<g>
			<path class="st6" d="M232.2,145.8v-1.6h1v-4.5h-0.9v-1.6h2.6v6.1h0.9v1.6H232.2z"/>
			<path class="st6" d="M239.8,145.8h-2.5c-0.5-0.2-0.8-0.5-0.8-1.3v-5.1c0-0.8,0.4-1.1,0.8-1.3h2.5c0.5,0.2,0.8,0.5,0.8,1.3v5.1
				C240.7,145.3,240.3,145.6,239.8,145.8z M239,139.6l-0.1-0.1h-0.5l-0.1,0.1v4.7l0.1,0.1h0.5l0.1-0.1V139.6z"/>
		</g>
	</g>
	<g>
		<g>
			<circle class="st4" cx="236.8" cy="90" r="8.5"/>
			<circle class="st5" cx="236.8" cy="90" r="8.5"/>
		</g>
		<g>
			<path class="st6" d="M232.7,93.9v-1.6h1v-4.5h-0.9v-1.6h2.6v6.1h0.9v1.6H232.7z"/>
			<path class="st6" d="M237.4,93.9v-1.6h1v-4.5h-0.9v-1.6h2.6v6.1h0.9v1.6H237.4z"/>
		</g>
	</g>
</g>
<g id="DRS">
	<g>
		<g>
			<path class="st7" d="M365.6,80.2c0,0.8-0.6,1.4-1.4,1.4h-67.6c-0.8,0-1.4-0.6-1.4-1.4V31.3c0-0.8,0.6-1.4,1.4-1.4h67.6
				c0.8,0,1.4,0.6,1.4,1.4V80.2z"/>
		</g>
		<g>
			<path class="st6" d="M326.4,45.6c0,1.3-0.6,1.7-1.3,2h-5.2v-12h5.2c0.7,0.3,1.3,0.7,1.3,2V45.6z M322.6,37.7v7.7h1l0.2-0.2v-7.3
				l-0.2-0.2H322.6z"/>
			<path class="st6" d="M327.2,47.6v-12h5.2c0.7,0.3,1.3,0.7,1.3,2v2.5c0,1.1-0.5,1.6-1.1,1.9l1.4,3.8v1.7h-2.3l-1.5-4.7h-0.3v4.7
				H327.2z M329.9,37.7v3h1l0.2-0.2v-2.7l-0.2-0.2H329.9z"/>
			<path class="st6" d="M340.9,42.8v2.7c0,1.3-0.6,1.7-1.3,2h-3.9c-0.7-0.3-1.3-0.7-1.3-2v-2.4h2.7v2l0.2,0.2h0.8l0.2-0.2v-1.8
				l-0.1-0.2l-2.7-1.2c-0.8-0.4-0.9-0.9-0.9-1.8v-2.5c0-1.3,0.6-1.7,1.3-2h3.9c0.7,0.3,1.3,0.7,1.3,2v2.2h-2.7v-1.9l-0.2-0.2h-0.8
				l-0.2,0.2v1.7l0.2,0.3L340,41C340.8,41.3,340.9,41.9,340.9,42.8z"/>
			<path class="st6" d="M307.3,59.7c0,1.3-0.6,1.7-1.3,2h-5.2v-12h5.2c0.7,0.3,1.3,0.7,1.3,2V59.7z M303.5,51.9v7.7h1l0.2-0.2v-7.3
				l-0.2-0.2H303.5z"/>
			<path class="st6" d="M308.1,49.8h5.5v2.5h-2.8v2.2h2.7v2.5h-2.7v2.3h2.9v2.5h-5.6V49.8z"/>
			<path class="st6" d="M318.8,52.2v9.5h-2.7v-9.5h-1.9v-2.5h6.5v2.5H318.8z"/>
			<path class="st6" d="M321.2,49.8h5.5v2.5h-2.8v2.2h2.7v2.5h-2.7v2.3h2.9v2.5h-5.6V49.8z"/>
			<path class="st6" d="M334.1,59.7c0,1.3-0.6,1.7-1.3,2h-3.9c-0.7-0.3-1.3-0.7-1.3-2v-8c0-1.3,0.6-1.7,1.3-2h3.9
				c0.7,0.3,1.3,0.7,1.3,2v2.9h-2.7v-2.6l-0.2-0.2h-0.8l-0.2,0.2v7.3l0.2,0.2h0.8l0.2-0.2v-2.5h2.7V59.7z"/>
			<path class="st6" d="M339.2,52.2v9.5h-2.7v-9.5h-1.9v-2.5h6.5v2.5H339.2z"/>
			<path class="st6" d="M341.6,61.7v-2.5h0.5v-7h-0.5v-2.5h3.7v2.5h-0.5v7h0.5v2.5H341.6z"/>
			<path class="st6" d="M352.6,59.7c0,1.3-0.6,1.7-1.3,2h-3.9c-0.7-0.3-1.3-0.7-1.3-2v-8c0-1.3,0.6-1.7,1.3-2h3.9
				c0.7,0.3,1.3,0.7,1.3,2V59.7z M349.9,52.1l-0.2-0.2h-0.8l-0.2,0.2v7.3l0.2,0.2h0.8l0.2-0.2V52.1z"/>
			<path class="st6" d="M357.6,49.8h2.3v12h-2.3l-1.7-5.2h-0.2v5.2h-2.3v-12h2.3l1.7,5.2h0.2V49.8z"/>
			<path class="st6" d="M315.2,66.4h-3.5v-2.5h6.5v2.2l-3.5,7.3h3.5v2.5h-6.5v-2.2L315.2,66.4z"/>
			<path class="st6" d="M325.5,73.9c0,1.3-0.6,1.7-1.3,2h-3.9c-0.7-0.3-1.3-0.7-1.3-2v-8c0-1.3,0.6-1.7,1.3-2h3.9
				c0.7,0.3,1.3,0.7,1.3,2V73.9z M322.8,66.3l-0.2-0.2h-0.8l-0.2,0.2v7.3l0.2,0.2h0.8l0.2-0.2V66.3z"/>
			<path class="st6" d="M330.5,63.9h2.3v12h-2.3l-1.7-5.2h-0.2v5.2h-2.3v-12h2.3l1.7,5.2h0.2V63.9z"/>
			<path class="st6" d="M333.6,63.9h5.5v2.5h-2.8v2.2h2.7v2.5h-2.7v2.3h2.9v2.5h-5.6V63.9z"/>
			<path class="st6" d="M343.1,75.9v-2.5h1.5v-7h-1.3v-2.5h4v9.5h1.3v2.5H343.1z"/>
		</g>
	</g>
	<g>
		<circle class="st8" cx="313.4" cy="150.8" r="4.7"/>
		<circle class="st7" cx="313.4" cy="150.8" r="4.7"/>
	</g>
	<g>
		<path class="st7" d="M422,271.7"/>
	</g>
	<g>
		<path class="st9" d="M295.2,55.7c0,0-3.3,0-7.3,0s-7.3,3.8-7.3,8.5v78.1c0,4.7,3.8,8.5,8.5,8.5h24.4"/>
	</g>
	<g>
		<g>
			<g>
				<g>
					<line class="st10" x1="419.3" y1="145.8" x2="410.3" y2="153.2"/>
				</g>
				<g>
					<path class="st7" d="M418.3,153.8c-0.5,0.4-1.2,0.3-1.6-0.1s-0.3-1.2,0.2-1.5s1.2-0.3,1.6,0.1
						C418.8,152.7,418.7,153.4,418.3,153.8z"/>
				</g>
				<g>
					<path class="st7" d="M421.1,157.2c-0.5,0.4-1.2,0.3-1.6-0.1c-0.4-0.5-0.3-1.2,0.2-1.5s1.2-0.3,1.6,0.1
						C421.6,156.1,421.5,156.8,421.1,157.2z"/>
				</g>
				<g>
					<path class="st7" d="M423.8,160.6c-0.5,0.4-1.2,0.3-1.6-0.1s-0.3-1.2,0.2-1.5s1.2-0.3,1.6,0.1S424.3,160.2,423.8,160.6z"/>
				</g>
				<g>
					<path class="st7" d="M426.6,164c-0.5,0.4-1.2,0.3-1.6-0.1c-0.4-0.5-0.3-1.2,0.2-1.5s1.2-0.3,1.6,0.1
						C427.2,162.9,427.1,163.6,426.6,164z"/>
				</g>
				<g>
					<path class="st7" d="M429.4,167.3c-0.5,0.4-1.2,0.3-1.6-0.1c-0.4-0.5-0.3-1.2,0.2-1.5s1.2-0.3,1.6,0.1S429.9,167,429.4,167.3z"
						/>
				</g>
				<g>
					<path class="st7" d="M432.2,170.7c-0.5,0.4-1.2,0.3-1.6-0.1c-0.4-0.5-0.3-1.2,0.2-1.5c0.5-0.4,1.2-0.3,1.6,0.1
						C432.7,169.7,432.7,170.3,432.2,170.7z"/>
				</g>
				<g>
					<path class="st7" d="M435,174.1c-0.5,0.4-1.2,0.3-1.6-0.1c-0.4-0.5-0.3-1.2,0.2-1.5c0.5-0.4,1.2-0.3,1.6,0.1
						C435.5,173,435.5,173.7,435,174.1z"/>
				</g>
				<g>
					<path class="st7" d="M437.8,177.5c-0.5,0.4-1.2,0.3-1.6-0.1c-0.4-0.5-0.3-1.2,0.2-1.5c0.5-0.4,1.2-0.3,1.6,0.1
						C438.3,176.4,438.2,177.1,437.8,177.5z"/>
				</g>
				<g>
					<path class="st7" d="M440.6,180.9c-0.5,0.4-1.2,0.3-1.6-0.1c-0.4-0.5-0.3-1.2,0.2-1.5c0.5-0.4,1.2-0.3,1.6,0.1
						C441.1,179.8,441,180.5,440.6,180.9z"/>
				</g>
				<g>
					<path class="st7" d="M443.3,184.3c-0.5,0.4-1.2,0.3-1.6-0.1s-0.3-1.2,0.2-1.5s1.2-0.3,1.6,0.1
						C443.9,183.2,443.8,183.9,443.3,184.3z"/>
				</g>
				<g>
					<path class="st7" d="M446.1,187.7c-0.5,0.4-1.2,0.3-1.6-0.1c-0.4-0.5-0.3-1.2,0.2-1.5s1.2-0.3,1.6,0.1
						C446.7,186.6,446.6,187.3,446.1,187.7z"/>
				</g>
				<g>
					<path class="st7" d="M448.9,191.1c-0.5,0.4-1.2,0.3-1.6-0.1s-0.3-1.2,0.2-1.5s1.2-0.3,1.6,0.1
						C449.5,190,449.4,190.7,448.9,191.1z"/>
				</g>
				<g>
					<path class="st7" d="M451.7,194.5c-0.5,0.4-1.2,0.3-1.6-0.1c-0.4-0.5-0.3-1.2,0.2-1.5s1.2-0.3,1.6,0.1
						C452.2,193.4,452.2,194.1,451.7,194.5z"/>
				</g>
				<g>
					<path class="st7" d="M454.5,197.9c-0.5,0.4-1.2,0.3-1.6-0.1s-0.3-1.2,0.2-1.5s1.2-0.3,1.6,0.1S455,197.5,454.5,197.9z"/>
				</g>
				<g>
					<path class="st7" d="M457.3,201.3c-0.5,0.4-1.2,0.3-1.6-0.1c-0.4-0.5-0.3-1.2,0.2-1.5s1.2-0.3,1.6,0.1
						C457.8,200.2,457.7,200.9,457.3,201.3z"/>
				</g>
				<g>
					<path class="st7" d="M460.1,204.7c-0.5,0.4-1.2,0.3-1.6-0.1c-0.4-0.5-0.3-1.2,0.2-1.5s1.2-0.3,1.6,0.1S460.5,204.3,460.1,204.7
						z"/>
				</g>
				<g>
					<path class="st7" d="M462.8,208.1c-0.5,0.4-1.2,0.3-1.6-0.1c-0.4-0.5-0.3-1.2,0.2-1.5c0.5-0.4,1.2-0.3,1.6,0.1
						C463.4,207,463.3,207.7,462.8,208.1z"/>
				</g>
				<g>
					<path class="st7" d="M465.6,211.5c-0.5,0.4-1.2,0.3-1.6-0.1c-0.4-0.5-0.3-1.2,0.2-1.5c0.5-0.4,1.2-0.3,1.6,0.1
						C466.2,210.4,466.1,211.1,465.6,211.5z"/>
				</g>
				<g>
					<path class="st7" d="M468.4,214.8c-0.5,0.4-1.2,0.3-1.6-0.1c-0.4-0.5-0.3-1.2,0.2-1.5c0.5-0.4,1.2-0.3,1.6,0.1
						C469,213.8,468.9,214.5,468.4,214.8z"/>
				</g>
				<g>
					<path class="st7" d="M471.2,218.2c-0.5,0.4-1.2,0.3-1.6-0.1c-0.4-0.5-0.3-1.2,0.2-1.5c0.5-0.4,1.2-0.3,1.6,0.1
						C471.7,217.2,471.7,217.9,471.2,218.2z"/>
				</g>
				<g>
					<path class="st7" d="M474,221.6c-0.5,0.4-1.2,0.3-1.6-0.1s-0.3-1.2,0.2-1.5s1.2-0.3,1.6,0.1C474.5,220.5,474.5,221.2,474,221.6
						z"/>
				</g>
				<g>
					<path class="st7" d="M476.8,225c-0.5,0.4-1.2,0.3-1.6-0.1c-0.4-0.5-0.3-1.2,0.2-1.5c0.5-0.4,1.2-0.3,1.6,0.1
						C477.3,223.9,477.3,224.6,476.8,225z"/>
				</g>
				<g>
					<path class="st7" d="M479.6,228.4c-0.5,0.4-1.2,0.3-1.6-0.1s-0.3-1.2,0.2-1.5s1.2-0.3,1.6,0.1S480,228,479.6,228.4z"/>
				</g>
				<g>
					<path class="st7" d="M482.4,231.8c-0.5,0.4-1.2,0.3-1.6-0.1c-0.4-0.5-0.3-1.2,0.2-1.5s1.2-0.3,1.6,0.1
						C482.9,230.7,482.8,231.4,482.4,231.8z"/>
				</g>
				<g>
					<path class="st7" d="M485.1,235.2c-0.5,0.4-1.2,0.3-1.6-0.1s-0.3-1.2,0.2-1.5s1.2-0.3,1.6,0.1S485.6,234.8,485.1,235.2z"/>
				</g>
				<g>
					<path class="st7" d="M487.9,238.6c-0.5,0.4-1.2,0.3-1.6-0.1c-0.4-0.5-0.3-1.2,0.2-1.5s1.2-0.3,1.6,0.1
						C488.5,237.5,488.4,238.2,487.9,238.6z"/>
				</g>
				<g>
					<path class="st7" d="M490.7,242c-0.5,0.4-1.2,0.3-1.6-0.1c-0.4-0.5-0.3-1.2,0.2-1.5s1.2-0.3,1.6,0.1S491.2,241.6,490.7,242z"/>
				</g>
				<g>
					<path class="st7" d="M493.5,245.4c-0.5,0.4-1.2,0.3-1.6-0.1c-0.4-0.5-0.3-1.2,0.2-1.5c0.5-0.4,1.2-0.3,1.6,0.1
						C494,244.3,494,245,493.5,245.4z"/>
				</g>
				<g>
					<path class="st7" d="M496.3,248.8c-0.5,0.4-1.2,0.3-1.6-0.1c-0.4-0.5-0.3-1.2,0.2-1.5c0.5-0.4,1.2-0.3,1.6,0.1
						C496.8,247.7,496.8,248.4,496.3,248.8z"/>
				</g>
				<g>
					<path class="st7" d="M499.1,252.2c-0.5,0.4-1.2,0.3-1.6-0.1c-0.4-0.5-0.3-1.2,0.2-1.5c0.5-0.4,1.2-0.3,1.6,0.1
						C499.6,251.1,499.5,251.8,499.1,252.2z"/>
				</g>
				<g>
					<path class="st7" d="M501.9,255.6c-0.5,0.4-1.2,0.3-1.6-0.1c-0.4-0.5-0.3-1.2,0.2-1.5c0.5-0.4,1.2-0.3,1.6,0.1
						C502.4,254.5,502.3,255.2,501.9,255.6z"/>
				</g>
				<g>
					<path class="st7" d="M504.6,259c-0.5,0.4-1.2,0.3-1.6-0.1s-0.3-1.2,0.2-1.5c0.5-0.4,1.2-0.3,1.6,0.1
						C505.2,257.9,505.1,258.6,504.6,259z"/>
				</g>
				<g>
					<path class="st7" d="M507.4,262.3c-0.5,0.4-1.2,0.3-1.6-0.1c-0.4-0.5-0.3-1.2,0.2-1.5s1.2-0.3,1.6,0.1
						C508,261.3,507.9,262,507.4,262.3z"/>
				</g>
				<g>
					<path class="st7" d="M510.2,265.7c-0.5,0.4-1.2,0.3-1.6-0.1s-0.3-1.2,0.2-1.5s1.2-0.3,1.6,0.1S510.7,265.4,510.2,265.7z"/>
				</g>
				<g>
					<path class="st7" d="M513,269.1c-0.5,0.4-1.2,0.3-1.6-0.1c-0.4-0.5-0.3-1.2,0.2-1.5c0.5-0.4,1.2-0.3,1.6,0.1
						C513.5,268.1,513.5,268.7,513,269.1z"/>
				</g>
				<g>
					<path class="st7" d="M515.8,272.5c-0.5,0.4-1.2,0.3-1.6-0.1c-0.4-0.5-0.3-1.2,0.2-1.5c0.5-0.4,1.2-0.3,1.6,0.1
						S516.3,272.1,515.8,272.5z"/>
				</g>
				<g>
					<path class="st7" d="M518.6,275.9c-0.5,0.4-1.2,0.3-1.6-0.1s-0.3-1.2,0.2-1.5c0.5-0.4,1.2-0.3,1.6,0.1S519,275.5,518.6,275.9z"
						/>
				</g>
				<g>
					<path class="st7" d="M521.4,279.3c-0.5,0.4-1.2,0.3-1.6-0.1c-0.4-0.5-0.3-1.2,0.2-1.5c0.5-0.4,1.2-0.3,1.6,0.1
						S521.8,278.9,521.4,279.3z"/>
				</g>
				<g>
					<path class="st7" d="M524.1,282.7c-0.5,0.4-1.2,0.3-1.6-0.1c-0.4-0.5-0.3-1.2,0.2-1.5c0.5-0.4,1.2-0.3,1.6,0.1
						C524.7,281.6,524.6,282.3,524.1,282.7z"/>
				</g>
				<g>
					<line class="st10" x1="530.7" y1="281.6" x2="521.7" y2="288.9"/>
				</g>
			</g>
		</g>
	</g>
</g>
<g id="SPEED_x5F_TRAP">
	<g>
		<g>
			<path class="st11" d="M243.4,73.1c0,0.8-0.6,1.4-1.4,1.4h-42.2c-0.8,0-1.4-0.6-1.4-1.4V38.4c0-0.8,0.6-1.4,1.4-1.4H242
				c0.8,0,1.4,0.6,1.4,1.4V73.1z"/>
		</g>
		<g>
			<path class="st6" d="M210.5,49.9v2.7c0,1.3-0.6,1.7-1.3,2h-3.9c-0.7-0.3-1.3-0.7-1.3-2v-2.4h2.7v2l0.2,0.2h0.8l0.2-0.2v-1.8
				l-0.1-0.2L205,49c-0.8-0.4-0.9-0.9-0.9-1.8v-2.5c0-1.3,0.6-1.7,1.3-2h3.9c0.7,0.3,1.3,0.7,1.3,2v2.2h-2.7V45l-0.2-0.2h-0.8
				l-0.2,0.2v1.7l0.2,0.3l2.7,1.1C210.4,48.4,210.5,49,210.5,49.9z"/>
			<path class="st6" d="M214,50.5v4.2h-2.7v-12h5.2c0.7,0.3,1.3,0.7,1.3,2v3.8c0,1.3-0.6,1.7-1.3,2H214z M214,44.8v3.5h1l0.2-0.2V45
				l-0.2-0.2H214z"/>
			<path class="st6" d="M218.4,42.7h5.5v2.5h-2.8v2.2h2.7v2.5h-2.7v2.3h2.9v2.5h-5.6V42.7z"/>
			<path class="st6" d="M224.9,42.7h5.5v2.5h-2.8v2.2h2.7v2.5h-2.7v2.3h2.9v2.5h-5.6V42.7z"/>
			<path class="st6" d="M237.7,52.6c0,1.3-0.6,1.7-1.3,2h-5.2v-12h5.2c0.7,0.3,1.3,0.7,1.3,2V52.6z M233.9,44.8v7.7h1l0.2-0.2V45
				l-0.2-0.2H233.9z"/>
			<path class="st6" d="M211.5,59.3v9.5h-2.7v-9.5h-1.9v-2.5h6.5v2.5H211.5z"/>
			<path class="st6" d="M213.9,68.8v-12h5.2c0.7,0.3,1.3,0.7,1.3,2v2.5c0,1.1-0.5,1.6-1.1,1.9l1.4,3.8v1.7h-2.3l-1.5-4.7h-0.3v4.7
				H213.9z M216.5,59v3h1l0.2-0.2v-2.7l-0.2-0.2H216.5z"/>
			<path class="st6" d="M225,66.5h-1.3l-0.2,2.3H221v-2l1.5-10h3.6l1.5,10v2h-2.5L225,66.5z M223.9,64h0.8l-0.3-3.8h-0.2L223.9,64z"
				/>
			<path class="st6" d="M231,64.7v4.2h-2.7v-12h5.2c0.7,0.3,1.3,0.7,1.3,2v3.8c0,1.3-0.6,1.7-1.3,2H231z M231,59v3.5h1l0.2-0.2v-3.2
				L232,59H231z"/>
		</g>
	</g>
	<g>
		<circle class="st8" cx="268.5" cy="188.8" r="4.7"/>
		<circle class="st11" cx="268.5" cy="188.8" r="4.7"/>
	</g>
	<g>
		<path class="st12" d="M243.4,56.8H260c4.7,0,8.5,3.8,8.5,8.5v123.5"/>
	</g>
</g>
<g id="アイコン">
	<g>
		
			<rect x="441" y="139.1" transform="matrix(-0.7487 0.6629 -0.6629 -0.7487 866.8575 -47.489)" class="st5" width="2.8" height="2.8"/>
		
			<rect x="436.8" y="142.9" transform="matrix(-0.7487 0.6629 -0.6629 -0.7487 861.9257 -38.1035)" class="st5" width="2.8" height="2.8"/>
		
			<rect x="437" y="138.9" transform="matrix(-0.7487 0.6629 -0.6629 -0.7487 859.6989 -45.2622)" class="st5" width="2.8" height="2.8"/>
		
			<rect x="432.8" y="142.6" transform="matrix(-0.7487 0.6629 -0.6629 -0.7487 854.767 -35.8767)" class="st5" width="2.8" height="2.8"/>
		
			<rect x="433.3" y="134.6" transform="matrix(-0.7487 0.6629 -0.6629 -0.7487 850.3133 -50.1941)" class="st5" width="2.8" height="2.8"/>
		
			<rect x="429" y="138.4" transform="matrix(-0.7487 0.6629 -0.6629 -0.7487 845.3815 -40.8085)" class="st5" width="2.8" height="2.8"/>
		
			<rect x="432.5" y="146.6" transform="matrix(-0.7487 0.6629 -0.6629 -0.7487 856.9938 -28.718)" class="st5" width="2.8" height="2.8"/>
		
			<rect x="434.6" y="144.8" transform="matrix(-0.7487 0.6629 -0.6629 -0.7487 859.4597 -33.4107)" class="st6" width="2.8" height="2.8"/>
		
			<rect x="438.9" y="141" transform="matrix(-0.7487 0.6629 -0.6629 -0.7487 864.3916 -42.7963)" class="st6" width="2.8" height="2.8"/>
		
			<rect x="439.1" y="137" transform="matrix(-0.7487 0.6629 -0.6629 -0.7487 862.1648 -49.955)" class="st6" width="2.8" height="2.8"/>
		
			<rect x="434.9" y="140.8" transform="matrix(-0.7487 0.6629 -0.6629 -0.7487 857.2329 -40.5694)" class="st6" width="2.8" height="2.8"/>
		
			<rect x="430.6" y="144.5" transform="matrix(-0.7487 0.6629 -0.6629 -0.7487 852.301 -31.1839)" class="st6" width="2.8" height="2.8"/>
		
			<rect x="430.9" y="140.5" transform="matrix(-0.7487 0.6629 -0.6629 -0.7487 850.0742 -38.3426)" class="st6" width="2.8" height="2.8"/>
		
			<rect x="435.1" y="136.8" transform="matrix(-0.7487 0.6629 -0.6629 -0.7487 855.0061 -47.7281)" class="st6" width="2.8" height="2.8"/>
		
			<rect x="427.1" y="136.3" transform="matrix(-0.7487 0.6629 -0.6629 -0.7487 840.6887 -43.2745)" class="st6" width="2.8" height="2.8"/>
		
			<rect x="431.4" y="132.5" transform="matrix(-0.7487 0.6629 -0.6629 -0.7487 845.6205 -52.66)" class="st6" width="2.8" height="2.8"/>
		
			<rect x="435.4" y="132.8" transform="matrix(-0.7487 0.6629 -0.6629 -0.7487 852.7792 -54.8868)" class="st6" width="2.8" height="2.8"/>
		
			<rect x="431.1" y="136.5" transform="matrix(-0.7487 0.6629 -0.6629 -0.7487 847.8474 -45.5013)" class="st6" width="2.8" height="2.8"/>
		
			<rect x="426.9" y="140.3" transform="matrix(-0.7487 0.6629 -0.6629 -0.7487 842.9155 -36.1158)" class="st6" width="2.8" height="2.8"/>
		
			<rect x="437.3" y="134.9" transform="matrix(-0.7487 0.6629 -0.6629 -0.7487 857.472 -52.4209)" class="st5" width="2.8" height="2.8"/>
		
			<rect x="433" y="138.6" transform="matrix(-0.7487 0.6629 -0.6629 -0.7487 852.5402 -43.0354)" class="st5" width="2.8" height="2.8"/>
		
			<rect x="429.3" y="134.4" transform="matrix(-0.7487 0.6629 -0.6629 -0.7487 843.1546 -47.9672)" class="st5" width="2.8" height="2.8"/>
		
			<rect x="428.8" y="142.4" transform="matrix(-0.7487 0.6629 -0.6629 -0.7487 847.6083 -33.6498)" class="st5" width="2.8" height="2.8"/>
		
			<rect x="433.5" y="130.6" transform="matrix(-0.7487 0.6629 -0.6629 -0.7487 848.0865 -57.3527)" class="st5" width="2.8" height="2.8"/>
		
			<rect x="425" y="138.2" transform="matrix(-0.7487 0.6629 -0.6629 -0.7487 838.2228 -38.5817)" class="st5" width="2.8" height="2.8"/>
	</g>
	<g>
		<g>
			<path class="st6" d="M462.8,426.3c0,1.6-1.3,2.8-2.8,2.8H91.1c-1.6,0-2.8-1.3-2.8-2.8v-24.9c0-1.6,1.3-2.8,2.8-2.8h368.8
				c1.6,0,2.8,1.3,2.8,2.8V426.3z"/>
			<path class="st13" d="M462.8,426.3c0,1.6-1.3,2.8-2.8,2.8H91.1c-1.6,0-2.8-1.3-2.8-2.8v-24.9c0-1.6,1.3-2.8,2.8-2.8h368.8
				c1.6,0,2.8,1.3,2.8,2.8V426.3z"/>
		</g>
		<g>
			<path class="st5" d="M133.8,415.3v2.6c0,1.3-0.6,1.7-1.3,2h-3.3c-0.7-0.3-1.3-0.7-1.3-2v-2h1.8v2.1l0.4,0.4h1.6l0.4-0.4v-2.8
				l-0.3-0.4L129,414c-0.8-0.3-1.1-0.8-1.1-1.9v-2.2c0-1.3,0.6-1.7,1.3-2h3.3c0.7,0.3,1.3,0.7,1.3,2v1.9H132v-2.1l-0.4-0.4h-1.6
				l-0.4,0.4v2.4l0.4,0.4l2.6,0.7C133.4,413.6,133.8,414.1,133.8,415.3z"/>
			<path class="st5" d="M135.1,407.9h5.1v1.6h-3.3v3.4h3.1v1.6h-3.1v3.7h3.4v1.6h-5.2V407.9z"/>
			<path class="st5" d="M147.5,417.9c0,1.3-0.6,1.7-1.3,2h-3.3c-0.7-0.3-1.3-0.7-1.3-2v-8c0-1.3,0.6-1.7,1.3-2h3.3
				c0.7,0.3,1.3,0.7,1.3,2v2.7h-1.8v-2.8l-0.4-0.4h-1.6l-0.4,0.4v8.3l0.4,0.4h1.6l0.4-0.4v-2.7h1.8V417.9z"/>
			<path class="st5" d="M152.2,409.5v10.3h-1.8v-10.3h-2.1v-1.6h6.1v1.6H152.2z"/>
			<path class="st5" d="M161.1,417.9c0,1.3-0.6,1.7-1.3,2h-3.3c-0.7-0.3-1.3-0.7-1.3-2v-8c0-1.3,0.6-1.7,1.3-2h3.3
				c0.7,0.3,1.3,0.7,1.3,2V417.9z M159.3,409.7l-0.4-0.4h-1.6l-0.4,0.4v8.3l0.4,0.4h1.6l0.4-0.4V409.7z"/>
			<path class="st5" d="M162.5,419.8v-12h4.6c0.7,0.3,1.3,0.7,1.3,2v2.6c0,1.3-0.6,1.6-1.3,1.9l-0.3,0.1l2.1,4.3v1.1h-1.6l-2.2-5.1
				h-0.8v5.1H162.5z M164.3,409.4v3.9h2l0.4-0.4v-3.1l-0.4-0.4H164.3z"/>
			<path class="st5" d="M172.6,419.8v-1.6h1.8v-8.7h-1.7v-1.6h3.5v10.4h1.7v1.6H172.6z"/>
		</g>
		<line class="st14" x1="102.5" y1="413.9" x2="123.7" y2="413.9"/>
		<g>
			<path class="st5" d="M223.9,415.3v2.6c0,1.3-0.6,1.7-1.3,2h-3.3c-0.7-0.3-1.3-0.7-1.3-2v-2h1.8v2.1l0.4,0.4h1.6l0.4-0.4v-2.8
				l-0.3-0.4l-2.6-0.8c-0.8-0.3-1.1-0.8-1.1-1.9v-2.2c0-1.3,0.6-1.7,1.3-2h3.3c0.7,0.3,1.3,0.7,1.3,2v1.9h-1.8v-2.1l-0.4-0.4h-1.6
				l-0.4,0.4v2.4l0.4,0.4l2.6,0.7C223.5,413.6,223.9,414.1,223.9,415.3z"/>
			<path class="st5" d="M225.2,407.9h5.1v1.6H227v3.4h3.1v1.6H227v3.7h3.4v1.6h-5.2V407.9z"/>
			<path class="st5" d="M237.6,417.9c0,1.3-0.6,1.7-1.3,2h-3.3c-0.7-0.3-1.3-0.7-1.3-2v-8c0-1.3,0.6-1.7,1.3-2h3.3
				c0.7,0.3,1.3,0.7,1.3,2v2.7h-1.8v-2.8l-0.4-0.4h-1.6l-0.4,0.4v8.3l0.4,0.4h1.6l0.4-0.4v-2.7h1.8V417.9z"/>
			<path class="st5" d="M242.3,409.5v10.3h-1.8v-10.3h-2.1v-1.6h6.1v1.6H242.3z"/>
			<path class="st5" d="M251.2,417.9c0,1.3-0.6,1.7-1.3,2h-3.3c-0.7-0.3-1.3-0.7-1.3-2v-8c0-1.3,0.6-1.7,1.3-2h3.3
				c0.7,0.3,1.3,0.7,1.3,2V417.9z M249.4,409.7l-0.4-0.4h-1.6l-0.4,0.4v8.3l0.4,0.4h1.6l0.4-0.4V409.7z"/>
			<path class="st5" d="M252.6,419.8v-12h4.6c0.7,0.3,1.3,0.7,1.3,2v2.6c0,1.3-0.6,1.6-1.3,1.9l-0.3,0.1l2.1,4.3v1.1h-1.6l-2.2-5.1
				h-0.8v5.1H252.6z M254.4,409.4v3.9h2l0.4-0.4v-3.1l-0.4-0.4H254.4z"/>
			<path class="st5" d="M262.3,419.8v-3.6c0-1.1,0.4-1.7,1.2-2.1l3-1.2v-3.2l-0.4-0.4h-1.7l-0.4,0.4v2h-1.8v-1.9
				c0-1.3,0.6-1.7,1.3-2h3.3c0.7,0.3,1.3,0.7,1.3,2v2.5c0,1.1-0.3,1.7-1.1,2.1l-3,1.2v2.5h4.1v1.6H262.3z"/>
		</g>
		<line class="st15" x1="192.6" y1="413.9" x2="213.8" y2="413.9"/>
		<g>
			<path class="st5" d="M313.7,415.3v2.6c0,1.3-0.6,1.7-1.3,2h-3.3c-0.7-0.3-1.3-0.7-1.3-2v-2h1.8v2.1l0.4,0.4h1.6l0.4-0.4v-2.8
				l-0.3-0.4L309,414c-0.8-0.3-1.1-0.8-1.1-1.9v-2.2c0-1.3,0.6-1.7,1.3-2h3.3c0.7,0.3,1.3,0.7,1.3,2v1.9h-1.8v-2.1l-0.4-0.4H310
				l-0.4,0.4v2.4l0.4,0.4l2.6,0.7C313.4,413.6,313.7,414.1,313.7,415.3z"/>
			<path class="st5" d="M315.1,407.9h5.1v1.6h-3.3v3.4h3.1v1.6h-3.1v3.7h3.4v1.6h-5.2V407.9z"/>
			<path class="st5" d="M327.4,417.9c0,1.3-0.6,1.7-1.3,2h-3.3c-0.7-0.3-1.3-0.7-1.3-2v-8c0-1.3,0.6-1.7,1.3-2h3.3
				c0.7,0.3,1.3,0.7,1.3,2v2.7h-1.8v-2.8l-0.4-0.4h-1.6l-0.4,0.4v8.3l0.4,0.4h1.6l0.4-0.4v-2.7h1.8V417.9z"/>
			<path class="st5" d="M332.1,409.5v10.3h-1.8v-10.3h-2.1v-1.6h6.1v1.6H332.1z"/>
			<path class="st5" d="M341,417.9c0,1.3-0.6,1.7-1.3,2h-3.3c-0.7-0.3-1.3-0.7-1.3-2v-8c0-1.3,0.6-1.7,1.3-2h3.3
				c0.7,0.3,1.3,0.7,1.3,2V417.9z M339.2,409.7l-0.4-0.4h-1.6l-0.4,0.4v8.3l0.4,0.4h1.6l0.4-0.4V409.7z"/>
			<path class="st5" d="M342.4,419.8v-12h4.6c0.7,0.3,1.3,0.7,1.3,2v2.6c0,1.3-0.6,1.6-1.3,1.9l-0.3,0.1l2.1,4.3v1.1h-1.6l-2.2-5.1
				h-0.8v5.1H342.4z M344.2,409.4v3.9h2l0.4-0.4v-3.1l-0.4-0.4H344.2z"/>
			<path class="st5" d="M353.4,419.8c-0.7-0.3-1.3-0.7-1.3-2v-1.7h1.8v1.8l0.4,0.4h1.7l0.4-0.4v-3.2l-0.4-0.3h-1.8V413h1.8l0.4-0.4
				v-3l-0.4-0.4h-1.7l-0.4,0.4v1.8h-1.8v-1.7c0-1.3,0.6-1.7,1.3-2h3.3c0.7,0.3,1.3,0.7,1.3,2v1.9c0,1-0.2,1.5-0.9,1.9
				c0.6,0.4,0.9,0.9,0.9,1.9v2.2c0,1.3-0.6,1.7-1.3,2H353.4z"/>
		</g>
		<line class="st16" x1="282.4" y1="413.9" x2="303.7" y2="413.9"/>
		<g>
			<path class="st5" d="M403.6,417.9c0,1.3-0.6,1.7-1.3,2h-4.6v-12h4.6c0.7,0.3,1.3,0.7,1.3,2V417.9z M399.5,409.4v9h2l0.4-0.4v-8.3
				l-0.4-0.4H399.5z"/>
			<path class="st5" d="M405,419.8v-12h4.6c0.7,0.3,1.3,0.7,1.3,2v2.6c0,1.3-0.6,1.6-1.3,1.9l-0.3,0.1l2.1,4.3v1.1h-1.6l-2.2-5.1
				h-0.8v5.1H405z M406.8,409.4v3.9h2l0.4-0.4v-3.1l-0.4-0.4H406.8z"/>
			<path class="st5" d="M418.1,415.3v2.6c0,1.3-0.6,1.7-1.3,2h-3.3c-0.7-0.3-1.3-0.7-1.3-2v-2h1.8v2.1l0.4,0.4h1.6l0.4-0.4v-2.8
				l-0.3-0.4l-2.6-0.8c-0.8-0.3-1.1-0.8-1.1-1.9v-2.2c0-1.3,0.6-1.7,1.3-2h3.3c0.7,0.3,1.3,0.7,1.3,2v1.9h-1.8v-2.1l-0.4-0.4h-1.6
				l-0.4,0.4v2.4l0.4,0.4l2.6,0.7C417.7,413.6,418.1,414.1,418.1,415.3z"/>
			<path class="st5" d="M425.6,409.5h-3.9v-1.6h5.8v1.5l-4,8.9h4v1.6h-5.9v-1.5L425.6,409.5z"/>
			<path class="st5" d="M434.8,417.9c0,1.3-0.6,1.7-1.3,2h-3.3c-0.7-0.3-1.3-0.7-1.3-2v-8c0-1.3,0.6-1.7,1.3-2h3.3
				c0.7,0.3,1.3,0.7,1.3,2V417.9z M433,409.7l-0.4-0.4H431l-0.4,0.4v8.3l0.4,0.4h1.6l0.4-0.4V409.7z"/>
			<path class="st5" d="M440.5,407.9h1.6v12h-1.6l-2.6-7.1h-0.2v7.1h-1.6v-12h1.6l2.6,7.1h0.2V407.9z"/>
			<path class="st5" d="M443.5,407.9h5.1v1.6h-3.3v3.4h3.1v1.6h-3.1v3.7h3.4v1.6h-5.2V407.9z"/>
		</g>
		<g>
			<g>
				<g>
					<g>
						<line class="st17" x1="373.7" y1="406.5" x2="373.7" y2="421.4"/>
					</g>
					<g>
						<path class="st7" d="M381.3,413.9c0,0.8-0.7,1.4-1.5,1.4c-0.8,0-1.5-0.6-1.5-1.4c0-0.8,0.7-1.4,1.5-1.4
							C380.7,412.5,381.3,413.2,381.3,413.9z"/>
					</g>
					<g>
						<ellipse class="st7" cx="385.9" cy="413.9" rx="1.5" ry="1.4"/>
					</g>
					<g>
						<line class="st17" x1="392" y1="406.5" x2="392" y2="421.4"/>
					</g>
				</g>
			</g>
		</g>
	</g>
	<g>
		<defs>
			
				<rect id="SVGID_1_" x="442.9" y="175.9" transform="matrix(-0.6633 -0.7484 0.7484 -0.6633 620.3538 639.5245)" width="22.3" height="8.5"/>
		</defs>
		<clipPath id="SVGID_00000001632982459283958640000018106795181911239571_">
			<use xlink:href="#SVGID_1_"  style="overflow:visible;"/>
		</clipPath>
		<g style="clip-path:url(#SVGID_00000001632982459283958640000018106795181911239571_);">
			<polygon class="st19" points="452.8,168.1 454.7,170.2 453.1,179.1 444.1,179.6 442.2,177.5 451.2,177 			"/>
			<polygon class="st20" points="456.5,172.3 458.4,174.4 456.9,183.4 447.8,183.8 445.9,181.7 455,181.3 			"/>
			<polygon class="st21" points="460.3,176.6 462.2,178.7 460.6,187.6 451.6,188.1 449.7,186 458.8,185.5 			"/>
		</g>
	</g>
</g>
</svg>
