<?xml version="1.0" encoding="utf-8"?>
<!-- Generator: Adobe Illustrator 27.0.0, SVG Export Plug-In . SVG Version: 6.00 Build 0)  -->
<svg version="1.1" xmlns="http://www.w3.org/2000/svg" xmlns:xlink="http://www.w3.org/1999/xlink" x="0px" y="0px"
	 viewBox="0 0 550 443.7" style="enable-background:new 0 0 550 443.7;" xml:space="preserve">
<style type="text/css">
	.st0{fill:none;stroke:#646464;stroke-width:14.1732;stroke-miterlimit:10;}
	.st1{fill:none;stroke:#FFD449;stroke-width:2.8346;stroke-miterlimit:10;}
	.st2{fill:none;stroke:#54C6EB;stroke-width:2.8346;stroke-miterlimit:10;}
	.st3{fill:none;stroke:#F4442E;stroke-width:2.8346;stroke-miterlimit:10;}
	.st4{fill:none;stroke:#FFFFFF;stroke-width:2.126;}
	.st5{fill:#646464;}
	.st6{fill:#FFFFFF;}
	.st7{fill:#09BC8A;}
	.st8{fill:none;stroke:#646464;stroke-width:2.8346;stroke-miterlimit:10;}
	.st9{fill:none;stroke:#09BC8A;stroke-width:1.9843;stroke-miterlimit:10;}
	.st10{fill:none;stroke:#09BC8A;stroke-width:2.2097;stroke-miterlimit:10;}
	.st11{fill:#FF3380;}
	.st12{fill:none;stroke:#FF3380;stroke-width:1.9843;stroke-miterlimit:10;}
	.st13{fill:none;stroke:#646464;stroke-width:0.7087;stroke-miterlimit:10;}
	.st14{fill:none;stroke:#F4442E;stroke-width:5.6693;stroke-miterlimit:10;}
	.st15{fill:none;stroke:#54C6EB;stroke-width:5.6693;stroke-miterlimit:10;}
	.st16{fill:none;stroke:#FFD449;stroke-width:5.6693;stroke-miterlimit:10;}
	.st17{fill:none;stroke:#09BC8A;stroke-width:2.8346;stroke-miterlimit:10;}
	.st18{clip-path:url(#SVGID_00000068649408804391033760000013109306965730976667_);}
	.st19{fill:#F4442E;}
	.st20{fill:#54C6EB;}
	.st21{fill:#FFD449;}
</style>
<g id="コース">
	<path class="st0" d="M94.7,36.2c0,0,79,9.1,99.8,10.5c20.8,1.5,75.5,5,95.7,5.9c20.2,0.9,59.1,3.5,79.9,5.6
		c20.8,2,79.9,7.9,92.2,9.1c12.3,1.2,26.9,3.4,32.3,4.8c5.5,1.3,5,4.9,4.6,8.6c-0.4,3.6-1.5,16.6-1.8,18.2c-0.2,1.6-0.7,3.8,3.4,5.8
		c4.1,2,6.9,2.9,8.3,3.5c1.4,0.7,4,1.5,3.6,6.1c-0.3,4.6-1.8,16.2-2.7,21.2c-1,4.9-7.9,22.4-11.1,28.6c-3.2,6.3-71.3,130.7-74,135.9
		c-2.6,5.2-6.4,9.8-7.9,12.4c-1.5,2.6-2.2,6.6,2,9s9.9,4.6,13,7c3.1,2.4,3.7,6.6,1.1,8.6c-2.6,2-26.3,20-29.2,22.2
		c-2.9,2.2-12.1,0.2-11.4-7.5c0.7-7.7,8.1-90,8.3-95.5c0.2-5.5-2-9-6.6-10.8c-4.6-1.8-18.4-5-23.9-14.9c-5.5-9.9-8.8-20.2-15.6-24.1
		c-6.8-4-10.5-4.2-16.5-4.6s-34.5-2.9-38.9-3.5c-4.4-0.7-9.2-4.6-10.5-10.8c-1.3-6.1-2.6-9.7-4-14c-1.3-4.4-4.8-5.9-7.7-7.5
		c-2.9-1.5-40.6-20.2-43.7-21.3c-3.1-1.1-7-2.2-11.4-2.6c-4.4-0.4-113.7-11-116.3-11.2c-2.6-0.2-5.9-2-6.8-9.2
		c-0.9-7.2-5.7-40.4-6.1-43.9c-0.7-5-6.1-6.5-8.8-4.6C80.4,75.7,78,86,70.6,85c-7.5-1.1-8.6-4.8-11.4-5s-19.8-1.8-21.3-2
		c-1.5-0.2-5-2.2-4-7.7c1.1-5.5,5-19.1,16.7-27.9s20-8.1,29.9-7.5S94.7,36.2,94.7,36.2z"/>
</g>
<g id="セクター">
	<path class="st1" d="M168,136.8c-29.7-2.9-60.7-5.8-62.1-6c-2.6-0.2-5.9-2-6.8-9.2c-0.9-7.2-5.7-40.4-6.1-43.9
		c-0.7-5-6.1-6.5-8.8-4.6C80.4,75.7,78,86,70.6,85c-7.5-1.1-8.6-4.8-11.4-5s-19.8-1.8-21.3-2c-1.5-0.2-5-2.2-4-7.7
		c1.1-5.5,5-19.1,16.7-27.9s20-8.1,29.9-7.5s14.3,1.3,14.3,1.3"/>
	<path class="st2" d="M436.2,279.4c-6.2,11.5-10.5,19.4-11.2,20.6c-2.6,5.2-6.4,9.8-7.9,12.4c-1.5,2.6-2.2,6.6,2,9s9.9,4.6,13,7
		c3.1,2.4,3.7,6.6,1.1,8.6c-2.6,2-26.3,20-29.2,22.2c-2.9,2.2-12.1,0.2-11.4-7.5c0.7-7.7,8.1-90,8.3-95.5c0.2-5.5-2-9-6.6-10.8
		c-4.6-1.8-18.4-5-23.9-14.9c-5.5-9.9-8.8-20.2-15.6-24.1c-6.8-4-10.5-4.2-16.5-4.6s-34.5-2.9-38.9-3.5c-4.4-0.7-9.2-4.6-10.5-10.8
		c-1.3-6.1-2.6-9.7-4-14c-1.3-4.4-4.8-5.9-7.7-7.5c-2.9-1.5-40.6-20.2-43.7-21.3c-3.1-1.1-7-2.2-11.4-2.6
		c-2.1-0.2-27.6-2.7-54.3-5.2"/>
	<path class="st3" d="M94.7,36.2c0,0,79,9.1,99.8,10.5c20.8,1.5,75.5,5,95.7,5.9c20.2,0.9,59.1,3.5,79.9,5.6
		c20.8,2,79.9,7.9,92.2,9.1c12.3,1.2,26.9,3.4,32.3,4.8c5.5,1.3,5,4.9,4.6,8.6c-0.4,3.6-1.5,16.6-1.8,18.2c-0.2,1.6-0.7,3.8,3.4,5.8
		c4.1,2,6.9,2.9,8.3,3.5c1.4,0.7,4,1.5,3.6,6.1c-0.3,4.6-1.8,16.2-2.7,21.2c-1,4.9-7.9,22.4-11.1,28.6
		c-2.4,4.8-42.7,78.4-62.8,115.3"/>
</g>
<g id="コーナー番号">
	<g>
		<g>
			<circle class="st4" cx="515.8" cy="62.9" r="8.5"/>
			<circle class="st5" cx="515.8" cy="62.9" r="8.5"/>
		</g>
		<g>
			<path class="st6" d="M514.1,66.8v-1.6h1v-4.5h-0.9v-1.6h2.6v6.1h0.9v1.6H514.1z"/>
		</g>
	</g>
	<g>
		<g>
			<circle class="st4" cx="479.8" cy="113.4" r="8.5"/>
			<circle class="st5" cx="479.8" cy="113.4" r="8.5"/>
		</g>
		<g>
			<path class="st6" d="M477.8,117.3v-2.6c0-0.6,0.1-1,0.6-1.2l1.9-0.8v-1.6l-0.1-0.1h-0.5l-0.1,0.1v1.1h-1.7v-1.3
				c0-0.8,0.4-1.1,0.8-1.3h2.5c0.5,0.2,0.8,0.5,0.8,1.3v1.9c0,0.6-0.1,0.9-0.6,1.2l-1.8,0.8v0.9h2.4v1.6H477.8z"/>
		</g>
	</g>
	<g>
		<g>
			<circle class="st4" cx="535.2" cy="107.4" r="8.5"/>
			<circle class="st5" cx="535.2" cy="107.4" r="8.5"/>
		</g>
		<g>
			<path class="st6" d="M534,111.3c-0.5-0.2-0.8-0.5-0.8-1.3v-1h1.7v0.8l0.1,0.1h0.5l0.1-0.1v-1.6l-0.1-0.1h-1v-1.3h1l0.1-0.1v-1.5
				l-0.1-0.1H535l-0.1,0.1v0.8h-1.7v-1c0-0.8,0.4-1.1,0.8-1.3h2.5c0.5,0.2,0.8,0.5,0.8,1.3v1.3c0,0.6-0.2,0.9-0.6,1.2
				c0.4,0.3,0.6,0.6,0.6,1.2v1.4c0,0.8-0.4,1.1-0.8,1.3H534z"/>
		</g>
	</g>
	<g>
		<g>
			<circle class="st4" cx="448.7" cy="311.9" r="8.5"/>
			<circle class="st5" cx="448.7" cy="311.9" r="8.5"/>
		</g>
		<g>
			<path class="st6" d="M450.4,314.3v1.5h-1.7v-1.5h-2.2v-1.5l1.6-4.7h1.7l-1.6,4.6h0.5v-0.4l0.4-1h1.3v1.4h0.5v1.6H450.4z"/>
		</g>
	</g>
	<g>
		<g>
			<circle class="st4" cx="456.4" cy="342.1" r="8.5"/>
			<circle class="st5" cx="456.4" cy="342.1" r="8.5"/>
		</g>
		<g>
			<path class="st6" d="M455.2,346c-0.5-0.2-0.8-0.5-0.8-1.3v-1h1.6v0.8l0.1,0.1h0.6l0.1-0.1v-2.1l-0.1-0.1h-0.6l-0.1,0.1v0.4h-1.6
				v-4.5h4v1.5H456v1.6l0.4-0.4h1.3c0.5,0.2,0.8,0.5,0.8,1.3v2.4c0,0.8-0.4,1.1-0.8,1.3H455.2z"/>
		</g>
	</g>
	<g>
		<g>
			<circle class="st4" cx="385.1" cy="376.5" r="8.5"/>
			<circle class="st5" cx="385.1" cy="376.5" r="8.5"/>
		</g>
		<g>
			<path class="st6" d="M386.3,380.3h-2.5c-0.5-0.2-0.8-0.5-0.8-1.3V374c0-0.8,0.4-1.1,0.8-1.3h2.5c0.5,0.2,0.8,0.5,0.8,1.3v1h-1.7
				v-0.8l-0.1-0.1h-0.5l-0.1,0.1v1.8l0.3-0.3h1.3c0.5,0.2,0.8,0.5,0.8,1.3v2.2C387.2,379.9,386.8,380.2,386.3,380.3z M385.4,379
				l0.1-0.1V377l-0.1-0.1h-0.5l-0.1,0.1v1.8l0.1,0.1H385.4z"/>
		</g>
	</g>
	<g>
		<g>
			<circle class="st4" cx="418.9" cy="240.6" r="8.5"/>
			<circle class="st5" cx="418.9" cy="240.6" r="8.5"/>
		</g>
		<g>
			<path class="st6" d="M417.1,244.5l2.1-6.2h-2.4v-1.5h4.1v1.2l-2.1,6.5H417.1z"/>
		</g>
	</g>
	<g>
		<g>
			<circle class="st4" cx="358.6" cy="250.4" r="8.5"/>
			<circle class="st5" cx="358.6" cy="250.4" r="8.5"/>
		</g>
		<g>
			<path class="st6" d="M357.4,254.3c-0.5-0.2-0.8-0.5-0.8-1.3v-1.4c0-0.6,0.2-0.9,0.6-1.2c-0.4-0.3-0.6-0.6-0.6-1.2v-1.3
				c0-0.8,0.4-1.1,0.8-1.3h2.5c0.5,0.2,0.8,0.5,0.8,1.3v1.3c0,0.6-0.2,0.9-0.6,1.2c0.4,0.3,0.6,0.6,0.6,1.2v1.4
				c0,0.8-0.4,1.1-0.8,1.3H357.4z M358.2,249.7l0.1,0.1h0.5l0.1-0.1v-1.5l-0.1-0.1h-0.5l-0.1,0.1V249.7z M359,252.8v-1.6l-0.1-0.1
				h-0.5l-0.1,0.1v1.6l0.1,0.1h0.5L359,252.8z"/>
		</g>
	</g>
	<g>
		<g>
			<circle class="st4" cx="365.8" cy="186.9" r="8.5"/>
			<circle class="st5" cx="365.8" cy="186.9" r="8.5"/>
		</g>
		<g>
			<path class="st6" d="M364.5,190.8c-0.5-0.2-0.8-0.5-0.8-1.3v-1h1.7v0.8l0.1,0.1h0.5l0.1-0.1v-1.8l-0.3,0.3h-1.3
				c-0.5-0.2-0.8-0.5-0.8-1.3v-2.2c0-0.8,0.4-1.1,0.8-1.3h2.5c0.5,0.2,0.8,0.5,0.8,1.3v5.1c0,0.8-0.4,1.1-0.8,1.3H364.5z
				 M366.2,186.4v-1.8l-0.1-0.1h-0.5l-0.1,0.1v1.8l0.1,0.1h0.5L366.2,186.4z"/>
		</g>
	</g>
	<g>
		<g>
			<circle class="st4" cx="86.2" cy="145.8" r="8.5"/>
			<circle class="st5" cx="86.2" cy="145.8" r="8.5"/>
		</g>
		<g>
			<path class="st6" d="M82.1,149.7v-1.6h1v-4.5h-0.9V142h2.6v6.1h0.9v1.6H82.1z"/>
			<path class="st6" d="M86.4,149.7v-2.6c0-0.6,0.1-1,0.6-1.2l1.9-0.8v-1.6l-0.1-0.1h-0.5l-0.1,0.1v1.1h-1.7v-1.3
				c0-0.8,0.4-1.1,0.8-1.3h2.5c0.5,0.2,0.8,0.5,0.8,1.3v1.9c0,0.6-0.1,0.9-0.6,1.2l-1.9,0.8v0.9h2.4v1.6H86.4z"/>
		</g>
	</g>
	<g>
		<g>
			<circle class="st4" cx="95.5" cy="55.1" r="8.5"/>
			<circle class="st5" cx="95.5" cy="55.1" r="8.5"/>
		</g>
		<g>
			<path class="st6" d="M91.5,59v-1.6h1v-4.5h-0.9v-1.6h2.6v6.1H95V59H91.5z"/>
			<path class="st6" d="M96.6,59c-0.5-0.2-0.8-0.5-0.8-1.3v-1h1.7v0.8l0.1,0.1h0.5l0.1-0.1v-1.6l-0.1-0.1h-1v-1.3h1l0.1-0.1v-1.5
				l-0.1-0.1h-0.5l-0.1,0.1v0.8h-1.7v-1c0-0.8,0.4-1.1,0.8-1.3h2.5c0.5,0.2,0.8,0.5,0.8,1.3v1.3c0,0.6-0.2,0.9-0.6,1.2
				c0.4,0.3,0.6,0.6,0.6,1.2v1.4c0,0.8-0.4,1.1-0.8,1.3H96.6z"/>
		</g>
	</g>
	<g>
		<g>
			<circle class="st4" cx="74.3" cy="105.4" r="8.5"/>
			<circle class="st5" cx="74.3" cy="105.4" r="8.5"/>
		</g>
		<g>
			<path class="st6" d="M70.3,109.3v-1.6h1v-4.5h-0.9v-1.6h2.6v6.1h0.9v1.6H70.3z"/>
			<path class="st6" d="M78.3,107.8v1.5h-1.7v-1.5h-2.2v-1.5l1.6-4.7h1.7l-1.6,4.6h0.5v-0.4l0.4-1h1.3v1.4h0.5v1.6H78.3z"/>
		</g>
	</g>
	<g>
		<g>
			<circle class="st4" cx="64.6" cy="62.8" r="8.5"/>
			<circle class="st5" cx="64.6" cy="62.8" r="8.5"/>
		</g>
		<g>
			<path class="st6" d="M60.6,66.6V65h1v-4.5h-0.9V59h2.6V65h0.9v1.6H60.6z"/>
			<path class="st6" d="M65.7,66.6c-0.5-0.2-0.8-0.5-0.8-1.3v-1h1.6v0.8l0.1,0.1h0.6l0.1-0.1v-2.1L67.2,63h-0.6l-0.1,0.1v0.4h-1.6
				V59h4v1.5h-2.4v1.6l0.4-0.4h1.3c0.5,0.2,0.8,0.5,0.8,1.3v2.4c0,0.8-0.4,1.1-0.8,1.3H65.7z"/>
		</g>
	</g>
	<g>
		<g>
			<circle class="st4" cx="16.7" cy="85.3" r="8.5"/>
			<circle class="st5" cx="16.7" cy="85.3" r="8.5"/>
		</g>
		<g>
			<path class="st6" d="M12.6,89.2v-1.6h1v-4.5h-0.9v-1.6h2.6v6.1h0.9v1.6H12.6z"/>
			<path class="st6" d="M20.2,89.2h-2.5c-0.5-0.2-0.8-0.5-0.8-1.3v-5.1c0-0.8,0.4-1.1,0.8-1.3h2.5c0.5,0.2,0.8,0.5,0.8,1.3v1h-1.7
				V83l-0.1-0.1h-0.5L18.6,83v1.8l0.3-0.3h1.3c0.5,0.2,0.8,0.5,0.8,1.3v2.2C21.1,88.7,20.7,89,20.2,89.2z M19.3,87.8l0.1-0.1v-1.8
				l-0.1-0.1h-0.5l-0.1,0.1v1.8l0.1,0.1H19.3z"/>
		</g>
	</g>
	<g>
		<g>
			<circle class="st4" cx="36.6" cy="26.6" r="8.5"/>
			<circle class="st5" cx="36.6" cy="26.6" r="8.5"/>
		</g>
		<g>
			<path class="st6" d="M32.5,30.5v-1.6h1v-4.5h-0.9v-1.6h2.6v6.1h0.9v1.6H32.5z"/>
			<path class="st6" d="M37.1,30.5l2.1-6.2h-2.4v-1.5H41V24l-2.1,6.5H37.1z"/>
		</g>
	</g>
	<g>
		<g>
			<circle class="st4" cx="278" cy="214.6" r="8.5"/>
			<circle class="st5" cx="278" cy="214.6" r="8.5"/>
		</g>
		<g>
			<path class="st6" d="M274,218.5v-1.6h1v-4.5h-0.9v-1.6h2.6v6.1h0.9v1.6H274z"/>
			<path class="st6" d="M281.6,218.5h-2.5c-0.5-0.2-0.8-0.5-0.8-1.3v-5.1c0-0.8,0.4-1.1,0.8-1.3h2.5c0.5,0.2,0.8,0.5,0.8,1.3v5.1
				C282.4,218,282.1,218.3,281.6,218.5z M280.7,212.3l-0.1-0.1h-0.5l-0.1,0.1v4.7l0.1,0.1h0.5l0.1-0.1V212.3z"/>
		</g>
	</g>
	<g>
		<g>
			<circle class="st4" cx="301.6" cy="155.4" r="8.5"/>
			<circle class="st5" cx="301.6" cy="155.4" r="8.5"/>
		</g>
		<g>
			<path class="st6" d="M297.5,159.3v-1.6h1v-4.5h-0.9v-1.6h2.6v6.1h0.9v1.6H297.5z"/>
			<path class="st6" d="M302.2,159.3v-1.6h1v-4.5h-0.9v-1.6h2.6v6.1h0.9v1.6H302.2z"/>
		</g>
	</g>
</g>
<g id="DRS">
	<g>
		<g>
			<path class="st7" d="M161,221.7c0,0.8-0.6,1.4-1.4,1.4H92c-0.8,0-1.4-0.6-1.4-1.4v-48.8c0-0.8,0.6-1.4,1.4-1.4h67.6
				c0.8,0,1.4,0.6,1.4,1.4V221.7z"/>
		</g>
		<g>
			<path class="st6" d="M121.8,187.1c0,1.3-0.6,1.7-1.3,2h-5.2v-12h5.2c0.7,0.3,1.3,0.7,1.3,2V187.1z M118,179.3v7.7h1l0.2-0.2v-7.3
				l-0.2-0.2H118z"/>
			<path class="st6" d="M122.6,189.1v-12h5.2c0.7,0.3,1.3,0.7,1.3,2v2.5c0,1.1-0.5,1.6-1.1,1.9l1.4,3.8v1.7h-2.3l-1.5-4.7h-0.3v4.7
				H122.6z M125.3,179.3v3h1l0.2-0.2v-2.7l-0.2-0.2H125.3z"/>
			<path class="st6" d="M136.3,184.4v2.7c0,1.3-0.6,1.7-1.3,2h-3.9c-0.7-0.3-1.3-0.7-1.3-2v-2.4h2.7v2l0.2,0.2h0.8l0.2-0.2v-1.8
				l-0.1-0.2l-2.7-1.2c-0.8-0.4-0.9-0.9-0.9-1.8v-2.5c0-1.3,0.6-1.7,1.3-2h3.9c0.7,0.3,1.3,0.7,1.3,2v2.2h-2.7v-1.9l-0.2-0.2h-0.8
				l-0.2,0.2v1.7l0.2,0.3l2.7,1.1C136.2,182.9,136.3,183.5,136.3,184.4z"/>
			<path class="st6" d="M102.7,201.3c0,1.3-0.6,1.7-1.3,2h-5.2v-12h5.2c0.7,0.3,1.3,0.7,1.3,2V201.3z M98.9,193.4v7.7h1l0.2-0.2
				v-7.3l-0.2-0.2H98.9z"/>
			<path class="st6" d="M103.6,191.3h5.5v2.5h-2.8v2.2h2.7v2.5h-2.7v2.3h2.9v2.5h-5.6V191.3z"/>
			<path class="st6" d="M114.2,193.8v9.5h-2.7v-9.5h-1.9v-2.5h6.5v2.5H114.2z"/>
			<path class="st6" d="M116.6,191.3h5.5v2.5h-2.8v2.2h2.7v2.5h-2.7v2.3h2.9v2.5h-5.6V191.3z"/>
			<path class="st6" d="M129.5,201.3c0,1.3-0.6,1.7-1.3,2h-3.9c-0.7-0.3-1.3-0.7-1.3-2v-8c0-1.3,0.6-1.7,1.3-2h3.9
				c0.7,0.3,1.3,0.7,1.3,2v2.9h-2.7v-2.6l-0.2-0.2h-0.8l-0.2,0.2v7.3l0.2,0.2h0.8l0.2-0.2v-2.5h2.7V201.3z"/>
			<path class="st6" d="M134.6,193.8v9.5h-2.7v-9.5H130v-2.5h6.5v2.5H134.6z"/>
			<path class="st6" d="M137,203.2v-2.5h0.5v-7H137v-2.5h3.7v2.5h-0.5v7h0.5v2.5H137z"/>
			<path class="st6" d="M148,201.3c0,1.3-0.6,1.7-1.3,2h-3.9c-0.7-0.3-1.3-0.7-1.3-2v-8c0-1.3,0.6-1.7,1.3-2h3.9
				c0.7,0.3,1.3,0.7,1.3,2V201.3z M145.3,193.6l-0.2-0.2h-0.8l-0.2,0.2v7.3l0.2,0.2h0.8l0.2-0.2V193.6z"/>
			<path class="st6" d="M153,191.3h2.3v12H153l-1.7-5.2h-0.2v5.2h-2.3v-12h2.3l1.7,5.2h0.2V191.3z"/>
			<path class="st6" d="M110.6,207.9h-3.5v-2.5h6.5v2.2l-3.5,7.3h3.5v2.5h-6.5v-2.2L110.6,207.9z"/>
			<path class="st6" d="M120.9,215.4c0,1.3-0.6,1.7-1.3,2h-3.9c-0.7-0.3-1.3-0.7-1.3-2v-8c0-1.3,0.6-1.7,1.3-2h3.9
				c0.7,0.3,1.3,0.7,1.3,2V215.4z M118.3,207.8l-0.2-0.2h-0.8l-0.2,0.2v7.3l0.2,0.2h0.8l0.2-0.2V207.8z"/>
			<path class="st6" d="M125.9,205.4h2.3v12h-2.3l-1.7-5.2h-0.2v5.2h-2.3v-12h2.3l1.7,5.2h0.2V205.4z"/>
			<path class="st6" d="M129.1,205.4h5.5v2.5h-2.8v2.2h2.7v2.5h-2.7v2.3h2.9v2.5h-5.6V205.4z"/>
			<path class="st6" d="M138,217.4v-4c0-0.9,0.2-1.5,0.9-1.8l2.9-1.3v-2.5l-0.2-0.2h-0.8l-0.2,0.2v1.7H138v-2.1c0-1.3,0.6-1.7,1.3-2
				h3.9c0.7,0.3,1.3,0.7,1.3,2v3c0,0.9-0.1,1.5-0.9,1.8l-2.9,1.3v1.3h3.8v2.5H138z"/>
		</g>
	</g>
	<g>
		<g>
			<path class="st7" d="M303.4,301.8c0,0.8-0.6,1.4-1.4,1.4h-67.6c-0.8,0-1.4-0.6-1.4-1.4v-48.8c0-0.8,0.6-1.4,1.4-1.4h32.4
				c0.8,0,2.1,0,2.8,0H302c0.8,0,1.4,0.6,1.4,1.4V301.8z"/>
		</g>
		<g>
			<path class="st6" d="M264.2,267.2c0,1.3-0.6,1.7-1.3,2h-5.2v-12h5.2c0.7,0.3,1.3,0.7,1.3,2V267.2z M260.4,259.3v7.7h1l0.2-0.2
				v-7.3l-0.2-0.2H260.4z"/>
			<path class="st6" d="M265.1,269.2v-12h5.2c0.7,0.3,1.3,0.7,1.3,2v2.5c0,1.1-0.5,1.6-1.1,1.9l1.4,3.8v1.7h-2.3l-1.5-4.7h-0.3v4.7
				H265.1z M267.7,259.3v3h1l0.2-0.2v-2.7l-0.2-0.2H267.7z"/>
			<path class="st6" d="M278.8,264.4v2.7c0,1.3-0.6,1.7-1.3,2h-3.9c-0.7-0.3-1.3-0.7-1.3-2v-2.4h2.7v2l0.2,0.2h0.8l0.2-0.2V265
				l-0.1-0.2l-2.7-1.2c-0.8-0.4-0.9-0.9-0.9-1.8v-2.5c0-1.3,0.6-1.7,1.3-2h3.9c0.7,0.3,1.3,0.7,1.3,2v2.2h-2.7v-1.9l-0.2-0.2h-0.8
				l-0.2,0.2v1.7l0.2,0.3l2.7,1.1C278.7,262.9,278.8,263.5,278.8,264.4z"/>
			<path class="st6" d="M245.2,281.3c0,1.3-0.6,1.7-1.3,2h-5.2v-12h5.2c0.7,0.3,1.3,0.7,1.3,2V281.3z M241.4,273.5v7.7h1l0.2-0.2
				v-7.3l-0.2-0.2H241.4z"/>
			<path class="st6" d="M246,271.4h5.5v2.5h-2.8v2.2h2.7v2.5h-2.7v2.3h2.9v2.5H246V271.4z"/>
			<path class="st6" d="M256.7,273.8v9.5H254v-9.5h-1.9v-2.5h6.5v2.5H256.7z"/>
			<path class="st6" d="M259.1,271.4h5.5v2.5h-2.8v2.2h2.7v2.5h-2.7v2.3h2.9v2.5h-5.6V271.4z"/>
			<path class="st6" d="M272,281.3c0,1.3-0.6,1.7-1.3,2h-3.9c-0.7-0.3-1.3-0.7-1.3-2v-8c0-1.3,0.6-1.7,1.3-2h3.9
				c0.7,0.3,1.3,0.7,1.3,2v2.9h-2.7v-2.6l-0.2-0.2h-0.8l-0.2,0.2v7.3l0.2,0.2h0.8l0.2-0.2v-2.5h2.7V281.3z"/>
			<path class="st6" d="M277,273.8v9.5h-2.7v-9.5h-1.9v-2.5h6.5v2.5H277z"/>
			<path class="st6" d="M279.5,283.3v-2.5h0.5v-7h-0.5v-2.5h3.7v2.5h-0.5v7h0.5v2.5H279.5z"/>
			<path class="st6" d="M290.4,281.3c0,1.3-0.6,1.7-1.3,2h-3.9c-0.7-0.3-1.3-0.7-1.3-2v-8c0-1.3,0.6-1.7,1.3-2h3.9
				c0.7,0.3,1.3,0.7,1.3,2V281.3z M287.8,273.7l-0.2-0.2h-0.8l-0.2,0.2v7.3l0.2,0.2h0.8l0.2-0.2V273.7z"/>
			<path class="st6" d="M295.4,271.4h2.3v12h-2.3l-1.7-5.2h-0.2v5.2h-2.3v-12h2.3l1.7,5.2h0.2V271.4z"/>
			<path class="st6" d="M253,288h-3.5v-2.5h6.5v2.2l-3.5,7.3h3.5v2.5h-6.5v-2.2L253,288z"/>
			<path class="st6" d="M263.4,295.5c0,1.3-0.6,1.7-1.3,2h-3.9c-0.7-0.3-1.3-0.7-1.3-2v-8c0-1.3,0.6-1.7,1.3-2h3.9
				c0.7,0.3,1.3,0.7,1.3,2V295.5z M260.7,287.9l-0.2-0.2h-0.8l-0.2,0.2v7.3l0.2,0.2h0.8l0.2-0.2V287.9z"/>
			<path class="st6" d="M268.4,285.5h2.3v12h-2.3l-1.7-5.2h-0.2v5.2h-2.3v-12h2.3l1.7,5.2h0.2V285.5z"/>
			<path class="st6" d="M271.5,285.5h5.5v2.5h-2.8v2.2h2.7v2.5h-2.7v2.3h2.9v2.5h-5.6V285.5z"/>
			<path class="st6" d="M281,297.5V295h1.5v-7h-1.3v-2.5h4v9.5h1.3v2.5H281z"/>
		</g>
	</g>
	<g>
		<circle class="st8" cx="324.3" cy="200.6" r="4.7"/>
		<circle class="st7" cx="324.3" cy="200.6" r="4.7"/>
	</g>
	<g>
		<circle class="st8" cx="65.3" cy="83.3" r="4.7"/>
		<circle class="st7" cx="65.3" cy="83.3" r="4.7"/>
	</g>
	<g>
		<path class="st7" d="M422,265.7"/>
	</g>
	<g>
		<path class="st9" d="M90.6,197.3H73.8c-4.7,0-8.5-3.8-8.5-8.5V83.3"/>
	</g>
	<g>
		<path class="st9" d="M303.4,277.3h12.4c4.7,0,8.5-3.8,8.5-8.5v-68.3"/>
	</g>
	<g>
		<g>
			<g>
				<g>
					<line class="st10" x1="245.4" y1="174.5" x2="250.7" y2="164.2"/>
				</g>
				<g>
					<path class="st7" d="M243.2,166.8c0.3-0.5,1-0.7,1.5-0.4c0.5,0.3,0.7,1,0.4,1.5c-0.3,0.5-1,0.7-1.5,0.4
						C243.1,168,242.9,167.3,243.2,166.8z"/>
				</g>
				<g>
					<path class="st7" d="M239.3,164.6c0.3-0.5,1-0.7,1.5-0.4c0.5,0.3,0.7,1,0.4,1.5c-0.3,0.5-1,0.7-1.5,0.4
						C239.2,165.8,239,165.1,239.3,164.6z"/>
				</g>
				<g>
					<path class="st7" d="M235.4,162.5c0.3-0.5,1-0.8,1.5-0.5c0.5,0.3,0.8,1,0.5,1.5c-0.3,0.5-1,0.7-1.5,0.5
						C235.3,163.7,235.1,163.1,235.4,162.5z"/>
				</g>
				<g>
					<path class="st7" d="M231.4,160.6c0.2-0.6,0.9-0.8,1.5-0.5c0.6,0.3,0.8,0.9,0.5,1.5c-0.3,0.5-0.9,0.8-1.5,0.5
						C231.4,161.8,231.2,161.2,231.4,160.6z"/>
				</g>
				<g>
					<path class="st7" d="M227.3,158.9c0.2-0.6,0.9-0.9,1.4-0.6c0.6,0.2,0.9,0.9,0.6,1.4s-0.9,0.8-1.4,0.6
						C227.4,160.1,227.1,159.5,227.3,158.9z"/>
				</g>
				<g>
					<path class="st7" d="M223.1,157.5c0.2-0.6,0.8-0.9,1.4-0.7c0.6,0.2,0.9,0.8,0.7,1.4s-0.8,0.9-1.4,0.7
						C223.3,158.8,222.9,158.1,223.1,157.5z"/>
				</g>
				<g>
					<path class="st7" d="M218.8,156.6c0.1-0.6,0.7-1,1.3-0.9c0.6,0.1,1,0.7,0.9,1.3c-0.1,0.6-0.7,1-1.3,0.9
						C219.1,157.8,218.7,157.2,218.8,156.6z"/>
				</g>
				<g>
					<path class="st7" d="M214.4,156.1c0.1-0.6,0.6-1.1,1.2-1c0.6,0,1.1,0.6,1,1.2c-0.1,0.6-0.6,1-1.2,1
						C214.8,157.3,214.3,156.7,214.4,156.1z"/>
				</g>
				<g>
					<path class="st7" d="M210,155.7c0.1-0.6,0.6-1.1,1.2-1c0.6,0.1,1.1,0.6,1,1.2c-0.1,0.6-0.6,1.1-1.2,1
						C210.4,156.9,209.9,156.3,210,155.7z"/>
				</g>
				<g>
					<path class="st7" d="M205.6,155.4c0.1-0.6,0.6-1.1,1.2-1c0.6,0.1,1.1,0.6,1,1.2c-0.1,0.6-0.6,1.1-1.2,1
						C206,156.5,205.5,156,205.6,155.4z"/>
				</g>
				<g>
					<path class="st7" d="M201.2,155c0.1-0.6,0.6-1.1,1.2-1c0.6,0.1,1.1,0.6,1,1.2c-0.1,0.6-0.6,1.1-1.2,1
						C201.6,156.1,201.1,155.6,201.2,155z"/>
				</g>
				<g>
					<path class="st7" d="M196.7,154.6c0.1-0.6,0.6-1.1,1.2-1c0.6,0.1,1.1,0.6,1,1.2c-0.1,0.6-0.6,1.1-1.2,1
						C197.1,155.7,196.7,155.2,196.7,154.6z"/>
				</g>
				<g>
					<path class="st7" d="M192.3,154.2c0.1-0.6,0.6-1.1,1.2-1c0.6,0.1,1.1,0.6,1,1.2c-0.1,0.6-0.6,1.1-1.2,1
						C192.7,155.3,192.3,154.8,192.3,154.2z"/>
				</g>
				<g>
					<path class="st7" d="M187.9,153.8c0.1-0.6,0.6-1.1,1.2-1c0.6,0.1,1.1,0.6,1,1.2c-0.1,0.6-0.6,1.1-1.2,1
						C188.3,154.9,187.9,154.4,187.9,153.8z"/>
				</g>
				<g>
					<path class="st7" d="M183.5,153.4c0.1-0.6,0.6-1.1,1.2-1c0.6,0.1,1.1,0.6,1,1.2c-0.1,0.6-0.6,1.1-1.2,1
						C183.9,154.6,183.5,154,183.5,153.4z"/>
				</g>
				<g>
					<path class="st7" d="M179.1,153c0.1-0.6,0.6-1.1,1.2-1c0.6,0.1,1.1,0.6,1,1.2c-0.1,0.6-0.6,1.1-1.2,1
						C179.5,154.2,179,153.6,179.1,153z"/>
				</g>
				<g>
					<path class="st7" d="M174.7,152.6c0.1-0.6,0.6-1.1,1.2-1c0.6,0.1,1.1,0.6,1,1.2c-0.1,0.6-0.6,1.1-1.2,1
						C175.1,153.8,174.6,153.3,174.7,152.6z"/>
				</g>
				<g>
					<path class="st7" d="M170.3,152.3c0.1-0.6,0.6-1.1,1.2-1c0.6,0.1,1.1,0.6,1,1.2c-0.1,0.6-0.6,1.1-1.2,1
						C170.7,153.4,170.2,152.9,170.3,152.3z"/>
				</g>
				<g>
					<path class="st7" d="M165.9,151.9c0.1-0.6,0.6-1.1,1.2-1c0.6,0.1,1.1,0.6,1,1.2c-0.1,0.6-0.6,1.1-1.2,1
						C166.3,153,165.8,152.5,165.9,151.9z"/>
				</g>
				<g>
					<path class="st7" d="M161.5,151.5c0.1-0.6,0.6-1.1,1.2-1c0.6,0.1,1.1,0.6,1,1.2s-0.6,1.1-1.2,1
						C161.9,152.6,161.4,152.1,161.5,151.5z"/>
				</g>
				<g>
					<path class="st7" d="M157,151.1c0.1-0.6,0.6-1.1,1.2-1c0.6,0.1,1.1,0.6,1,1.2c-0.1,0.6-0.6,1.1-1.2,1
						C157.4,152.2,157,151.7,157,151.1z"/>
				</g>
				<g>
					<path class="st7" d="M152.6,150.7c0.1-0.6,0.6-1.1,1.2-1c0.6,0.1,1.1,0.6,1,1.2c-0.1,0.6-0.6,1.1-1.2,1
						C153,151.9,152.6,151.3,152.6,150.7z"/>
				</g>
				<g>
					<path class="st7" d="M148.2,150.3c0.1-0.6,0.6-1.1,1.2-1c0.6,0.1,1.1,0.6,1,1.2c-0.1,0.6-0.6,1.1-1.2,1
						C148.6,151.5,148.2,150.9,148.2,150.3z"/>
				</g>
				<g>
					<path class="st7" d="M143.8,149.9c0.1-0.6,0.6-1.1,1.2-1c0.6,0.1,1.1,0.6,1,1.2c-0.1,0.6-0.6,1.1-1.2,1
						C144.2,151.1,143.8,150.6,143.8,149.9z"/>
				</g>
				<g>
					<path class="st7" d="M139.4,149.6c0.1-0.6,0.6-1.1,1.2-1c0.6,0.1,1.1,0.6,1,1.2c-0.1,0.6-0.6,1.1-1.2,1
						C139.8,150.7,139.4,150.2,139.4,149.6z"/>
				</g>
				<g>
					<path class="st7" d="M135,149.2c0.1-0.6,0.6-1.1,1.2-1c0.6,0.1,1.1,0.6,1,1.2c-0.1,0.6-0.6,1.1-1.2,1
						C135.4,150.3,134.9,149.8,135,149.2z"/>
				</g>
				<g>
					<path class="st7" d="M130.6,148.8c0.1-0.6,0.6-1.1,1.2-1c0.6,0.1,1.1,0.6,1,1.2c-0.1,0.6-0.6,1.1-1.2,1
						C131,149.9,130.5,149.4,130.6,148.8z"/>
				</g>
				<g>
					<path class="st7" d="M126.2,148.4c0.1-0.6,0.6-1.1,1.2-1c0.6,0.1,1.1,0.6,1,1.2c-0.1,0.6-0.6,1.1-1.2,1
						C126.6,149.5,126.1,149,126.2,148.4z"/>
				</g>
				<g>
					<path class="st7" d="M121.8,148c0.1-0.6,0.6-1.1,1.2-1c0.6,0.1,1.1,0.6,1,1.2c-0.1,0.6-0.6,1.1-1.2,1
						C122.2,149.2,121.7,148.6,121.8,148z"/>
				</g>
				<g>
					<path class="st7" d="M117.4,147.6c0.1-0.6,0.6-1.1,1.2-1c0.6,0.1,1.1,0.6,1,1.2c-0.1,0.6-0.6,1.1-1.2,1
						C117.8,148.8,117.3,148.2,117.4,147.6z"/>
				</g>
				<g>
					<path class="st7" d="M112.9,147.2c0.1-0.6,0.6-1.1,1.2-1c0.6,0.1,1.1,0.6,1,1.2c-0.1,0.6-0.6,1.1-1.2,1
						C113.3,148.4,112.9,147.8,112.9,147.2z"/>
				</g>
				<g>
					<line class="st10" x1="109.1" y1="152.7" x2="110.1" y2="141.2"/>
				</g>
			</g>
		</g>
	</g>
	<g>
		<g>
			<g>
				<g>
					<line class="st10" x1="167" y1="21.1" x2="166" y2="32.7"/>
				</g>
				<g>
					<path class="st7" d="M172,27.4c-0.1,0.6-0.6,1.1-1.2,1s-1.1-0.6-1-1.2c0.1-0.6,0.6-1.1,1.2-1C171.6,26.2,172.1,26.8,172,27.4z"
						/>
				</g>
				<g>
					<path class="st7" d="M176.4,27.8c-0.1,0.6-0.6,1.1-1.2,1s-1.1-0.6-1-1.2c0.1-0.6,0.6-1.1,1.2-1S176.5,27.2,176.4,27.8z"/>
				</g>
				<g>
					<path class="st7" d="M180.9,28.2c-0.1,0.6-0.6,1.1-1.2,1c-0.6-0.1-1.1-0.6-1-1.2s0.6-1.1,1.2-1
						C180.5,27.1,180.9,27.6,180.9,28.2z"/>
				</g>
				<g>
					<path class="st7" d="M185.3,28.6c-0.1,0.6-0.6,1.1-1.2,1c-0.6-0.1-1.1-0.6-1-1.2c0.1-0.6,0.6-1.1,1.2-1S185.3,28,185.3,28.6z"
						/>
				</g>
				<g>
					<path class="st7" d="M189.7,29c-0.1,0.6-0.6,1.1-1.2,1c-0.6-0.1-1.1-0.6-1-1.2c0.1-0.6,0.6-1.1,1.2-1
						C189.3,27.9,189.7,28.4,189.7,29z"/>
				</g>
				<g>
					<path class="st7" d="M194.1,29.4c-0.1,0.6-0.6,1.1-1.2,1c-0.6-0.1-1.1-0.6-1-1.2s0.6-1.1,1.2-1S194.2,28.8,194.1,29.4z"/>
				</g>
				<g>
					<path class="st7" d="M198.5,29.8c-0.1,0.6-0.6,1.1-1.2,1c-0.6-0.1-1.1-0.6-1-1.2s0.6-1.1,1.2-1S198.6,29.2,198.5,29.8z"/>
				</g>
				<g>
					<path class="st7" d="M202.9,30.2c-0.1,0.6-0.6,1.1-1.2,1c-0.6-0.1-1.1-0.6-1-1.2c0.1-0.6,0.6-1.1,1.2-1
						C202.5,29.1,203,29.6,202.9,30.2z"/>
				</g>
				<g>
					<path class="st7" d="M207.4,30.6c-0.1,0.6-0.6,1.1-1.2,1c-0.6-0.1-1.1-0.6-1-1.2c0.1-0.6,0.6-1.1,1.2-1S207.4,30,207.4,30.6z"
						/>
				</g>
				<g>
					<path class="st7" d="M211.8,31c-0.1,0.6-0.6,1.1-1.2,1c-0.6-0.1-1.1-0.6-1-1.2c0.1-0.6,0.6-1.1,1.2-1
						C211.4,29.9,211.8,30.4,211.8,31z"/>
				</g>
				<g>
					<path class="st7" d="M216.2,31.4c-0.1,0.6-0.6,1.1-1.2,1s-1.1-0.6-1-1.2c0.1-0.6,0.6-1.1,1.2-1S216.3,30.8,216.2,31.4z"/>
				</g>
				<g>
					<path class="st7" d="M220.6,31.9c-0.1,0.6-0.6,1.1-1.2,1s-1.1-0.6-1-1.2c0.1-0.6,0.6-1.1,1.2-1S220.7,31.2,220.6,31.9z"/>
				</g>
				<g>
					<path class="st7" d="M225,32.3c0,0.6-0.6,1.1-1.2,1c-0.6-0.1-1.1-0.6-1-1.2c0-0.6,0.6-1.1,1.2-1S225.1,31.6,225,32.3z"/>
				</g>
				<g>
					<path class="st7" d="M229.5,32.7c0,0.6-0.6,1.1-1.2,1c-0.6-0.1-1.1-0.6-1-1.2c0-0.6,0.6-1.1,1.2-1
						C229.1,31.5,229.5,32.1,229.5,32.7z"/>
				</g>
				<g>
					<path class="st7" d="M233.9,33c0,0.6-0.6,1.1-1.2,1c-0.6,0-1.1-0.6-1-1.2c0-0.6,0.6-1,1.2-1C233.5,31.9,233.9,32.4,233.9,33z"
						/>
				</g>
				<g>
					<path class="st7" d="M238.3,33.3c0,0.6-0.6,1.1-1.2,1c-0.6,0-1.1-0.6-1-1.2c0-0.6,0.6-1.1,1.2-1
						C237.9,32.2,238.4,32.7,238.3,33.3z"/>
				</g>
				<g>
					<path class="st7" d="M242.7,33.6c0,0.6-0.6,1.1-1.2,1c-0.6,0-1.1-0.6-1-1.2s0.6-1.1,1.2-1S242.8,32.9,242.7,33.6z"/>
				</g>
				<g>
					<path class="st7" d="M247.2,33.8c0,0.6-0.6,1.1-1.2,1c-0.6,0-1.1-0.6-1-1.2s0.6-1.1,1.2-1C246.8,32.7,247.2,33.2,247.2,33.8z"
						/>
				</g>
				<g>
					<path class="st7" d="M251.6,34.1c0,0.6-0.6,1.1-1.2,1c-0.6,0-1.1-0.6-1-1.2c0-0.6,0.6-1.1,1.2-1S251.6,33.5,251.6,34.1z"/>
				</g>
				<g>
					<path class="st7" d="M256,34.3c0,0.6-0.6,1.1-1.2,1c-0.6,0-1.1-0.6-1-1.2c0-0.6,0.6-1.1,1.2-1S256.1,33.7,256,34.3z"/>
				</g>
				<g>
					<path class="st7" d="M260.5,34.6c0,0.6-0.6,1.1-1.2,1c-0.6,0-1.1-0.6-1-1.2c0-0.6,0.6-1.1,1.2-1C260,33.5,260.5,34,260.5,34.6z
						"/>
				</g>
				<g>
					<path class="st7" d="M264.9,34.9c0,0.6-0.6,1.1-1.2,1s-1.1-0.6-1-1.2s0.6-1.1,1.2-1C264.5,33.7,264.9,34.3,264.9,34.9z"/>
				</g>
				<g>
					<path class="st7" d="M269.3,35.1c0,0.6-0.6,1.1-1.2,1s-1.1-0.6-1-1.2c0-0.6,0.6-1.1,1.2-1C268.9,34,269.4,34.5,269.3,35.1z"/>
				</g>
				<g>
					<path class="st7" d="M273.7,35.4c0,0.6-0.6,1.1-1.2,1c-0.6,0-1.1-0.6-1-1.2s0.6-1.1,1.2-1C273.3,34.3,273.8,34.8,273.7,35.4z"
						/>
				</g>
				<g>
					<path class="st7" d="M278.2,35.7c0,0.6-0.6,1.1-1.2,1s-1.1-0.6-1-1.2s0.6-1.1,1.2-1C277.8,34.5,278.2,35.1,278.2,35.7z"/>
				</g>
				<g>
					<path class="st7" d="M282.6,35.9c0,0.6-0.6,1.1-1.2,1c-0.6,0-1.1-0.6-1-1.2c0-0.6,0.6-1.1,1.2-1
						C282.2,34.8,282.6,35.3,282.6,35.9z"/>
				</g>
				<g>
					<path class="st7" d="M287,36.2c0,0.6-0.6,1.1-1.2,1c-0.6,0-1.1-0.6-1-1.2s0.6-1.1,1.2-1C286.6,35.1,287.1,35.6,287,36.2z"/>
				</g>
				<g>
					<path class="st7" d="M291.5,36.5c0,0.6-0.6,1.1-1.2,1s-1.1-0.6-1-1.2c0-0.6,0.6-1.1,1.2-1C291,35.3,291.5,35.9,291.5,36.5z"/>
				</g>
				<g>
					<path class="st7" d="M295.9,36.7c0,0.6-0.6,1.1-1.2,1c-0.6,0-1.1-0.6-1-1.2c0-0.6,0.6-1.1,1.2-1
						C295.5,35.6,295.9,36.1,295.9,36.7z"/>
				</g>
				<g>
					<path class="st7" d="M300.3,37c0,0.6-0.6,1.1-1.2,1c-0.6,0-1.1-0.6-1-1.2c0-0.6,0.6-1.1,1.2-1C299.9,35.9,300.4,36.4,300.3,37z
						"/>
				</g>
				<g>
					<path class="st7" d="M304.8,37.3c0,0.6-0.6,1.1-1.2,1c-0.6,0-1.1-0.6-1-1.2c0-0.6,0.6-1.1,1.2-1
						C304.3,36.1,304.8,36.7,304.8,37.3z"/>
				</g>
				<g>
					<path class="st7" d="M309.2,37.5c0,0.6-0.6,1.1-1.2,1c-0.6,0-1.1-0.6-1-1.2c0-0.6,0.6-1.1,1.2-1
						C308.7,36.4,309.2,36.9,309.2,37.5z"/>
				</g>
				<g>
					<path class="st7" d="M313.6,37.8c0,0.6-0.6,1.1-1.2,1c-0.6,0-1.1-0.6-1-1.2c0-0.6,0.6-1.1,1.2-1
						C313.2,36.7,313.6,37.2,313.6,37.8z"/>
				</g>
				<g>
					<path class="st7" d="M318,38.1c0,0.6-0.6,1.1-1.2,1c-0.6,0-1.1-0.6-1-1.2c0-0.6,0.6-1.1,1.2-1C317.6,36.9,318.1,37.5,318,38.1z
						"/>
				</g>
				<g>
					<path class="st7" d="M322.5,38.4c0,0.6-0.6,1.1-1.2,1c-0.6,0-1.1-0.6-1-1.2s0.6-1.1,1.2-1C322.1,37.3,322.5,37.8,322.5,38.4z"
						/>
				</g>
				<g>
					<path class="st7" d="M326.9,38.8c0,0.6-0.6,1.1-1.2,1c-0.6-0.1-1.1-0.6-1-1.2c0-0.6,0.6-1.1,1.2-1
						C326.5,37.6,326.9,38.1,326.9,38.8z"/>
				</g>
				<g>
					<path class="st7" d="M331.3,39.1c-0.1,0.6-0.6,1.1-1.2,1c-0.6-0.1-1.1-0.6-1-1.2c0.1-0.6,0.6-1.1,1.2-1
						C330.9,38,331.4,38.5,331.3,39.1z"/>
				</g>
				<g>
					<path class="st7" d="M335.7,39.5c-0.1,0.6-0.6,1.1-1.2,1c-0.6-0.1-1.1-0.6-1-1.2c0.1-0.6,0.6-1.1,1.2-1
						C335.3,38.4,335.8,38.9,335.7,39.5z"/>
				</g>
				<g>
					<path class="st7" d="M340.1,39.9c-0.1,0.6-0.6,1.1-1.2,1c-0.6-0.1-1.1-0.6-1-1.2c0.1-0.6,0.6-1.1,1.2-1
						C339.8,38.7,340.2,39.3,340.1,39.9z"/>
				</g>
				<g>
					<path class="st7" d="M344.6,40.3c-0.1,0.6-0.6,1.1-1.2,1c-0.6-0.1-1.1-0.6-1-1.2c0.1-0.6,0.6-1.1,1.2-1
						C344.2,39.1,344.6,39.7,344.6,40.3z"/>
				</g>
				<g>
					<path class="st7" d="M349,40.7c-0.1,0.6-0.6,1.1-1.2,1c-0.6-0.1-1.1-0.6-1-1.2c0.1-0.6,0.6-1.1,1.2-1
						C348.6,39.5,349,40.1,349,40.7z"/>
				</g>
				<g>
					<path class="st7" d="M353.4,41.1c-0.1,0.6-0.6,1.1-1.2,1c-0.6-0.1-1.1-0.6-1-1.2s0.6-1.1,1.2-1C353,39.9,353.5,40.5,353.4,41.1
						z"/>
				</g>
				<g>
					<path class="st7" d="M357.8,41.5c-0.1,0.6-0.6,1.1-1.2,1s-1.1-0.6-1-1.2c0.1-0.6,0.6-1.1,1.2-1
						C357.4,40.3,357.9,40.9,357.8,41.5z"/>
				</g>
				<g>
					<path class="st7" d="M362.2,41.9c-0.1,0.6-0.6,1.1-1.2,1c-0.6-0.1-1.1-0.6-1-1.2c0.1-0.6,0.6-1.1,1.2-1
						C361.9,40.7,362.3,41.3,362.2,41.9z"/>
				</g>
				<g>
					<path class="st7" d="M366.7,42.3c-0.1,0.6-0.6,1.1-1.2,1c-0.6-0.1-1.1-0.6-1-1.2c0.1-0.6,0.6-1.1,1.2-1
						C366.3,41.1,366.7,41.7,366.7,42.3z"/>
				</g>
				<g>
					<path class="st7" d="M371.1,42.7c-0.1,0.6-0.6,1.1-1.2,1c-0.6-0.1-1.1-0.6-1-1.2s0.6-1.1,1.2-1
						C370.7,41.5,371.1,42.1,371.1,42.7z"/>
				</g>
				<g>
					<path class="st7" d="M375.5,43.1c-0.1,0.6-0.6,1.1-1.2,1c-0.6-0.1-1.1-0.6-1-1.2c0.1-0.6,0.6-1.1,1.2-1S375.6,42.5,375.5,43.1z
						"/>
				</g>
				<g>
					<path class="st7" d="M379.9,43.5c-0.1,0.6-0.6,1.1-1.2,1c-0.6-0.1-1.1-0.6-1-1.2c0.1-0.6,0.6-1.1,1.2-1
						C379.5,42.4,380,42.9,379.9,43.5z"/>
				</g>
				<g>
					<path class="st7" d="M384.3,43.9c-0.1,0.6-0.6,1.1-1.2,1c-0.6-0.1-1.1-0.6-1-1.2c0.1-0.6,0.6-1.1,1.2-1
						C383.9,42.7,384.4,43.3,384.3,43.9z"/>
				</g>
				<g>
					<path class="st7" d="M388.8,44.3c-0.1,0.6-0.6,1-1.2,1c-0.6-0.1-1.1-0.6-1-1.2c0.1-0.6,0.6-1.1,1.2-1
						C388.4,43.2,388.8,43.7,388.8,44.3z"/>
				</g>
				<g>
					<path class="st7" d="M393.2,44.8c-0.1,0.6-0.6,1-1.2,1s-1.1-0.6-1-1.2c0.1-0.6,0.6-1,1.2-1C392.8,43.6,393.2,44.2,393.2,44.8z"
						/>
				</g>
				<g>
					<path class="st7" d="M397.6,45.2c-0.1,0.6-0.6,1-1.2,1s-1.1-0.6-1-1.2c0.1-0.6,0.6-1,1.2-1C397.2,44.1,397.6,44.6,397.6,45.2z"
						/>
				</g>
				<g>
					<path class="st7" d="M402,45.7c-0.1,0.6-0.6,1-1.2,1c-0.6-0.1-1.1-0.6-1-1.2c0.1-0.6,0.6-1,1.2-1
						C401.6,44.5,402.1,45.1,402,45.7z"/>
				</g>
				<g>
					<path class="st7" d="M406.4,46.2c-0.1,0.6-0.6,1-1.2,1s-1.1-0.6-1-1.2c0.1-0.6,0.6-1,1.2-1C406,45,406.5,45.5,406.4,46.2z"/>
				</g>
				<g>
					<path class="st7" d="M410.8,46.6c-0.1,0.6-0.6,1-1.2,1s-1.1-0.6-1-1.2c0.1-0.6,0.6-1,1.2-1C410.4,45.5,410.9,46,410.8,46.6z"/>
				</g>
				<g>
					<path class="st7" d="M415.2,47.1c-0.1,0.6-0.6,1-1.2,1s-1.1-0.6-1-1.2c0.1-0.6,0.6-1,1.2-1C414.8,45.9,415.3,46.5,415.2,47.1z"
						/>
				</g>
				<g>
					<path class="st7" d="M419.7,47.5c-0.1,0.6-0.6,1-1.2,1s-1.1-0.6-1-1.2c0.1-0.6,0.6-1,1.2-1C419.3,46.4,419.7,46.9,419.7,47.5z"
						/>
				</g>
				<g>
					<path class="st7" d="M424.1,48c-0.1,0.6-0.6,1-1.2,1s-1.1-0.6-1-1.2c0.1-0.6,0.6-1,1.2-1C423.7,46.8,424.1,47.4,424.1,48z"/>
				</g>
				<g>
					<path class="st7" d="M428.5,48.4c-0.1,0.6-0.6,1-1.2,1s-1.1-0.6-1-1.2c0.1-0.6,0.6-1,1.2-1C428.1,47.3,428.5,47.8,428.5,48.4z"
						/>
				</g>
				<g>
					<path class="st7" d="M432.9,48.9c-0.1,0.6-0.6,1-1.2,1s-1.1-0.6-1-1.2c0.1-0.6,0.6-1,1.2-1C432.5,47.8,433,48.3,432.9,48.9z"/>
				</g>
				<g>
					<path class="st7" d="M437.3,49.4c-0.1,0.6-0.6,1-1.2,1s-1.1-0.6-1-1.2c0.1-0.6,0.6-1,1.2-1C436.9,48.2,437.4,48.8,437.3,49.4z"
						/>
				</g>
				<g>
					<path class="st7" d="M441.7,49.8c-0.1,0.6-0.6,1-1.2,1s-1.1-0.6-1-1.2c0.1-0.6,0.6-1,1.2-1C441.3,48.7,441.8,49.2,441.7,49.8z"
						/>
				</g>
				<g>
					<path class="st7" d="M446.1,50.3c-0.1,0.6-0.6,1-1.2,1s-1.1-0.6-1-1.2c0.1-0.6,0.6-1,1.2-1C445.7,49.1,446.2,49.7,446.1,50.3z"
						/>
				</g>
				<g>
					<path class="st7" d="M450.5,50.7c-0.1,0.6-0.6,1-1.2,1s-1.1-0.6-1-1.2s0.6-1,1.2-1C450.2,49.6,450.6,50.1,450.5,50.7z"/>
				</g>
				<g>
					<path class="st7" d="M455,51.2c-0.1,0.6-0.6,1-1.2,1c-0.6-0.1-1.1-0.6-1-1.2c0.1-0.6,0.6-1,1.2-1C454.6,50.1,455,50.6,455,51.2
						z"/>
				</g>
				<g>
					<path class="st7" d="M459.4,51.7c-0.1,0.6-0.6,1-1.2,1s-1.1-0.6-1-1.2c0.1-0.6,0.6-1,1.2-1C459,50.5,459.4,51.1,459.4,51.7z"/>
				</g>
				<g>
					<path class="st7" d="M463.8,52.1c-0.1,0.6-0.6,1-1.2,1s-1.1-0.6-1-1.2c0.1-0.6,0.6-1,1.2-1C463.4,51,463.8,51.5,463.8,52.1z"/>
				</g>
				<g>
					<path class="st7" d="M468.2,52.6c-0.1,0.6-0.6,1-1.2,1c-0.6-0.1-1.1-0.6-1-1.2c0.1-0.6,0.6-1,1.2-1
						C467.8,51.4,468.3,52,468.2,52.6z"/>
				</g>
				<g>
					<path class="st7" d="M472.6,53c-0.1,0.6-0.6,1-1.2,1s-1.1-0.6-1-1.2c0.1-0.6,0.6-1,1.2-1C472.2,51.9,472.7,52.4,472.6,53z"/>
				</g>
				<g>
					<path class="st7" d="M477,53.5c-0.1,0.6-0.6,1-1.2,1s-1.1-0.6-1-1.2c0.1-0.6,0.6-1,1.2-1C476.6,52.3,477.1,52.9,477,53.5z"/>
				</g>
				<g>
					<path class="st7" d="M481.4,54c-0.1,0.6-0.6,1-1.2,1s-1.1-0.6-1-1.2c0.1-0.6,0.6-1,1.2-1C481.1,52.8,481.5,53.4,481.4,54z"/>
				</g>
				<g>
					<path class="st7" d="M485.9,54.4c-0.1,0.6-0.6,1-1.2,1c-0.6-0.1-1.1-0.6-1-1.2c0.1-0.6,0.6-1,1.2-1
						C485.5,53.3,485.9,53.8,485.9,54.4z"/>
				</g>
				<g>
					<line class="st10" x1="489.8" y1="49" x2="488.5" y2="60.5"/>
				</g>
			</g>
		</g>
	</g>
	<g>
		<g>
			<g>
				<g>
					<line class="st10" x1="528.6" y1="150.3" x2="518" y2="145.6"/>
				</g>
				<g>
					<path class="st7" d="M520.9,153c-0.6-0.3-0.8-0.9-0.5-1.5c0.3-0.6,0.9-0.8,1.5-0.5c0.6,0.3,0.8,0.9,0.5,1.5
						C522.2,153,521.5,153.3,520.9,153z"/>
				</g>
				<g>
					<path class="st7" d="M519,157c-0.5-0.3-0.8-0.9-0.5-1.5c0.3-0.6,0.9-0.8,1.5-0.5c0.6,0.3,0.8,0.9,0.5,1.5
						C520.2,157.1,519.6,157.3,519,157z"/>
				</g>
				<g>
					<path class="st7" d="M517.1,161c-0.5-0.3-0.8-0.9-0.5-1.5c0.3-0.5,0.9-0.8,1.5-0.5c0.5,0.3,0.8,0.9,0.5,1.5
						C518.3,161.1,517.6,161.3,517.1,161z"/>
				</g>
				<g>
					<path class="st7" d="M515.1,165c-0.5-0.3-0.8-0.9-0.5-1.5c0.3-0.5,0.9-0.8,1.5-0.5s0.8,0.9,0.5,1.5
						C516.3,165.1,515.6,165.3,515.1,165z"/>
				</g>
				<g>
					<path class="st7" d="M513.1,169c-0.5-0.3-0.8-0.9-0.5-1.5s0.9-0.8,1.5-0.5s0.8,0.9,0.5,1.5C514.3,169.1,513.6,169.3,513.1,169z
						"/>
				</g>
				<g>
					<path class="st7" d="M511.1,173c-0.5-0.3-0.8-0.9-0.5-1.5c0.3-0.5,0.9-0.8,1.5-0.5c0.5,0.3,0.8,0.9,0.5,1.5
						C512.3,173,511.6,173.2,511.1,173z"/>
				</g>
				<g>
					<path class="st7" d="M509,176.9c-0.5-0.3-0.8-0.9-0.5-1.5c0.3-0.5,1-0.8,1.5-0.5c0.5,0.3,0.8,0.9,0.5,1.5
						C510.2,177,509.6,177.2,509,176.9z"/>
				</g>
				<g>
					<path class="st7" d="M507,180.9c-0.5-0.3-0.7-1-0.5-1.5c0.3-0.5,1-0.8,1.5-0.5c0.5,0.3,0.8,1,0.5,1.5
						C508.2,180.9,507.5,181.2,507,180.9z"/>
				</g>
				<g>
					<path class="st7" d="M504.9,184.8c-0.5-0.3-0.7-1-0.5-1.5c0.3-0.5,1-0.8,1.5-0.5c0.5,0.3,0.7,1,0.5,1.5
						C506.1,184.9,505.4,185.1,504.9,184.8z"/>
				</g>
				<g>
					<path class="st7" d="M502.8,188.8c-0.5-0.3-0.7-1-0.5-1.5s1-0.8,1.5-0.5c0.5,0.3,0.7,1,0.5,1.5S503.4,189,502.8,188.8z"/>
				</g>
				<g>
					<path class="st7" d="M500.8,192.7c-0.5-0.3-0.7-1-0.5-1.5c0.3-0.5,1-0.8,1.5-0.5c0.5,0.3,0.7,1,0.5,1.5
						C502,192.8,501.3,193,500.8,192.7z"/>
				</g>
				<g>
					<path class="st7" d="M498.7,196.6c-0.5-0.3-0.7-1-0.5-1.5s1-0.8,1.5-0.5s0.7,1,0.5,1.5C499.9,196.7,499.2,196.9,498.7,196.6z"
						/>
				</g>
				<g>
					<path class="st7" d="M496.6,200.6c-0.5-0.3-0.7-1-0.5-1.5c0.3-0.5,1-0.7,1.5-0.5c0.5,0.3,0.7,1,0.5,1.5
						C497.8,200.6,497.1,200.8,496.6,200.6z"/>
				</g>
				<g>
					<path class="st7" d="M494.5,204.5c-0.5-0.3-0.7-1-0.4-1.5c0.3-0.5,1-0.7,1.5-0.5s0.7,1,0.4,1.5S495,204.8,494.5,204.5z"/>
				</g>
				<g>
					<path class="st7" d="M492.4,208.4c-0.5-0.3-0.7-1-0.4-1.5c0.3-0.5,1-0.7,1.5-0.5s0.7,1,0.4,1.5
						C493.6,208.5,492.9,208.7,492.4,208.4z"/>
				</g>
				<g>
					<path class="st7" d="M490.3,212.3c-0.5-0.3-0.7-1-0.4-1.5c0.3-0.5,1-0.7,1.5-0.5c0.5,0.3,0.7,1,0.4,1.5
						C491.5,212.4,490.8,212.6,490.3,212.3z"/>
				</g>
				<g>
					<path class="st7" d="M488.2,216.3c-0.5-0.3-0.7-1-0.4-1.5c0.3-0.5,1-0.7,1.5-0.5s0.7,1,0.4,1.5
						C489.4,216.3,488.7,216.5,488.2,216.3z"/>
				</g>
				<g>
					<path class="st7" d="M486.1,220.2c-0.5-0.3-0.7-1-0.4-1.5c0.3-0.5,1-0.7,1.5-0.5c0.5,0.3,0.7,1,0.4,1.5
						C487.3,220.3,486.6,220.5,486.1,220.2z"/>
				</g>
				<g>
					<path class="st7" d="M483.9,224.1c-0.5-0.3-0.7-1-0.4-1.5c0.3-0.5,1-0.7,1.5-0.5c0.5,0.3,0.7,1,0.4,1.5
						C485.2,224.2,484.5,224.4,483.9,224.1z"/>
				</g>
				<g>
					<path class="st7" d="M481.8,228c-0.5-0.3-0.7-1-0.4-1.5c0.3-0.5,1-0.7,1.5-0.5c0.5,0.3,0.7,1,0.4,1.5
						C483,228.1,482.4,228.3,481.8,228z"/>
				</g>
				<g>
					<path class="st7" d="M479.6,231.9c-0.5-0.3-0.7-1-0.4-1.5c0.3-0.5,1-0.7,1.5-0.4c0.5,0.3,0.7,1,0.4,1.5
						C480.9,232,480.2,232.2,479.6,231.9z"/>
				</g>
				<g>
					<path class="st7" d="M477.5,235.8c-0.5-0.3-0.7-1-0.4-1.5c0.3-0.5,1-0.7,1.5-0.4c0.5,0.3,0.7,1,0.4,1.5S478,236.1,477.5,235.8z
						"/>
				</g>
				<g>
					<path class="st7" d="M475.3,239.7c-0.5-0.3-0.7-1-0.4-1.5c0.3-0.5,1-0.7,1.5-0.4s0.7,1,0.4,1.5S475.8,240,475.3,239.7z"/>
				</g>
				<g>
					<path class="st7" d="M473.1,243.6c-0.5-0.3-0.7-1-0.4-1.5c0.3-0.5,1-0.7,1.5-0.4c0.5,0.3,0.7,1,0.4,1.5
						S473.7,243.8,473.1,243.6z"/>
				</g>
				<g>
					<path class="st7" d="M471,247.4c-0.5-0.3-0.7-1-0.4-1.5c0.3-0.5,1-0.7,1.5-0.4s0.7,1,0.4,1.5S471.5,247.7,471,247.4z"/>
				</g>
				<g>
					<path class="st7" d="M468.8,251.3c-0.5-0.3-0.7-1-0.4-1.5c0.3-0.5,1-0.7,1.5-0.4s0.7,1,0.4,1.5
						C470,251.4,469.3,251.6,468.8,251.3z"/>
				</g>
				<g>
					<path class="st7" d="M466.6,255.2c-0.5-0.3-0.7-1-0.4-1.5c0.3-0.5,1-0.7,1.5-0.4s0.7,1,0.4,1.5S467.2,255.5,466.6,255.2z"/>
				</g>
				<g>
					<path class="st7" d="M464.5,259.1c-0.5-0.3-0.7-1-0.4-1.5c0.3-0.5,1-0.7,1.5-0.4c0.5,0.3,0.7,1,0.4,1.5S465,259.4,464.5,259.1z
						"/>
				</g>
				<g>
					<path class="st7" d="M462.3,263c-0.5-0.3-0.7-1-0.4-1.5c0.3-0.5,1-0.7,1.5-0.4s0.7,1,0.4,1.5S462.8,263.3,462.3,263z"/>
				</g>
				<g>
					<path class="st7" d="M460.1,266.9c-0.5-0.3-0.7-1-0.4-1.5c0.3-0.5,1-0.7,1.5-0.4c0.5,0.3,0.7,1,0.4,1.5
						S460.6,267.2,460.1,266.9z"/>
				</g>
				<g>
					<path class="st7" d="M457.9,270.8c-0.5-0.3-0.7-1-0.4-1.5c0.3-0.5,1-0.7,1.5-0.4c0.5,0.3,0.7,1,0.4,1.5
						S458.5,271.1,457.9,270.8z"/>
				</g>
				<g>
					<path class="st7" d="M455.8,274.7c-0.5-0.3-0.7-1-0.4-1.5c0.3-0.5,1-0.7,1.5-0.4s0.7,1,0.4,1.5S456.3,275,455.8,274.7z"/>
				</g>
				<g>
					<path class="st7" d="M453.6,278.5c-0.5-0.3-0.7-1-0.4-1.5c0.3-0.5,1-0.7,1.5-0.4s0.7,1,0.4,1.5
						C454.8,278.6,454.1,278.8,453.6,278.5z"/>
				</g>
				<g>
					<path class="st7" d="M451.4,282.4c-0.5-0.3-0.7-1-0.4-1.5c0.3-0.5,1-0.7,1.5-0.4c0.5,0.3,0.7,1,0.4,1.5S452,282.7,451.4,282.4z
						"/>
				</g>
				<g>
					<path class="st7" d="M449.3,286.3c-0.5-0.3-0.7-1-0.4-1.5c0.3-0.5,1-0.7,1.5-0.4c0.5,0.3,0.7,1,0.4,1.5
						C450.5,286.4,449.8,286.6,449.3,286.3z"/>
				</g>
				<g>
					<path class="st7" d="M447.1,290.2c-0.5-0.3-0.7-1-0.4-1.5c0.3-0.5,1-0.7,1.5-0.4c0.5,0.3,0.7,1,0.4,1.5
						S447.6,290.5,447.1,290.2z"/>
				</g>
				<g>
					<path class="st7" d="M444.9,294.1c-0.5-0.3-0.7-1-0.4-1.5c0.3-0.5,1-0.7,1.5-0.4c0.5,0.3,0.7,1,0.4,1.5
						S445.5,294.4,444.9,294.1z"/>
				</g>
				<g>
					<path class="st7" d="M442.8,298c-0.5-0.3-0.7-1-0.4-1.5c0.3-0.5,1-0.7,1.5-0.4c0.5,0.3,0.7,1,0.4,1.5S443.3,298.3,442.8,298z"
						/>
				</g>
				<g>
					<path class="st7" d="M440.6,301.9c-0.5-0.3-0.7-1-0.4-1.5c0.3-0.5,1-0.7,1.5-0.4s0.7,1,0.4,1.5S441.1,302.2,440.6,301.9z"/>
				</g>
				<g>
					<path class="st7" d="M438.4,305.8c-0.5-0.3-0.7-1-0.4-1.5c0.3-0.5,1-0.7,1.5-0.4s0.7,1,0.4,1.5S438.9,306.1,438.4,305.8z"/>
				</g>
				<g>
					<path class="st7" d="M436.2,309.6c-0.5-0.3-0.7-1-0.4-1.5c0.3-0.5,1-0.7,1.5-0.4c0.5,0.3,0.7,1,0.4,1.5
						S436.8,309.9,436.2,309.6z"/>
				</g>
				<g>
					<line class="st10" x1="439.7" y1="315.4" x2="429.6" y2="309.7"/>
				</g>
			</g>
		</g>
	</g>
</g>
<g id="SPEED_x5F_TRAP">
	<g>
		<g>
			<path class="st11" d="M403.1,129.1c0,0.8-0.6,1.4-1.4,1.4h-42.2c-0.8,0-1.4-0.6-1.4-1.4V94.4c0-0.8,0.6-1.4,1.4-1.4h42.2
				c0.8,0,1.4,0.6,1.4,1.4V129.1z"/>
		</g>
		<g>
			<path class="st6" d="M370.2,105.9v2.7c0,1.3-0.6,1.7-1.3,2H365c-0.7-0.3-1.3-0.7-1.3-2v-2.4h2.7v2l0.2,0.2h0.8l0.2-0.2v-1.8
				l-0.2-0.2l-2.7-1.2c-0.8-0.4-0.9-0.9-0.9-1.8v-2.5c0-1.3,0.6-1.7,1.3-2h3.9c0.7,0.3,1.3,0.7,1.3,2v2.2h-2.7V101l-0.2-0.2h-0.8
				l-0.2,0.2v1.7l0.2,0.3l2.7,1.1C370.1,104.4,370.2,105,370.2,105.9z"/>
			<path class="st6" d="M373.7,106.5v4.2H371v-12h5.2c0.7,0.3,1.3,0.7,1.3,2v3.8c0,1.3-0.6,1.7-1.3,2H373.7z M373.7,100.8v3.5h1
				l0.2-0.2V101l-0.2-0.2H373.7z"/>
			<path class="st6" d="M378.1,98.7h5.5v2.5h-2.8v2.2h2.7v2.5h-2.7v2.3h2.9v2.5h-5.6V98.7z"/>
			<path class="st6" d="M384.5,98.7h5.5v2.5h-2.8v2.2h2.7v2.5h-2.7v2.3h2.9v2.5h-5.6V98.7z"/>
			<path class="st6" d="M397.4,108.7c0,1.3-0.6,1.7-1.3,2H391v-12h5.2c0.7,0.3,1.3,0.7,1.3,2V108.7z M393.6,100.8v7.7h1l0.2-0.2V101
				l-0.2-0.2H393.6z"/>
			<path class="st6" d="M371.2,115.3v9.5h-2.7v-9.5h-1.9v-2.5h6.5v2.5H371.2z"/>
			<path class="st6" d="M373.6,124.8v-12h5.2c0.7,0.3,1.3,0.7,1.3,2v2.5c0,1.1-0.5,1.6-1.1,1.9l1.4,3.8v1.7h-2.3l-1.5-4.7h-0.3v4.7
				H373.6z M376.2,115v3h1l0.2-0.2v-2.7l-0.2-0.2H376.2z"/>
			<path class="st6" d="M384.7,122.5h-1.3l-0.2,2.3h-2.5v-2l1.5-10h3.6l1.5,10v2h-2.5L384.7,122.5z M383.6,120h0.8l-0.3-3.8h-0.2
				L383.6,120z"/>
			<path class="st6" d="M390.7,120.7v4.2H388v-12h5.2c0.7,0.3,1.3,0.7,1.3,2v3.8c0,1.3-0.6,1.7-1.3,2H390.7z M390.7,115v3.5h1
				l0.2-0.2v-3.2l-0.2-0.2H390.7z"/>
		</g>
	</g>
	<g>
		<circle class="st8" cx="431.1" cy="64.1" r="4.7"/>
		<circle class="st11" cx="431.1" cy="64.1" r="4.7"/>
	</g>
	<g>
		<path class="st12" d="M403.1,113.4h19.5c4.7,0,8.5-3.8,8.5-8.5V64.1"/>
	</g>
</g>
<g id="アイコン">
	<g>
		
			<rect x="105.2" y="10.4" transform="matrix(-7.547988e-02 0.9971 -0.9971 -7.547988e-02 126.5116 -93.6123)" class="st5" width="2.8" height="2.8"/>
		
			<rect x="104.8" y="16.1" transform="matrix(-7.547988e-02 0.9971 -0.9971 -7.547988e-02 131.6884 -87.1058)" class="st5" width="2.8" height="2.8"/>
		
			<rect x="102.2" y="13" transform="matrix(-7.547988e-02 0.9971 -0.9971 -7.547988e-02 125.8467 -87.7707)" class="st5" width="2.8" height="2.8"/>
		
			<rect x="101.8" y="18.7" transform="matrix(-7.547988e-02 0.9971 -0.9971 -7.547988e-02 131.0235 -81.2642)" class="st5" width="2.8" height="2.8"/>
		
			<rect x="96.5" y="12.6" transform="matrix(-7.547988e-02 0.9971 -0.9971 -7.547988e-02 119.3402 -82.5939)" class="st5" width="2.8" height="2.8"/>
		
			<rect x="96.1" y="18.3" transform="matrix(-7.547988e-02 0.9971 -0.9971 -7.547988e-02 124.517 -76.0874)" class="st5" width="2.8" height="2.8"/>
		
			<rect x="104.4" y="21.7" transform="matrix(-7.547988e-02 0.9971 -0.9971 -7.547988e-02 136.8651 -80.5993)" class="st5" width="2.8" height="2.8"/>
		
			<rect x="104.6" y="18.9" transform="matrix(-7.547988e-02 0.9971 -0.9971 -7.547988e-02 134.2767 -83.8526)" class="st6" width="2.8" height="2.8"/>
		
			<rect x="105" y="13.3" transform="matrix(-7.547988e-02 0.9971 -0.9971 -7.547988e-02 129.1 -90.3591)" class="st6" width="2.8" height="2.8"/>
		
			<rect x="102.4" y="10.2" transform="matrix(-7.547988e-02 0.9971 -0.9971 -7.547988e-02 123.2583 -91.0239)" class="st6" width="2.8" height="2.8"/>
		
			<rect x="102" y="15.9" transform="matrix(-7.547988e-02 0.9971 -0.9971 -7.547988e-02 128.4351 -84.5174)" class="st6" width="2.8" height="2.8"/>
		
			<rect x="101.6" y="21.5" transform="matrix(-7.547988e-02 0.9971 -0.9971 -7.547988e-02 133.6119 -78.0109)" class="st6" width="2.8" height="2.8"/>
		
			<rect x="98.9" y="18.5" transform="matrix(-7.547988e-02 0.9971 -0.9971 -7.547988e-02 127.7702 -78.6758)" class="st6" width="2.8" height="2.8"/>
		
			<rect x="99.4" y="12.8" transform="matrix(-7.547988e-02 0.9971 -0.9971 -7.547988e-02 122.5935 -85.1823)" class="st6" width="2.8" height="2.8"/>
		
			<rect x="93.3" y="18" transform="matrix(-7.547988e-02 0.9971 -0.9971 -7.547988e-02 121.2637 -73.499)" class="st6" width="2.8" height="2.8"/>
		
			<rect x="93.7" y="12.4" transform="matrix(-7.547988e-02 0.9971 -0.9971 -7.547988e-02 116.087 -80.0055)" class="st6" width="2.8" height="2.8"/>
		
			<rect x="96.8" y="9.8" transform="matrix(-7.547988e-02 0.9971 -0.9971 -7.547988e-02 116.7518 -85.8472)" class="st6" width="2.8" height="2.8"/>
		
			<rect x="96.3" y="15.4" transform="matrix(-7.547988e-02 0.9971 -0.9971 -7.547988e-02 121.9286 -79.3407)" class="st6" width="2.8" height="2.8"/>
		
			<rect x="95.9" y="21.1" transform="matrix(-7.547988e-02 0.9971 -0.9971 -7.547988e-02 127.1054 -72.8341)" class="st6" width="2.8" height="2.8"/>
		
			<rect x="99.6" y="10" transform="matrix(-7.547988e-02 0.9971 -0.9971 -7.547988e-02 120.0051 -88.4355)" class="st5" width="2.8" height="2.8"/>
		
			<rect x="99.2" y="15.7" transform="matrix(-7.547988e-02 0.9971 -0.9971 -7.547988e-02 125.1819 -81.929)" class="st5" width="2.8" height="2.8"/>
		
			<rect x="93.5" y="15.2" transform="matrix(-7.547988e-02 0.9971 -0.9971 -7.547988e-02 118.6753 -76.7523)" class="st5" width="2.8" height="2.8"/>
		
			<rect x="98.7" y="21.3" transform="matrix(-7.547988e-02 0.9971 -0.9971 -7.547988e-02 130.3586 -75.4225)" class="st5" width="2.8" height="2.8"/>
		
			<rect x="93.9" y="9.6" transform="matrix(-7.547988e-02 0.9971 -0.9971 -7.547988e-02 113.4986 -83.2588)" class="st5" width="2.8" height="2.8"/>
		
			<rect x="93.1" y="20.9" transform="matrix(-7.547988e-02 0.9971 -0.9971 -7.547988e-02 123.8521 -70.2458)" class="st5" width="2.8" height="2.8"/>
	</g>
	<g>
		<g>
			<path class="st6" d="M462.8,426.3c0,1.6-1.3,2.8-2.8,2.8H91.1c-1.6,0-2.8-1.3-2.8-2.8v-24.9c0-1.6,1.3-2.8,2.8-2.8h368.8
				c1.6,0,2.8,1.3,2.8,2.8V426.3z"/>
			<path class="st13" d="M462.8,426.3c0,1.6-1.3,2.8-2.8,2.8H91.1c-1.6,0-2.8-1.3-2.8-2.8v-24.9c0-1.6,1.3-2.8,2.8-2.8h368.8
				c1.6,0,2.8,1.3,2.8,2.8V426.3z"/>
		</g>
		<g>
			<path class="st5" d="M133.8,415.3v2.6c0,1.3-0.6,1.7-1.3,2h-3.3c-0.7-0.3-1.3-0.7-1.3-2v-2h1.8v2.1l0.4,0.4h1.6l0.4-0.4v-2.8
				l-0.3-0.4L129,414c-0.8-0.3-1.1-0.8-1.1-1.9v-2.2c0-1.3,0.6-1.7,1.3-2h3.3c0.7,0.3,1.3,0.7,1.3,2v1.9H132v-2.1l-0.4-0.4h-1.6
				l-0.4,0.4v2.4l0.4,0.4l2.6,0.7C133.4,413.6,133.8,414.1,133.8,415.3z"/>
			<path class="st5" d="M135.1,407.9h5.1v1.6h-3.3v3.4h3.1v1.6h-3.1v3.7h3.4v1.6h-5.2V407.9z"/>
			<path class="st5" d="M147.5,417.9c0,1.3-0.6,1.7-1.3,2h-3.3c-0.7-0.3-1.3-0.7-1.3-2v-8c0-1.3,0.6-1.7,1.3-2h3.3
				c0.7,0.3,1.3,0.7,1.3,2v2.7h-1.8v-2.8l-0.4-0.4h-1.6l-0.4,0.4v8.3l0.4,0.4h1.6l0.4-0.4v-2.7h1.8V417.9z"/>
			<path class="st5" d="M152.2,409.5v10.3h-1.8v-10.3h-2.1v-1.6h6.1v1.6H152.2z"/>
			<path class="st5" d="M161.1,417.9c0,1.3-0.6,1.7-1.3,2h-3.3c-0.7-0.3-1.3-0.7-1.3-2v-8c0-1.3,0.6-1.7,1.3-2h3.3
				c0.7,0.3,1.3,0.7,1.3,2V417.9z M159.3,409.7l-0.4-0.4h-1.6l-0.4,0.4v8.3l0.4,0.4h1.6l0.4-0.4V409.7z"/>
			<path class="st5" d="M162.5,419.8v-12h4.6c0.7,0.3,1.3,0.7,1.3,2v2.6c0,1.3-0.6,1.6-1.3,1.9l-0.3,0.1l2.1,4.3v1.1h-1.6l-2.2-5.1
				h-0.8v5.1H162.5z M164.3,409.4v3.9h2l0.4-0.4v-3.1l-0.4-0.4H164.3z"/>
			<path class="st5" d="M172.6,419.8v-1.6h1.8v-8.7h-1.7v-1.6h3.5v10.4h1.7v1.6H172.6z"/>
		</g>
		<line class="st14" x1="102.5" y1="413.9" x2="123.7" y2="413.9"/>
		<g>
			<path class="st5" d="M223.9,415.3v2.6c0,1.3-0.6,1.7-1.3,2h-3.3c-0.7-0.3-1.3-0.7-1.3-2v-2h1.8v2.1l0.4,0.4h1.6l0.4-0.4v-2.8
				l-0.3-0.4l-2.6-0.8c-0.8-0.3-1.1-0.8-1.1-1.9v-2.2c0-1.3,0.6-1.7,1.3-2h3.3c0.7,0.3,1.3,0.7,1.3,2v1.9h-1.8v-2.1l-0.4-0.4h-1.6
				l-0.4,0.4v2.4l0.4,0.4l2.6,0.7C223.5,413.6,223.9,414.1,223.9,415.3z"/>
			<path class="st5" d="M225.2,407.9h5.1v1.6H227v3.4h3.1v1.6H227v3.7h3.4v1.6h-5.2V407.9z"/>
			<path class="st5" d="M237.6,417.9c0,1.3-0.6,1.7-1.3,2h-3.3c-0.7-0.3-1.3-0.7-1.3-2v-8c0-1.3,0.6-1.7,1.3-2h3.3
				c0.7,0.3,1.3,0.7,1.3,2v2.7h-1.8v-2.8l-0.4-0.4h-1.6l-0.4,0.4v8.3l0.4,0.4h1.6l0.4-0.4v-2.7h1.8V417.9z"/>
			<path class="st5" d="M242.3,409.5v10.3h-1.8v-10.3h-2.1v-1.6h6.1v1.6H242.3z"/>
			<path class="st5" d="M251.2,417.9c0,1.3-0.6,1.7-1.3,2h-3.3c-0.7-0.3-1.3-0.7-1.3-2v-8c0-1.3,0.6-1.7,1.3-2h3.3
				c0.7,0.3,1.3,0.7,1.3,2V417.9z M249.4,409.7l-0.4-0.4h-1.6l-0.4,0.4v8.3l0.4,0.4h1.6l0.4-0.4V409.7z"/>
			<path class="st5" d="M252.6,419.8v-12h4.6c0.7,0.3,1.3,0.7,1.3,2v2.6c0,1.3-0.6,1.6-1.3,1.9l-0.3,0.1l2.1,4.3v1.1h-1.6l-2.2-5.1
				h-0.8v5.1H252.6z M254.4,409.4v3.9h2l0.4-0.4v-3.1l-0.4-0.4H254.4z"/>
			<path class="st5" d="M262.3,419.8v-3.6c0-1.1,0.4-1.7,1.2-2.1l3-1.2v-3.2l-0.4-0.4h-1.7l-0.4,0.4v2h-1.8v-1.9
				c0-1.3,0.6-1.7,1.3-2h3.3c0.7,0.3,1.3,0.7,1.3,2v2.5c0,1.1-0.3,1.7-1.1,2.1l-3,1.2v2.5h4.1v1.6H262.3z"/>
		</g>
		<line class="st15" x1="192.6" y1="413.9" x2="213.8" y2="413.9"/>
		<g>
			<path class="st5" d="M313.7,415.3v2.6c0,1.3-0.6,1.7-1.3,2h-3.3c-0.7-0.3-1.3-0.7-1.3-2v-2h1.8v2.1l0.4,0.4h1.6l0.4-0.4v-2.8
				l-0.3-0.4L309,414c-0.8-0.3-1.1-0.8-1.1-1.9v-2.2c0-1.3,0.6-1.7,1.3-2h3.3c0.7,0.3,1.3,0.7,1.3,2v1.9h-1.8v-2.1l-0.4-0.4H310
				l-0.4,0.4v2.4l0.4,0.4l2.6,0.7C313.4,413.6,313.7,414.1,313.7,415.3z"/>
			<path class="st5" d="M315.1,407.9h5.1v1.6h-3.3v3.4h3.1v1.6h-3.1v3.7h3.4v1.6h-5.2V407.9z"/>
			<path class="st5" d="M327.4,417.9c0,1.3-0.6,1.7-1.3,2h-3.3c-0.7-0.3-1.3-0.7-1.3-2v-8c0-1.3,0.6-1.7,1.3-2h3.3
				c0.7,0.3,1.3,0.7,1.3,2v2.7h-1.8v-2.8l-0.4-0.4h-1.6l-0.4,0.4v8.3l0.4,0.4h1.6l0.4-0.4v-2.7h1.8V417.9z"/>
			<path class="st5" d="M332.1,409.5v10.3h-1.8v-10.3h-2.1v-1.6h6.1v1.6H332.1z"/>
			<path class="st5" d="M341,417.9c0,1.3-0.6,1.7-1.3,2h-3.3c-0.7-0.3-1.3-0.7-1.3-2v-8c0-1.3,0.6-1.7,1.3-2h3.3
				c0.7,0.3,1.3,0.7,1.3,2V417.9z M339.2,409.7l-0.4-0.4h-1.6l-0.4,0.4v8.3l0.4,0.4h1.6l0.4-0.4V409.7z"/>
			<path class="st5" d="M342.4,419.8v-12h4.6c0.7,0.3,1.3,0.7,1.3,2v2.6c0,1.3-0.6,1.6-1.3,1.9l-0.3,0.1l2.1,4.3v1.1h-1.6l-2.2-5.1
				h-0.8v5.1H342.4z M344.2,409.4v3.9h2l0.4-0.4v-3.1l-0.4-0.4H344.2z"/>
			<path class="st5" d="M353.4,419.8c-0.7-0.3-1.3-0.7-1.3-2v-1.7h1.8v1.8l0.4,0.4h1.7l0.4-0.4v-3.2l-0.4-0.3h-1.8V413h1.8l0.4-0.4
				v-3l-0.4-0.4h-1.7l-0.4,0.4v1.8h-1.8v-1.7c0-1.3,0.6-1.7,1.3-2h3.3c0.7,0.3,1.3,0.7,1.3,2v1.9c0,1-0.2,1.5-0.9,1.9
				c0.6,0.4,0.9,0.9,0.9,1.9v2.2c0,1.3-0.6,1.7-1.3,2H353.4z"/>
		</g>
		<line class="st16" x1="282.4" y1="413.9" x2="303.7" y2="413.9"/>
		<g>
			<path class="st5" d="M403.6,417.9c0,1.3-0.6,1.7-1.3,2h-4.6v-12h4.6c0.7,0.3,1.3,0.7,1.3,2V417.9z M399.5,409.4v9h2l0.4-0.4v-8.3
				l-0.4-0.4H399.5z"/>
			<path class="st5" d="M405,419.8v-12h4.6c0.7,0.3,1.3,0.7,1.3,2v2.6c0,1.3-0.6,1.6-1.3,1.9l-0.3,0.1l2.1,4.3v1.1h-1.6l-2.2-5.1
				h-0.8v5.1H405z M406.8,409.4v3.9h2l0.4-0.4v-3.1l-0.4-0.4H406.8z"/>
			<path class="st5" d="M418.1,415.3v2.6c0,1.3-0.6,1.7-1.3,2h-3.3c-0.7-0.3-1.3-0.7-1.3-2v-2h1.8v2.1l0.4,0.4h1.6l0.4-0.4v-2.8
				l-0.3-0.4l-2.6-0.8c-0.8-0.3-1.1-0.8-1.1-1.9v-2.2c0-1.3,0.6-1.7,1.3-2h3.3c0.7,0.3,1.3,0.7,1.3,2v1.9h-1.8v-2.1l-0.4-0.4h-1.6
				l-0.4,0.4v2.4l0.4,0.4l2.6,0.7C417.7,413.6,418.1,414.1,418.1,415.3z"/>
			<path class="st5" d="M425.6,409.5h-3.9v-1.6h5.8v1.5l-4,8.9h4v1.6h-5.9v-1.5L425.6,409.5z"/>
			<path class="st5" d="M434.8,417.9c0,1.3-0.6,1.7-1.3,2h-3.3c-0.7-0.3-1.3-0.7-1.3-2v-8c0-1.3,0.6-1.7,1.3-2h3.3
				c0.7,0.3,1.3,0.7,1.3,2V417.9z M433,409.7l-0.4-0.4H431l-0.4,0.4v8.3l0.4,0.4h1.6l0.4-0.4V409.7z"/>
			<path class="st5" d="M440.5,407.9h1.6v12h-1.6l-2.6-7.1h-0.2v7.1h-1.6v-12h1.6l2.6,7.1h0.2V407.9z"/>
			<path class="st5" d="M443.5,407.9h5.1v1.6h-3.3v3.4h3.1v1.6h-3.1v3.7h3.4v1.6h-5.2V407.9z"/>
		</g>
		<g>
			<g>
				<g>
					<g>
						<line class="st17" x1="373.7" y1="406.5" x2="373.7" y2="421.4"/>
					</g>
					<g>
						<path class="st7" d="M381.3,413.9c0,0.8-0.7,1.4-1.5,1.4c-0.8,0-1.5-0.6-1.5-1.4c0-0.8,0.7-1.4,1.5-1.4
							C380.7,412.5,381.3,413.2,381.3,413.9z"/>
					</g>
					<g>
						<ellipse class="st7" cx="385.9" cy="413.9" rx="1.5" ry="1.4"/>
					</g>
					<g>
						<line class="st17" x1="392" y1="406.5" x2="392" y2="421.4"/>
					</g>
				</g>
			</g>
		</g>
	</g>
	<g>
		<defs>
			
				<rect id="SVGID_1_" x="133.2" y="18.7" transform="matrix(-0.997 -7.802783e-02 7.802783e-02 -0.997 286.4159 57.1343)" width="22.3" height="8.5"/>
		</defs>
		<clipPath id="SVGID_00000163054585656158722030000003407671867763559600_">
			<use xlink:href="#SVGID_1_"  style="overflow:visible;"/>
		</clipPath>
		<g style="clip-path:url(#SVGID_00000163054585656158722030000003407671867763559600_);">
			<polygon class="st19" points="135,15.1 137.8,15.4 142.9,22.9 136.7,29.5 133.9,29.3 140.1,22.6 			"/>
			<polygon class="st20" points="140.6,15.6 143.5,15.8 148.6,23.3 142.4,29.9 139.5,29.7 145.7,23.1 			"/>
			<polygon class="st21" points="146.3,16 149.1,16.2 154.2,23.7 148,30.4 145.2,30.1 151.4,23.5 			"/>
		</g>
	</g>
</g>
</svg>
