<?xml version="1.0" encoding="utf-8"?>
<!-- Generator: Adobe Illustrator 27.0.0, SVG Export Plug-In . SVG Version: 6.00 Build 0)  -->
<svg version="1.1" xmlns="http://www.w3.org/2000/svg" xmlns:xlink="http://www.w3.org/1999/xlink" x="0px" y="0px"
	 viewBox="0 0 550 443.7" style="enable-background:new 0 0 550 443.7;" xml:space="preserve">
<style type="text/css">
	.st0{fill:none;stroke:#646464;stroke-width:14.1732;stroke-miterlimit:10;}
	.st1{fill:none;stroke:#FFD449;stroke-width:2.8346;stroke-miterlimit:10;}
	.st2{fill:none;stroke:#54C6EB;stroke-width:2.8346;stroke-miterlimit:10;}
	.st3{fill:none;stroke:#F4442E;stroke-width:2.8346;stroke-miterlimit:10;}
	.st4{fill:none;stroke:#FFFFFF;stroke-width:2.126;}
	.st5{fill:#646464;}
	.st6{fill:#FFFFFF;}
	.st7{fill:#09BC8A;}
	.st8{fill:none;stroke:#646464;stroke-width:2.8346;stroke-miterlimit:10;}
	.st9{fill:none;stroke:#09BC8A;stroke-width:2.2097;stroke-miterlimit:10;}
	.st10{fill:none;stroke:#09BC8A;stroke-width:1.9843;stroke-miterlimit:10;}
	.st11{fill:#FF3380;}
	.st12{fill:none;stroke:#FF3380;stroke-width:1.9843;stroke-miterlimit:10;}
	.st13{fill:none;stroke:#646464;stroke-width:0.7087;stroke-miterlimit:10;}
	.st14{fill:none;stroke:#F4442E;stroke-width:5.6693;stroke-miterlimit:10;}
	.st15{fill:none;stroke:#54C6EB;stroke-width:5.6693;stroke-miterlimit:10;}
	.st16{fill:none;stroke:#FFD449;stroke-width:5.6693;stroke-miterlimit:10;}
	.st17{fill:none;stroke:#09BC8A;stroke-width:2.8346;stroke-miterlimit:10;}
	.st18{clip-path:url(#SVGID_00000167395908987059232970000000229543804225665710_);}
	.st19{fill:#F4442E;}
	.st20{fill:#54C6EB;}
	.st21{fill:#FFD449;}
</style>
<g id="コース">
	<path class="st0" d="M164.6,89c-20.8,5.9-78.7,22.2-95.3,26.9s-31,13-29.6,23.7c1.5,10.8,12.7,16.9,16.1,19.3
		c3.4,2.4,7.3,4.6,7.3,12.2c0,13.4-14.2,12.8-14.2,50.7c0,33.7,32.3,52.2,51.3,56.6c31.8,7.3,234.6,56.9,244.6,59.1
		c10,2.2,22.7-0.5,25.4-14.9c2.7-14.4,3.9-21,4.9-31.5c1-10.5,3.9-33.5-19.8-50.8s-105.6-73.6-112.7-78.7
		c-7.1-5.1-14.2-13-14.2-29.8s11-35.4,21.8-38.4s34-7.8,41.8-8.8s18.3-2.7,23.5,5.6c5.1,8.3-4.9,18.3-7.3,21.8s-10,13.7,0,25.7
		s24.4,4.2,30.3-2.2s12.2-13.4,17.6-18.8s12.2-11.2,21.5-13.7c9.3-2.4,21-4.9,25.9-5.9c4.9-1,8.8,2,11,5.9s-1,11-6.1,15.2
		c-5.1,4.2-22.2,20-27.1,24.7c-4.9,4.6-10.8,10.5-10.8,33s22.7,34.2,26.9,36.7s52.5,31,55.5,32.5c2.9,1.5,9.3,1,11.2-0.7
		c2-1.7,4.6-4.4,6.4-8.1c1.7-3.7,10-29.8,11.2-34.2s1.2-12.7,0.5-17.8c-0.7-5.1-11-43.5-18.1-56.7s-18.1-30.8-24.7-34.7
		S420,82,413.4,80.7s-96.5-19.8-105.1-21c-8.6-1.2-28.8-1.7-46.7,2.4S164.6,89,164.6,89z"/>
</g>
<g id="セクター">
	<path class="st1" d="M418.1,224.6c15.1,8.9,33.1,19.5,34.9,20.3c2.9,1.5,9.3,1,11.2-0.7c2-1.7,4.6-4.4,6.4-8.1
		c1.7-3.7,10-29.8,11.2-34.2s1.2-12.7,0.5-17.8c-0.7-5.1-11-43.5-18.1-56.7s-18.1-30.8-24.7-34.7S420,82,413.4,80.7
		s-96.5-19.8-105.1-21c-8.6-1.2-28.8-1.7-46.7,2.4s-97,26.9-97,26.9"/>
	<path class="st2" d="M299.5,326.6c24.9,6,42.7,10.4,45.5,11c10,2.2,22.7-0.5,25.4-14.9c2.7-14.4,3.9-21,4.9-31.5
		c1-10.5,3.9-33.5-19.8-50.8s-105.6-73.6-112.7-78.7c-7.1-5.1-14.2-13-14.2-29.8s11-35.4,21.8-38.4s34-7.8,41.8-8.8
		s18.3-2.7,23.5,5.6c5.1,8.3-4.9,18.3-7.3,21.8s-10,13.7,0,25.7s24.4,4.2,30.3-2.2s12.2-13.4,17.6-18.8s12.2-11.2,21.5-13.7
		c9.3-2.4,21-4.9,25.9-5.9c4.9-1,8.8,2,11,5.9s-1,11-6.1,15.2c-5.1,4.2-22.2,20-27.1,24.7c-4.9,4.6-10.8,10.5-10.8,33
		s22.7,34.2,26.9,36.7c1.7,1,10.5,6.2,20.6,12.2"/>
	<path class="st3" d="M164.6,89c-20.8,5.9-78.7,22.2-95.3,26.9s-31,13-29.6,23.7c1.5,10.8,12.7,16.9,16.1,19.3
		c3.4,2.4,7.3,4.6,7.3,12.2c0,13.4-14.2,12.8-14.2,50.7c0,33.7,32.3,52.2,51.3,56.6c22.9,5.3,134.7,32.6,199.1,48.2"/>
</g>
<g id="コーナー番号">
	<g>
		<g>
			<circle class="st4" cx="19.6" cy="141.5" r="8.5"/>
			<circle class="st5" cx="19.6" cy="141.5" r="8.5"/>
		</g>
		<g>
			<path class="st6" d="M17.9,145.4v-1.6h1v-4.5H18v-1.6h2.6v6.1h0.9v1.6H17.9z"/>
		</g>
	</g>
	<g>
		<g>
			<circle class="st4" cx="81.9" cy="164.2" r="8.5"/>
			<circle class="st5" cx="81.9" cy="164.2" r="8.5"/>
		</g>
		<g>
			<path class="st6" d="M79.8,168.1v-2.6c0-0.6,0.1-1,0.6-1.2l1.9-0.8V162l-0.1-0.1h-0.5l-0.1,0.1v1.1h-1.7v-1.3
				c0-0.8,0.4-1.1,0.8-1.3h2.5c0.5,0.2,0.8,0.5,0.8,1.3v1.9c0,0.6-0.1,0.9-0.6,1.2l-1.9,0.8v0.9H84v1.6H79.8z"/>
		</g>
	</g>
	<g>
		<g>
			<circle class="st4" cx="40" cy="260.2" r="8.5"/>
			<circle class="st5" cx="40" cy="260.2" r="8.5"/>
		</g>
		<g>
			<path class="st6" d="M38.8,264.1c-0.5-0.2-0.8-0.5-0.8-1.3v-1h1.7v0.8l0.1,0.1h0.5l0.1-0.1V261l-0.1-0.1h-1v-1.3h1l0.1-0.1v-1.5
				l-0.1-0.1h-0.5l-0.1,0.1v0.8h-1.7v-1c0-0.8,0.4-1.1,0.8-1.3h2.5c0.5,0.2,0.8,0.5,0.8,1.3v1.3c0,0.6-0.2,0.9-0.6,1.2
				c0.4,0.3,0.6,0.6,0.6,1.2v1.4c0,0.8-0.4,1.1-0.8,1.3H38.8z"/>
		</g>
	</g>
	<g>
		<g>
			<circle class="st4" cx="369.7" cy="354.1" r="8.5"/>
			<circle class="st5" cx="369.7" cy="354.1" r="8.5"/>
		</g>
		<g>
			<path class="st6" d="M371.3,356.5v1.5h-1.7v-1.5h-2.2V355l1.6-4.7h1.7l-1.6,4.6h0.5v-0.4l0.4-1h1.3v1.4h0.5v1.6H371.3z"/>
		</g>
	</g>
	<g>
		<g>
			<circle class="st4" cx="390.2" cy="256.6" r="8.5"/>
			<circle class="st5" cx="390.2" cy="256.6" r="8.5"/>
		</g>
		<g>
			<path class="st6" d="M388.9,260.5c-0.5-0.2-0.8-0.5-0.8-1.3v-1h1.6v0.8l0.1,0.1h0.6l0.1-0.1v-2.1l-0.1-0.1h-0.6l-0.1,0.1v0.4
				h-1.6v-4.5h4v1.5h-2.4v1.6l0.4-0.4h1.3c0.5,0.2,0.8,0.5,0.8,1.3v2.4c0,0.8-0.4,1.1-0.8,1.3H388.9z"/>
		</g>
	</g>
	<g>
		<g>
			<circle class="st4" cx="209.5" cy="150.8" r="8.5"/>
			<circle class="st5" cx="209.5" cy="150.8" r="8.5"/>
		</g>
		<g>
			<path class="st6" d="M210.7,154.7h-2.5c-0.5-0.2-0.8-0.5-0.8-1.3v-5.1c0-0.8,0.4-1.1,0.8-1.3h2.5c0.5,0.2,0.8,0.5,0.8,1.3v1h-1.7
				v-0.8l-0.1-0.1h-0.5l-0.1,0.1v1.8l0.3-0.3h1.3c0.5,0.2,0.8,0.5,0.8,1.3v2.2C211.6,154.2,211.2,154.5,210.7,154.7z M209.7,153.3
				l0.1-0.1v-1.8l-0.1-0.1h-0.5l-0.1,0.1v1.8l0.1,0.1H209.7z"/>
		</g>
	</g>
	<g>
		<g>
			<circle class="st4" cx="258.7" cy="112" r="8.5"/>
			<circle class="st5" cx="258.7" cy="112" r="8.5"/>
		</g>
		<g>
			<path class="st6" d="M256.9,115.9l2.1-6.2h-2.4v-1.5h4.1v1.2l-2.1,6.5H256.9z"/>
		</g>
	</g>
	<g>
		<g>
			<circle class="st4" cx="334.8" cy="90" r="8.5"/>
			<circle class="st5" cx="334.8" cy="90" r="8.5"/>
		</g>
		<g>
			<path class="st6" d="M333.5,93.9c-0.5-0.2-0.8-0.5-0.8-1.3v-1.4c0-0.6,0.2-0.9,0.6-1.2c-0.4-0.3-0.6-0.6-0.6-1.2v-1.3
				c0-0.8,0.4-1.1,0.8-1.3h2.5c0.5,0.2,0.8,0.5,0.8,1.3v1.3c0,0.6-0.2,0.9-0.6,1.2c0.4,0.3,0.6,0.6,0.6,1.2v1.4
				c0,0.8-0.4,1.1-0.8,1.3H333.5z M334.4,89.3l0.1,0.1h0.5l0.1-0.1v-1.5l-0.1-0.1h-0.5l-0.1,0.1V89.3z M335.2,92.4v-1.6l-0.1-0.1
				h-0.5l-0.1,0.1v1.6l0.1,0.1h0.5L335.2,92.4z"/>
		</g>
	</g>
	<g>
		<g>
			<circle class="st4" cx="299.5" cy="154.8" r="8.5"/>
			<circle class="st5" cx="299.5" cy="154.8" r="8.5"/>
		</g>
		<g>
			<path class="st6" d="M298.2,158.7c-0.5-0.2-0.8-0.5-0.8-1.3v-1h1.7v0.8l0.1,0.1h0.5l0.1-0.1v-1.8l-0.3,0.3h-1.3
				c-0.5-0.2-0.8-0.5-0.8-1.3v-2.2c0-0.8,0.4-1.1,0.8-1.3h2.5c0.5,0.2,0.8,0.5,0.8,1.3v5.1c0,0.8-0.4,1.1-0.8,1.3H298.2z
				 M299.9,154.4v-1.8l-0.1-0.1h-0.5l-0.1,0.1v1.8l0.1,0.1h0.5L299.9,154.4z"/>
		</g>
	</g>
	<g>
		<g>
			<circle class="st4" cx="466.9" cy="264.8" r="8.5"/>
			<circle class="st5" cx="466.9" cy="264.8" r="8.5"/>
		</g>
		<g>
			<path class="st6" d="M462.9,268.7v-1.6h1v-4.5H463V261h2.6v6.1h0.9v1.6H462.9z"/>
			<path class="st6" d="M467.2,268.7v-2.6c0-0.6,0.1-1,0.6-1.2l1.9-0.8v-1.6l-0.1-0.1H469l-0.1,0.1v1.1h-1.7v-1.3
				c0-0.8,0.4-1.1,0.8-1.3h2.5c0.5,0.2,0.8,0.5,0.8,1.3v1.9c0,0.6-0.1,0.9-0.6,1.2l-1.9,0.8v0.9h2.4v1.6H467.2z"/>
		</g>
	</g>
	<g>
		<g>
			<circle class="st4" cx="503.8" cy="193.8" r="8.5"/>
			<circle class="st5" cx="503.8" cy="193.8" r="8.5"/>
		</g>
		<g>
			<path class="st6" d="M499.8,197.7v-1.6h1v-4.5h-0.9V190h2.6v6.1h0.9v1.6H499.8z"/>
			<path class="st6" d="M504.9,197.7c-0.5-0.2-0.8-0.5-0.8-1.3v-1h1.7v0.8l0.1,0.1h0.5l0.1-0.1v-1.6l-0.1-0.1h-1v-1.3h1l0.1-0.1
				v-1.5l-0.1-0.1h-0.5l-0.1,0.1v0.8h-1.7v-1c0-0.8,0.4-1.1,0.8-1.3h2.5c0.5,0.2,0.8,0.5,0.8,1.3v1.3c0,0.6-0.2,0.9-0.6,1.2
				c0.4,0.3,0.6,0.6,0.6,1.2v1.4c0,0.8-0.4,1.1-0.8,1.3H504.9z"/>
		</g>
	</g>
	<g>
		<g>
			<circle class="st4" cx="452.7" cy="78.2" r="8.5"/>
			<circle class="st5" cx="452.7" cy="78.2" r="8.5"/>
		</g>
		<g>
			<path class="st6" d="M448.7,82.1v-1.6h1V76h-0.9v-1.6h2.6v6.1h0.9v1.6H448.7z"/>
			<path class="st6" d="M456.7,80.6v1.5H455v-1.5h-2.2v-1.5l1.6-4.7h1.7l-1.6,4.6h0.5v-0.4l0.4-1h1.3V79h0.5v1.6H456.7z"/>
		</g>
	</g>
	<g>
		<g>
			<circle class="st4" cx="288.4" cy="39.2" r="8.5"/>
			<circle class="st5" cx="288.4" cy="39.2" r="8.5"/>
		</g>
		<g>
			<path class="st6" d="M284.4,43.1v-1.6h1V37h-0.9v-1.6h2.6v6.1h0.9v1.6H284.4z"/>
			<path class="st6" d="M289.5,43.1c-0.5-0.2-0.8-0.5-0.8-1.3v-1h1.6v0.8l0.1,0.1h0.6l0.1-0.1v-2.1l-0.1-0.1h-0.6l-0.1,0.1V40h-1.6
				v-4.5h4v1.5h-2.4v1.6l0.4-0.4h1.3c0.5,0.2,0.8,0.5,0.8,1.3v2.4c0,0.8-0.4,1.1-0.8,1.3H289.5z"/>
		</g>
	</g>
	<g>
		<g>
			<circle class="st4" cx="394.1" cy="112.2" r="8.5"/>
			<circle class="st5" cx="394.1" cy="112.2" r="8.5"/>
		</g>
		<g>
			<path class="st6" d="M390.1,116.1v-1.6h1v-4.5h-0.9v-1.6h2.6v6.1h0.9v1.6H390.1z"/>
			<path class="st6" d="M397.7,116.1h-2.5c-0.5-0.2-0.8-0.5-0.8-1.3v-5.1c0-0.8,0.4-1.1,0.8-1.3h2.5c0.5,0.2,0.8,0.5,0.8,1.3v5.1
				C398.5,115.7,398.2,116,397.7,116.1z M396.8,110l-0.1-0.1h-0.5l-0.1,0.1v4.7l0.1,0.1h0.5l0.1-0.1V110z"/>
		</g>
	</g>
	<g>
		<g>
			<circle class="st4" cx="352.6" cy="188.5" r="8.5"/>
			<circle class="st5" cx="352.6" cy="188.5" r="8.5"/>
		</g>
		<g>
			<path class="st6" d="M348.5,192.4v-1.6h1v-4.5h-0.9v-1.6h2.6v6.1h0.9v1.6H348.5z"/>
			<path class="st6" d="M353.2,192.4v-1.6h1v-4.5h-0.9v-1.6h2.6v6.1h0.9v1.6H353.2z"/>
		</g>
	</g>
</g>
<g id="DRS">
	<g>
		<g>
			<path class="st7" d="M167.5,233.5c0,0.8-0.6,1.4-1.4,1.4H98.5c-0.8,0-1.4-0.6-1.4-1.4v-48.8c0-0.8,0.6-1.4,1.4-1.4h67.6
				c0.8,0,1.4,0.6,1.4,1.4V233.5z"/>
		</g>
		<g>
			<path class="st6" d="M128.3,198.9c0,1.3-0.6,1.7-1.3,2h-5.2v-12h5.2c0.7,0.3,1.3,0.7,1.3,2V198.9z M124.5,191.1v7.7h1l0.2-0.2
				v-7.3l-0.2-0.2H124.5z"/>
			<path class="st6" d="M129.2,200.9v-12h5.2c0.7,0.3,1.3,0.7,1.3,2v2.5c0,1.1-0.5,1.6-1.1,1.9l1.4,3.8v1.7h-2.3l-1.5-4.7h-0.3v4.7
				H129.2z M131.8,191.1v3h1l0.2-0.2v-2.7l-0.2-0.2H131.8z"/>
			<path class="st6" d="M142.9,196.2v2.7c0,1.3-0.6,1.7-1.3,2h-3.9c-0.7-0.3-1.3-0.7-1.3-2v-2.4h2.7v2l0.2,0.2h0.8l0.2-0.2v-1.8
				l-0.1-0.2l-2.7-1.2c-0.8-0.4-0.9-0.9-0.9-1.8V191c0-1.3,0.6-1.7,1.3-2h3.9c0.7,0.3,1.3,0.7,1.3,2v2.2h-2.7v-1.9l-0.2-0.2h-0.8
				l-0.2,0.2v1.7l0.2,0.3l2.7,1.1C142.7,194.7,142.9,195.3,142.9,196.2z"/>
			<path class="st6" d="M109.3,213.1c0,1.3-0.6,1.7-1.3,2h-5.2v-12h5.2c0.7,0.3,1.3,0.7,1.3,2V213.1z M105.4,205.3v7.7h1l0.2-0.2
				v-7.3l-0.2-0.2H105.4z"/>
			<path class="st6" d="M110.1,203.1h5.5v2.5h-2.8v2.2h2.7v2.5h-2.7v2.3h2.9v2.5h-5.6V203.1z"/>
			<path class="st6" d="M120.8,205.6v9.5h-2.7v-9.5h-1.9v-2.5h6.5v2.5H120.8z"/>
			<path class="st6" d="M123.2,203.1h5.5v2.5h-2.8v2.2h2.7v2.5h-2.7v2.3h2.9v2.5h-5.6V203.1z"/>
			<path class="st6" d="M136.1,213.1c0,1.3-0.6,1.7-1.3,2h-3.9c-0.7-0.3-1.3-0.7-1.3-2v-8c0-1.3,0.6-1.7,1.3-2h3.9
				c0.7,0.3,1.3,0.7,1.3,2v2.9h-2.7v-2.6l-0.2-0.2h-0.8l-0.2,0.2v7.3l0.2,0.2h0.8l0.2-0.2v-2.5h2.7V213.1z"/>
			<path class="st6" d="M141.1,205.6v9.5h-2.7v-9.5h-1.9v-2.5h6.5v2.5H141.1z"/>
			<path class="st6" d="M143.5,215.1v-2.5h0.5v-7h-0.5v-2.5h3.7v2.5h-0.5v7h0.5v2.5H143.5z"/>
			<path class="st6" d="M154.5,213.1c0,1.3-0.6,1.7-1.3,2h-3.9c-0.7-0.3-1.3-0.7-1.3-2v-8c0-1.3,0.6-1.7,1.3-2h3.9
				c0.7,0.3,1.3,0.7,1.3,2V213.1z M151.9,205.5l-0.2-0.2h-0.8l-0.2,0.2v7.3l0.2,0.2h0.8l0.2-0.2V205.5z"/>
			<path class="st6" d="M159.5,203.1h2.3v12h-2.3l-1.7-5.2h-0.2v5.2h-2.3v-12h2.3l1.7,5.2h0.2V203.1z"/>
			<path class="st6" d="M117.1,219.8h-3.5v-2.5h6.5v2.2l-3.5,7.3h3.5v2.5h-6.5v-2.2L117.1,219.8z"/>
			<path class="st6" d="M127.4,227.3c0,1.3-0.6,1.7-1.3,2h-3.9c-0.7-0.3-1.3-0.7-1.3-2v-8c0-1.3,0.6-1.7,1.3-2h3.9
				c0.7,0.3,1.3,0.7,1.3,2V227.3z M124.8,219.6l-0.2-0.2h-0.8l-0.2,0.2v7.3l0.2,0.2h0.8l0.2-0.2V219.6z"/>
			<path class="st6" d="M132.4,217.3h2.3v12h-2.3l-1.7-5.2h-0.2v5.2h-2.3v-12h2.3l1.7,5.2h0.2V217.3z"/>
			<path class="st6" d="M135.6,217.3h5.5v2.5h-2.8v2.2h2.7v2.5h-2.7v2.3h2.9v2.5h-5.6V217.3z"/>
			<path class="st6" d="M145.1,229.3v-2.5h1.5v-7h-1.3v-2.5h4v9.5h1.3v2.5H145.1z"/>
		</g>
	</g>
	<g>
		<g>
			<path class="st7" d="M541.7,83.3c0,0.8-0.6,1.4-1.4,1.4h-67.6c-0.8,0-1.4-0.6-1.4-1.4V34.4c0-0.8,0.6-1.4,1.4-1.4h32.4
				c0.8,0,2.1,0,2.8,0h32.4c0.8,0,1.4,0.6,1.4,1.4V83.3z"/>
		</g>
		<g>
			<path class="st6" d="M502.6,48.7c0,1.3-0.6,1.7-1.3,2h-5.2v-12h5.2c0.7,0.3,1.3,0.7,1.3,2V48.7z M498.7,40.9v7.7h1l0.2-0.2V41
				l-0.2-0.2H498.7z"/>
			<path class="st6" d="M503.4,50.7v-12h5.2c0.7,0.3,1.3,0.7,1.3,2v2.5c0,1.1-0.5,1.6-1.1,1.9l1.4,3.8v1.7h-2.3l-1.5-4.7h-0.3v4.7
				H503.4z M506.1,40.9v3h1l0.2-0.2V41l-0.2-0.2H506.1z"/>
			<path class="st6" d="M517.1,45.9v2.7c0,1.3-0.6,1.7-1.3,2h-3.9c-0.7-0.3-1.3-0.7-1.3-2v-2.4h2.7v2l0.2,0.2h0.8l0.2-0.2v-1.8
				l-0.1-0.2l-2.7-1.2c-0.8-0.4-0.9-0.9-0.9-1.8v-2.5c0-1.3,0.6-1.7,1.3-2h3.9c0.7,0.3,1.3,0.7,1.3,2v2.2h-2.7V41l-0.2-0.2h-0.8
				l-0.2,0.2v1.7l0.2,0.3l2.7,1.1C517,44.4,517.1,45,517.1,45.9z"/>
			<path class="st6" d="M483.5,62.8c0,1.3-0.6,1.7-1.3,2H477v-12h5.2c0.7,0.3,1.3,0.7,1.3,2V62.8z M479.7,55v7.7h1l0.2-0.2v-7.3
				l-0.2-0.2H479.7z"/>
			<path class="st6" d="M484.3,52.9h5.5v2.5H487v2.2h2.7V60H487v2.3h2.9v2.5h-5.6V52.9z"/>
			<path class="st6" d="M495,55.4v9.5h-2.7v-9.5h-1.9v-2.5h6.5v2.5H495z"/>
			<path class="st6" d="M497.4,52.9h5.5v2.5h-2.8v2.2h2.7V60h-2.7v2.3h2.9v2.5h-5.6V52.9z"/>
			<path class="st6" d="M510.3,62.8c0,1.3-0.6,1.7-1.3,2h-3.9c-0.7-0.3-1.3-0.7-1.3-2v-8c0-1.3,0.6-1.7,1.3-2h3.9
				c0.7,0.3,1.3,0.7,1.3,2v2.9h-2.7v-2.6l-0.2-0.2h-0.8l-0.2,0.2v7.3l0.2,0.2h0.8l0.2-0.2V60h2.7V62.8z"/>
			<path class="st6" d="M515.4,55.4v9.5h-2.7v-9.5h-1.9v-2.5h6.5v2.5H515.4z"/>
			<path class="st6" d="M517.8,64.8v-2.5h0.5v-7h-0.5v-2.5h3.7v2.5h-0.5v7h0.5v2.5H517.8z"/>
			<path class="st6" d="M528.7,62.8c0,1.3-0.6,1.7-1.3,2h-3.9c-0.7-0.3-1.3-0.7-1.3-2v-8c0-1.3,0.6-1.7,1.3-2h3.9
				c0.7,0.3,1.3,0.7,1.3,2V62.8z M526.1,55.2l-0.2-0.2h-0.8l-0.2,0.2v7.3l0.2,0.2h0.8l0.2-0.2V55.2z"/>
			<path class="st6" d="M533.7,52.9h2.3v12h-2.3l-1.7-5.2h-0.2v5.2h-2.3v-12h2.3l1.7,5.2h0.2V52.9z"/>
			<path class="st6" d="M491.4,69.5h-3.5V67h6.5v2.2l-3.5,7.3h3.5V79h-6.5v-2.2L491.4,69.5z"/>
			<path class="st6" d="M501.7,77c0,1.3-0.6,1.7-1.3,2h-3.9c-0.7-0.3-1.3-0.7-1.3-2v-8c0-1.3,0.6-1.7,1.3-2h3.9
				c0.7,0.3,1.3,0.7,1.3,2V77z M499,69.4l-0.2-0.2H498l-0.2,0.2v7.3l0.2,0.2h0.8l0.2-0.2V69.4z"/>
			<path class="st6" d="M506.7,67h2.3v12h-2.3l-1.7-5.2h-0.2V79h-2.3V67h2.3l1.7,5.2h0.2V67z"/>
			<path class="st6" d="M509.8,67h5.5v2.5h-2.8v2.2h2.7v2.5h-2.7v2.3h2.9V79h-5.6V67z"/>
			<path class="st6" d="M518.7,79v-4c0-0.9,0.2-1.5,0.9-1.8l2.9-1.3v-2.5l-0.2-0.2h-0.8l-0.2,0.2v1.7h-2.7V69c0-1.3,0.6-1.7,1.3-2
				h3.9c0.7,0.3,1.3,0.7,1.3,2v3c0,0.9-0.1,1.5-0.9,1.8l-2.9,1.3v1.3h3.8V79H518.7z"/>
		</g>
	</g>
	<g>
		<circle class="st8" cx="477.8" cy="166.2" r="4.7"/>
		<circle class="st7" cx="477.8" cy="166.2" r="4.7"/>
	</g>
	<g>
		<circle class="st8" cx="51.2" cy="155.7" r="4.7"/>
		<circle class="st7" cx="51.2" cy="155.7" r="4.7"/>
	</g>
	<g>
		<path class="st7" d="M422,265.7"/>
	</g>
	<g>
		<g>
			<g>
				<g>
					<line class="st9" x1="94.1" y1="287.2" x2="91.4" y2="298.5"/>
				</g>
				<g>
					<path class="st7" d="M98.1,294.2c-0.1,0.6-0.7,1-1.3,0.8c-0.6-0.1-1-0.7-0.8-1.3s0.7-1,1.3-0.8C97.9,293,98.3,293.6,98.1,294.2
						z"/>
				</g>
				<g>
					<path class="st7" d="M102.5,295.2c-0.1,0.6-0.7,1-1.3,0.8c-0.6-0.1-1-0.7-0.8-1.3s0.7-1,1.3-0.8
						C102.2,294,102.6,294.6,102.5,295.2z"/>
				</g>
				<g>
					<path class="st7" d="M106.8,296.3c-0.1,0.6-0.7,1-1.3,0.8c-0.6-0.1-1-0.7-0.8-1.3c0.1-0.6,0.7-1,1.3-0.8
						C106.6,295.1,106.9,295.7,106.8,296.3z"/>
				</g>
				<g>
					<path class="st7" d="M111.1,297.3c-0.1,0.6-0.7,1-1.3,0.8c-0.6-0.1-1-0.7-0.8-1.3s0.7-1,1.3-0.8S111.3,296.7,111.1,297.3z"/>
				</g>
				<g>
					<path class="st7" d="M115.4,298.3c-0.1,0.6-0.7,1-1.3,0.8c-0.6-0.1-1-0.7-0.8-1.3c0.1-0.6,0.7-1,1.3-0.8
						C115.2,297.1,115.6,297.7,115.4,298.3z"/>
				</g>
				<g>
					<path class="st7" d="M119.8,299.4c-0.1,0.6-0.7,1-1.3,0.8s-1-0.7-0.8-1.3s0.7-1,1.3-0.8C119.5,298.2,119.9,298.8,119.8,299.4z"
						/>
				</g>
				<g>
					<path class="st7" d="M124.1,300.4c-0.1,0.6-0.7,1-1.3,0.8s-1-0.7-0.8-1.3s0.7-1,1.3-0.8C123.9,299.2,124.2,299.8,124.1,300.4z"
						/>
				</g>
				<g>
					<path class="st7" d="M128.4,301.5c-0.1,0.6-0.7,1-1.3,0.8c-0.6-0.1-1-0.7-0.8-1.3s0.7-1,1.3-0.8
						C128.2,300.3,128.6,300.9,128.4,301.5z"/>
				</g>
				<g>
					<path class="st7" d="M132.7,302.5c-0.1,0.6-0.7,1-1.3,0.8c-0.6-0.1-1-0.7-0.8-1.3c0.1-0.6,0.7-1,1.3-0.8
						S132.9,301.9,132.7,302.5z"/>
				</g>
				<g>
					<path class="st7" d="M137.1,303.5c-0.1,0.6-0.7,1-1.3,0.8c-0.6-0.1-1-0.7-0.8-1.3c0.1-0.6,0.7-1,1.3-0.8
						C136.9,302.4,137.2,302.9,137.1,303.5z"/>
				</g>
				<g>
					<path class="st7" d="M141.4,304.6c-0.1,0.6-0.7,1-1.3,0.8s-1-0.7-0.8-1.3c0.1-0.6,0.7-1,1.3-0.8
						C141.2,303.4,141.5,304,141.4,304.6z"/>
				</g>
				<g>
					<path class="st7" d="M145.7,305.6c-0.1,0.6-0.7,1-1.3,0.8c-0.6-0.1-1-0.7-0.8-1.3c0.1-0.6,0.7-1,1.3-0.8
						C145.5,304.4,145.9,305,145.7,305.6z"/>
				</g>
				<g>
					<path class="st7" d="M150.1,306.7c-0.1,0.6-0.7,1-1.3,0.8c-0.6-0.1-1-0.7-0.8-1.3c0.1-0.6,0.7-1,1.3-0.8
						S150.2,306.1,150.1,306.7z"/>
				</g>
				<g>
					<path class="st7" d="M154.4,307.7c-0.1,0.6-0.7,1-1.3,0.8c-0.6-0.1-1-0.7-0.8-1.3c0.1-0.6,0.7-1,1.3-0.8
						S154.5,307.1,154.4,307.7z"/>
				</g>
				<g>
					<path class="st7" d="M158.7,308.7c-0.1,0.6-0.7,1-1.3,0.8s-1-0.7-0.8-1.3c0.1-0.6,0.7-1,1.3-0.8
						C158.5,307.6,158.9,308.2,158.7,308.7z"/>
				</g>
				<g>
					<path class="st7" d="M163,309.8c-0.1,0.6-0.7,1-1.3,0.8s-1-0.7-0.8-1.3c0.1-0.6,0.7-1,1.3-0.8S163.2,309.2,163,309.8z"/>
				</g>
				<g>
					<path class="st7" d="M167.4,310.8c-0.1,0.6-0.7,1-1.3,0.8c-0.6-0.1-1-0.7-0.8-1.3c0.1-0.6,0.7-1,1.3-0.8
						C167.1,309.6,167.5,310.2,167.4,310.8z"/>
				</g>
				<g>
					<path class="st7" d="M171.7,311.9c-0.1,0.6-0.7,1-1.3,0.8s-1-0.7-0.8-1.3c0.1-0.6,0.7-1,1.3-0.8
						C171.5,310.7,171.8,311.3,171.7,311.9z"/>
				</g>
				<g>
					<path class="st7" d="M176,312.9c-0.1,0.6-0.7,1-1.3,0.8c-0.6-0.1-1-0.7-0.8-1.3c0.1-0.6,0.7-1,1.3-0.8
						C175.8,311.7,176.2,312.3,176,312.9z"/>
				</g>
				<g>
					<path class="st7" d="M180.4,314c-0.1,0.6-0.7,1-1.3,0.8c-0.6-0.1-1-0.7-0.8-1.3c0.1-0.6,0.7-1,1.3-0.8S180.5,313.4,180.4,314z"
						/>
				</g>
				<g>
					<path class="st7" d="M184.7,315c-0.1,0.6-0.7,1-1.3,0.8s-1-0.7-0.8-1.3c0.1-0.6,0.7-1,1.3-0.8
						C184.5,313.8,184.8,314.4,184.7,315z"/>
				</g>
				<g>
					<path class="st7" d="M189,316c-0.1,0.6-0.7,1-1.3,0.8s-1-0.7-0.8-1.3c0.1-0.6,0.7-1,1.3-0.8C188.8,314.8,189.2,315.4,189,316z"
						/>
				</g>
				<g>
					<path class="st7" d="M193.3,317.1c-0.1,0.6-0.7,1-1.3,0.8c-0.6-0.1-1-0.7-0.8-1.3c0.1-0.6,0.7-1,1.3-0.8
						C193.1,315.9,193.5,316.5,193.3,317.1z"/>
				</g>
				<g>
					<path class="st7" d="M197.7,318.1c-0.1,0.6-0.7,1-1.3,0.8s-1-0.7-0.8-1.3c0.1-0.6,0.7-1,1.3-0.8S197.8,317.5,197.7,318.1z"/>
				</g>
				<g>
					<path class="st7" d="M202,319.2c-0.1,0.6-0.7,1-1.3,0.8c-0.6-0.1-1-0.7-0.8-1.3c0.1-0.6,0.7-1,1.3-0.8S202.1,318.6,202,319.2z"
						/>
				</g>
				<g>
					<path class="st7" d="M206.3,320.2c-0.1,0.6-0.7,1-1.3,0.8c-0.6-0.1-1-0.7-0.8-1.3c0.1-0.6,0.7-1,1.3-0.8
						S206.5,319.6,206.3,320.2z"/>
				</g>
				<g>
					<path class="st7" d="M210.7,321.2c-0.1,0.6-0.7,1-1.3,0.8s-1-0.7-0.8-1.3c0.1-0.6,0.7-1,1.3-0.8S210.8,320.6,210.7,321.2z"/>
				</g>
				<g>
					<path class="st7" d="M215,322.3c-0.1,0.6-0.7,1-1.3,0.8s-1-0.7-0.8-1.3c0.1-0.6,0.7-1,1.3-0.8
						C214.8,321.1,215.1,321.7,215,322.3z"/>
				</g>
				<g>
					<path class="st7" d="M219.3,323.3c-0.1,0.6-0.7,1-1.3,0.8s-1-0.7-0.8-1.3c0.1-0.6,0.7-1,1.3-0.8
						C219.1,322.1,219.5,322.7,219.3,323.3z"/>
				</g>
				<g>
					<path class="st7" d="M223.6,324.4c-0.1,0.6-0.7,1-1.3,0.8c-0.6-0.1-1-0.7-0.8-1.3c0.1-0.6,0.7-1,1.3-0.8
						C223.4,323.2,223.8,323.8,223.6,324.4z"/>
				</g>
				<g>
					<path class="st7" d="M228,325.4c-0.1,0.6-0.7,1-1.3,0.8c-0.6-0.1-1-0.7-0.8-1.3c0.1-0.6,0.7-1,1.3-0.8S228.1,324.8,228,325.4z"
						/>
				</g>
				<g>
					<path class="st7" d="M232.3,326.4c-0.1,0.6-0.7,1-1.3,0.8c-0.6-0.1-1-0.7-0.8-1.3c0.1-0.6,0.7-1,1.3-0.8
						C232.1,325.3,232.4,325.9,232.3,326.4z"/>
				</g>
				<g>
					<path class="st7" d="M236.6,327.5c-0.1,0.6-0.7,1-1.3,0.8s-1-0.7-0.8-1.3c0.1-0.6,0.7-1,1.3-0.8S236.8,326.9,236.6,327.5z"/>
				</g>
				<g>
					<path class="st7" d="M241,328.5c-0.1,0.6-0.7,1-1.3,0.8c-0.6-0.1-1-0.7-0.8-1.3c0.1-0.6,0.7-1,1.3-0.8
						C240.7,327.3,241.1,327.9,241,328.5z"/>
				</g>
				<g>
					<path class="st7" d="M245.3,329.6c-0.1,0.6-0.7,1-1.3,0.8s-1-0.7-0.8-1.3c0.1-0.6,0.7-1,1.3-0.8
						C245.1,328.4,245.4,329,245.3,329.6z"/>
				</g>
				<g>
					<path class="st7" d="M249.6,330.6c-0.1,0.6-0.7,1-1.3,0.8c-0.6-0.1-1-0.7-0.8-1.3c0.1-0.6,0.7-1,1.3-0.8S249.8,330,249.6,330.6
						z"/>
				</g>
				<g>
					<path class="st7" d="M253.9,331.7c-0.1,0.6-0.7,1-1.3,0.8c-0.6-0.1-1-0.7-0.8-1.3c0.1-0.6,0.7-1,1.3-0.8
						S254.1,331.1,253.9,331.7z"/>
				</g>
				<g>
					<path class="st7" d="M258.3,332.7c-0.1,0.6-0.7,1-1.3,0.8c-0.6-0.1-1-0.7-0.8-1.3c0.1-0.6,0.7-1,1.3-0.8
						C258,331.5,258.4,332.1,258.3,332.7z"/>
				</g>
				<g>
					<path class="st7" d="M262.6,333.7c-0.1,0.6-0.7,1-1.3,0.8c-0.6-0.1-1-0.7-0.8-1.3s0.7-1,1.3-0.8
						C262.4,332.5,262.7,333.1,262.6,333.7z"/>
				</g>
				<g>
					<path class="st7" d="M266.9,334.8c-0.1,0.6-0.7,1-1.3,0.8c-0.6-0.1-1-0.7-0.8-1.3s0.7-1,1.3-0.8
						C266.7,333.6,267.1,334.2,266.9,334.8z"/>
				</g>
				<g>
					<path class="st7" d="M271.2,335.8c-0.1,0.6-0.7,1-1.3,0.8s-1-0.7-0.8-1.3c0.1-0.6,0.7-1,1.3-0.8S271.4,335.2,271.2,335.8z"/>
				</g>
				<g>
					<path class="st7" d="M275.6,336.9c-0.1,0.6-0.7,1-1.3,0.8c-0.6-0.1-1-0.7-0.8-1.3c0.1-0.6,0.7-1,1.3-0.8
						C275.4,335.7,275.7,336.3,275.6,336.9z"/>
				</g>
				<g>
					<path class="st7" d="M279.9,337.9c-0.1,0.6-0.7,1-1.3,0.8c-0.6-0.1-1-0.7-0.8-1.3s0.7-1,1.3-0.8
						C279.7,336.7,280,337.3,279.9,337.9z"/>
				</g>
				<g>
					<path class="st7" d="M284.2,338.9c-0.1,0.6-0.7,1-1.3,0.8c-0.6-0.1-1-0.7-0.8-1.3c0.1-0.6,0.7-1,1.3-0.8
						C284,337.8,284.4,338.3,284.2,338.9z"/>
				</g>
				<g>
					<path class="st7" d="M288.6,340c-0.1,0.6-0.7,1-1.3,0.8c-0.6-0.1-1-0.7-0.8-1.3c0.1-0.6,0.7-1,1.3-0.8
						C288.3,338.8,288.7,339.4,288.6,340z"/>
				</g>
				<g>
					<path class="st7" d="M292.9,341c-0.1,0.6-0.7,1-1.3,0.8c-0.6-0.1-1-0.7-0.8-1.3s0.7-1,1.3-0.8C292.7,339.8,293,340.4,292.9,341
						z"/>
				</g>
				<g>
					<path class="st7" d="M297.2,342.1c-0.1,0.6-0.7,1-1.3,0.8c-0.6-0.1-1-0.7-0.8-1.3s0.7-1,1.3-0.8
						C297,340.9,297.4,341.5,297.2,342.1z"/>
				</g>
				<g>
					<path class="st7" d="M301.5,343.1c-0.1,0.6-0.7,1-1.3,0.8c-0.6-0.1-1-0.7-0.8-1.3c0.1-0.6,0.7-1,1.3-0.8
						S301.7,342.5,301.5,343.1z"/>
				</g>
				<g>
					<path class="st7" d="M305.9,344.1c-0.1,0.6-0.7,1-1.3,0.8c-0.6-0.1-1-0.7-0.8-1.3c0.1-0.6,0.7-1,1.3-0.8
						C305.6,343,306,343.6,305.9,344.1z"/>
				</g>
				<g>
					<path class="st7" d="M310.2,345.2c-0.1,0.6-0.7,1-1.3,0.8c-0.6-0.1-1-0.7-0.8-1.3s0.7-1,1.3-0.8
						C310,344,310.3,344.6,310.2,345.2z"/>
				</g>
				<g>
					
						<ellipse transform="matrix(0.2328 -0.9725 0.9725 0.2328 -95.9918 570.2594)" class="st7" cx="313.4" cy="346" rx="1.1" ry="1.1"/>
				</g>
				<g>
					<path class="st7" d="M318.9,347.3c-0.1,0.6-0.7,1-1.3,0.8c-0.6-0.1-1-0.7-0.8-1.3s0.7-1,1.3-0.8
						C318.6,346.1,319,346.7,318.9,347.3z"/>
				</g>
				<g>
					<path class="st7" d="M323.2,348.3c-0.1,0.6-0.7,1-1.3,0.8c-0.6-0.1-1-0.7-0.8-1.3c0.1-0.6,0.7-1,1.3-0.8
						C323,347.1,323.3,347.7,323.2,348.3z"/>
				</g>
				<g>
					<path class="st7" d="M327.5,349.4c-0.1,0.6-0.7,1-1.3,0.8c-0.6-0.1-1-0.7-0.8-1.3s0.7-1,1.3-0.8
						C327.3,348.2,327.7,348.8,327.5,349.4z"/>
				</g>
				<g>
					<path class="st7" d="M331.8,350.4c-0.1,0.6-0.7,1-1.3,0.8c-0.6-0.1-1-0.7-0.8-1.3s0.7-1,1.3-0.8
						C331.6,349.2,332,349.8,331.8,350.4z"/>
				</g>
				<g>
					<line class="st9" x1="336.4" y1="345.5" x2="333.7" y2="356.8"/>
				</g>
			</g>
		</g>
	</g>
	<g>
		<g>
			<g>
				<g>
					<line class="st9" x1="325.2" y1="83" x2="327.4" y2="71.6"/>
				</g>
				<g>
					<path class="st7" d="M320.9,76.3c0.1-0.6,0.7-1,1.3-0.9c0.6,0.1,1,0.7,0.9,1.3c-0.1,0.6-0.7,1-1.3,0.9
						C321.2,77.4,320.8,76.9,320.9,76.3z"/>
				</g>
				<g>
					<path class="st7" d="M316.6,75.5c0.1-0.6,0.7-1,1.3-0.9c0.6,0.1,1,0.7,0.9,1.3c-0.1,0.6-0.7,1-1.3,0.9
						C316.9,76.6,316.5,76.1,316.6,75.5z"/>
				</g>
				<g>
					<path class="st7" d="M312.3,74.7c0.1-0.6,0.7-1,1.3-0.9c0.6,0.1,1,0.7,0.9,1.3c-0.1,0.6-0.7,1-1.3,0.9
						C312.6,75.9,312.2,75.3,312.3,74.7z"/>
				</g>
				<g>
					<path class="st7" d="M308,73.9c0.1-0.6,0.7-1,1.3-0.9c0.6,0.1,1,0.7,0.9,1.3s-0.7,1-1.3,0.9C308.3,75.1,307.9,74.6,308,73.9z"
						/>
				</g>
				<g>
					<path class="st7" d="M303.7,73.3c0.1-0.6,0.7-1,1.3-0.9c0.6,0.1,1,0.7,0.9,1.3s-0.7,1-1.3,0.9S303.6,73.9,303.7,73.3z"/>
				</g>
				<g>
					<path class="st7" d="M299.3,72.6c0.1-0.6,0.6-1,1.2-0.9c0.6,0.1,1,0.6,0.9,1.2c-0.1,0.6-0.6,1-1.2,0.9
						C299.7,73.8,299.2,73.2,299.3,72.6z"/>
				</g>
				<g>
					<path class="st7" d="M294.9,72.2c0-0.6,0.6-1.1,1.2-1c0.6,0,1.1,0.6,1,1.2c-0.1,0.6-0.6,1.1-1.2,1
						C295.4,73.3,294.9,72.8,294.9,72.2z"/>
				</g>
				<g>
					<path class="st7" d="M290.6,72.1c0-0.6,0.5-1.1,1.1-1.1c0.6,0,1.1,0.5,1.1,1.1c0,0.6-0.5,1.1-1.1,1.1
						C291.1,73.2,290.6,72.7,290.6,72.1z"/>
				</g>
				<g>
					<path class="st7" d="M286.2,72.2c0-0.6,0.4-1.1,1.1-1.2c0.6,0,1.1,0.5,1.1,1.1c0,0.6-0.5,1.1-1.1,1.1
						C286.7,73.3,286.2,72.9,286.2,72.2z"/>
				</g>
				<g>
					<path class="st7" d="M281.8,72.5c-0.1-0.6,0.4-1.1,1-1.2c0.6,0,1.1,0.4,1.2,1c0,0.6-0.4,1.1-1,1.2
						C282.4,73.6,281.9,73.1,281.8,72.5z"/>
				</g>
				<g>
					<path class="st7" d="M277.4,73c-0.1-0.6,0.4-1.2,1-1.2c0.6-0.1,1.2,0.4,1.2,1c0.1,0.6-0.4,1.1-1,1.2
						C278.1,74,277.5,73.6,277.4,73z"/>
				</g>
				<g>
					<path class="st7" d="M273.1,73.6c-0.1-0.6,0.3-1.2,0.9-1.3c0.6-0.1,1.2,0.3,1.2,0.9c0.1,0.6-0.3,1.2-0.9,1.3
						C273.8,74.6,273.2,74.2,273.1,73.6z"/>
				</g>
				<g>
					<path class="st7" d="M268.8,74.4c-0.1-0.6,0.3-1.2,0.9-1.3c0.6-0.1,1.2,0.3,1.3,0.9c0.1,0.6-0.3,1.2-0.9,1.3
						C269.5,75.4,268.9,75,268.8,74.4z"/>
				</g>
				<g>
					<path class="st7" d="M264.5,75.4c-0.2-0.6,0.2-1.2,0.8-1.4c0.6-0.2,1.2,0.2,1.3,0.8c0.1,0.6-0.2,1.2-0.8,1.3
						C265.3,76.4,264.7,76,264.5,75.4z"/>
				</g>
				<g>
					<path class="st7" d="M260.3,76.6c-0.2-0.6,0.2-1.2,0.8-1.4c0.6-0.2,1.2,0.2,1.3,0.8c0.2,0.6-0.2,1.2-0.8,1.4
						C261.1,77.6,260.5,77.2,260.3,76.6z"/>
				</g>
				<g>
					<path class="st7" d="M256.1,77.8c-0.2-0.6,0.2-1.2,0.8-1.4c0.6-0.2,1.2,0.2,1.3,0.8c0.2,0.6-0.2,1.2-0.8,1.4
						C256.9,78.8,256.3,78.4,256.1,77.8z"/>
				</g>
				<g>
					<path class="st7" d="M251.9,79c-0.2-0.6,0.2-1.2,0.8-1.4c0.6-0.2,1.2,0.2,1.3,0.8c0.2,0.6-0.2,1.2-0.8,1.4
						C252.7,80,252.1,79.6,251.9,79z"/>
				</g>
				<g>
					<path class="st7" d="M247.7,80.2c-0.2-0.6,0.2-1.2,0.8-1.4c0.6-0.2,1.2,0.2,1.3,0.8c0.2,0.6-0.2,1.2-0.8,1.4
						C248.4,81.2,247.8,80.8,247.7,80.2z"/>
				</g>
				<g>
					<path class="st7" d="M243.5,81.4c-0.2-0.6,0.2-1.2,0.8-1.4s1.2,0.2,1.3,0.8c0.2,0.6-0.2,1.2-0.8,1.4S243.6,82,243.5,81.4z"/>
				</g>
				<g>
					<path class="st7" d="M239.2,82.6c-0.2-0.6,0.2-1.2,0.8-1.4c0.6-0.2,1.2,0.2,1.3,0.8s-0.2,1.2-0.8,1.4S239.4,83.2,239.2,82.6z"
						/>
				</g>
				<g>
					<path class="st7" d="M235,83.8c-0.2-0.6,0.2-1.2,0.8-1.4c0.6-0.2,1.2,0.2,1.3,0.8c0.2,0.6-0.2,1.2-0.8,1.4S235.2,84.4,235,83.8
						z"/>
				</g>
				<g>
					<path class="st7" d="M230.8,85c-0.2-0.6,0.2-1.2,0.8-1.4c0.6-0.2,1.2,0.2,1.3,0.8c0.2,0.6-0.2,1.2-0.8,1.4
						C231.6,86,231,85.6,230.8,85z"/>
				</g>
				<g>
					<path class="st7" d="M226.6,86.2c-0.2-0.6,0.2-1.2,0.8-1.4c0.6-0.2,1.2,0.2,1.3,0.8s-0.2,1.2-0.8,1.4S226.8,86.8,226.6,86.2z"
						/>
				</g>
				<g>
					<path class="st7" d="M222.4,87.4c-0.2-0.6,0.2-1.2,0.8-1.4s1.2,0.2,1.3,0.8c0.2,0.6-0.2,1.2-0.8,1.4S222.5,88,222.4,87.4z"/>
				</g>
				<g>
					<path class="st7" d="M218.2,88.6c-0.2-0.6,0.2-1.2,0.8-1.4c0.6-0.2,1.2,0.2,1.3,0.8c0.2,0.6-0.2,1.2-0.8,1.4
						C218.9,89.6,218.3,89.2,218.2,88.6z"/>
				</g>
				<g>
					<path class="st7" d="M213.9,89.8c-0.2-0.6,0.2-1.2,0.8-1.4c0.6-0.2,1.2,0.2,1.3,0.8s-0.2,1.2-0.8,1.4S214.1,90.4,213.9,89.8z"
						/>
				</g>
				<g>
					<path class="st7" d="M209.7,91c-0.2-0.6,0.2-1.2,0.8-1.4s1.2,0.2,1.3,0.8s-0.2,1.2-0.8,1.4S209.9,91.6,209.7,91z"/>
				</g>
				<g>
					<path class="st7" d="M205.5,92.2c-0.2-0.6,0.2-1.2,0.8-1.4s1.2,0.2,1.3,0.8c0.2,0.6-0.2,1.2-0.8,1.4
						C206.3,93.2,205.7,92.8,205.5,92.2z"/>
				</g>
				<g>
					<path class="st7" d="M201.3,93.4c-0.2-0.6,0.2-1.2,0.8-1.4c0.6-0.2,1.2,0.2,1.3,0.8s-0.2,1.2-0.8,1.4S201.4,94,201.3,93.4z"/>
				</g>
				<g>
					<path class="st7" d="M197.1,94.6c-0.2-0.6,0.2-1.2,0.8-1.4c0.6-0.2,1.2,0.2,1.3,0.8c0.2,0.6-0.2,1.2-0.8,1.4
						S197.2,95.2,197.1,94.6z"/>
				</g>
				<g>
					<path class="st7" d="M192.9,95.8c-0.2-0.6,0.2-1.2,0.8-1.4s1.2,0.2,1.3,0.8c0.2,0.6-0.2,1.2-0.8,1.4S193,96.4,192.9,95.8z"/>
				</g>
				<g>
					<path class="st7" d="M188.6,97c-0.2-0.6,0.2-1.2,0.8-1.4s1.2,0.2,1.3,0.8c0.2,0.6-0.2,1.2-0.8,1.4
						C189.4,98,188.8,97.6,188.6,97z"/>
				</g>
				<g>
					<path class="st7" d="M184.4,98.2c-0.2-0.6,0.2-1.2,0.8-1.4c0.6-0.2,1.2,0.2,1.3,0.8s-0.2,1.2-0.8,1.4
						C185.2,99.2,184.6,98.8,184.4,98.2z"/>
				</g>
				<g>
					<path class="st7" d="M180.2,99.4c-0.2-0.6,0.2-1.2,0.8-1.4c0.6-0.2,1.2,0.2,1.4,0.8c0.2,0.6-0.2,1.2-0.8,1.4
						C181,100.4,180.4,100,180.2,99.4z"/>
				</g>
				<g>
					<path class="st7" d="M176,100.6c-0.2-0.6,0.2-1.2,0.8-1.4c0.6-0.2,1.2,0.2,1.4,0.8c0.2,0.6-0.2,1.2-0.8,1.4
						S176.1,101.2,176,100.6z"/>
				</g>
				<g>
					<path class="st7" d="M171.8,101.8c-0.2-0.6,0.2-1.2,0.8-1.4s1.2,0.2,1.4,0.8c0.2,0.6-0.2,1.2-0.8,1.4S171.9,102.4,171.8,101.8z
						"/>
				</g>
				<g>
					<path class="st7" d="M167.6,103c-0.2-0.6,0.2-1.2,0.8-1.4s1.2,0.2,1.4,0.8c0.2,0.6-0.2,1.2-0.8,1.4
						C168.3,104,167.7,103.6,167.6,103z"/>
				</g>
				<g>
					<path class="st7" d="M163.3,104.2c-0.2-0.6,0.2-1.2,0.8-1.4c0.6-0.2,1.2,0.2,1.4,0.8s-0.2,1.2-0.8,1.4S163.5,104.8,163.3,104.2
						z"/>
				</g>
				<g>
					<path class="st7" d="M159.1,105.4c-0.2-0.6,0.2-1.2,0.8-1.4c0.6-0.2,1.2,0.2,1.4,0.8c0.2,0.6-0.2,1.2-0.8,1.4
						S159.3,106,159.1,105.4z"/>
				</g>
				<g>
					<path class="st7" d="M154.9,106.6c-0.2-0.6,0.2-1.2,0.8-1.4s1.2,0.2,1.4,0.8c0.2,0.6-0.2,1.2-0.8,1.4S155.1,107.2,154.9,106.6z
						"/>
				</g>
				<g>
					<path class="st7" d="M150.7,107.8c-0.2-0.6,0.2-1.2,0.8-1.4c0.6-0.2,1.2,0.2,1.4,0.8c0.2,0.6-0.2,1.2-0.8,1.4
						S150.8,108.4,150.7,107.8z"/>
				</g>
				<g>
					<path class="st7" d="M146.5,109c-0.2-0.6,0.2-1.2,0.8-1.4c0.6-0.2,1.2,0.2,1.4,0.8s-0.2,1.2-0.8,1.4S146.6,109.6,146.5,109z"/>
				</g>
				<g>
					<path class="st7" d="M142.2,110.2c-0.2-0.6,0.2-1.2,0.8-1.4c0.6-0.2,1.2,0.2,1.4,0.8c0.2,0.6-0.2,1.2-0.8,1.4
						S142.4,110.8,142.2,110.2z"/>
				</g>
				<g>
					<path class="st7" d="M138,111.4c-0.2-0.6,0.2-1.2,0.8-1.4s1.2,0.2,1.4,0.8s-0.2,1.2-0.8,1.4C138.8,112.3,138.2,112,138,111.4z"
						/>
				</g>
				<g>
					<path class="st7" d="M133.8,112.6c-0.2-0.6,0.2-1.2,0.8-1.4c0.6-0.2,1.2,0.2,1.4,0.8s-0.2,1.2-0.8,1.4
						C134.6,113.5,134,113.2,133.8,112.6z"/>
				</g>
				<g>
					<path class="st7" d="M129.6,113.8c-0.2-0.6,0.2-1.2,0.8-1.4c0.6-0.2,1.2,0.2,1.4,0.8c0.2,0.6-0.2,1.2-0.8,1.4
						S129.8,114.4,129.6,113.8z"/>
				</g>
				<g>
					<path class="st7" d="M125.4,115c-0.2-0.6,0.2-1.2,0.8-1.4c0.6-0.2,1.2,0.2,1.4,0.8c0.2,0.6-0.2,1.2-0.8,1.4
						S125.5,115.6,125.4,115z"/>
				</g>
				<g>
					<path class="st7" d="M121.2,116.2c-0.2-0.6,0.2-1.2,0.8-1.4s1.2,0.2,1.4,0.8c0.2,0.6-0.2,1.2-0.8,1.4S121.3,116.8,121.2,116.2z
						"/>
				</g>
				<g>
					<path class="st7" d="M116.9,117.4c-0.2-0.6,0.2-1.2,0.8-1.4c0.6-0.2,1.2,0.2,1.4,0.8c0.2,0.6-0.2,1.2-0.8,1.4
						C117.7,118.3,117.1,118,116.9,117.4z"/>
				</g>
				<g>
					<path class="st7" d="M112.7,118.6c-0.2-0.6,0.2-1.2,0.8-1.4c0.6-0.2,1.2,0.2,1.4,0.8c0.2,0.6-0.2,1.2-0.8,1.4
						S112.9,119.2,112.7,118.6z"/>
				</g>
				<g>
					<path class="st7" d="M108.5,119.8c-0.2-0.6,0.2-1.2,0.8-1.4c0.6-0.2,1.2,0.2,1.4,0.8c0.2,0.6-0.2,1.2-0.8,1.4
						S108.7,120.4,108.5,119.8z"/>
				</g>
				<g>
					<path class="st7" d="M104.3,121c-0.2-0.6,0.2-1.2,0.8-1.4s1.2,0.2,1.4,0.8c0.2,0.6-0.2,1.2-0.8,1.4S104.5,121.6,104.3,121z"/>
				</g>
				<g>
					<path class="st7" d="M100.1,122.2c-0.2-0.6,0.2-1.2,0.8-1.4c0.6-0.2,1.2,0.2,1.4,0.8c0.2,0.6-0.2,1.2-0.8,1.4
						C100.9,123.1,100.2,122.8,100.1,122.2z"/>
				</g>
				<g>
					<path class="st7" d="M95.9,123.4c-0.2-0.6,0.2-1.2,0.8-1.4s1.2,0.2,1.4,0.8c0.2,0.6-0.2,1.2-0.8,1.4
						C96.6,124.3,96,124,95.9,123.4z"/>
				</g>
				<g>
					<path class="st7" d="M91.6,124.6c-0.2-0.6,0.2-1.2,0.8-1.4c0.6-0.2,1.2,0.2,1.4,0.8c0.2,0.6-0.2,1.2-0.8,1.4
						C92.4,125.5,91.8,125.2,91.6,124.6z"/>
				</g>
				<g>
					<path class="st7" d="M87.4,125.8c-0.2-0.6,0.2-1.2,0.8-1.4c0.6-0.2,1.2,0.2,1.4,0.8c0.2,0.6-0.2,1.2-0.8,1.4
						S87.6,126.4,87.4,125.8z"/>
				</g>
				<g>
					<path class="st7" d="M83.2,127c-0.2-0.6,0.2-1.2,0.8-1.4c0.6-0.2,1.2,0.2,1.4,0.8c0.2,0.6-0.2,1.2-0.8,1.4S83.4,127.6,83.2,127
						z"/>
				</g>
				<g>
					<path class="st7" d="M79,128.2c-0.2-0.6,0.2-1.2,0.8-1.4c0.6-0.2,1.2,0.2,1.4,0.8c0.2,0.6-0.2,1.2-0.8,1.4
						C79.8,129.1,79.2,128.8,79,128.2z"/>
				</g>
				<g>
					<path class="st7" d="M74.8,129.4c-0.2-0.6,0.2-1.2,0.8-1.4c0.6-0.2,1.2,0.2,1.4,0.8c0.2,0.6-0.2,1.2-0.8,1.4
						S74.9,130,74.8,129.4z"/>
				</g>
				<g>
					<line class="st9" x1="73.2" y1="135.9" x2="70" y2="124.7"/>
				</g>
			</g>
		</g>
	</g>
	<g>
		<path class="st10" d="M131.4,183.3v-35.8c0-4.7-3.8-8.5-8.5-8.5H59.7c-4.7,0-8.5,3.8-8.5,8.4s0,8.4,0,8.4"/>
	</g>
	<g>
		<path class="st10" d="M477.8,166.2H498c4.7,0,8.5-3.8,8.5-8.5V84.7"/>
	</g>
</g>
<g id="SPEED_x5F_TRAP">
	<g>
		<g>
			<path class="st11" d="M99.7,69.7c0,0.8-0.6,1.4-1.4,1.4H56.1c-0.8,0-1.4-0.6-1.4-1.4V35c0-0.8,0.6-1.4,1.4-1.4h42.2
				c0.8,0,1.4,0.6,1.4,1.4V69.7z"/>
		</g>
		<g>
			<path class="st6" d="M66.8,46.6v2.7c0,1.3-0.6,1.7-1.3,2h-3.9c-0.7-0.3-1.3-0.7-1.3-2v-2.4H63v2l0.2,0.2H64l0.2-0.2v-1.8L64,46.9
				l-2.7-1.2c-0.8-0.4-0.9-0.9-0.9-1.8v-2.5c0-1.3,0.6-1.7,1.3-2h3.9c0.7,0.3,1.3,0.7,1.3,2v2.2h-2.7v-1.9L64,41.5h-0.8L63,41.6v1.7
				l0.2,0.3l2.7,1.1C66.7,45.1,66.8,45.7,66.8,46.6z"/>
			<path class="st6" d="M70.2,47.1v4.2h-2.7v-12h5.2c0.7,0.3,1.3,0.7,1.3,2v3.8c0,1.3-0.6,1.7-1.3,2H70.2z M70.2,41.5V45h1l0.2-0.2
				v-3.2l-0.2-0.2H70.2z"/>
			<path class="st6" d="M74.7,39.3h5.5v2.5h-2.8V44h2.7v2.5h-2.7v2.3h2.9v2.5h-5.6V39.3z"/>
			<path class="st6" d="M81.1,39.3h5.5v2.5h-2.8V44h2.7v2.5h-2.7v2.3h2.9v2.5h-5.6V39.3z"/>
			<path class="st6" d="M94,49.3c0,1.3-0.6,1.7-1.3,2h-5.2v-12h5.2c0.7,0.3,1.3,0.7,1.3,2V49.3z M90.2,41.5v7.7h1l0.2-0.2v-7.3
				l-0.2-0.2H90.2z"/>
			<path class="st6" d="M67.8,56v9.5h-2.7V56h-1.9v-2.5h6.5V56H67.8z"/>
			<path class="st6" d="M70.2,65.5v-12h5.2c0.7,0.3,1.3,0.7,1.3,2V58c0,1.1-0.5,1.6-1.1,1.9l1.4,3.8v1.7h-2.3l-1.5-4.7h-0.3v4.7
				H70.2z M72.8,55.6v3h1l0.2-0.2v-2.7l-0.2-0.2H72.8z"/>
			<path class="st6" d="M81.2,63.1H80l-0.2,2.3h-2.5v-2l1.5-10h3.6l1.5,10v2h-2.5L81.2,63.1z M80.2,60.6H81l-0.3-3.8h-0.2L80.2,60.6
				z"/>
			<path class="st6" d="M87.3,61.3v4.2h-2.7v-12h5.2c0.7,0.3,1.3,0.7,1.3,2v3.8c0,1.3-0.6,1.7-1.3,2H87.3z M87.3,55.6v3.5h1l0.2-0.2
				v-3.2l-0.2-0.2H87.3z"/>
		</g>
	</g>
	<g>
		<circle class="st8" cx="77.2" cy="113.9" r="4.7"/>
		<circle class="st11" cx="77.2" cy="113.9" r="4.7"/>
	</g>
	<g>
		<line class="st12" x1="77.2" y1="71.1" x2="77.2" y2="113.9"/>
	</g>
</g>
<g id="アイコン">
	<g>
		
			<rect x="158.4" y="56.8" transform="matrix(0.2841 0.9588 -0.9588 0.2841 170.2765 -111.5281)" class="st5" width="2.8" height="2.8"/>
		
			<rect x="160" y="62.3" transform="matrix(0.2841 0.9588 -0.9588 0.2841 176.6413 -109.1807)" class="st5" width="2.8" height="2.8"/>
		
			<rect x="156.5" y="60.4" transform="matrix(0.2841 0.9588 -0.9588 0.2841 172.2852 -107.172)" class="st5" width="2.8" height="2.8"/>
		
			<rect x="158.1" y="65.8" transform="matrix(0.2841 0.9588 -0.9588 0.2841 178.65 -104.8247)" class="st5" width="2.8" height="2.8"/>
		
			<rect x="151.1" y="62" transform="matrix(0.2841 0.9588 -0.9588 0.2841 169.9379 -100.8072)" class="st5" width="2.8" height="2.8"/>
		
			<rect x="152.7" y="67.4" transform="matrix(0.2841 0.9588 -0.9588 0.2841 176.3026 -98.4599)" class="st5" width="2.8" height="2.8"/>
		
			<rect x="161.6" y="67.7" transform="matrix(0.2841 0.9588 -0.9588 0.2841 183.006 -106.8334)" class="st5" width="2.8" height="2.8"/>
		
			<rect x="160.8" y="65" transform="matrix(0.2841 0.9588 -0.9588 0.2841 179.8236 -108.007)" class="st6" width="2.8" height="2.8"/>
		
			<rect x="159.2" y="59.6" transform="matrix(0.2841 0.9588 -0.9588 0.2841 173.4589 -110.3544)" class="st6" width="2.8" height="2.8"/>
		
			<rect x="155.7" y="57.6" transform="matrix(0.2841 0.9588 -0.9588 0.2841 169.1028 -108.3457)" class="st6" width="2.8" height="2.8"/>
		
			<rect x="157.3" y="63.1" transform="matrix(0.2841 0.9588 -0.9588 0.2841 175.4676 -105.9983)" class="st6" width="2.8" height="2.8"/>
		
			<rect x="158.9" y="68.5" transform="matrix(0.2841 0.9588 -0.9588 0.2841 181.8324 -103.651)" class="st6" width="2.8" height="2.8"/>
		
			<rect x="155.4" y="66.6" transform="matrix(0.2841 0.9588 -0.9588 0.2841 177.4763 -101.6423)" class="st6" width="2.8" height="2.8"/>
		
			<rect x="153.8" y="61.2" transform="matrix(0.2841 0.9588 -0.9588 0.2841 171.1115 -103.9896)" class="st6" width="2.8" height="2.8"/>
		
			<rect x="149.9" y="68.2" transform="matrix(0.2841 0.9588 -0.9588 0.2841 175.129 -95.2775)" class="st6" width="2.8" height="2.8"/>
		
			<rect x="148.3" y="62.8" transform="matrix(0.2841 0.9588 -0.9588 0.2841 168.7642 -97.6248)" class="st6" width="2.8" height="2.8"/>
		
			<rect x="150.2" y="59.3" transform="matrix(0.2841 0.9588 -0.9588 0.2841 166.7555 -101.9809)" class="st6" width="2.8" height="2.8"/>
		
			<rect x="151.9" y="64.7" transform="matrix(0.2841 0.9588 -0.9588 0.2841 173.1202 -99.6335)" class="st6" width="2.8" height="2.8"/>
		
			<rect x="153.5" y="70.1" transform="matrix(0.2841 0.9588 -0.9588 0.2841 179.485 -97.2862)" class="st6" width="2.8" height="2.8"/>
		
			<rect x="153" y="58.5" transform="matrix(0.2841 0.9588 -0.9588 0.2841 167.9291 -105.1633)" class="st5" width="2.8" height="2.8"/>
		
			<rect x="154.6" y="63.9" transform="matrix(0.2841 0.9588 -0.9588 0.2841 174.2939 -102.8159)" class="st5" width="2.8" height="2.8"/>
		
			<rect x="149.1" y="65.5" transform="matrix(0.2841 0.9588 -0.9588 0.2841 171.9466 -96.4511)" class="st5" width="2.8" height="2.8"/>
		
			<rect x="156.2" y="69.3" transform="matrix(0.2841 0.9588 -0.9588 0.2841 180.6587 -100.4686)" class="st5" width="2.8" height="2.8"/>
		
			<rect x="147.5" y="60.1" transform="matrix(0.2841 0.9588 -0.9588 0.2841 165.5818 -98.7985)" class="st5" width="2.8" height="2.8"/>
		
			<rect x="150.8" y="70.9" transform="matrix(0.2841 0.9588 -0.9588 0.2841 178.3114 -94.1038)" class="st5" width="2.8" height="2.8"/>
	</g>
	<g>
		<g>
			<path class="st6" d="M462.8,426.3c0,1.6-1.3,2.8-2.8,2.8H91.1c-1.6,0-2.8-1.3-2.8-2.8v-24.9c0-1.6,1.3-2.8,2.8-2.8h368.8
				c1.6,0,2.8,1.3,2.8,2.8V426.3z"/>
			<path class="st13" d="M462.8,426.3c0,1.6-1.3,2.8-2.8,2.8H91.1c-1.6,0-2.8-1.3-2.8-2.8v-24.9c0-1.6,1.3-2.8,2.8-2.8h368.8
				c1.6,0,2.8,1.3,2.8,2.8V426.3z"/>
		</g>
		<g>
			<path class="st5" d="M133.8,415.3v2.6c0,1.3-0.6,1.7-1.3,2h-3.3c-0.7-0.3-1.3-0.7-1.3-2v-2h1.8v2.1l0.4,0.4h1.6l0.4-0.4v-2.8
				l-0.3-0.4L129,414c-0.8-0.3-1.1-0.8-1.1-1.9v-2.2c0-1.3,0.6-1.7,1.3-2h3.3c0.7,0.3,1.3,0.7,1.3,2v1.9H132v-2.1l-0.4-0.4h-1.6
				l-0.4,0.4v2.4l0.4,0.4l2.6,0.7C133.4,413.6,133.8,414.1,133.8,415.3z"/>
			<path class="st5" d="M135.1,407.9h5.1v1.6h-3.3v3.4h3.1v1.6h-3.1v3.7h3.4v1.6h-5.2V407.9z"/>
			<path class="st5" d="M147.5,417.9c0,1.3-0.6,1.7-1.3,2h-3.3c-0.7-0.3-1.3-0.7-1.3-2v-8c0-1.3,0.6-1.7,1.3-2h3.3
				c0.7,0.3,1.3,0.7,1.3,2v2.7h-1.8v-2.8l-0.4-0.4h-1.6l-0.4,0.4v8.3l0.4,0.4h1.6l0.4-0.4v-2.7h1.8V417.9z"/>
			<path class="st5" d="M152.2,409.5v10.3h-1.8v-10.3h-2.1v-1.6h6.1v1.6H152.2z"/>
			<path class="st5" d="M161.1,417.9c0,1.3-0.6,1.7-1.3,2h-3.3c-0.7-0.3-1.3-0.7-1.3-2v-8c0-1.3,0.6-1.7,1.3-2h3.3
				c0.7,0.3,1.3,0.7,1.3,2V417.9z M159.3,409.7l-0.4-0.4h-1.6l-0.4,0.4v8.3l0.4,0.4h1.6l0.4-0.4V409.7z"/>
			<path class="st5" d="M162.5,419.8v-12h4.6c0.7,0.3,1.3,0.7,1.3,2v2.6c0,1.3-0.6,1.6-1.3,1.9l-0.3,0.1l2.1,4.3v1.1h-1.6l-2.2-5.1
				h-0.8v5.1H162.5z M164.3,409.4v3.9h2l0.4-0.4v-3.1l-0.4-0.4H164.3z"/>
			<path class="st5" d="M172.6,419.8v-1.6h1.8v-8.7h-1.7v-1.6h3.5v10.4h1.7v1.6H172.6z"/>
		</g>
		<line class="st14" x1="102.5" y1="413.9" x2="123.7" y2="413.9"/>
		<g>
			<path class="st5" d="M223.9,415.3v2.6c0,1.3-0.6,1.7-1.3,2h-3.3c-0.7-0.3-1.3-0.7-1.3-2v-2h1.8v2.1l0.4,0.4h1.6l0.4-0.4v-2.8
				l-0.3-0.4l-2.6-0.8c-0.8-0.3-1.1-0.8-1.1-1.9v-2.2c0-1.3,0.6-1.7,1.3-2h3.3c0.7,0.3,1.3,0.7,1.3,2v1.9h-1.8v-2.1l-0.4-0.4h-1.6
				l-0.4,0.4v2.4l0.4,0.4l2.6,0.7C223.5,413.6,223.9,414.1,223.9,415.3z"/>
			<path class="st5" d="M225.2,407.9h5.1v1.6H227v3.4h3.1v1.6H227v3.7h3.4v1.6h-5.2V407.9z"/>
			<path class="st5" d="M237.6,417.9c0,1.3-0.6,1.7-1.3,2h-3.3c-0.7-0.3-1.3-0.7-1.3-2v-8c0-1.3,0.6-1.7,1.3-2h3.3
				c0.7,0.3,1.3,0.7,1.3,2v2.7h-1.8v-2.8l-0.4-0.4h-1.6l-0.4,0.4v8.3l0.4,0.4h1.6l0.4-0.4v-2.7h1.8V417.9z"/>
			<path class="st5" d="M242.3,409.5v10.3h-1.8v-10.3h-2.1v-1.6h6.1v1.6H242.3z"/>
			<path class="st5" d="M251.2,417.9c0,1.3-0.6,1.7-1.3,2h-3.3c-0.7-0.3-1.3-0.7-1.3-2v-8c0-1.3,0.6-1.7,1.3-2h3.3
				c0.7,0.3,1.3,0.7,1.3,2V417.9z M249.4,409.7l-0.4-0.4h-1.6l-0.4,0.4v8.3l0.4,0.4h1.6l0.4-0.4V409.7z"/>
			<path class="st5" d="M252.6,419.8v-12h4.6c0.7,0.3,1.3,0.7,1.3,2v2.6c0,1.3-0.6,1.6-1.3,1.9l-0.3,0.1l2.1,4.3v1.1h-1.6l-2.2-5.1
				h-0.8v5.1H252.6z M254.4,409.4v3.9h2l0.4-0.4v-3.1l-0.4-0.4H254.4z"/>
			<path class="st5" d="M262.3,419.8v-3.6c0-1.1,0.4-1.7,1.2-2.1l3-1.2v-3.2l-0.4-0.4h-1.7l-0.4,0.4v2h-1.8v-1.9
				c0-1.3,0.6-1.7,1.3-2h3.3c0.7,0.3,1.3,0.7,1.3,2v2.5c0,1.1-0.3,1.7-1.1,2.1l-3,1.2v2.5h4.1v1.6H262.3z"/>
		</g>
		<line class="st15" x1="192.6" y1="413.9" x2="213.8" y2="413.9"/>
		<g>
			<path class="st5" d="M313.7,415.3v2.6c0,1.3-0.6,1.7-1.3,2h-3.3c-0.7-0.3-1.3-0.7-1.3-2v-2h1.8v2.1l0.4,0.4h1.6l0.4-0.4v-2.8
				l-0.3-0.4L309,414c-0.8-0.3-1.1-0.8-1.1-1.9v-2.2c0-1.3,0.6-1.7,1.3-2h3.3c0.7,0.3,1.3,0.7,1.3,2v1.9h-1.8v-2.1l-0.4-0.4H310
				l-0.4,0.4v2.4l0.4,0.4l2.6,0.7C313.4,413.6,313.7,414.1,313.7,415.3z"/>
			<path class="st5" d="M315.1,407.9h5.1v1.6h-3.3v3.4h3.1v1.6h-3.1v3.7h3.4v1.6h-5.2V407.9z"/>
			<path class="st5" d="M327.4,417.9c0,1.3-0.6,1.7-1.3,2h-3.3c-0.7-0.3-1.3-0.7-1.3-2v-8c0-1.3,0.6-1.7,1.3-2h3.3
				c0.7,0.3,1.3,0.7,1.3,2v2.7h-1.8v-2.8l-0.4-0.4h-1.6l-0.4,0.4v8.3l0.4,0.4h1.6l0.4-0.4v-2.7h1.8V417.9z"/>
			<path class="st5" d="M332.1,409.5v10.3h-1.8v-10.3h-2.1v-1.6h6.1v1.6H332.1z"/>
			<path class="st5" d="M341,417.9c0,1.3-0.6,1.7-1.3,2h-3.3c-0.7-0.3-1.3-0.7-1.3-2v-8c0-1.3,0.6-1.7,1.3-2h3.3
				c0.7,0.3,1.3,0.7,1.3,2V417.9z M339.2,409.7l-0.4-0.4h-1.6l-0.4,0.4v8.3l0.4,0.4h1.6l0.4-0.4V409.7z"/>
			<path class="st5" d="M342.4,419.8v-12h4.6c0.7,0.3,1.3,0.7,1.3,2v2.6c0,1.3-0.6,1.6-1.3,1.9l-0.3,0.1l2.1,4.3v1.1h-1.6l-2.2-5.1
				h-0.8v5.1H342.4z M344.2,409.4v3.9h2l0.4-0.4v-3.1l-0.4-0.4H344.2z"/>
			<path class="st5" d="M353.4,419.8c-0.7-0.3-1.3-0.7-1.3-2v-1.7h1.8v1.8l0.4,0.4h1.7l0.4-0.4v-3.2l-0.4-0.3h-1.8V413h1.8l0.4-0.4
				v-3l-0.4-0.4h-1.7l-0.4,0.4v1.8h-1.8v-1.7c0-1.3,0.6-1.7,1.3-2h3.3c0.7,0.3,1.3,0.7,1.3,2v1.9c0,1-0.2,1.5-0.9,1.9
				c0.6,0.4,0.9,0.9,0.9,1.9v2.2c0,1.3-0.6,1.7-1.3,2H353.4z"/>
		</g>
		<line class="st16" x1="282.4" y1="413.9" x2="303.7" y2="413.9"/>
		<g>
			<path class="st5" d="M403.6,417.9c0,1.3-0.6,1.7-1.3,2h-4.6v-12h4.6c0.7,0.3,1.3,0.7,1.3,2V417.9z M399.5,409.4v9h2l0.4-0.4v-8.3
				l-0.4-0.4H399.5z"/>
			<path class="st5" d="M405,419.8v-12h4.6c0.7,0.3,1.3,0.7,1.3,2v2.6c0,1.3-0.6,1.6-1.3,1.9l-0.3,0.1l2.1,4.3v1.1h-1.6l-2.2-5.1
				h-0.8v5.1H405z M406.8,409.4v3.9h2l0.4-0.4v-3.1l-0.4-0.4H406.8z"/>
			<path class="st5" d="M418.1,415.3v2.6c0,1.3-0.6,1.7-1.3,2h-3.3c-0.7-0.3-1.3-0.7-1.3-2v-2h1.8v2.1l0.4,0.4h1.6l0.4-0.4v-2.8
				l-0.3-0.4l-2.6-0.8c-0.8-0.3-1.1-0.8-1.1-1.9v-2.2c0-1.3,0.6-1.7,1.3-2h3.3c0.7,0.3,1.3,0.7,1.3,2v1.9h-1.8v-2.1l-0.4-0.4h-1.6
				l-0.4,0.4v2.4l0.4,0.4l2.6,0.7C417.7,413.6,418.1,414.1,418.1,415.3z"/>
			<path class="st5" d="M425.6,409.5h-3.9v-1.6h5.8v1.5l-4,8.9h4v1.6h-5.9v-1.5L425.6,409.5z"/>
			<path class="st5" d="M434.8,417.9c0,1.3-0.6,1.7-1.3,2h-3.3c-0.7-0.3-1.3-0.7-1.3-2v-8c0-1.3,0.6-1.7,1.3-2h3.3
				c0.7,0.3,1.3,0.7,1.3,2V417.9z M433,409.7l-0.4-0.4H431l-0.4,0.4v8.3l0.4,0.4h1.6l0.4-0.4V409.7z"/>
			<path class="st5" d="M440.5,407.9h1.6v12h-1.6l-2.6-7.1h-0.2v7.1h-1.6v-12h1.6l2.6,7.1h0.2V407.9z"/>
			<path class="st5" d="M443.5,407.9h5.1v1.6h-3.3v3.4h3.1v1.6h-3.1v3.7h3.4v1.6h-5.2V407.9z"/>
		</g>
		<g>
			<g>
				<g>
					<g>
						<line class="st17" x1="373.7" y1="406.5" x2="373.7" y2="421.4"/>
					</g>
					<g>
						<path class="st7" d="M381.3,413.9c0,0.8-0.7,1.4-1.5,1.4c-0.8,0-1.5-0.6-1.5-1.4c0-0.8,0.7-1.4,1.5-1.4
							C380.7,412.5,381.3,413.2,381.3,413.9z"/>
					</g>
					<g>
						<ellipse class="st7" cx="385.9" cy="413.9" rx="1.5" ry="1.4"/>
					</g>
					<g>
						<line class="st17" x1="392" y1="406.5" x2="392" y2="421.4"/>
					</g>
				</g>
			</g>
		</g>
	</g>
	<g>
		<defs>
			
				<rect id="SVGID_1_" x="105.8" y="75.6" transform="matrix(0.9665 -0.2567 0.2567 0.9665 -16.5756 32.6948)" width="22.3" height="8.5"/>
		</defs>
		<clipPath id="SVGID_00000168100518656533549370000000995271999150877876_">
			<use xlink:href="#SVGID_1_"  style="overflow:visible;"/>
		</clipPath>
		<g style="clip-path:url(#SVGID_00000168100518656533549370000000995271999150877876_);">
			<polygon class="st19" points="128.3,84.1 125.6,84.9 118.3,79.5 122,71.2 124.7,70.4 121,78.7 			"/>
			<polygon class="st20" points="122.9,85.6 120.1,86.3 112.8,80.9 116.5,72.6 119.2,71.9 115.6,80.2 			"/>
			<polygon class="st21" points="117.4,87 114.6,87.8 107.3,82.4 111,74.1 113.7,73.3 110.1,81.7 			"/>
		</g>
	</g>
</g>
</svg>
