<?xml version="1.0" encoding="utf-8"?>
<!-- Generator: Adobe Illustrator 27.2.0, SVG Export Plug-In . SVG Version: 6.00 Build 0)  -->
<svg version="1.1" xmlns="http://www.w3.org/2000/svg" xmlns:xlink="http://www.w3.org/1999/xlink" x="0px" y="0px"
	 viewBox="0 0 700 480" style="enable-background:new 0 0 700 480;" xml:space="preserve">
<style type="text/css">
	.st0{fill:none;stroke:#646464;stroke-width:14.1732;stroke-linecap:round;stroke-linejoin:round;stroke-miterlimit:10;}
	.st1{fill:none;stroke:#FFD449;stroke-width:2.8346;stroke-miterlimit:10;}
	.st2{fill:none;stroke:#54C6EB;stroke-width:2.8346;stroke-miterlimit:10;}
	.st3{fill:none;stroke:#F4442E;stroke-width:2.8346;stroke-miterlimit:10;}
	.st4{fill:none;stroke:#FFFFFF;stroke-width:2.126;}
	.st5{fill:#646464;}
	.st6{fill:#FFFFFF;}
	.st7{fill:none;stroke:#646464;stroke-width:2.8346;stroke-miterlimit:10;}
	.st8{fill:#FF3380;}
	.st9{fill:none;stroke:#FF3380;stroke-width:1.9843;stroke-miterlimit:10;}
	.st10{fill:#09BC8A;}
	.st11{fill:none;stroke:#09BC8A;stroke-width:1.9843;stroke-miterlimit:10;}
	.st12{fill:none;stroke:#09BC8A;stroke-width:2.8346;stroke-miterlimit:10;}
	.st13{fill:none;stroke:#646464;stroke-width:0.7087;stroke-miterlimit:10;}
	.st14{fill:none;stroke:#F4442E;stroke-width:5.6693;stroke-miterlimit:10;}
	.st15{fill:none;stroke:#54C6EB;stroke-width:5.6693;stroke-miterlimit:10;}
	.st16{fill:none;stroke:#FFD449;stroke-width:5.6693;stroke-miterlimit:10;}
	.st17{clip-path:url(#SVGID_00000036242425255106921890000009692176625906198433_);}
	.st18{fill:#F4442E;}
	.st19{fill:#54C6EB;}
	.st20{fill:#FFD449;}
</style>
<g id="コース">
	<path class="st0" d="M530.3,135.9c-16.7,15.4-91,76.8-96.6,81.2c-4.1,3.3-11,6.1-1.8,14.5c2.7,2.4,2.5,6.4,0.1,8.6
		c-2.9,2.9-8.8,3.8-12,4c-7.8,0.4-18.3-1.2-25.5,2.8c-11.5,6.3-38.2,22.1-45.7,26.5c-7.5,4.4-14.8,8.3-18.6,9.8
		c-5.4,2.1-5.6,2.2-5.6,7.8c0.1,12.3-3.8,21.4-13.8,26.8c-9.2,5-17.6,4.2-22.8,2.6c-7-2-13-4-22.7,2c-7.5,4.7-12.7,9.7-14.5,11.4
		c-1.8,1.8-3.3,7.2-3.5,11.6c-0.3,6.8-4.7,9.1-10.7,11.9c-4.4,2.1-18.2,8.1-24,8.9c-6.4,0.9-14.3-4.3-18.2-9.1
		c-4-4.8-10.5-11.6-22.2-7.1c-9.2,3.5-15.8,3.3-21.5,3.2c-7.6-0.2-22.5,0.4-30.3,4.3c-2.4,1.2-17.8,7-35,14.4
		c-25.3,10.8-55.1,24.2-58.5,26c-5.7,3.1-15.9,12.5-4.8,26.3c10.5,13.2,33.8-2.2,38.6-10.5c4.8-8.3,18.4-23.7,31.6-29
		s27.7-6.6,41.7-4s22.4-2.2,27.2-3.5c4.8-1.3,13.2-4.4,19.3,7.5c6.1,11.9,25.9,7.9,31.2,5.7c5.3-2.2,24.1-7,39.1-24.6
		s33.5-30.6,44.5-32.6c11.2-2,37.2-13.5,48.6-31.9c10.9-17.6,26-28.4,35.1-33.8c12.7-7.5,33.5-14.1,47.9-14.9
		c10-0.5,12.6-0.4,17.6-12.3c3.9-9.3,5.3-15.5,12-20.5s14-9.1,16.7-10.2c2.6-1.2,9.4-3.5,20.2-1.8c10.8,1.8,44.2,7,60,1.5
		c15.8-5.6,35.8-17.2,50-29.3c22-18.7,40.7-41.3,47.7-65.6c2.6-9,12.3-40.4,13.2-46.8s-0.6-14-7.6-14.9c-7-0.9-13.8,5.3-17.6,7.9
		s-61.2,38.6-67.6,43.6s-19.3,13.5-25.8,18.7C539.5,128.3,530.3,135.9,530.3,135.9z"/>
</g>
<g id="セクター">
	<path class="st1" d="M402.1,257.8c8.7-2.8,17.7-4.7,25-5.1c10-0.5,12.6-0.4,17.6-12.3c3.9-9.3,5.3-15.5,12-20.5s14-9.1,16.7-10.2
		c2.6-1.2,9.4-3.5,20.2-1.8c10.8,1.8,44.2,7,60,1.5c15.8-5.6,35.8-17.2,50-29.3c22-18.7,40.7-41.3,47.7-65.6
		c2.6-9,12.3-40.4,13.2-46.8s-0.6-14-7.6-14.9c-7-0.9-13.8,5.3-17.6,7.9s-61.2,38.6-67.6,43.6s-19.3,13.5-25.8,18.7
		c-5.1,4.2-12,9.9-14.6,12"/>
	<path class="st2" d="M86.6,371.6c-0.3,0.1-0.7,0.3-1,0.4c-25.3,10.8-55.1,24.2-58.5,26c-5.7,3.1-15.9,12.5-4.8,26.3
		c10.5,13.2,33.8-2.2,38.6-10.5c4.8-8.3,18.4-23.7,31.6-29s27.7-6.6,41.7-4s22.4-2.2,27.2-3.5c4.8-1.3,13.2-4.4,19.3,7.5
		c6.1,11.9,25.9,7.9,31.2,5.7c5.3-2.2,24.1-7,39.1-24.6s33.5-30.6,44.5-32.6c11.2-2,37.2-13.5,48.6-31.9
		c10.9-17.6,26-28.4,35.1-33.8c6.2-3.7,14.4-7.1,22.8-9.8"/>
	<path class="st3" d="M531.3,135.1c-0.7,0.5-1,0.9-1,0.9c-16.7,15.4-91,76.8-96.6,81.2c-4.1,3.3-11,6.1-1.8,14.5
		c2.7,2.4,2.5,6.4,0.1,8.6c-2.9,2.9-8.8,3.8-12,4c-7.8,0.4-18.3-1.2-25.5,2.8c-11.5,6.3-38.2,22.1-45.7,26.5
		c-7.5,4.4-14.8,8.3-18.6,9.8c-5.4,2.1-5.6,2.2-5.6,7.8c0.1,12.3-3.8,21.4-13.8,26.8c-9.2,5-17.6,4.2-22.8,2.6c-7-2-13-4-22.7,2
		c-7.5,4.7-12.7,9.7-14.5,11.4c-1.8,1.8-3.3,7.2-3.5,11.6c-0.3,6.8-4.7,9.1-10.7,11.9c-4.4,2.1-18.2,8.1-24,8.9
		c-6.4,0.9-14.3-4.3-18.2-9.1c-4-4.8-10.5-11.6-22.2-7.1c-9.2,3.5-15.8,3.3-21.5,3.2c-7.6-0.2-22.5,0.4-30.3,4.3
		c-2.3,1.1-17.2,6.8-34,14"/>
</g>
<g id="コーナー番号">
	<g>
		<g>
			<circle class="st4" cx="417.8" cy="218.7" r="6.4"/>
			<circle class="st5" cx="417.8" cy="218.7" r="6.4"/>
		</g>
		<g>
			<path class="st6" d="M416.5,221.6v-1.2h0.7v-3.3h-0.6v-1.2h1.9v4.5h0.6v1.2H416.5z"/>
		</g>
	</g>
	<g>
		<g>
			<circle class="st4" cx="419.9" cy="234" r="6.4"/>
			<circle class="st5" cx="419.9" cy="234" r="6.4"/>
		</g>
		<g>
			<path class="st6" d="M418.4,236.9V235c0-0.4,0.1-0.7,0.4-0.9l1.4-0.6v-1.2l-0.1-0.1h-0.4l-0.1,0.1v0.8h-1.3v-1
				c0-0.6,0.3-0.8,0.6-1h1.9c0.4,0.1,0.6,0.4,0.6,1v1.4c0,0.4-0.1,0.7-0.4,0.9l-1.4,0.6v0.6h1.8v1.2H418.4z"/>
		</g>
	</g>
	<g>
		<g>
			<circle class="st4" cx="394.7" cy="230.7" r="6.4"/>
			<circle class="st5" cx="394.7" cy="230.7" r="6.4"/>
		</g>
		<g>
			<path class="st6" d="M393.8,233.6c-0.4-0.1-0.6-0.4-0.6-1v-0.8h1.3v0.6l0.1,0.1h0.4l0.1-0.1v-1.2l-0.1-0.1h-0.7v-1h0.7l0.1-0.1
				V229l-0.1-0.1h-0.4l-0.1,0.1v0.6h-1.3v-0.8c0-0.6,0.3-0.8,0.6-1h1.9c0.4,0.1,0.6,0.4,0.6,1v1c0,0.4-0.1,0.7-0.4,0.9
				c0.3,0.2,0.4,0.5,0.4,0.9v1.1c0,0.6-0.3,0.8-0.6,1H393.8z"/>
		</g>
	</g>
	<g>
		<g>
			<circle class="st4" cx="313.3" cy="275.4" r="6.4"/>
			<circle class="st5" cx="313.3" cy="275.4" r="6.4"/>
		</g>
		<g>
			<path class="st6" d="M314.5,277.1v1.1h-1.3v-1.1h-1.7V276l1.2-3.5h1.3l-1.2,3.4h0.4v-0.3l0.3-0.8h1v1.1h0.4v1.2H314.5z"/>
		</g>
	</g>
	<g>
		<g>
			<circle class="st4" cx="303.7" cy="304.2" r="6.4"/>
			<circle class="st5" cx="303.7" cy="304.2" r="6.4"/>
		</g>
		<g>
			<path class="st6" d="M302.8,307.1c-0.4-0.1-0.6-0.4-0.6-1v-0.8h1.2v0.6l0.1,0.1h0.5l0.1-0.1v-1.6l-0.1-0.1h-0.5l-0.1,0.1v0.3
				h-1.2v-3.4h3v1.1h-1.8v1.2l0.3-0.3h1c0.4,0.1,0.6,0.4,0.6,1v1.8c0,0.6-0.3,0.8-0.6,1H302.8z"/>
		</g>
	</g>
	<g>
		<g>
			<circle class="st4" cx="274.6" cy="303.1" r="6.4"/>
			<circle class="st5" cx="274.6" cy="303.1" r="6.4"/>
		</g>
		<g>
			<path class="st6" d="M275.5,306h-1.9c-0.4-0.1-0.6-0.4-0.6-1v-3.8c0-0.6,0.3-0.8,0.6-1h1.9c0.4,0.1,0.6,0.4,0.6,1v0.8h-1.3v-0.6
				l-0.1-0.1h-0.4l-0.1,0.1v1.3l0.2-0.2h1c0.4,0.1,0.6,0.3,0.6,1v1.6C276.1,305.7,275.9,305.9,275.5,306z M274.8,305L274.8,305
				l0.1-1.5l-0.1-0.1h-0.4l-0.1,0.1v1.4l0.1,0.1H274.8z"/>
		</g>
	</g>
	<g>
		<g>
			<circle class="st4" cx="236.3" cy="327.2" r="6.4"/>
			<circle class="st5" cx="236.3" cy="327.2" r="6.4"/>
		</g>
		<g>
			<path class="st6" d="M234.9,330.1l1.6-4.6h-1.8v-1.1h3.1v0.9l-1.6,4.9H234.9z"/>
		</g>
	</g>
	<g>
		<g>
			<circle class="st4" cx="234.6" cy="345.1" r="6.4"/>
			<circle class="st5" cx="234.6" cy="345.1" r="6.4"/>
		</g>
		<g>
			<path class="st6" d="M233.6,348c-0.4-0.1-0.6-0.4-0.6-1V346c0-0.4,0.1-0.7,0.4-0.9c-0.3-0.2-0.4-0.5-0.4-0.9v-1
				c0-0.6,0.3-0.8,0.6-1h1.9c0.4,0.1,0.6,0.4,0.6,1v1c0,0.4-0.1,0.7-0.4,0.9c0.3,0.2,0.4,0.5,0.4,0.9v1.1c0,0.6-0.3,0.8-0.6,1H233.6
				z M234.3,344.6L234.3,344.6l0.5,0.1l0.1-0.1v-1.2l-0.1-0.1h-0.4l-0.1,0.1V344.6z M234.8,346.9v-1.2l-0.1-0.1h-0.4l-0.1,0.1v1.2
				l0.1,0.1L234.8,346.9L234.8,346.9z"/>
		</g>
	</g>
	<g>
		<g>
			<circle class="st4" cx="209.5" cy="350.6" r="6.4"/>
			<circle class="st5" cx="209.5" cy="350.6" r="6.4"/>
		</g>
		<g>
			<path class="st6" d="M208.6,353.5c-0.4-0.1-0.6-0.4-0.6-1v-0.8h1.3v0.6l0.1,0.1h0.4l0.1-0.1v-1.3l-0.2,0.2h-1
				c-0.4-0.1-0.6-0.3-0.6-1v-1.6c0-0.6,0.3-0.8,0.6-1h1.9c0.4,0.1,0.6,0.4,0.6,1v3.8c0,0.6-0.3,0.8-0.6,1H208.6z M209.8,350.3v-1.4
				l-0.1-0.1h-0.4l-0.1,0.1v1.4l0.1,0.1L209.8,350.3L209.8,350.3z"/>
		</g>
	</g>
	<g>
		<g>
			<circle class="st4" cx="186.7" cy="334.2" r="6.4"/>
			<circle class="st5" cx="186.7" cy="334.2" r="6.4"/>
		</g>
		<g>
			<path class="st6" d="M183.7,337.1v-1.2h0.7v-3.3h-0.6v-1.2h1.9v4.5h0.6v1.2H183.7z"/>
			<path class="st6" d="M189.4,337.1h-1.9c-0.4-0.1-0.6-0.4-0.6-1v-3.8c0-0.6,0.3-0.8,0.6-1h1.9c0.4,0.1,0.6,0.4,0.6,1v3.8
				C190,336.8,189.8,337,189.4,337.1z M188.8,332.5L188.8,332.5l-0.5-0.1l-0.1,0.1v3.5l0.1,0.1h0.4l0.1-0.1V332.5z"/>
		</g>
	</g>
	<g>
		<g>
			<circle class="st4" cx="159.3" cy="337.5" r="6.4"/>
			<circle class="st5" cx="159.3" cy="337.5" r="6.4"/>
		</g>
		<g>
			<path class="st6" d="M156.3,340.4v-1.2h0.7v-3.3h-0.6v-1.2h1.9v4.5h0.6v1.2H156.3z"/>
			<path class="st6" d="M159.8,340.4v-1.2h0.7v-3.3h-0.6v-1.2h1.9v4.5h0.6v1.2H159.8z"/>
		</g>
	</g>
	<g>
		<g>
			<circle class="st4" cx="135.2" cy="338.6" r="6.4"/>
			<circle class="st5" cx="135.2" cy="338.6" r="6.4"/>
		</g>
		<g>
			<path class="st6" d="M132.1,341.5v-1.2h0.7v-3.3h-0.6v-1.2h1.9v4.5h0.6v1.2H132.1z"/>
			<path class="st6" d="M135.4,341.5v-1.9c0-0.4,0.1-0.7,0.4-0.9l1.4-0.6v-1.2l-0.1-0.1h-0.4l-0.1,0.1v0.8h-1.3v-1
				c0-0.6,0.3-0.8,0.6-1h1.9c0.4,0.1,0.6,0.4,0.6,1v1.5c0,0.4-0.1,0.7-0.4,0.9l-1.4,0.6v0.6h1.8v1.2H135.4z"/>
		</g>
	</g>
	<g>
		<g>
			<circle class="st4" cx="33.9" cy="413.2" r="6.4"/>
			<circle class="st5" cx="33.9" cy="413.2" r="6.4"/>
		</g>
		<g>
			<path class="st6" d="M30.9,416.1v-1.2h0.7v-3.3h-0.6v-1.2h1.9v4.5h0.6v1.2H30.9z"/>
			<path class="st6" d="M34.7,416.1c-0.4-0.1-0.6-0.4-0.6-1v-0.8h1.3v0.6l0.1,0.1h0.4l0.1-0.1v-1.2l-0.1-0.1h-0.7v-1h0.7l0.1-0.1
				v-1.2l-0.1-0.1h-0.4l-0.1,0.1v0.6h-1.3v-0.8c0-0.6,0.3-0.8,0.6-1h1.9c0.4,0.1,0.6,0.4,0.6,1v1c0,0.4-0.1,0.7-0.4,0.9
				c0.3,0.2,0.4,0.5,0.4,0.9v1.1c0,0.6-0.3,0.8-0.6,1H34.7z"/>
		</g>
	</g>
	<g>
		<g>
			<circle class="st4" cx="99.2" cy="398.9" r="6.4"/>
			<circle class="st5" cx="99.2" cy="398.9" r="6.4"/>
		</g>
		<g>
			<path class="st6" d="M96.1,401.8v-1.2h0.7v-3.3h-0.6v-1.2h1.9v4.5h0.6v1.2H96.1z"/>
			<path class="st6" d="M102.2,400.7v1.1h-1.3v-1.1h-1.7v-1.1l1.2-3.5h1.3l-1.2,3.4h0.4v-0.3l0.3-0.8h1v1.1h0.4v1.2H102.2z"/>
		</g>
	</g>
	<g>
		<g>
			<circle class="st4" cx="143.8" cy="397.2" r="6.4"/>
			<circle class="st5" cx="143.8" cy="397.2" r="6.4"/>
		</g>
		<g>
			<path class="st6" d="M140.8,400.1v-1.2h0.7v-3.3h-0.6v-1.2h1.9v4.5h0.6v1.2H140.8z"/>
			<path class="st6" d="M144.6,400.1c-0.4-0.1-0.6-0.4-0.6-1v-0.8h1.2v0.6l0.1,0.1h0.5l0.1-0.1v-1.6l-0.1-0.1h-0.5l-0.1,0.1v0.3H144
				v-3.4h3v1.1h-1.8v1.2l0.3-0.3h1c0.4,0.1,0.6,0.3,0.6,1v1.8c0,0.6-0.3,0.8-0.6,1H144.6z"/>
		</g>
	</g>
	<g>
		<g>
			<circle class="st4" cx="167.3" cy="392.2" r="6.4"/>
			<circle class="st5" cx="167.3" cy="392.2" r="6.4"/>
		</g>
		<g>
			<path class="st6" d="M164.3,395.1v-1.2h0.7v-3.3h-0.6v-1.2h1.9v4.5h0.6v1.2H164.3z"/>
			<path class="st6" d="M170,395.1h-1.9c-0.4-0.1-0.6-0.4-0.6-1v-3.8c0-0.6,0.3-0.8,0.6-1h1.9c0.4,0.1,0.6,0.4,0.6,1v0.8h-1.3v-0.6
				l-0.1-0.1h-0.4l-0.1,0.1v1.3l0.2-0.2h1c0.4,0.1,0.6,0.4,0.6,1v1.6C170.6,394.8,170.3,395,170,395.1z M169.2,394.1L169.2,394.1
				l0.1-1.5l-0.1-0.1h-0.4l-0.1,0.1v1.4l0.1,0.1H169.2z"/>
		</g>
	</g>
	<g>
		<g>
			<circle class="st4" cx="188.6" cy="407.9" r="6.4"/>
			<circle class="st5" cx="188.6" cy="407.9" r="6.4"/>
		</g>
		<g>
			<path class="st6" d="M185.6,410.8v-1.2h0.7v-3.3h-0.6v-1.2h1.9v4.5h0.6v1.2H185.6z"/>
			<path class="st6" d="M189,410.8l1.6-4.6h-1.8v-1.1h3.1v0.9l-1.6,4.9H189z"/>
		</g>
	</g>
	<g>
		<g>
			<circle class="st4" cx="229.2" cy="400.9" r="6.4"/>
			<circle class="st5" cx="229.2" cy="400.9" r="6.4"/>
		</g>
		<g>
			<path class="st6" d="M226.2,403.8v-1.2h0.7v-3.3h-0.6V398h1.9v4.5h0.6v1.2H226.2z"/>
			<path class="st6" d="M230,403.8c-0.4-0.1-0.6-0.4-0.6-1v-1.1c0-0.4,0.1-0.7,0.4-0.9c-0.3-0.2-0.4-0.5-0.4-0.9v-1
				c0-0.6,0.3-0.8,0.6-1h1.9c0.4,0.1,0.6,0.4,0.6,1v1c0,0.4-0.1,0.7-0.4,0.9c0.3,0.2,0.4,0.5,0.4,0.9v1.1c0,0.6-0.3,0.8-0.6,1H230z
				 M230.7,400.3L230.7,400.3l0.5,0.1l0.1-0.1v-1.2l-0.1-0.1h-0.4l-0.1,0.1V400.3z M231.2,402.7v-1.2l-0.1-0.1h-0.4l-0.1,0.1v1.2
				l0.1,0.1L231.2,402.7L231.2,402.7z"/>
		</g>
	</g>
	<g>
		<g>
			<circle class="st4" cx="284.2" cy="355.8" r="6.4"/>
			<circle class="st5" cx="284.2" cy="355.8" r="6.4"/>
		</g>
		<g>
			<path class="st6" d="M281.2,358.7v-1.2h0.7v-3.3h-0.6V353h1.9v4.5h0.6v1.2H281.2z"/>
			<path class="st6" d="M285,358.7c-0.4-0.1-0.6-0.4-0.6-1V357h1.3v0.6l0.1,0.1h0.4l0.1-0.1v-1.3l-0.2,0.2h-1
				c-0.4-0.1-0.6-0.3-0.6-1v-1.6c0-0.6,0.3-0.8,0.6-1h1.9c0.4,0.1,0.6,0.4,0.6,1v3.8c0,0.6-0.3,0.8-0.6,1H285z M286.2,355.5v-1.4
				l-0.1-0.1h-0.4l-0.1,0.1v1.4l0.1,0.1L286.2,355.5L286.2,355.5z"/>
		</g>
	</g>
	<g>
		<g>
			<circle class="st4" cx="377.7" cy="269" r="6.4"/>
			<circle class="st5" cx="377.7" cy="269" r="6.4"/>
		</g>
		<g>
			<path class="st6" d="M374.4,271.9V270c0-0.4,0.1-0.7,0.4-0.9l1.4-0.6v-1.2l-0.1-0.1h-0.4l-0.1,0.1v0.8h-1.3v-1
				c0-0.6,0.3-0.8,0.6-1h1.9c0.4,0.1,0.6,0.4,0.6,1v1.5c0,0.4-0.1,0.7-0.4,0.9l-1.4,0.6v0.6h1.8v1.2H374.4z"/>
			<path class="st6" d="M378.2,271.9v-1.2h0.7v-3.3h-0.6v-1.2h1.9v4.5h0.6v1.2H378.2z"/>
		</g>
	</g>
	<g>
		<g>
			<circle class="st4" cx="450.8" cy="259.6" r="6.4"/>
			<circle class="st5" cx="450.8" cy="259.6" r="6.4"/>
		</g>
		<g>
			<path class="st6" d="M447.5,262.5v-1.9c0-0.4,0.1-0.7,0.4-0.9l1.4-0.6v-1.2l-0.1-0.1h-0.4l-0.1,0.1v0.8h-1.3v-1
				c0-0.6,0.3-0.8,0.6-1h1.9c0.4,0.1,0.6,0.4,0.6,1v1.5c0,0.4-0.1,0.7-0.4,0.9l-1.4,0.6v0.6h1.8v1.2H447.5z"/>
			<path class="st6" d="M451,262.5v-1.9c0-0.4,0.1-0.7,0.4-0.9l1.4-0.6v-1.2l-0.1-0.1h-0.4l-0.1,0.1v0.8H451v-1c0-0.6,0.3-0.8,0.6-1
				h1.9c0.4,0.1,0.6,0.4,0.6,1v1.5c0,0.4-0.1,0.7-0.4,0.9l-1.4,0.6v0.6h1.8v1.2H451z"/>
		</g>
	</g>
	<g>
		<g>
			<circle class="st4" cx="464" cy="234.9" r="6.4"/>
			<circle class="st5" cx="464" cy="234.9" r="6.4"/>
		</g>
		<g>
			<path class="st6" d="M460.7,237.8v-1.9c0-0.4,0.1-0.7,0.4-0.9l1.4-0.6v-1.2l-0.1-0.1h-0.4l-0.1,0.1v0.8h-1.3v-1
				c0-0.6,0.3-0.8,0.6-1h1.9c0.4,0.1,0.6,0.4,0.6,1v1.4c0,0.4-0.1,0.7-0.4,0.9L462,236v0.6h1.8v1.2H460.7z"/>
			<path class="st6" d="M464.9,237.8c-0.4-0.1-0.6-0.4-0.6-1v-0.8h1.3v0.6l0.1,0.1h0.4l0.1-0.1v-1.2l-0.1-0.1h-0.7v-1h0.7l0.1-0.1
				v-1.2l-0.1-0.1h-0.4l-0.1,0.1v0.6h-1.3v-0.8c0-0.6,0.3-0.8,0.6-1h1.9c0.4,0.1,0.6,0.4,0.6,1v1c0,0.4-0.1,0.7-0.4,0.9
				c0.3,0.2,0.4,0.5,0.4,0.9v1.1c0,0.6-0.3,0.8-0.6,1H464.9z"/>
		</g>
	</g>
	<g>
		<g>
			<circle class="st4" cx="484.5" cy="223.6" r="6.4"/>
			<circle class="st5" cx="484.5" cy="223.6" r="6.4"/>
		</g>
		<g>
			<path class="st6" d="M481.2,226.6v-1.9c0-0.4,0.1-0.7,0.4-0.9l1.4-0.6v-1.2l-0.1-0.1h-0.4l-0.1,0.1v0.8h-1.3v-1
				c0-0.6,0.3-0.8,0.6-1h1.9c0.4,0.1,0.6,0.4,0.6,1v1.4c0,0.4-0.1,0.7-0.4,0.9l-1.4,0.6v0.6h1.8v1.2H481.2z"/>
			<path class="st6" d="M487.5,225.4v1.1h-1.3v-1.1h-1.7v-1.1l1.2-3.5h1.3l-1.2,3.4h0.4v-0.3l0.3-0.8h1v1.1h0.4v1.2H487.5z"/>
		</g>
	</g>
	<g>
		<g>
			<circle class="st4" cx="547.9" cy="195.7" r="6.4"/>
			<circle class="st5" cx="547.9" cy="195.7" r="6.4"/>
		</g>
		<g>
			<path class="st6" d="M544.6,198.6v-1.9c0-0.4,0.1-0.7,0.4-0.9l1.4-0.6V194l-0.1-0.1H546l-0.1,0.1v0.8h-1.3v-1
				c0-0.6,0.3-0.8,0.6-1h1.9c0.4,0.1,0.6,0.4,0.6,1v1.4c0,0.4-0.1,0.7-0.4,0.9l-1.4,0.6v0.6h1.8v1.2H544.6z"/>
			<path class="st6" d="M548.7,198.6c-0.4-0.1-0.6-0.4-0.6-1v-0.8h1.2v0.6l0.1,0.1h0.5l0.1-0.1v-1.6l-0.1-0.1h-0.5l-0.1,0.1v0.3
				h-1.2v-3.4h3v1.1h-1.8v1.2l0.3-0.3h1c0.4,0.1,0.6,0.4,0.6,1v1.8c0,0.6-0.3,0.8-0.6,1H548.7z"/>
		</g>
	</g>
	<g>
		<g>
			<circle class="st4" cx="625.6" cy="131.1" r="6.4"/>
			<circle class="st5" cx="625.6" cy="131.1" r="6.4"/>
		</g>
		<g>
			<path class="st6" d="M622.3,134v-1.9c0-0.4,0.1-0.7,0.4-0.9l1.4-0.6v-1.2l-0.1-0.1h-0.4l-0.1,0.1v0.8h-1.3v-1
				c0-0.6,0.3-0.8,0.6-1h1.9c0.4,0.1,0.6,0.4,0.6,1v1.4c0,0.4-0.1,0.7-0.4,0.9l-1.4,0.6v0.6h1.8v1.2H622.3z"/>
			<path class="st6" d="M628.3,134h-1.9c-0.4-0.1-0.6-0.4-0.6-1v-3.8c0-0.6,0.3-0.8,0.6-1h1.9c0.4,0.1,0.6,0.4,0.6,1v0.8h-1.3v-0.6
				l-0.1-0.1h-0.4l-0.1,0.1v1.3l0.2-0.2h1c0.4,0.1,0.6,0.4,0.6,1v1.6C628.9,133.7,628.6,133.9,628.3,134z M627.5,133L627.5,133
				l0.1-1.5l-0.1-0.1h-0.4l-0.1,0.1v1.4l0.1,0.1H627.5z"/>
		</g>
	</g>
	<g>
		<g>
			<circle class="st4" cx="647.4" cy="73.4" r="6.4"/>
			<circle class="st5" cx="647.4" cy="73.4" r="6.4"/>
		</g>
		<g>
			<path class="st6" d="M644.1,76.3v-1.9c0-0.4,0.1-0.7,0.4-0.9l1.4-0.6v-1.2l-0.1-0.1h-0.4l-0.1,0.1v0.8h-1.3v-1
				c0-0.6,0.3-0.8,0.6-1h1.9c0.4,0.1,0.6,0.4,0.6,1V73c0,0.4-0.1,0.7-0.4,0.9l-1.4,0.6v0.6h1.8v1.2H644.1z"/>
			<path class="st6" d="M647.8,76.3l1.6-4.6h-1.8v-1.1h3.1v0.9l-1.6,4.9H647.8z"/>
		</g>
	</g>
	<g>
		<g>
			<circle class="st4" cx="325.7" cy="319.8" r="6.4"/>
			<circle class="st5" cx="325.7" cy="319.8" r="6.4"/>
		</g>
		<g>
			<path class="st6" d="M322.4,322.7v-1.9c0-0.4,0.1-0.7,0.4-0.9l1.4-0.6v-1.2l-0.1-0.1h-0.4l-0.1,0.1v0.8h-1.3v-1
				c0-0.6,0.3-0.8,0.6-1h1.9c0.4,0.1,0.6,0.4,0.6,1v1.4c0,0.4-0.1,0.7-0.4,0.9l-1.4,0.6v0.6h1.8v1.2H322.4z"/>
			<path class="st6" d="M328.4,322.7h-1.9c-0.4-0.1-0.6-0.4-0.6-1v-3.8c0-0.6,0.3-0.8,0.6-1h1.9c0.4,0.1,0.6,0.4,0.6,1v3.8
				C329,322.4,328.7,322.6,328.4,322.7z M327.7,318.1L327.7,318.1l-0.5-0.1l-0.1,0.1v3.5l0.1,0.1h0.4l0.1-0.1V318.1z"/>
		</g>
	</g>
</g>
<g id="SPEED_x5F_TRAP">
	<g>
		<circle class="st7" cx="651.8" cy="112.9" r="4.7"/>
		<circle class="st8" cx="651.8" cy="112.9" r="4.7"/>
	</g>
	<g>
		<path class="st9" d="M589.9,144.6v-23.2c0-4.7,3.8-8.5,8.5-8.5h53.4"/>
	</g>
	<g>
		<g>
			<path class="st8" d="M610.8,160.8c0,0.8-0.6,1.4-1.4,1.4h-42.2c-0.8,0-1.4-0.6-1.4-1.4v-34.7c0-0.8,0.6-1.4,1.4-1.4h42.2
				c0.8,0,1.4,0.6,1.4,1.4V160.8z"/>
		</g>
		<g>
			<path class="st6" d="M577.9,137.7v2.7c0,1.3-0.6,1.7-1.3,2h-3.9c-0.7-0.3-1.3-0.7-1.3-2V138h2.7v2l0.2,0.2h0.8l0.2-0.2v-1.8
				l-0.2-0.2l-2.7-1.2c-0.8-0.4-0.9-0.9-0.9-1.8v-2.5c0-1.3,0.6-1.7,1.3-2h3.9c0.7,0.3,1.3,0.7,1.3,2v2.2h-2.7v-1.9l-0.2-0.2h-0.8
				l-0.2,0.2v1.7l0.2,0.3l2.7,1.1C577.8,136.2,577.9,136.8,577.9,137.7z"/>
			<path class="st6" d="M581.4,138.2v4.2h-2.7v-12h5.2c0.7,0.3,1.3,0.7,1.3,2v3.8c0,1.3-0.6,1.7-1.3,2H581.4z M581.4,132.6v3.5h1
				l0.2-0.2v-3.2l-0.2-0.2H581.4z"/>
			<path class="st6" d="M585.9,130.4h5.5v2.5h-2.8v2.2h2.7v2.5h-2.7v2.3h2.9v2.5h-5.6V130.4z"/>
			<path class="st6" d="M592.3,130.4h5.5v2.5h-2.8v2.2h2.7v2.5h-2.7v2.3h2.9v2.5h-5.6V130.4z"/>
			<path class="st6" d="M605.1,140.4c0,1.3-0.6,1.7-1.3,2h-5.2v-12h5.2c0.7,0.3,1.3,0.7,1.3,2V140.4z M601.3,132.6v7.7h1l0.2-0.2
				v-7.3l-0.2-0.2H601.3z"/>
			<path class="st6" d="M578.9,147.1v9.5h-2.7v-9.5h-1.9v-2.5h6.5v2.5H578.9z"/>
			<path class="st6" d="M581.3,156.5v-12h5.2c0.7,0.3,1.3,0.7,1.3,2v2.5c0,1.1-0.5,1.6-1.1,1.9l1.4,3.8v1.7h-2.3l-1.5-4.7H584v4.7
				H581.3z M584,146.7v3h1l0.2-0.2v-2.7l-0.2-0.2H584z"/>
			<path class="st6" d="M592.4,154.2h-1.3l-0.2,2.3h-2.5v-2l1.5-10h3.6l1.5,10v2h-2.5L592.4,154.2z M591.3,151.7h0.8l-0.3-3.8h-0.2
				L591.3,151.7z"/>
			<path class="st6" d="M598.4,152.4v4.2h-2.7v-12h5.2c0.7,0.3,1.3,0.7,1.3,2v3.8c0,1.3-0.6,1.7-1.3,2H598.4z M598.4,146.7v3.5h1
				l0.2-0.2v-3.2l-0.2-0.2H598.4z"/>
		</g>
	</g>
</g>
<g id="DRS">
	<g>
		<circle class="st7" cx="640.3" cy="60" r="4.7"/>
		<circle class="st10" cx="640.3" cy="60" r="4.7"/>
	</g>
	<g>
		<circle class="st7" cx="435.9" cy="251.7" r="4.7"/>
		<circle class="st10" cx="435.9" cy="251.7" r="4.7"/>
	</g>
	<g>
		<circle class="st7" cx="201.3" cy="392.9" r="4.7"/>
		<circle class="st10" cx="201.3" cy="392.9" r="4.7"/>
	</g>
	<g>
		<line class="st11" x1="201.3" y1="392.9" x2="201.3" y2="446"/>
	</g>
	<g>
		<g>
			<path class="st10" d="M573.8,66c0,0.8-0.6,1.4-1.4,1.4h-67.6c-0.8,0-1.4-0.6-1.4-1.4V17.2c0-0.8,0.6-1.4,1.4-1.4h67.6
				c0.8,0,1.4,0.6,1.4,1.4V66z"/>
		</g>
		<g>
			<path class="st6" d="M534.6,31.4c0,1.3-0.6,1.7-1.3,2h-5.2v-12h5.2c0.7,0.3,1.3,0.7,1.3,2V31.4z M530.8,23.6v7.7h1l0.2-0.2v-7.3
				l-0.2-0.2H530.8z"/>
			<path class="st6" d="M535.4,33.4v-12h5.2c0.7,0.3,1.3,0.7,1.3,2V26c0,1.1-0.5,1.6-1.1,1.9l1.4,3.8v1.7h-2.3l-1.5-4.7h-0.3v4.7
				H535.4z M538.1,23.6v3h1l0.2-0.2v-2.7l-0.2-0.2H538.1z"/>
			<path class="st6" d="M549.1,28.7v2.7c0,1.3-0.6,1.7-1.3,2h-3.9c-0.7-0.3-1.3-0.7-1.3-2V29h2.7v2l0.2,0.2h0.8l0.2-0.2v-1.8
				l-0.1-0.2l-2.7-1.2c-0.8-0.4-0.9-0.9-0.9-1.8v-2.5c0-1.3,0.6-1.7,1.3-2h3.9c0.7,0.3,1.3,0.7,1.3,2v2.2h-2.7v-1.9l-0.2-0.2h-0.8
				l-0.2,0.2v1.7l0.2,0.3l2.7,1.1C549,27.2,549.1,27.8,549.1,28.7z"/>
			<path class="st6" d="M515.5,45.6c0,1.3-0.6,1.7-1.3,2H509v-12h5.2c0.7,0.3,1.3,0.7,1.3,2V45.6z M511.7,37.7v7.7h1l0.2-0.2v-7.3
				l-0.2-0.2H511.7z"/>
			<path class="st6" d="M516.4,35.6h5.5v2.5H519v2.2h2.7v2.5H519v2.3h2.9v2.5h-5.6V35.6z"/>
			<path class="st6" d="M527,38.1v9.5h-2.7v-9.5h-1.9v-2.5h6.5v2.5H527z"/>
			<path class="st6" d="M529.4,35.6h5.5v2.5h-2.8v2.2h2.7v2.5h-2.7v2.3h2.9v2.5h-5.6V35.6z"/>
			<path class="st6" d="M542.3,45.6c0,1.3-0.6,1.7-1.3,2h-3.9c-0.7-0.3-1.3-0.7-1.3-2v-8c0-1.3,0.6-1.7,1.3-2h3.9
				c0.7,0.3,1.3,0.7,1.3,2v2.9h-2.7v-2.6l-0.2-0.2h-0.8l-0.2,0.2v7.3l0.2,0.2h0.8l0.2-0.2v-2.5h2.7V45.6z"/>
			<path class="st6" d="M547.4,38.1v9.5h-2.7v-9.5h-1.9v-2.5h6.5v2.5H547.4z"/>
			<path class="st6" d="M549.8,47.6v-2.5h0.5v-7h-0.5v-2.5h3.7v2.5H553v7h0.5v2.5H549.8z"/>
			<path class="st6" d="M560.8,45.6c0,1.3-0.6,1.7-1.3,2h-3.9c-0.7-0.3-1.3-0.7-1.3-2v-8c0-1.3,0.6-1.7,1.3-2h3.9
				c0.7,0.3,1.3,0.7,1.3,2V45.6z M558.1,37.9l-0.2-0.2h-0.8l-0.2,0.2v7.3l0.2,0.2h0.8l0.2-0.2V37.9z"/>
			<path class="st6" d="M565.8,35.6h2.3v12h-2.3l-1.7-5.2h-0.2v5.2h-2.3v-12h2.3l1.7,5.2h0.2V35.6z"/>
			<path class="st6" d="M523.4,52.3h-3.5v-2.5h6.5v2.2l-3.5,7.3h3.5v2.5h-6.5v-2.2L523.4,52.3z"/>
			<path class="st6" d="M533.7,59.7c0,1.3-0.6,1.7-1.3,2h-3.9c-0.7-0.3-1.3-0.7-1.3-2v-8c0-1.3,0.6-1.7,1.3-2h3.9
				c0.7,0.3,1.3,0.7,1.3,2V59.7z M531,52.1l-0.2-0.2H530l-0.2,0.2v7.3l0.2,0.2h0.8l0.2-0.2V52.1z"/>
			<path class="st6" d="M538.7,49.8h2.3v12h-2.3l-1.7-5.2h-0.2v5.2h-2.3v-12h2.3l1.7,5.2h0.2V49.8z"/>
			<path class="st6" d="M541.9,49.8h5.5v2.5h-2.8v2.2h2.7v2.5h-2.7v2.3h2.9v2.5h-5.6V49.8z"/>
			<path class="st6" d="M552.1,61.7c-0.7-0.3-1.3-0.7-1.3-2v-1.6h2.7v1.3l0.2,0.2h0.8l0.2-0.2v-2.6l-0.2-0.2h-1.5v-2h1.5l0.2-0.2
				v-2.4l-0.2-0.2h-0.8l-0.2,0.2v1.3h-2.7v-1.6c0-1.3,0.6-1.7,1.3-2h3.9c0.7,0.3,1.3,0.7,1.3,2v2.1c0,0.9-0.2,1.4-0.9,1.8
				c0.6,0.4,0.9,0.9,0.9,1.8v2.2c0,1.3-0.6,1.7-1.3,2H552.1z"/>
		</g>
	</g>
	<g>
		<line class="st11" x1="435.9" y1="251.7" x2="435.9" y2="319.8"/>
	</g>
	<g>
		<g>
			<path class="st10" d="M471.1,344.2c0,0.8-0.6,1.4-1.4,1.4h-67.6c-0.8,0-1.4-0.6-1.4-1.4v-48.8c0-0.8,0.6-1.4,1.4-1.4h67.6
				c0.8,0,1.4,0.6,1.4,1.4V344.2z"/>
		</g>
		<g>
			<path class="st6" d="M431.9,309.6c0,1.3-0.6,1.7-1.3,2h-5.2v-12h5.2c0.7,0.3,1.3,0.7,1.3,2V309.6z M428.1,301.8v7.7h1l0.2-0.2
				V302l-0.2-0.2H428.1z"/>
			<path class="st6" d="M432.8,311.6v-12h5.2c0.7,0.3,1.3,0.7,1.3,2v2.5c0,1.1-0.5,1.6-1.1,1.9l1.4,3.8v1.7h-2.3l-1.5-4.7h-0.3v4.7
				H432.8z M435.4,301.8v3h1l0.2-0.2V302l-0.2-0.2H435.4z"/>
			<path class="st6" d="M446.4,306.9v2.7c0,1.3-0.6,1.7-1.3,2h-3.9c-0.7-0.3-1.3-0.7-1.3-2v-2.4h2.7v2l0.2,0.2h0.8l0.2-0.2v-1.8
				l-0.1-0.2l-2.7-1.2c-0.8-0.4-0.9-0.9-0.9-1.8v-2.5c0-1.3,0.6-1.7,1.3-2h3.9c0.7,0.3,1.3,0.7,1.3,2v2.2h-2.7V302l-0.2-0.2h-0.8
				l-0.2,0.2v1.7l0.2,0.3l2.7,1.1C446.3,305.4,446.4,306,446.4,306.9z"/>
			<path class="st6" d="M412.9,323.8c0,1.3-0.6,1.7-1.3,2h-5.2v-12h5.2c0.7,0.3,1.3,0.7,1.3,2V323.8z M409,316v7.7h1l0.2-0.2v-7.3
				L410,316H409z"/>
			<path class="st6" d="M413.7,313.8h5.5v2.5h-2.8v2.2h2.7v2.5h-2.7v2.3h2.9v2.5h-5.6V313.8z"/>
			<path class="st6" d="M424.3,316.3v9.5h-2.7v-9.5h-1.9v-2.5h6.5v2.5H424.3z"/>
			<path class="st6" d="M426.7,313.8h5.5v2.5h-2.8v2.2h2.7v2.5h-2.7v2.3h2.9v2.5h-5.6V313.8z"/>
			<path class="st6" d="M439.6,323.8c0,1.3-0.6,1.7-1.3,2h-3.9c-0.7-0.3-1.3-0.7-1.3-2v-8c0-1.3,0.6-1.7,1.3-2h3.9
				c0.7,0.3,1.3,0.7,1.3,2v2.9H437v-2.6l-0.2-0.2H436l-0.2,0.2v7.3l0.2,0.2h0.8l0.2-0.2v-2.5h2.7V323.8z"/>
			<path class="st6" d="M444.7,316.3v9.5h-2.7v-9.5h-1.9v-2.5h6.5v2.5H444.7z"/>
			<path class="st6" d="M447.1,325.8v-2.5h0.5v-7h-0.5v-2.5h3.7v2.5h-0.5v7h0.5v2.5H447.1z"/>
			<path class="st6" d="M458.1,323.8c0,1.3-0.6,1.7-1.3,2h-3.9c-0.7-0.3-1.3-0.7-1.3-2v-8c0-1.3,0.6-1.7,1.3-2h3.9
				c0.7,0.3,1.3,0.7,1.3,2V323.8z M455.4,316.2l-0.2-0.2h-0.8l-0.2,0.2v7.3l0.2,0.2h0.8l0.2-0.2V316.2z"/>
			<path class="st6" d="M463.1,313.8h2.3v12h-2.3l-1.7-5.2h-0.2v5.2h-2.3v-12h2.3l1.7,5.2h0.2V313.8z"/>
			<path class="st6" d="M420.7,330.5h-3.5V328h6.5v2.2l-3.5,7.3h3.5v2.5h-6.5v-2.2L420.7,330.5z"/>
			<path class="st6" d="M431,338c0,1.3-0.6,1.7-1.3,2h-3.9c-0.7-0.3-1.3-0.7-1.3-2v-8c0-1.3,0.6-1.7,1.3-2h3.9
				c0.7,0.3,1.3,0.7,1.3,2V338z M428.4,330.3l-0.2-0.2h-0.8l-0.2,0.2v7.3l0.2,0.2h0.8l0.2-0.2V330.3z"/>
			<path class="st6" d="M436,328h2.3v12H436l-1.7-5.2h-0.2v5.2h-2.3v-12h2.3l1.7,5.2h0.2V328z"/>
			<path class="st6" d="M439.2,328h5.5v2.5h-2.8v2.2h2.7v2.5h-2.7v2.3h2.9v2.5h-5.6V328z"/>
			<path class="st6" d="M448.1,340v-4c0-0.9,0.2-1.5,0.9-1.8l2.9-1.3v-2.5l-0.2-0.2h-0.8l-0.2,0.2v1.7h-2.7V330c0-1.3,0.6-1.7,1.3-2
				h3.9c0.7,0.3,1.3,0.7,1.3,2v3c0,0.9-0.1,1.5-0.9,1.8l-2.9,1.3v1.3h3.8v2.5H448.1z"/>
		</g>
	</g>
	<g>
		<g>
			<path class="st10" d="M236.5,471.5c0,0.8-0.6,1.4-1.4,1.4h-67.6c-0.8,0-1.4-0.6-1.4-1.4v-48.8c0-0.8,0.6-1.4,1.4-1.4h67.6
				c0.8,0,1.4,0.6,1.4,1.4V471.5z"/>
		</g>
		<g>
			<path class="st6" d="M197.3,436.9c0,1.3-0.6,1.7-1.3,2h-5.2v-12h5.2c0.7,0.3,1.3,0.7,1.3,2V436.9z M193.5,429.1v7.7h1l0.2-0.2
				v-7.3l-0.2-0.2H193.5z"/>
			<path class="st6" d="M198.2,438.9v-12h5.2c0.7,0.3,1.3,0.7,1.3,2v2.5c0,1.1-0.5,1.6-1.1,1.9l1.4,3.8v1.7h-2.3l-1.5-4.7h-0.3v4.7
				H198.2z M200.8,429.1v3h1l0.2-0.2v-2.7l-0.2-0.2H200.8z"/>
			<path class="st6" d="M211.9,434.2v2.7c0,1.3-0.6,1.7-1.3,2h-3.9c-0.7-0.3-1.3-0.7-1.3-2v-2.4h2.7v2l0.2,0.2h0.8l0.2-0.2v-1.8
				l-0.1-0.2l-2.7-1.2c-0.8-0.4-0.9-0.9-0.9-1.8v-2.5c0-1.3,0.6-1.7,1.3-2h3.9c0.7,0.3,1.3,0.7,1.3,2v2.2h-2.7v-1.9l-0.2-0.2h-0.8
				l-0.2,0.2v1.7l0.2,0.3l2.7,1.1C211.7,432.7,211.9,433.3,211.9,434.2z"/>
			<path class="st6" d="M178.3,451.1c0,1.3-0.6,1.7-1.3,2h-5.2v-12h5.2c0.7,0.3,1.3,0.7,1.3,2V451.1z M174.4,443.3v7.7h1l0.2-0.2
				v-7.3l-0.2-0.2H174.4z"/>
			<path class="st6" d="M179.1,441.1h5.5v2.5h-2.8v2.2h2.7v2.5h-2.7v2.3h2.9v2.5h-5.6V441.1z"/>
			<path class="st6" d="M189.8,443.6v9.5h-2.7v-9.5h-1.9v-2.5h6.5v2.5H189.8z"/>
			<path class="st6" d="M192.2,441.1h5.5v2.5h-2.8v2.2h2.7v2.5h-2.7v2.3h2.9v2.5h-5.6V441.1z"/>
			<path class="st6" d="M205.1,451.1c0,1.3-0.6,1.7-1.3,2h-3.9c-0.7-0.3-1.3-0.7-1.3-2v-8c0-1.3,0.6-1.7,1.3-2h3.9
				c0.7,0.3,1.3,0.7,1.3,2v2.9h-2.7v-2.6l-0.2-0.2h-0.8l-0.2,0.2v7.3l0.2,0.2h0.8l0.2-0.2v-2.5h2.7V451.1z"/>
			<path class="st6" d="M210.1,443.6v9.5h-2.7v-9.5h-1.9v-2.5h6.5v2.5H210.1z"/>
			<path class="st6" d="M212.5,453.1v-2.5h0.5v-7h-0.5v-2.5h3.7v2.5h-0.5v7h0.5v2.5H212.5z"/>
			<path class="st6" d="M223.5,451.1c0,1.3-0.6,1.7-1.3,2h-3.9c-0.7-0.3-1.3-0.7-1.3-2v-8c0-1.3,0.6-1.7,1.3-2h3.9
				c0.7,0.3,1.3,0.7,1.3,2V451.1z M220.9,443.4l-0.2-0.2h-0.8l-0.2,0.2v7.3l0.2,0.2h0.8l0.2-0.2V443.4z"/>
			<path class="st6" d="M228.5,441.1h2.3v12h-2.3l-1.7-5.2h-0.2v5.2h-2.3v-12h2.3l1.7,5.2h0.2V441.1z"/>
			<path class="st6" d="M186.1,457.8h-3.5v-2.5h6.5v2.2l-3.5,7.3h3.5v2.5h-6.5v-2.2L186.1,457.8z"/>
			<path class="st6" d="M196.4,465.2c0,1.3-0.6,1.7-1.3,2h-3.9c-0.7-0.3-1.3-0.7-1.3-2v-8c0-1.3,0.6-1.7,1.3-2h3.9
				c0.7,0.3,1.3,0.7,1.3,2V465.2z M193.8,457.6l-0.2-0.2h-0.8l-0.2,0.2v7.3l0.2,0.2h0.8l0.2-0.2V457.6z"/>
			<path class="st6" d="M201.4,455.3h2.3v12h-2.3l-1.7-5.2h-0.2v5.2h-2.3v-12h2.3l1.7,5.2h0.2V455.3z"/>
			<path class="st6" d="M204.6,455.3h5.5v2.5h-2.8v2.2h2.7v2.5h-2.7v2.3h2.9v2.5h-5.6V455.3z"/>
			<path class="st6" d="M214.1,467.2v-2.5h1.5v-7h-1.3v-2.5h4v9.5h1.3v2.5H214.1z"/>
		</g>
	</g>
	<g>
		<g>
			<g>
				<g>
					<line class="st12" x1="524.4" y1="219.7" x2="522.8" y2="234.5"/>
				</g>
				<g>
					<path class="st10" d="M530.6,227.5c0,0.8-0.7,1.4-1.5,1.4c-0.8,0-1.4-0.7-1.4-1.5c0-0.8,0.7-1.4,1.5-1.3
						C530,226.1,530.6,226.7,530.6,227.5z"/>
				</g>
				<g>
					<path class="st10" d="M536.2,227.5c0,0.8-0.6,1.4-1.4,1.5c-0.8,0-1.4-0.6-1.4-1.4c0-0.8,0.6-1.4,1.4-1.5
						C535.6,226.1,536.2,226.7,536.2,227.5z"/>
				</g>
				<g>
					<path class="st10" d="M541.9,227c0.1,0.8-0.5,1.5-1.3,1.6c-0.8,0.1-1.5-0.5-1.5-1.3c-0.1-0.8,0.5-1.5,1.3-1.5
						C541.1,225.7,541.8,226.3,541.9,227z"/>
				</g>
				<g>
					<path class="st10" d="M547.4,226.3c0.1,0.8-0.4,1.5-1.2,1.6c-0.8,0.1-1.5-0.4-1.6-1.2c-0.1-0.8,0.4-1.5,1.2-1.6
						C546.6,225,547.3,225.5,547.4,226.3z"/>
				</g>
				<g>
					<path class="st10" d="M553,225.3c0.2,0.8-0.3,1.5-1.1,1.7c-0.8,0.1-1.5-0.4-1.7-1.1s0.3-1.5,1.1-1.7
						C552.1,224,552.8,224.5,553,225.3z"/>
				</g>
				<g>
					<path class="st10" d="M558.4,223.9c0.2,0.8-0.2,1.5-1,1.7c-0.8,0.2-1.5-0.2-1.7-1c-0.2-0.8,0.3-1.5,1-1.7
						C557.4,222.7,558.2,223.2,558.4,223.9z"/>
				</g>
				<g>
					<path class="st10" d="M563.8,222.3c0.2,0.7-0.2,1.6-0.9,1.8c-0.8,0.2-1.5-0.2-1.8-0.9c-0.2-0.7,0.2-1.5,0.9-1.8
						C562.8,221.2,563.6,221.6,563.8,222.3z"/>
				</g>
				<g>
					<path class="st10" d="M569.1,220.4c0.3,0.7-0.1,1.5-0.8,1.8c-0.7,0.3-1.6-0.1-1.8-0.8c-0.3-0.7,0.1-1.5,0.8-1.8
						C568,219.3,568.8,219.7,569.1,220.4z"/>
				</g>
				<g>
					<path class="st10" d="M574.3,218.2c0.3,0.7,0,1.6-0.7,1.9c-0.7,0.3-1.6,0-1.9-0.7c-0.3-0.7,0-1.6,0.7-1.9
						C573.1,217.2,573.9,217.5,574.3,218.2z"/>
				</g>
				<g>
					<path class="st10" d="M579.3,215.7c0.4,0.7,0.1,1.5-0.6,1.9c-0.7,0.4-1.6,0.1-1.9-0.6c-0.3-0.7-0.1-1.5,0.6-1.9
						C578.1,214.7,579,215,579.3,215.7z"/>
				</g>
				<g>
					<path class="st10" d="M584.3,213c0.4,0.7,0.1,1.5-0.5,1.9c-0.7,0.4-1.5,0.1-1.9-0.6c-0.4-0.7-0.1-1.5,0.5-1.9
						C583,212.1,583.9,212.3,584.3,213z"/>
				</g>
				<g>
					<path class="st10" d="M589.1,210.2c0.4,0.7,0.2,1.5-0.5,1.9c-0.7,0.4-1.5,0.1-1.9-0.5c-0.4-0.7-0.2-1.5,0.5-1.9
						C587.9,209.3,588.8,209.6,589.1,210.2z"/>
				</g>
				<g>
					<path class="st10" d="M594,207.4c0.4,0.7,0.2,1.5-0.5,1.9c-0.7,0.4-1.5,0.2-1.9-0.5c-0.4-0.7-0.2-1.5,0.5-1.9
						C592.7,206.5,593.6,206.7,594,207.4z"/>
				</g>
				<g>
					<path class="st10" d="M598.8,204.4c0.4,0.7,0.2,1.5-0.4,1.9c-0.7,0.4-1.5,0.2-1.9-0.4s-0.2-1.5,0.4-1.9
						C597.5,203.5,598.3,203.7,598.8,204.4z"/>
				</g>
				<g>
					<path class="st10" d="M603.5,201.3c0.4,0.6,0.3,1.5-0.4,2c-0.6,0.4-1.5,0.3-2-0.4c-0.4-0.7-0.3-1.5,0.4-2
						C602.1,200.5,603,200.7,603.5,201.3z"/>
				</g>
				<g>
					<path class="st10" d="M608.1,198.1c0.5,0.6,0.3,1.5-0.3,2c-0.6,0.5-1.5,0.3-2-0.3c-0.4-0.6-0.3-1.5,0.3-2
						C606.7,197.3,607.6,197.5,608.1,198.1z"/>
				</g>
				<g>
					<path class="st10" d="M612.6,194.7c0.5,0.6,0.4,1.5-0.3,2c-0.6,0.5-1.5,0.3-2-0.3s-0.3-1.5,0.3-2
						C611.2,194,612.1,194.1,612.6,194.7z"/>
				</g>
				<g>
					<path class="st10" d="M617,191.2c0.5,0.6,0.4,1.5-0.2,2c-0.6,0.5-1.5,0.4-2-0.2c-0.5-0.6-0.4-1.5,0.2-2
						C615.6,190.5,616.5,190.6,617,191.2z"/>
				</g>
				<g>
					<path class="st10" d="M621.2,187.5c0.5,0.6,0.5,1.5-0.1,2c-0.6,0.5-1.5,0.4-2-0.1c-0.5-0.6-0.5-1.5,0.1-2
						C619.8,186.9,620.7,186.9,621.2,187.5z"/>
				</g>
				<g>
					<path class="st10" d="M625.3,183.7c0.5,0.6,0.5,1.5,0,2c-0.6,0.5-1.5,0.5-2-0.1c-0.5-0.6-0.5-1.5,0-2S624.8,183.1,625.3,183.7z
						"/>
				</g>
				<g>
					<path class="st10" d="M629.3,179.7c0.6,0.5,0.6,1.4,0,2s-1.4,0.6-2,0s-0.6-1.5,0-2C627.9,179.2,628.7,179.2,629.3,179.7z"/>
				</g>
				<g>
					<path class="st10" d="M633.1,175.6c0.6,0.5,0.6,1.4,0.1,2s-1.4,0.6-2,0.1c-0.6-0.5-0.6-1.4-0.1-2
						C631.6,175.1,632.5,175.1,633.1,175.6z"/>
				</g>
				<g>
					<path class="st10" d="M636.8,171.3c0.6,0.5,0.7,1.4,0.2,2c-0.5,0.6-1.4,0.7-2,0.2c-0.6-0.5-0.7-1.4-0.2-2
						C635.3,170.9,636.1,170.8,636.8,171.3z"/>
				</g>
				<g>
					<path class="st10" d="M640.2,166.8c0.6,0.5,0.8,1.4,0.3,2c-0.5,0.6-1.4,0.7-2,0.3c-0.6-0.5-0.7-1.3-0.3-2
						C638.7,166.5,639.6,166.4,640.2,166.8z"/>
				</g>
				<g>
					<path class="st10" d="M643.5,162.3c0.6,0.4,0.8,1.3,0.4,2c-0.5,0.6-1.4,0.8-2,0.3s-0.8-1.3-0.3-1.9
						C642,162,642.8,161.8,643.5,162.3z"/>
				</g>
				<g>
					<path class="st10" d="M646.6,157.6c0.7,0.4,0.9,1.3,0.4,2c-0.4,0.7-1.3,0.8-2,0.4s-0.8-1.3-0.4-1.9
						C645.1,157.4,645.9,157.2,646.6,157.6z"/>
				</g>
				<g>
					<path class="st10" d="M649.5,152.8c0.7,0.4,0.9,1.3,0.5,1.9c-0.4,0.7-1.3,0.9-1.9,0.5s-0.9-1.3-0.5-1.9
						C648,152.6,648.9,152.4,649.5,152.8z"/>
				</g>
				<g>
					<path class="st10" d="M652.3,147.9c0.7,0.4,0.9,1.2,0.6,1.9c-0.4,0.7-1.2,0.9-1.9,0.5s-0.9-1.2-0.6-1.9
						C650.7,147.8,651.6,147.5,652.3,147.9z"/>
				</g>
				<g>
					<path class="st10" d="M654.9,142.9c0.7,0.4,1,1.2,0.6,1.9s-1.2,1-1.9,0.6c-0.7-0.4-1-1.2-0.6-1.9S654.2,142.6,654.9,142.9z"/>
				</g>
				<g>
					<path class="st10" d="M657.4,137.9c0.7,0.3,1,1.2,0.7,1.9c-0.3,0.7-1.2,1-1.9,0.7c-0.7-0.3-1-1.2-0.7-1.9
						C655.8,137.8,656.7,137.5,657.4,137.9z"/>
				</g>
				<g>
					<path class="st10" d="M659.8,132.8c0.7,0.3,1,1.2,0.7,1.9c-0.3,0.7-1.2,1-1.9,0.7c-0.7-0.3-1-1.2-0.7-1.9
						C658.2,132.8,659.1,132.4,659.8,132.8z"/>
				</g>
				<g>
					<path class="st10" d="M662,127.6c0.7,0.3,1,1.1,0.7,1.9c-0.3,0.7-1.1,1-1.9,0.7s-1-1.1-0.7-1.9
						C660.5,127.6,661.3,127.3,662,127.6z"/>
				</g>
				<g>
					<path class="st10" d="M664.2,122.4c0.7,0.3,1.1,1.1,0.8,1.8c-0.3,0.7-1.1,1.1-1.8,0.8c-0.7-0.3-1.1-1.1-0.8-1.8
						C662.6,122.5,663.5,122.1,664.2,122.4z"/>
				</g>
				<g>
					<path class="st10" d="M666.3,117.2c0.7,0.3,1.1,1.1,0.8,1.8c-0.3,0.7-1.1,1.1-1.8,0.8c-0.7-0.3-1.1-1.1-0.8-1.8
						C664.7,117.3,665.5,116.9,666.3,117.2z"/>
				</g>
				<g>
					<path class="st10" d="M668.3,111.9c0.7,0.3,1.1,1.1,0.8,1.8c-0.3,0.7-1.1,1.1-1.8,0.8s-1.1-1.1-0.8-1.8
						C666.7,112,667.5,111.7,668.3,111.9z"/>
				</g>
				<g>
					<path class="st10" d="M670.2,106.6c0.7,0.3,1.1,1.1,0.9,1.8s-1.1,1.1-1.8,0.8s-1.1-1.1-0.9-1.8
						C668.6,106.8,669.4,106.4,670.2,106.6z"/>
				</g>
				<g>
					<path class="st10" d="M672,101.3c0.7,0.3,1.1,1.1,0.9,1.8c-0.2,0.7-1.1,1.1-1.8,0.9c-0.7-0.3-1.1-1.1-0.9-1.8
						C670.5,101.5,671.3,101.1,672,101.3z"/>
				</g>
				<g>
					<path class="st10" d="M673.8,96c0.7,0.2,1.1,1,0.9,1.8c-0.3,0.7-1.1,1.1-1.8,0.9c-0.7-0.3-1.1-1.1-0.9-1.8
						C672.3,96.2,673.1,95.8,673.8,96z"/>
				</g>
				<g>
					<path class="st10" d="M675.6,90.7c0.7,0.2,1.2,1,0.9,1.8c-0.2,0.7-1,1.1-1.8,0.9c-0.7-0.2-1.2-1-0.9-1.8
						C674.1,90.8,674.9,90.4,675.6,90.7z"/>
				</g>
				<g>
					<line class="st12" x1="669.8" y1="84.4" x2="684" y2="88.9"/>
				</g>
			</g>
		</g>
	</g>
	<g>
		<g>
			<g>
				<g>
					<line class="st12" x1="431.3" y1="276.6" x2="431" y2="261.7"/>
				</g>
				<g>
					<path class="st10" d="M424,269.6c-0.1-0.8,0.5-1.5,1.3-1.5c0.8-0.1,1.5,0.5,1.6,1.3s-0.5,1.5-1.3,1.5
						C424.8,271,424.1,270.4,424,269.6z"/>
				</g>
				<g>
					<path class="st10" d="M418.3,270.4c-0.1-0.8,0.4-1.5,1.2-1.6c0.8-0.1,1.5,0.4,1.7,1.2c0.1,0.8-0.4,1.5-1.2,1.6
						C419.2,271.7,418.5,271.2,418.3,270.4z"/>
				</g>
				<g>
					<path class="st10" d="M412.7,271.7c-0.2-0.8,0.3-1.5,1-1.8c0.8-0.2,1.6,0.3,1.7,1.1c0.2,0.8-0.3,1.5-1.1,1.7
						C413.7,272.9,412.9,272.5,412.7,271.7z"/>
				</g>
				<g>
					<path class="st10" d="M407.2,273.4c-0.3-0.7,0.2-1.5,0.9-1.8c0.8-0.3,1.6,0.1,1.8,0.9s-0.2,1.6-0.9,1.8
						C408.3,274.5,407.5,274.1,407.2,273.4z"/>
				</g>
				<g>
					<path class="st10" d="M401.9,275.5c-0.3-0.7,0-1.6,0.8-1.9c0.8-0.3,1.6,0.1,1.9,0.8c0.3,0.7-0.1,1.5-0.8,1.8
						C403,276.5,402.2,276.2,401.9,275.5z"/>
				</g>
				<g>
					<path class="st10" d="M396.6,277.9c-0.4-0.7-0.1-1.5,0.7-1.9c0.7-0.4,1.6-0.1,1.9,0.6s0,1.6-0.7,1.9
						C397.9,278.9,397,278.6,396.6,277.9z"/>
				</g>
				<g>
					<path class="st10" d="M391.6,280.7c-0.4-0.7-0.2-1.5,0.5-2c0.7-0.4,1.6-0.2,2,0.5c0.4,0.7,0.1,1.5-0.6,1.9
						C392.9,281.6,392,281.4,391.6,280.7z"/>
				</g>
				<g>
					<path class="st10" d="M386.7,283.7c-0.4-0.7-0.2-1.5,0.5-2c0.7-0.4,1.6-0.2,2,0.4c0.4,0.7,0.2,1.5-0.5,2
						C388,284.5,387.1,284.4,386.7,283.7z"/>
				</g>
				<g>
					<path class="st10" d="M381.9,286.9c-0.4-0.7-0.2-1.5,0.4-2c0.7-0.4,1.5-0.3,2,0.4c0.4,0.7,0.2,1.5-0.4,2
						C383.2,287.7,382.3,287.5,381.9,286.9z"/>
				</g>
				<g>
					<path class="st10" d="M377,289.9c-0.4-0.7-0.2-1.5,0.5-2c0.7-0.4,1.6-0.2,2,0.4c0.4,0.7,0.2,1.5-0.5,2
						C378.3,290.8,377.5,290.6,377,289.9z"/>
				</g>
				<g>
					<path class="st10" d="M372.4,293.3c-0.5-0.6-0.4-1.5,0.3-2c0.7-0.5,1.6-0.4,2,0.3c0.5,0.6,0.3,1.5-0.3,2
						C373.8,294,372.9,293.9,372.4,293.3z"/>
				</g>
				<g>
					<path class="st10" d="M368.1,297.1c-0.6-0.5-0.5-1.5,0-2c0.6-0.6,1.5-0.5,2,0c0.5,0.6,0.5,1.5-0.1,2
						C369.6,297.7,368.7,297.7,368.1,297.1z"/>
				</g>
				<g>
					<path class="st10" d="M364.3,301.5c-0.6-0.5-0.7-1.4-0.2-2c0.5-0.6,1.4-0.7,2-0.2c0.6,0.5,0.6,1.4,0.1,2
						C365.8,301.9,364.9,301.9,364.3,301.5z"/>
				</g>
				<g>
					<path class="st10" d="M360.9,306c-0.6-0.4-0.8-1.3-0.3-2c0.5-0.7,1.4-0.8,2-0.3c0.6,0.5,0.8,1.4,0.3,2
						C362.4,306.3,361.5,306.5,360.9,306z"/>
				</g>
				<g>
					<path class="st10" d="M357.6,310.7c-0.6-0.5-0.8-1.3-0.3-2c0.5-0.6,1.3-0.8,2-0.4c0.6,0.5,0.8,1.3,0.3,2
						C359.1,311,358.2,311.2,357.6,310.7z"/>
				</g>
				<g>
					<path class="st10" d="M354.2,315.4c-0.6-0.5-0.8-1.4-0.3-2c0.5-0.6,1.4-0.8,2-0.3c0.6,0.5,0.8,1.4,0.3,2
						C355.7,315.7,354.8,315.9,354.2,315.4z"/>
				</g>
				<g>
					<path class="st10" d="M350.7,320c-0.6-0.5-0.7-1.4-0.2-2c0.5-0.6,1.4-0.7,2-0.3c0.6,0.5,0.7,1.4,0.2,2
						C352.2,320.3,351.3,320.4,350.7,320z"/>
				</g>
				<g>
					<path class="st10" d="M347,324.4c-0.6-0.5-0.6-1.4-0.1-2c0.5-0.6,1.4-0.7,2-0.2c0.6,0.5,0.7,1.4,0.2,2
						C348.5,324.8,347.6,324.9,347,324.4z"/>
				</g>
				<g>
					<path class="st10" d="M343.1,328.6c-0.6-0.6-0.5-1.4,0-2c0.5-0.6,1.4-0.6,2-0.1c0.6,0.5,0.6,1.4,0,2
						C344.6,329.1,343.6,329.1,343.1,328.6z"/>
				</g>
				<g>
					<path class="st10" d="M338.9,332.5c-0.5-0.6-0.4-1.5,0.1-2c0.6-0.5,1.5-0.5,2,0.1c0.5,0.6,0.5,1.5-0.1,2
						C340.3,333.1,339.4,333.1,338.9,332.5z"/>
				</g>
				<g>
					<path class="st10" d="M334.3,336c-0.4-0.6-0.3-1.5,0.3-2c0.6-0.4,1.5-0.3,2,0.3c0.5,0.6,0.4,1.5-0.3,2
						C335.7,336.8,334.8,336.6,334.3,336z"/>
				</g>
				<g>
					<path class="st10" d="M329.5,339.1c-0.4-0.7-0.2-1.5,0.5-1.9c0.7-0.4,1.5-0.2,2,0.5s0.2,1.5-0.5,2
						C330.7,340,329.9,339.8,329.5,339.1z"/>
				</g>
				<g>
					<path class="st10" d="M324.3,341.6c-0.3-0.7,0-1.6,0.7-1.9c0.7-0.3,1.5-0.1,1.9,0.7c0.3,0.7,0,1.6-0.7,1.9
						C325.5,342.7,324.7,342.4,324.3,341.6z"/>
				</g>
				<g>
					<path class="st10" d="M319.1,343.9c-0.3-0.7,0-1.6,0.8-1.9c0.7-0.3,1.6,0,1.9,0.7c0.3,0.7,0,1.6-0.8,1.9
						C320.2,345,319.4,344.7,319.1,343.9z"/>
				</g>
				<g>
					<path class="st10" d="M313.7,346.1c-0.3-0.7,0.1-1.6,0.8-1.8c0.7-0.3,1.6,0.1,1.9,0.8c0.3,0.7-0.1,1.6-0.8,1.8
						C314.8,347.2,314,346.8,313.7,346.1z"/>
				</g>
				<g>
					<path class="st10" d="M308.3,348.1c-0.3-0.7,0.1-1.6,0.8-1.8c0.7-0.3,1.6,0.1,1.8,0.8c0.3,0.7-0.1,1.6-0.8,1.8
						C309.4,349.2,308.6,348.9,308.3,348.1z"/>
				</g>
				<g>
					<path class="st10" d="M302.9,350.1c-0.3-0.7,0.1-1.6,0.9-1.8c0.7-0.3,1.6,0.1,1.8,0.8c0.3,0.7-0.1,1.6-0.9,1.8
						C304,351.2,303.2,350.8,302.9,350.1z"/>
				</g>
				<g>
					<line class="st12" x1="301.3" y1="358.6" x2="296.4" y2="344.5"/>
				</g>
			</g>
		</g>
	</g>
	<g>
		<g>
			<g>
				<g>
					<line class="st12" x1="614.8" y1="65.6" x2="607.2" y2="52.8"/>
				</g>
				<g>
					<path class="st10" d="M604.9,62.8c-0.4-0.7-0.2-1.5,0.5-1.9s1.5-0.2,1.9,0.5s0.2,1.5-0.5,1.9C606.2,63.7,605.3,63.5,604.9,62.8
						z"/>
				</g>
				<g>
					<path class="st10" d="M600,65.8c-0.4-0.7-0.2-1.5,0.5-1.9c0.7-0.4,1.5-0.2,1.9,0.5c0.4,0.7,0.2,1.5-0.5,1.9
						C601.3,66.6,600.4,66.4,600,65.8z"/>
				</g>
				<g>
					<path class="st10" d="M595.2,68.7c-0.4-0.7-0.2-1.5,0.5-2c0.7-0.4,1.5-0.2,1.9,0.5c0.4,0.7,0.2,1.5-0.5,1.9
						C596.5,69.6,595.6,69.4,595.2,68.7z"/>
				</g>
				<g>
					<path class="st10" d="M590.4,71.7c-0.4-0.7-0.2-1.5,0.5-2c0.7-0.4,1.5-0.2,2,0.5c0.4,0.7,0.2,1.5-0.5,1.9
						C591.6,72.6,590.8,72.4,590.4,71.7z"/>
				</g>
				<g>
					<path class="st10" d="M585.5,74.7c-0.4-0.7-0.2-1.5,0.5-2c0.7-0.4,1.5-0.2,2,0.5c0.4,0.7,0.2,1.5-0.5,2
						C586.8,75.5,585.9,75.3,585.5,74.7z"/>
				</g>
				<g>
					<path class="st10" d="M580.7,77.7c-0.4-0.7-0.2-1.5,0.4-2c0.7-0.4,1.5-0.2,2,0.4c0.4,0.7,0.2,1.5-0.4,2
						C582,78.6,581.1,78.4,580.7,77.7z"/>
				</g>
				<g>
					<path class="st10" d="M575.9,80.7c-0.4-0.7-0.2-1.5,0.4-2s1.5-0.2,2,0.4c0.4,0.7,0.2,1.5-0.4,2
						C577.2,81.6,576.3,81.4,575.9,80.7z"/>
				</g>
				<g>
					<path class="st10" d="M571.1,83.8c-0.4-0.7-0.2-1.5,0.4-2c0.7-0.4,1.5-0.2,2,0.4c0.4,0.7,0.2,1.5-0.4,2
						C572.4,84.6,571.6,84.4,571.1,83.8z"/>
				</g>
				<g>
					<path class="st10" d="M566.4,86.9c-0.4-0.7-0.2-1.5,0.4-2c0.7-0.4,1.5-0.2,2,0.4c0.4,0.7,0.2,1.5-0.4,2
						C567.7,87.7,566.8,87.5,566.4,86.9z"/>
				</g>
				<g>
					<path class="st10" d="M561.6,90c-0.4-0.7-0.3-1.5,0.4-2c0.7-0.4,1.5-0.3,2,0.4s0.2,1.5-0.4,2C562.9,90.8,562.1,90.6,561.6,90z"
						/>
				</g>
				<g>
					<path class="st10" d="M556.9,93.1c-0.4-0.6-0.3-1.5,0.4-2s1.5-0.3,2,0.4c0.4,0.7,0.3,1.5-0.4,2C558.2,94,557.3,93.8,556.9,93.1
						z"/>
				</g>
				<g>
					<path class="st10" d="M552.2,96.3c-0.4-0.6-0.3-1.5,0.4-2s1.5-0.3,2,0.4c0.4,0.6,0.3,1.5-0.4,2C553.5,97.1,552.7,97,552.2,96.3
						z"/>
				</g>
				<g>
					<path class="st10" d="M547.6,99.6c-0.5-0.6-0.3-1.5,0.3-2c0.6-0.5,1.5-0.3,2,0.3c0.4,0.6,0.3,1.5-0.3,2S548,100.2,547.6,99.6z"
						/>
				</g>
				<g>
					<path class="st10" d="M543,103c-0.5-0.6-0.4-1.5,0.3-2c0.6-0.5,1.5-0.3,2,0.3c0.5,0.6,0.3,1.5-0.3,2
						C544.4,103.7,543.5,103.6,543,103z"/>
				</g>
				<g>
					<path class="st10" d="M538.6,106.5c-0.5-0.6-0.4-1.5,0.2-2c0.6-0.5,1.5-0.4,2,0.2c0.5,0.6,0.4,1.5-0.2,2
						C540,107.2,539.1,107.1,538.6,106.5z"/>
				</g>
				<g>
					<path class="st10" d="M534.3,110.2c-0.5-0.6-0.5-1.5,0.1-2c0.6-0.5,1.5-0.4,2,0.1s0.5,1.5-0.1,2
						C535.7,110.9,534.8,110.8,534.3,110.2z"/>
				</g>
				<g>
					<path class="st10" d="M529.9,113.9c-0.5-0.6-0.5-1.5,0.1-2c0.6-0.5,1.5-0.4,2,0.1c0.5,0.6,0.5,1.5-0.1,2
						C531.4,114.5,530.5,114.5,529.9,113.9z"/>
				</g>
				<g>
					<path class="st10" d="M525.6,117.5c-0.5-0.6-0.5-1.5,0.1-2c0.6-0.5,1.5-0.4,2,0.1c0.5,0.6,0.5,1.5-0.1,2
						C527,118.2,526.1,118.1,525.6,117.5z"/>
				</g>
				<g>
					<path class="st10" d="M521.3,121.2c-0.5-0.6-0.5-1.5,0.1-2c0.6-0.5,1.5-0.4,2,0.1c0.5,0.6,0.5,1.5-0.1,2
						C522.7,121.9,521.8,121.8,521.3,121.2z"/>
				</g>
				<g>
					<path class="st10" d="M517,124.9c-0.5-0.6-0.5-1.5,0.1-2c0.6-0.5,1.5-0.4,2,0.1s0.5,1.5-0.1,2
						C518.4,125.5,517.5,125.5,517,124.9z"/>
				</g>
				<g>
					<path class="st10" d="M512.6,128.6c-0.5-0.6-0.5-1.5,0.1-2c0.6-0.5,1.5-0.4,2,0.1c0.5,0.6,0.5,1.5-0.1,2
						C514,129.2,513.1,129.2,512.6,128.6z"/>
				</g>
				<g>
					<path class="st10" d="M508.3,132.2c-0.5-0.6-0.5-1.5,0.1-2s1.5-0.4,2,0.1s0.5,1.5-0.1,2C509.7,132.9,508.8,132.8,508.3,132.2z"
						/>
				</g>
				<g>
					<path class="st10" d="M504,135.9c-0.5-0.6-0.4-1.5,0.1-2c0.6-0.5,1.5-0.4,2,0.1s0.4,1.5-0.1,2
						C505.4,136.6,504.5,136.5,504,135.9z"/>
				</g>
				<g>
					<path class="st10" d="M499.6,139.6c-0.5-0.6-0.4-1.5,0.1-2c0.6-0.5,1.5-0.4,2,0.1c0.5,0.6,0.4,1.5-0.1,2
						C501.1,140.2,500.2,140.2,499.6,139.6z"/>
				</g>
				<g>
					<path class="st10" d="M495.3,143.3c-0.5-0.6-0.4-1.5,0.2-2c0.6-0.5,1.5-0.4,2,0.1s0.4,1.5-0.2,2
						C496.7,143.9,495.8,143.8,495.3,143.3z"/>
				</g>
				<g>
					<path class="st10" d="M491,146.9c-0.5-0.6-0.4-1.5,0.2-2s1.5-0.4,2,0.2c0.5,0.6,0.4,1.5-0.2,2
						C492.4,147.6,491.5,147.5,491,146.9z"/>
				</g>
				<g>
					<path class="st10" d="M486.7,150.6c-0.5-0.6-0.4-1.5,0.2-2c0.6-0.5,1.5-0.4,2,0.2c0.5,0.6,0.4,1.5-0.2,2
						C488.1,151.3,487.2,151.2,486.7,150.6z"/>
				</g>
				<g>
					<path class="st10" d="M482.3,154.3c-0.5-0.6-0.4-1.5,0.2-2c0.6-0.5,1.5-0.4,2,0.2s0.4,1.5-0.2,2
						C483.7,154.9,482.8,154.9,482.3,154.3z"/>
				</g>
				<g>
					<path class="st10" d="M478,157.9c-0.5-0.6-0.4-1.5,0.2-2s1.5-0.4,2,0.2c0.5,0.6,0.4,1.5-0.2,2
						C479.4,158.6,478.5,158.5,478,157.9z"/>
				</g>
				<g>
					<path class="st10" d="M473.7,161.6c-0.5-0.6-0.4-1.5,0.2-2c0.6-0.5,1.5-0.4,2,0.2c0.5,0.6,0.4,1.5-0.2,2
						C475.1,162.3,474.2,162.2,473.7,161.6z"/>
				</g>
				<g>
					<path class="st10" d="M469.3,165.3c-0.5-0.6-0.4-1.5,0.2-2s1.5-0.4,2,0.2s0.4,1.5-0.2,2C470.8,165.9,469.9,165.9,469.3,165.3z"
						/>
				</g>
				<g>
					<path class="st10" d="M465,169c-0.5-0.6-0.4-1.5,0.2-2c0.6-0.5,1.5-0.4,2,0.2c0.5,0.6,0.4,1.5-0.2,2
						C466.4,169.6,465.5,169.5,465,169z"/>
				</g>
				<g>
					<path class="st10" d="M460.7,172.6c-0.5-0.6-0.4-1.5,0.2-2c0.6-0.5,1.5-0.4,2,0.2c0.5,0.6,0.4,1.5-0.2,2
						S461.2,173.2,460.7,172.6z"/>
				</g>
				<g>
					<path class="st10" d="M456.4,176.3c-0.5-0.6-0.4-1.5,0.2-2c0.6-0.5,1.5-0.4,2,0.2s0.4,1.5-0.2,2
						C457.8,177,456.9,176.9,456.4,176.3z"/>
				</g>
				<g>
					<path class="st10" d="M452,180c-0.5-0.6-0.4-1.5,0.2-2c0.6-0.5,1.5-0.4,2,0.2c0.5,0.6,0.4,1.5-0.2,2
						C453.4,180.6,452.5,180.6,452,180z"/>
				</g>
				<g>
					<path class="st10" d="M447.7,183.6c-0.5-0.6-0.4-1.5,0.2-2c0.6-0.5,1.5-0.4,2,0.2c0.5,0.6,0.4,1.5-0.2,2
						S448.2,184.2,447.7,183.6z"/>
				</g>
				<g>
					<path class="st10" d="M443.4,187.3c-0.5-0.6-0.4-1.5,0.2-2c0.6-0.5,1.5-0.4,2,0.2c0.5,0.6,0.4,1.5-0.2,2
						C444.8,188,443.9,187.9,443.4,187.3z"/>
				</g>
				<g>
					<path class="st10" d="M439.1,191c-0.5-0.6-0.4-1.5,0.2-2c0.6-0.5,1.5-0.4,2,0.2s0.4,1.5-0.2,2
						C440.5,191.7,439.6,191.6,439.1,191z"/>
				</g>
				<g>
					<path class="st10" d="M434.7,194.7c-0.5-0.6-0.4-1.5,0.2-2c0.6-0.5,1.5-0.4,2,0.2c0.5,0.6,0.4,1.5-0.2,2
						C436.1,195.3,435.2,195.3,434.7,194.7z"/>
				</g>
				<g>
					<path class="st10" d="M430.4,198.3c-0.5-0.6-0.4-1.5,0.2-2c0.6-0.5,1.5-0.4,2,0.2s0.4,1.5-0.2,2
						C431.8,199,430.9,198.9,430.4,198.3z"/>
				</g>
				<g>
					<path class="st10" d="M426.1,202c-0.5-0.6-0.4-1.5,0.2-2c0.6-0.5,1.5-0.4,2,0.2c0.5,0.6,0.4,1.5-0.2,2
						C427.5,202.7,426.6,202.6,426.1,202z"/>
				</g>
				<g>
					<line class="st12" x1="427.6" y1="210.4" x2="418" y2="199.1"/>
				</g>
			</g>
		</g>
	</g>
	<g>
		<path class="st11" d="M574.3,41.6h57.5c4.7,0,8.5,3.8,8.5,8.5V60"/>
	</g>
</g>
<g id="アイコン">
	<g>
		<g>
			<path class="st6" d="M679.8,460.2c0,1.6-1.3,2.8-2.8,2.8H308.2c-1.6,0-2.8-1.3-2.8-2.8v-24.9c0-1.6,1.3-2.8,2.8-2.8H677
				c1.6,0,2.8,1.3,2.8,2.8V460.2z"/>
			<path class="st13" d="M679.8,460.2c0,1.6-1.3,2.8-2.8,2.8H308.2c-1.6,0-2.8-1.3-2.8-2.8v-24.9c0-1.6,1.3-2.8,2.8-2.8H677
				c1.6,0,2.8,1.3,2.8,2.8V460.2z"/>
		</g>
		<g>
			<path class="st5" d="M350.9,449.1v2.6c0,1.3-0.6,1.7-1.3,2h-3.3c-0.7-0.3-1.3-0.7-1.3-2v-2h1.8v2.1l0.4,0.4h1.6l0.4-0.4v-2.8
				l-0.3-0.4l-2.6-0.8c-0.8-0.3-1.1-0.8-1.1-1.9v-2.2c0-1.3,0.6-1.7,1.3-2h3.3c0.7,0.3,1.3,0.7,1.3,2v1.9h-1.8v-2.1l-0.4-0.4h-1.6
				l-0.4,0.4v2.4l0.4,0.4l2.6,0.7C350.5,447.5,350.9,448,350.9,449.1z"/>
			<path class="st5" d="M352.2,441.7h5.1v1.6H354v3.4h3.1v1.6H354v3.7h3.4v1.6h-5.2V441.7z"/>
			<path class="st5" d="M364.5,451.7c0,1.3-0.6,1.7-1.3,2h-3.3c-0.7-0.3-1.3-0.7-1.3-2v-8c0-1.3,0.6-1.7,1.3-2h3.3
				c0.7,0.3,1.3,0.7,1.3,2v2.7h-1.8v-2.8l-0.4-0.4h-1.6l-0.4,0.4v8.3l0.4,0.4h1.6l0.4-0.4v-2.7h1.8V451.7z"/>
			<path class="st5" d="M369.3,443.4v10.3h-1.8v-10.3h-2.1v-1.6h6.1v1.6H369.3z"/>
			<path class="st5" d="M378.1,451.7c0,1.3-0.6,1.7-1.3,2h-3.3c-0.7-0.3-1.3-0.7-1.3-2v-8c0-1.3,0.6-1.7,1.3-2h3.3
				c0.7,0.3,1.3,0.7,1.3,2V451.7z M376.4,443.6l-0.4-0.4h-1.6l-0.4,0.4v8.3l0.4,0.4h1.6l0.4-0.4V443.6z"/>
			<path class="st5" d="M379.5,453.7v-12h4.6c0.7,0.3,1.3,0.7,1.3,2v2.6c0,1.3-0.6,1.6-1.3,1.9l-0.3,0.1l2.1,4.3v1.1h-1.6l-2.2-5.1
				h-0.8v5.1H379.5z M381.3,443.2v3.9h2l0.4-0.4v-3.1l-0.4-0.4H381.3z"/>
			<path class="st5" d="M389.6,453.7v-1.6h1.8v-8.7h-1.7v-1.6h3.5v10.4h1.7v1.6H389.6z"/>
		</g>
		<line class="st14" x1="319.5" y1="447.8" x2="340.8" y2="447.8"/>
		<g>
			<path class="st5" d="M441,449.1v2.6c0,1.3-0.6,1.7-1.3,2h-3.3c-0.7-0.3-1.3-0.7-1.3-2v-2h1.8v2.1l0.4,0.4h1.6l0.4-0.4v-2.8
				l-0.3-0.4l-2.6-0.8c-0.8-0.3-1.1-0.8-1.1-1.9v-2.2c0-1.3,0.6-1.7,1.3-2h3.3c0.7,0.3,1.3,0.7,1.3,2v1.9h-1.8v-2.1l-0.4-0.4h-1.6
				l-0.4,0.4v2.4l0.4,0.4l2.6,0.7C440.6,447.5,441,448,441,449.1z"/>
			<path class="st5" d="M442.3,441.7h5.1v1.6h-3.3v3.4h3.1v1.6h-3.1v3.7h3.4v1.6h-5.2V441.7z"/>
			<path class="st5" d="M454.6,451.7c0,1.3-0.6,1.7-1.3,2H450c-0.7-0.3-1.3-0.7-1.3-2v-8c0-1.3,0.6-1.7,1.3-2h3.3
				c0.7,0.3,1.3,0.7,1.3,2v2.7h-1.8v-2.8l-0.4-0.4h-1.6l-0.4,0.4v8.3l0.4,0.4h1.6l0.4-0.4v-2.7h1.8V451.7z"/>
			<path class="st5" d="M459.4,443.4v10.3h-1.8v-10.3h-2.1v-1.6h6.1v1.6H459.4z"/>
			<path class="st5" d="M468.3,451.7c0,1.3-0.6,1.7-1.3,2h-3.3c-0.7-0.3-1.3-0.7-1.3-2v-8c0-1.3,0.6-1.7,1.3-2h3.3
				c0.7,0.3,1.3,0.7,1.3,2V451.7z M466.5,443.6l-0.4-0.4h-1.6l-0.4,0.4v8.3l0.4,0.4h1.6l0.4-0.4V443.6z"/>
			<path class="st5" d="M469.7,453.7v-12h4.6c0.7,0.3,1.3,0.7,1.3,2v2.6c0,1.3-0.6,1.6-1.3,1.9l-0.3,0.1l2.1,4.3v1.1h-1.6l-2.2-5.1
				h-0.8v5.1H469.7z M471.5,443.2v3.9h2l0.4-0.4v-3.1l-0.4-0.4H471.5z"/>
			<path class="st5" d="M479.4,453.7v-3.6c0-1.1,0.4-1.7,1.2-2.1l3-1.2v-3.2l-0.4-0.4h-1.7l-0.4,0.4v2h-1.8v-1.9
				c0-1.3,0.6-1.7,1.3-2h3.3c0.7,0.3,1.3,0.7,1.3,2v2.5c0,1.1-0.3,1.7-1.1,2.1l-3,1.2v2.5h4.1v1.6H479.4z"/>
		</g>
		<line class="st15" x1="409.6" y1="447.8" x2="430.9" y2="447.8"/>
		<g>
			<path class="st5" d="M530.8,449.1v2.6c0,1.3-0.6,1.7-1.3,2h-3.3c-0.7-0.3-1.3-0.7-1.3-2v-2h1.8v2.1l0.4,0.4h1.6l0.4-0.4v-2.8
				l-0.3-0.4l-2.6-0.8c-0.8-0.3-1.1-0.8-1.1-1.9v-2.2c0-1.3,0.6-1.7,1.3-2h3.3c0.7,0.3,1.3,0.7,1.3,2v1.9H529v-2.1l-0.4-0.4H527
				l-0.4,0.4v2.4l0.4,0.4l2.6,0.7C530.4,447.5,530.8,448,530.8,449.1z"/>
			<path class="st5" d="M532.1,441.7h5.1v1.6h-3.3v3.4h3.1v1.6h-3.1v3.7h3.4v1.6h-5.2V441.7z"/>
			<path class="st5" d="M544.4,451.7c0,1.3-0.6,1.7-1.3,2h-3.3c-0.7-0.3-1.3-0.7-1.3-2v-8c0-1.3,0.6-1.7,1.3-2h3.3
				c0.7,0.3,1.3,0.7,1.3,2v2.7h-1.8v-2.8l-0.4-0.4h-1.6l-0.4,0.4v8.3l0.4,0.4h1.6l0.4-0.4v-2.7h1.8V451.7z"/>
			<path class="st5" d="M549.2,443.4v10.3h-1.8v-10.3h-2.1v-1.6h6.1v1.6H549.2z"/>
			<path class="st5" d="M558.1,451.7c0,1.3-0.6,1.7-1.3,2h-3.3c-0.7-0.3-1.3-0.7-1.3-2v-8c0-1.3,0.6-1.7,1.3-2h3.3
				c0.7,0.3,1.3,0.7,1.3,2V451.7z M556.3,443.6l-0.4-0.4h-1.6l-0.4,0.4v8.3l0.4,0.4h1.6l0.4-0.4V443.6z"/>
			<path class="st5" d="M559.5,453.7v-12h4.6c0.7,0.3,1.3,0.7,1.3,2v2.6c0,1.3-0.6,1.6-1.3,1.9l-0.3,0.1l2.1,4.3v1.1h-1.6l-2.2-5.1
				h-0.8v5.1H559.5z M561.3,443.2v3.9h2l0.4-0.4v-3.1l-0.4-0.4H561.3z"/>
			<path class="st5" d="M570.5,453.7c-0.7-0.3-1.3-0.7-1.3-2v-1.7h1.8v1.8l0.4,0.4h1.7l0.4-0.4v-3.2l-0.4-0.3h-1.8v-1.4h1.8l0.4-0.4
				v-3l-0.4-0.4h-1.7l-0.4,0.4v1.8h-1.8v-1.7c0-1.3,0.6-1.7,1.3-2h3.3c0.7,0.3,1.3,0.7,1.3,2v1.9c0,1-0.2,1.5-0.9,1.9
				c0.6,0.4,0.9,0.9,0.9,1.9v2.2c0,1.3-0.6,1.7-1.3,2H570.5z"/>
		</g>
		<line class="st16" x1="499.5" y1="447.8" x2="520.7" y2="447.8"/>
		<g>
			<path class="st5" d="M620.7,451.7c0,1.3-0.6,1.7-1.3,2h-4.6v-12h4.6c0.7,0.3,1.3,0.7,1.3,2V451.7z M616.6,443.2v9h2l0.4-0.4v-8.3
				l-0.4-0.4H616.6z"/>
			<path class="st5" d="M622.1,453.7v-12h4.6c0.7,0.3,1.3,0.7,1.3,2v2.6c0,1.3-0.6,1.6-1.3,1.9l-0.3,0.1l2.1,4.3v1.1H627l-2.2-5.1
				h-0.8v5.1H622.1z M623.9,443.2v3.9h2l0.4-0.4v-3.1l-0.4-0.4H623.9z"/>
			<path class="st5" d="M635.1,449.1v2.6c0,1.3-0.6,1.7-1.3,2h-3.3c-0.7-0.3-1.3-0.7-1.3-2v-2h1.8v2.1l0.4,0.4h1.6l0.4-0.4v-2.8
				l-0.3-0.4l-2.6-0.8c-0.8-0.3-1.1-0.8-1.1-1.9v-2.2c0-1.3,0.6-1.7,1.3-2h3.3c0.7,0.3,1.3,0.7,1.3,2v1.9h-1.8v-2.1l-0.4-0.4h-1.6
				l-0.4,0.4v2.4l0.4,0.4l2.6,0.7C634.8,447.5,635.1,448,635.1,449.1z"/>
			<path class="st5" d="M642.7,443.4h-3.9v-1.6h5.8v1.5l-4,8.9h4v1.6h-5.9v-1.5L642.7,443.4z"/>
			<path class="st5" d="M651.8,451.7c0,1.3-0.6,1.7-1.3,2h-3.3c-0.7-0.3-1.3-0.7-1.3-2v-8c0-1.3,0.6-1.7,1.3-2h3.3
				c0.7,0.3,1.3,0.7,1.3,2V451.7z M650,443.6l-0.4-0.4h-1.6l-0.4,0.4v8.3l0.4,0.4h1.6l0.4-0.4V443.6z"/>
			<path class="st5" d="M657.5,441.7h1.6v12h-1.6l-2.6-7.1h-0.2v7.1h-1.6v-12h1.6l2.6,7.1h0.2V441.7z"/>
			<path class="st5" d="M660.5,441.7h5.1v1.6h-3.3v3.4h3.1v1.6h-3.1v3.7h3.4v1.6h-5.2V441.7z"/>
		</g>
		<g>
			<g>
				<g>
					<g>
						<line class="st12" x1="590.8" y1="440.4" x2="590.8" y2="455.2"/>
					</g>
					<g>
						<ellipse class="st10" cx="596.9" cy="447.8" rx="1.5" ry="1.4"/>
					</g>
					<g>
						<ellipse class="st10" cx="602.9" cy="447.8" rx="1.5" ry="1.4"/>
					</g>
					<g>
						<line class="st12" x1="609" y1="440.4" x2="609" y2="455.2"/>
					</g>
				</g>
			</g>
		</g>
	</g>
	<g>
		
			<rect x="531.4" y="146.3" transform="matrix(0.7395 -0.6732 0.6732 0.7395 39.3572 397.1788)" class="st5" width="2.8" height="2.8"/>
		
			<rect x="535.6" y="142.5" transform="matrix(0.7395 -0.6732 0.6732 0.7395 43.0183 399.0068)" class="st5" width="2.8" height="2.8"/>
		
			<rect x="535.4" y="146.5" transform="matrix(0.7395 -0.6732 0.6732 0.7395 40.2737 399.9234)" class="st5" width="2.8" height="2.8"/>
		
			<rect x="539.6" y="142.7" transform="matrix(0.7395 -0.6732 0.6732 0.7395 43.9349 401.7514)" class="st5" width="2.8" height="2.8"/>
		
			<rect x="539.2" y="150.7" transform="matrix(0.7395 -0.6732 0.6732 0.7395 38.4458 403.5846)" class="st5" width="2.8" height="2.8"/>
		
			<rect x="543.4" y="146.9" transform="matrix(0.7395 -0.6732 0.6732 0.7395 42.1069 405.4126)" class="st5" width="2.8" height="2.8"/>
		
			<rect x="539.8" y="138.7" transform="matrix(0.7395 -0.6732 0.6732 0.7395 46.6795 400.8348)" class="st5" width="2.8" height="2.8"/>
		
			<rect x="537.7" y="140.6" transform="matrix(0.7395 -0.6732 0.6732 0.7395 44.8489 399.9208)" class="st6" width="2.8" height="2.8"/>
		
			<rect x="533.5" y="144.4" transform="matrix(0.7395 -0.6732 0.6732 0.7395 41.1877 398.0928)" class="st6" width="2.8" height="2.8"/>
		
			<rect x="533.3" y="148.4" transform="matrix(0.7395 -0.6732 0.6732 0.7395 38.4432 399.0094)" class="st6" width="2.8" height="2.8"/>
		
			<rect x="537.5" y="144.6" transform="matrix(0.7395 -0.6732 0.6732 0.7395 42.1043 400.8374)" class="st6" width="2.8" height="2.8"/>
		
			<rect x="541.7" y="140.8" transform="matrix(0.7395 -0.6732 0.6732 0.7395 45.7655 402.6654)" class="st6" width="2.8" height="2.8"/>
		
			<rect x="541.5" y="144.8" transform="matrix(0.7395 -0.6732 0.6732 0.7395 43.0209 403.582)" class="st6" width="2.8" height="2.8"/>
		
			<rect x="537.3" y="148.6" transform="matrix(0.7395 -0.6732 0.6732 0.7395 39.3597 401.754)" class="st6" width="2.8" height="2.8"/>
		
			<rect x="545.3" y="149" transform="matrix(0.7395 -0.6732 0.6732 0.7395 41.1929 407.2432)" class="st6" width="2.8" height="2.8"/>
		
			<rect x="541.2" y="152.8" transform="matrix(0.7395 -0.6732 0.6732 0.7395 37.5318 405.4152)" class="st6" width="2.8" height="2.8"/>
		
			<rect x="537.2" y="152.6" transform="matrix(0.7395 -0.6732 0.6732 0.7395 36.6152 402.6706)" class="st6" width="2.8" height="2.8"/>
		
			<rect x="541.3" y="148.8" transform="matrix(0.7395 -0.6732 0.6732 0.7395 40.2763 404.4986)" class="st6" width="2.8" height="2.8"/>
		
			<rect x="545.5" y="145" transform="matrix(0.7395 -0.6732 0.6732 0.7395 43.9375 406.3266)" class="st6" width="2.8" height="2.8"/>
		
			<rect x="535.2" y="150.5" transform="matrix(0.7395 -0.6732 0.6732 0.7395 37.5292 400.84)" class="st5" width="2.8" height="2.8"/>
		
			<rect x="539.4" y="146.7" transform="matrix(0.7395 -0.6732 0.6732 0.7395 41.1903 402.668)" class="st5" width="2.8" height="2.8"/>
		
			<rect x="543.3" y="150.9" transform="matrix(0.7395 -0.6732 0.6732 0.7395 39.3623 406.3292)" class="st5" width="2.8" height="2.8"/>
		
			<rect x="543.6" y="142.9" transform="matrix(0.7395 -0.6732 0.6732 0.7395 44.8515 404.496)" class="st5" width="2.8" height="2.8"/>
		
			<rect x="539.1" y="154.7" transform="matrix(0.7395 -0.6732 0.6732 0.7395 35.7012 404.5012)" class="st5" width="2.8" height="2.8"/>
		
			<rect x="547.4" y="147.1" transform="matrix(0.7395 -0.6732 0.6732 0.7395 43.0235 408.1572)" class="st5" width="2.8" height="2.8"/>
	</g>
	<g>
		<defs>
			
				<rect id="SVGID_1_" x="485.5" y="178.3" transform="matrix(0.7379 -0.6749 0.6749 0.7379 6.9458 383.0501)" width="22.3" height="8.5"/>
		</defs>
		<clipPath id="SVGID_00000122709189336249212890000006984618270935174071_">
			<use xlink:href="#SVGID_1_"  style="overflow:visible;"/>
		</clipPath>
		<g style="clip-path:url(#SVGID_00000122709189336249212890000006984618270935174071_);">
			<polygon class="st18" points="508.7,181.1 506.6,183 497.7,181.6 497.1,172.6 499.2,170.7 499.8,179.7 			"/>
			<polygon class="st19" points="504.5,184.9 502.4,186.9 493.5,185.5 492.9,176.4 495,174.5 495.6,183.5 			"/>
			<polygon class="st20" points="500.4,188.8 498.3,190.7 489.3,189.3 488.7,180.2 490.8,178.3 491.4,187.4 			"/>
		</g>
	</g>
</g>
</svg>
