<?xml version="1.0" encoding="utf-8"?>
<!-- Generator: Adobe Illustrator 26.5.0, SVG Export Plug-In . SVG Version: 6.00 Build 0)  -->
<svg version="1.1" xmlns="http://www.w3.org/2000/svg" xmlns:xlink="http://www.w3.org/1999/xlink" x="0px" y="0px"
	 viewBox="0 0 550 443.7" style="enable-background:new 0 0 550 443.7;" xml:space="preserve">
<style type="text/css">
	.st0{fill:none;stroke:#646464;stroke-width:14.1732;stroke-miterlimit:10;}
	.st1{fill:none;stroke:#FFD449;stroke-width:2.8346;stroke-miterlimit:10;}
	.st2{fill:none;stroke:#54C6EB;stroke-width:2.8346;stroke-miterlimit:10;}
	.st3{fill:none;stroke:#F4442E;stroke-width:2.8346;stroke-miterlimit:10;}
	.st4{fill:none;stroke:#FFFFFF;stroke-width:2.126;}
	.st5{fill:#646464;}
	.st6{fill:#FFFFFF;}
	.st7{fill:#09BC8A;}
	.st8{fill:none;stroke:#646464;stroke-width:2.8346;stroke-miterlimit:10;}
	.st9{fill:none;stroke:#09BC8A;stroke-width:1.9843;stroke-miterlimit:10;}
	.st10{fill:none;stroke:#09BC8A;stroke-width:2.2097;stroke-miterlimit:10;}
	.st11{fill:#FF3380;}
	.st12{fill:none;stroke:#FF3380;stroke-width:1.9843;stroke-miterlimit:10;}
	.st13{fill:none;stroke:#646464;stroke-width:0.7087;stroke-miterlimit:10;}
	.st14{fill:none;stroke:#F4442E;stroke-width:5.6693;stroke-miterlimit:10;}
	.st15{fill:none;stroke:#54C6EB;stroke-width:5.6693;stroke-miterlimit:10;}
	.st16{fill:none;stroke:#FFD449;stroke-width:5.6693;stroke-miterlimit:10;}
	.st17{fill:none;stroke:#09BC8A;stroke-width:2.8346;stroke-miterlimit:10;}
	.st18{clip-path:url(#SVGID_00000084524135619828616440000008983860963451778445_);}
	.st19{fill:#F4442E;}
	.st20{fill:#54C6EB;}
	.st21{fill:#FFD449;}
</style>
<g id="コース">
	<path class="st0" d="M509.4,232.3c0,0-21.1-155.9-21.9-161.9c-0.9-6-3.7-7.5-8.8-6.9c-5.2,0.6-11.4,0.9-17.2-2.6s-6.2-6-7.7-9
		c-1.5-3-3.5-5.8-8.1-5.8s-7.3,4.5-7.8,8.5s-2,20.8-2,25.5c0,4.7,2.4,12.6,4.3,17.7s13,32,14.5,40.3c1.5,8.3,1.8,24.4,1.8,27.2
		c0,4.5-5.9,11.2-17.8,11.2s-123.8-7-128-7.2s-15.7-3.9-22-7.6c-6.4-3.7-82.9-49.6-85.6-51s-5.7-0.4-7.1,1.4
		c-1.4,1.9-18.9,25.6-21.3,29.6c-2.4,4.1-9.7,18.3-10.9,21c-2,4.4-5.1,6.6-8.9,1.9c-4.5-5.6-11.5-15-16-19
		c-4.5-4-16.9-15.1-20.6-17.1c-3.7-2-7.7-1.6-9.8-0.3c-2.1,1.3-8.7,7.4-10.6,10.8c-2,3.4-44.7,82.1-47,86.2
		c-2.3,4.1-8.7,13.6-10.4,15.6c-1.8,2-2.4,3.7-1.9,6.5c0.5,2.7,4.9,12.7,6.4,14.3s9.7,7.9,11.7,9.1s4.7,2.7,7.5,2.9
		c2.7,0.1,4.7,0.5,6.3,1.9c1.5,1.3,1.3,3.6,1.3,5.9s0.2,11.2,0.4,14c0.2,2.9,2,7,5.2,9.5c3.2,2.5,21.4,17.1,24.4,20
		c4.7,4.6,9.5,10.6,11.6,15.8c2.8,6.6,9.4,3.7,9.7-0.4c0.2-2.7,11.5-64.9,12.7-73.5c1.2-8.7,4.7-24.3,11.6-43.8
		c6.9-19.5,14.6-40.8,15.5-43s3.4-3.8,6.7-1.4c3.3,2.4,49,39.9,53.5,43c6.3,4.5,10.6,8.5,22.8,8.5c8.9,0,10.9,0,12.8,0
		c2,0,5.7,1.2,5.7,6c0,4.8,0,11.1,0,14.2s2.5,12.3,13.2,12.7c13.6,0.5,53.7,2.9,56,3c2.3,0.1,4.8-1.5,5.4-5.5c0.5-4,4-17,4.6-20.2
		s2.9-4,7.4-4s34.5,2,36.8,2.3s4.5,1.8,4.5,6.6c0,3,0,4.9,0,7.4c0,2.4,1.6,6.3,4.7,9.1c3.1,2.9,9,4.2,13.6,4.2
		c6.5,0,72.1,3.7,76.5,4c4.2,0.2,5.8-0.4,8.7-4c2.9-3.5,11.5-18,12.7-19.9c1.2-1.9,1.8-3.8,1.6-5.9
		C509.7,237.6,509.4,232.3,509.4,232.3z"/>
</g>
<g id="セクター">
	<path class="st1" d="M153.3,205.4c4.7-13.2,8.7-24.2,9.3-25.7c0.9-2.2,3.4-3.8,6.7-1.4c3.3,2.4,49,39.9,53.5,43
		c6.3,4.5,10.6,8.5,22.8,8.5c8.9,0,10.9,0,12.8,0c2,0,5.7,1.2,5.7,6c0,4.8,0,11.1,0,14.2s2.5,12.3,13.2,12.7c13.6,0.5,53.7,2.9,56,3
		c2.3,0.1,4.8-1.5,5.4-5.5c0.5-4,4-17,4.6-20.2s2.9-4,7.4-4s34.5,2,36.8,2.3s4.5,1.8,4.5,6.6c0,3,0,4.9,0,7.4c0,2.4,1.6,6.3,4.7,9.1
		c3.1,2.9,9,4.2,13.6,4.2c6.5,0,72.1,3.7,76.5,4c4.2,0.2,5.8-0.4,8.7-4c2.9-3.5,11.5-18,12.7-19.9c1.2-1.9,1.8-3.8,1.6-5.9
		c-0.1-2.1-0.4-7.4-0.4-7.4s-1-7.1-2.5-18.4"/>
	<path class="st2" d="M240.7,133.1c-18.9-11.3-36.5-21.8-37.8-22.5c-2.7-1.4-5.7-0.4-7.1,1.4c-1.4,1.9-18.9,25.6-21.3,29.6
		c-2.4,4.1-9.7,18.3-10.9,21c-2,4.4-5.1,6.6-8.9,1.9c-4.5-5.6-11.5-15-16-19c-4.5-4-16.9-15.1-20.6-17.1c-3.7-2-7.7-1.6-9.8-0.3
		c-2.1,1.3-8.7,7.4-10.6,10.8c-2,3.4-44.7,82.1-47,86.2c-2.3,4.1-8.7,13.6-10.4,15.6c-1.8,2-2.4,3.7-1.9,6.5
		c0.5,2.7,4.9,12.7,6.4,14.3s9.7,7.9,11.7,9.1s4.7,2.7,7.5,2.9c2.7,0.1,4.7,0.5,6.3,1.9c1.5,1.3,1.3,3.6,1.3,5.9s0.2,11.2,0.4,14
		c0.2,2.9,2,7,5.2,9.5c3.2,2.5,21.4,17.1,24.4,20c4.7,4.6,9.5,10.6,11.6,15.8c2.8,6.6,9.4,3.7,9.7-0.4c0.2-2.7,11.5-64.9,12.7-73.5
		c1.2-8.7,4.7-24.3,11.6-43.8c2-5.8,4.2-11.7,6.1-17.3"/>
	<path class="st3" d="M506.9,213.9c-5.6-41.4-18.8-138.7-19.4-143.5c-0.9-6-3.7-7.5-8.8-6.9c-5.2,0.6-11.4,0.9-17.2-2.6
		s-6.2-6-7.7-9c-1.5-3-3.5-5.8-8.1-5.8s-7.3,4.5-7.8,8.5s-2,20.8-2,25.5c0,4.7,2.4,12.6,4.3,17.7s13,32,14.5,40.3
		c1.5,8.3,1.8,24.4,1.8,27.2c0,4.5-5.9,11.2-17.8,11.2s-123.8-7-128-7.2s-15.7-3.9-22-7.6c-3.4-2-26.4-15.8-47.8-28.6"/>
</g>
<g id="コーナー番号">
	<g>
		<g>
			<circle class="st4" cx="504.7" cy="60.1" r="8.5"/>
			<circle class="st5" cx="504.7" cy="60.1" r="8.5"/>
		</g>
		<g>
			<path class="st6" d="M503,64v-1.6h1v-4.5h-0.9v-1.6h2.6v6.1h0.9V64H503z"/>
		</g>
	</g>
	<g>
		<g>
			<circle class="st4" cx="471.8" cy="42.7" r="8.5"/>
			<circle class="st5" cx="471.8" cy="42.7" r="8.5"/>
		</g>
		<g>
			<path class="st6" d="M469.7,46.6V44c0-0.6,0.1-1,0.6-1.2l1.9-0.8v-1.6l-0.1-0.1h-0.5l-0.1,0.1v1.1h-1.7v-1.3
				c0-0.8,0.4-1.1,0.8-1.3h2.5c0.5,0.2,0.8,0.5,0.8,1.3v1.9c0,0.6-0.1,0.9-0.6,1.2l-1.8,0.8V45h2.4v1.6H469.7z"/>
		</g>
	</g>
	<g>
		<g>
			<circle class="st4" cx="436.6" cy="26.4" r="8.5"/>
			<circle class="st5" cx="436.6" cy="26.4" r="8.5"/>
		</g>
		<g>
			<path class="st6" d="M435.4,30.3c-0.5-0.2-0.8-0.5-0.8-1.3v-1h1.7v0.8l0.1,0.1h0.5l0.1-0.1v-1.6l-0.1-0.1h-1v-1.3h1l0.1-0.1v-1.5
				l-0.1-0.1h-0.5l-0.1,0.1V25h-1.7v-1c0-0.8,0.4-1.1,0.8-1.3h2.5c0.5,0.2,0.8,0.5,0.8,1.3v1.3c0,0.6-0.2,0.9-0.6,1.2
				c0.4,0.3,0.6,0.6,0.6,1.2V29c0,0.8-0.4,1.1-0.8,1.3H435.4z"/>
		</g>
	</g>
	<g>
		<g>
			<circle class="st4" cx="416.2" cy="76.8" r="8.5"/>
			<circle class="st5" cx="416.2" cy="76.8" r="8.5"/>
		</g>
		<g>
			<path class="st6" d="M417.8,79.1v1.5h-1.7v-1.5h-2.2v-1.5l1.6-4.7h1.7l-1.6,4.6h0.5v-0.4l0.4-1h1.3v1.4h0.5v1.6H417.8z"/>
		</g>
	</g>
	<g>
		<g>
			<circle class="st4" cx="468" cy="185.2" r="8.5"/>
			<circle class="st5" cx="468" cy="185.2" r="8.5"/>
		</g>
		<g>
			<path class="st6" d="M466.8,189.1c-0.5-0.2-0.8-0.5-0.8-1.3v-1h1.6v0.8l0.1,0.1h0.6l0.1-0.1v-2.1l-0.1-0.1h-0.6l-0.1,0.1v0.4
				h-1.6v-4.5h4v1.5h-2.4v1.6l0.4-0.4h1.3c0.5,0.2,0.8,0.5,0.8,1.3v2.4c0,0.8-0.4,1.1-0.8,1.3H466.8z"/>
		</g>
	</g>
	<g>
		<g>
			<circle class="st4" cx="308.1" cy="147.7" r="8.5"/>
			<circle class="st5" cx="308.1" cy="147.7" r="8.5"/>
		</g>
		<g>
			<path class="st6" d="M309.3,151.6h-2.5c-0.5-0.2-0.8-0.5-0.8-1.3v-5.1c0-0.8,0.4-1.1,0.8-1.3h2.5c0.5,0.2,0.8,0.5,0.8,1.3v1h-1.7
				v-0.8l-0.1-0.1h-0.5l-0.1,0.1v1.8l0.3-0.3h1.3c0.5,0.2,0.8,0.5,0.8,1.3v2.2C310.1,151.1,309.8,151.4,309.3,151.6z M308.3,150.2
				l0.1-0.1v-1.8l-0.1-0.1h-0.5l-0.1,0.1v1.8l0.1,0.1H308.3z"/>
		</g>
	</g>
	<g>
		<g>
			<circle class="st4" cx="193.6" cy="90.9" r="8.5"/>
			<circle class="st5" cx="193.6" cy="90.9" r="8.5"/>
		</g>
		<g>
			<path class="st6" d="M191.7,94.8l2.1-6.2h-2.4v-1.5h4.1v1.2l-2.1,6.5H191.7z"/>
		</g>
	</g>
	<g>
		<g>
			<circle class="st4" cx="156.7" cy="137.5" r="8.5"/>
			<circle class="st5" cx="156.7" cy="137.5" r="8.5"/>
		</g>
		<g>
			<path class="st6" d="M155.4,141.3c-0.5-0.2-0.8-0.5-0.8-1.3v-1.4c0-0.6,0.2-0.9,0.6-1.2c-0.4-0.3-0.6-0.6-0.6-1.2V135
				c0-0.8,0.4-1.1,0.8-1.3h2.5c0.5,0.2,0.8,0.5,0.8,1.3v1.3c0,0.6-0.2,0.9-0.6,1.2c0.4,0.3,0.6,0.6,0.6,1.2v1.4
				c0,0.8-0.4,1.1-0.8,1.3H155.4z M156.3,136.7l0.1,0.1h0.5l0.1-0.1v-1.5l-0.1-0.1h-0.5l-0.1,0.1V136.7z M157.1,139.9v-1.6l-0.1-0.1
				h-0.5l-0.1,0.1v1.6l0.1,0.1h0.5L157.1,139.9z"/>
		</g>
	</g>
	<g>
		<g>
			<circle class="st4" cx="110.1" cy="107.6" r="8.5"/>
			<circle class="st5" cx="110.1" cy="107.6" r="8.5"/>
		</g>
		<g>
			<path class="st6" d="M108.9,111.5c-0.5-0.2-0.8-0.5-0.8-1.3v-1h1.7v0.8l0.1,0.1h0.5l0.1-0.1v-1.8l-0.3,0.3h-1.3
				c-0.5-0.2-0.8-0.5-0.8-1.3v-2.2c0-0.8,0.4-1.1,0.8-1.3h2.5c0.5,0.2,0.8,0.5,0.8,1.3v5.1c0,0.8-0.4,1.1-0.8,1.3H108.9z
				 M110.5,107.2v-1.8l-0.1-0.1h-0.5l-0.1,0.1v1.8l0.1,0.1h0.5L110.5,107.2z"/>
		</g>
	</g>
	<g>
		<g>
			<circle class="st4" cx="57.9" cy="313.6" r="8.5"/>
			<circle class="st5" cx="57.9" cy="313.6" r="8.5"/>
		</g>
		<g>
			<path class="st6" d="M53.9,317.5v-1.6h1v-4.5H54v-1.6h2.6v6.1h0.9v1.6H53.9z"/>
			<path class="st6" d="M58.2,317.5v-2.6c0-0.6,0.1-1,0.6-1.2l1.9-0.8v-1.6l-0.1-0.1H60l-0.1,0.1v1.1h-1.7v-1.3
				c0-0.8,0.4-1.1,0.8-1.3h2.5c0.5,0.2,0.8,0.5,0.8,1.3v1.9c0,0.6-0.1,0.9-0.6,1.2l-1.9,0.8v0.9h2.4v1.6H58.2z"/>
		</g>
	</g>
	<g>
		<g>
			<circle class="st4" cx="118" cy="364.1" r="8.5"/>
			<circle class="st5" cx="118" cy="364.1" r="8.5"/>
		</g>
		<g>
			<path class="st6" d="M114,368v-1.6h1v-4.5h-0.9v-1.6h2.6v6.1h0.9v1.6H114z"/>
			<path class="st6" d="M119.1,368c-0.5-0.2-0.8-0.5-0.8-1.3v-1h1.7v0.8l0.1,0.1h0.5l0.1-0.1v-1.6l-0.1-0.1h-1v-1.3h1l0.1-0.1v-1.5
				l-0.1-0.1h-0.5l-0.1,0.1v0.8h-1.7v-1c0-0.8,0.4-1.1,0.8-1.3h2.5c0.5,0.2,0.8,0.5,0.8,1.3v1.3c0,0.6-0.2,0.9-0.6,1.2
				c0.4,0.3,0.6,0.6,0.6,1.2v1.4c0,0.8-0.4,1.1-0.8,1.3H119.1z"/>
		</g>
	</g>
	<g>
		<g>
			<circle class="st4" cx="184.8" cy="166.5" r="8.5"/>
			<circle class="st5" cx="184.8" cy="166.5" r="8.5"/>
		</g>
		<g>
			<path class="st6" d="M180.7,170.4v-1.6h1v-4.5h-0.9v-1.6h2.6v6.1h0.9v1.6H180.7z"/>
			<path class="st6" d="M188.8,168.9v1.5h-1.7v-1.5h-2.2v-1.5l1.6-4.7h1.7l-1.6,4.6h0.5v-0.4l0.4-1h1.3v1.4h0.5v1.6H188.8z"/>
		</g>
	</g>
	<g>
		<g>
			<circle class="st4" cx="225.4" cy="244.8" r="8.5"/>
			<circle class="st5" cx="225.4" cy="244.8" r="8.5"/>
		</g>
		<g>
			<path class="st6" d="M221.4,248.7v-1.6h1v-4.5h-0.9v-1.6h2.6v6.1h0.9v1.6H221.4z"/>
			<path class="st6" d="M226.5,248.7c-0.5-0.2-0.8-0.5-0.8-1.3v-1h1.6v0.8l0.1,0.1h0.6l0.1-0.1v-2.1L228,245h-0.6l-0.1,0.1v0.4h-1.6
				v-4.5h4v1.5h-2.4v1.6l0.4-0.4h1.3c0.5,0.2,0.8,0.5,0.8,1.3v2.4c0,0.8-0.4,1.1-0.8,1.3H226.5z"/>
		</g>
	</g>
	<g>
		<g>
			<circle class="st4" cx="277.8" cy="218.9" r="8.5"/>
			<circle class="st5" cx="277.8" cy="218.9" r="8.5"/>
		</g>
		<g>
			<path class="st6" d="M273.7,222.7v-1.6h1v-4.5h-0.9v-1.6h2.6v6.1h0.9v1.6H273.7z"/>
			<path class="st6" d="M281.4,222.7h-2.5c-0.5-0.2-0.8-0.5-0.8-1.3v-5.1c0-0.8,0.4-1.1,0.8-1.3h2.5c0.5,0.2,0.8,0.5,0.8,1.3v1h-1.7
				v-0.8l-0.1-0.1h-0.5l-0.1,0.1v1.8l0.3-0.3h1.3c0.5,0.2,0.8,0.5,0.8,1.3v2.2C282.2,222.3,281.8,222.6,281.4,222.7z M280.4,221.3
				l0.1-0.1v-1.8l-0.1-0.1h-0.5l-0.1,0.1v1.8l0.1,0.1H280.4z"/>
		</g>
	</g>
	<g>
		<g>
			<circle class="st4" cx="258.5" cy="275" r="8.5"/>
			<circle class="st5" cx="258.5" cy="275" r="8.5"/>
		</g>
		<g>
			<path class="st6" d="M254.4,278.9v-1.6h1v-4.5h-0.9v-1.6h2.6v6.1h0.9v1.6H254.4z"/>
			<path class="st6" d="M259,278.9l2.1-6.2h-2.4v-1.5h4.1v1.2l-2.1,6.5H259z"/>
		</g>
	</g>
	<g>
		<g>
			<circle class="st4" cx="342.8" cy="282.9" r="8.5"/>
			<circle class="st5" cx="342.8" cy="282.9" r="8.5"/>
		</g>
		<g>
			<path class="st6" d="M338.8,286.7v-1.6h1v-4.5h-0.9v-1.6h2.6v6.1h0.9v1.6H338.8z"/>
			<path class="st6" d="M343.9,286.7c-0.5-0.2-0.8-0.5-0.8-1.3V284c0-0.6,0.2-0.9,0.6-1.2c-0.4-0.3-0.6-0.6-0.6-1.2v-1.3
				c0-0.8,0.4-1.1,0.8-1.3h2.5c0.5,0.2,0.8,0.5,0.8,1.3v1.3c0,0.6-0.2,0.9-0.6,1.2c0.4,0.3,0.6,0.6,0.6,1.2v1.4
				c0,0.8-0.4,1.1-0.8,1.3H343.9z M344.8,282.1l0.1,0.1h0.5l0.1-0.1v-1.5l-0.1-0.1h-0.5l-0.1,0.1V282.1z M345.5,285.3v-1.6l-0.1-0.1
				h-0.5l-0.1,0.1v1.6l0.1,0.1h0.5L345.5,285.3z"/>
		</g>
	</g>
	<g>
		<g>
			<circle class="st4" cx="336.4" cy="220.7" r="8.5"/>
			<circle class="st5" cx="336.4" cy="220.7" r="8.5"/>
		</g>
		<g>
			<path class="st6" d="M332.4,224.6V223h1v-4.5h-0.9v-1.6h2.6v6.1h0.9v1.6H332.4z"/>
			<path class="st6" d="M337.5,224.6c-0.5-0.2-0.8-0.5-0.8-1.3v-1h1.7v0.8l0.1,0.1h0.5l0.1-0.1v-1.8l-0.3,0.3h-1.3
				c-0.5-0.2-0.8-0.5-0.8-1.3v-2.2c0-0.8,0.4-1.1,0.8-1.3h2.5c0.5,0.2,0.8,0.5,0.8,1.3v5.1c0,0.8-0.4,1.1-0.8,1.3H337.5z
				 M339.1,220.3v-1.8l-0.1-0.1h-0.5l-0.1,0.1v1.8l0.1,0.1h0.5L339.1,220.3z"/>
		</g>
	</g>
	<g>
		<g>
			<circle class="st4" cx="405.9" cy="227.3" r="8.5"/>
			<circle class="st5" cx="405.9" cy="227.3" r="8.5"/>
		</g>
		<g>
			<path class="st6" d="M401.5,231.2v-2.6c0-0.6,0.1-1,0.6-1.2l1.9-0.8V225l-0.1-0.1h-0.5l-0.1,0.1v1.1h-1.7v-1.3
				c0-0.8,0.4-1.1,0.8-1.3h2.5c0.5,0.2,0.8,0.5,0.8,1.3v1.9c0,0.6-0.1,0.9-0.6,1.2l-1.9,0.8v0.9h2.4v1.6H401.5z"/>
			<path class="st6" d="M409.5,231.2H407c-0.5-0.2-0.8-0.5-0.8-1.3v-5.1c0-0.8,0.4-1.1,0.8-1.3h2.5c0.5,0.2,0.8,0.5,0.8,1.3v5.1
				C410.3,230.7,409.9,231,409.5,231.2z M408.6,225l-0.1-0.1H408l-0.1,0.1v4.7l0.1,0.1h0.5l0.1-0.1V225z"/>
		</g>
	</g>
	<g>
		<g>
			<circle class="st4" cx="386.1" cy="277" r="8.5"/>
			<circle class="st5" cx="386.1" cy="277" r="8.5"/>
		</g>
		<g>
			<path class="st6" d="M381.7,280.9v-2.6c0-0.6,0.1-1,0.6-1.2l1.9-0.8v-1.6l-0.1-0.1h-0.5l-0.1,0.1v1.1h-1.7v-1.3
				c0-0.8,0.4-1.1,0.8-1.3h2.5c0.5,0.2,0.8,0.5,0.8,1.3v1.9c0,0.6-0.1,0.9-0.6,1.2l-1.9,0.8v0.9h2.4v1.6H381.7z"/>
			<path class="st6" d="M386.8,280.9v-1.6h1v-4.5h-0.9v-1.6h2.6v6.1h0.9v1.6H386.8z"/>
		</g>
	</g>
	<g>
		<g>
			<circle class="st4" cx="496.9" cy="288.7" r="8.5"/>
			<circle class="st5" cx="496.9" cy="288.7" r="8.5"/>
		</g>
		<g>
			<path class="st6" d="M492.4,292.5V290c0-0.6,0.1-1,0.6-1.2l1.9-0.8v-1.6l-0.1-0.1h-0.5l-0.1,0.1v1.1h-1.7v-1.3
				c0-0.8,0.4-1.1,0.8-1.3h2.5c0.5,0.2,0.8,0.5,0.8,1.3v1.9c0,0.6-0.1,0.9-0.6,1.2l-1.8,0.8v0.9h2.4v1.6H492.4z"/>
			<path class="st6" d="M497.1,292.5V290c0-0.6,0.1-1,0.6-1.2l1.9-0.8v-1.6l-0.1-0.1h-0.5l-0.1,0.1v1.1h-1.7v-1.3
				c0-0.8,0.4-1.1,0.8-1.3h2.5c0.5,0.2,0.8,0.5,0.8,1.3v1.9c0,0.6-0.1,0.9-0.6,1.2l-1.9,0.8v0.9h2.4v1.6H497.1z"/>
		</g>
	</g>
	<g>
		<g>
			<circle class="st4" cx="19.4" cy="240.1" r="8.5"/>
			<circle class="st5" cx="19.4" cy="240.1" r="8.5"/>
		</g>
		<g>
			<path class="st6" d="M15.4,244v-1.6h1V238h-0.9v-1.6H18v6.1h0.9v1.6H15.4z"/>
			<path class="st6" d="M23,244h-2.5c-0.5-0.2-0.8-0.5-0.8-1.3v-5.1c0-0.8,0.4-1.1,0.8-1.3H23c0.5,0.2,0.8,0.5,0.8,1.3v5.1
				C23.8,243.6,23.5,243.9,23,244z M22.1,237.9l-0.1-0.1h-0.5l-0.1,0.1v4.7l0.1,0.1H22l0.1-0.1V237.9z"/>
		</g>
	</g>
	<g>
		<g>
			<circle class="st4" cx="84.4" cy="263" r="8.5"/>
			<circle class="st5" cx="84.4" cy="263" r="8.5"/>
		</g>
		<g>
			<path class="st6" d="M80.4,266.9v-1.6h1v-4.5h-0.9v-1.6H83v6.1h0.9v1.6H80.4z"/>
			<path class="st6" d="M85,266.9v-1.6h1v-4.5h-0.9v-1.6h2.6v6.1h0.9v1.6H85z"/>
		</g>
	</g>
	<g>
		<g>
			<circle class="st4" cx="528.5" cy="244.6" r="8.5"/>
			<circle class="st5" cx="528.5" cy="244.6" r="8.5"/>
		</g>
		<g>
			<path class="st6" d="M524.1,248.5v-2.6c0-0.6,0.1-1,0.6-1.2l1.9-0.8v-1.6l-0.1-0.1h-0.5l-0.1,0.1v1.1h-1.7v-1.3
				c0-0.8,0.4-1.1,0.8-1.3h2.5c0.5,0.2,0.8,0.5,0.8,1.3v1.9c0,0.6-0.1,0.9-0.6,1.2l-1.8,0.8v0.9h2.4v1.6H524.1z"/>
			<path class="st6" d="M529.6,248.5c-0.5-0.2-0.8-0.5-0.8-1.3v-1h1.7v0.8l0.1,0.1h0.5l0.1-0.1v-1.6l-0.1-0.1h-1V244h1l0.1-0.1v-1.5
				l-0.1-0.1h-0.5l-0.1,0.1v0.8h-1.7v-1c0-0.8,0.4-1.1,0.8-1.3h2.5c0.5,0.2,0.8,0.5,0.8,1.3v1.3c0,0.6-0.2,0.9-0.6,1.2
				c0.4,0.3,0.6,0.6,0.6,1.2v1.4c0,0.8-0.4,1.1-0.8,1.3H529.6z"/>
		</g>
	</g>
</g>
<g id="DRS">
	<g>
		<g>
			<path class="st7" d="M239.5,326.6c0,0.8-0.6,1.4-1.4,1.4h-67.6c-0.8,0-1.4-0.6-1.4-1.4v-48.8c0-0.8,0.6-1.4,1.4-1.4H238
				c0.8,0,1.4,0.6,1.4,1.4V326.6z"/>
		</g>
		<g>
			<path class="st6" d="M200.3,292c0,1.3-0.6,1.7-1.3,2h-5.2v-12h5.2c0.7,0.3,1.3,0.7,1.3,2V292z M196.4,284.2v7.7h1l0.2-0.2v-7.3
				l-0.2-0.2H196.4z"/>
			<path class="st6" d="M201.1,294v-12h5.2c0.7,0.3,1.3,0.7,1.3,2v2.5c0,1.1-0.5,1.6-1.1,1.9l1.4,3.8v1.7h-2.3l-1.5-4.7h-0.3v4.7
				H201.1z M203.8,284.2v3h1l0.2-0.2v-2.7l-0.2-0.2H203.8z"/>
			<path class="st6" d="M214.8,289.3v2.7c0,1.3-0.6,1.7-1.3,2h-3.9c-0.7-0.3-1.3-0.7-1.3-2v-2.4h2.7v2l0.2,0.2h0.8l0.2-0.2v-1.8
				l-0.1-0.2l-2.7-1.2c-0.8-0.4-0.9-0.9-0.9-1.8v-2.5c0-1.3,0.6-1.7,1.3-2h3.9c0.7,0.3,1.3,0.7,1.3,2v2.2h-2.7v-1.9l-0.2-0.2h-0.8
				l-0.2,0.2v1.7l0.2,0.3l2.7,1.1C214.7,287.8,214.8,288.4,214.8,289.3z"/>
			<path class="st6" d="M181.2,306.2c0,1.3-0.6,1.7-1.3,2h-5.2v-12h5.2c0.7,0.3,1.3,0.7,1.3,2V306.2z M177.4,298.4v7.7h1l0.2-0.2
				v-7.3l-0.2-0.2H177.4z"/>
			<path class="st6" d="M182,296.2h5.5v2.5h-2.8v2.2h2.7v2.5h-2.7v2.3h2.9v2.5H182V296.2z"/>
			<path class="st6" d="M192.7,298.7v9.5H190v-9.5h-1.9v-2.5h6.5v2.5H192.7z"/>
			<path class="st6" d="M195.1,296.2h5.5v2.5h-2.8v2.2h2.7v2.5h-2.7v2.3h2.9v2.5h-5.6V296.2z"/>
			<path class="st6" d="M208,306.2c0,1.3-0.6,1.7-1.3,2h-3.9c-0.7-0.3-1.3-0.7-1.3-2v-8c0-1.3,0.6-1.7,1.3-2h3.9
				c0.7,0.3,1.3,0.7,1.3,2v2.9h-2.7v-2.6l-0.2-0.2h-0.8l-0.2,0.2v7.3l0.2,0.2h0.8l0.2-0.2v-2.5h2.7V306.2z"/>
			<path class="st6" d="M213.1,298.7v9.5h-2.7v-9.5h-1.9v-2.5h6.5v2.5H213.1z"/>
			<path class="st6" d="M215.5,308.2v-2.5h0.5v-7h-0.5v-2.5h3.7v2.5h-0.5v7h0.5v2.5H215.5z"/>
			<path class="st6" d="M226.5,306.2c0,1.3-0.6,1.7-1.3,2h-3.9c-0.7-0.3-1.3-0.7-1.3-2v-8c0-1.3,0.6-1.7,1.3-2h3.9
				c0.7,0.3,1.3,0.7,1.3,2V306.2z M223.8,298.6l-0.2-0.2h-0.8l-0.2,0.2v7.3l0.2,0.2h0.8l0.2-0.2V298.6z"/>
			<path class="st6" d="M231.5,296.2h2.3v12h-2.3l-1.7-5.2h-0.2v5.2h-2.3v-12h2.3l1.7,5.2h0.2V296.2z"/>
			<path class="st6" d="M189.1,312.9h-3.5v-2.5h6.5v2.2l-3.5,7.3h3.5v2.5h-6.5v-2.2L189.1,312.9z"/>
			<path class="st6" d="M199.4,320.4c0,1.3-0.6,1.7-1.3,2h-3.9c-0.7-0.3-1.3-0.7-1.3-2v-8c0-1.3,0.6-1.7,1.3-2h3.9
				c0.7,0.3,1.3,0.7,1.3,2V320.4z M196.7,312.7l-0.2-0.2h-0.8l-0.2,0.2v7.3l0.2,0.2h0.8l0.2-0.2V312.7z"/>
			<path class="st6" d="M204.4,310.4h2.3v12h-2.3l-1.7-5.2h-0.2v5.2h-2.3v-12h2.3l1.7,5.2h0.2V310.4z"/>
			<path class="st6" d="M207.5,310.4h5.5v2.5h-2.8v2.2h2.7v2.5h-2.7v2.3h2.9v2.5h-5.6V310.4z"/>
			<path class="st6" d="M216.4,322.4v-4c0-0.9,0.2-1.5,0.9-1.8l2.9-1.3v-2.5l-0.2-0.2h-0.8l-0.2,0.2v1.7h-2.7v-2.1
				c0-1.3,0.6-1.7,1.3-2h3.9c0.7,0.3,1.3,0.7,1.3,2v3c0,0.9-0.1,1.5-0.9,1.8l-2.9,1.3v1.3h3.8v2.5H216.4z"/>
		</g>
	</g>
	<g>
		<g>
			<path class="st7" d="M457.2,358.5c0,0.8-0.6,1.4-1.4,1.4h-67.6c-0.8,0-1.4-0.6-1.4-1.4v-48.8c0-0.8,0.6-1.4,1.4-1.4h32.4
				c0.8,0,2.1,0,2.8,0h32.4c0.8,0,1.4,0.6,1.4,1.4V358.5z"/>
		</g>
		<g>
			<path class="st6" d="M418,323.9c0,1.3-0.6,1.7-1.3,2h-5.2v-12h5.2c0.7,0.3,1.3,0.7,1.3,2V323.9z M414.2,316v7.7h1l0.2-0.2v-7.3
				l-0.2-0.2H414.2z"/>
			<path class="st6" d="M418.9,325.9v-12h5.2c0.7,0.3,1.3,0.7,1.3,2v2.5c0,1.1-0.5,1.6-1.1,1.9l1.4,3.8v1.7h-2.3l-1.5-4.7h-0.3v4.7
				H418.9z M421.5,316v3h1l0.2-0.2v-2.7l-0.2-0.2H421.5z"/>
			<path class="st6" d="M432.5,321.1v2.7c0,1.3-0.6,1.7-1.3,2h-3.9c-0.7-0.3-1.3-0.7-1.3-2v-2.4h2.7v2l0.2,0.2h0.8l0.2-0.2v-1.8
				l-0.1-0.2l-2.7-1.2c-0.8-0.4-0.9-0.9-0.9-1.8v-2.5c0-1.3,0.6-1.7,1.3-2h3.9c0.7,0.3,1.3,0.7,1.3,2v2.2h-2.7v-1.9l-0.2-0.2h-0.8
				l-0.2,0.2v1.7l0.2,0.3l2.7,1.1C432.4,319.6,432.5,320.2,432.5,321.1z"/>
			<path class="st6" d="M399,338c0,1.3-0.6,1.7-1.3,2h-5.2v-12h5.2c0.7,0.3,1.3,0.7,1.3,2V338z M395.1,330.2v7.7h1l0.2-0.2v-7.3
				l-0.2-0.2H395.1z"/>
			<path class="st6" d="M399.8,328.1h5.5v2.5h-2.8v2.2h2.7v2.5h-2.7v2.3h2.9v2.5h-5.6V328.1z"/>
			<path class="st6" d="M410.4,330.5v9.5h-2.7v-9.5h-1.9v-2.5h6.5v2.5H410.4z"/>
			<path class="st6" d="M412.8,328.1h5.5v2.5h-2.8v2.2h2.7v2.5h-2.7v2.3h2.9v2.5h-5.6V328.1z"/>
			<path class="st6" d="M425.7,338c0,1.3-0.6,1.7-1.3,2h-3.9c-0.7-0.3-1.3-0.7-1.3-2v-8c0-1.3,0.6-1.7,1.3-2h3.9
				c0.7,0.3,1.3,0.7,1.3,2v2.9h-2.7v-2.6l-0.2-0.2h-0.8l-0.2,0.2v7.3l0.2,0.2h0.8l0.2-0.2v-2.5h2.7V338z"/>
			<path class="st6" d="M430.8,330.5v9.5h-2.7v-9.5h-1.9v-2.5h6.5v2.5H430.8z"/>
			<path class="st6" d="M433.2,340v-2.5h0.5v-7h-0.5v-2.5h3.7v2.5h-0.5v7h0.5v2.5H433.2z"/>
			<path class="st6" d="M444.2,338c0,1.3-0.6,1.7-1.3,2H439c-0.7-0.3-1.3-0.7-1.3-2v-8c0-1.3,0.6-1.7,1.3-2h3.9
				c0.7,0.3,1.3,0.7,1.3,2V338z M441.5,330.4l-0.2-0.2h-0.8l-0.2,0.2v7.3l0.2,0.2h0.8l0.2-0.2V330.4z"/>
			<path class="st6" d="M449.2,328.1h2.3v12h-2.3l-1.7-5.2h-0.2v5.2H445v-12h2.3l1.7,5.2h0.2V328.1z"/>
			<path class="st6" d="M406.8,344.7h-3.5v-2.5h6.5v2.2l-3.5,7.3h3.5v2.5h-6.5V352L406.8,344.7z"/>
			<path class="st6" d="M417.1,352.2c0,1.3-0.6,1.7-1.3,2h-3.9c-0.7-0.3-1.3-0.7-1.3-2v-8c0-1.3,0.6-1.7,1.3-2h3.9
				c0.7,0.3,1.3,0.7,1.3,2V352.2z M414.5,344.6l-0.2-0.2h-0.8l-0.2,0.2v7.3l0.2,0.2h0.8l0.2-0.2V344.6z"/>
			<path class="st6" d="M422.1,342.2h2.3v12h-2.3l-1.7-5.2h-0.2v5.2H418v-12h2.3l1.7,5.2h0.2V342.2z"/>
			<path class="st6" d="M425.3,342.2h5.5v2.5h-2.8v2.2h2.7v2.5h-2.7v2.3h2.9v2.5h-5.6V342.2z"/>
			<path class="st6" d="M435.5,354.2c-0.7-0.3-1.3-0.7-1.3-2v-1.6h2.7v1.3l0.2,0.2h0.8l0.2-0.2v-2.6l-0.2-0.2h-1.5v-2h1.5l0.2-0.2
				v-2.4l-0.2-0.2H437l-0.2,0.2v1.3h-2.7v-1.6c0-1.3,0.6-1.7,1.3-2h3.9c0.7,0.3,1.3,0.7,1.3,2v2.1c0,0.9-0.2,1.4-0.9,1.8
				c0.6,0.4,0.9,0.9,0.9,1.8v2.2c0,1.3-0.6,1.7-1.3,2H435.5z"/>
		</g>
	</g>
	<g>
		<g>
			<path class="st7" d="M376,59.6c0,0.8-0.6,1.4-1.4,1.4H307c-0.8,0-1.4-0.6-1.4-1.4V10.8c0-0.8,0.6-1.4,1.4-1.4h67.6
				c0.8,0,1.4,0.6,1.4,1.4V59.6z"/>
		</g>
		<g>
			<path class="st6" d="M336.8,25c0,1.3-0.6,1.7-1.3,2h-5.2v-12h5.2c0.7,0.3,1.3,0.7,1.3,2V25z M333,17.2v7.7h1l0.2-0.2v-7.3
				l-0.2-0.2H333z"/>
			<path class="st6" d="M337.7,27v-12h5.2c0.7,0.3,1.3,0.7,1.3,2v2.5c0,1.1-0.5,1.6-1.1,1.9l1.4,3.8V27h-2.3l-1.5-4.7h-0.3V27H337.7
				z M340.3,17.2v3h1l0.2-0.2v-2.7l-0.2-0.2H340.3z"/>
			<path class="st6" d="M351.4,22.3V25c0,1.3-0.6,1.7-1.3,2h-3.9c-0.7-0.3-1.3-0.7-1.3-2v-2.4h2.7v2l0.2,0.2h0.8l0.2-0.2v-1.8
				l-0.1-0.2l-2.7-1.2c-0.8-0.4-0.9-0.9-0.9-1.8V17c0-1.3,0.6-1.7,1.3-2h3.9c0.7,0.3,1.3,0.7,1.3,2v2.2h-2.7v-1.9l-0.2-0.2h-0.8
				l-0.2,0.2v1.7l0.2,0.3l2.7,1.1C351.2,20.8,351.4,21.4,351.4,22.3z"/>
			<path class="st6" d="M317.8,39.2c0,1.3-0.6,1.7-1.3,2h-5.2v-12h5.2c0.7,0.3,1.3,0.7,1.3,2V39.2z M313.9,31.4V39h1l0.2-0.2v-7.3
				l-0.2-0.2H313.9z"/>
			<path class="st6" d="M318.6,29.2h5.5v2.5h-2.8v2.2h2.7v2.5h-2.7v2.3h2.9v2.5h-5.6V29.2z"/>
			<path class="st6" d="M329.2,31.7v9.5h-2.7v-9.5h-1.9v-2.5h6.5v2.5H329.2z"/>
			<path class="st6" d="M331.7,29.2h5.5v2.5h-2.8v2.2h2.7v2.5h-2.7v2.3h2.9v2.5h-5.6V29.2z"/>
			<path class="st6" d="M344.5,39.2c0,1.3-0.6,1.7-1.3,2h-3.9c-0.7-0.3-1.3-0.7-1.3-2v-8c0-1.3,0.6-1.7,1.3-2h3.9
				c0.7,0.3,1.3,0.7,1.3,2v2.9h-2.7v-2.6l-0.2-0.2h-0.8l-0.2,0.2v7.3l0.2,0.2h0.8l0.2-0.2v-2.5h2.7V39.2z"/>
			<path class="st6" d="M349.6,31.7v9.5H347v-9.5H345v-2.5h6.5v2.5H349.6z"/>
			<path class="st6" d="M352,41.2v-2.5h0.5v-7H352v-2.5h3.7v2.5h-0.5v7h0.5v2.5H352z"/>
			<path class="st6" d="M363,39.2c0,1.3-0.6,1.7-1.3,2h-3.9c-0.7-0.3-1.3-0.7-1.3-2v-8c0-1.3,0.6-1.7,1.3-2h3.9
				c0.7,0.3,1.3,0.7,1.3,2V39.2z M360.4,31.6l-0.2-0.2h-0.8l-0.2,0.2v7.3l0.2,0.2h0.8l0.2-0.2V31.6z"/>
			<path class="st6" d="M368,29.2h2.3v12H368l-1.7-5.2h-0.2v5.2h-2.3v-12h2.3l1.7,5.2h0.2V29.2z"/>
			<path class="st6" d="M325.6,45.9h-3.5v-2.5h6.5v2.2l-3.5,7.3h3.5v2.5h-6.5v-2.2L325.6,45.9z"/>
			<path class="st6" d="M335.9,53.4c0,1.3-0.6,1.7-1.3,2h-3.9c-0.7-0.3-1.3-0.7-1.3-2v-8c0-1.3,0.6-1.7,1.3-2h3.9
				c0.7,0.3,1.3,0.7,1.3,2V53.4z M333.3,45.7l-0.2-0.2h-0.8l-0.2,0.2V53l0.2,0.2h0.8l0.2-0.2V45.7z"/>
			<path class="st6" d="M340.9,43.4h2.3v12h-2.3l-1.7-5.2h-0.2v5.2h-2.3v-12h2.3l1.7,5.2h0.2V43.4z"/>
			<path class="st6" d="M344.1,43.4h5.5v2.5h-2.8v2.2h2.7v2.5h-2.7v2.3h2.9v2.5h-5.6V43.4z"/>
			<path class="st6" d="M353.6,55.4v-2.5h1.5v-7h-1.3v-2.5h4v9.5h1.3v2.5H353.6z"/>
		</g>
	</g>
	<g>
		<circle class="st8" cx="437.4" cy="89.4" r="4.7"/>
		<circle class="st7" cx="437.4" cy="89.4" r="4.7"/>
	</g>
	<g>
		<circle class="st8" cx="422" cy="265.7" r="4.7"/>
		<circle class="st7" cx="422" cy="265.7" r="4.7"/>
	</g>
	<g>
		<circle class="st8" cx="91.4" cy="315.9" r="4.7"/>
		<circle class="st7" cx="91.4" cy="315.9" r="4.7"/>
	</g>
	<g>
		<path class="st9" d="M437.4,89.4h-88.1c-4.7,0-8.5-3.8-8.5-8.5V61"/>
	</g>
	<g>
		<path class="st9" d="M91.4,315.9v58.9c0,4.7,3.8,8.5,8.5,8.5h95.8c4.7,0,8.5-3.8,8.5-8.5V328"/>
	</g>
	<g>
		<path class="st7" d="M422,265.7"/>
	</g>
	<g>
		<line class="st9" x1="422" y1="308.2" x2="422" y2="265.7"/>
	</g>
	<g>
		<g>
			<g>
				<g>
					<line class="st10" x1="486.8" y1="233.9" x2="498.3" y2="232.3"/>
				</g>
				<g>
					<path class="st7" d="M491.8,227.6c0.6-0.1,1.2,0.3,1.2,1c0.1,0.6-0.3,1.2-0.9,1.3s-1.2-0.3-1.2-1
						C490.7,228.2,491.2,227.7,491.8,227.6z"/>
				</g>
				<g>
					<path class="st7" d="M491.2,223.2c0.6-0.1,1.2,0.3,1.2,1c0.1,0.6-0.3,1.2-0.9,1.3c-0.6,0.1-1.2-0.3-1.2-1
						C490.1,223.8,490.6,223.3,491.2,223.2z"/>
				</g>
				<g>
					<path class="st7" d="M490.6,218.8c0.6-0.1,1.2,0.3,1.2,1s-0.3,1.2-0.9,1.3c-0.6,0.1-1.2-0.3-1.2-1
						C489.5,219.4,490,218.8,490.6,218.8z"/>
				</g>
				<g>
					<path class="st7" d="M490,214.4c0.6-0.1,1.2,0.3,1.2,1c0.1,0.6-0.3,1.2-0.9,1.3s-1.2-0.3-1.2-1
						C488.9,215,489.3,214.4,490,214.4z"/>
				</g>
				<g>
					<path class="st7" d="M489.3,209.9c0.6-0.1,1.2,0.3,1.2,1c0.1,0.6-0.3,1.2-0.9,1.3s-1.2-0.3-1.2-1
						C488.3,210.6,488.7,210,489.3,209.9z"/>
				</g>
				<g>
					<path class="st7" d="M488.7,205.5c0.6-0.1,1.2,0.3,1.2,1s-0.3,1.2-0.9,1.3c-0.6,0.1-1.2-0.3-1.2-1
						C487.7,206.2,488.1,205.6,488.7,205.5z"/>
				</g>
				<g>
					<path class="st7" d="M488.1,201.1c0.6-0.1,1.2,0.3,1.2,1c0.1,0.6-0.3,1.2-0.9,1.3s-1.2-0.3-1.2-1
						C487.1,201.8,487.5,201.2,488.1,201.1z"/>
				</g>
				<g>
					<path class="st7" d="M487.5,196.7c0.6-0.1,1.2,0.3,1.2,1c0.1,0.6-0.3,1.2-0.9,1.3s-1.2-0.3-1.2-1
						C486.5,197.3,486.9,196.8,487.5,196.7z"/>
				</g>
				<g>
					<path class="st7" d="M486.9,192.3c0.6-0.1,1.2,0.3,1.2,1c0.1,0.6-0.3,1.2-0.9,1.3s-1.2-0.3-1.2-1
						C485.9,192.9,486.3,192.4,486.9,192.3z"/>
				</g>
				<g>
					<path class="st7" d="M486.3,187.9c0.6-0.1,1.2,0.3,1.2,1c0.1,0.6-0.3,1.2-0.9,1.3c-0.6,0.1-1.2-0.3-1.2-1
						C485.3,188.5,485.7,187.9,486.3,187.9z"/>
				</g>
				<g>
					<path class="st7" d="M485.7,183.4c0.6-0.1,1.2,0.3,1.2,1c0.1,0.6-0.3,1.2-0.9,1.3s-1.2-0.3-1.2-1
						C484.7,184.1,485.1,183.5,485.7,183.4z"/>
				</g>
				<g>
					<path class="st7" d="M485.1,179c0.6-0.1,1.2,0.3,1.2,1c0.1,0.6-0.3,1.2-0.9,1.3s-1.2-0.3-1.2-1
						C484.1,179.7,484.5,179.1,485.1,179z"/>
				</g>
				<g>
					<path class="st7" d="M484.5,174.6c0.6-0.1,1.2,0.3,1.2,1c0.1,0.6-0.3,1.2-0.9,1.3c-0.6,0.1-1.2-0.3-1.2-1
						C483.5,175.3,483.9,174.7,484.5,174.6z"/>
				</g>
				<g>
					<path class="st7" d="M483.9,170.2c0.6-0.1,1.2,0.3,1.2,1c0.1,0.6-0.3,1.2-0.9,1.3s-1.2-0.3-1.2-1
						C482.9,170.8,483.3,170.3,483.9,170.2z"/>
				</g>
				<g>
					<path class="st7" d="M483.3,165.8c0.6-0.1,1.2,0.3,1.2,1c0.1,0.6-0.3,1.2-0.9,1.3s-1.2-0.3-1.2-1
						C482.3,166.4,482.7,165.9,483.3,165.8z"/>
				</g>
				<g>
					<path class="st7" d="M482.7,161.4c0.6-0.1,1.2,0.3,1.2,1c0.1,0.6-0.3,1.2-0.9,1.3c-0.6,0.1-1.2-0.3-1.2-1
						C481.7,162,482.1,161.5,482.7,161.4z"/>
				</g>
				<g>
					<path class="st7" d="M482.1,157c0.6-0.1,1.2,0.3,1.2,1c0.1,0.6-0.3,1.2-0.9,1.3s-1.2-0.3-1.2-1C481,157.6,481.5,157,482.1,157z
						"/>
				</g>
				<g>
					<path class="st7" d="M481.5,152.5c0.6-0.1,1.2,0.3,1.2,1c0.1,0.6-0.3,1.2-0.9,1.3c-0.6,0.1-1.2-0.3-1.2-1
						C480.4,153.2,480.9,152.6,481.5,152.5z"/>
				</g>
				<g>
					<path class="st7" d="M480.9,148.1c0.6-0.1,1.2,0.3,1.2,1s-0.3,1.2-0.9,1.3c-0.6,0.1-1.2-0.3-1.2-1
						C479.8,148.8,480.3,148.2,480.9,148.1z"/>
				</g>
				<g>
					<path class="st7" d="M480.3,143.7c0.6-0.1,1.2,0.3,1.2,1c0.1,0.6-0.3,1.2-0.9,1.3s-1.2-0.3-1.2-1S479.7,143.8,480.3,143.7z"/>
				</g>
				<g>
					<path class="st7" d="M479.7,139.3c0.6-0.1,1.2,0.3,1.2,1c0.1,0.6-0.3,1.2-0.9,1.3s-1.2-0.3-1.2-1
						C478.6,139.9,479,139.4,479.7,139.3z"/>
				</g>
				<g>
					<path class="st7" d="M479,134.9c0.6-0.1,1.2,0.3,1.2,1s-0.3,1.2-0.9,1.3s-1.2-0.3-1.2-1C478,135.5,478.4,135,479,134.9z"/>
				</g>
				<g>
					<path class="st7" d="M478.4,130.5c0.6-0.1,1.2,0.3,1.2,1c0.1,0.6-0.3,1.2-0.9,1.3c-0.6,0.1-1.2-0.3-1.2-1
						S477.8,130.5,478.4,130.5z"/>
				</g>
				<g>
					<path class="st7" d="M477.8,126.1c0.6-0.1,1.2,0.3,1.2,1c0.1,0.6-0.3,1.2-0.9,1.3s-1.2-0.3-1.2-1
						C476.8,126.7,477.2,126.1,477.8,126.1z"/>
				</g>
				<g>
					<path class="st7" d="M477.2,121.6c0.6-0.1,1.2,0.3,1.2,1c0.1,0.6-0.3,1.2-0.9,1.3s-1.2-0.3-1.2-1
						C476.2,122.3,476.6,121.7,477.2,121.6z"/>
				</g>
				<g>
					<path class="st7" d="M476.6,117.2c0.6-0.1,1.2,0.3,1.2,1c0.1,0.6-0.3,1.2-0.9,1.3c-0.6,0.1-1.2-0.3-1.2-1
						C475.6,117.9,476,117.3,476.6,117.2z"/>
				</g>
				<g>
					<path class="st7" d="M476,112.8c0.6-0.1,1.2,0.3,1.2,1c0.1,0.6-0.3,1.2-0.9,1.3s-1.2-0.3-1.2-1
						C475,113.5,475.4,112.9,476,112.8z"/>
				</g>
				<g>
					<path class="st7" d="M475.4,108.4c0.6-0.1,1.2,0.3,1.2,1c0.1,0.6-0.3,1.2-0.9,1.3s-1.2-0.3-1.2-1
						C474.4,109,474.8,108.5,475.4,108.4z"/>
				</g>
				<g>
					<path class="st7" d="M474.8,104c0.6-0.1,1.2,0.3,1.2,1c0.1,0.6-0.3,1.2-0.9,1.3c-0.6,0.1-1.2-0.3-1.2-1
						C473.8,104.6,474.2,104.1,474.8,104z"/>
				</g>
				<g>
					<path class="st7" d="M474.2,99.6c0.6-0.1,1.2,0.3,1.2,1c0.1,0.6-0.3,1.2-0.9,1.3s-1.2-0.3-1.2-1
						C473.2,100.2,473.6,99.6,474.2,99.6z"/>
				</g>
				<g>
					<path class="st7" d="M473.6,95.1c0.6-0.1,1.2,0.3,1.2,1c0.1,0.6-0.3,1.2-0.9,1.3s-1.2-0.3-1.2-1
						C472.6,95.8,473,95.2,473.6,95.1z"/>
				</g>
				<g>
					<path class="st7" d="M473,90.7c0.6-0.1,1.2,0.3,1.2,1c0.1,0.6-0.3,1.2-0.9,1.3s-1.2-0.3-1.2-1C472,91.4,472.4,90.8,473,90.7z"
						/>
				</g>
				<g>
					<path class="st7" d="M472.4,86.3c0.6-0.1,1.2,0.3,1.2,1c0.1,0.6-0.3,1.2-0.9,1.3c-0.6,0.1-1.2-0.3-1.2-1
						C471.4,87,471.8,86.4,472.4,86.3z"/>
				</g>
				<g>
					<path class="st7" d="M471.8,81.9c0.6-0.1,1.2,0.3,1.2,1c0.1,0.6-0.3,1.2-0.9,1.3c-0.6,0.1-1.2-0.3-1.2-1
						C470.7,82.5,471.2,82,471.8,81.9z"/>
				</g>
				<g>
					<line class="st10" x1="465.6" y1="79.4" x2="477.1" y2="77.8"/>
				</g>
			</g>
		</g>
	</g>
	<g>
		<g>
			<g>
				<g>
					<line class="st10" x1="432.4" y1="199.8" x2="433.1" y2="188.2"/>
				</g>
				<g>
					<path class="st7" d="M427.3,193.6c0-0.6,0.6-1.1,1.2-1c0.6,0,1.1,0.6,1,1.2c0,0.6-0.6,1.1-1.2,1
						C427.7,194.7,427.2,194.2,427.3,193.6z"/>
				</g>
				<g>
					<path class="st7" d="M422.9,193.3c0-0.6,0.6-1.1,1.2-1c0.6,0,1.1,0.6,1,1.2c0,0.6-0.6,1.1-1.2,1
						C423.3,194.4,422.8,193.9,422.9,193.3z"/>
				</g>
				<g>
					<path class="st7" d="M418.5,193c0-0.6,0.6-1.1,1.2-1c0.6,0,1.1,0.6,1,1.2c0,0.6-0.6,1.1-1.2,1
						C418.9,194.1,418.4,193.6,418.5,193z"/>
				</g>
				<g>
					<path class="st7" d="M414.1,192.7c0-0.6,0.6-1.1,1.2-1c0.6,0,1.1,0.6,1,1.2c0,0.6-0.6,1.1-1.2,1S414,193.3,414.1,192.7z"/>
				</g>
				<g>
					
						<ellipse transform="matrix(6.826422e-02 -0.9977 0.9977 6.826422e-02 190.709 589.1543)" class="st7" cx="410.8" cy="192.5" rx="1.1" ry="1.1"/>
				</g>
				<g>
					<path class="st7" d="M405.3,192.1c0-0.6,0.6-1.1,1.2-1c0.6,0,1.1,0.6,1,1.2c0,0.6-0.6,1.1-1.2,1
						C405.7,193.2,405.2,192.7,405.3,192.1z"/>
				</g>
				<g>
					<path class="st7" d="M400.9,191.8c0-0.6,0.6-1.1,1.2-1c0.6,0,1.1,0.6,1,1.2c0,0.6-0.6,1.1-1.2,1
						C401.3,192.9,400.8,192.4,400.9,191.8z"/>
				</g>
				<g>
					<path class="st7" d="M396.5,191.5c0-0.6,0.6-1.1,1.2-1c0.6,0,1.1,0.6,1,1.2s-0.6,1.1-1.2,1
						C396.9,192.6,396.5,192.1,396.5,191.5z"/>
				</g>
				<g>
					<path class="st7" d="M392.1,191.2c0-0.6,0.6-1.1,1.2-1s1.1,0.6,1,1.2c0,0.6-0.6,1.1-1.2,1S392.1,191.8,392.1,191.2z"/>
				</g>
				<g>
					<path class="st7" d="M387.7,190.9c0-0.6,0.6-1.1,1.2-1c0.6,0,1.1,0.6,1,1.2c0,0.6-0.6,1.1-1.2,1S387.7,191.5,387.7,190.9z"/>
				</g>
				<g>
					<path class="st7" d="M383.3,190.6c0-0.6,0.6-1.1,1.2-1c0.6,0,1.1,0.6,1,1.2s-0.6,1.1-1.2,1
						C383.7,191.7,383.3,191.2,383.3,190.6z"/>
				</g>
				<g>
					<path class="st7" d="M378.9,190.3c0-0.6,0.6-1.1,1.2-1c0.6,0,1.1,0.6,1,1.2s-0.6,1.1-1.2,1
						C379.3,191.4,378.9,190.9,378.9,190.3z"/>
				</g>
				<g>
					<path class="st7" d="M374.5,190c0-0.6,0.6-1.1,1.2-1c0.6,0,1.1,0.6,1,1.2s-0.6,1.1-1.2,1C374.9,191.1,374.5,190.6,374.5,190z"
						/>
				</g>
				<g>
					<path class="st7" d="M370.1,189.7c0-0.6,0.6-1.1,1.2-1c0.6,0,1.1,0.6,1,1.2c0,0.6-0.6,1.1-1.2,1
						C370.5,190.8,370.1,190.3,370.1,189.7z"/>
				</g>
				<g>
					<path class="st7" d="M365.7,189.4c0-0.6,0.6-1.1,1.2-1c0.6,0,1.1,0.6,1,1.2s-0.6,1.1-1.2,1C366.1,190.5,365.7,190,365.7,189.4z
						"/>
				</g>
				<g>
					<path class="st7" d="M361.3,189.1c0-0.6,0.6-1.1,1.2-1c0.6,0,1.1,0.6,1,1.2c0,0.6-0.6,1.1-1.2,1
						C361.7,190.2,361.3,189.7,361.3,189.1z"/>
				</g>
				<g>
					<path class="st7" d="M356.9,188.8c0-0.6,0.6-1.1,1.2-1c0.6,0,1.1,0.6,1,1.2c0,0.6-0.6,1.1-1.2,1
						C357.4,189.9,356.9,189.4,356.9,188.8z"/>
				</g>
				<g>
					<path class="st7" d="M352.5,188.5c0-0.6,0.6-1.1,1.2-1c0.6,0,1.1,0.6,1,1.2c0,0.6-0.6,1.1-1.2,1
						C353,189.6,352.5,189.1,352.5,188.5z"/>
				</g>
				<g>
					<path class="st7" d="M348.1,188.1c0-0.6,0.6-1.1,1.2-1c0.6,0,1.1,0.6,1,1.2c0,0.6-0.6,1.1-1.2,1
						C348.6,189.3,348.1,188.8,348.1,188.1z"/>
				</g>
				<g>
					<path class="st7" d="M343.8,187.8c0-0.6,0.6-1.1,1.2-1s1.1,0.6,1,1.2c0,0.6-0.6,1.1-1.2,1S343.7,188.4,343.8,187.8z"/>
				</g>
				<g>
					<path class="st7" d="M339.4,187.5c0-0.6,0.6-1.1,1.2-1c0.6,0,1.1,0.6,1,1.2c0,0.6-0.6,1.1-1.2,1
						C339.8,188.7,339.3,188.1,339.4,187.5z"/>
				</g>
				<g>
					<path class="st7" d="M335,187.2c0-0.6,0.6-1.1,1.2-1c0.6,0,1.1,0.6,1,1.2s-0.6,1.1-1.2,1C335.4,188.3,334.9,187.8,335,187.2z"
						/>
				</g>
				<g>
					<path class="st7" d="M330.6,186.9c0-0.6,0.6-1.1,1.2-1c0.6,0,1.1,0.6,1,1.2c0,0.6-0.6,1.1-1.2,1
						C331,188,330.5,187.5,330.6,186.9z"/>
				</g>
				<g>
					<path class="st7" d="M326.2,186.6c0-0.6,0.6-1.1,1.2-1s1.1,0.6,1,1.2c0,0.6-0.6,1.1-1.2,1S326.1,187.2,326.2,186.6z"/>
				</g>
				<g>
					<path class="st7" d="M321.8,186.3c0-0.6,0.6-1.1,1.2-1c0.6,0,1.1,0.6,1,1.2c0,0.6-0.6,1.1-1.2,1
						C322.2,187.4,321.7,186.9,321.8,186.3z"/>
				</g>
				<g>
					<path class="st7" d="M317.4,185.9c0-0.6,0.6-1.1,1.2-1s1.1,0.6,1,1.2c0,0.6-0.6,1.1-1.2,1C317.8,187.1,317.3,186.5,317.4,185.9
						z"/>
				</g>
				<g>
					<path class="st7" d="M313,185.6c0-0.6,0.6-1.1,1.2-1c0.6,0,1.1,0.6,1,1.2c0,0.6-0.6,1.1-1.2,1
						C313.4,186.7,312.9,186.2,313,185.6z"/>
				</g>
				<g>
					<path class="st7" d="M308.6,185.2c0.1-0.6,0.6-1.1,1.2-1c0.6,0,1.1,0.6,1,1.2c0,0.6-0.6,1.1-1.2,1
						C309,186.4,308.6,185.9,308.6,185.2z"/>
				</g>
				<g>
					<path class="st7" d="M304.2,184.8c0.1-0.6,0.7-1,1.2-0.9c0.6,0.1,1,0.6,0.9,1.2c-0.1,0.6-0.6,1-1.2,1
						C304.5,185.9,304.1,185.4,304.2,184.8z"/>
				</g>
				<g>
					<path class="st7" d="M299.9,183.8c0.2-0.6,0.8-0.9,1.3-0.8c0.6,0.1,0.9,0.7,0.8,1.3c-0.1,0.6-0.7,0.9-1.4,0.8
						C300.1,185,299.8,184.3,299.9,183.8z"/>
				</g>
				<g>
					<path class="st7" d="M295.8,182.3c0.2-0.6,0.9-0.8,1.4-0.6c0.6,0.2,0.8,0.8,0.6,1.4s-0.8,0.9-1.4,0.6
						C295.8,183.5,295.6,182.8,295.8,182.3z"/>
				</g>
				<g>
					<path class="st7" d="M291.8,180.4c0.3-0.5,0.9-0.8,1.5-0.5c0.5,0.3,0.8,0.9,0.5,1.5c-0.3,0.5-0.9,0.8-1.5,0.5
						C291.8,181.6,291.5,180.9,291.8,180.4z"/>
				</g>
				<g>
					<path class="st7" d="M288,178.2c0.3-0.5,1-0.7,1.5-0.4c0.5,0.3,0.7,1,0.4,1.5c-0.3,0.5-1,0.7-1.5,0.4
						C287.8,179.4,287.7,178.7,288,178.2z"/>
				</g>
				<g>
					<path class="st7" d="M284.2,175.9c0.3-0.5,1-0.7,1.5-0.4c0.5,0.3,0.7,1,0.4,1.5c-0.3,0.5-1,0.7-1.5,0.4
						C284.1,177.1,283.9,176.4,284.2,175.9z"/>
				</g>
				<g>
					<path class="st7" d="M280.5,173.6c0.3-0.5,1-0.7,1.5-0.4c0.5,0.3,0.7,1,0.4,1.5c-0.3,0.5-1,0.7-1.5,0.4
						C280.3,174.8,280.2,174.2,280.5,173.6z"/>
				</g>
				<g>
					<path class="st7" d="M276.6,171.4c0.3-0.5,1-0.7,1.5-0.4c0.5,0.3,0.7,1,0.4,1.5c-0.3,0.5-1,0.7-1.5,0.4
						C276.5,172.6,276.3,172,276.6,171.4z"/>
				</g>
				<g>
					<path class="st7" d="M272.8,169.3c0.3-0.5,1-0.7,1.5-0.4c0.5,0.3,0.7,1,0.4,1.5c-0.3,0.5-1,0.7-1.5,0.4
						S272.5,169.8,272.8,169.3z"/>
				</g>
				<g>
					<path class="st7" d="M269,167.1c0.3-0.5,1-0.7,1.5-0.4c0.5,0.3,0.7,1,0.4,1.5s-1,0.7-1.5,0.4
						C268.9,168.3,268.7,167.6,269,167.1z"/>
				</g>
				<g>
					<path class="st7" d="M265.2,164.9c0.3-0.5,1-0.7,1.5-0.4c0.5,0.3,0.7,1,0.4,1.5c-0.3,0.5-1,0.7-1.5,0.4
						C265,166.1,264.8,165.4,265.2,164.9z"/>
				</g>
				<g>
					<path class="st7" d="M261.3,162.7c0.3-0.5,1-0.7,1.5-0.4c0.5,0.3,0.7,1,0.4,1.5c-0.3,0.5-1,0.7-1.5,0.4S261,163.2,261.3,162.7z
						"/>
				</g>
				<g>
					<path class="st7" d="M257.5,160.5c0.3-0.5,1-0.7,1.5-0.4s0.7,1,0.4,1.5c-0.3,0.5-1,0.7-1.5,0.4S257.2,161.1,257.5,160.5z"/>
				</g>
				<g>
					<path class="st7" d="M253.7,158.3c0.3-0.5,1-0.7,1.5-0.4c0.5,0.3,0.7,1,0.4,1.5c-0.3,0.5-1,0.7-1.5,0.4
						C253.6,159.5,253.4,158.9,253.7,158.3z"/>
				</g>
				<g>
					<path class="st7" d="M249.8,156.2c0.3-0.5,1-0.7,1.5-0.4s0.7,1,0.4,1.5c-0.3,0.5-1,0.7-1.5,0.4
						C249.7,157.4,249.5,156.7,249.8,156.2z"/>
				</g>
				<g>
					<path class="st7" d="M246,154c0.3-0.5,1-0.7,1.5-0.4c0.5,0.3,0.7,1,0.4,1.5s-1,0.7-1.5,0.4C245.9,155.2,245.7,154.5,246,154z"
						/>
				</g>
				<g>
					<path class="st7" d="M242.2,151.8c0.3-0.5,1-0.7,1.5-0.4c0.5,0.3,0.7,1,0.4,1.5c-0.3,0.5-1,0.7-1.5,0.4
						S241.9,152.3,242.2,151.8z"/>
				</g>
				<g>
					<path class="st7" d="M238.4,149.6c0.3-0.5,1-0.7,1.5-0.4c0.5,0.3,0.7,1,0.4,1.5c-0.3,0.5-1,0.7-1.5,0.4
						C238.2,150.8,238.1,150.1,238.4,149.6z"/>
				</g>
				<g>
					<path class="st7" d="M234.5,147.4c0.3-0.5,1-0.7,1.5-0.4c0.5,0.3,0.7,1,0.4,1.5s-1,0.7-1.5,0.4
						C234.4,148.6,234.2,148,234.5,147.4z"/>
				</g>
				<g>
					<path class="st7" d="M230.7,145.2c0.3-0.5,1-0.7,1.5-0.4c0.5,0.3,0.7,1,0.4,1.5c-0.3,0.5-1,0.7-1.5,0.4
						C230.6,146.4,230.4,145.8,230.7,145.2z"/>
				</g>
				<g>
					<path class="st7" d="M226.9,143.1c0.3-0.5,1-0.7,1.5-0.4c0.5,0.3,0.7,1,0.4,1.5c-0.3,0.5-1,0.7-1.5,0.4
						S226.6,143.6,226.9,143.1z"/>
				</g>
				<g>
					<path class="st7" d="M223.1,140.9c0.3-0.5,1-0.7,1.5-0.4s0.7,1,0.4,1.5c-0.3,0.5-1,0.7-1.5,0.4
						C222.9,142.1,222.8,141.4,223.1,140.9z"/>
				</g>
				<g>
					<path class="st7" d="M219.2,138.7c0.3-0.5,1-0.7,1.5-0.4c0.5,0.3,0.7,1,0.4,1.5c-0.3,0.5-1,0.7-1.5,0.4
						C219.1,139.9,218.9,139.2,219.2,138.7z"/>
				</g>
				<g>
					<path class="st7" d="M215.4,136.5c0.3-0.5,1-0.7,1.5-0.4c0.5,0.3,0.7,1,0.4,1.5c-0.3,0.5-1,0.7-1.5,0.4S215.1,137,215.4,136.5z
						"/>
				</g>
				<g>
					<path class="st7" d="M211.6,134.3c0.3-0.5,1-0.7,1.5-0.4c0.5,0.3,0.7,1,0.4,1.5c-0.3,0.5-1,0.7-1.5,0.4
						C211.5,135.5,211.3,134.9,211.6,134.3z"/>
				</g>
				<g>
					<line class="st10" x1="205.8" y1="137.7" x2="211.6" y2="127.7"/>
				</g>
			</g>
		</g>
	</g>
	<g>
		<g>
			<g>
				<g>
					<line class="st10" x1="134.5" y1="328.4" x2="146" y2="330.2"/>
				</g>
				<g>
					<path class="st7" d="M141.1,323.8c0.6,0.1,1,0.7,0.9,1.3c-0.1,0.6-0.7,1-1.3,0.9c-0.6-0.1-1-0.7-0.9-1.3
						C139.9,324.1,140.5,323.7,141.1,323.8z"/>
				</g>
				<g>
					<path class="st7" d="M141.8,319.4c0.6,0.1,1,0.7,0.9,1.3c-0.1,0.6-0.7,1-1.3,0.9c-0.6-0.1-1-0.7-0.9-1.3
						S141.2,319.3,141.8,319.4z"/>
				</g>
				<g>
					<path class="st7" d="M142.5,315c0.6,0.1,1,0.7,0.9,1.3c-0.1,0.6-0.7,1-1.3,0.9c-0.6-0.1-1-0.7-0.9-1.3
						C141.3,315.3,141.9,314.9,142.5,315z"/>
				</g>
				<g>
					<path class="st7" d="M143.2,310.6c0.6,0.1,1,0.7,0.9,1.3c-0.1,0.6-0.7,1-1.3,0.9c-0.6-0.1-1-0.7-0.9-1.3
						C142,311,142.6,310.5,143.2,310.6z"/>
				</g>
				<g>
					<path class="st7" d="M143.9,306.3c0.6,0.1,1,0.7,0.9,1.3c-0.1,0.6-0.7,1-1.3,0.9c-0.6-0.1-1-0.7-0.9-1.3
						C142.7,306.6,143.3,306.2,143.9,306.3z"/>
				</g>
				<g>
					<path class="st7" d="M144.6,301.9c0.6,0.1,1,0.7,0.9,1.3c-0.1,0.6-0.7,1-1.3,0.9s-1-0.7-0.9-1.3
						C143.4,302.2,144,301.8,144.6,301.9z"/>
				</g>
				<g>
					<path class="st7" d="M145.3,297.5c0.6,0.1,1,0.7,0.9,1.3c-0.1,0.6-0.7,1-1.3,0.9s-1-0.7-0.9-1.3
						C144.1,297.8,144.7,297.4,145.3,297.5z"/>
				</g>
				<g>
					<path class="st7" d="M146,293.1c0.6,0.1,1,0.7,0.9,1.3c-0.1,0.6-0.7,1-1.3,0.9s-1-0.7-0.9-1.3C144.8,293.4,145.4,293,146,293.1
						z"/>
				</g>
				<g>
					<path class="st7" d="M146.7,288.7c0.6,0.1,1,0.7,0.9,1.3c-0.1,0.6-0.7,1-1.3,0.9c-0.6-0.1-1-0.7-0.9-1.3
						C145.5,289,146.1,288.6,146.7,288.7z"/>
				</g>
				<g>
					<path class="st7" d="M147.4,284.3c0.6,0.1,1,0.7,0.9,1.3c-0.1,0.6-0.7,1-1.3,0.9c-0.6-0.1-1-0.7-0.9-1.3
						C146.2,284.6,146.8,284.2,147.4,284.3z"/>
				</g>
				<g>
					<path class="st7" d="M148.1,279.9c0.6,0.1,1,0.7,0.9,1.3c-0.1,0.6-0.7,1-1.3,0.9c-0.6-0.1-1-0.7-0.9-1.3
						C146.9,280.3,147.5,279.9,148.1,279.9z"/>
				</g>
				<g>
					<path class="st7" d="M148.8,275.6c0.6,0.1,1,0.7,0.9,1.3c-0.1,0.6-0.7,1-1.3,0.9c-0.6-0.1-1-0.7-0.9-1.3
						C147.6,275.9,148.2,275.5,148.8,275.6z"/>
				</g>
				<g>
					<path class="st7" d="M149.5,271.2c0.6,0.1,1,0.7,0.9,1.3c-0.1,0.6-0.7,1-1.3,0.9c-0.6-0.1-1-0.7-0.9-1.3
						C148.3,271.5,148.9,271.1,149.5,271.2z"/>
				</g>
				<g>
					<path class="st7" d="M150.2,266.8c0.6,0.1,1,0.7,0.9,1.3c-0.1,0.6-0.7,1-1.3,0.9c-0.6-0.1-1-0.7-0.9-1.3
						C149,267.1,149.6,266.7,150.2,266.8z"/>
				</g>
				<g>
					<path class="st7" d="M151,262.4c0.6,0.1,1,0.7,0.9,1.3c-0.1,0.6-0.7,1-1.3,0.9c-0.6-0.1-1-0.7-0.9-1.3
						C149.8,262.7,150.4,262.3,151,262.4z"/>
				</g>
				<g>
					<path class="st7" d="M151.9,258.1c0.6,0.1,1,0.7,0.9,1.3c-0.1,0.6-0.7,1-1.3,0.9c-0.6-0.1-1-0.7-0.9-1.3
						C150.7,258.3,151.3,258,151.9,258.1z"/>
				</g>
				<g>
					<path class="st7" d="M152.8,253.7c0.6,0.1,1,0.7,0.8,1.3c-0.1,0.6-0.7,1-1.3,0.8c-0.6-0.1-1-0.7-0.8-1.3
						C151.6,254,152.2,253.6,152.8,253.7z"/>
				</g>
				<g>
					<path class="st7" d="M153.9,249.4c0.6,0.2,0.9,0.8,0.8,1.3c-0.2,0.6-0.8,0.9-1.3,0.8c-0.6-0.1-1-0.8-0.8-1.4
						C152.7,249.6,153.3,249.3,153.9,249.4z"/>
				</g>
				<g>
					<path class="st7" d="M155.1,245.2c0.6,0.2,0.9,0.8,0.7,1.4c-0.2,0.6-0.8,0.9-1.4,0.8c-0.6-0.2-0.9-0.8-0.7-1.4
						C153.9,245.3,154.5,245,155.1,245.2z"/>
				</g>
				<g>
					<path class="st7" d="M156.5,240.9c0.6,0.2,0.9,0.8,0.7,1.4c-0.2,0.6-0.8,0.9-1.4,0.7c-0.6-0.2-0.9-0.8-0.7-1.4
						C155.3,241,155.9,240.7,156.5,240.9z"/>
				</g>
				<g>
					<path class="st7" d="M158,236.8c0.6,0.2,0.9,0.9,0.6,1.4c-0.2,0.6-0.9,0.9-1.4,0.7c-0.6-0.2-0.9-0.8-0.6-1.4
						S157.4,236.6,158,236.8z"/>
				</g>
				<g>
					<path class="st7" d="M159.6,232.6c0.6,0.2,0.9,0.9,0.6,1.4c-0.2,0.6-0.9,0.9-1.4,0.7s-0.9-0.9-0.6-1.4
						C158.4,232.7,159,232.4,159.6,232.6z"/>
				</g>
				<g>
					<path class="st7" d="M161.2,228.5c0.6,0.2,0.9,0.9,0.6,1.4c-0.2,0.6-0.9,0.9-1.4,0.6c-0.6-0.2-0.9-0.9-0.6-1.4
						C160,228.6,160.6,228.3,161.2,228.5z"/>
				</g>
				<g>
					<path class="st7" d="M162.7,224.3c0.6,0.2,0.9,0.9,0.6,1.4c-0.2,0.6-0.9,0.9-1.4,0.6s-0.9-0.9-0.6-1.4
						C161.5,224.4,162.2,224.1,162.7,224.3z"/>
				</g>
				<g>
					<path class="st7" d="M164.3,220.2c0.6,0.2,0.9,0.9,0.6,1.4s-0.9,0.9-1.4,0.6c-0.6-0.2-0.9-0.9-0.6-1.4
						C163.1,220.3,163.8,220,164.3,220.2z"/>
				</g>
				<g>
					<path class="st7" d="M165.9,216c0.6,0.2,0.9,0.9,0.6,1.4c-0.2,0.6-0.9,0.9-1.4,0.6c-0.6-0.2-0.9-0.9-0.6-1.4
						C164.7,216.1,165.3,215.8,165.9,216z"/>
				</g>
				<g>
					<path class="st7" d="M167.5,211.9c0.6,0.2,0.9,0.9,0.6,1.4c-0.2,0.6-0.9,0.9-1.4,0.6s-0.9-0.9-0.6-1.4
						C166.3,212,166.9,211.7,167.5,211.9z"/>
				</g>
				<g>
					<line class="st10" x1="163.2" y1="206.7" x2="174.1" y2="210.8"/>
				</g>
			</g>
		</g>
	</g>
</g>
<g id="SPEED_x5F_TRAP">
	<g>
		<g>
			<path class="st11" d="M543,45.5c0,0.8-0.6,1.4-1.4,1.4h-42.2c-0.8,0-1.4-0.6-1.4-1.4V10.8c0-0.8,0.6-1.4,1.4-1.4h42.2
				c0.8,0,1.4,0.6,1.4,1.4V45.5z"/>
		</g>
		<g>
			<path class="st6" d="M510.2,22.3V25c0,1.3-0.6,1.7-1.3,2H505c-0.7-0.3-1.3-0.7-1.3-2v-2.4h2.7v2l0.2,0.2h0.8l0.2-0.2v-1.8
				l-0.2-0.2l-2.7-1.2c-0.8-0.4-0.9-0.9-0.9-1.8V17c0-1.3,0.6-1.7,1.3-2h3.9c0.7,0.3,1.3,0.7,1.3,2v2.2h-2.7v-1.9l-0.2-0.2h-0.8
				l-0.2,0.2v1.7l0.2,0.3l2.7,1.1C510,20.8,510.2,21.4,510.2,22.3z"/>
			<path class="st6" d="M513.6,22.9V27h-2.7v-12h5.2c0.7,0.3,1.3,0.7,1.3,2v3.8c0,1.3-0.6,1.7-1.3,2H513.6z M513.6,17.2v3.5h1
				l0.2-0.2v-3.2l-0.2-0.2H513.6z"/>
			<path class="st6" d="M518.1,15.1h5.5v2.5h-2.8v2.2h2.7v2.5h-2.7v2.3h2.9V27h-5.6V15.1z"/>
			<path class="st6" d="M524.5,15.1h5.5v2.5h-2.8v2.2h2.7v2.5h-2.7v2.3h2.9V27h-5.6V15.1z"/>
			<path class="st6" d="M537.4,25c0,1.3-0.6,1.7-1.3,2h-5.2v-12h5.2c0.7,0.3,1.3,0.7,1.3,2V25z M533.5,17.2v7.7h1l0.2-0.2v-7.3
				l-0.2-0.2H533.5z"/>
			<path class="st6" d="M511.1,31.7v9.5h-2.7v-9.5h-1.9v-2.5h6.5v2.5H511.1z"/>
			<path class="st6" d="M513.5,41.2v-12h5.2c0.7,0.3,1.3,0.7,1.3,2v2.5c0,1.1-0.5,1.6-1.1,1.9l1.4,3.8v1.7H518l-1.5-4.7h-0.3v4.7
				H513.5z M516.2,31.4v3h1l0.2-0.2v-2.7l-0.2-0.2H516.2z"/>
			<path class="st6" d="M524.6,38.9h-1.3l-0.2,2.3h-2.5v-2l1.5-10h3.6l1.5,10v2h-2.5L524.6,38.9z M523.5,36.4h0.8l-0.3-3.8h-0.2
				L523.5,36.4z"/>
			<path class="st6" d="M530.6,37v4.2H528v-12h5.2c0.7,0.3,1.3,0.7,1.3,2V35c0,1.3-0.6,1.7-1.3,2H530.6z M530.6,31.4v3.5h1l0.2-0.2
				v-3.2l-0.2-0.2H530.6z"/>
		</g>
	</g>
	<g>
		<circle class="st8" cx="492" cy="104.2" r="4.7"/>
		<circle class="st11" cx="492" cy="104.2" r="4.7"/>
	</g>
	<g>
		<path class="st12" d="M492,104.2h20.5c4.7,0,8.5-3.8,8.5-8.5V46.9"/>
	</g>
</g>
<g id="アイコン">
	<g>
		
			<rect x="534.6" y="212.6" transform="matrix(-0.9891 0.1476 -0.1476 -0.9891 1097.6924 346.6735)" class="st5" width="2.8" height="2.8"/>
		
			<rect x="529" y="213.5" transform="matrix(-0.9891 0.1476 -0.1476 -0.9891 1086.6627 349.1651)" class="st5" width="2.8" height="2.8"/>
		
			<rect x="531.3" y="210.3" transform="matrix(-0.9891 0.1476 -0.1476 -0.9891 1090.9318 342.4045)" class="st5" width="2.8" height="2.8"/>
		
			<rect x="525.7" y="211.1" transform="matrix(-0.9891 0.1476 -0.1476 -0.9891 1079.9021 344.8961)" class="st5" width="2.8" height="2.8"/>
		
			<rect x="530.5" y="204.6" transform="matrix(-0.9891 0.1476 -0.1476 -0.9891 1088.4401 331.3749)" class="st5" width="2.8" height="2.8"/>
		
			<rect x="524.9" y="205.5" transform="matrix(-0.9891 0.1476 -0.1476 -0.9891 1077.4105 333.8666)" class="st5" width="2.8" height="2.8"/>
		
			<rect x="523.4" y="214.3" transform="matrix(-0.9891 0.1476 -0.1476 -0.9891 1075.6332 351.6568)" class="st5" width="2.8" height="2.8"/>
		
			<rect x="526.2" y="213.9" transform="matrix(-0.9891 0.1476 -0.1476 -0.9891 1081.1479 350.4109)" class="st6" width="2.8" height="2.8"/>
		
			<rect x="531.8" y="213.1" transform="matrix(-0.9891 0.1476 -0.1476 -0.9891 1092.1775 347.9193)" class="st6" width="2.8" height="2.8"/>
		
			<rect x="534.1" y="209.8" transform="matrix(-0.9891 0.1476 -0.1476 -0.9891 1096.4465 341.1587)" class="st6" width="2.8" height="2.8"/>
		
			<rect x="528.5" y="210.7" transform="matrix(-0.9891 0.1476 -0.1476 -0.9891 1085.417 343.6503)" class="st6" width="2.8" height="2.8"/>
		
			<rect x="522.9" y="211.5" transform="matrix(-0.9891 0.1476 -0.1476 -0.9891 1074.3873 346.142)" class="st6" width="2.8" height="2.8"/>
		
			<rect x="525.3" y="208.3" transform="matrix(-0.9891 0.1476 -0.1476 -0.9891 1078.6564 339.3814)" class="st6" width="2.8" height="2.8"/>
		
			<rect x="530.9" y="207.5" transform="matrix(-0.9891 0.1476 -0.1476 -0.9891 1089.6859 336.8897)" class="st6" width="2.8" height="2.8"/>
		
			<rect x="524.5" y="202.7" transform="matrix(-0.9891 0.1476 -0.1476 -0.9891 1076.1647 328.3518)" class="st6" width="2.8" height="2.8"/>
		
			<rect x="530.1" y="201.8" transform="matrix(-0.9891 0.1476 -0.1476 -0.9891 1087.1942 325.8602)" class="st6" width="2.8" height="2.8"/>
		
			<rect x="533.3" y="204.2" transform="matrix(-0.9891 0.1476 -0.1476 -0.9891 1093.9548 330.1291)" class="st6" width="2.8" height="2.8"/>
		
			<rect x="527.7" y="205.1" transform="matrix(-0.9891 0.1476 -0.1476 -0.9891 1082.9253 332.6208)" class="st6" width="2.8" height="2.8"/>
		
			<rect x="522.1" y="205.9" transform="matrix(-0.9891 0.1476 -0.1476 -0.9891 1071.8958 335.1124)" class="st6" width="2.8" height="2.8"/>
		
			<rect x="533.7" y="207" transform="matrix(-0.9891 0.1476 -0.1476 -0.9891 1095.2007 335.6439)" class="st5" width="2.8" height="2.8"/>
		
			<rect x="528.1" y="207.9" transform="matrix(-0.9891 0.1476 -0.1476 -0.9891 1084.1711 338.1356)" class="st5" width="2.8" height="2.8"/>
		
			<rect x="527.3" y="202.3" transform="matrix(-0.9891 0.1476 -0.1476 -0.9891 1081.6794 327.106)" class="st5" width="2.8" height="2.8"/>
		
			<rect x="522.5" y="208.7" transform="matrix(-0.9891 0.1476 -0.1476 -0.9891 1073.1416 340.6272)" class="st5" width="2.8" height="2.8"/>
		
			<rect x="532.9" y="201.4" transform="matrix(-0.9891 0.1476 -0.1476 -0.9891 1092.709 324.6143)" class="st5" width="2.8" height="2.8"/>
		
			<rect x="521.7" y="203.1" transform="matrix(-0.9891 0.1476 -0.1476 -0.9891 1070.6499 329.5976)" class="st5" width="2.8" height="2.8"/>
	</g>
	<g>
		<g>
			<path class="st6" d="M462.8,426.3c0,1.6-1.3,2.8-2.8,2.8H91.1c-1.6,0-2.8-1.3-2.8-2.8v-24.9c0-1.6,1.3-2.8,2.8-2.8h368.8
				c1.6,0,2.8,1.3,2.8,2.8V426.3z"/>
			<path class="st13" d="M462.8,426.3c0,1.6-1.3,2.8-2.8,2.8H91.1c-1.6,0-2.8-1.3-2.8-2.8v-24.9c0-1.6,1.3-2.8,2.8-2.8h368.8
				c1.6,0,2.8,1.3,2.8,2.8V426.3z"/>
		</g>
		<g>
			<path class="st5" d="M133.8,415.3v2.6c0,1.3-0.6,1.7-1.3,2h-3.3c-0.7-0.3-1.3-0.7-1.3-2v-2h1.8v2.1l0.4,0.4h1.6l0.4-0.4v-2.8
				l-0.3-0.4L129,414c-0.8-0.3-1.1-0.8-1.1-1.9v-2.2c0-1.3,0.6-1.7,1.3-2h3.3c0.7,0.3,1.3,0.7,1.3,2v1.9H132v-2.1l-0.4-0.4h-1.6
				l-0.4,0.4v2.4l0.4,0.4l2.6,0.7C133.4,413.6,133.8,414.1,133.8,415.3z"/>
			<path class="st5" d="M135.1,407.9h5.1v1.6h-3.3v3.4h3.1v1.6h-3.1v3.7h3.4v1.6h-5.2V407.9z"/>
			<path class="st5" d="M147.5,417.9c0,1.3-0.6,1.7-1.3,2h-3.3c-0.7-0.3-1.3-0.7-1.3-2v-8c0-1.3,0.6-1.7,1.3-2h3.3
				c0.7,0.3,1.3,0.7,1.3,2v2.7h-1.8v-2.8l-0.4-0.4h-1.6l-0.4,0.4v8.3l0.4,0.4h1.6l0.4-0.4v-2.7h1.8V417.9z"/>
			<path class="st5" d="M152.2,409.5v10.3h-1.8v-10.3h-2.1v-1.6h6.1v1.6H152.2z"/>
			<path class="st5" d="M161.1,417.9c0,1.3-0.6,1.7-1.3,2h-3.3c-0.7-0.3-1.3-0.7-1.3-2v-8c0-1.3,0.6-1.7,1.3-2h3.3
				c0.7,0.3,1.3,0.7,1.3,2V417.9z M159.3,409.7l-0.4-0.4h-1.6l-0.4,0.4v8.3l0.4,0.4h1.6l0.4-0.4V409.7z"/>
			<path class="st5" d="M162.5,419.8v-12h4.6c0.7,0.3,1.3,0.7,1.3,2v2.6c0,1.3-0.6,1.6-1.3,1.9l-0.3,0.1l2.1,4.3v1.1h-1.6l-2.2-5.1
				h-0.8v5.1H162.5z M164.3,409.4v3.9h2l0.4-0.4v-3.1l-0.4-0.4H164.3z"/>
			<path class="st5" d="M172.6,419.8v-1.6h1.8v-8.7h-1.7v-1.6h3.5v10.4h1.7v1.6H172.6z"/>
		</g>
		<line class="st14" x1="102.5" y1="413.9" x2="123.7" y2="413.9"/>
		<g>
			<path class="st5" d="M223.9,415.3v2.6c0,1.3-0.6,1.7-1.3,2h-3.3c-0.7-0.3-1.3-0.7-1.3-2v-2h1.8v2.1l0.4,0.4h1.6l0.4-0.4v-2.8
				l-0.3-0.4l-2.6-0.8c-0.8-0.3-1.1-0.8-1.1-1.9v-2.2c0-1.3,0.6-1.7,1.3-2h3.3c0.7,0.3,1.3,0.7,1.3,2v1.9h-1.8v-2.1l-0.4-0.4h-1.6
				l-0.4,0.4v2.4l0.4,0.4l2.6,0.7C223.5,413.6,223.9,414.1,223.9,415.3z"/>
			<path class="st5" d="M225.2,407.9h5.1v1.6H227v3.4h3.1v1.6H227v3.7h3.4v1.6h-5.2V407.9z"/>
			<path class="st5" d="M237.6,417.9c0,1.3-0.6,1.7-1.3,2h-3.3c-0.7-0.3-1.3-0.7-1.3-2v-8c0-1.3,0.6-1.7,1.3-2h3.3
				c0.7,0.3,1.3,0.7,1.3,2v2.7h-1.8v-2.8l-0.4-0.4h-1.6l-0.4,0.4v8.3l0.4,0.4h1.6l0.4-0.4v-2.7h1.8V417.9z"/>
			<path class="st5" d="M242.3,409.5v10.3h-1.8v-10.3h-2.1v-1.6h6.1v1.6H242.3z"/>
			<path class="st5" d="M251.2,417.9c0,1.3-0.6,1.7-1.3,2h-3.3c-0.7-0.3-1.3-0.7-1.3-2v-8c0-1.3,0.6-1.7,1.3-2h3.3
				c0.7,0.3,1.3,0.7,1.3,2V417.9z M249.4,409.7l-0.4-0.4h-1.6l-0.4,0.4v8.3l0.4,0.4h1.6l0.4-0.4V409.7z"/>
			<path class="st5" d="M252.6,419.8v-12h4.6c0.7,0.3,1.3,0.7,1.3,2v2.6c0,1.3-0.6,1.6-1.3,1.9l-0.3,0.1l2.1,4.3v1.1h-1.6l-2.2-5.1
				h-0.8v5.1H252.6z M254.4,409.4v3.9h2l0.4-0.4v-3.1l-0.4-0.4H254.4z"/>
			<path class="st5" d="M262.3,419.8v-3.6c0-1.1,0.4-1.7,1.2-2.1l3-1.2v-3.2l-0.4-0.4h-1.7l-0.4,0.4v2h-1.8v-1.9
				c0-1.3,0.6-1.7,1.3-2h3.3c0.7,0.3,1.3,0.7,1.3,2v2.5c0,1.1-0.3,1.7-1.1,2.1l-3,1.2v2.5h4.1v1.6H262.3z"/>
		</g>
		<line class="st15" x1="192.6" y1="413.9" x2="213.8" y2="413.9"/>
		<g>
			<path class="st5" d="M313.7,415.3v2.6c0,1.3-0.6,1.7-1.3,2h-3.3c-0.7-0.3-1.3-0.7-1.3-2v-2h1.8v2.1l0.4,0.4h1.6l0.4-0.4v-2.8
				l-0.3-0.4L309,414c-0.8-0.3-1.1-0.8-1.1-1.9v-2.2c0-1.3,0.6-1.7,1.3-2h3.3c0.7,0.3,1.3,0.7,1.3,2v1.9h-1.8v-2.1l-0.4-0.4H310
				l-0.4,0.4v2.4l0.4,0.4l2.6,0.7C313.4,413.6,313.7,414.1,313.7,415.3z"/>
			<path class="st5" d="M315.1,407.9h5.1v1.6h-3.3v3.4h3.1v1.6h-3.1v3.7h3.4v1.6h-5.2V407.9z"/>
			<path class="st5" d="M327.4,417.9c0,1.3-0.6,1.7-1.3,2h-3.3c-0.7-0.3-1.3-0.7-1.3-2v-8c0-1.3,0.6-1.7,1.3-2h3.3
				c0.7,0.3,1.3,0.7,1.3,2v2.7h-1.8v-2.8l-0.4-0.4h-1.6l-0.4,0.4v8.3l0.4,0.4h1.6l0.4-0.4v-2.7h1.8V417.9z"/>
			<path class="st5" d="M332.1,409.5v10.3h-1.8v-10.3h-2.1v-1.6h6.1v1.6H332.1z"/>
			<path class="st5" d="M341,417.9c0,1.3-0.6,1.7-1.3,2h-3.3c-0.7-0.3-1.3-0.7-1.3-2v-8c0-1.3,0.6-1.7,1.3-2h3.3
				c0.7,0.3,1.3,0.7,1.3,2V417.9z M339.2,409.7l-0.4-0.4h-1.6l-0.4,0.4v8.3l0.4,0.4h1.6l0.4-0.4V409.7z"/>
			<path class="st5" d="M342.4,419.8v-12h4.6c0.7,0.3,1.3,0.7,1.3,2v2.6c0,1.3-0.6,1.6-1.3,1.9l-0.3,0.1l2.1,4.3v1.1h-1.6l-2.2-5.1
				h-0.8v5.1H342.4z M344.2,409.4v3.9h2l0.4-0.4v-3.1l-0.4-0.4H344.2z"/>
			<path class="st5" d="M353.4,419.8c-0.7-0.3-1.3-0.7-1.3-2v-1.7h1.8v1.8l0.4,0.4h1.7l0.4-0.4v-3.2l-0.4-0.3h-1.8V413h1.8l0.4-0.4
				v-3l-0.4-0.4h-1.7l-0.4,0.4v1.8h-1.8v-1.7c0-1.3,0.6-1.7,1.3-2h3.3c0.7,0.3,1.3,0.7,1.3,2v1.9c0,1-0.2,1.5-0.9,1.9
				c0.6,0.4,0.9,0.9,0.9,1.9v2.2c0,1.3-0.6,1.7-1.3,2H353.4z"/>
		</g>
		<line class="st16" x1="282.4" y1="413.9" x2="303.7" y2="413.9"/>
		<g>
			<path class="st5" d="M403.6,417.9c0,1.3-0.6,1.7-1.3,2h-4.6v-12h4.6c0.7,0.3,1.3,0.7,1.3,2V417.9z M399.5,409.4v9h2l0.4-0.4v-8.3
				l-0.4-0.4H399.5z"/>
			<path class="st5" d="M405,419.8v-12h4.6c0.7,0.3,1.3,0.7,1.3,2v2.6c0,1.3-0.6,1.6-1.3,1.9l-0.3,0.1l2.1,4.3v1.1h-1.6l-2.2-5.1
				h-0.8v5.1H405z M406.8,409.4v3.9h2l0.4-0.4v-3.1l-0.4-0.4H406.8z"/>
			<path class="st5" d="M418.1,415.3v2.6c0,1.3-0.6,1.7-1.3,2h-3.3c-0.7-0.3-1.3-0.7-1.3-2v-2h1.8v2.1l0.4,0.4h1.6l0.4-0.4v-2.8
				l-0.3-0.4l-2.6-0.8c-0.8-0.3-1.1-0.8-1.1-1.9v-2.2c0-1.3,0.6-1.7,1.3-2h3.3c0.7,0.3,1.3,0.7,1.3,2v1.9h-1.8v-2.1l-0.4-0.4h-1.6
				l-0.4,0.4v2.4l0.4,0.4l2.6,0.7C417.7,413.6,418.1,414.1,418.1,415.3z"/>
			<path class="st5" d="M425.6,409.5h-3.9v-1.6h5.8v1.5l-4,8.9h4v1.6h-5.9v-1.5L425.6,409.5z"/>
			<path class="st5" d="M434.8,417.9c0,1.3-0.6,1.7-1.3,2h-3.3c-0.7-0.3-1.3-0.7-1.3-2v-8c0-1.3,0.6-1.7,1.3-2h3.3
				c0.7,0.3,1.3,0.7,1.3,2V417.9z M433,409.7l-0.4-0.4H431l-0.4,0.4v8.3l0.4,0.4h1.6l0.4-0.4V409.7z"/>
			<path class="st5" d="M440.5,407.9h1.6v12h-1.6l-2.6-7.1h-0.2v7.1h-1.6v-12h1.6l2.6,7.1h0.2V407.9z"/>
			<path class="st5" d="M443.5,407.9h5.1v1.6h-3.3v3.4h3.1v1.6h-3.1v3.7h3.4v1.6h-5.2V407.9z"/>
		</g>
		<g>
			<g>
				<g>
					<g>
						<line class="st17" x1="373.7" y1="406.5" x2="373.7" y2="421.4"/>
					</g>
					<g>
						<path class="st7" d="M381.3,413.9c0,0.8-0.7,1.4-1.5,1.4c-0.8,0-1.5-0.6-1.5-1.4c0-0.8,0.7-1.4,1.5-1.4
							C380.7,412.5,381.3,413.2,381.3,413.9z"/>
					</g>
					<g>
						<ellipse class="st7" cx="385.9" cy="413.9" rx="1.5" ry="1.4"/>
					</g>
					<g>
						<line class="st17" x1="392" y1="406.5" x2="392" y2="421.4"/>
					</g>
				</g>
			</g>
		</g>
	</g>
	<g>
		<defs>
			
				<rect id="SVGID_1_" x="509.8" y="160.8" transform="matrix(0.1195 0.9928 -0.9928 0.1195 622.5812 -371.9353)" width="22.3" height="8.5"/>
		</defs>
		<clipPath id="SVGID_00000062192139951111378610000016057288085692709512_">
			<use xlink:href="#SVGID_1_"  style="overflow:visible;"/>
		</clipPath>
		<g style="clip-path:url(#SVGID_00000062192139951111378610000016057288085692709512_);">
			<polygon class="st19" points="515.1,175.7 514.8,172.9 521.1,166.4 528.9,171.2 529.2,174 521.5,169.2 			"/>
			<polygon class="st20" points="514.4,170.1 514.1,167.3 520.5,160.8 528.2,165.6 528.5,168.4 520.8,163.6 			"/>
			<polygon class="st21" points="513.8,164.5 513.4,161.6 519.8,155.2 527.5,160 527.8,162.8 520.1,158 			"/>
		</g>
	</g>
</g>
</svg>
