<?xml version="1.0" encoding="utf-8"?>
<!-- Generator: Adobe Illustrator 27.2.0, SVG Export Plug-In . SVG Version: 6.00 Build 0)  -->
<svg version="1.1" xmlns="http://www.w3.org/2000/svg" xmlns:xlink="http://www.w3.org/1999/xlink" x="0px" y="0px"
	 viewBox="0 0 791.4 426.5" style="enable-background:new 0 0 791.4 426.5;" xml:space="preserve">
<style type="text/css">
	.st0{fill:none;stroke:#646464;stroke-width:14.1732;stroke-linecap:round;stroke-linejoin:round;stroke-miterlimit:10;}
	.st1{fill:none;stroke:#54C6EB;stroke-width:2.8346;stroke-miterlimit:10;}
	.st2{fill:none;stroke:#F4442E;stroke-width:2.8346;stroke-miterlimit:10;}
	.st3{fill:none;stroke:#FFD449;stroke-width:2.8346;stroke-miterlimit:10;}
	.st4{fill:none;stroke:#FFFFFF;stroke-width:2.126;}
	.st5{fill:#646464;}
	.st6{fill:#FFFFFF;}
	.st7{fill:none;stroke:#646464;stroke-width:2.8346;stroke-miterlimit:10;}
	.st8{fill:#FF3380;}
	.st9{fill:none;stroke:#FF3380;stroke-width:1.9843;stroke-miterlimit:10;}
	.st10{fill:#09BC8A;}
	.st11{fill:none;stroke:#09BC8A;stroke-width:1.9843;stroke-miterlimit:10;}
	.st12{fill:none;stroke:#09BC8A;stroke-width:2.2097;stroke-miterlimit:10;}
	.st13{clip-path:url(#SVGID_00000109713796216115475750000003188191745620904599_);}
	.st14{fill:#F4442E;}
	.st15{fill:#54C6EB;}
	.st16{fill:#FFD449;}
	.st17{fill:none;stroke:#646464;stroke-width:0.7087;stroke-miterlimit:10;}
	.st18{fill:none;stroke:#F4442E;stroke-width:5.6693;stroke-miterlimit:10;}
	.st19{fill:none;stroke:#54C6EB;stroke-width:5.6693;stroke-miterlimit:10;}
	.st20{fill:none;stroke:#FFD449;stroke-width:5.6693;stroke-miterlimit:10;}
	.st21{fill:none;stroke:#09BC8A;stroke-width:2.8346;stroke-miterlimit:10;}
</style>
<g id="コース">
	<path class="st0" d="M727.9,128.8c-7-2.4-64.1-22-72.9-24.6c-8.8-2.6-22.8,0-30.3,8.3c-7.5,8.3-10.1,23.3-4.8,36
		c5.3,12.7,24.6,16.2,33.4,19.3c8.8,3.1,25.5,9.2,32.9,27.7c7.5,18.4,7.5,34.2,0.9,41.3c-6.6,7-15.8,6.6-25,1.8
		S460,117.2,436.4,104.3c-19.3-10.5-47.9,1.8-54,11c-4.5,6.8-48.3,68.5-56.2,79.9c-7.9,11.4-9.2,24.6-9.2,29c0,4.4,0,10.1,0,15.4
		c0,15.8-14.9,19.8-23.7,19.8c-8.8,0-16.7,0-47.9,0S186.1,239,180,235.1c-6.1-4-42.1-28.5-47.4-31.6c-5.3-3.1-12.3-6.1-12.3-18.9
		c0-13.6,11-18,19.8-18c8.8,0,63.7,0,91.8,0c25.9,0,55.8-18.9,55.8-50c0-16.7-16.7-26.8-29.4-26.8c-10.1,0-96.1,0-127.3,0
		c-22.4,0-52.9,10.9-70.7,27.7c-14.9,14-22.8,32.9-22.8,46.1c0,29,15.4,45.7,25,51.4c9.7,5.7,33.8,14.5,52.7,22.4
		c18.9,7.9,18,26.8,18,42.1c0,16.2,11.4,22.4,28.1,22.4c14,0,540,0,540,0c45.2,0,55.8-29.4,55.8-44.3c0-14.9,0-37.3,0-42.6
		c0,0,0-33.1,0-44.1S751.3,136.7,727.9,128.8z"/>
</g>
<g id="セクター">
	<path class="st1" d="M230.3,89.8c14.1,0,24.7,0,27.8,0c12.7,0,29.4,10.1,29.4,26.8c0,31.2-29.9,50-55.8,50c-28.1,0-83,0-91.8,0
		c-8.8,0-19.8,4.4-19.8,18c0,12.7,7,15.8,12.3,18.9c5.3,3.1,41.3,27.7,47.4,31.6c6.1,4,34.2,24.1,65.4,24.1s39.1,0,47.9,0
		c8.8,0,23.7-4,23.7-19.8c0-5.3,0-11,0-15.4c0-4.4,1.3-17.6,9.2-29c7.9-11.4,51.7-73.1,56.2-79.9c6.1-9.2,34.7-21.5,54-11
		c18.6,10.2,141.9,84.5,198.2,118.1"/>
	<path class="st2" d="M567.9,301.8c-156.8,0-397.3,0-406.8,0c-16.7,0-28.1-6.1-28.1-22.4c0-15.4,0.9-34.2-18-42.1
		c-18.9-7.9-43-16.7-52.7-22.4c-9.7-5.7-25-22.4-25-51.4c0-13.2,8-32.1,22.8-46.1c17.8-16.8,48.3-27.7,70.7-27.7
		c21.4,0,68.7,0,99.5,0"/>
	<path class="st3" d="M634.5,222.4c15.2,9.1,25.5,15.2,27.5,16.2c9.2,4.8,18.4,5.3,25-1.8c6.6-7,6.6-22.8-0.9-41.3
		c-7.5-18.4-24.1-24.6-32.9-27.7c-8.8-3.1-28.1-6.6-33.4-19.3c-5.3-12.7-2.6-27.7,4.8-36c7.5-8.3,21.5-11,30.3-8.3
		c8.8,2.6,65.9,22.4,72.9,24.6c23.4,7.9,29,30.9,29,41.9s0,44.1,0,44.1c0,5.3,0,27.7,0,42.6c0,14.9-10.5,44.3-55.8,44.3
		c0,0-56.6,0-133.2,0"/>
</g>
<g id="コーナー番号">
	<g>
		<g>
			<circle class="st4" cx="125.2" cy="311.2" r="8.5"/>
			<circle class="st5" cx="125.2" cy="311.2" r="8.5"/>
		</g>
		<g>
			<path class="st6" d="M123.5,315.1v-1.6h1V309h-0.9v-1.6h2.6v6.1h0.9v1.6H123.5z"/>
		</g>
	</g>
	<g>
		<g>
			<circle class="st4" cx="143" cy="234.9" r="8.5"/>
			<circle class="st5" cx="143" cy="234.9" r="8.5"/>
		</g>
		<g>
			<path class="st6" d="M140.9,238.8v-2.6c0-0.6,0.1-1,0.6-1.2l1.9-0.8v-1.6l-0.1-0.1h-0.5l-0.1,0.1v1.1h-1.7v-1.3
				c0-0.8,0.4-1.1,0.8-1.3h2.5c0.5,0.2,0.8,0.5,0.8,1.3v1.9c0,0.6-0.1,0.9-0.6,1.2l-1.9,0.8v0.9h2.4v1.6H140.9z"/>
		</g>
	</g>
	<g>
		<g>
			<circle class="st4" cx="16.7" cy="166" r="8.5"/>
			<circle class="st5" cx="16.7" cy="166" r="8.5"/>
		</g>
		<g>
			<path class="st6" d="M15.4,169.8c-0.5-0.2-0.8-0.5-0.8-1.3v-1h1.7v0.8l0.1,0.1h0.5l0.1-0.1v-1.6l-0.1-0.1h-1v-1.3h1l0.1-0.1v-1.5
				l-0.1-0.1h-0.5l-0.1,0.1v0.8h-1.7v-1c0-0.8,0.4-1.1,0.8-1.3h2.5c0.5,0.2,0.8,0.5,0.8,1.3v1.3c0,0.6-0.2,0.9-0.6,1.2
				c0.4,0.3,0.6,0.6,0.6,1.2v1.4c0,0.8-0.4,1.1-0.8,1.3H15.4z"/>
		</g>
	</g>
	<g>
		<g>
			<circle class="st4" cx="301.6" cy="95.5" r="8.5"/>
			<circle class="st5" cx="301.6" cy="95.5" r="8.5"/>
		</g>
		<g>
			<path class="st6" d="M303.2,97.9v1.5h-1.7v-1.5h-2.2v-1.5l1.6-4.7h1.7l-1.6,4.6h0.5v-0.4l0.4-1h1.3v1.4h0.5v1.6H303.2z"/>
		</g>
	</g>
	<g>
		<g>
			<circle class="st4" cx="103.8" cy="170.4" r="8.5"/>
			<circle class="st5" cx="103.8" cy="170.4" r="8.5"/>
		</g>
		<g>
			<path class="st6" d="M102.6,174.3c-0.5-0.2-0.8-0.5-0.8-1.3v-1h1.6v0.8l0.1,0.1h0.6l0.1-0.1v-2.1l-0.1-0.1h-0.6l-0.1,0.1v0.4
				h-1.6v-4.5h4v1.5h-2.4v1.6l0.4-0.4h1.3c0.5,0.2,0.8,0.5,0.8,1.3v2.4c0,0.8-0.4,1.1-0.8,1.3H102.6z"/>
		</g>
	</g>
	<g>
		<g>
			<circle class="st4" cx="204.5" cy="270.3" r="8.5"/>
			<circle class="st5" cx="204.5" cy="270.3" r="8.5"/>
		</g>
		<g>
			<path class="st6" d="M205.7,274.2h-2.5c-0.5-0.2-0.8-0.5-0.8-1.3v-5.1c0-0.8,0.4-1.1,0.8-1.3h2.5c0.5,0.2,0.8,0.5,0.8,1.3v1h-1.7
				V268l-0.1-0.1h-0.5l-0.1,0.1v1.8l0.3-0.3h1.3c0.5,0.2,0.8,0.5,0.8,1.3v2.2C206.6,273.7,206.2,274,205.7,274.2z M204.8,272.8
				l0.1-0.1v-1.8l-0.1-0.1h-0.5l-0.1,0.1v1.8l0.1,0.1H204.8z"/>
		</g>
	</g>
	<g>
		<g>
			<circle class="st4" cx="327.9" cy="265.5" r="8.5"/>
			<circle class="st5" cx="327.9" cy="265.5" r="8.5"/>
		</g>
		<g>
			<path class="st6" d="M326.1,269.3l2.1-6.2h-2.4v-1.5h4.1v1.2l-2.1,6.5H326.1z"/>
		</g>
	</g>
	<g>
		<g>
			<circle class="st4" cx="299" cy="200.5" r="8.5"/>
			<circle class="st5" cx="299" cy="200.5" r="8.5"/>
		</g>
		<g>
			<path class="st6" d="M297.7,204.4c-0.5-0.2-0.8-0.5-0.8-1.3v-1.4c0-0.6,0.2-0.9,0.6-1.2c-0.4-0.3-0.6-0.6-0.6-1.2V198
				c0-0.8,0.4-1.1,0.8-1.3h2.5c0.5,0.2,0.8,0.5,0.8,1.3v1.3c0,0.6-0.2,0.9-0.6,1.2c0.4,0.3,0.6,0.6,0.6,1.2v1.4
				c0,0.8-0.4,1.1-0.8,1.3H297.7z M298.6,199.7l0.1,0.1h0.5l0.1-0.1v-1.5l-0.1-0.1h-0.5l-0.1,0.1V199.7z M299.3,202.9v-1.6l-0.1-0.1
				h-0.5l-0.1,0.1v1.6l0.1,0.1h0.5L299.3,202.9z"/>
		</g>
	</g>
	<g>
		<g>
			<circle class="st4" cx="405.2" cy="80.2" r="8.5"/>
			<circle class="st5" cx="405.2" cy="80.2" r="8.5"/>
		</g>
		<g>
			<path class="st6" d="M404,84.1c-0.5-0.2-0.8-0.5-0.8-1.3v-1h1.7v0.8l0.1,0.1h0.5l0.1-0.1v-1.8l-0.3,0.3H404
				c-0.5-0.2-0.8-0.5-0.8-1.3v-2.2c0-0.8,0.4-1.1,0.8-1.3h2.5c0.5,0.2,0.8,0.5,0.8,1.3v5.1c0,0.8-0.4,1.1-0.8,1.3H404z M405.6,79.7
				v-1.8l-0.1-0.1h-0.5l-0.1,0.1v1.8l0.1,0.1h0.5L405.6,79.7z"/>
		</g>
	</g>
	<g>
		<g>
			<circle class="st4" cx="691.4" cy="259.1" r="8.5"/>
			<circle class="st5" cx="691.4" cy="259.1" r="8.5"/>
		</g>
		<g>
			<path class="st6" d="M687.3,262.9v-1.6h1v-4.5h-0.9v-1.6h2.6v6.1h0.9v1.6H687.3z"/>
			<path class="st6" d="M695,262.9h-2.5c-0.5-0.2-0.8-0.5-0.8-1.3v-5.1c0-0.8,0.4-1.1,0.8-1.3h2.5c0.5,0.2,0.8,0.5,0.8,1.3v5.1
				C695.8,262.5,695.4,262.8,695,262.9z M694.1,256.8l-0.1-0.1h-0.5l-0.1,0.1v4.7l0.1,0.1h0.5l0.1-0.1V256.8z"/>
		</g>
	</g>
	<g>
		<g>
			<circle class="st4" cx="685.1" cy="163.9" r="8.5"/>
			<circle class="st5" cx="685.1" cy="163.9" r="8.5"/>
		</g>
		<g>
			<path class="st6" d="M681,167.8v-1.6h1v-4.5h-0.9v-1.6h2.6v6.1h0.9v1.6H681z"/>
			<path class="st6" d="M685.7,167.8v-1.6h1v-4.5h-0.9v-1.6h2.6v6.1h0.9v1.6H685.7z"/>
		</g>
	</g>
	<g>
		<g>
			<circle class="st4" cx="598.2" cy="117.7" r="8.5"/>
			<circle class="st5" cx="598.2" cy="117.7" r="8.5"/>
		</g>
		<g>
			<path class="st6" d="M594.1,121.6V120h1v-4.5h-0.9v-1.6h2.6v6.1h0.9v1.6H594.1z"/>
			<path class="st6" d="M598.4,121.6V119c0-0.6,0.1-1,0.6-1.2l1.9-0.8v-1.6l-0.1-0.1h-0.5l-0.1,0.1v1.1h-1.7v-1.3
				c0-0.8,0.4-1.1,0.8-1.3h2.5c0.5,0.2,0.8,0.5,0.8,1.3v1.9c0,0.6-0.1,0.9-0.6,1.2l-1.9,0.8v0.9h2.4v1.6H598.4z"/>
		</g>
	</g>
	<g>
		<g>
			<circle class="st4" cx="765.4" cy="136.7" r="8.5"/>
			<circle class="st5" cx="765.4" cy="136.7" r="8.5"/>
		</g>
		<g>
			<path class="st6" d="M761.4,140.6V139h1v-4.5h-0.8v-1.6h2.6v6.1h0.9v1.6H761.4z"/>
			<path class="st6" d="M766.5,140.6c-0.5-0.2-0.8-0.5-0.8-1.3v-1h1.7v0.8l0.1,0.1h0.5l0.1-0.1v-1.6l-0.1-0.1h-1v-1.3h1l0.1-0.1
				v-1.5l-0.1-0.1h-0.5l-0.1,0.1v0.8h-1.7v-1c0-0.8,0.4-1.1,0.8-1.3h2.5c0.5,0.2,0.8,0.5,0.8,1.3v1.3c0,0.6-0.2,0.9-0.6,1.2
				c0.4,0.3,0.6,0.6,0.6,1.2v1.4c0,0.8-0.4,1.1-0.8,1.3H766.5z"/>
		</g>
	</g>
	<g>
		<g>
			<circle class="st4" cx="759.6" cy="298.6" r="8.5"/>
			<circle class="st5" cx="759.6" cy="298.6" r="8.5"/>
		</g>
		<g>
			<path class="st6" d="M755.5,302.4v-1.6h1v-4.5h-0.9v-1.6h2.6v6.1h0.9v1.6H755.5z"/>
			<path class="st6" d="M763.5,301v1.5h-1.7V301h-2.2v-1.5l1.6-4.7h1.7l-1.6,4.6h0.5v-0.4l0.4-1h1.3v1.4h0.5v1.6H763.5z"/>
		</g>
	</g>
	<g>
		<g>
			<circle class="st4" cx="178.1" cy="135.3" r="8.5"/>
			<circle class="st5" cx="178.1" cy="135.3" r="8.5"/>
		</g>
		<g>
			<path class="st6" d="M174.1,139.2v-1.6h1v-4.5h-0.9v-1.6h2.6v6.1h0.9v1.6H174.1z"/>
			<path class="st6" d="M179.2,139.2c-0.5-0.2-0.8-0.5-0.8-1.3v-1.4c0-0.6,0.2-0.9,0.6-1.2c-0.4-0.3-0.6-0.6-0.6-1.2v-1.3
				c0-0.8,0.4-1.1,0.8-1.3h2.5c0.5,0.2,0.8,0.5,0.8,1.3v1.3c0,0.6-0.2,0.9-0.6,1.2c0.4,0.3,0.6,0.6,0.6,1.2v1.4
				c0,0.8-0.4,1.1-0.8,1.3H179.2z M180.1,134.5l0.1,0.1h0.5l0.1-0.1V133l-0.1-0.1h-0.5l-0.1,0.1V134.5z M180.9,137.7V136l-0.1-0.1
				h-0.5l-0.1,0.1v1.6l0.1,0.1h0.5L180.9,137.7z"/>
		</g>
	</g>
	<g>
		<g>
			<circle class="st4" cx="258.4" cy="108.7" r="8.5"/>
			<circle class="st5" cx="258.4" cy="108.7" r="8.5"/>
		</g>
		<g>
			<path class="st6" d="M254.4,112.6V111h1v-4.5h-0.9v-1.6h2.6v6.1h0.9v1.6H254.4z"/>
			<path class="st6" d="M259.5,112.6c-0.5-0.2-0.8-0.5-0.8-1.3v-1h1.7v0.8l0.1,0.1h0.5l0.1-0.1v-1.8l-0.3,0.3h-1.3
				c-0.5-0.2-0.8-0.5-0.8-1.3v-2.2c0-0.8,0.4-1.1,0.8-1.3h2.5c0.5,0.2,0.8,0.5,0.8,1.3v5.1c0,0.8-0.4,1.1-0.8,1.3H259.5z
				 M261.1,108.3v-1.8l-0.1-0.1h-0.5l-0.1,0.1v1.8l0.1,0.1h0.5L261.1,108.3z"/>
		</g>
	</g>
</g>
<g id="SPEED_x5F_TRAP">
	<g>
		<circle class="st7" cx="283.7" cy="301.8" r="4.7"/>
		<circle class="st8" cx="283.7" cy="301.8" r="4.7"/>
	</g>
	<g>
		<g>
			<path class="st8" d="M306.2,365.9c0,0.8-0.6,1.4-1.4,1.4h-42.2c-0.8,0-1.4-0.6-1.4-1.4v-34.7c0-0.8,0.6-1.4,1.4-1.4h42.2
				c0.8,0,1.4,0.6,1.4,1.4V365.9z"/>
		</g>
		<g>
			<path class="st6" d="M273.3,342.7v2.7c0,1.3-0.6,1.7-1.3,2h-3.9c-0.7-0.3-1.3-0.7-1.3-2v-2.4h2.7v2l0.2,0.2h0.8l0.2-0.2v-1.8
				l-0.1-0.2l-2.7-1.2c-0.8-0.4-0.9-0.9-0.9-1.8v-2.5c0-1.3,0.6-1.7,1.3-2h3.9c0.7,0.3,1.3,0.7,1.3,2v2.2h-2.7v-1.9l-0.2-0.2h-0.8
				l-0.2,0.2v1.7l0.2,0.3l2.7,1.1C273.2,341.2,273.3,341.8,273.3,342.7z"/>
			<path class="st6" d="M276.8,343.3v4.2h-2.7v-12h5.2c0.7,0.3,1.3,0.7,1.3,2v3.8c0,1.3-0.6,1.7-1.3,2H276.8z M276.8,337.6v3.5h1
				l0.2-0.2v-3.2l-0.2-0.2H276.8z"/>
			<path class="st6" d="M281.3,335.5h5.5v2.5h-2.8v2.2h2.7v2.5h-2.7v2.3h2.9v2.5h-5.6V335.5z"/>
			<path class="st6" d="M287.7,335.5h5.5v2.5h-2.8v2.2h2.7v2.5h-2.7v2.3h2.9v2.5h-5.6V335.5z"/>
			<path class="st6" d="M300.6,345.4c0,1.3-0.6,1.7-1.3,2h-5.2v-12h5.2c0.7,0.3,1.3,0.7,1.3,2V345.4z M296.7,337.6v7.7h1l0.2-0.2
				v-7.3l-0.2-0.2H296.7z"/>
			<path class="st6" d="M274.3,352.1v9.5h-2.7v-9.5h-1.9v-2.5h6.5v2.5H274.3z"/>
			<path class="st6" d="M276.7,361.6v-12h5.2c0.7,0.3,1.3,0.7,1.3,2v2.5c0,1.1-0.5,1.6-1.1,1.9l1.4,3.8v1.7h-2.3l-1.5-4.7h-0.3v4.7
				H276.7z M279.4,351.8v3h1l0.2-0.2V352l-0.2-0.2H279.4z"/>
			<path class="st6" d="M287.8,359.3h-1.3l-0.2,2.3h-2.5v-2l1.5-10h3.6l1.5,10v2H288L287.8,359.3z M286.7,356.8h0.8l-0.3-3.8h-0.2
				L286.7,356.8z"/>
			<path class="st6" d="M293.8,357.5v4.2h-2.7v-12h5.2c0.7,0.3,1.3,0.7,1.3,2v3.8c0,1.3-0.6,1.7-1.3,2H293.8z M293.8,351.8v3.5h1
				l0.2-0.2V352l-0.2-0.2H293.8z"/>
		</g>
	</g>
	<g>
		<line class="st9" x1="283.7" y1="329.8" x2="283.7" y2="301.8"/>
	</g>
</g>
<g id="DRS">
	<g>
		<g>
			<path class="st10" d="M368,57.3c0,0.8-0.6,1.4-1.4,1.4H299c-0.8,0-1.4-0.6-1.4-1.4V8.5c0-0.8,0.6-1.4,1.4-1.4h67.6
				c0.8,0,1.4,0.6,1.4,1.4V57.3z"/>
		</g>
		<g>
			<path class="st6" d="M328.8,22.7c0,1.3-0.6,1.7-1.3,2h-5.2v-12h5.2c0.7,0.3,1.3,0.7,1.3,2V22.7z M325,14.9v7.7h1l0.2-0.2v-7.3
				l-0.2-0.2H325z"/>
			<path class="st6" d="M329.6,24.7v-12h5.2c0.7,0.3,1.3,0.7,1.3,2v2.5c0,1.1-0.5,1.6-1.1,1.9l1.4,3.8v1.7h-2.3l-1.5-4.7h-0.3v4.7
				H329.6z M332.3,14.9v3h1l0.2-0.2v-2.7l-0.2-0.2H332.3z"/>
			<path class="st6" d="M343.3,20v2.7c0,1.3-0.6,1.7-1.3,2h-3.9c-0.7-0.3-1.3-0.7-1.3-2v-2.4h2.7v2l0.2,0.2h0.8l0.2-0.2v-1.8
				l-0.1-0.2l-2.7-1.2c-0.8-0.4-0.9-0.9-0.9-1.8v-2.5c0-1.3,0.6-1.7,1.3-2h3.9c0.7,0.3,1.3,0.7,1.3,2V17h-2.7v-1.9l-0.2-0.2h-0.8
				l-0.2,0.2v1.7l0.2,0.3l2.7,1.1C343.2,18.5,343.3,19.1,343.3,20z"/>
			<path class="st6" d="M309.7,36.9c0,1.3-0.6,1.7-1.3,2h-5.2v-12h5.2c0.7,0.3,1.3,0.7,1.3,2V36.9z M305.9,29.1v7.7h1l0.2-0.2v-7.3
				l-0.2-0.2H305.9z"/>
			<path class="st6" d="M310.5,26.9h5.5v2.5h-2.8v2.2h2.7v2.5h-2.7v2.3h2.9v2.5h-5.6V26.9z"/>
			<path class="st6" d="M321.2,29.4v9.5h-2.7v-9.5h-1.9v-2.5h6.5v2.5H321.2z"/>
			<path class="st6" d="M323.6,26.9h5.5v2.5h-2.8v2.2h2.7v2.5h-2.7v2.3h2.9v2.5h-5.6V26.9z"/>
			<path class="st6" d="M336.5,36.9c0,1.3-0.6,1.7-1.3,2h-3.9c-0.7-0.3-1.3-0.7-1.3-2v-8c0-1.3,0.6-1.7,1.3-2h3.9
				c0.7,0.3,1.3,0.7,1.3,2v2.9h-2.7v-2.6l-0.2-0.2h-0.8l-0.2,0.2v7.3l0.2,0.2h0.8l0.2-0.2v-2.5h2.7V36.9z"/>
			<path class="st6" d="M341.6,29.4v9.5h-2.7v-9.5H337v-2.5h6.5v2.5H341.6z"/>
			<path class="st6" d="M344,38.9v-2.5h0.5v-7H344v-2.5h3.7v2.5h-0.5v7h0.5v2.5H344z"/>
			<path class="st6" d="M355,36.9c0,1.3-0.6,1.7-1.3,2h-3.9c-0.7-0.3-1.3-0.7-1.3-2v-8c0-1.3,0.6-1.7,1.3-2h3.9
				c0.7,0.3,1.3,0.7,1.3,2V36.9z M352.3,29.3l-0.2-0.2h-0.8l-0.2,0.2v7.3l0.2,0.2h0.8l0.2-0.2V29.3z"/>
			<path class="st6" d="M360,26.9h2.3v12H360l-1.7-5.2h-0.2v5.2h-2.3v-12h2.3l1.7,5.2h0.2V26.9z"/>
			<path class="st6" d="M317.6,43.6h-3.5v-2.5h6.5v2.2l-3.5,7.3h3.5v2.5h-6.5v-2.2L317.6,43.6z"/>
			<path class="st6" d="M327.9,51.1c0,1.3-0.6,1.7-1.3,2h-3.9c-0.7-0.3-1.3-0.7-1.3-2v-8c0-1.3,0.6-1.7,1.3-2h3.9
				c0.7,0.3,1.3,0.7,1.3,2V51.1z M325.2,43.4l-0.2-0.2h-0.8l-0.2,0.2v7.3l0.2,0.2h0.8l0.2-0.2V43.4z"/>
			<path class="st6" d="M332.9,41.1h2.3v12h-2.3l-1.7-5.2h-0.2v5.2h-2.3v-12h2.3l1.7,5.2h0.2V41.1z"/>
			<path class="st6" d="M336,41.1h5.5v2.5h-2.8v2.2h2.7v2.5h-2.7v2.3h2.9v2.5H336V41.1z"/>
			<path class="st6" d="M345.5,53.1v-2.5h1.5v-7h-1.3v-2.5h4v9.5h1.3v2.5H345.5z"/>
		</g>
	</g>
	<g>
		<g>
			<path class="st10" d="M760.3,378.1c0,0.8-0.6,1.4-1.4,1.4h-67.6c-0.8,0-1.4-0.6-1.4-1.4v-48.8c0-0.8,0.6-1.4,1.4-1.4h67.6
				c0.8,0,1.4,0.6,1.4,1.4V378.1z"/>
		</g>
		<g>
			<path class="st6" d="M721.1,343.6c0,1.3-0.6,1.7-1.3,2h-5.2v-12h5.2c0.7,0.3,1.3,0.7,1.3,2V343.6z M717.3,335.7v7.7h1l0.2-0.2
				v-7.3l-0.2-0.2H717.3z"/>
			<path class="st6" d="M721.9,345.6v-12h5.2c0.7,0.3,1.3,0.7,1.3,2v2.5c0,1.1-0.5,1.6-1.1,1.9l1.4,3.8v1.7h-2.3l-1.5-4.7h-0.3v4.7
				H721.9z M724.6,335.7v3h1l0.2-0.2v-2.7l-0.2-0.2H724.6z"/>
			<path class="st6" d="M735.6,340.8v2.7c0,1.3-0.6,1.7-1.3,2h-3.9c-0.7-0.3-1.3-0.7-1.3-2v-2.4h2.7v2l0.2,0.2h0.8l0.2-0.2v-1.8
				l-0.2-0.2l-2.7-1.2c-0.8-0.4-0.9-0.9-0.9-1.8v-2.5c0-1.3,0.6-1.7,1.3-2h3.9c0.7,0.3,1.3,0.7,1.3,2v2.2h-2.7v-1.9l-0.2-0.2H732
				l-0.2,0.2v1.7l0.2,0.3l2.7,1.1C735.5,339.3,735.6,339.9,735.6,340.8z"/>
			<path class="st6" d="M702,357.7c0,1.3-0.6,1.7-1.3,2h-5.2v-12h5.2c0.7,0.3,1.3,0.7,1.3,2V357.7z M698.2,349.9v7.7h1l0.2-0.2v-7.3
				l-0.2-0.2H698.2z"/>
			<path class="st6" d="M702.9,347.7h5.5v2.5h-2.8v2.2h2.7v2.5h-2.7v2.3h2.9v2.5h-5.6V347.7z"/>
			<path class="st6" d="M713.5,350.2v9.5h-2.7v-9.5h-1.9v-2.5h6.5v2.5H713.5z"/>
			<path class="st6" d="M715.9,347.7h5.5v2.5h-2.8v2.2h2.7v2.5h-2.7v2.3h2.9v2.5h-5.6V347.7z"/>
			<path class="st6" d="M728.8,357.7c0,1.3-0.6,1.7-1.3,2h-3.9c-0.7-0.3-1.3-0.7-1.3-2v-8c0-1.3,0.6-1.7,1.3-2h3.9
				c0.7,0.3,1.3,0.7,1.3,2v2.9h-2.7v-2.6l-0.2-0.2h-0.8l-0.2,0.2v7.3l0.2,0.2h0.8l0.2-0.2v-2.5h2.7V357.7z"/>
			<path class="st6" d="M733.9,350.2v9.5h-2.7v-9.5h-1.9v-2.5h6.5v2.5H733.9z"/>
			<path class="st6" d="M736.3,359.7v-2.5h0.5v-7h-0.5v-2.5h3.7v2.5h-0.5v7h0.5v2.5H736.3z"/>
			<path class="st6" d="M747.3,357.7c0,1.3-0.6,1.7-1.3,2h-3.9c-0.7-0.3-1.3-0.7-1.3-2v-8c0-1.3,0.6-1.7,1.3-2h3.9
				c0.7,0.3,1.3,0.7,1.3,2V357.7z M744.6,350.1l-0.2-0.2h-0.8l-0.2,0.2v7.3l0.2,0.2h0.8l0.2-0.2V350.1z"/>
			<path class="st6" d="M752.3,347.7h2.3v12h-2.3l-1.7-5.2h-0.2v5.2h-2.3v-12h2.3l1.7,5.2h0.2V347.7z"/>
			<path class="st6" d="M709.9,364.4h-3.5v-2.5h6.5v2.2l-3.5,7.3h3.5v2.5h-6.5v-2.2L709.9,364.4z"/>
			<path class="st6" d="M720.2,371.9c0,1.3-0.6,1.7-1.3,2H715c-0.7-0.3-1.3-0.7-1.3-2v-8c0-1.3,0.6-1.7,1.3-2h3.9
				c0.7,0.3,1.3,0.7,1.3,2V371.9z M717.5,364.3l-0.2-0.2h-0.8l-0.2,0.2v7.3l0.2,0.2h0.8l0.2-0.2V364.3z"/>
			<path class="st6" d="M725.2,361.9h2.3v12h-2.3l-1.7-5.2h-0.2v5.2H721v-12h2.3l1.7,5.2h0.2V361.9z"/>
			<path class="st6" d="M728.3,361.9h5.5v2.5H731v2.2h2.7v2.5H731v2.3h2.9v2.5h-5.6V361.9z"/>
			<path class="st6" d="M737.3,373.9v-4c0-0.9,0.2-1.5,0.9-1.8l2.9-1.3v-2.5l-0.2-0.2h-0.8l-0.2,0.2v1.7h-2.7v-2.1
				c0-1.3,0.6-1.7,1.3-2h3.9c0.7,0.3,1.3,0.7,1.3,2v3c0,0.9-0.1,1.5-0.9,1.8l-2.9,1.3v1.3h3.8v2.5H737.3z"/>
		</g>
	</g>
	<g>
		<path class="st11" d="M695.5,360.3"/>
	</g>
	<g>
		<circle class="st7" cx="358" cy="150" r="4.7"/>
		<circle class="st10" cx="358" cy="150" r="4.7"/>
	</g>
	<g>
		<path class="st11" d="M358,150h-16.7c-4.7,0-8.5-3.8-8.5-8.5V58.8"/>
	</g>
	<g>
		<circle class="st7" cx="756.9" cy="245.8" r="4.7"/>
		<circle class="st10" cx="756.9" cy="245.8" r="4.7"/>
	</g>
	<g>
		<path class="st11" d="M756.9,245.8h13.8c4.7,0,8.5,3.8,8.5,8.5v90.9c0,4.7-3.8,8.5-8.5,8.5h-13.8"/>
	</g>
	<g>
		<g>
			<g>
				<g>
					<line class="st12" x1="657.9" y1="291.3" x2="657.9" y2="279.7"/>
				</g>
				<g>
					<path class="st10" d="M652.4,285.5c0-0.6,0.5-1.1,1.1-1.1s1.1,0.5,1.1,1.1c0,0.6-0.5,1.1-1.1,1.1S652.4,286.1,652.4,285.5z"/>
				</g>
				<g>
					<path class="st10" d="M648,285.5c0-0.6,0.5-1.1,1.1-1.1s1.1,0.5,1.1,1.1c0,0.6-0.5,1.1-1.1,1.1S648,286.1,648,285.5z"/>
				</g>
				<g>
					<path class="st10" d="M643.5,285.5c0-0.6,0.5-1.1,1.1-1.1s1.1,0.5,1.1,1.1c0,0.6-0.5,1.1-1.1,1.1S643.5,286.1,643.5,285.5z"/>
				</g>
				<g>
					<path class="st10" d="M639.1,285.5c0-0.6,0.5-1.1,1.1-1.1s1.1,0.5,1.1,1.1c0,0.6-0.5,1.1-1.1,1.1S639.1,286.1,639.1,285.5z"/>
				</g>
				<g>
					<path class="st10" d="M634.7,285.5c0-0.6,0.5-1.1,1.1-1.1s1.1,0.5,1.1,1.1c0,0.6-0.5,1.1-1.1,1.1S634.7,286.1,634.7,285.5z"/>
				</g>
				<g>
					<path class="st10" d="M630.3,285.5c0-0.6,0.5-1.1,1.1-1.1s1.1,0.5,1.1,1.1c0,0.6-0.5,1.1-1.1,1.1S630.3,286.1,630.3,285.5z"/>
				</g>
				<g>
					<path class="st10" d="M625.9,285.5c0-0.6,0.5-1.1,1.1-1.1s1.1,0.5,1.1,1.1c0,0.6-0.5,1.1-1.1,1.1S625.9,286.1,625.9,285.5z"/>
				</g>
				<g>
					<path class="st10" d="M621.5,285.5c0-0.6,0.5-1.1,1.1-1.1s1.1,0.5,1.1,1.1c0,0.6-0.5,1.1-1.1,1.1S621.5,286.1,621.5,285.5z"/>
				</g>
				<g>
					<path class="st10" d="M617,285.5c0-0.6,0.5-1.1,1.1-1.1s1.1,0.5,1.1,1.1c0,0.6-0.5,1.1-1.1,1.1S617,286.1,617,285.5z"/>
				</g>
				<g>
					<path class="st10" d="M612.6,285.5c0-0.6,0.5-1.1,1.1-1.1s1.1,0.5,1.1,1.1c0,0.6-0.5,1.1-1.1,1.1S612.6,286.1,612.6,285.5z"/>
				</g>
				<g>
					<path class="st10" d="M608.2,285.5c0-0.6,0.5-1.1,1.1-1.1s1.1,0.5,1.1,1.1c0,0.6-0.5,1.1-1.1,1.1S608.2,286.1,608.2,285.5z"/>
				</g>
				<g>
					<path class="st10" d="M603.8,285.5c0-0.6,0.5-1.1,1.1-1.1s1.1,0.5,1.1,1.1c0,0.6-0.5,1.1-1.1,1.1S603.8,286.1,603.8,285.5z"/>
				</g>
				<g>
					<path class="st10" d="M599.4,285.5c0-0.6,0.5-1.1,1.1-1.1s1.1,0.5,1.1,1.1c0,0.6-0.5,1.1-1.1,1.1S599.4,286.1,599.4,285.5z"/>
				</g>
				<g>
					<path class="st10" d="M595,285.5c0-0.6,0.5-1.1,1.1-1.1s1.1,0.5,1.1,1.1c0,0.6-0.5,1.1-1.1,1.1S595,286.1,595,285.5z"/>
				</g>
				<g>
					<path class="st10" d="M590.5,285.5c0-0.6,0.5-1.1,1.1-1.1s1.1,0.5,1.1,1.1c0,0.6-0.5,1.1-1.1,1.1S590.5,286.1,590.5,285.5z"/>
				</g>
				<g>
					<path class="st10" d="M586.1,285.5c0-0.6,0.5-1.1,1.1-1.1s1.1,0.5,1.1,1.1c0,0.6-0.5,1.1-1.1,1.1S586.1,286.1,586.1,285.5z"/>
				</g>
				<g>
					<path class="st10" d="M581.7,285.5c0-0.6,0.5-1.1,1.1-1.1s1.1,0.5,1.1,1.1c0,0.6-0.5,1.1-1.1,1.1S581.7,286.1,581.7,285.5z"/>
				</g>
				<g>
					<path class="st10" d="M577.3,285.5c0-0.6,0.5-1.1,1.1-1.1s1.1,0.5,1.1,1.1c0,0.6-0.5,1.1-1.1,1.1S577.3,286.1,577.3,285.5z"/>
				</g>
				<g>
					<path class="st10" d="M572.9,285.5c0-0.6,0.5-1.1,1.1-1.1s1.1,0.5,1.1,1.1c0,0.6-0.5,1.1-1.1,1.1S572.9,286.1,572.9,285.5z"/>
				</g>
				<g>
					<path class="st10" d="M568.5,285.5c0-0.6,0.5-1.1,1.1-1.1s1.1,0.5,1.1,1.1c0,0.6-0.5,1.1-1.1,1.1S568.5,286.1,568.5,285.5z"/>
				</g>
				<g>
					<path class="st10" d="M564,285.5c0-0.6,0.5-1.1,1.1-1.1s1.1,0.5,1.1,1.1c0,0.6-0.5,1.1-1.1,1.1S564,286.1,564,285.5z"/>
				</g>
				<g>
					<path class="st10" d="M559.6,285.5c0-0.6,0.5-1.1,1.1-1.1s1.1,0.5,1.1,1.1c0,0.6-0.5,1.1-1.1,1.1S559.6,286.1,559.6,285.5z"/>
				</g>
				<g>
					<path class="st10" d="M555.2,285.5c0-0.6,0.5-1.1,1.1-1.1s1.1,0.5,1.1,1.1c0,0.6-0.5,1.1-1.1,1.1S555.2,286.1,555.2,285.5z"/>
				</g>
				<g>
					<path class="st10" d="M550.8,285.5c0-0.6,0.5-1.1,1.1-1.1s1.1,0.5,1.1,1.1c0,0.6-0.5,1.1-1.1,1.1S550.8,286.1,550.8,285.5z"/>
				</g>
				<g>
					<path class="st10" d="M546.4,285.5c0-0.6,0.5-1.1,1.1-1.1s1.1,0.5,1.1,1.1c0,0.6-0.5,1.1-1.1,1.1S546.4,286.1,546.4,285.5z"/>
				</g>
				<g>
					<path class="st10" d="M541.9,285.5c0-0.6,0.5-1.1,1.1-1.1s1.1,0.5,1.1,1.1c0,0.6-0.5,1.1-1.1,1.1S541.9,286.1,541.9,285.5z"/>
				</g>
				<g>
					<path class="st10" d="M537.5,285.5c0-0.6,0.5-1.1,1.1-1.1s1.1,0.5,1.1,1.1c0,0.6-0.5,1.1-1.1,1.1S537.5,286.1,537.5,285.5z"/>
				</g>
				<g>
					<path class="st10" d="M533.1,285.5c0-0.6,0.5-1.1,1.1-1.1s1.1,0.5,1.1,1.1c0,0.6-0.5,1.1-1.1,1.1S533.1,286.1,533.1,285.5z"/>
				</g>
				<g>
					<path class="st10" d="M528.7,285.5c0-0.6,0.5-1.1,1.1-1.1s1.1,0.5,1.1,1.1c0,0.6-0.5,1.1-1.1,1.1S528.7,286.1,528.7,285.5z"/>
				</g>
				<g>
					<path class="st10" d="M524.3,285.5c0-0.6,0.5-1.1,1.1-1.1s1.1,0.5,1.1,1.1c0,0.6-0.5,1.1-1.1,1.1S524.3,286.1,524.3,285.5z"/>
				</g>
				<g>
					<path class="st10" d="M519.9,285.5c0-0.6,0.5-1.1,1.1-1.1s1.1,0.5,1.1,1.1c0,0.6-0.5,1.1-1.1,1.1S519.9,286.1,519.9,285.5z"/>
				</g>
				<g>
					<path class="st10" d="M515.4,285.5c0-0.6,0.5-1.1,1.1-1.1s1.1,0.5,1.1,1.1c0,0.6-0.5,1.1-1.1,1.1S515.4,286.1,515.4,285.5z"/>
				</g>
				<g>
					<path class="st10" d="M511,285.5c0-0.6,0.5-1.1,1.1-1.1s1.1,0.5,1.1,1.1c0,0.6-0.5,1.1-1.1,1.1S511,286.1,511,285.5z"/>
				</g>
				<g>
					<path class="st10" d="M506.6,285.5c0-0.6,0.5-1.1,1.1-1.1c0.6,0,1.1,0.5,1.1,1.1c0,0.6-0.5,1.1-1.1,1.1
						C507.1,286.6,506.6,286.1,506.6,285.5z"/>
				</g>
				<g>
					<path class="st10" d="M502.2,285.5c0-0.6,0.5-1.1,1.1-1.1s1.1,0.5,1.1,1.1c0,0.6-0.5,1.1-1.1,1.1S502.2,286.1,502.2,285.5z"/>
				</g>
				<g>
					<path class="st10" d="M497.8,285.5c0-0.6,0.5-1.1,1.1-1.1s1.1,0.5,1.1,1.1c0,0.6-0.5,1.1-1.1,1.1S497.8,286.1,497.8,285.5z"/>
				</g>
				<g>
					<path class="st10" d="M493.4,285.5c0-0.6,0.5-1.1,1.1-1.1s1.1,0.5,1.1,1.1c0,0.6-0.5,1.1-1.1,1.1S493.4,286.1,493.4,285.5z"/>
				</g>
				<g>
					<path class="st10" d="M488.9,285.5c0-0.6,0.5-1.1,1.1-1.1s1.1,0.5,1.1,1.1c0,0.6-0.5,1.1-1.1,1.1S488.9,286.1,488.9,285.5z"/>
				</g>
				<g>
					<path class="st10" d="M484.5,285.5c0-0.6,0.5-1.1,1.1-1.1s1.1,0.5,1.1,1.1c0,0.6-0.5,1.1-1.1,1.1S484.5,286.1,484.5,285.5z"/>
				</g>
				<g>
					<path class="st10" d="M480.1,285.5c0-0.6,0.5-1.1,1.1-1.1s1.1,0.5,1.1,1.1c0,0.6-0.5,1.1-1.1,1.1S480.1,286.1,480.1,285.5z"/>
				</g>
				<g>
					<path class="st10" d="M475.7,285.5c0-0.6,0.5-1.1,1.1-1.1s1.1,0.5,1.1,1.1c0,0.6-0.5,1.1-1.1,1.1S475.7,286.1,475.7,285.5z"/>
				</g>
				<g>
					<path class="st10" d="M471.3,285.5c0-0.6,0.5-1.1,1.1-1.1s1.1,0.5,1.1,1.1c0,0.6-0.5,1.1-1.1,1.1S471.3,286.1,471.3,285.5z"/>
				</g>
				<g>
					<path class="st10" d="M466.9,285.5c0-0.6,0.5-1.1,1.1-1.1s1.1,0.5,1.1,1.1c0,0.6-0.5,1.1-1.1,1.1S466.9,286.1,466.9,285.5z"/>
				</g>
				<g>
					<path class="st10" d="M462.4,285.5c0-0.6,0.5-1.1,1.1-1.1s1.1,0.5,1.1,1.1c0,0.6-0.5,1.1-1.1,1.1S462.4,286.1,462.4,285.5z"/>
				</g>
				<g>
					<path class="st10" d="M458,285.5c0-0.6,0.5-1.1,1.1-1.1s1.1,0.5,1.1,1.1c0,0.6-0.5,1.1-1.1,1.1S458,286.1,458,285.5z"/>
				</g>
				<g>
					<path class="st10" d="M453.6,285.5c0-0.6,0.5-1.1,1.1-1.1s1.1,0.5,1.1,1.1c0,0.6-0.5,1.1-1.1,1.1S453.6,286.1,453.6,285.5z"/>
				</g>
				<g>
					<path class="st10" d="M449.2,285.5c0-0.6,0.5-1.1,1.1-1.1s1.1,0.5,1.1,1.1c0,0.6-0.5,1.1-1.1,1.1S449.2,286.1,449.2,285.5z"/>
				</g>
				<g>
					<path class="st10" d="M444.8,285.5c0-0.6,0.5-1.1,1.1-1.1s1.1,0.5,1.1,1.1c0,0.6-0.5,1.1-1.1,1.1S444.8,286.1,444.8,285.5z"/>
				</g>
				<g>
					<path class="st10" d="M440.3,285.5c0-0.6,0.5-1.1,1.1-1.1s1.1,0.5,1.1,1.1c0,0.6-0.5,1.1-1.1,1.1S440.3,286.1,440.3,285.5z"/>
				</g>
				<g>
					<path class="st10" d="M435.9,285.5c0-0.6,0.5-1.1,1.1-1.1s1.1,0.5,1.1,1.1c0,0.6-0.5,1.1-1.1,1.1S435.9,286.1,435.9,285.5z"/>
				</g>
				<g>
					<path class="st10" d="M431.5,285.5c0-0.6,0.5-1.1,1.1-1.1s1.1,0.5,1.1,1.1c0,0.6-0.5,1.1-1.1,1.1S431.5,286.1,431.5,285.5z"/>
				</g>
				<g>
					<path class="st10" d="M427.1,285.5c0-0.6,0.5-1.1,1.1-1.1s1.1,0.5,1.1,1.1c0,0.6-0.5,1.1-1.1,1.1S427.1,286.1,427.1,285.5z"/>
				</g>
				<g>
					<path class="st10" d="M422.7,285.5c0-0.6,0.5-1.1,1.1-1.1s1.1,0.5,1.1,1.1c0,0.6-0.5,1.1-1.1,1.1S422.7,286.1,422.7,285.5z"/>
				</g>
				<g>
					<path class="st10" d="M418.3,285.5c0-0.6,0.5-1.1,1.1-1.1s1.1,0.5,1.1,1.1c0,0.6-0.5,1.1-1.1,1.1S418.3,286.1,418.3,285.5z"/>
				</g>
				<g>
					<path class="st10" d="M413.8,285.5c0-0.6,0.5-1.1,1.1-1.1s1.1,0.5,1.1,1.1c0,0.6-0.5,1.1-1.1,1.1S413.8,286.1,413.8,285.5z"/>
				</g>
				<g>
					<path class="st10" d="M409.4,285.5c0-0.6,0.5-1.1,1.1-1.1s1.1,0.5,1.1,1.1c0,0.6-0.5,1.1-1.1,1.1S409.4,286.1,409.4,285.5z"/>
				</g>
				<g>
					<path class="st10" d="M405,285.5c0-0.6,0.5-1.1,1.1-1.1s1.1,0.5,1.1,1.1c0,0.6-0.5,1.1-1.1,1.1S405,286.1,405,285.5z"/>
				</g>
				<g>
					<path class="st10" d="M400.6,285.5c0-0.6,0.5-1.1,1.1-1.1s1.1,0.5,1.1,1.1c0,0.6-0.5,1.1-1.1,1.1S400.6,286.1,400.6,285.5z"/>
				</g>
				<g>
					<path class="st10" d="M396.2,285.5c0-0.6,0.5-1.1,1.1-1.1s1.1,0.5,1.1,1.1c0,0.6-0.5,1.1-1.1,1.1S396.2,286.1,396.2,285.5z"/>
				</g>
				<g>
					<path class="st10" d="M391.8,285.5c0-0.6,0.5-1.1,1.1-1.1s1.1,0.5,1.1,1.1c0,0.6-0.5,1.1-1.1,1.1S391.8,286.1,391.8,285.5z"/>
				</g>
				<g>
					<path class="st10" d="M387.3,285.5c0-0.6,0.5-1.1,1.1-1.1s1.1,0.5,1.1,1.1c0,0.6-0.5,1.1-1.1,1.1S387.3,286.1,387.3,285.5z"/>
				</g>
				<g>
					<path class="st10" d="M382.9,285.5c0-0.6,0.5-1.1,1.1-1.1s1.1,0.5,1.1,1.1c0,0.6-0.5,1.1-1.1,1.1S382.9,286.1,382.9,285.5z"/>
				</g>
				<g>
					<path class="st10" d="M378.5,285.5c0-0.6,0.5-1.1,1.1-1.1s1.1,0.5,1.1,1.1c0,0.6-0.5,1.1-1.1,1.1S378.5,286.1,378.5,285.5z"/>
				</g>
				<g>
					<path class="st10" d="M374.1,285.5c0-0.6,0.5-1.1,1.1-1.1s1.1,0.5,1.1,1.1c0,0.6-0.5,1.1-1.1,1.1S374.1,286.1,374.1,285.5z"/>
				</g>
				<g>
					<path class="st10" d="M369.7,285.5c0-0.6,0.5-1.1,1.1-1.1c0.6,0,1.1,0.5,1.1,1.1c0,0.6-0.5,1.1-1.1,1.1
						C370.2,286.6,369.7,286.1,369.7,285.5z"/>
				</g>
				<g>
					<path class="st10" d="M365.2,285.5c0-0.6,0.5-1.1,1.1-1.1s1.1,0.5,1.1,1.1c0,0.6-0.5,1.1-1.1,1.1S365.2,286.1,365.2,285.5z"/>
				</g>
				<g>
					<path class="st10" d="M360.8,285.5c0-0.6,0.5-1.1,1.1-1.1s1.1,0.5,1.1,1.1c0,0.6-0.5,1.1-1.1,1.1S360.8,286.1,360.8,285.5z"/>
				</g>
				<g>
					<path class="st10" d="M356.4,285.5c0-0.6,0.5-1.1,1.1-1.1s1.1,0.5,1.1,1.1c0,0.6-0.5,1.1-1.1,1.1S356.4,286.1,356.4,285.5z"/>
				</g>
				<g>
					<path class="st10" d="M352,285.5c0-0.6,0.5-1.1,1.1-1.1s1.1,0.5,1.1,1.1c0,0.6-0.5,1.1-1.1,1.1S352,286.1,352,285.5z"/>
				</g>
				<g>
					<path class="st10" d="M347.6,285.5c0-0.6,0.5-1.1,1.1-1.1s1.1,0.5,1.1,1.1c0,0.6-0.5,1.1-1.1,1.1S347.6,286.1,347.6,285.5z"/>
				</g>
				<g>
					<path class="st10" d="M343.2,285.5c0-0.6,0.5-1.1,1.1-1.1s1.1,0.5,1.1,1.1c0,0.6-0.5,1.1-1.1,1.1S343.2,286.1,343.2,285.5z"/>
				</g>
				<g>
					<path class="st10" d="M338.7,285.5c0-0.6,0.5-1.1,1.1-1.1s1.1,0.5,1.1,1.1c0,0.6-0.5,1.1-1.1,1.1S338.7,286.1,338.7,285.5z"/>
				</g>
				<g>
					<path class="st10" d="M334.3,285.5c0-0.6,0.5-1.1,1.1-1.1s1.1,0.5,1.1,1.1c0,0.6-0.5,1.1-1.1,1.1S334.3,286.1,334.3,285.5z"/>
				</g>
				<g>
					<path class="st10" d="M329.9,285.5c0-0.6,0.5-1.1,1.1-1.1s1.1,0.5,1.1,1.1c0,0.6-0.5,1.1-1.1,1.1S329.9,286.1,329.9,285.5z"/>
				</g>
				<g>
					<path class="st10" d="M325.5,285.5c0-0.6,0.5-1.1,1.1-1.1s1.1,0.5,1.1,1.1c0,0.6-0.5,1.1-1.1,1.1S325.5,286.1,325.5,285.5z"/>
				</g>
				<g>
					<path class="st10" d="M321.1,285.5c0-0.6,0.5-1.1,1.1-1.1s1.1,0.5,1.1,1.1c0,0.6-0.5,1.1-1.1,1.1S321.1,286.1,321.1,285.5z"/>
				</g>
				<g>
					<path class="st10" d="M316.7,285.5c0-0.6,0.5-1.1,1.1-1.1s1.1,0.5,1.1,1.1c0,0.6-0.5,1.1-1.1,1.1S316.7,286.1,316.7,285.5z"/>
				</g>
				<g>
					<path class="st10" d="M312.2,285.5c0-0.6,0.5-1.1,1.1-1.1s1.1,0.5,1.1,1.1c0,0.6-0.5,1.1-1.1,1.1S312.2,286.1,312.2,285.5z"/>
				</g>
				<g>
					<path class="st10" d="M307.8,285.5c0-0.6,0.5-1.1,1.1-1.1s1.1,0.5,1.1,1.1c0,0.6-0.5,1.1-1.1,1.1S307.8,286.1,307.8,285.5z"/>
				</g>
				<g>
					<path class="st10" d="M303.4,285.5c0-0.6,0.5-1.1,1.1-1.1s1.1,0.5,1.1,1.1c0,0.6-0.5,1.1-1.1,1.1S303.4,286.1,303.4,285.5z"/>
				</g>
				<g>
					<path class="st10" d="M299,285.5c0-0.6,0.5-1.1,1.1-1.1s1.1,0.5,1.1,1.1c0,0.6-0.5,1.1-1.1,1.1S299,286.1,299,285.5z"/>
				</g>
				<g>
					<path class="st10" d="M294.6,285.5c0-0.6,0.5-1.1,1.1-1.1s1.1,0.5,1.1,1.1c0,0.6-0.5,1.1-1.1,1.1S294.6,286.1,294.6,285.5z"/>
				</g>
				<g>
					<path class="st10" d="M290.2,285.5c0-0.6,0.5-1.1,1.1-1.1s1.1,0.5,1.1,1.1c0,0.6-0.5,1.1-1.1,1.1S290.2,286.1,290.2,285.5z"/>
				</g>
				<g>
					<path class="st10" d="M285.7,285.5c0-0.6,0.5-1.1,1.1-1.1c0.6,0,1.1,0.5,1.1,1.1c0,0.6-0.5,1.1-1.1,1.1
						C286.2,286.6,285.7,286.1,285.7,285.5z"/>
				</g>
				<g>
					<path class="st10" d="M281.3,285.5c0-0.6,0.5-1.1,1.1-1.1s1.1,0.5,1.1,1.1c0,0.6-0.5,1.1-1.1,1.1S281.3,286.1,281.3,285.5z"/>
				</g>
				<g>
					<path class="st10" d="M276.9,285.5c0-0.6,0.5-1.1,1.1-1.1s1.1,0.5,1.1,1.1c0,0.6-0.5,1.1-1.1,1.1S276.9,286.1,276.9,285.5z"/>
				</g>
				<g>
					<path class="st10" d="M272.5,285.5c0-0.6,0.5-1.1,1.1-1.1s1.1,0.5,1.1,1.1c0,0.6-0.5,1.1-1.1,1.1S272.5,286.1,272.5,285.5z"/>
				</g>
				<g>
					<path class="st10" d="M268.1,285.5c0-0.6,0.5-1.1,1.1-1.1s1.1,0.5,1.1,1.1c0,0.6-0.5,1.1-1.1,1.1S268.1,286.1,268.1,285.5z"/>
				</g>
				<g>
					<path class="st10" d="M263.6,285.5c0-0.6,0.5-1.1,1.1-1.1s1.1,0.5,1.1,1.1c0,0.6-0.5,1.1-1.1,1.1S263.6,286.1,263.6,285.5z"/>
				</g>
				<g>
					<path class="st10" d="M259.2,285.5c0-0.6,0.5-1.1,1.1-1.1s1.1,0.5,1.1,1.1c0,0.6-0.5,1.1-1.1,1.1S259.2,286.1,259.2,285.5z"/>
				</g>
				<g>
					<path class="st10" d="M254.8,285.5c0-0.6,0.5-1.1,1.1-1.1s1.1,0.5,1.1,1.1c0,0.6-0.5,1.1-1.1,1.1S254.8,286.1,254.8,285.5z"/>
				</g>
				<g>
					<path class="st10" d="M250.4,285.5c0-0.6,0.5-1.1,1.1-1.1c0.6,0,1.1,0.5,1.1,1.1c0,0.6-0.5,1.1-1.1,1.1
						C250.9,286.6,250.4,286.1,250.4,285.5z"/>
				</g>
				<g>
					<path class="st10" d="M246,285.5c0-0.6,0.5-1.1,1.1-1.1s1.1,0.5,1.1,1.1c0,0.6-0.5,1.1-1.1,1.1S246,286.1,246,285.5z"/>
				</g>
				<g>
					<path class="st10" d="M241.6,285.5c0-0.6,0.5-1.1,1.1-1.1s1.1,0.5,1.1,1.1c0,0.6-0.5,1.1-1.1,1.1S241.6,286.1,241.6,285.5z"/>
				</g>
				<g>
					<path class="st10" d="M237.1,285.5c0-0.6,0.5-1.1,1.1-1.1s1.1,0.5,1.1,1.1c0,0.6-0.5,1.1-1.1,1.1S237.1,286.1,237.1,285.5z"/>
				</g>
				<g>
					<path class="st10" d="M232.7,285.5c0-0.6,0.5-1.1,1.1-1.1s1.1,0.5,1.1,1.1c0,0.6-0.5,1.1-1.1,1.1S232.7,286.1,232.7,285.5z"/>
				</g>
				<g>
					<path class="st10" d="M228.3,285.5c0-0.6,0.5-1.1,1.1-1.1s1.1,0.5,1.1,1.1c0,0.6-0.5,1.1-1.1,1.1S228.3,286.1,228.3,285.5z"/>
				</g>
				<g>
					<path class="st10" d="M223.9,285.5c0-0.6,0.5-1.1,1.1-1.1s1.1,0.5,1.1,1.1c0,0.6-0.5,1.1-1.1,1.1S223.9,286.1,223.9,285.5z"/>
				</g>
				<g>
					<path class="st10" d="M219.5,285.5c0-0.6,0.5-1.1,1.1-1.1s1.1,0.5,1.1,1.1c0,0.6-0.5,1.1-1.1,1.1S219.5,286.1,219.5,285.5z"/>
				</g>
				<g>
					<path class="st10" d="M215.1,285.5c0-0.6,0.5-1.1,1.1-1.1s1.1,0.5,1.1,1.1c0,0.6-0.5,1.1-1.1,1.1S215.1,286.1,215.1,285.5z"/>
				</g>
				<g>
					<path class="st10" d="M210.6,285.5c0-0.6,0.5-1.1,1.1-1.1c0.6,0,1.1,0.5,1.1,1.1c0,0.6-0.5,1.1-1.1,1.1
						C211.1,286.6,210.6,286.1,210.6,285.5z"/>
				</g>
				<g>
					<path class="st10" d="M206.2,285.5c0-0.6,0.5-1.1,1.1-1.1s1.1,0.5,1.1,1.1c0,0.6-0.5,1.1-1.1,1.1S206.2,286.1,206.2,285.5z"/>
				</g>
				<g>
					<path class="st10" d="M201.8,285.5c0-0.6,0.5-1.1,1.1-1.1c0.6,0,1.1,0.5,1.1,1.1c0,0.6-0.5,1.1-1.1,1.1
						C202.3,286.6,201.8,286.1,201.8,285.5z"/>
				</g>
				<g>
					<path class="st10" d="M197.4,285.5c0-0.6,0.5-1.1,1.1-1.1s1.1,0.5,1.1,1.1c0,0.6-0.5,1.1-1.1,1.1S197.4,286.1,197.4,285.5z"/>
				</g>
				<g>
					<path class="st10" d="M193,285.5c0-0.6,0.5-1.1,1.1-1.1s1.1,0.5,1.1,1.1c0,0.6-0.5,1.1-1.1,1.1S193,286.1,193,285.5z"/>
				</g>
				<g>
					<path class="st10" d="M188.6,285.5c0-0.6,0.5-1.1,1.1-1.1s1.1,0.5,1.1,1.1c0,0.6-0.5,1.1-1.1,1.1S188.6,286.1,188.6,285.5z"/>
				</g>
				<g>
					<path class="st10" d="M184.1,285.5c0-0.6,0.5-1.1,1.1-1.1s1.1,0.5,1.1,1.1c0,0.6-0.5,1.1-1.1,1.1S184.1,286.1,184.1,285.5z"/>
				</g>
				<g>
					<path class="st10" d="M179.7,285.5c0-0.6,0.5-1.1,1.1-1.1s1.1,0.5,1.1,1.1c0,0.6-0.5,1.1-1.1,1.1S179.7,286.1,179.7,285.5z"/>
				</g>
				<g>
					<path class="st10" d="M175.3,285.5c0-0.6,0.5-1.1,1.1-1.1s1.1,0.5,1.1,1.1c0,0.6-0.5,1.1-1.1,1.1S175.3,286.1,175.3,285.5z"/>
				</g>
				<g>
					<path class="st10" d="M170.9,285.5c0-0.6,0.5-1.1,1.1-1.1c0.6,0,1.1,0.5,1.1,1.1c0,0.6-0.5,1.1-1.1,1.1
						C171.4,286.6,170.9,286.1,170.9,285.5z"/>
				</g>
				<g>
					<path class="st10" d="M166.5,285.5c0-0.6,0.5-1.1,1.1-1.1s1.1,0.5,1.1,1.1c0,0.6-0.5,1.1-1.1,1.1S166.5,286.1,166.5,285.5z"/>
				</g>
				<g>
					<path class="st10" d="M162,285.5c0-0.6,0.5-1.1,1.1-1.1s1.1,0.5,1.1,1.1c0,0.6-0.5,1.1-1.1,1.1S162,286.1,162,285.5z"/>
				</g>
				<g>
					<line class="st12" x1="158.7" y1="291.3" x2="158.7" y2="279.7"/>
				</g>
			</g>
		</g>
	</g>
	<g>
		<g>
			<g>
				<g>
					<line class="st12" x1="442.5" y1="118.3" x2="436.6" y2="128.3"/>
				</g>
				<g>
					<path class="st10" d="M444.3,126.1c-0.3,0.5-1,0.7-1.5,0.4c-0.5-0.3-0.7-1-0.4-1.5c0.3-0.5,1-0.7,1.5-0.4
						C444.4,124.9,444.6,125.6,444.3,126.1z"/>
				</g>
				<g>
					<path class="st10" d="M448,128.4c-0.3,0.5-1,0.7-1.5,0.4s-0.7-1-0.4-1.5c0.3-0.5,1-0.7,1.5-0.4
						C448.2,127.2,448.4,127.8,448,128.4z"/>
				</g>
				<g>
					<path class="st10" d="M451.8,130.6c-0.3,0.5-1,0.7-1.5,0.4c-0.5-0.3-0.7-1-0.4-1.5c0.3-0.5,1-0.7,1.5-0.4
						S452.1,130.1,451.8,130.6z"/>
				</g>
				<g>
					<path class="st10" d="M455.6,132.9c-0.3,0.5-1,0.7-1.5,0.4c-0.5-0.3-0.7-1-0.4-1.5c0.3-0.5,1-0.7,1.5-0.4
						C455.8,131.7,455.9,132.4,455.6,132.9z"/>
				</g>
				<g>
					<path class="st10" d="M459.4,135.1c-0.3,0.5-1,0.7-1.5,0.4s-0.7-1-0.4-1.5c0.3-0.5,1-0.7,1.5-0.4
						C459.6,133.9,459.7,134.6,459.4,135.1z"/>
				</g>
				<g>
					<path class="st10" d="M463.2,137.4c-0.3,0.5-1,0.7-1.5,0.4c-0.5-0.3-0.7-1-0.4-1.5c0.3-0.5,1-0.7,1.5-0.4
						S463.5,136.9,463.2,137.4z"/>
				</g>
				<g>
					<path class="st10" d="M467,139.7c-0.3,0.5-1,0.7-1.5,0.4c-0.5-0.3-0.7-1-0.4-1.5c0.3-0.5,1-0.7,1.5-0.4
						C467.1,138.5,467.3,139.1,467,139.7z"/>
				</g>
				<g>
					<path class="st10" d="M470.8,141.9c-0.3,0.5-1,0.7-1.5,0.4c-0.5-0.3-0.7-1-0.4-1.5c0.3-0.5,1-0.7,1.5-0.4
						C470.9,140.7,471.1,141.4,470.8,141.9z"/>
				</g>
				<g>
					<path class="st10" d="M474.6,144.2c-0.3,0.5-1,0.7-1.5,0.4c-0.5-0.3-0.7-1-0.4-1.5c0.3-0.5,1-0.7,1.5-0.4
						S474.9,143.7,474.6,144.2z"/>
				</g>
				<g>
					<path class="st10" d="M478.3,146.4c-0.3,0.5-1,0.7-1.5,0.4c-0.5-0.3-0.7-1-0.4-1.5c0.3-0.5,1-0.7,1.5-0.4
						S478.7,145.9,478.3,146.4z"/>
				</g>
				<g>
					<path class="st10" d="M482.1,148.7c-0.3,0.5-1,0.7-1.5,0.4c-0.5-0.3-0.7-1-0.4-1.5c0.3-0.5,1-0.7,1.5-0.4
						C482.3,147.5,482.4,148.2,482.1,148.7z"/>
				</g>
				<g>
					<path class="st10" d="M485.9,151c-0.3,0.5-1,0.7-1.5,0.4c-0.5-0.3-0.7-1-0.4-1.5c0.3-0.5,1-0.7,1.5-0.4
						C486.1,149.8,486.2,150.4,485.9,151z"/>
				</g>
				<g>
					<path class="st10" d="M489.7,153.2c-0.3,0.5-1,0.7-1.5,0.4c-0.5-0.3-0.7-1-0.4-1.5c0.3-0.5,1-0.7,1.5-0.4
						S490,152.7,489.7,153.2z"/>
				</g>
				<g>
					<path class="st10" d="M493.5,155.5c-0.3,0.5-1,0.7-1.5,0.4c-0.5-0.3-0.7-1-0.4-1.5c0.3-0.5,1-0.7,1.5-0.4
						C493.6,154.3,493.8,155,493.5,155.5z"/>
				</g>
				<g>
					<path class="st10" d="M497.3,157.7c-0.3,0.5-1,0.7-1.5,0.4c-0.5-0.3-0.7-1-0.4-1.5c0.3-0.5,1-0.7,1.5-0.4
						C497.4,156.5,497.6,157.2,497.3,157.7z"/>
				</g>
				<g>
					<path class="st10" d="M501.1,160c-0.3,0.5-1,0.7-1.5,0.4c-0.5-0.3-0.7-1-0.4-1.5c0.3-0.5,1-0.7,1.5-0.4S501.4,159.5,501.1,160z
						"/>
				</g>
				<g>
					<path class="st10" d="M504.9,162.3c-0.3,0.5-1,0.7-1.5,0.4c-0.5-0.3-0.7-1-0.4-1.5c0.3-0.5,1-0.7,1.5-0.4
						C505,161.1,505.2,161.7,504.9,162.3z"/>
				</g>
				<g>
					<path class="st10" d="M508.6,164.5c-0.3,0.5-1,0.7-1.5,0.4c-0.5-0.3-0.7-1-0.4-1.5c0.3-0.5,1-0.7,1.5-0.4
						C508.8,163.3,509,164,508.6,164.5z"/>
				</g>
				<g>
					<path class="st10" d="M512.4,166.8c-0.3,0.5-1,0.7-1.5,0.4c-0.5-0.3-0.7-1-0.4-1.5c0.3-0.5,1-0.7,1.5-0.4
						C512.6,165.6,512.7,166.3,512.4,166.8z"/>
				</g>
				<g>
					<path class="st10" d="M516.2,169c-0.3,0.5-1,0.7-1.5,0.4c-0.5-0.3-0.7-1-0.4-1.5c0.3-0.5,1-0.7,1.5-0.4
						C516.4,167.8,516.5,168.5,516.2,169z"/>
				</g>
				<g>
					<path class="st10" d="M520,171.3c-0.3,0.5-1,0.7-1.5,0.4s-0.7-1-0.4-1.5c0.3-0.5,1-0.7,1.5-0.4
						C520.1,170.1,520.3,170.8,520,171.3z"/>
				</g>
				<g>
					<path class="st10" d="M523.8,173.6c-0.3,0.5-1,0.7-1.5,0.4c-0.5-0.3-0.7-1-0.4-1.5c0.3-0.5,1-0.7,1.5-0.4
						S524.1,173,523.8,173.6z"/>
				</g>
				<g>
					<path class="st10" d="M527.6,175.8c-0.3,0.5-1,0.7-1.5,0.4c-0.5-0.3-0.7-1-0.4-1.5c0.3-0.5,1-0.7,1.5-0.4
						C527.7,174.6,527.9,175.3,527.6,175.8z"/>
				</g>
				<g>
					<path class="st10" d="M531.4,178.1c-0.3,0.5-1,0.7-1.5,0.4c-0.5-0.3-0.7-1-0.4-1.5c0.3-0.5,1-0.7,1.5-0.4
						C531.5,176.9,531.7,177.6,531.4,178.1z"/>
				</g>
				<g>
					<path class="st10" d="M535.1,180.3c-0.3,0.5-1,0.7-1.5,0.4c-0.5-0.3-0.7-1-0.4-1.5c0.3-0.5,1-0.7,1.5-0.4
						S535.5,179.8,535.1,180.3z"/>
				</g>
				<g>
					<path class="st10" d="M538.9,182.6c-0.3,0.5-1,0.7-1.5,0.4c-0.5-0.3-0.7-1-0.4-1.5c0.3-0.5,1-0.7,1.5-0.4
						C539.1,181.4,539.2,182.1,538.9,182.6z"/>
				</g>
				<g>
					<path class="st10" d="M542.7,184.9c-0.3,0.5-1,0.7-1.5,0.4s-0.7-1-0.4-1.5c0.3-0.5,1-0.7,1.5-0.4
						C542.9,183.7,543,184.3,542.7,184.9z"/>
				</g>
				<g>
					<path class="st10" d="M546.5,187.1c-0.3,0.5-1,0.7-1.5,0.4c-0.5-0.3-0.7-1-0.4-1.5c0.3-0.5,1-0.7,1.5-0.4
						S546.8,186.6,546.5,187.1z"/>
				</g>
				<g>
					<path class="st10" d="M550.3,189.4c-0.3,0.5-1,0.7-1.5,0.4c-0.5-0.3-0.7-1-0.4-1.5c0.3-0.5,1-0.7,1.5-0.4
						C550.4,188.2,550.6,188.9,550.3,189.4z"/>
				</g>
				<g>
					<path class="st10" d="M554.1,191.6c-0.3,0.5-1,0.7-1.5,0.4s-0.7-1-0.4-1.5c0.3-0.5,1-0.7,1.5-0.4
						C554.2,190.4,554.4,191.1,554.1,191.6z"/>
				</g>
				<g>
					<path class="st10" d="M557.9,193.9c-0.3,0.5-1,0.7-1.5,0.4c-0.5-0.3-0.7-1-0.4-1.5c0.3-0.5,1-0.7,1.5-0.4
						S558.2,193.4,557.9,193.9z"/>
				</g>
				<g>
					<path class="st10" d="M561.7,196.2c-0.3,0.5-1,0.7-1.5,0.4c-0.5-0.3-0.7-1-0.4-1.5c0.3-0.5,1-0.7,1.5-0.4
						C561.8,195,562,195.6,561.7,196.2z"/>
				</g>
				<g>
					<path class="st10" d="M565.4,198.4c-0.3,0.5-1,0.7-1.5,0.4s-0.7-1-0.4-1.5c0.3-0.5,1-0.7,1.5-0.4
						C565.6,197.2,565.8,197.9,565.4,198.4z"/>
				</g>
				<g>
					<path class="st10" d="M569.2,200.7c-0.3,0.5-1,0.7-1.5,0.4s-0.7-1-0.4-1.5c0.3-0.5,1-0.7,1.5-0.4S569.5,200.2,569.2,200.7z"/>
				</g>
				<g>
					<path class="st10" d="M573,202.9c-0.3,0.5-1,0.7-1.5,0.4c-0.5-0.3-0.7-1-0.4-1.5c0.3-0.5,1-0.7,1.5-0.4
						C573.2,201.7,573.3,202.4,573,202.9z"/>
				</g>
				<g>
					<path class="st10" d="M576.8,205.2c-0.3,0.5-1,0.7-1.5,0.4c-0.5-0.3-0.7-1-0.4-1.5c0.3-0.5,1-0.7,1.5-0.4
						C576.9,204,577.1,204.7,576.8,205.2z"/>
				</g>
				<g>
					<path class="st10" d="M580.6,207.5c-0.3,0.5-1,0.7-1.5,0.4c-0.5-0.3-0.7-1-0.4-1.5c0.3-0.5,1-0.7,1.5-0.4
						S580.9,206.9,580.6,207.5z"/>
				</g>
				<g>
					<path class="st10" d="M584.4,209.7c-0.3,0.5-1,0.7-1.5,0.4c-0.5-0.3-0.7-1-0.4-1.5c0.3-0.5,1-0.7,1.5-0.4
						S584.7,209.2,584.4,209.7z"/>
				</g>
				<g>
					<path class="st10" d="M588.2,212c-0.3,0.5-1,0.7-1.5,0.4c-0.5-0.3-0.7-1-0.4-1.5c0.3-0.5,1-0.7,1.5-0.4
						C588.3,210.8,588.5,211.5,588.2,212z"/>
				</g>
				<g>
					<path class="st10" d="M592,214.2c-0.3,0.5-1,0.7-1.5,0.4s-0.7-1-0.4-1.5c0.3-0.5,1-0.7,1.5-0.4
						C592.1,213,592.3,213.7,592,214.2z"/>
				</g>
				<g>
					<path class="st10" d="M595.7,216.5c-0.3,0.5-1,0.7-1.5,0.4c-0.5-0.3-0.7-1-0.4-1.5c0.3-0.5,1-0.7,1.5-0.4
						S596.1,216,595.7,216.5z"/>
				</g>
				<g>
					<path class="st10" d="M599.5,218.8c-0.3,0.5-1,0.7-1.5,0.4c-0.5-0.3-0.7-1-0.4-1.5c0.3-0.5,1-0.7,1.5-0.4
						C599.7,217.6,599.8,218.2,599.5,218.8z"/>
				</g>
				<g>
					<path class="st10" d="M603.3,221c-0.3,0.5-1,0.7-1.5,0.4c-0.5-0.3-0.7-1-0.4-1.5c0.3-0.5,1-0.7,1.5-0.4
						C603.5,219.8,603.6,220.5,603.3,221z"/>
				</g>
				<g>
					<path class="st10" d="M607.1,223.3c-0.3,0.5-1,0.7-1.5,0.4c-0.5-0.3-0.7-1-0.4-1.5c0.3-0.5,1-0.7,1.5-0.4
						S607.4,222.8,607.1,223.3z"/>
				</g>
				<g>
					<path class="st10" d="M610.9,225.5c-0.3,0.5-1,0.7-1.5,0.4c-0.5-0.3-0.7-1-0.4-1.5c0.3-0.5,1-0.7,1.5-0.4
						C611,224.3,611.2,225,610.9,225.5z"/>
				</g>
				<g>
					<path class="st10" d="M614.7,227.8c-0.3,0.5-1,0.7-1.5,0.4s-0.7-1-0.4-1.5c0.3-0.5,1-0.7,1.5-0.4
						C614.8,226.6,615,227.3,614.7,227.8z"/>
				</g>
				<g>
					<path class="st10" d="M618.5,230.1c-0.3,0.5-1,0.7-1.5,0.4c-0.5-0.3-0.7-1-0.4-1.5c0.3-0.5,1-0.7,1.5-0.4
						S618.8,229.5,618.5,230.1z"/>
				</g>
				<g>
					<path class="st10" d="M622.3,232.3c-0.3,0.5-1,0.7-1.5,0.4c-0.5-0.3-0.7-1-0.4-1.5c0.3-0.5,1-0.7,1.5-0.4
						C622.4,231.1,622.6,231.8,622.3,232.3z"/>
				</g>
				<g>
					<path class="st10" d="M626,234.6c-0.3,0.5-1,0.7-1.5,0.4c-0.5-0.3-0.7-1-0.4-1.5c0.3-0.5,1-0.7,1.5-0.4
						C626.2,233.4,626.4,234.1,626,234.6z"/>
				</g>
				<g>
					<path class="st10" d="M629.8,236.8c-0.3,0.5-1,0.7-1.5,0.4c-0.5-0.3-0.7-1-0.4-1.5c0.3-0.5,1-0.7,1.5-0.4
						S630.1,236.3,629.8,236.8z"/>
				</g>
				<g>
					<path class="st10" d="M633.6,239.1c-0.3,0.5-1,0.7-1.5,0.4c-0.5-0.3-0.7-1-0.4-1.5c0.3-0.5,1-0.7,1.5-0.4
						C633.8,237.9,633.9,238.6,633.6,239.1z"/>
				</g>
				<g>
					<path class="st10" d="M637.4,241.4c-0.3,0.5-1,0.7-1.5,0.4s-0.7-1-0.4-1.5c0.3-0.5,1-0.7,1.5-0.4
						C637.5,240.2,637.7,240.8,637.4,241.4z"/>
				</g>
				<g>
					<path class="st10" d="M641.2,243.6c-0.3,0.5-1,0.7-1.5,0.4c-0.5-0.3-0.7-1-0.4-1.5c0.3-0.5,1-0.7,1.5-0.4
						S641.5,243.1,641.2,243.6z"/>
				</g>
				<g>
					<path class="st10" d="M645,245.9c-0.3,0.5-1,0.7-1.5,0.4c-0.5-0.3-0.7-1-0.4-1.5c0.3-0.5,1-0.7,1.5-0.4
						C645.1,244.7,645.3,245.4,645,245.9z"/>
				</g>
				<g>
					<path class="st10" d="M648.8,248.1c-0.3,0.5-1,0.7-1.5,0.4c-0.5-0.3-0.7-1-0.4-1.5c0.3-0.5,1-0.7,1.5-0.4
						C648.9,246.9,649.1,247.6,648.8,248.1z"/>
				</g>
				<g>
					<line class="st12" x1="654.6" y1="244.9" x2="648.6" y2="254.8"/>
				</g>
			</g>
		</g>
	</g>
</g>
<g id="アイコン">
	<g>
		
			<rect x="560.8" y="324.1" transform="matrix(6.031981e-11 -1 1 6.031981e-11 236.7156 887.7278)" class="st5" width="2.8" height="2.8"/>
		
			<rect x="560.8" y="318.4" transform="matrix(5.967855e-11 -1 1 5.967855e-11 242.3849 882.0585)" class="st5" width="2.8" height="2.8"/>
		
			<rect x="563.6" y="321.3" transform="matrix(6.031981e-11 -1 1 6.031981e-11 242.3849 887.7278)" class="st5" width="2.8" height="2.8"/>
		
			<rect x="563.6" y="315.6" transform="matrix(5.903639e-11 -1 1 5.903639e-11 248.0542 882.0585)" class="st5" width="2.8" height="2.8"/>
		
			<rect x="569.3" y="321.3" transform="matrix(6.160323e-11 -1 1 6.160323e-11 248.0542 893.397)" class="st5" width="2.8" height="2.8"/>
		
			<rect x="569.3" y="315.6" transform="matrix(5.903639e-11 -1 1 5.903639e-11 253.7234 887.7278)" class="st5" width="2.8" height="2.8"/>
		
			<rect x="560.8" y="312.8" transform="matrix(5.903639e-11 -1 1 5.903639e-11 248.0542 876.3892)" class="st5" width="2.8" height="2.8"/>
		
			<rect x="560.8" y="315.6" transform="matrix(5.967855e-11 -1 1 5.967855e-11 245.2195 879.2238)" class="st6" width="2.8" height="2.8"/>
		
			<rect x="560.8" y="321.3" transform="matrix(6.096108e-11 -1 1 6.096108e-11 239.5502 884.8931)" class="st6" width="2.8" height="2.8"/>
		
			<rect x="563.6" y="324.1" transform="matrix(5.967855e-11 -1 1 5.967855e-11 239.5502 890.5624)" class="st6" width="2.8" height="2.8"/>
		
			<rect x="563.6" y="318.4" transform="matrix(5.967855e-11 -1 1 5.967855e-11 245.2195 884.8931)" class="st6" width="2.8" height="2.8"/>
		
			<rect x="563.6" y="312.8" transform="matrix(6.031981e-11 -1 1 6.031981e-11 250.8888 879.2238)" class="st6" width="2.8" height="2.8"/>
		
			<rect x="566.5" y="315.6" transform="matrix(6.031981e-11 -1 1 6.031981e-11 250.8888 884.8931)" class="st6" width="2.8" height="2.8"/>
		
			<rect x="566.5" y="321.3" transform="matrix(6.031981e-11 -1 1 6.031981e-11 245.2195 890.5624)" class="st6" width="2.8" height="2.8"/>
		
			<rect x="572.1" y="315.6" transform="matrix(6.031981e-11 -1 1 6.031981e-11 256.5581 890.5624)" class="st6" width="2.8" height="2.8"/>
		
			<rect x="572.1" y="321.3" transform="matrix(5.839424e-11 -1 1 5.839424e-11 250.8888 896.2317)" class="st6" width="2.8" height="2.8"/>
		
			<rect x="569.3" y="324.1" transform="matrix(5.839424e-11 -1 1 5.839424e-11 245.2195 896.2317)" class="st6" width="2.8" height="2.8"/>
		
			<rect x="569.3" y="318.4" transform="matrix(6.031981e-11 -1 1 6.031981e-11 250.8888 890.5624)" class="st6" width="2.8" height="2.8"/>
		
			<rect x="569.3" y="312.8" transform="matrix(6.031981e-11 -1 1 6.031981e-11 256.5581 884.8931)" class="st6" width="2.8" height="2.8"/>
		
			<rect x="566.5" y="324.1" transform="matrix(5.967855e-11 -1 1 5.967855e-11 242.3849 893.397)" class="st5" width="2.8" height="2.8"/>
		
			<rect x="566.5" y="318.4" transform="matrix(5.903639e-11 -1 1 5.903639e-11 248.0542 887.7278)" class="st5" width="2.8" height="2.8"/>
		
			<rect x="572.1" y="318.4" transform="matrix(6.031981e-11 -1 1 6.031981e-11 253.7234 893.397)" class="st5" width="2.8" height="2.8"/>
		
			<rect x="566.5" y="312.8" transform="matrix(6.031981e-11 -1 1 6.031981e-11 253.7234 882.0585)" class="st5" width="2.8" height="2.8"/>
		
			<rect x="572.1" y="324.1" transform="matrix(6.096108e-11 -1 1 6.096108e-11 248.0542 899.0663)" class="st5" width="2.8" height="2.8"/>
		
			<rect x="572.1" y="312.8" transform="matrix(5.903639e-11 -1 1 5.903639e-11 259.3927 887.7278)" class="st5" width="2.8" height="2.8"/>
	</g>
	<g>
		<defs>
			<rect id="SVGID_1_" x="491.6" y="314.2" width="22.3" height="8.5"/>
		</defs>
		<clipPath id="SVGID_00000006709420238189570770000011597165265386380688_">
			<use xlink:href="#SVGID_1_"  style="overflow:visible;"/>
		</clipPath>
		<g style="clip-path:url(#SVGID_00000006709420238189570770000011597165265386380688_);">
			<polygon class="st14" points="512.7,325.5 509.9,325.5 504.2,318.4 509.9,311.3 512.7,311.3 507,318.4 			"/>
			<polygon class="st15" points="507,325.5 504.2,325.5 498.5,318.4 504.2,311.3 507,311.3 501.4,318.4 			"/>
			<polygon class="st16" points="501.4,325.5 498.5,325.5 492.9,318.4 498.5,311.3 501.4,311.3 495.7,318.4 			"/>
		</g>
	</g>
	<g>
		<g>
			<path class="st6" d="M583,409.2c0,1.6-1.3,2.8-2.8,2.8H211.3c-1.6,0-2.8-1.3-2.8-2.8v-24.9c0-1.6,1.3-2.8,2.8-2.8h368.8
				c1.6,0,2.8,1.3,2.8,2.8V409.2z"/>
			<path class="st17" d="M583,409.2c0,1.6-1.3,2.8-2.8,2.8H211.3c-1.6,0-2.8-1.3-2.8-2.8v-24.9c0-1.6,1.3-2.8,2.8-2.8h368.8
				c1.6,0,2.8,1.3,2.8,2.8V409.2z"/>
		</g>
		<g>
			<path class="st5" d="M254,398.1v2.6c0,1.3-0.6,1.7-1.3,2h-3.3c-0.7-0.3-1.3-0.7-1.3-2v-2h1.8v2.1l0.4,0.4h1.6l0.4-0.4v-2.8
				l-0.3-0.4l-2.6-0.8c-0.8-0.3-1.1-0.8-1.1-1.9v-2.2c0-1.3,0.6-1.7,1.3-2h3.3c0.7,0.3,1.3,0.7,1.3,2v1.9h-1.8v-2.1l-0.4-0.4h-1.6
				l-0.4,0.4v2.4l0.4,0.4l2.6,0.7C253.6,396.5,254,397,254,398.1z"/>
			<path class="st5" d="M255.3,390.7h5.1v1.6h-3.3v3.4h3.1v1.6h-3.1v3.7h3.4v1.6h-5.2V390.7z"/>
			<path class="st5" d="M267.6,400.7c0,1.3-0.6,1.7-1.3,2H263c-0.7-0.3-1.3-0.7-1.3-2v-8c0-1.3,0.6-1.7,1.3-2h3.3
				c0.7,0.3,1.3,0.7,1.3,2v2.7h-1.8v-2.8l-0.4-0.4h-1.6l-0.4,0.4v8.3l0.4,0.4h1.6l0.4-0.4v-2.7h1.8V400.7z"/>
			<path class="st5" d="M272.4,392.4v10.3h-1.8v-10.3h-2.1v-1.6h6.1v1.6H272.4z"/>
			<path class="st5" d="M281.3,400.7c0,1.3-0.6,1.7-1.3,2h-3.3c-0.7-0.3-1.3-0.7-1.3-2v-8c0-1.3,0.6-1.7,1.3-2h3.3
				c0.7,0.3,1.3,0.7,1.3,2V400.7z M279.5,392.6l-0.4-0.4h-1.6l-0.4,0.4v8.3l0.4,0.4h1.6l0.4-0.4V392.6z"/>
			<path class="st5" d="M282.7,402.7v-12h4.6c0.7,0.3,1.3,0.7,1.3,2v2.6c0,1.3-0.6,1.6-1.3,1.9l-0.3,0.1l2.1,4.3v1.1h-1.6l-2.2-5.1
				h-0.8v5.1H282.7z M284.5,392.2v3.9h2l0.4-0.4v-3.1l-0.4-0.4H284.5z"/>
			<path class="st5" d="M292.8,402.7v-1.6h1.8v-8.7h-1.7v-1.6h3.5v10.4h1.7v1.6H292.8z"/>
		</g>
		<line class="st18" x1="222.7" y1="396.8" x2="243.9" y2="396.8"/>
		<g>
			<path class="st5" d="M344.1,398.1v2.6c0,1.3-0.6,1.7-1.3,2h-3.3c-0.7-0.3-1.3-0.7-1.3-2v-2h1.8v2.1l0.4,0.4h1.6l0.4-0.4v-2.8
				l-0.3-0.4l-2.6-0.8c-0.8-0.3-1.1-0.8-1.1-1.9v-2.2c0-1.3,0.6-1.7,1.3-2h3.3c0.7,0.3,1.3,0.7,1.3,2v1.9h-1.8v-2.1l-0.4-0.4h-1.6
				l-0.4,0.4v2.4l0.4,0.4l2.6,0.7C343.7,396.5,344.1,397,344.1,398.1z"/>
			<path class="st5" d="M345.4,390.7h5.1v1.6h-3.3v3.4h3.1v1.6h-3.1v3.7h3.4v1.6h-5.2V390.7z"/>
			<path class="st5" d="M357.8,400.7c0,1.3-0.6,1.7-1.3,2h-3.3c-0.7-0.3-1.3-0.7-1.3-2v-8c0-1.3,0.6-1.7,1.3-2h3.3
				c0.7,0.3,1.3,0.7,1.3,2v2.7H356v-2.8l-0.4-0.4H354l-0.4,0.4v8.3l0.4,0.4h1.6l0.4-0.4v-2.7h1.8V400.7z"/>
			<path class="st5" d="M362.5,392.4v10.3h-1.8v-10.3h-2.1v-1.6h6.1v1.6H362.5z"/>
			<path class="st5" d="M371.4,400.7c0,1.3-0.6,1.7-1.3,2h-3.3c-0.7-0.3-1.3-0.7-1.3-2v-8c0-1.3,0.6-1.7,1.3-2h3.3
				c0.7,0.3,1.3,0.7,1.3,2V400.7z M369.6,392.6l-0.4-0.4h-1.6l-0.4,0.4v8.3l0.4,0.4h1.6l0.4-0.4V392.6z"/>
			<path class="st5" d="M372.8,402.7v-12h4.6c0.7,0.3,1.3,0.7,1.3,2v2.6c0,1.3-0.6,1.6-1.3,1.9l-0.3,0.1l2.1,4.3v1.1h-1.6l-2.2-5.1
				h-0.8v5.1H372.8z M374.6,392.2v3.9h2l0.4-0.4v-3.1l-0.4-0.4H374.6z"/>
			<path class="st5" d="M382.5,402.7v-3.6c0-1.1,0.4-1.7,1.2-2.1l3-1.2v-3.2l-0.4-0.4h-1.7l-0.4,0.4v2h-1.8v-1.9
				c0-1.3,0.6-1.7,1.3-2h3.3c0.7,0.3,1.3,0.7,1.3,2v2.5c0,1.1-0.3,1.7-1.1,2.1l-3,1.2v2.5h4.1v1.6H382.5z"/>
		</g>
		<line class="st19" x1="312.8" y1="396.8" x2="334" y2="396.8"/>
		<g>
			<path class="st5" d="M433.9,398.1v2.6c0,1.3-0.6,1.7-1.3,2h-3.3c-0.7-0.3-1.3-0.7-1.3-2v-2h1.8v2.1l0.4,0.4h1.6l0.4-0.4v-2.8
				l-0.3-0.4l-2.6-0.8c-0.8-0.3-1.1-0.8-1.1-1.9v-2.2c0-1.3,0.6-1.7,1.3-2h3.3c0.7,0.3,1.3,0.7,1.3,2v1.9h-1.8v-2.1l-0.4-0.4h-1.6
				l-0.4,0.4v2.4l0.4,0.4l2.6,0.7C433.6,396.5,433.9,397,433.9,398.1z"/>
			<path class="st5" d="M435.2,390.7h5.1v1.6H437v3.4h3.1v1.6H437v3.7h3.4v1.6h-5.2V390.7z"/>
			<path class="st5" d="M447.6,400.7c0,1.3-0.6,1.7-1.3,2H443c-0.7-0.3-1.3-0.7-1.3-2v-8c0-1.3,0.6-1.7,1.3-2h3.3
				c0.7,0.3,1.3,0.7,1.3,2v2.7h-1.8v-2.8l-0.4-0.4h-1.6l-0.4,0.4v8.3l0.4,0.4h1.6l0.4-0.4v-2.7h1.8V400.7z"/>
			<path class="st5" d="M452.3,392.4v10.3h-1.8v-10.3h-2.1v-1.6h6.1v1.6H452.3z"/>
			<path class="st5" d="M461.2,400.7c0,1.3-0.6,1.7-1.3,2h-3.3c-0.7-0.3-1.3-0.7-1.3-2v-8c0-1.3,0.6-1.7,1.3-2h3.3
				c0.7,0.3,1.3,0.7,1.3,2V400.7z M459.4,392.6l-0.4-0.4h-1.6l-0.4,0.4v8.3l0.4,0.4h1.6l0.4-0.4V392.6z"/>
			<path class="st5" d="M462.6,402.7v-12h4.6c0.7,0.3,1.3,0.7,1.3,2v2.6c0,1.3-0.6,1.6-1.3,1.9l-0.3,0.1l2.1,4.3v1.1h-1.6l-2.2-5.1
				h-0.8v5.1H462.6z M464.4,392.2v3.9h2l0.4-0.4v-3.1l-0.4-0.4H464.4z"/>
			<path class="st5" d="M473.6,402.7c-0.7-0.3-1.3-0.7-1.3-2v-1.7h1.8v1.8l0.4,0.4h1.7l0.4-0.4v-3.2l-0.4-0.3h-1.8v-1.4h1.8l0.4-0.4
				v-3l-0.4-0.4h-1.7l-0.4,0.4v1.8h-1.8v-1.7c0-1.3,0.6-1.7,1.3-2h3.3c0.7,0.3,1.3,0.7,1.3,2v1.9c0,1-0.2,1.5-0.9,1.9
				c0.6,0.4,0.9,0.9,0.9,1.9v2.2c0,1.3-0.6,1.7-1.3,2H473.6z"/>
		</g>
		<line class="st20" x1="402.6" y1="396.8" x2="423.9" y2="396.8"/>
		<g>
			<path class="st5" d="M523.8,400.7c0,1.3-0.6,1.7-1.3,2h-4.6v-12h4.6c0.7,0.3,1.3,0.7,1.3,2V400.7z M519.7,392.2v9h2l0.4-0.4v-8.3
				l-0.4-0.4H519.7z"/>
			<path class="st5" d="M525.2,402.7v-12h4.6c0.7,0.3,1.3,0.7,1.3,2v2.6c0,1.3-0.6,1.6-1.3,1.9l-0.3,0.1l2.1,4.3v1.1h-1.6l-2.2-5.1
				H527v5.1H525.2z M527,392.2v3.9h2l0.4-0.4v-3.1l-0.4-0.4H527z"/>
			<path class="st5" d="M538.3,398.1v2.6c0,1.3-0.6,1.7-1.3,2h-3.3c-0.7-0.3-1.3-0.7-1.3-2v-2h1.8v2.1l0.4,0.4h1.6l0.4-0.4v-2.8
				l-0.3-0.4l-2.6-0.8c-0.8-0.3-1.1-0.8-1.1-1.9v-2.2c0-1.3,0.6-1.7,1.3-2h3.3c0.7,0.3,1.3,0.7,1.3,2v1.9h-1.8v-2.1l-0.4-0.4h-1.6
				l-0.4,0.4v2.4l0.4,0.4l2.6,0.7C537.9,396.5,538.3,397,538.3,398.1z"/>
			<path class="st5" d="M545.8,392.4h-3.9v-1.6h5.8v1.5l-4,8.9h4v1.6h-5.9v-1.5L545.8,392.4z"/>
			<path class="st5" d="M555,400.7c0,1.3-0.6,1.7-1.3,2h-3.3c-0.7-0.3-1.3-0.7-1.3-2v-8c0-1.3,0.6-1.7,1.3-2h3.3
				c0.7,0.3,1.3,0.7,1.3,2V400.7z M553.2,392.6l-0.4-0.4h-1.6l-0.4,0.4v8.3l0.4,0.4h1.6l0.4-0.4V392.6z"/>
			<path class="st5" d="M560.7,390.7h1.6v12h-1.6l-2.6-7.1H558v7.1h-1.6v-12h1.6l2.6,7.1h0.2V390.7z"/>
			<path class="st5" d="M563.7,390.7h5.1v1.6h-3.3v3.4h3.1v1.6h-3.1v3.7h3.4v1.6h-5.2V390.7z"/>
		</g>
		<g>
			<g>
				<g>
					<g>
						<line class="st21" x1="493.9" y1="389.4" x2="493.9" y2="404.2"/>
					</g>
					<g>
						<path class="st10" d="M501.5,396.8c0,0.8-0.7,1.4-1.5,1.4c-0.8,0-1.5-0.6-1.5-1.4s0.7-1.4,1.5-1.4
							C500.8,395.4,501.5,396,501.5,396.8z"/>
					</g>
					<g>
						<ellipse class="st10" cx="506.1" cy="396.8" rx="1.5" ry="1.4"/>
					</g>
					<g>
						<line class="st21" x1="512.2" y1="389.4" x2="512.2" y2="404.2"/>
					</g>
				</g>
			</g>
		</g>
	</g>
</g>
</svg>
